<svg xmlns="http://www.w3.org/2000/svg" width="1242.78" height="187.92" viewBox="0 0 1242.78 187.92">
  <g>
    <path d="M1.7,184.57V3.35H49.58q15,0,23.84,6.69T86,29.09q3.81,12.36,3.81,29.45a114.45,114.45,0,0,1-3.19,28.67q-3.2,12.21-11.38,18.9T52.05,112.8H37.33v71.77ZM37.33,80.26h2.06q10.08,0,12.35-5.66T54,57.92Q54,47.63,51.79,42T41.34,36.4h-4Z"/>
    <path d="M39,186.27H0V1.65H49.58c10.35,0,18.72,2.37,24.87,7S85,20,87.66,28.59c2.57,8.36,3.88,18.44,3.88,30a116.1,116.1,0,0,1-3.25,29.1c-2.21,8.46-6.23,15.11-11.94,19.78s-13.92,7.08-24.3,7.08H39ZM3.4,182.87H35.63V111.1H52.05c9.58,0,17-2.12,22.14-6.31S83,94.53,85,86.78a113.06,113.06,0,0,0,3.14-28.24c0-11.17-1.26-20.91-3.74-28.95-2.42-7.85-6.46-14-12-18.2S59.17,5.05,49.58,5.05H3.4ZM39.39,82H35.63V34.7h5.71c6.24,0,10.28,2.25,12,6.69,1.54,3.92,2.33,9.49,2.33,16.53,0,7.63-.78,13.3-2.39,17.31C51.53,79.7,46.85,82,39.39,82ZM39,78.56h.36c5.93,0,9.55-1.54,10.77-4.59,1.43-3.56,2.15-9,2.15-16,0-6.62-.71-11.76-2.1-15.28-1.2-3.06-4.1-4.54-8.87-4.54H39Z"/>
    <path d="M99.55,184.57V3.35h55.6q13.9,0,21,6.33t9.53,17.71a130,130,0,0,1,2.42,26.72q0,14.83-3.76,23.68T170.18,90.05q8.55,1.74,12,8.49T185.63,116v68.58H149.9V113.62q0-7.92-3.25-9.83t-10.45-1.9v82.68ZM136.41,70.48h8.75q7.51,0,7.52-16.37,0-10.61-1.65-13.9c-1.1-2.2-3.16-3.29-6.18-3.29h-8.44Z"/>
    <path d="M187.33,186.27H148.2V113.62c0-4.54-.83-7.44-2.41-8.36s-4.29-1.51-7.89-1.64v82.65H97.85V1.65h57.3c9.65,0,17.1,2.27,22.14,6.76S185.66,19.12,187.34,27a132.12,132.12,0,0,1,2.46,27.07c0,10.07-1.31,18.26-3.89,24.35a22.33,22.33,0,0,1-10.75,11.36,16.88,16.88,0,0,1,8.53,8c2.41,4.72,3.64,10.85,3.64,18.22Zm-35.73-3.4h32.33V116c0-6.83-1.1-12.44-3.27-16.67-2.07-4-5.61-6.54-10.82-7.61l-6.29-1.29,6.1-2c6.51-2.13,10.8-5.82,13.12-11.3,2.41-5.67,3.63-13.41,3.63-23A128.88,128.88,0,0,0,184,27.74c-1.53-7.18-4.56-12.83-9-16.79s-11.08-5.9-19.87-5.9h-53.9V182.87H134.5V100.19h1.7c5.16,0,8.86.7,11.32,2.14,2.74,1.61,4.08,5.31,4.08,11.29ZM145.16,72.18H134.71v-37h10.14c4.62,0,6.74,2.31,7.7,4.24,1.23,2.46,1.83,7.26,1.83,14.66C154.38,66.1,151.28,72.18,145.16,72.18Zm-7-3.4h7c3.86,0,5.82-4.93,5.82-14.67,0-8.43-.8-11.8-1.47-13.14-.51-1-1.54-2.35-4.66-2.35h-6.74Z"/>
    <path d="M198.45,184.57V3.35h72.49v35H235.31V73.67H269.5v34.09H235.31v41.49h38v35.32Z"/>
    <path d="M275,186.27H196.75V1.65h75.89V40.06H237V72H271.2v37.49H237v38.09h38Zm-74.86-3.4H271.6V151h-38v-44.9h34.18V75.38H233.61V36.66h35.63V5.05H200.15Z"/>
    <path d="M326.89,186.22q-24.81,0-35.78-12.36t-11-39.33V116.82H316v22.65q0,6.28,1.9,9.83t6.65,3.56q4.94,0,6.84-2.89t1.91-9.47a50.2,50.2,0,0,0-1.65-14,31.34,31.34,0,0,0-5.71-10.71A120.09,120.09,0,0,0,314.64,104L298.37,88.5q-18.22-17.19-18.22-39.33,0-23.18,10.76-35.32T322.05,1.7Q347,1.7,357.42,15t10.46,40.37H331V42.89a7.7,7.7,0,0,0-2.11-5.77,7.84,7.84,0,0,0-5.71-2.06q-4.33,0-6.34,2.42a9.49,9.49,0,0,0-2,6.23A19.56,19.56,0,0,0,316.91,52Q319,56.38,325,62.14l20.9,20.08a122.09,122.09,0,0,1,11.54,12.61,54.9,54.9,0,0,1,8.44,15.45q3.19,8.81,3.19,21.47,0,25.53-9.42,40T326.89,186.22Z"/>
    <path d="M326.89,187.92c-17,0-29.43-4.35-37.05-12.93s-11.39-22.13-11.39-40.46V115.12h39.23v24.35c0,3.89.57,6.92,1.7,9,1,1.81,2.61,2.65,5.15,2.65,2.71,0,4.48-.69,5.42-2.11.74-1.13,1.63-3.52,1.63-8.54A48.77,48.77,0,0,0,330,127a29.74,29.74,0,0,0-5.41-10.13,120.16,120.16,0,0,0-11.12-11.72L297.2,89.74C284.76,78,278.45,64.34,278.45,49.17c0-15.8,3.76-28.06,11.18-36.45S308,0,322.05,0c17.09,0,29.44,4.69,36.71,13.93S369.58,37,369.58,55.35v1.7H329.31V42.89a6,6,0,0,0-1.6-4.55,6.13,6.13,0,0,0-4.52-1.58c-2.37,0-4,.59-5,1.81a7.75,7.75,0,0,0-1.61,5.14,18.09,18.09,0,0,0,1.9,7.52c1.27,2.75,3.89,6,7.76,9.68L347.12,81a123.26,123.26,0,0,1,11.69,12.79,56.59,56.59,0,0,1,8.71,15.92c2.18,6,3.29,13.45,3.29,22,0,17.28-3.26,31.05-9.7,40.93C354.53,182.79,343,187.92,326.89,187.92Zm-45-69.4v16c0,17.47,3.54,30.32,10.54,38.2s18.55,11.79,34.5,11.79c14.9,0,25.46-4.61,31.37-13.7,6.07-9.32,9.15-22.46,9.15-39.07,0-8.21-1-15.23-3.09-20.89a53.44,53.44,0,0,0-8.18-15,119.68,119.68,0,0,0-11.37-12.44L323.86,63.37c-4.24-4-7-7.53-8.5-10.7a21.42,21.42,0,0,1-2.21-9,11.08,11.08,0,0,1,2.4-7.31c1.67-2,4.24-3,7.64-3a9.53,9.53,0,0,1,6.9,2.54,9.39,9.39,0,0,1,2.62,7V53.65h33.45C366,36.92,362.56,24.27,356.09,16c-6.6-8.39-18-12.64-34-12.64C309,3.4,299,7.3,292.18,15s-10.33,19.24-10.33,34.19c0,14.2,5.95,27,17.69,38.09l16.27,15.45a122.45,122.45,0,0,1,11.44,12.07,33,33,0,0,1,6,11.29A52.16,52.16,0,0,1,335,140.5c0,4.78-.72,8.18-2.19,10.41-1.6,2.42-4.38,3.65-8.26,3.65-4.76,0-7.06-2.42-8.14-4.45-1.42-2.64-2.11-6.12-2.11-10.64v-21Z"/>
    <path d="M422.42,186.22q-24.81,0-35.78-12.36t-11-39.33V116.82h35.84v22.65q0,6.28,1.9,9.83t6.64,3.56q4.95,0,6.85-2.89t1.9-9.47a50.62,50.62,0,0,0-1.64-14,31.37,31.37,0,0,0-5.72-10.71A119.82,119.82,0,0,0,410.17,104L393.9,88.5q-18.22-17.19-18.23-39.33,0-23.18,10.76-35.32T417.58,1.7Q442.5,1.7,453,15T463.4,55.35H426.54V42.89a7.74,7.74,0,0,0-2.11-5.77,7.85,7.85,0,0,0-5.72-2.06q-4.32,0-6.33,2.42a9.44,9.44,0,0,0-2,6.23A19.71,19.71,0,0,0,412.43,52q2.07,4.42,8.14,10.19l20.9,20.08A120.87,120.87,0,0,1,453,94.83a54.66,54.66,0,0,1,8.44,15.45q3.19,8.81,3.2,21.47,0,25.53-9.42,40T422.42,186.22Z"/>
    <path d="M422.42,187.92c-17,0-29.44-4.35-37.05-12.93S374,152.86,374,134.53V115.12h39.24v24.35c0,3.89.57,6.92,1.7,9,1,1.81,2.6,2.65,5.14,2.65,2.71,0,4.49-.69,5.43-2.11.74-1.13,1.62-3.52,1.62-8.54A48.77,48.77,0,0,0,425.52,127a29.74,29.74,0,0,0-5.41-10.13A119.89,119.89,0,0,0,409,105.18L392.73,89.74C380.28,78,374,64.34,374,49.17c0-15.8,3.77-28.06,11.19-36.45S403.54,0,417.58,0C434.66,0,447,4.69,454.29,13.93S465.1,37,465.1,55.35v1.7H424.84V42.89a6,6,0,0,0-1.6-4.55,6.17,6.17,0,0,0-4.53-1.58c-2.37,0-4,.59-5,1.81a7.7,7.7,0,0,0-1.62,5.14,18.09,18.09,0,0,0,1.9,7.52c1.28,2.75,3.89,6,7.77,9.68L442.65,81a124.39,124.39,0,0,1,11.69,12.79A56.82,56.82,0,0,1,463,109.7c2.19,6,3.3,13.45,3.3,22,0,17.28-3.26,31.05-9.7,40.93C450.06,182.79,438.54,187.92,422.42,187.92Zm-45.05-69.4v16c0,17.47,3.55,30.32,10.54,38.2s18.55,11.79,34.51,11.79c14.9,0,25.45-4.61,31.37-13.7,6.07-9.32,9.15-22.46,9.15-39.07,0-8.21-1-15.23-3.09-20.89a53.44,53.44,0,0,0-8.18-15A119.68,119.68,0,0,0,440.3,83.45L419.39,63.37c-4.24-4-7-7.53-8.5-10.7a21.45,21.45,0,0,1-2.22-9,11.13,11.13,0,0,1,2.4-7.31c1.67-2,4.24-3,7.64-3a9.57,9.57,0,0,1,6.91,2.54,9.39,9.39,0,0,1,2.62,7V53.65h33.45c-.21-16.73-3.6-29.38-10.08-37.61-6.59-8.39-18-12.64-34-12.64-13,0-23.07,3.9-29.87,11.58s-10.34,19.24-10.34,34.19c0,14.2,6,27,17.7,38.09l16.27,15.45a122.19,122.19,0,0,1,11.43,12.07,33,33,0,0,1,6,11.29,52.16,52.16,0,0,1,1.72,14.43c0,4.78-.72,8.18-2.19,10.41-1.6,2.42-4.38,3.65-8.27,3.65-4.76,0-7.05-2.42-8.14-4.45-1.42-2.64-2.1-6.12-2.1-10.64v-21Z"/>
    <path d="M522.77,184.57V3.35h55.61q13.89,0,21,6.33t9.53,17.71a130,130,0,0,1,2.42,26.72q0,14.83-3.76,23.68T593.41,90.05q8.55,1.74,12,8.49T608.85,116v68.58H573.12V113.62q0-7.92-3.24-9.83t-10.45-1.9v82.68ZM559.64,70.48h8.75q7.51,0,7.51-16.37,0-10.61-1.64-13.9c-1.1-2.2-3.16-3.29-6.18-3.29h-8.44Z"/>
    <path d="M610.55,186.27H571.42V113.62c0-4.54-.83-7.44-2.4-8.36s-4.29-1.51-7.89-1.64v82.65H521.07V1.65h57.31c9.65,0,17.1,2.27,22.13,6.76S608.89,19.12,610.57,27A132.12,132.12,0,0,1,613,54.11c0,10.07-1.31,18.26-3.9,24.35a22.31,22.31,0,0,1-10.74,11.36,16.88,16.88,0,0,1,8.53,8c2.41,4.72,3.63,10.85,3.63,18.22Zm-35.72-3.4h32.32V116c0-6.83-1.09-12.44-3.26-16.67-2.07-4-5.61-6.54-10.82-7.61l-6.29-1.29,6.1-2c6.5-2.13,10.79-5.82,13.12-11.3,2.41-5.67,3.62-13.41,3.62-23a128.88,128.88,0,0,0-2.38-26.37c-1.53-7.18-4.55-12.83-9-16.79s-11.08-5.9-19.87-5.9H524.47V182.87h33.26V100.19h1.7c5.16,0,8.86.7,11.31,2.14,2.75,1.61,4.09,5.31,4.09,11.29ZM568.39,72.18H557.94v-37h10.14c4.61,0,6.73,2.31,7.7,4.24,1.23,2.46,1.83,7.26,1.83,14.66C577.61,66.1,574.5,72.18,568.39,72.18Zm-7-3.4h7c3.86,0,5.81-4.93,5.81-14.67,0-8.43-.79-11.8-1.46-13.14-.51-1-1.54-2.35-4.66-2.35h-6.74Z"/>
    <path d="M621.68,184.57V3.35h72.48v35H658.54V73.67h34.18v34.09H658.54v41.49h38v35.32Z"/>
    <path d="M698.23,186.27H620V1.65h75.89V40.06H660.24V72h34.18v37.49H660.24v38.09h38Zm-74.85-3.4h71.45V151h-38v-44.9H691V75.38H656.84V36.66h35.62V5.05H623.38Z"/>
    <path d="M707.08,184.57V3.35h36.24V153.68H780.6v30.89Z"/>
    <path d="M782.3,186.27H705.38V1.65H745V152H782.3Zm-73.52-3.4H778.9V155.38H741.62V5.05H708.78Z"/>
    <path d="M789.32,184.57V3.35h72.49v35H826.19V73.67h34.18v34.09H826.19v41.49h38v35.32Z"/>
    <path d="M865.88,186.27H787.62V1.65h75.89V40.06H827.89V72h34.18v37.49H827.89v38.09h38ZM791,182.87h71.46V151h-38v-44.9h34.19V75.38H824.48V36.66h35.63V5.05H791Z"/>
    <path d="M869.58,184.57,887.08,3.35h61.47l17.2,181.22H931.46l-2.58-29.24H907.06l-2.27,29.24Zm40-58.18H926.1l-7.92-92.15h-1.65Z"/>
    <path d="M967.62,186.27H929.9L927.33,157h-18.7l-2.27,29.24H867.7L885.54,1.65H950.1Zm-34.6-3.4h30.86L947,5.05H888.63L871.45,182.87h31.77l2.26-29.24h25ZM928,128.09H907.8L915,32.54h4.79Zm-16.5-3.4h12.79l-6.84-79.48Z"/>
    <path d="M1018.15,186.22q-24.82,0-35.78-12.36t-11-39.33V116.82h35.83v22.65q0,6.28,1.91,9.83t6.64,3.56q4.94,0,6.85-2.89t1.9-9.47a50.2,50.2,0,0,0-1.65-14,31.34,31.34,0,0,0-5.71-10.71A118.91,118.91,0,0,0,1005.89,104L989.62,88.5Q971.4,71.31,971.4,49.17q0-23.18,10.76-35.32T1013.31,1.7q24.92,0,35.37,13.28t10.45,40.37h-36.86V42.89a7.7,7.7,0,0,0-2.12-5.77,7.83,7.83,0,0,0-5.71-2.06q-4.32,0-6.33,2.42a9.44,9.44,0,0,0-2,6.23,19.56,19.56,0,0,0,2.06,8.24q2.05,4.42,8.13,10.19l20.9,20.08a121,121,0,0,1,11.54,12.61,54.9,54.9,0,0,1,8.44,15.45q3.19,8.81,3.19,21.47,0,25.53-9.42,40T1018.15,186.22Z"/>
    <path d="M1018.15,187.92c-17,0-29.44-4.35-37.06-12.93s-11.39-22.13-11.39-40.46V115.12h39.23v24.35c0,3.89.58,6.92,1.71,9,1,1.81,2.6,2.65,5.14,2.65,2.71,0,4.48-.69,5.43-2.12.74-1.11,1.62-3.5,1.62-8.53a48.77,48.77,0,0,0-1.58-13.47,29.74,29.74,0,0,0-5.41-10.13,119.89,119.89,0,0,0-11.11-11.72L988.45,89.74C976,78,969.7,64.34,969.7,49.17c0-15.8,3.76-28.06,11.19-36.45S999.27,0,1013.31,0c17.08,0,29.43,4.69,36.7,13.93s10.82,23.06,10.82,41.42v1.7h-40.27V42.89a6,6,0,0,0-1.59-4.55,6.17,6.17,0,0,0-4.53-1.58c-2.37,0-4,.59-5,1.81a7.7,7.7,0,0,0-1.62,5.14,18.09,18.09,0,0,0,1.9,7.52c1.28,2.75,3.89,6,7.76,9.68L1038.37,81a122.16,122.16,0,0,1,11.69,12.79,56.59,56.59,0,0,1,8.71,15.92c2.19,6,3.29,13.45,3.29,22,0,17.28-3.26,31.05-9.69,40.93C1045.78,182.79,1034.27,187.92,1018.15,187.92Zm-45-69.4v16c0,17.47,3.55,30.32,10.54,38.2s18.55,11.79,34.51,11.79c14.89,0,25.45-4.61,31.37-13.7,6.06-9.32,9.14-22.46,9.14-39.07,0-8.2-1-15.23-3.09-20.89a53.44,53.44,0,0,0-8.18-15A118.58,118.58,0,0,0,1036,83.45l-20.91-20.08c-4.23-4-7-7.53-8.49-10.7a21.45,21.45,0,0,1-2.22-9,11.13,11.13,0,0,1,2.4-7.31c1.67-2,4.24-3,7.64-3a9.53,9.53,0,0,1,6.9,2.54,9.4,9.4,0,0,1,2.63,7V53.65h33.44c-.21-16.74-3.6-29.38-10.07-37.61-6.6-8.39-18-12.64-34-12.64-13,0-23.07,3.9-29.88,11.58S973.1,34.22,973.1,49.17c0,14.2,5.95,27,17.69,38.09l16.27,15.45a121.26,121.26,0,0,1,11.44,12.07,33,33,0,0,1,6,11.29,52.16,52.16,0,0,1,1.72,14.43c0,4.78-.71,8.18-2.19,10.41-1.6,2.42-4.38,3.65-8.26,3.65-4.76,0-7-2.42-8.14-4.45-1.42-2.64-2.11-6.12-2.11-10.64v-21Z"/>
    <path d="M1070.63,184.57V3.35h72.49v35h-35.63V73.67h34.19v34.09h-34.19v41.49h38v35.32Z"/>
    <path d="M1147.19,186.27h-78.26V1.65h75.89V40.06h-35.63V72h34.19v37.49h-34.19v38.09h38Zm-74.86-3.4h71.46V151h-38v-44.9H1140V75.38h-34.19V36.66h35.63V5.05h-69.09Z"/>
    <path d="M1198.86,186.22q-24.81,0-35.78-12.36t-11-39.33V116.82H1188v22.65q0,6.28,1.9,9.83t6.65,3.56q4.93,0,6.84-2.89t1.91-9.47a50.2,50.2,0,0,0-1.65-14,31.34,31.34,0,0,0-5.71-10.71A120.09,120.09,0,0,0,1186.61,104L1170.34,88.5q-18.22-17.19-18.22-39.33,0-23.18,10.76-35.32T1194,1.7q24.92,0,35.36,13.28t10.46,40.37H1203V42.89a7.7,7.7,0,0,0-2.11-5.77,7.83,7.83,0,0,0-5.71-2.06q-4.34,0-6.33,2.42a9.44,9.44,0,0,0-2,6.23,19.56,19.56,0,0,0,2.06,8.24q2.05,4.42,8.13,10.19l20.9,20.08a122.09,122.09,0,0,1,11.54,12.61,54.9,54.9,0,0,1,8.44,15.45q3.19,8.81,3.19,21.47,0,25.53-9.42,40T1198.86,186.22Z"/>
    <path d="M1198.86,187.92c-17,0-29.43-4.35-37-12.93s-11.39-22.13-11.39-40.46V115.12h39.23v24.35c0,3.89.57,6.92,1.7,9,1,1.81,2.61,2.65,5.15,2.65,2.71,0,4.48-.69,5.43-2.12.74-1.11,1.62-3.5,1.62-8.53A48.77,48.77,0,0,0,1202,127a29.74,29.74,0,0,0-5.41-10.13,119,119,0,0,0-11.12-11.72l-16.27-15.44c-12.44-11.74-18.75-25.4-18.75-40.57,0-15.8,3.76-28.06,11.18-36.45S1180,0,1194,0c17.08,0,29.43,4.69,36.7,13.93s10.82,23.06,10.82,41.42v1.7h-40.27V42.89a6,6,0,0,0-1.6-4.55,6.13,6.13,0,0,0-4.52-1.58c-2.37,0-4,.59-5,1.81a7.75,7.75,0,0,0-1.61,5.14,18.09,18.09,0,0,0,1.9,7.52c1.28,2.75,3.89,6,7.76,9.68L1219.09,81a123.26,123.26,0,0,1,11.69,12.79,56.59,56.59,0,0,1,8.71,15.92c2.18,6,3.29,13.45,3.29,22,0,17.28-3.26,31.05-9.7,40.93C1226.5,182.79,1215,187.92,1198.86,187.92Zm-45-69.4v16c0,17.47,3.54,30.32,10.54,38.2s18.55,11.79,34.5,11.79c14.9,0,25.46-4.61,31.37-13.7,6.07-9.32,9.15-22.46,9.15-39.07,0-8.2-1-15.23-3.09-20.89a53.44,53.44,0,0,0-8.18-15,119.68,119.68,0,0,0-11.37-12.44l-20.91-20.08c-4.24-4-7-7.53-8.49-10.7a21.3,21.3,0,0,1-2.22-9,11.08,11.08,0,0,1,2.4-7.31c1.67-2,4.24-3,7.64-3a9.53,9.53,0,0,1,6.9,2.54,9.4,9.4,0,0,1,2.63,7V53.65h33.44c-.21-16.74-3.6-29.38-10.07-37.61-6.6-8.39-18-12.64-34-12.64-13,0-23.08,3.9-29.88,11.58s-10.33,19.24-10.33,34.19c0,14.2,6,27,17.69,38.09l16.27,15.45a121.26,121.26,0,0,1,11.44,12.07,33,33,0,0,1,6,11.29A52.16,52.16,0,0,1,1207,140.5c0,4.78-.72,8.18-2.19,10.41-1.6,2.42-4.38,3.65-8.26,3.65-4.76,0-7.06-2.42-8.14-4.45-1.42-2.64-2.11-6.12-2.11-10.64v-21Z"/>
  </g>
</svg>
