<?xml version="1.0" encoding="utf-8"?>
<!-- Generator: Adobe Illustrator 19.0.0, SVG Export Plug-In . SVG Version: 6.00 Build 0)  -->
<svg version="1.0" id="Capa_1" xmlns="http://www.w3.org/2000/svg" xmlns:xlink="http://www.w3.org/1999/xlink" x="0px" y="0px"
	 width="55.1px" height="23.9px" viewBox="0 0 55.1 23.9" enable-background="new 0 0 55.1 23.9" xml:space="preserve">
<g>
	<linearGradient id="SVGID_1_" gradientUnits="userSpaceOnUse" x1="27.54" y1="-23.88" x2="27.54" y2="23.88">
		<stop  offset="0" style="stop-color:#000000"/>
		<stop  offset="0.25" style="stop-color:#000000"/>
		<stop  offset="0.5" style="stop-color:#454545"/>
		<stop  offset="0.75" style="stop-color:#000000"/>
		<stop  offset="1" style="stop-color:#000000"/>
	</linearGradient>
	<path fill-rule="evenodd" clip-rule="evenodd" fill="url(#SVGID_1_)" d="M0,4c0-2.2,1.8-4,4-4h47.1c2.2,0,4,1.8,4,4v15.9
		c0,2.2-1.8,4-4,4H4c-2.2,0-4-1.8-4-4V4z"/>
	<g>
		<g>
			<path fill="#FFFFFF" d="M11.2,17.7c0,0.8-0.3,1.5-0.8,2c-0.5,0.5-1.2,0.8-2,0.8H4.9V5.2h3.5c0.8,0,1.5,0.3,2,0.8
				c0.5,0.5,0.8,1.2,0.8,2V17.7z M9.8,17.6V8c0-0.5-0.2-0.9-0.5-1.2S8.6,6.4,8.1,6.4H6.3v12.9h1.8c0.5,0,1-0.2,1.3-0.5
				C9.7,18.5,9.8,18.1,9.8,17.6z"/>
			<path fill="#FFFFFF" d="M20.1,19.4c0,0.3-0.1,0.6-0.3,0.8c-0.2,0.2-0.5,0.3-0.8,0.3h-4.3c-0.3,0-0.6-0.1-0.8-0.3
				c-0.2-0.2-0.3-0.5-0.3-0.8V6.2c0-0.3,0.1-0.6,0.3-0.8s0.5-0.3,0.8-0.3H19c0.3,0,0.6,0.1,0.8,0.3s0.3,0.5,0.3,0.8V19.4z
				 M18.7,19.3V6.4H15v12.9H18.7z"/>
			<path fill="#FFFFFF" d="M28.6,20.5h-0.9L23.6,9.2v11.3h-1.3V5.2h1l4,11.1V5.2h1.3V20.5z"/>
			<path fill="#FFFFFF" d="M37.2,20.5h-1.4l-0.5-3.4h-3l-0.5,3.4h-1.3v0l2.7-15.3h1.3L37.2,20.5z M35.2,15.9l-1.3-8.3l-1.4,8.3H35.2
				z"/>
			<path fill="#FFFFFF" d="M44.4,6.4H42v14.1h-1.4V6.4h-2.4V5.2h6.1V6.4z"/>
			<path fill="#FFFFFF" d="M51,20.5h-5V5.2h5v1.2h-3.6v5.7h3.3v1.2h-3.3v6H51V20.5z"/>
		</g>
	</g>
</g>
</svg>
