<?xml version="1.0" encoding="utf-8"?>
<!-- Generator: Adobe Illustrator 27.1.1, SVG Export Plug-In . SVG Version: 6.00 Build 0)  -->
<svg version="1.1" id="Capa_2_00000001627747224788590410000008859952563089518257_"
	 xmlns="http://www.w3.org/2000/svg" xmlns:xlink="http://www.w3.org/1999/xlink" x="0px" y="0px" width="702.7px" height="23.9px" viewBox="0 0 702.7 23.9"
	 style="enable-background:new 0 0 702.7 23.9;" xml:space="preserve">
<style type="text/css">
	.st0{fill:none;}
</style>
<g id="Capa_1-2">
	<g>
		<g>
			<path d="M33.7,1.8l-1.2,2.5c0,0.1-0.1,0.3-0.1,0.4c0,0.1-0.1,0.3-0.1,0.4h-0.1c0-0.1-0.1-0.3-0.1-0.4S32,4.5,31.9,4.4l-1.2-2.5
				h-1.6l2.3,4.6v2.3H33V6.4l2.3-4.6L33.7,1.8L33.7,1.8z"/>
			<path d="M39.7,3.9c-0.4-0.2-0.9-0.2-1.5-0.2s-1.1,0.1-1.5,0.2s-0.7,0.4-0.8,0.8c-0.2,0.4-0.2,0.9-0.2,1.5s0.1,1.1,0.2,1.5
				c0.2,0.4,0.4,0.7,0.8,0.8c0.4,0.2,0.9,0.2,1.5,0.2s1.1-0.1,1.5-0.2s0.6-0.4,0.8-0.8c0.2-0.4,0.2-0.9,0.2-1.5s-0.1-1.1-0.2-1.5
				C40.3,4.3,40.1,4.1,39.7,3.9z M39.1,7.2c-0.1,0.2-0.2,0.4-0.3,0.4s-0.3,0.1-0.6,0.1s-0.5,0-0.6-0.1c-0.2-0.1-0.2-0.2-0.3-0.4
				s-0.1-0.5-0.1-0.9s0-0.7,0.1-0.9c0.1-0.2,0.2-0.4,0.3-0.5s0.3-0.1,0.6-0.1s0.5,0,0.6,0.1c0.2,0.1,0.2,0.2,0.3,0.5
				s0.1,0.5,0.1,0.9S39.2,6.9,39.1,7.2z"/>
			<path d="M45,7.2c-0.2,0.1-0.4,0.2-0.6,0.3c-0.2,0.1-0.4,0.1-0.6,0.1s-0.3,0-0.4-0.1S43.2,7.2,43.2,7V3.8h-1.5v3.7
				c0,0.9,0.5,1.4,1.4,1.4c0.4,0,0.7-0.1,1.1-0.2c0.3-0.1,0.6-0.4,1-0.6l0.1,0.7h1.2V3.8H45L45,7.2L45,7.2z"/>
			<path d="M49.9,3.9c-0.3,0.2-0.7,0.4-1,0.6l-0.1-0.8h-1.2v4.9h1.5V5.4c0.3-0.1,0.6-0.2,0.8-0.2C50.2,5,50.4,5,50.7,5h0.4l0.1-1.4
				H51C50.6,3.6,50.3,3.7,49.9,3.9L49.9,3.9z"/>
			<path d="M56.2,3.6c-0.6,0-1,0.1-1.4,0.2c-0.3,0.1-0.6,0.3-0.7,0.5s-0.2,0.5-0.2,0.9s0.1,0.7,0.2,0.9c0.1,0.2,0.3,0.3,0.5,0.4
				c-0.1,0.1-0.2,0.1-0.3,0.2c-0.1,0.1-0.2,0.3-0.2,0.4c0,0.2,0,0.3,0,0.5c0,0.1,0.1,0.2,0.2,0.4c-0.1,0.1-0.2,0.1-0.3,0.2
				c-0.2,0.1-0.3,0.2-0.4,0.4s-0.1,0.3-0.1,0.5c0,0.3,0,0.5,0.1,0.7s0.2,0.3,0.4,0.4s0.5,0.2,0.8,0.2s0.8,0.1,1.3,0.1
				c0.6,0,1.1,0,1.5-0.1c0.4-0.1,0.7-0.2,0.8-0.5c0.2-0.2,0.3-0.6,0.3-1c0-0.4-0.1-0.8-0.3-1c-0.2-0.2-0.6-0.4-1.1-0.4l-1.8-0.2
				c-0.2,0-0.3-0.1-0.3-0.2c0-0.1-0.1-0.2,0-0.3c0-0.1,0.1-0.1,0.1-0.1c0.2,0,0.5,0.1,0.8,0.1c0.6,0,1-0.1,1.4-0.2s0.6-0.3,0.7-0.5
				c0.2-0.2,0.2-0.5,0.2-0.9c0-0.3-0.1-0.5-0.2-0.7L59,4.4l0.1-0.6h-1.7C57.1,3.7,56.8,3.6,56.2,3.6L56.2,3.6z M57.2,8.6
				c0.1,0,0.2,0.1,0.2,0.1s0.1,0.1,0.1,0.3c0,0.1,0,0.3-0.1,0.3c-0.1,0.1-0.2,0.1-0.4,0.2s-0.4,0-0.8,0s-0.5,0-0.7,0
				c-0.2,0-0.3-0.1-0.4-0.2S55.1,9.1,55.1,9c0-0.1,0-0.2,0.1-0.3s0.1-0.2,0.2-0.2c0,0,0,0,0.1-0.1l1.2,0.1
				C56.9,8.5,57.1,8.5,57.2,8.6L57.2,8.6z M57,5.7c-0.1,0.1-0.4,0.1-0.8,0.1s-0.6,0-0.8-0.1s-0.2-0.3-0.2-0.5s0.1-0.4,0.2-0.5
				c0.1-0.1,0.4-0.1,0.8-0.1s0.6,0.1,0.8,0.1c0.1,0.1,0.2,0.3,0.2,0.5S57.1,5.6,57,5.7z"/>
			<path d="M64.2,6.3c0.2-0.2,0.3-0.6,0.3-1c0-0.6-0.2-1-0.5-1.3s-1-0.4-1.8-0.4c-0.6,0-1.1,0.1-1.5,0.2s-0.6,0.4-0.8,0.8
				c-0.2,0.4-0.3,0.9-0.3,1.5c0,0.6,0.1,1.1,0.2,1.4c0.2,0.4,0.4,0.7,0.8,0.8s0.9,0.3,1.5,0.3c0.2,0,0.5,0,0.8,0
				c0.3,0,0.5-0.1,0.8-0.1c0.2-0.1,0.5-0.1,0.7-0.2l-0.1-0.9c-0.3,0-0.7,0.1-1,0.1c-0.3,0-0.6,0-0.8,0c-0.3,0-0.6,0-0.7-0.1
				c-0.2-0.1-0.3-0.2-0.4-0.5c0-0.1-0.1-0.2-0.1-0.4H63C63.5,6.7,63.9,6.5,64.2,6.3L64.2,6.3z M61.2,5.8c0-0.3,0-0.5,0.1-0.6
				c0.1-0.2,0.2-0.3,0.3-0.4c0.2-0.1,0.4-0.1,0.6-0.1c0.3,0,0.5,0,0.7,0.1s0.2,0.2,0.2,0.5c0,0.2,0,0.3-0.1,0.4
				c-0.1,0.1-0.2,0.1-0.4,0.1L61.2,5.8L61.2,5.8z"/>
			<path d="M68.9,3.6c-0.4,0-0.7,0.1-1.1,0.2c-0.3,0.2-0.7,0.4-1,0.6l-0.1-0.8h-1.2v4.9h1.5V5.3c0.3-0.1,0.5-0.2,0.7-0.3
				c0.2-0.1,0.4-0.1,0.7-0.1c0.2,0,0.3,0,0.4,0.1s0.1,0.2,0.1,0.4v3.2h1.5V5C70.3,4.1,69.8,3.6,68.9,3.6L68.9,3.6z"/>
			<path d="M75.8,6.3c0.2-0.2,0.3-0.6,0.3-1c0-0.6-0.2-1-0.5-1.3s-1-0.4-1.8-0.4c-0.6,0-1.1,0.1-1.5,0.2s-0.6,0.4-0.8,0.8
				c-0.2,0.4-0.3,0.9-0.3,1.5c0,0.6,0.1,1.1,0.2,1.4c0.2,0.4,0.4,0.7,0.8,0.8s0.9,0.3,1.5,0.3c0.2,0,0.5,0,0.8,0
				c0.3,0,0.5-0.1,0.8-0.1c0.2-0.1,0.5-0.1,0.7-0.2l-0.1-0.9c-0.3,0-0.7,0.1-1,0.1c-0.3,0-0.6,0-0.8,0c-0.3,0-0.6,0-0.7-0.1
				C73.1,7.4,73,7.3,72.9,7c0-0.1-0.1-0.2-0.1-0.4h1.8C75.1,6.7,75.5,6.5,75.8,6.3L75.8,6.3z M72.8,5.8c0-0.3,0-0.5,0.1-0.6
				C72.9,5,73,4.9,73.2,4.8c0.2-0.1,0.4-0.1,0.6-0.1c0.3,0,0.5,0,0.7,0.1c0.1,0.1,0.2,0.2,0.2,0.5c0,0.2,0,0.3-0.1,0.4
				c-0.1,0.1-0.2,0.1-0.4,0.1L72.8,5.8L72.8,5.8z"/>
			<path d="M79.3,3.9c-0.3,0.2-0.7,0.4-1,0.6l-0.1-0.8h-1.2v4.9h1.5V5.4c0.3-0.1,0.6-0.2,0.8-0.2C79.6,5,79.8,5,80.1,5h0.4l0.1-1.4
				h-0.3C80,3.6,79.7,3.7,79.3,3.9L79.3,3.9z"/>
			<path d="M85.1,3.9c-0.4-0.2-0.9-0.2-1.5-0.2s-1.1,0.1-1.5,0.2c-0.4,0.2-0.7,0.4-0.8,0.8c-0.2,0.4-0.2,0.9-0.2,1.5
				s0.1,1.1,0.2,1.5c0.2,0.4,0.4,0.7,0.8,0.8c0.4,0.2,0.9,0.2,1.5,0.2s1.1-0.1,1.5-0.2s0.6-0.4,0.8-0.8c0.2-0.4,0.2-0.9,0.2-1.5
				s-0.1-1.1-0.2-1.5C85.8,4.3,85.5,4.1,85.1,3.9z M84.5,7.2c-0.1,0.2-0.2,0.4-0.3,0.4c-0.2,0.1-0.3,0.1-0.6,0.1s-0.4,0-0.6-0.1
				s-0.2-0.2-0.3-0.4s-0.1-0.5-0.1-0.9s0-0.7,0.1-0.9c0.1-0.2,0.2-0.4,0.3-0.5c0.2-0.1,0.3-0.1,0.6-0.1s0.4,0,0.6,0.1
				s0.2,0.2,0.3,0.5s0.1,0.5,0.1,0.9S84.6,6.9,84.5,7.2z"/>
			<path d="M90.3,5.9L89,5.6c-0.2-0.1-0.4-0.1-0.5-0.2s-0.2-0.1-0.2-0.3c0-0.1,0-0.2,0.1-0.3c0.1-0.1,0.2-0.1,0.3-0.1s0.3,0,0.6,0
				c0.3,0,0.6,0,0.9,0s0.6,0,1,0l0.1-0.9c-0.2,0-0.4-0.1-0.7-0.1s-0.5-0.1-0.8-0.1c-0.3,0-0.5,0-0.8,0c-0.5,0-0.9,0.1-1.2,0.1
				S87.3,4,87.1,4.2S86.9,4.7,86.9,5c0,0.3,0,0.5,0.1,0.7c0.1,0.2,0.2,0.4,0.4,0.5s0.4,0.2,0.7,0.3l1.2,0.3C89.6,6.9,89.8,7,89.9,7
				c0.1,0.1,0.2,0.1,0.2,0.3c0,0.1,0,0.2-0.1,0.3s-0.2,0.1-0.4,0.1c-0.2,0-0.4,0-0.8,0h-0.7c-0.2,0-0.4,0-0.6,0s-0.3,0-0.5,0L87,8.6
				c0.5,0.1,0.9,0.1,1.3,0.1c0.4,0,0.7,0,0.9,0c0.5,0,0.9,0,1.3-0.1s0.6-0.2,0.7-0.4c0.2-0.2,0.2-0.5,0.2-1s-0.1-0.7-0.3-0.9
				S90.7,6,90.3,5.9L90.3,5.9z"/>
			<path d="M93.5,1.6h-0.6c-0.3,0-0.4,0.2-0.4,0.4v0.5c0,0.3,0.2,0.4,0.4,0.4h0.6C93.8,3,94,2.9,94,2.6V2.1
				C94,1.8,93.8,1.6,93.5,1.6z"/>
			<rect x="92.5" y="3.8" width="1.5" height="4.9"/>
			<path d="M97.1,2.4h-1.5v1.4l-0.9,0v0.9h0.9v2.7c0,0.4,0.1,0.8,0.4,1s0.6,0.4,1,0.4c0.1,0,0.3,0,0.4,0s0.3,0,0.5-0.1
				c0.2,0,0.3-0.1,0.4-0.1l-0.2-1h-0.6c-0.2,0-0.3,0-0.4-0.1s-0.1-0.2-0.1-0.4V4.7h1.4v-1h-1.4L97.1,2.4L97.1,2.4z"/>
			<path d="M101.7,7c0,0.1-0.1,0.3-0.1,0.5c0,0.1-0.1,0.1-0.1,0.2h-0.1c0-0.1,0-0.2-0.1-0.4s-0.1-0.2-0.1-0.4l-0.9-3.2h-1.6l1.6,4.6
				c0,0.1,0.1,0.2,0.2,0.3c0.1,0.1,0.2,0.1,0.3,0.1h0.3v0c-0.1,0.3-0.3,0.5-0.5,0.7c-0.2,0.2-0.5,0.3-0.9,0.4l0.1,0.8
				c0.4,0.1,0.8,0,1.1-0.1c0.3-0.1,0.6-0.2,0.8-0.4s0.4-0.4,0.5-0.7s0.2-0.5,0.3-0.7l1.8-5h-1.6L101.7,7L101.7,7z"/>
			<path d="M111.4,6.3c0.2-0.2,0.3-0.6,0.3-1c0-0.6-0.2-1-0.5-1.3s-1-0.4-1.8-0.4c-0.6,0-1.1,0.1-1.5,0.2s-0.6,0.4-0.8,0.8
				c-0.2,0.4-0.3,0.9-0.3,1.5c0,0.6,0.1,1.1,0.2,1.4c0.2,0.4,0.4,0.7,0.8,0.8s0.9,0.3,1.5,0.3c0.2,0,0.5,0,0.8,0
				c0.3,0,0.5-0.1,0.8-0.1c0.2-0.1,0.5-0.1,0.7-0.2l-0.1-0.9c-0.3,0-0.7,0.1-1,0.1c-0.3,0-0.6,0-0.8,0c-0.3,0-0.6,0-0.7-0.1
				c-0.2-0.1-0.3-0.2-0.4-0.5c0-0.1-0.1-0.2-0.1-0.4h1.8C110.8,6.7,111.2,6.5,111.4,6.3L111.4,6.3z M108.4,5.8c0-0.3,0-0.5,0.1-0.6
				c0.1-0.2,0.2-0.3,0.3-0.4c0.2-0.1,0.4-0.1,0.6-0.1c0.3,0,0.5,0,0.7,0.1c0.1,0.1,0.2,0.2,0.2,0.5c0,0.2,0,0.3-0.1,0.4
				c-0.1,0.1-0.2,0.1-0.4,0.1L108.4,5.8L108.4,5.8z"/>
			<path d="M114.2,5.3c0.3-0.1,0.5-0.2,0.7-0.3c0.2-0.1,0.4-0.1,0.7-0.1c0.2,0,0.3,0,0.4,0.1s0.1,0.2,0.1,0.4v3.2h1.5V5
				c0-0.9-0.5-1.4-1.4-1.4c-0.4,0-0.7,0.1-1.1,0.2c-0.3,0.2-0.7,0.4-1,0.6l-0.1-0.8h-1.2v4.9h1.5L114.2,5.3L114.2,5.3z"/>
			<path d="M122.1,8.7h1.2V5.4c0-0.5-0.1-0.8-0.2-1.1s-0.4-0.4-0.7-0.6c-0.3-0.1-0.6-0.2-1.1-0.2c-0.2,0-0.5,0-0.8,0
				s-0.6,0.1-0.9,0.1c-0.3,0-0.6,0.1-0.8,0.1l0.1,1c0.4,0,0.8-0.1,1.2-0.1s0.7,0,0.9,0c0.3,0,0.5,0.1,0.6,0.2s0.2,0.3,0.2,0.5v0.2
				H120c-0.5,0-0.8,0.1-1.1,0.3s-0.4,0.5-0.4,0.9v0.5c0,0.3,0.1,0.6,0.2,0.8c0.1,0.2,0.3,0.4,0.6,0.5c0.2,0.1,0.5,0.2,0.8,0.2
				s0.6-0.1,0.8-0.1s0.4-0.2,0.6-0.4c0.2-0.1,0.3-0.3,0.4-0.4L122.1,8.7L122.1,8.7z M121.1,7.6c-0.2,0.1-0.4,0.1-0.6,0.1
				c-0.2,0-0.4,0-0.4-0.1s-0.1-0.2-0.1-0.4V7c0-0.1,0-0.3,0.1-0.4s0.2-0.1,0.4-0.1h1.3v0.8c0,0,0,0-0.1,0.1
				C121.5,7.5,121.3,7.6,121.1,7.6L121.1,7.6z"/>
			<path d="M127.5,3.6c-0.2,0-0.5,0-0.7,0.1s-0.4,0.2-0.6,0.3c-0.2,0.1-0.3,0.2-0.4,0.4c0.1-0.2,0.1-0.3,0.1-0.5c0-0.2,0-0.4,0-0.7
				V1.7h-1.5v6.7c0.2,0.1,0.3,0.1,0.6,0.2c0.2,0.1,0.4,0.1,0.7,0.1c0.2,0,0.5,0.1,0.7,0.1s0.4,0,0.6,0c0.5,0,0.9-0.1,1.2-0.2
				c0.3-0.1,0.6-0.3,0.7-0.6c0.2-0.2,0.3-0.5,0.4-0.8c0.1-0.3,0.1-0.7,0.1-1.1c0-0.9-0.1-1.6-0.4-2S128.1,3.6,127.5,3.6L127.5,3.6z
				 M127.7,7.1c-0.1,0.2-0.2,0.4-0.3,0.5s-0.3,0.1-0.5,0.1c-0.1,0-0.3,0-0.4,0s-0.3,0-0.5-0.1c0,0-0.1,0-0.1,0V5.2
				c0.2-0.1,0.3-0.2,0.4-0.3c0.2-0.1,0.4-0.1,0.6-0.1c0.2,0,0.4,0,0.5,0.1s0.2,0.2,0.3,0.4c0.1,0.2,0.1,0.5,0.1,0.9
				C127.8,6.6,127.8,6.9,127.7,7.1L127.7,7.1z"/>
			<path d="M131.7,8.8c0.1,0,0.2,0,0.4,0s0.3,0,0.4-0.1s0.3-0.1,0.3-0.1l-0.2-1h-0.4c-0.2,0-0.3,0-0.4-0.1s-0.1-0.2-0.1-0.4V1.7
				h-1.5v5.8c0,0.4,0.1,0.7,0.4,1S131.3,8.8,131.7,8.8L131.7,8.8z"/>
			<path d="M134.4,8.5c0.4,0.2,0.9,0.3,1.5,0.3c0.2,0,0.5,0,0.8,0c0.3,0,0.5-0.1,0.8-0.1c0.2-0.1,0.5-0.1,0.7-0.2l-0.1-0.9
				c-0.3,0-0.7,0.1-1,0.1c-0.3,0-0.6,0-0.8,0c-0.3,0-0.6,0-0.7-0.1C135.2,7.4,135,7.3,135,7c0-0.1-0.1-0.2-0.1-0.4h1.8
				c0.6,0,1-0.1,1.2-0.3s0.4-0.6,0.3-1c0-0.6-0.2-1-0.5-1.3s-1-0.4-1.8-0.4c-0.6,0-1.1,0.1-1.5,0.2s-0.6,0.4-0.8,0.8
				c-0.2,0.4-0.3,0.9-0.3,1.5c0,0.6,0.1,1.1,0.2,1.4C133.7,8.1,134,8.3,134.4,8.5L134.4,8.5z M135.2,4.8c0.1-0.1,0.4-0.1,0.6-0.1
				c0.3,0,0.5,0,0.6,0.1c0.1,0.1,0.2,0.2,0.2,0.5c0,0.2,0,0.3-0.1,0.4c-0.1,0.1-0.2,0.1-0.4,0.1h-1.4c0-0.3,0-0.5,0.1-0.6
				C135,5,135.1,4.8,135.2,4.8L135.2,4.8z"/>
			<path d="M143.2,8.2c0.1-0.2,0.2-0.5,0.2-1s-0.1-0.7-0.3-0.9s-0.5-0.4-0.9-0.5L141,5.6c-0.2-0.1-0.4-0.1-0.5-0.2s-0.1-0.1-0.1-0.3
				c0-0.1,0-0.2,0.1-0.3c0.1-0.1,0.1-0.1,0.3-0.1s0.3,0,0.6,0c0.3,0,0.6,0,0.9,0s0.6,0,1,0l0.1-0.9c-0.2,0-0.4-0.1-0.7-0.1
				s-0.5-0.1-0.8-0.1c-0.3,0-0.5,0-0.8,0c-0.5,0-0.9,0.1-1.2,0.1s-0.5,0.2-0.7,0.4c-0.1,0.2-0.2,0.5-0.2,0.8c0,0.3,0,0.5,0.1,0.7
				c0.1,0.2,0.2,0.4,0.4,0.5s0.4,0.2,0.7,0.3l1.2,0.3c0.2,0.1,0.4,0.1,0.5,0.2c0.1,0.1,0.2,0.1,0.2,0.3c0,0.1,0,0.2-0.1,0.3
				s-0.2,0.1-0.4,0.1c-0.2,0-0.4,0-0.8,0h-0.7c-0.2,0-0.4,0-0.6,0s-0.3,0-0.5,0l-0.1,0.9c0.5,0.1,0.9,0.1,1.3,0.1c0.4,0,0.7,0,0.9,0
				c0.5,0,0.9,0,1.3-0.1S143.1,8.5,143.2,8.2L143.2,8.2z"/>
			<path d="M149.1,8.8c0.2,0,0.5,0,0.8,0c0.3,0,0.5-0.1,0.8-0.1c0.2-0.1,0.5-0.1,0.7-0.2l-0.1-0.9c-0.3,0-0.7,0.1-1,0.1
				c-0.3,0-0.6,0-0.8,0c-0.3,0-0.6,0-0.7-0.1c-0.2-0.1-0.3-0.2-0.4-0.5c0-0.1-0.1-0.2-0.1-0.4h1.8c0.6,0,1-0.1,1.2-0.3
				s0.4-0.6,0.3-1c0-0.6-0.2-1-0.5-1.3s-1-0.4-1.8-0.4c-0.6,0-1.1,0.1-1.5,0.2s-0.6,0.4-0.8,0.8c-0.2,0.4-0.3,0.9-0.3,1.5
				c0,0.6,0.1,1.1,0.2,1.4c0.2,0.4,0.4,0.7,0.8,0.8S148.5,8.8,149.1,8.8L149.1,8.8z M148.4,4.8c0.1-0.1,0.4-0.1,0.6-0.1
				c0.3,0,0.5,0,0.6,0.1c0.1,0.1,0.2,0.2,0.2,0.5c0,0.2,0,0.3-0.1,0.4c-0.1,0.1-0.2,0.1-0.4,0.1H148c0-0.3,0-0.5,0.1-0.6
				C148.2,5,148.3,4.9,148.4,4.8L148.4,4.8z"/>
			<path d="M154.6,8.7c0.2-0.1,0.5-0.2,0.7-0.4c0.1-0.1,0.2-0.2,0.4-0.3c0,0.2-0.1,0.3-0.1,0.5c0,0.2,0,0.4,0,0.7v1.5h1.5V4
				c-0.1-0.1-0.3-0.1-0.6-0.2c-0.2-0.1-0.4-0.1-0.7-0.1s-0.5-0.1-0.7-0.1s-0.4,0-0.6,0c-0.5,0-0.9,0.1-1.2,0.2s-0.6,0.3-0.7,0.5
				c-0.2,0.2-0.3,0.5-0.4,0.8c-0.1,0.3-0.1,0.7-0.1,1.1c0,0.8,0.1,1.5,0.4,1.9c0.3,0.4,0.7,0.6,1.4,0.6
				C154.1,8.8,154.4,8.7,154.6,8.7L154.6,8.7z M153.6,6.3c0-0.4,0-0.7,0.1-1s0.1-0.4,0.3-0.5s0.3-0.1,0.6-0.1c0.1,0,0.3,0,0.4,0
				c0.2,0,0.3,0,0.5,0.1c0,0,0.1,0,0.1,0v2.4c-0.2,0.1-0.3,0.2-0.4,0.2c-0.2,0.1-0.4,0.1-0.6,0.1c-0.3,0-0.6-0.1-0.7-0.3
				C153.7,7.1,153.6,6.8,153.6,6.3L153.6,6.3z"/>
			<path d="M162.9,8.7V3.8h-1.5v3.4c-0.2,0.1-0.4,0.2-0.6,0.3c-0.2,0.1-0.4,0.1-0.6,0.1s-0.3,0-0.4-0.1s-0.1-0.2-0.1-0.4V3.8h-1.5
				v3.7c0,0.9,0.5,1.4,1.4,1.4c0.4,0,0.7-0.1,1.1-0.2c0.3-0.1,0.6-0.4,1-0.6l0.1,0.7L162.9,8.7L162.9,8.7z"/>
			<path d="M167.4,8.7h1.2V5.4c0-0.5-0.1-0.8-0.2-1.1s-0.4-0.4-0.6-0.6c-0.3-0.1-0.6-0.2-1.1-0.2c-0.2,0-0.5,0-0.8,0
				s-0.6,0.1-0.9,0.1c-0.3,0-0.6,0.1-0.8,0.1l0.1,1c0.4,0,0.8-0.1,1.2-0.1s0.7,0,0.9,0c0.3,0,0.5,0.1,0.6,0.2s0.2,0.3,0.2,0.5v0.2
				h-1.8c-0.5,0-0.8,0.1-1.1,0.3s-0.4,0.5-0.4,0.9v0.5c0,0.3,0.1,0.6,0.2,0.8c0.1,0.2,0.3,0.4,0.6,0.5c0.2,0.1,0.5,0.2,0.8,0.2
				s0.6-0.1,0.8-0.1s0.4-0.2,0.6-0.4c0.2-0.1,0.3-0.3,0.4-0.4L167.4,8.7L167.4,8.7z M166.5,7.6c-0.2,0.1-0.4,0.1-0.6,0.1
				c-0.2,0-0.4,0-0.4-0.1s-0.1-0.2-0.1-0.4V7c0-0.1,0-0.3,0.1-0.4s0.2-0.1,0.4-0.1h1.3v0.8c0,0,0,0-0.1,0.1
				C166.9,7.5,166.7,7.6,166.5,7.6L166.5,7.6z"/>
			<path d="M171.8,7.6c-0.2,0-0.3,0-0.4-0.1s-0.1-0.2-0.1-0.4V1.7h-1.5v5.8c0,0.4,0.1,0.7,0.4,1s0.6,0.4,1.1,0.4c0.1,0,0.2,0,0.4,0
				s0.3,0,0.4-0.1s0.3-0.1,0.3-0.1l-0.2-1L171.8,7.6L171.8,7.6z"/>
			<rect x="173" y="3.8" width="1.5" height="4.9"/>
			<path d="M173.5,3h0.6c0.3,0,0.4-0.2,0.4-0.4V2c0-0.3-0.1-0.4-0.4-0.4h-0.6c-0.3,0-0.4,0.2-0.4,0.4v0.5C173,2.9,173.2,3,173.5,3z"
				/>
			<path d="M178.1,8.8c0.2,0,0.3,0,0.5-0.1c0.2,0,0.3-0.1,0.4-0.1l-0.2-1h-0.6c-0.2,0-0.3,0-0.4-0.1s-0.1-0.2-0.1-0.4V4.7h1.4v-1
				h-1.4V2.4h-1.5v1.4l-0.9,0v0.9h0.9v2.7c0,0.4,0.1,0.8,0.4,1s0.6,0.4,1,0.4C177.7,8.8,177.9,8.8,178.1,8.8L178.1,8.8z"/>
			<path d="M183,8.8l1.8-5h-1.6L182.3,7c0,0.1-0.1,0.3-0.1,0.5c0,0.1-0.1,0.1-0.1,0.2H182c0-0.1,0-0.2-0.1-0.4s-0.1-0.2-0.1-0.4
				l-0.9-3.2h-1.6l1.6,4.6c0,0.1,0.1,0.2,0.2,0.3c0.1,0.1,0.2,0.1,0.3,0.1h0.3v0c-0.1,0.3-0.3,0.5-0.5,0.7c-0.2,0.2-0.5,0.3-0.9,0.4
				l0.1,0.8c0.4,0.1,0.8,0,1.1-0.1c0.3-0.1,0.6-0.2,0.8-0.4s0.4-0.4,0.5-0.7S182.9,9,183,8.8L183,8.8z"/>
			<path d="M191,7.9l0.2,0.8h1.2V5.4c0-0.5-0.1-0.8-0.2-1.1s-0.4-0.4-0.6-0.6c-0.3-0.1-0.6-0.2-1.1-0.2c-0.2,0-0.5,0-0.8,0
				s-0.6,0.1-0.9,0.1c-0.3,0-0.6,0.1-0.8,0.1l0.1,1c0.4,0,0.8-0.1,1.2-0.1s0.7,0,0.9,0c0.3,0,0.5,0.1,0.6,0.2s0.2,0.3,0.2,0.5v0.2
				h-1.8c-0.5,0-0.8,0.1-1.1,0.3s-0.4,0.5-0.4,0.9v0.5c0,0.3,0.1,0.6,0.2,0.8c0.1,0.2,0.3,0.4,0.6,0.5c0.2,0.1,0.5,0.2,0.8,0.2
				s0.6-0.1,0.8-0.1s0.4-0.2,0.6-0.4C190.8,8.2,190.9,8.1,191,7.9L191,7.9z M189.6,7.7c-0.2,0-0.4,0-0.4-0.1s-0.1-0.2-0.1-0.4V7
				c0-0.1,0-0.3,0.1-0.4s0.2-0.1,0.4-0.1h1.3v0.8c0,0,0,0-0.1,0.1c-0.2,0.1-0.4,0.2-0.6,0.3C190,7.7,189.8,7.8,189.6,7.7L189.6,7.7z
				"/>
			<path d="M195,5.3c0.3-0.1,0.5-0.2,0.7-0.3c0.2-0.1,0.4-0.1,0.7-0.1c0.2,0,0.3,0,0.4,0.1s0.1,0.2,0.1,0.4v3.2h1.5V5
				c0-0.9-0.5-1.4-1.4-1.4c-0.4,0-0.7,0.1-1.1,0.2c-0.4,0.2-0.7,0.4-1,0.6l-0.1-0.8h-1.2v4.9h1.5V5.3z"/>
			<path d="M203.1,8.7h1.2v-7h-1.5v1.3c0,0.2,0,0.4,0,0.6c0,0.1,0,0.3,0,0.4c-0.2-0.1-0.4-0.2-0.6-0.3c-0.3-0.1-0.7-0.2-1-0.2
				c-0.4,0-0.8,0.1-1,0.2s-0.5,0.4-0.6,0.8c-0.1,0.4-0.2,0.9-0.2,1.5c0,0.8,0.1,1.5,0.4,1.9c0.3,0.4,0.7,0.7,1.4,0.7
				c0.5,0,0.9-0.1,1.2-0.3c0.3-0.2,0.5-0.4,0.7-0.6L203.1,8.7L203.1,8.7z M202.5,7.4c-0.1,0.1-0.2,0.1-0.4,0.2s-0.3,0.1-0.4,0.1
				c-0.2,0-0.4,0-0.5-0.1c-0.1-0.1-0.2-0.2-0.3-0.4s-0.1-0.5-0.1-0.9c0-0.4,0-0.7,0.1-0.9c0.1-0.2,0.1-0.4,0.3-0.4
				c0.1-0.1,0.3-0.1,0.5-0.1c0.2,0,0.4,0,0.6,0.1c0.1,0,0.3,0.1,0.4,0.1v2.3C202.6,7.3,202.6,7.3,202.5,7.4L202.5,7.4z"/>
			<path d="M207.9,6.2c0.2,0.1,0.4,0.2,0.7,0.3l1.2,0.3c0.2,0.1,0.4,0.1,0.5,0.2c0.1,0.1,0.2,0.1,0.2,0.3c0,0.1,0,0.2-0.1,0.3
				s-0.2,0.1-0.4,0.1c-0.2,0-0.4,0-0.8,0h-0.7c-0.2,0-0.4,0-0.6,0s-0.3,0-0.5,0l-0.1,0.9c0.5,0.1,0.9,0.1,1.3,0.1c0.4,0,0.7,0,0.9,0
				c0.5,0,0.9,0,1.3-0.1s0.6-0.2,0.7-0.4c0.1-0.2,0.2-0.5,0.2-1s-0.1-0.7-0.3-0.9s-0.5-0.4-0.9-0.5l-1.3-0.3
				c-0.2-0.1-0.4-0.1-0.5-0.2s-0.1-0.1-0.1-0.3c0-0.1,0-0.2,0.1-0.3c0.1-0.1,0.1-0.1,0.3-0.1s0.3,0,0.6,0c0.3,0,0.6,0,0.9,0
				s0.6,0,1,0l0.1-0.9c-0.2,0-0.4-0.1-0.7-0.1s-0.5-0.1-0.8-0.1c-0.3,0-0.5,0-0.8,0c-0.5,0-0.9,0.1-1.2,0.1s-0.5,0.2-0.7,0.4
				c-0.1,0.2-0.2,0.5-0.2,0.8c0,0.3,0,0.5,0.1,0.7C207.6,5.9,207.7,6.1,207.9,6.2L207.9,6.2z"/>
			<path d="M216.8,3.9c-0.4-0.2-0.9-0.2-1.5-0.2s-1.1,0.1-1.5,0.2c-0.4,0.2-0.6,0.4-0.8,0.8c-0.2,0.4-0.2,0.9-0.2,1.5
				s0.1,1.1,0.2,1.5c0.2,0.4,0.4,0.7,0.8,0.8c0.4,0.2,0.9,0.2,1.5,0.2s1.1-0.1,1.5-0.2s0.6-0.4,0.8-0.8c0.2-0.4,0.2-0.9,0.2-1.5
				s-0.1-1.1-0.2-1.5C217.4,4.3,217.1,4.1,216.8,3.9z M216.2,7.2c-0.1,0.2-0.2,0.4-0.3,0.4s-0.4,0.1-0.6,0.1s-0.4,0-0.6-0.1
				c-0.1-0.1-0.2-0.2-0.3-0.4s-0.1-0.5-0.1-0.9s0-0.7,0.1-0.9c0.1-0.2,0.2-0.4,0.3-0.5s0.3-0.1,0.6-0.1s0.4,0,0.6,0.1
				c0.1,0.1,0.2,0.2,0.3,0.5s0.1,0.5,0.1,0.9S216.2,6.9,216.2,7.2z"/>
			<path d="M222.3,7.6c-0.2,0-0.4,0-0.5,0c-0.2,0-0.3,0-0.4,0c-0.3,0-0.5,0-0.7-0.1c-0.2-0.1-0.3-0.2-0.4-0.4s-0.1-0.5-0.1-0.9
				s0-0.6,0.1-0.8c0.1-0.2,0.2-0.3,0.4-0.4s0.4-0.1,0.7-0.1c0.2,0,0.4,0,0.6,0c0.2,0,0.5,0,0.8,0l0.2-0.9c-0.2-0.1-0.4-0.1-0.6-0.2
				c-0.2,0-0.4-0.1-0.6-0.1s-0.4,0-0.6,0c-0.6,0-1.1,0.1-1.4,0.2s-0.6,0.4-0.8,0.8c-0.2,0.4-0.2,0.9-0.2,1.5s0.1,1.1,0.2,1.5
				c0.2,0.4,0.4,0.7,0.8,0.8s0.9,0.2,1.5,0.2c0.3,0,0.7,0,1-0.1s0.6-0.1,0.9-0.3l-0.1-0.9C222.7,7.5,222.5,7.5,222.3,7.6L222.3,7.6z
				"/>
			<rect x="223.9" y="3.8" width="1.5" height="4.9"/>
			<path d="M225,1.6h-0.6c-0.3,0-0.4,0.2-0.4,0.4v0.5c0,0.3,0.1,0.4,0.4,0.4h0.6c0.3,0,0.4-0.2,0.4-0.4V2.1
				C225.4,1.8,225.2,1.6,225,1.6z"/>
			<path d="M227.2,8.7c0.2,0.1,0.5,0.2,0.8,0.2s0.6-0.1,0.8-0.1s0.4-0.2,0.6-0.4c0.2-0.1,0.3-0.3,0.4-0.4l0.2,0.8h1.2V5.4
				c0-0.5-0.1-0.8-0.2-1.1s-0.4-0.4-0.6-0.6c-0.3-0.1-0.6-0.2-1.1-0.2c-0.2,0-0.5,0-0.8,0s-0.6,0.1-0.9,0.1c-0.3,0-0.6,0.1-0.8,0.1
				l0.1,1c0.4,0,0.8-0.1,1.2-0.1s0.7,0,0.9,0c0.3,0,0.5,0.1,0.6,0.2s0.2,0.3,0.2,0.5v0.2h-1.8c-0.5,0-0.8,0.1-1.1,0.3
				s-0.4,0.5-0.4,0.9v0.5c0,0.3,0.1,0.6,0.2,0.8S226.9,8.6,227.2,8.7L227.2,8.7z M227.8,7c0-0.1,0-0.3,0.1-0.4s0.2-0.1,0.4-0.1h1.3
				v0.8c0,0,0,0-0.1,0.1c-0.2,0.1-0.4,0.2-0.6,0.3c-0.2,0.1-0.4,0.1-0.6,0.1c-0.2,0-0.4,0-0.4-0.1s-0.1-0.2-0.1-0.4L227.8,7L227.8,7
				z"/>
			<path d="M233.7,8.8c0.1,0,0.2,0,0.4,0s0.3,0,0.4-0.1s0.3-0.1,0.3-0.1l-0.2-1h-0.4c-0.2,0-0.3,0-0.4-0.1s-0.1-0.2-0.1-0.4V1.7
				h-1.5v5.8c0,0.4,0.1,0.7,0.4,1S233.3,8.8,233.7,8.8L233.7,8.8z"/>
			<path d="M238.9,1.6h-0.6c-0.3,0-0.4,0.2-0.4,0.4v0.5c0,0.3,0.1,0.4,0.4,0.4h0.6c0.3,0,0.4-0.2,0.4-0.4V2.1
				C239.3,1.8,239.1,1.6,238.9,1.6z"/>
			<rect x="237.8" y="3.8" width="1.5" height="4.9"/>
			<path d="M243.9,3.6c-0.4,0-0.7,0.1-1.1,0.2c-0.4,0.2-0.7,0.4-1,0.6l-0.1-0.8h-1.2v4.9h1.5V5.3c0.3-0.1,0.5-0.2,0.7-0.3
				c0.2-0.1,0.4-0.1,0.7-0.1c0.2,0,0.3,0,0.4,0.1s0.1,0.2,0.1,0.4v3.2h1.5V5C245.3,4.1,244.9,3.6,243.9,3.6z"/>
			<path d="M247.3,8.6c0.4,0.2,0.9,0.2,1.5,0.2c0.3,0,0.7,0,1-0.1s0.6-0.1,0.9-0.3l-0.1-0.9c-0.2,0-0.4,0-0.6,0.1
				c-0.2,0-0.4,0-0.5,0c-0.2,0-0.3,0-0.4,0c-0.3,0-0.5,0-0.7-0.1c-0.2-0.1-0.3-0.2-0.4-0.4s-0.1-0.5-0.1-0.9s0-0.6,0.1-0.8
				c0.1-0.2,0.2-0.3,0.4-0.4s0.4-0.1,0.7-0.1c0.2,0,0.4,0,0.6,0c0.2,0,0.5,0,0.8,0l0.2-0.9c-0.2-0.1-0.4-0.1-0.6-0.2
				c-0.2,0-0.4-0.1-0.6-0.1s-0.4,0-0.6,0c-0.6,0-1.1,0.1-1.4,0.2s-0.6,0.4-0.8,0.8c-0.2,0.4-0.2,0.9-0.2,1.5s0.1,1.1,0.2,1.5
				C246.7,8.1,247,8.3,247.3,8.6L247.3,8.6z"/>
			<path d="M253,8.8c0.1,0,0.2,0,0.4,0s0.3,0,0.4-0.1s0.3-0.1,0.3-0.1l-0.2-1h-0.4c-0.2,0-0.3,0-0.4-0.1S253,7.3,253,7.1V1.7h-1.5
				v5.8c0,0.4,0.1,0.7,0.4,1S252.6,8.8,253,8.8L253,8.8z"/>
			<path d="M257.2,8.6c0.3-0.1,0.6-0.4,1-0.6l0.1,0.7h1.2V3.8h-1.5v3.4c-0.2,0.1-0.4,0.2-0.6,0.3c-0.2,0.1-0.4,0.1-0.6,0.1
				s-0.3,0-0.4-0.1s-0.1-0.2-0.1-0.4V3.8h-1.5v3.7c0,0.9,0.5,1.4,1.4,1.4C256.6,8.8,256.9,8.8,257.2,8.6L257.2,8.6z"/>
			<path d="M264.8,6.3c-0.2-0.2-0.5-0.4-0.9-0.5l-1.3-0.3c-0.2-0.1-0.4-0.1-0.5-0.2s-0.1-0.1-0.1-0.3c0-0.1,0-0.2,0.1-0.3
				c0.1-0.1,0.1-0.1,0.3-0.1s0.3,0,0.6,0c0.3,0,0.6,0,0.9,0s0.6,0,1,0l0.1-0.9c-0.2,0-0.4-0.1-0.7-0.1s-0.5-0.1-0.8-0.1
				c-0.3,0-0.5,0-0.8,0c-0.5,0-0.9,0.1-1.2,0.1s-0.5,0.2-0.7,0.4c-0.1,0.2-0.2,0.5-0.2,0.8c0,0.3,0,0.5,0.1,0.7
				c0.1,0.2,0.2,0.4,0.4,0.5c0.2,0.1,0.4,0.2,0.7,0.3l1.2,0.3c0.2,0.1,0.4,0.1,0.5,0.2c0.1,0.1,0.2,0.1,0.2,0.3c0,0.1,0,0.2-0.1,0.3
				s-0.2,0.1-0.4,0.1c-0.2,0-0.4,0-0.8,0h-0.7c-0.2,0-0.4,0-0.6,0c-0.2,0-0.3,0-0.5,0l-0.1,0.9c0.5,0.1,0.9,0.1,1.3,0.1
				c0.4,0,0.7,0,0.9,0c0.5,0,1,0,1.3-0.1s0.6-0.2,0.7-0.4c0.1-0.2,0.2-0.5,0.2-1S264.9,6.6,264.8,6.3L264.8,6.3z"/>
			<rect x="266" y="3.8" width="1.5" height="4.9"/>
			<path d="M266.4,3h0.6c0.3,0,0.4-0.2,0.4-0.4V2c0-0.3-0.1-0.4-0.4-0.4h-0.6c-0.3,0-0.4,0.2-0.4,0.4v0.5C266,2.9,266.1,3,266.4,3z"
				/>
			<path d="M273.4,7.7c0.2-0.4,0.2-0.9,0.2-1.5s-0.1-1.1-0.2-1.5c-0.2-0.4-0.4-0.7-0.8-0.8s-0.9-0.2-1.5-0.2s-1.1,0.1-1.5,0.2
				s-0.6,0.4-0.8,0.8c-0.2,0.4-0.2,0.9-0.2,1.5s0.1,1.1,0.2,1.5c0.2,0.4,0.4,0.7,0.8,0.8c0.4,0.2,0.9,0.2,1.5,0.2s1.1-0.1,1.5-0.2
				C272.9,8.4,273.2,8.1,273.4,7.7z M272,7.2c-0.1,0.2-0.2,0.4-0.3,0.4s-0.4,0.1-0.6,0.1s-0.5,0-0.6-0.1s-0.2-0.2-0.3-0.4
				s-0.1-0.5-0.1-0.9s0-0.7,0.1-0.9c0.1-0.2,0.2-0.4,0.3-0.5s0.3-0.1,0.6-0.1s0.5,0,0.6,0.1s0.2,0.2,0.3,0.5s0.1,0.5,0.1,0.9
				S272,6.9,272,7.2z"/>
			<path d="M278,3.6c-0.4,0-0.7,0.1-1.1,0.2c-0.4,0.2-0.7,0.4-1,0.6l-0.1-0.8h-1.2v4.9h1.5V5.3c0.3-0.1,0.5-0.2,0.7-0.3
				c0.2-0.1,0.5-0.1,0.7-0.1c0.2,0,0.3,0,0.4,0.1c0.1,0.1,0.1,0.2,0.1,0.4v3.2h1.5V5C279.4,4.1,279,3.6,278,3.6z"/>
			<path d="M287.4,7.7c0.2-0.4,0.2-0.9,0.2-1.5s-0.1-1.1-0.2-1.5c-0.2-0.4-0.4-0.7-0.8-0.8s-0.9-0.2-1.5-0.2s-1.1,0.1-1.5,0.2
				s-0.6,0.4-0.8,0.8c-0.2,0.4-0.2,0.9-0.2,1.5s0.1,1.1,0.2,1.5c0.2,0.4,0.4,0.7,0.8,0.8c0.4,0.2,0.9,0.2,1.5,0.2s1.1-0.1,1.5-0.2
				C287,8.4,287.2,8.1,287.4,7.7z M286,7.2c-0.1,0.2-0.2,0.4-0.3,0.4s-0.4,0.1-0.6,0.1s-0.5,0-0.6-0.1s-0.2-0.2-0.3-0.4
				s-0.1-0.5-0.1-0.9s0-0.7,0.1-0.9c0.1-0.2,0.2-0.4,0.3-0.5s0.3-0.1,0.6-0.1s0.5,0,0.6,0.1s0.2,0.2,0.3,0.5s0.1,0.5,0.1,0.9
				S286.1,6.9,286,7.2z"/>
			<path d="M290.6,3.2c0-0.2,0-0.4,0.1-0.5s0.3-0.2,0.5-0.2h0.9l0.1-0.9c-0.1,0-0.3-0.1-0.5-0.1c-0.2,0-0.4,0-0.6,0s-0.4,0-0.5,0
				c-0.4,0-0.7,0.1-1,0.2c-0.2,0.1-0.4,0.3-0.5,0.5c-0.1,0.2-0.1,0.5-0.1,0.8v0.7l-0.9,0.1v0.9h0.9v4h1.5v-4h1.4v-1h-1.4L290.6,3.2
				L290.6,3.2z"/>
			<path d="M295.2,8.7h1.5v-4h1.4v-1h-1.4V3.2c0-0.2,0-0.4,0.1-0.5s0.3-0.2,0.5-0.2h0.9l0.1-0.9c-0.1,0-0.3-0.1-0.5-0.1
				c-0.2,0-0.4,0-0.6,0s-0.4,0-0.5,0c-0.4,0-0.7,0.1-1,0.2c-0.2,0.1-0.4,0.3-0.5,0.5c-0.1,0.2-0.1,0.5-0.1,0.8v0.7l-0.9,0.1v0.9h0.9
				L295.2,8.7L295.2,8.7z"/>
			<path d="M303.4,8.7V5.4c0-0.5-0.1-0.8-0.2-1.1s-0.4-0.4-0.6-0.6c-0.3-0.1-0.6-0.2-1-0.2c-0.2,0-0.5,0-0.8,0s-0.6,0.1-0.9,0.1
				c-0.3,0-0.6,0.1-0.8,0.1l0.1,1c0.4,0,0.8-0.1,1.2-0.1s0.7,0,1,0c0.3,0,0.5,0.1,0.6,0.2s0.2,0.3,0.2,0.5v0.2h-1.8
				c-0.5,0-0.8,0.1-1.1,0.3s-0.4,0.5-0.4,0.9v0.5c0,0.3,0.1,0.6,0.2,0.8c0.1,0.2,0.3,0.4,0.6,0.5c0.2,0.1,0.5,0.2,0.8,0.2
				s0.6-0.1,0.8-0.1s0.5-0.2,0.6-0.4c0.2-0.1,0.3-0.3,0.4-0.4l0.2,0.8L303.4,8.7L303.4,8.7z M301.2,7.6c-0.2,0.1-0.4,0.1-0.6,0.1
				c-0.2,0-0.4,0-0.5-0.1s-0.1-0.2-0.1-0.4V7c0-0.1,0-0.3,0.1-0.4s0.2-0.1,0.4-0.1h1.3v0.8c0,0,0,0-0.1,0.1
				C301.6,7.5,301.4,7.6,301.2,7.6L301.2,7.6z"/>
			<path d="M309,8.7V5.3c0.1-0.1,0.3-0.2,0.4-0.2c0.1-0.1,0.3-0.1,0.4-0.2s0.2-0.1,0.3-0.1c0.2,0,0.3,0,0.4,0.1
				c0.1,0.1,0.1,0.2,0.1,0.4v3.2h1.5V5c0-0.4-0.1-0.8-0.4-1s-0.6-0.3-1-0.3c-0.4,0-0.7,0.1-1,0.2c-0.3,0.1-0.5,0.3-0.8,0.6
				c-0.1-0.2-0.1-0.3-0.3-0.5c-0.2-0.2-0.6-0.3-1-0.3c-0.4,0-0.7,0.1-1,0.2c-0.3,0.2-0.6,0.4-0.9,0.7l-0.1-0.8h-1.2v4.9h1.5V5.3
				c0.1-0.1,0.3-0.2,0.4-0.2c0.1-0.1,0.3-0.1,0.4-0.1c0.1,0,0.2,0,0.3,0c0.2,0,0.3,0,0.4,0.1s0.1,0.2,0.1,0.4v3.2L309,8.7L309,8.7z"
				/>
			<rect x="313.3" y="3.8" width="1.5" height="4.9"/>
			<path d="M313.7,3h0.6c0.3,0,0.4-0.2,0.4-0.4V2c0-0.3-0.1-0.4-0.4-0.4h-0.6c-0.3,0-0.4,0.2-0.4,0.4v0.5C313.3,2.9,313.4,3,313.7,3
				z"/>
			<path d="M318.1,7.6c-0.2,0-0.3,0-0.4-0.1s-0.1-0.2-0.1-0.4V1.7H316v5.8c0,0.4,0.1,0.7,0.4,1s0.6,0.4,1.1,0.4c0.1,0,0.2,0,0.4,0
				c0.1,0,0.3,0,0.5-0.1c0.1,0,0.3-0.1,0.3-0.1l-0.2-1L318.1,7.6L318.1,7.6z"/>
			<rect x="319.3" y="3.8" width="1.5" height="4.9"/>
			<path d="M319.7,3h0.6c0.3,0,0.4-0.2,0.4-0.4V2c0-0.3-0.1-0.4-0.4-0.4h-0.6c-0.3,0-0.4,0.2-0.4,0.4v0.5C319.3,2.9,319.4,3,319.7,3
				z"/>
			<path d="M325.9,8.7c0.2-0.1,0.5-0.1,0.7-0.2l-0.1-0.9c-0.3,0-0.7,0.1-1,0.1c-0.3,0-0.6,0-0.8,0c-0.3,0-0.6,0-0.7-0.1
				c-0.2-0.1-0.3-0.2-0.4-0.5c0-0.1-0.1-0.2-0.1-0.4h1.8c0.6,0,1-0.1,1.2-0.3s0.4-0.6,0.3-1c0-0.6-0.2-1-0.5-1.3
				c-0.4-0.3-1-0.4-1.8-0.4c-0.6,0-1.1,0.1-1.5,0.2s-0.6,0.4-0.8,0.8c-0.2,0.4-0.3,0.9-0.3,1.5c0,0.6,0.1,1.1,0.2,1.4
				c0.2,0.4,0.4,0.7,0.8,0.8s0.9,0.3,1.5,0.3c0.2,0,0.5,0,0.8,0C325.4,8.8,325.7,8.7,325.9,8.7L325.9,8.7z M323.8,4.8
				c0.1-0.1,0.4-0.1,0.6-0.1c0.3,0,0.5,0,0.6,0.1s0.2,0.2,0.2,0.5c0,0.2,0,0.3-0.1,0.4c-0.1,0.1-0.2,0.1-0.4,0.1h-1.4
				c0-0.3,0-0.5,0.1-0.6C323.5,5,323.6,4.9,323.8,4.8L323.8,4.8z"/>
			<path d="M327.9,6.2c0.2,0.1,0.4,0.2,0.7,0.3l1.2,0.3c0.2,0.1,0.4,0.1,0.5,0.2c0.1,0.1,0.2,0.1,0.2,0.3c0,0.1,0,0.2-0.1,0.3
				s-0.2,0.1-0.4,0.1c-0.2,0-0.4,0-0.8,0h-0.7c-0.2,0-0.4,0-0.6,0c-0.2,0-0.3,0-0.5,0l-0.1,0.9c0.5,0.1,0.9,0.1,1.3,0.1
				c0.4,0,0.7,0,0.9,0c0.5,0,1,0,1.3-0.1s0.6-0.2,0.7-0.4c0.1-0.2,0.2-0.5,0.2-1s-0.1-0.7-0.3-0.9s-0.5-0.4-0.9-0.5l-1.3-0.3
				c-0.2-0.1-0.4-0.1-0.5-0.2s-0.1-0.1-0.1-0.3c0-0.1,0-0.2,0.1-0.3c0.1-0.1,0.1-0.1,0.3-0.1s0.3,0,0.6,0c0.3,0,0.6,0,0.9,0
				s0.6,0,1,0l0.1-0.9c-0.2,0-0.4-0.1-0.7-0.1s-0.5-0.1-0.8-0.1c-0.3,0-0.5,0-0.8,0c-0.5,0-0.9,0.1-1.2,0.1s-0.5,0.2-0.7,0.4
				c-0.1,0.2-0.2,0.5-0.2,0.8c0,0.3,0,0.5,0.1,0.7C327.6,5.9,327.7,6.1,327.9,6.2L327.9,6.2z"/>
			<path d="M339.6,8.7V5.4c0-0.5-0.1-0.8-0.2-1.1s-0.4-0.4-0.6-0.6c-0.3-0.1-0.6-0.2-1-0.2c-0.2,0-0.5,0-0.8,0s-0.6,0.1-0.9,0.1
				c-0.3,0-0.6,0.1-0.8,0.1l0.1,1c0.4,0,0.8-0.1,1.2-0.1s0.7,0,1,0c0.3,0,0.5,0.1,0.6,0.2s0.2,0.3,0.2,0.5v0.2h-1.8
				c-0.5,0-0.8,0.1-1.1,0.3s-0.4,0.5-0.4,0.9v0.5c0,0.3,0.1,0.6,0.2,0.8c0.1,0.2,0.3,0.4,0.6,0.5c0.2,0.1,0.5,0.2,0.8,0.2
				s0.6-0.1,0.8-0.1s0.5-0.2,0.6-0.4c0.2-0.1,0.3-0.3,0.4-0.4l0.2,0.8L339.6,8.7L339.6,8.7z M337.5,7.6c-0.2,0.1-0.4,0.1-0.6,0.1
				c-0.2,0-0.4,0-0.5-0.1s-0.1-0.2-0.1-0.4V7c0-0.1,0-0.3,0.1-0.4s0.2-0.1,0.4-0.1h1.3v0.8c0,0,0,0-0.1,0.1
				C337.9,7.5,337.7,7.6,337.5,7.6L337.5,7.6z"/>
			<path d="M342.2,5.3c0.3-0.1,0.5-0.2,0.7-0.3c0.2-0.1,0.5-0.1,0.7-0.1c0.2,0,0.3,0,0.4,0.1c0.1,0.1,0.1,0.2,0.1,0.4v3.2h1.5V5
				c0-0.9-0.5-1.4-1.4-1.4c-0.4,0-0.7,0.1-1.1,0.2c-0.4,0.2-0.7,0.4-1,0.6l-0.1-0.8h-1.2v4.9h1.5V5.3z"/>
			<path d="M351.5,8.7v-7H350v1.3c0,0.2,0,0.4,0,0.6c0,0.1,0,0.3,0,0.4c-0.2-0.1-0.4-0.2-0.6-0.3c-0.3-0.1-0.7-0.2-1-0.2
				c-0.4,0-0.8,0.1-1,0.2s-0.5,0.4-0.6,0.8c-0.1,0.4-0.2,0.9-0.2,1.5c0,0.8,0.1,1.5,0.4,1.9c0.3,0.4,0.7,0.7,1.4,0.7
				c0.5,0,0.9-0.1,1.2-0.3c0.3-0.2,0.5-0.4,0.7-0.6l0.1,0.8L351.5,8.7L351.5,8.7z M349.7,7.4c-0.1,0.1-0.2,0.1-0.4,0.2
				s-0.3,0.1-0.5,0.1c-0.2,0-0.4,0-0.5-0.1c-0.1-0.1-0.2-0.2-0.3-0.4s-0.1-0.5-0.1-0.9c0-0.4,0-0.7,0.1-0.9c0.1-0.2,0.1-0.4,0.3-0.4
				c0.1-0.1,0.3-0.1,0.5-0.1c0.2,0,0.5,0,0.6,0.1c0.1,0,0.3,0.1,0.4,0.1v2.3C349.9,7.3,349.8,7.3,349.7,7.4L349.7,7.4z"/>
			<path d="M355.3,3h0.6c0.3,0,0.4-0.2,0.4-0.4V2c0-0.3-0.1-0.4-0.4-0.4h-0.6c-0.3,0-0.4,0.2-0.4,0.4v0.5C354.9,2.9,355,3,355.3,3z"
				/>
			<rect x="354.9" y="3.8" width="1.5" height="4.9"/>
			<path d="M359.1,5.3c0.3-0.1,0.5-0.2,0.7-0.3c0.2-0.1,0.5-0.1,0.7-0.1c0.2,0,0.3,0,0.4,0.1c0.1,0.1,0.1,0.2,0.1,0.4v3.2h1.5V5
				c0-0.9-0.5-1.4-1.4-1.4c-0.4,0-0.7,0.1-1.1,0.2c-0.4,0.2-0.7,0.4-1,0.6l-0.1-0.8h-1.2v4.9h1.5V5.3z"/>
			<path d="M365.2,8.8c0.5,0,0.9-0.1,1.2-0.3c0.3-0.2,0.5-0.4,0.7-0.6l0.1,0.8h1.2v-7h-1.5v1.3c0,0.2,0,0.4,0,0.6c0,0.1,0,0.3,0,0.4
				c-0.2-0.1-0.4-0.2-0.6-0.3c-0.3-0.1-0.7-0.2-1-0.2c-0.4,0-0.8,0.1-1,0.2s-0.5,0.4-0.6,0.8c-0.1,0.4-0.2,0.9-0.2,1.5
				c0,0.8,0.1,1.5,0.4,1.9C364.1,8.6,364.6,8.8,365.2,8.8L365.2,8.8z M365.1,5.2c0.1-0.2,0.1-0.4,0.3-0.4c0.1-0.1,0.3-0.1,0.5-0.1
				c0.2,0,0.5,0,0.6,0.1c0.1,0,0.3,0.1,0.4,0.1v2.3c-0.1,0.1-0.2,0.1-0.3,0.2c-0.1,0.1-0.2,0.1-0.4,0.2s-0.3,0.1-0.5,0.1
				c-0.2,0-0.4,0-0.5-0.1c-0.1-0.1-0.2-0.2-0.3-0.4S365,6.6,365,6.2C365,5.8,365,5.4,365.1,5.2L365.1,5.2z"/>
			<path d="M370.7,1.6h-0.6c-0.3,0-0.4,0.2-0.4,0.4v0.5c0,0.3,0.1,0.4,0.4,0.4h0.6c0.3,0,0.4-0.2,0.4-0.4V2.1
				C371.2,1.8,371,1.6,370.7,1.6z"/>
			<rect x="369.7" y="3.8" width="1.5" height="4.9"/>
			<path d="M375.8,3.8l-0.9,3.1c0,0.1-0.1,0.3-0.1,0.4c0,0.1-0.1,0.3-0.1,0.4h-0.1c0-0.1-0.1-0.3-0.1-0.4s-0.1-0.3-0.1-0.4l-0.9-3.1
				h-1.6l1.6,4.6c0,0.1,0.1,0.2,0.2,0.2s0.2,0.1,0.3,0.1h1.3c0.1,0,0.2,0,0.3-0.1c0.1-0.1,0.1-0.1,0.2-0.2l1.6-4.6L375.8,3.8
				L375.8,3.8z"/>
			<path d="M378.5,3h0.6c0.3,0,0.4-0.2,0.4-0.4V2c0-0.3-0.1-0.4-0.4-0.4h-0.6c-0.3,0-0.4,0.2-0.4,0.4v0.5C378,2.9,378.2,3,378.5,3z"
				/>
			<rect x="378" y="3.8" width="1.5" height="4.9"/>
			<path d="M385.5,8.7v-7H384v1.3c0,0.2,0,0.4,0,0.6c0,0.1,0,0.3,0,0.4c-0.2-0.1-0.4-0.2-0.6-0.3c-0.3-0.1-0.7-0.2-1-0.2
				c-0.4,0-0.8,0.1-1,0.2s-0.5,0.4-0.6,0.8c-0.1,0.4-0.2,0.9-0.2,1.5c0,0.8,0.1,1.5,0.4,1.9c0.3,0.4,0.7,0.7,1.4,0.7
				c0.5,0,0.9-0.1,1.2-0.3c0.3-0.2,0.5-0.4,0.7-0.6l0.1,0.8L385.5,8.7L385.5,8.7z M383.8,7.4c-0.1,0.1-0.2,0.1-0.4,0.2
				s-0.3,0.1-0.5,0.1c-0.2,0-0.4,0-0.5-0.1c-0.1-0.1-0.2-0.2-0.3-0.4s-0.1-0.5-0.1-0.9c0-0.4,0-0.7,0.1-0.9c0.1-0.2,0.1-0.4,0.3-0.4
				c0.1-0.1,0.3-0.1,0.5-0.1c0.2,0,0.5,0,0.6,0.1c0.1,0,0.3,0.1,0.4,0.1v2.3C383.9,7.3,383.8,7.3,383.8,7.4L383.8,7.4z"/>
			<path d="M390,7.2c-0.2,0.1-0.4,0.2-0.6,0.3c-0.2,0.1-0.4,0.1-0.6,0.1s-0.3,0-0.4-0.1s-0.1-0.2-0.1-0.4V3.8h-1.5v3.7
				c0,0.9,0.5,1.4,1.4,1.4c0.4,0,0.7-0.1,1.1-0.2c0.3-0.1,0.6-0.4,1-0.6l0.1,0.7h1.2V3.8H390L390,7.2L390,7.2z"/>
			<path d="M393.2,8.7c0.2,0.1,0.5,0.2,0.8,0.2s0.6-0.1,0.8-0.1s0.5-0.2,0.6-0.4c0.2-0.1,0.3-0.3,0.4-0.4l0.2,0.8h1.2V5.4
				c0-0.5-0.1-0.8-0.2-1.1s-0.4-0.4-0.6-0.6c-0.3-0.1-0.6-0.2-1-0.2c-0.2,0-0.5,0-0.8,0s-0.6,0.1-0.9,0.1c-0.3,0-0.6,0.1-0.8,0.1
				l0.1,1c0.4,0,0.8-0.1,1.2-0.1s0.7,0,1,0c0.3,0,0.5,0.1,0.6,0.2s0.2,0.3,0.2,0.5v0.2h-1.8c-0.5,0-0.8,0.1-1.1,0.3
				s-0.4,0.5-0.4,0.9v0.5c0,0.3,0.1,0.6,0.2,0.8C392.8,8.4,393,8.6,393.2,8.7L393.2,8.7z M393.9,7c0-0.1,0-0.3,0.1-0.4
				s0.2-0.1,0.4-0.1h1.3v0.8c0,0,0,0-0.1,0.1c-0.2,0.1-0.4,0.2-0.6,0.3c-0.2,0.1-0.4,0.1-0.6,0.1c-0.2,0-0.4,0-0.5-0.1
				s-0.1-0.2-0.1-0.4L393.9,7L393.9,7z"/>
			<path d="M399.8,8.8c0.1,0,0.2,0,0.4,0c0.1,0,0.3,0,0.5-0.1c0.1,0,0.3-0.1,0.3-0.1l-0.2-1h-0.4c-0.2,0-0.3,0-0.4-0.1
				s-0.1-0.2-0.1-0.4V1.7h-1.5v5.8c0,0.4,0.1,0.7,0.4,1S399.3,8.8,399.8,8.8L399.8,8.8z"/>
			<path d="M404.4,3h0.6c0.3,0,0.4-0.2,0.4-0.4V2c0-0.3-0.1-0.4-0.4-0.4h-0.6c-0.3,0-0.4,0.2-0.4,0.4v0.5C403.9,2.9,404.1,3,404.4,3
				z"/>
			<rect x="403.9" y="3.8" width="1.5" height="4.9"/>
			<path d="M408.8,5c0.2-0.1,0.5-0.1,0.7-0.1c0.2,0,0.3,0,0.4,0.1c0.1,0.1,0.1,0.2,0.1,0.4v3.2h1.5V5c0-0.9-0.5-1.4-1.4-1.4
				c-0.4,0-0.7,0.1-1.1,0.2c-0.4,0.2-0.7,0.4-1,0.6l-0.1-0.8h-1.2v4.9h1.5V5.3C408.4,5.2,408.6,5.1,408.8,5z"/>
			<path d="M417.9,3.7c-0.3,0-0.5,0-0.8,0.1s-0.5,0.2-0.7,0.3c-0.2,0.1-0.3,0.3-0.5,0.4l-0.1-0.7h-1.2v6.8h1.5V9.4
				c0-0.2,0-0.4,0-0.6c0-0.1,0-0.3,0-0.4c0.2,0.2,0.4,0.3,0.7,0.4c0.3,0.1,0.6,0.1,1,0.1c0.4,0,0.8-0.1,1-0.2
				c0.3-0.1,0.5-0.4,0.6-0.8c0.1-0.4,0.2-0.9,0.2-1.5c0-0.8-0.1-1.5-0.4-1.9S418.5,3.7,417.9,3.7L417.9,3.7z M418,7.2
				c-0.1,0.2-0.1,0.4-0.3,0.4c-0.1,0.1-0.3,0.1-0.5,0.1c-0.2,0-0.4,0-0.6-0.1c-0.1,0-0.3-0.1-0.5-0.1V5.2c0.2-0.1,0.4-0.3,0.6-0.3
				c0.2-0.1,0.4-0.1,0.6-0.1c0.2,0,0.4,0,0.5,0.1s0.2,0.2,0.3,0.4c0,0.2,0.1,0.5,0.1,0.9S418.1,7,418,7.2L418,7.2z"/>
			<path d="M422.1,5.4c0.3-0.1,0.6-0.2,0.8-0.2c0.2-0.1,0.5-0.1,0.7-0.1h0.4l0.1-1.4H424c-0.3,0-0.7,0.1-1,0.2
				c-0.3,0.2-0.6,0.4-1,0.6l-0.1-0.8h-1.2v4.9h1.5L422.1,5.4L422.1,5.4z"/>
			<path d="M429.4,8.7V5.4c0-0.5-0.1-0.8-0.2-1.1s-0.4-0.4-0.6-0.6c-0.3-0.1-0.6-0.2-1-0.2c-0.2,0-0.5,0-0.8,0s-0.6,0.1-0.9,0.1
				c-0.3,0-0.6,0.1-0.8,0.1l0.1,1c0.4,0,0.8-0.1,1.2-0.1s0.7,0,1,0c0.3,0,0.5,0.1,0.6,0.2s0.2,0.3,0.2,0.5v0.2h-1.8
				c-0.5,0-0.8,0.1-1.1,0.3s-0.4,0.5-0.4,0.9v0.5c0,0.3,0.1,0.6,0.2,0.8c0.1,0.2,0.3,0.4,0.6,0.5c0.2,0.1,0.5,0.2,0.8,0.2
				s0.6-0.1,0.8-0.1s0.5-0.2,0.6-0.4c0.2-0.1,0.3-0.3,0.4-0.4l0.2,0.8L429.4,8.7L429.4,8.7z M427.3,7.6c-0.2,0.1-0.4,0.1-0.6,0.1
				c-0.2,0-0.4,0-0.5-0.1s-0.1-0.2-0.1-0.4V7c0-0.1,0-0.3,0.1-0.4s0.2-0.1,0.4-0.1h1.3v0.8c0,0,0,0-0.1,0.1
				C427.7,7.5,427.5,7.6,427.3,7.6L427.3,7.6z"/>
			<path d="M434.7,8.5l-0.1-0.9c-0.2,0-0.4,0-0.6,0.1c-0.2,0-0.4,0-0.5,0c-0.2,0-0.3,0-0.4,0c-0.3,0-0.5,0-0.7-0.1
				c-0.2-0.1-0.3-0.2-0.4-0.4s-0.1-0.5-0.1-0.9s0-0.6,0.1-0.8c0.1-0.2,0.2-0.3,0.4-0.4c0.2-0.1,0.4-0.1,0.7-0.1c0.2,0,0.4,0,0.6,0
				s0.5,0,0.8,0l0.2-0.9c-0.2-0.1-0.4-0.1-0.6-0.2c-0.2,0-0.4-0.1-0.6-0.1c-0.2,0-0.4,0-0.6,0c-0.6,0-1.1,0.1-1.5,0.2
				s-0.6,0.4-0.8,0.8s-0.2,0.9-0.2,1.5s0.1,1.1,0.2,1.5c0.2,0.4,0.4,0.7,0.8,0.8s0.9,0.2,1.5,0.2c0.3,0,0.7,0,1-0.1
				S434.5,8.6,434.7,8.5L434.7,8.5z"/>
			<path d="M438.7,7.6h-0.6c-0.2,0-0.3,0-0.4-0.1s-0.1-0.2-0.1-0.4V4.7h1.4v-1h-1.4V2.4h-1.5v1.4l-0.9,0v0.9h0.9v2.7
				c0,0.4,0.1,0.8,0.4,1s0.6,0.4,1,0.4c0.1,0,0.3,0,0.4,0s0.3,0,0.5-0.1c0.2,0,0.3-0.1,0.4-0.1L438.7,7.6L438.7,7.6z"/>
			<path d="M440.1,3h0.6c0.3,0,0.4-0.2,0.4-0.4V2c0-0.3-0.1-0.4-0.4-0.4h-0.6c-0.3,0-0.4,0.2-0.4,0.4v0.5C439.7,2.9,439.8,3,440.1,3
				z"/>
			<rect x="439.7" y="3.8" width="1.5" height="4.9"/>
			<path d="M446.5,7.5c-0.2,0-0.4,0-0.6,0.1c-0.2,0-0.4,0-0.5,0c-0.2,0-0.3,0-0.4,0c-0.3,0-0.5,0-0.7-0.1c-0.2-0.1-0.3-0.2-0.4-0.4
				s-0.1-0.5-0.1-0.9s0-0.6,0.1-0.8c0.1-0.2,0.2-0.3,0.4-0.4c0.2-0.1,0.4-0.1,0.7-0.1c0.2,0,0.4,0,0.6,0s0.5,0,0.8,0l0.2-0.9
				c-0.2-0.1-0.4-0.1-0.6-0.2c-0.2,0-0.4-0.1-0.6-0.1c-0.2,0-0.4,0-0.6,0c-0.6,0-1.1,0.1-1.5,0.2s-0.6,0.4-0.8,0.8s-0.2,0.9-0.2,1.5
				s0.1,1.1,0.2,1.5c0.2,0.4,0.4,0.7,0.8,0.8s0.9,0.2,1.5,0.2c0.3,0,0.7,0,1-0.1s0.6-0.1,0.9-0.3L446.5,7.5L446.5,7.5z"/>
			<path d="M448.4,8.5c0.4,0.2,0.9,0.3,1.5,0.3c0.2,0,0.5,0,0.8,0c0.3,0,0.5-0.1,0.8-0.1c0.2-0.1,0.5-0.1,0.7-0.2l-0.1-0.9
				c-0.3,0-0.7,0.1-1,0.1c-0.3,0-0.6,0-0.8,0c-0.3,0-0.6,0-0.7-0.1c-0.2-0.1-0.3-0.2-0.4-0.5c0-0.1-0.1-0.2-0.1-0.4h1.8
				c0.6,0,1-0.1,1.2-0.3s0.4-0.6,0.3-1c0-0.6-0.2-1-0.5-1.3c-0.4-0.3-1-0.4-1.8-0.4c-0.6,0-1.1,0.1-1.5,0.2s-0.6,0.4-0.8,0.8
				c-0.2,0.4-0.3,0.9-0.3,1.5c0,0.6,0.1,1.1,0.2,1.4C447.7,8.1,448,8.3,448.4,8.5L448.4,8.5z M449.2,4.8c0.1-0.1,0.4-0.1,0.6-0.1
				c0.3,0,0.5,0,0.6,0.1s0.2,0.2,0.2,0.5c0,0.2,0,0.3-0.1,0.4c-0.1,0.1-0.2,0.1-0.4,0.1h-1.4c0-0.3,0-0.5,0.1-0.6
				C449,5,449.1,4.8,449.2,4.8L449.2,4.8z"/>
			<path d="M459.4,3.9c-0.4-0.2-0.9-0.2-1.5-0.2s-1.1,0.1-1.5,0.2s-0.6,0.4-0.8,0.8c-0.2,0.4-0.2,0.9-0.2,1.5s0.1,1.1,0.2,1.5
				c0.2,0.4,0.4,0.7,0.8,0.8c0.4,0.2,0.9,0.2,1.5,0.2s1.1-0.1,1.5-0.2c0.4-0.2,0.6-0.4,0.8-0.8c0.2-0.4,0.2-0.9,0.2-1.5
				s-0.1-1.1-0.2-1.5C460.1,4.3,459.8,4.1,459.4,3.9z M458.9,7.2c-0.1,0.2-0.2,0.4-0.3,0.4s-0.4,0.1-0.6,0.1s-0.5,0-0.6-0.1
				s-0.2-0.2-0.3-0.4s-0.1-0.5-0.1-0.9s0-0.7,0.1-0.9c0.1-0.2,0.2-0.4,0.3-0.5s0.3-0.1,0.6-0.1s0.5,0,0.6,0.1s0.2,0.2,0.3,0.5
				s0.1,0.5,0.1,0.9S458.9,6.9,458.9,7.2z"/>
			<path d="M464,1.5c-0.2,0-0.4,0-0.5,0c-0.4,0-0.7,0.1-1,0.2c-0.2,0.1-0.4,0.3-0.5,0.5c-0.1,0.2-0.1,0.5-0.1,0.8v0.7l-0.9,0.1v0.9
				h0.9v4h1.5v-4h1.4v-1h-1.4V3.2c0-0.2,0-0.4,0.1-0.5s0.3-0.2,0.5-0.2h0.9l0.1-0.9c-0.1,0-0.3-0.1-0.5-0.1
				C464.4,1.5,464.2,1.5,464,1.5L464,1.5z"/>
			<path d="M468.4,8.5c0.2,0.2,0.6,0.4,1,0.4c0.1,0,0.3,0,0.4,0s0.3,0,0.5-0.1c0.2,0,0.3-0.1,0.4-0.1l-0.2-1h-0.6
				c-0.2,0-0.3,0-0.4-0.1s-0.1-0.2-0.1-0.4V4.7h1.4v-1h-1.4V2.4h-1.5v1.4l-0.9,0v0.9h0.9v2.7C468.1,7.9,468.2,8.2,468.4,8.5
				L468.4,8.5z"/>
			<path d="M475.1,3.6c-0.4,0-0.7,0.1-1.1,0.2c-0.3,0.1-0.6,0.3-0.9,0.6c0-0.1,0-0.2,0-0.3c0-0.2,0-0.5,0-0.7V1.7h-1.5v7h1.5V5.3
				c0.3-0.1,0.5-0.2,0.7-0.3c0.2-0.1,0.5-0.1,0.7-0.1c0.2,0,0.3,0,0.4,0.1c0.1,0.1,0.1,0.2,0.1,0.4v3.2h1.5V5
				C476.5,4.1,476.1,3.6,475.1,3.6L475.1,3.6z"/>
			<path d="M480.8,8.8c0.3,0,0.5-0.1,0.8-0.1c0.2-0.1,0.5-0.1,0.7-0.2l-0.1-0.9c-0.3,0-0.7,0.1-1,0.1c-0.3,0-0.6,0-0.8,0
				c-0.3,0-0.6,0-0.7-0.1c-0.2-0.1-0.3-0.2-0.4-0.5c0-0.1-0.1-0.2-0.1-0.4h1.8c0.6,0,1-0.1,1.2-0.3s0.4-0.6,0.3-1
				c0-0.6-0.2-1-0.5-1.3c-0.4-0.3-1-0.4-1.8-0.4c-0.6,0-1.1,0.1-1.5,0.2s-0.6,0.4-0.8,0.8c-0.2,0.4-0.3,0.9-0.3,1.5
				c0,0.6,0.1,1.1,0.2,1.4c0.2,0.4,0.4,0.7,0.8,0.8s0.9,0.3,1.5,0.3C480.3,8.8,480.6,8.8,480.8,8.8L480.8,8.8z M479.4,4.8
				c0.1-0.1,0.4-0.1,0.6-0.1c0.3,0,0.5,0,0.6,0.1s0.2,0.2,0.2,0.5c0,0.2,0,0.3-0.1,0.4c-0.1,0.1-0.2,0.1-0.4,0.1H479
				c0-0.3,0-0.5,0.1-0.6C479.2,5,479.3,4.8,479.4,4.8L479.4,4.8z"/>
			<path d="M488.9,3.6c-0.4,0-0.7,0.1-1.1,0.2c-0.4,0.2-0.7,0.4-1,0.6l-0.1-0.8h-1.2v4.9h1.5V5.3c0.3-0.1,0.5-0.2,0.7-0.3
				c0.2-0.1,0.5-0.1,0.7-0.1c0.2,0,0.3,0,0.4,0.1c0.1,0.1,0.1,0.2,0.1,0.4v3.2h1.5V5C490.3,4.1,489.8,3.6,488.9,3.6z"/>
			<path d="M495.8,6.3c0.2-0.2,0.4-0.6,0.3-1c0-0.6-0.2-1-0.5-1.3c-0.4-0.3-1-0.4-1.8-0.4c-0.6,0-1.1,0.1-1.5,0.2s-0.6,0.4-0.8,0.8
				c-0.2,0.4-0.3,0.9-0.3,1.5c0,0.6,0.1,1.1,0.2,1.4c0.2,0.4,0.4,0.7,0.8,0.8s0.9,0.3,1.5,0.3c0.2,0,0.5,0,0.8,0
				c0.3,0,0.5-0.1,0.8-0.1c0.2-0.1,0.5-0.1,0.7-0.2l-0.1-0.9c-0.3,0-0.7,0.1-1,0.1c-0.3,0-0.6,0-0.8,0c-0.3,0-0.6,0-0.7-0.1
				c-0.2-0.1-0.3-0.2-0.4-0.5c0-0.1-0.1-0.2-0.1-0.4h1.8C495.2,6.7,495.6,6.5,495.8,6.3L495.8,6.3z M492.8,5.8c0-0.3,0-0.5,0.1-0.6
				c0.1-0.2,0.2-0.3,0.3-0.4c0.1-0.1,0.4-0.1,0.6-0.1c0.3,0,0.5,0,0.6,0.1s0.2,0.2,0.2,0.5c0,0.2,0,0.3-0.1,0.4
				c-0.1,0.1-0.2,0.1-0.4,0.1L492.8,5.8L492.8,5.8z"/>
			<path d="M503.4,8.6c0.1-0.1,0.1-0.2,0.2-0.3l1.2-4.5h-1.5L502.6,7c0,0.1,0,0.3-0.1,0.4c0,0.1,0,0.3-0.1,0.4h-0.1
				c0-0.1,0-0.3-0.1-0.4s0-0.3-0.1-0.4l-0.5-2.7c0-0.1-0.1-0.2-0.2-0.3c-0.1-0.1-0.2-0.1-0.3-0.1h-1c-0.1,0-0.3,0-0.4,0.1
				s-0.1,0.2-0.2,0.3L499.2,7c0,0.1,0,0.3-0.1,0.4c0,0.1,0,0.3-0.1,0.4h-0.1c0-0.1,0-0.3,0-0.4c0-0.1,0-0.3-0.1-0.4l-0.7-3.2h-1.5
				l1.2,4.5c0,0.1,0.1,0.2,0.2,0.3s0.2,0.1,0.3,0.1h1.1c0.1,0,0.2,0,0.4-0.1s0.2-0.2,0.2-0.3l0.5-2.8c0-0.1,0-0.3,0.1-0.4
				c0-0.1,0-0.3,0.1-0.4h0.1c0,0.1,0,0.3,0.1,0.4c0,0.1,0,0.3,0,0.4l0.5,2.8c0,0.1,0.1,0.2,0.2,0.3s0.2,0.1,0.4,0.1h1.1
				C503.2,8.7,503.3,8.6,503.4,8.6L503.4,8.6z"/>
			<path d="M510.6,8.2l0.5-2.8c0-0.1,0-0.3,0.1-0.4c0-0.1,0-0.3,0.1-0.4h0.1c0,0.1,0,0.3,0.1,0.4c0,0.1,0,0.3,0,0.4l0.5,2.8
				c0,0.1,0.1,0.2,0.2,0.3s0.2,0.1,0.3,0.1h1.1c0.1,0,0.2,0,0.3-0.1s0.2-0.2,0.2-0.3l1.2-4.5h-1.5L513.2,7c0,0.1,0,0.3-0.1,0.4
				c0,0.1,0,0.3-0.1,0.4H513c0-0.1,0-0.3-0.1-0.4s0-0.3-0.1-0.4l-0.5-2.7c0-0.1-0.1-0.2-0.2-0.3c-0.1-0.1-0.2-0.1-0.3-0.1h-1
				c-0.1,0-0.3,0-0.4,0.1s-0.1,0.2-0.2,0.3L509.8,7c0,0.1,0,0.3-0.1,0.4c0,0.1,0,0.3-0.1,0.4h-0.1c0-0.1,0-0.3,0-0.4
				c0-0.1,0-0.3-0.1-0.4l-0.7-3.2h-1.5l1.2,4.5c0,0.1,0.1,0.2,0.2,0.3s0.2,0.1,0.3,0.1h1.1c0.1,0,0.2,0,0.4-0.1S510.6,8.4,510.6,8.2
				L510.6,8.2z"/>
			<path d="M516.7,8.7c0.2,0.1,0.5,0.2,0.8,0.2s0.6-0.1,0.8-0.1s0.5-0.2,0.6-0.4c0.2-0.1,0.3-0.3,0.4-0.4l0.2,0.8h1.2V5.4
				c0-0.5-0.1-0.8-0.2-1.1c-0.2-0.3-0.4-0.4-0.7-0.6c-0.3-0.1-0.6-0.2-1-0.2c-0.2,0-0.5,0-0.8,0s-0.6,0-0.9,0.1
				c-0.3,0-0.6,0.1-0.8,0.1l0.1,1c0.4,0,0.8-0.1,1.2-0.1s0.7,0,1,0c0.3,0,0.5,0.1,0.6,0.2s0.2,0.3,0.2,0.5v0.2h-1.8
				c-0.5,0-0.8,0.1-1.1,0.3s-0.4,0.5-0.4,0.9v0.5c0,0.3,0.1,0.6,0.2,0.8S516.5,8.6,516.7,8.7L516.7,8.7z M517.4,7
				c0-0.1,0-0.3,0.1-0.4s0.2-0.1,0.4-0.1h1.3v0.8c0,0,0,0-0.1,0.1c-0.2,0.1-0.4,0.2-0.6,0.3c-0.2,0.1-0.4,0.1-0.6,0.1
				c-0.2,0-0.4,0-0.5-0.1s-0.1-0.2-0.1-0.4L517.4,7L517.4,7z"/>
			<path d="M522.3,7.4c0,0.4,0.1,0.8,0.4,1s0.6,0.4,1,0.4c0.1,0,0.3,0,0.4,0s0.3,0,0.5-0.1c0.2,0,0.3-0.1,0.4-0.1l-0.2-1h-0.6
				c-0.2,0-0.3,0-0.4-0.1s-0.1-0.2-0.1-0.4V4.7h1.4v-1h-1.4V2.4h-1.5v1.4l-0.9,0v0.9h0.9L522.3,7.4L522.3,7.4z"/>
			<path d="M530.5,8.4l-0.1-0.9c-0.3,0-0.7,0.1-1,0.1c-0.3,0-0.6,0-0.8,0c-0.3,0-0.6,0-0.7-0.1c-0.2-0.1-0.3-0.2-0.4-0.5
				c0-0.1-0.1-0.2-0.1-0.4h1.8c0.6,0,1-0.1,1.2-0.3s0.3-0.6,0.3-1c0-0.6-0.2-1-0.5-1.3s-1-0.4-1.8-0.4c-0.6,0-1.1,0.1-1.5,0.2
				s-0.6,0.4-0.8,0.8c-0.2,0.4-0.3,0.9-0.3,1.5c0,0.6,0.1,1.1,0.2,1.4c0.2,0.4,0.4,0.7,0.8,0.8s0.9,0.3,1.5,0.3c0.2,0,0.5,0,0.8,0
				c0.3,0,0.5-0.1,0.8-0.1C530.1,8.6,530.3,8.5,530.5,8.4L530.5,8.4z M527.7,4.8c0.2-0.1,0.4-0.1,0.6-0.1c0.3,0,0.5,0,0.7,0.1
				s0.2,0.2,0.2,0.5c0,0.2,0,0.3-0.1,0.4c-0.1,0.1-0.2,0.1-0.4,0.1h-1.4c0-0.3,0-0.5,0.1-0.6C527.4,5,527.5,4.8,527.7,4.8L527.7,4.8
				z"/>
			<path d="M533,5.4c0.3-0.1,0.6-0.2,0.8-0.2C534,5,534.3,5,534.5,5h0.4l0.1-1.4h-0.3c-0.3,0-0.7,0.1-1,0.2c-0.3,0.2-0.7,0.4-1,0.6
				l-0.1-0.8h-1.2v4.9h1.5L533,5.4L533,5.4z"/>
			<path d="M538.9,5.9l-1.3-0.3c-0.2-0.1-0.4-0.1-0.5-0.2s-0.2-0.1-0.2-0.3c0-0.1,0-0.2,0.1-0.3c0.1-0.1,0.2-0.1,0.3-0.1
				c0.1,0,0.3,0,0.6,0c0.3,0,0.6,0,0.9,0s0.6,0,1,0l0.1-0.9c-0.2,0-0.4-0.1-0.7-0.1s-0.5-0.1-0.8-0.1c-0.3,0-0.5,0-0.8,0
				c-0.5,0-0.9,0.1-1.2,0.1s-0.5,0.2-0.7,0.4c-0.1,0.2-0.2,0.5-0.2,0.8c0,0.3,0,0.5,0.1,0.7c0.1,0.2,0.2,0.4,0.4,0.5
				s0.4,0.2,0.7,0.3l1.2,0.3c0.2,0.1,0.4,0.1,0.5,0.2c0.1,0.1,0.2,0.1,0.2,0.3c0,0.1,0,0.2-0.1,0.3s-0.2,0.1-0.4,0.1
				c-0.2,0-0.4,0-0.8,0h-0.7c-0.2,0-0.4,0-0.6,0s-0.3,0-0.5,0l-0.1,0.9c0.5,0.1,0.9,0.1,1.3,0.1c0.4,0,0.7,0,0.9,0
				c0.5,0,1,0,1.3-0.1s0.6-0.2,0.7-0.4c0.2-0.2,0.2-0.5,0.2-1s-0.1-0.7-0.3-0.9S539.3,6,538.9,5.9L538.9,5.9z"/>
			<path d="M544.3,3.7c-0.3,0-0.5,0-0.8,0.1S543,4,542.8,4.1c-0.2,0.1-0.3,0.3-0.5,0.4l-0.1-0.7H541v6.8h1.5V9.4c0-0.2,0-0.4,0-0.6
				c0-0.1,0-0.3,0-0.4c0.2,0.2,0.4,0.3,0.7,0.4c0.3,0.1,0.7,0.1,1,0.1c0.4,0,0.8-0.1,1-0.2c0.3-0.1,0.5-0.4,0.6-0.8
				c0.1-0.4,0.2-0.9,0.2-1.5c0-0.8-0.1-1.5-0.4-1.9S544.9,3.7,544.3,3.7L544.3,3.7z M544.4,7.2c-0.1,0.2-0.2,0.4-0.3,0.4
				c-0.1,0.1-0.3,0.1-0.5,0.1c-0.2,0-0.4,0-0.6-0.1c-0.2,0-0.3-0.1-0.5-0.1V5.2c0.2-0.1,0.4-0.3,0.6-0.3c0.2-0.1,0.4-0.1,0.6-0.1
				c0.2,0,0.3,0,0.5,0.1s0.2,0.2,0.3,0.4s0.1,0.5,0.1,0.9S544.5,7,544.4,7.2L544.4,7.2z"/>
			<path d="M550.8,3.9c-0.4-0.2-0.9-0.2-1.5-0.2s-1.1,0.1-1.5,0.2s-0.7,0.4-0.8,0.8c-0.2,0.4-0.2,0.9-0.2,1.5s0.1,1.1,0.2,1.5
				c0.2,0.4,0.4,0.7,0.8,0.8c0.4,0.2,0.9,0.2,1.5,0.2s1.1-0.1,1.5-0.2s0.6-0.4,0.8-0.8c0.2-0.4,0.2-0.9,0.2-1.5s-0.1-1.1-0.2-1.5
				C551.5,4.3,551.2,4.1,550.8,3.9z M550.3,7.2c-0.1,0.2-0.2,0.4-0.3,0.4s-0.3,0.1-0.6,0.1s-0.5,0-0.6-0.1c-0.2-0.1-0.2-0.2-0.3-0.4
				s-0.1-0.5-0.1-0.9s0-0.7,0.1-0.9c0.1-0.2,0.2-0.4,0.3-0.5s0.3-0.1,0.6-0.1s0.5,0,0.6,0.1c0.2,0.1,0.2,0.2,0.3,0.5
				s0.1,0.5,0.1,0.9S550.3,6.9,550.3,7.2z"/>
			<path d="M554.4,5.4c0.3-0.1,0.6-0.2,0.8-0.2c0.2-0.1,0.5-0.1,0.7-0.1h0.4l0.1-1.4h-0.3c-0.3,0-0.7,0.1-1,0.2
				c-0.3,0.2-0.7,0.4-1,0.6L554,3.8h-1.2v4.9h1.5L554.4,5.4L554.4,5.4z"/>
			<path d="M559.4,8.8c0.2,0,0.3,0,0.5-0.1c0.2,0,0.3-0.1,0.4-0.1l-0.2-1h-0.6c-0.2,0-0.3,0-0.4-0.1s-0.1-0.2-0.1-0.4V4.7h1.4v-1
				h-1.4V2.4h-1.5v1.4l-0.9,0v0.9h0.9v2.7c0,0.4,0.1,0.8,0.4,1s0.6,0.4,1,0.4C559.1,8.8,559.3,8.8,559.4,8.8L559.4,8.8z"/>
			<path d="M565.8,10.6c0.6,0,1.1,0,1.5-0.1s0.7-0.2,0.8-0.5c0.2-0.2,0.3-0.6,0.3-1c0-0.4-0.1-0.8-0.3-1c-0.2-0.2-0.6-0.4-1.1-0.4
				l-1.8-0.2c-0.2,0-0.3-0.1-0.3-0.2c0-0.1-0.1-0.2,0-0.3c0-0.1,0.1-0.1,0.1-0.1c0.2,0,0.5,0.1,0.8,0.1c0.6,0,1-0.1,1.4-0.2
				c0.3-0.1,0.6-0.3,0.7-0.5c0.2-0.2,0.2-0.5,0.2-0.9c0-0.3-0.1-0.5-0.2-0.7l0.6-0.1l0.1-0.6H567c-0.3-0.1-0.7-0.1-1.2-0.1
				c-0.6,0-1,0.1-1.4,0.2c-0.3,0.1-0.6,0.3-0.7,0.5c-0.2,0.2-0.2,0.5-0.2,0.9s0.1,0.7,0.2,0.9c0.1,0.2,0.3,0.3,0.5,0.4
				c-0.1,0.1-0.2,0.1-0.3,0.2c-0.1,0.1-0.2,0.3-0.2,0.4c0,0.2,0,0.3,0,0.5c0,0.1,0.1,0.2,0.2,0.4c-0.1,0.1-0.2,0.1-0.3,0.2
				c-0.2,0.1-0.3,0.2-0.4,0.4s-0.1,0.3-0.1,0.5c0,0.3,0,0.5,0.1,0.7s0.2,0.3,0.4,0.4c0.2,0.1,0.5,0.2,0.8,0.2S565.3,10.6,565.8,10.6
				L565.8,10.6z M566.7,8.6c0.1,0,0.2,0.1,0.2,0.1S567,8.8,567,9c0,0.1,0,0.3-0.1,0.3c-0.1,0.1-0.2,0.1-0.4,0.2s-0.4,0-0.8,0
				s-0.5,0-0.7,0c-0.2,0-0.3-0.1-0.4-0.2s-0.1-0.2-0.1-0.4c0-0.1,0-0.2,0.1-0.3s0.1-0.2,0.2-0.2c0,0,0,0,0.1-0.1l1.2,0.1
				C566.5,8.5,566.6,8.5,566.7,8.6L566.7,8.6z M565,4.7c0.1-0.1,0.4-0.1,0.8-0.1s0.6,0.1,0.8,0.1c0.1,0.1,0.2,0.3,0.2,0.5
				s-0.1,0.4-0.2,0.5s-0.4,0.1-0.8,0.1s-0.6-0.1-0.8-0.1c-0.1-0.1-0.2-0.3-0.2-0.5S564.9,4.8,565,4.7z"/>
			<path d="M570.9,5.4c0.3-0.1,0.6-0.2,0.8-0.2c0.2-0.1,0.5-0.1,0.7-0.1h0.4l0.1-1.4h-0.3c-0.3,0-0.7,0.1-1,0.2
				c-0.3,0.2-0.7,0.4-1,0.6l-0.1-0.8h-1.2v4.9h1.5L570.9,5.4L570.9,5.4z"/>
			<path d="M578.1,8.4L578,7.5c-0.3,0-0.7,0.1-1,0.1c-0.3,0-0.6,0-0.8,0c-0.3,0-0.6,0-0.7-0.1c-0.2-0.1-0.3-0.2-0.4-0.5
				c0-0.1-0.1-0.2-0.1-0.4h1.8c0.6,0,1-0.1,1.2-0.3s0.3-0.6,0.3-1c0-0.6-0.2-1-0.5-1.3s-1-0.4-1.8-0.4c-0.6,0-1.1,0.1-1.5,0.2
				s-0.6,0.4-0.8,0.8c-0.2,0.4-0.3,0.9-0.3,1.5c0,0.6,0.1,1.1,0.2,1.4c0.2,0.4,0.4,0.7,0.8,0.8s0.9,0.3,1.5,0.3c0.2,0,0.5,0,0.8,0
				c0.3,0,0.5-0.1,0.8-0.1C577.7,8.6,577.9,8.5,578.1,8.4L578.1,8.4z M575.3,4.8c0.2-0.1,0.4-0.1,0.6-0.1c0.3,0,0.5,0,0.7,0.1
				s0.2,0.2,0.2,0.5c0,0.2,0,0.3-0.1,0.4c-0.1,0.1-0.2,0.1-0.4,0.1h-1.4c0-0.3,0-0.5,0.1-0.6C575.1,5,575.2,4.8,575.3,4.8L575.3,4.8
				z"/>
			<path d="M583.7,8.4l-0.1-0.9c-0.3,0-0.7,0.1-1,0.1c-0.3,0-0.6,0-0.8,0c-0.3,0-0.6,0-0.7-0.1c-0.2-0.1-0.3-0.2-0.4-0.5
				c0-0.1-0.1-0.2-0.1-0.4h1.8c0.6,0,1-0.1,1.2-0.3s0.3-0.6,0.3-1c0-0.6-0.2-1-0.5-1.3s-1-0.4-1.8-0.4c-0.6,0-1.1,0.1-1.5,0.2
				s-0.6,0.4-0.8,0.8c-0.2,0.4-0.3,0.9-0.3,1.5c0,0.6,0.1,1.1,0.2,1.4c0.2,0.4,0.4,0.7,0.8,0.8s0.9,0.3,1.5,0.3c0.2,0,0.5,0,0.8,0
				c0.3,0,0.5-0.1,0.8-0.1C583.3,8.6,583.6,8.5,583.7,8.4L583.7,8.4z M580.9,4.8c0.2-0.1,0.4-0.1,0.6-0.1c0.3,0,0.5,0,0.7,0.1
				s0.2,0.2,0.2,0.5c0,0.2,0,0.3-0.1,0.4c-0.1,0.1-0.2,0.1-0.4,0.1h-1.4c0-0.3,0-0.5,0.1-0.6C580.7,5,580.8,4.8,580.9,4.8L580.9,4.8
				z"/>
			<path d="M589.7,8.7V5c0-0.9-0.5-1.4-1.4-1.4c-0.4,0-0.7,0.1-1.1,0.2c-0.3,0.2-0.7,0.4-1,0.6L586,3.8h-1.2v4.9h1.5V5.3
				c0.3-0.1,0.5-0.2,0.7-0.3c0.2-0.1,0.5-0.1,0.7-0.1c0.2,0,0.3,0,0.4,0.1c0.1,0.1,0.1,0.2,0.1,0.4v3.2H589.7L589.7,8.7z"/>
			<path d="M596.6,3.8c-0.3-0.1-0.6-0.2-1-0.2c-0.2,0-0.5,0-0.8,0s-0.6,0.1-0.9,0.1c-0.3,0-0.6,0.1-0.8,0.1l0.1,1
				c0.4,0,0.8-0.1,1.2-0.1s0.7,0,1,0c0.3,0,0.5,0.1,0.6,0.2s0.2,0.3,0.2,0.5v0.2h-1.8c-0.5,0-0.8,0.1-1.1,0.3s-0.4,0.5-0.4,0.9v0.5
				c0,0.3,0.1,0.6,0.2,0.8c0.1,0.2,0.3,0.4,0.6,0.5c0.2,0.1,0.5,0.2,0.8,0.2s0.6-0.1,0.8-0.1s0.5-0.2,0.6-0.4
				c0.2-0.1,0.3-0.3,0.4-0.4l0.2,0.8h1.2V5.5c0-0.5-0.1-0.8-0.2-1.1C597.1,4.1,596.9,3.9,596.6,3.8L596.6,3.8z M595.3,7.6
				c-0.2,0.1-0.4,0.1-0.6,0.1c-0.2,0-0.4,0-0.5-0.1s-0.1-0.2-0.1-0.4V7c0-0.1,0-0.3,0.1-0.4s0.2-0.1,0.4-0.1h1.3v0.8
				c0,0,0,0-0.1,0.1C595.8,7.5,595.5,7.6,595.3,7.6L595.3,7.6z"/>
			<path d="M602.1,3.6c-0.4,0-0.7,0.1-1.1,0.2c-0.3,0.2-0.7,0.4-1,0.6l-0.1-0.8h-1.2v4.9h1.5V5.3c0.3-0.1,0.5-0.2,0.7-0.3
				c0.2-0.1,0.5-0.1,0.7-0.1c0.2,0,0.3,0,0.4,0.1c0.1,0.1,0.1,0.2,0.1,0.4v3.2h1.5V5C603.5,4.1,603,3.6,602.1,3.6L602.1,3.6z"/>
			<path d="M607.9,3.1c0,0.2,0,0.4,0,0.6c0,0.1,0,0.3,0,0.4c-0.2-0.1-0.4-0.2-0.6-0.3c-0.3-0.1-0.7-0.2-1-0.2c-0.4,0-0.8,0.1-1,0.2
				c-0.3,0.2-0.5,0.4-0.6,0.8c-0.1,0.4-0.2,0.9-0.2,1.5c0,0.8,0.1,1.5,0.4,1.9c0.3,0.4,0.7,0.7,1.3,0.7c0.5,0,0.9-0.1,1.2-0.3
				c0.3-0.2,0.5-0.4,0.7-0.6l0.1,0.8h1.2v-7h-1.5L607.9,3.1L607.9,3.1z M607.6,7.4c-0.1,0.1-0.2,0.1-0.4,0.2s-0.3,0.1-0.5,0.1
				c-0.2,0-0.3,0-0.5-0.1c-0.1-0.1-0.2-0.2-0.3-0.4S606,6.6,606,6.2c0-0.4,0-0.7,0.1-0.9c0.1-0.2,0.2-0.4,0.3-0.4
				c0.1-0.1,0.3-0.1,0.5-0.1c0.2,0,0.5,0,0.6,0.1c0.1,0,0.3,0.1,0.4,0.1v2.3C607.8,7.3,607.7,7.3,607.6,7.4L607.6,7.4z"/>
			<path d="M617.1,6.3c0.2-0.2,0.3-0.6,0.3-1c0-0.6-0.2-1-0.5-1.3s-1-0.4-1.8-0.4c-0.6,0-1.1,0.1-1.5,0.2s-0.6,0.4-0.8,0.8
				c-0.2,0.4-0.3,0.9-0.3,1.5c0,0.6,0.1,1.1,0.2,1.4c0.2,0.4,0.4,0.7,0.8,0.8s0.9,0.3,1.5,0.3c0.2,0,0.5,0,0.8,0
				c0.3,0,0.5-0.1,0.8-0.1c0.2-0.1,0.5-0.1,0.7-0.2l-0.1-0.9c-0.3,0-0.7,0.1-1,0.1c-0.3,0-0.6,0-0.8,0c-0.3,0-0.6,0-0.7-0.1
				c-0.2-0.1-0.3-0.2-0.4-0.5c0-0.1-0.1-0.2-0.1-0.4h1.8C616.5,6.7,616.9,6.5,617.1,6.3L617.1,6.3z M614.1,5.8c0-0.3,0-0.5,0.1-0.6
				c0.1-0.2,0.2-0.3,0.3-0.4c0.2-0.1,0.4-0.1,0.6-0.1c0.3,0,0.5,0,0.7,0.1s0.2,0.2,0.2,0.5c0,0.2,0,0.3-0.1,0.4
				c-0.1,0.1-0.2,0.1-0.4,0.1L614.1,5.8L614.1,5.8z"/>
			<path d="M621.9,7.6c-0.2,0-0.4,0-0.5,0c-0.2,0-0.3,0-0.4,0c-0.3,0-0.5,0-0.7-0.1c-0.2-0.1-0.3-0.2-0.4-0.4s-0.1-0.5-0.1-0.9
				s0-0.6,0.1-0.8c0.1-0.2,0.2-0.3,0.4-0.4s0.4-0.1,0.7-0.1c0.2,0,0.4,0,0.7,0c0.2,0,0.5,0,0.8,0l0.2-0.9c-0.2-0.1-0.4-0.1-0.6-0.2
				c-0.2,0-0.4-0.1-0.6-0.1s-0.4,0-0.6,0c-0.6,0-1.1,0.1-1.5,0.2s-0.6,0.4-0.8,0.8s-0.2,0.9-0.2,1.5s0.1,1.1,0.2,1.5
				c0.2,0.4,0.4,0.7,0.8,0.8c0.4,0.2,0.8,0.2,1.5,0.2c0.3,0,0.7,0,1-0.1s0.6-0.1,0.9-0.3l-0.1-0.9C622.3,7.5,622.1,7.5,621.9,7.6
				L621.9,7.6z"/>
			<path d="M627.3,3.9c-0.4-0.2-0.9-0.2-1.5-0.2s-1.1,0.1-1.5,0.2s-0.7,0.4-0.8,0.8c-0.2,0.4-0.2,0.9-0.2,1.5s0.1,1.1,0.2,1.5
				c0.2,0.4,0.4,0.7,0.8,0.8c0.4,0.2,0.9,0.2,1.5,0.2s1.1-0.1,1.5-0.2s0.6-0.4,0.8-0.8c0.2-0.4,0.2-0.9,0.2-1.5s-0.1-1.1-0.2-1.5
				C627.9,4.3,627.7,4.1,627.3,3.9z M626.7,7.2c-0.1,0.2-0.2,0.4-0.3,0.4s-0.3,0.1-0.6,0.1s-0.5,0-0.6-0.1c-0.2-0.1-0.2-0.2-0.3-0.4
				s-0.1-0.5-0.1-0.9s0-0.7,0.1-0.9c0.1-0.2,0.2-0.4,0.3-0.5s0.3-0.1,0.6-0.1s0.5,0,0.6,0.1c0.2,0.1,0.2,0.2,0.3,0.5
				s0.1,0.5,0.1,0.9S626.8,6.9,626.7,7.2z"/>
			<rect x="629.4" y="5.7" width="3" height="0.9"/>
			<path d="M636,1.5c-0.2,0-0.3,0-0.5,0c-0.4,0-0.7,0.1-1,0.2c-0.2,0.1-0.4,0.3-0.5,0.5c-0.1,0.2-0.2,0.5-0.2,0.8v0.7l-0.9,0.1v0.9
				h0.9v4h1.5v-4h1.4v-1h-1.4V3.2c0-0.2,0-0.4,0.2-0.5s0.3-0.2,0.5-0.2h0.9l0.1-0.9c-0.2,0-0.3-0.1-0.5-0.1S636.2,1.5,636,1.5
				L636,1.5z"/>
			<path d="M639.8,3.9c-0.3,0.2-0.7,0.4-1,0.6l-0.1-0.8h-1.2v4.9h1.5V5.4c0.3-0.1,0.6-0.2,0.8-0.2c0.2-0.1,0.5-0.1,0.7-0.1h0.4
				l0.1-1.4h-0.3C640.5,3.6,640.2,3.7,639.8,3.9L639.8,3.9z"/>
			<rect x="641.8" y="3.8" width="1.5" height="4.9"/>
			<path d="M642.9,1.6h-0.6c-0.3,0-0.4,0.2-0.4,0.4v0.5c0,0.3,0.2,0.4,0.4,0.4h0.6c0.3,0,0.4-0.2,0.4-0.4V2.1
				C643.3,1.8,643.2,1.6,642.9,1.6z"/>
			<path d="M648.9,6.3c0.2-0.2,0.3-0.6,0.3-1c0-0.6-0.2-1-0.5-1.3s-1-0.4-1.8-0.4c-0.6,0-1.1,0.1-1.5,0.2s-0.6,0.4-0.8,0.8
				c-0.2,0.4-0.3,0.9-0.3,1.5c0,0.6,0.1,1.1,0.2,1.4c0.2,0.4,0.4,0.7,0.8,0.8s0.9,0.3,1.5,0.3c0.2,0,0.5,0,0.8,0
				c0.3,0,0.5-0.1,0.8-0.1c0.2-0.1,0.5-0.1,0.7-0.2L649,7.5c-0.3,0-0.7,0.1-1,0.1c-0.3,0-0.6,0-0.8,0c-0.3,0-0.6,0-0.7-0.1
				c-0.2-0.1-0.3-0.2-0.4-0.5c0-0.1-0.1-0.2-0.1-0.4h1.8C648.2,6.7,648.6,6.5,648.9,6.3L648.9,6.3z M645.9,5.8c0-0.3,0-0.5,0.1-0.6
				c0.1-0.2,0.2-0.3,0.3-0.4c0.2-0.1,0.4-0.1,0.6-0.1c0.3,0,0.5,0,0.7,0.1s0.2,0.2,0.2,0.5c0,0.2,0,0.3-0.1,0.4
				c-0.1,0.1-0.2,0.1-0.4,0.1L645.9,5.8L645.9,5.8z"/>
			<path d="M653.6,3.6c-0.4,0-0.7,0.1-1.1,0.2c-0.3,0.2-0.7,0.4-1,0.6l-0.1-0.8h-1.2v4.9h1.5V5.3c0.3-0.1,0.5-0.2,0.7-0.3
				c0.2-0.1,0.5-0.1,0.7-0.1c0.2,0,0.3,0,0.4,0.1c0.1,0.1,0.1,0.2,0.1,0.4v3.2h1.5V5C655,4.1,654.5,3.6,653.6,3.6L653.6,3.6z"/>
			<path d="M659.4,3.1c0,0.2,0,0.4,0,0.6c0,0.1,0,0.3,0,0.4c-0.2-0.1-0.4-0.2-0.6-0.3c-0.3-0.1-0.7-0.2-1-0.2c-0.4,0-0.8,0.1-1,0.2
				c-0.3,0.2-0.5,0.4-0.6,0.8C656.1,5,656,5.5,656,6.2c0,0.8,0.1,1.5,0.4,1.9c0.3,0.4,0.7,0.7,1.3,0.7c0.5,0,0.9-0.1,1.2-0.3
				c0.3-0.2,0.5-0.4,0.7-0.6l0.1,0.8h1.2v-7h-1.5L659.4,3.1L659.4,3.1z M659.2,7.4c-0.1,0.1-0.2,0.1-0.4,0.2s-0.3,0.1-0.5,0.1
				c-0.2,0-0.3,0-0.5-0.1c-0.1-0.1-0.2-0.2-0.3-0.4s-0.1-0.5-0.1-0.9c0-0.4,0-0.7,0.1-0.9c0.1-0.2,0.2-0.4,0.3-0.4
				c0.1-0.1,0.3-0.1,0.5-0.1c0.2,0,0.5,0,0.6,0.1c0.1,0,0.3,0.1,0.4,0.1v2.3C659.3,7.3,659.2,7.3,659.2,7.4L659.2,7.4z"/>
			<path d="M664.2,7.6c-0.2,0-0.3,0-0.4-0.1s-0.2-0.2-0.2-0.4V1.7h-1.5v5.8c0,0.4,0.1,0.7,0.4,1s0.6,0.4,1.1,0.4c0.1,0,0.2,0,0.4,0
				s0.3,0,0.5-0.1s0.3-0.1,0.3-0.1l-0.2-1L664.2,7.6L664.2,7.6z"/>
			<path d="M667.9,7c0,0.1-0.1,0.3-0.1,0.5c0,0.1,0,0.1-0.1,0.2h-0.1c0-0.1,0-0.2-0.1-0.4s0-0.2-0.1-0.4l-0.9-3.2h-1.6l1.6,4.6
				c0,0.1,0.1,0.2,0.2,0.3c0.1,0.1,0.2,0.1,0.3,0.1h0.3v0c-0.1,0.3-0.3,0.5-0.5,0.7c-0.2,0.2-0.5,0.3-1,0.4l0.1,0.8
				c0.4,0.1,0.8,0,1.1-0.1c0.3-0.1,0.6-0.2,0.8-0.4s0.4-0.4,0.5-0.7s0.2-0.5,0.3-0.7l1.8-5h-1.6L667.9,7L667.9,7z"/>
			<path d="M672.3,7.3c-0.1-0.1-0.2-0.1-0.4-0.1h-0.4c-0.2,0-0.3,0-0.4,0.1C671,7.4,671,7.5,671,7.7v0.5c0,0.2,0,0.3,0.1,0.4
				c0.1,0.1,0.2,0.1,0.4,0.1h0.4c0.2,0,0.3,0,0.4-0.1s0.1-0.2,0.1-0.4V7.7C672.4,7.5,672.3,7.4,672.3,7.3z"/>
			<path d="M118.9,18.6c0,0.1,0,0.3,0,0.5c0,0.2,0,0.3,0,0.5h-0.2c0-0.2,0-0.3-0.1-0.5s-0.1-0.3-0.1-0.5l-0.8-4.3
				c0-0.1-0.1-0.2-0.2-0.3c-0.1-0.1-0.2-0.1-0.3-0.1h-1.3c-0.1,0-0.3,0-0.4,0.1c-0.1,0.1-0.2,0.2-0.2,0.3l-0.8,4.3
				c0,0.1,0,0.3-0.1,0.5c0,0.2-0.1,0.3-0.1,0.5h-0.2c0-0.2,0-0.4,0-0.5s0-0.3-0.1-0.5l-0.7-4.8h-1.5l1.1,6.5c0,0.1,0.1,0.2,0.2,0.3
				s0.2,0.1,0.3,0.1h1.4c0.1,0,0.2,0,0.3-0.1s0.2-0.2,0.2-0.3l0.8-4.5c0-0.1,0-0.3,0.1-0.5c0-0.1,0-0.3,0.1-0.5h0.2
				c0,0.1,0,0.3,0.1,0.4s0,0.3,0.1,0.5l0.8,4.5c0,0.1,0.1,0.2,0.2,0.3s0.2,0.1,0.3,0.1h1.4c0.1,0,0.3,0,0.4-0.1s0.2-0.2,0.2-0.3
				l1.1-6.5h-1.5L118.9,18.6L118.9,18.6z"/>
			<path d="M126.3,18.3c0.2-0.2,0.3-0.6,0.3-1c0-0.6-0.2-1-0.5-1.3s-1-0.4-1.8-0.4c-0.6,0-1.1,0.1-1.5,0.2c-0.4,0.2-0.7,0.4-0.8,0.8
				s-0.3,0.9-0.3,1.5c0,0.6,0.1,1.1,0.2,1.5s0.4,0.7,0.8,0.8c0.4,0.2,0.9,0.3,1.5,0.3c0.2,0,0.5,0,0.8,0c0.3,0,0.5-0.1,0.8-0.1
				c0.2,0,0.5-0.1,0.7-0.2l-0.1-0.9c-0.3,0-0.7,0.1-1,0.1c-0.3,0-0.6,0-0.8,0c-0.3,0-0.6,0-0.7-0.1c-0.2-0.1-0.3-0.2-0.4-0.5
				c0-0.1-0.1-0.2-0.1-0.4h1.8C125.7,18.7,126.1,18.6,126.3,18.3L126.3,18.3z M123.3,17.8c0-0.3,0-0.5,0.1-0.6
				c0.1-0.2,0.2-0.4,0.3-0.4s0.4-0.1,0.6-0.1c0.3,0,0.5,0,0.7,0.1c0.1,0.1,0.2,0.2,0.2,0.5c0,0.2,0,0.3-0.1,0.4s-0.2,0.1-0.4,0.1
				L123.3,17.8L123.3,17.8z"/>
			<polygon points="127.6,16 128.5,16 128.6,13.8 127.5,13.8 			"/>
			<path d="M132,15.9c-0.3,0.1-0.7,0.4-1,0.6l-0.1-0.8h-1.2v4.9h1.5v-3.3c0.3-0.1,0.6-0.2,0.8-0.2c0.2-0.1,0.5-0.1,0.7-0.1h0.4
				l0.1-1.4H133C132.7,15.6,132.4,15.7,132,15.9z"/>
			<path d="M138.3,18.3c0.2-0.2,0.4-0.6,0.3-1c0-0.6-0.2-1-0.5-1.3s-1-0.4-1.8-0.4c-0.6,0-1.1,0.1-1.5,0.2c-0.4,0.2-0.6,0.4-0.8,0.8
				c-0.2,0.4-0.3,0.9-0.3,1.5c0,0.6,0.1,1.1,0.2,1.5s0.4,0.7,0.8,0.8s0.9,0.3,1.5,0.3c0.2,0,0.5,0,0.8,0c0.3,0,0.5-0.1,0.8-0.1
				c0.2,0,0.5-0.1,0.7-0.2l-0.1-0.9c-0.3,0-0.7,0.1-1,0.1c-0.3,0-0.6,0-0.8,0c-0.3,0-0.6,0-0.7-0.1c-0.2-0.1-0.3-0.2-0.4-0.5
				c0-0.1-0.1-0.2-0.1-0.4h1.8C137.7,18.7,138.1,18.6,138.3,18.3L138.3,18.3z M135.3,17.8c0-0.3,0-0.5,0.1-0.6
				c0.1-0.2,0.2-0.4,0.3-0.4c0.1-0.1,0.4-0.1,0.6-0.1c0.3,0,0.5,0,0.6,0.1c0.1,0.1,0.2,0.2,0.2,0.5c0,0.2,0,0.3-0.1,0.4
				s-0.2,0.1-0.4,0.1L135.3,17.8L135.3,17.8z"/>
			<path d="M145,15c0,0.2,0,0.4,0,0.6c0,0.1,0,0.3,0,0.4c-0.2-0.1-0.4-0.2-0.6-0.3c-0.3-0.1-0.7-0.1-1-0.1c-0.4,0-0.8,0.1-1,0.2
				s-0.5,0.4-0.6,0.8c-0.1,0.4-0.2,0.9-0.2,1.5c0,0.9,0.1,1.5,0.4,2c0.3,0.5,0.7,0.7,1.4,0.7c0.5,0,0.9-0.1,1.2-0.3
				c0.3-0.2,0.5-0.4,0.7-0.6l0.1,0.8h1.2v-7H145L145,15L145,15z M144.8,19.4c-0.1,0.1-0.2,0.1-0.4,0.2s-0.3,0.1-0.4,0.1
				c-0.2,0-0.4,0-0.5-0.1s-0.2-0.2-0.3-0.4s-0.1-0.5-0.1-0.9c0-0.4,0-0.7,0.1-1c0.1-0.2,0.1-0.4,0.3-0.4s0.3-0.1,0.5-0.1
				c0.2,0,0.4,0,0.6,0.1c0.1,0,0.3,0.1,0.4,0.1v2.3C144.9,19.3,144.8,19.3,144.8,19.4L144.8,19.4z"/>
			<path d="M152.1,18.3c0.2-0.2,0.4-0.6,0.3-1c0-0.6-0.2-1-0.5-1.3s-1-0.4-1.8-0.4c-0.6,0-1.1,0.1-1.5,0.2c-0.4,0.2-0.6,0.4-0.8,0.8
				c-0.2,0.4-0.3,0.9-0.3,1.5c0,0.6,0.1,1.1,0.2,1.5s0.4,0.7,0.8,0.8s0.9,0.3,1.5,0.3c0.2,0,0.5,0,0.8,0c0.3,0,0.5-0.1,0.8-0.1
				c0.2,0,0.5-0.1,0.7-0.2l-0.1-0.9c-0.3,0-0.7,0.1-1,0.1c-0.3,0-0.6,0-0.8,0c-0.3,0-0.6,0-0.7-0.1c-0.2-0.1-0.3-0.2-0.4-0.5
				c0-0.1-0.1-0.2-0.1-0.4h1.8C151.5,18.7,151.9,18.6,152.1,18.3L152.1,18.3z M149.1,17.8c0-0.3,0-0.5,0.1-0.6
				c0.1-0.2,0.2-0.4,0.3-0.4c0.1-0.1,0.4-0.1,0.6-0.1c0.3,0,0.5,0,0.6,0.1c0.1,0.1,0.2,0.2,0.2,0.5c0,0.2,0,0.3-0.1,0.4
				s-0.2,0.1-0.4,0.1L149.1,17.8L149.1,17.8z"/>
			<path d="M156.7,15c0,0.2,0,0.4,0,0.6c0,0.1,0,0.3,0,0.4c-0.2-0.1-0.4-0.2-0.6-0.3c-0.3-0.1-0.7-0.1-1-0.1c-0.4,0-0.8,0.1-1,0.2
				s-0.5,0.4-0.6,0.8c-0.1,0.4-0.2,0.9-0.2,1.5c0,0.9,0.1,1.5,0.4,2c0.3,0.5,0.7,0.7,1.4,0.7c0.5,0,0.9-0.1,1.2-0.3
				c0.3-0.2,0.5-0.4,0.7-0.6l0.1,0.8h1.2v-7h-1.5L156.7,15L156.7,15z M156.4,19.4c-0.1,0.1-0.2,0.1-0.4,0.2s-0.3,0.1-0.4,0.1
				c-0.2,0-0.4,0-0.5-0.1s-0.2-0.2-0.3-0.4s-0.1-0.5-0.1-0.9c0-0.4,0-0.7,0.1-1c0.1-0.2,0.1-0.4,0.3-0.4s0.3-0.1,0.5-0.1
				c0.2,0,0.4,0,0.6,0.1c0.1,0,0.3,0.1,0.4,0.1v2.3C156.6,19.3,156.5,19.3,156.4,19.4L156.4,19.4z"/>
			<rect x="159.4" y="15.8" width="1.5" height="4.9"/>
			<path d="M160.5,13.6h-0.6c-0.3,0-0.4,0.1-0.4,0.5v0.5c0,0.3,0.1,0.5,0.4,0.5h0.6c0.3,0,0.4-0.1,0.4-0.5V14
				C160.9,13.7,160.8,13.6,160.5,13.6z"/>
			<path d="M165.6,19.6c-0.2,0-0.4,0-0.5,0c-0.2,0-0.3,0-0.4,0c-0.3,0-0.5,0-0.7-0.1c-0.2-0.1-0.3-0.2-0.4-0.4s-0.1-0.5-0.1-0.9
				s0-0.6,0.1-0.8s0.2-0.3,0.4-0.4c0.2-0.1,0.4-0.1,0.7-0.1c0.2,0,0.4,0,0.6,0s0.5,0,0.8,0l0.2-0.9c-0.2-0.1-0.4-0.1-0.6-0.2
				c-0.2,0-0.4-0.1-0.6-0.1s-0.4,0-0.6,0c-0.6,0-1.1,0.1-1.5,0.2c-0.4,0.2-0.6,0.4-0.8,0.8c-0.2,0.4-0.2,0.9-0.2,1.5
				s0.1,1.1,0.2,1.5c0.2,0.4,0.4,0.6,0.8,0.8s0.9,0.2,1.5,0.2c0.3,0,0.7,0,1-0.1s0.6-0.1,0.9-0.3l-0.1-0.9
				C166,19.6,165.8,19.6,165.6,19.6z"/>
			<path d="M170.9,15.8c-0.3-0.1-0.6-0.2-1.1-0.2c-0.2,0-0.5,0-0.8,0s-0.6,0-0.9,0.1s-0.6,0.1-0.8,0.1l0.1,1c0.4,0,0.8,0,1.2-0.1
				s0.7,0,0.9,0c0.3,0,0.5,0,0.6,0.2s0.2,0.3,0.2,0.5v0.2h-1.8c-0.5,0-0.8,0.1-1.1,0.3s-0.4,0.5-0.4,0.9v0.5c0,0.3,0.1,0.6,0.2,0.8
				c0.1,0.2,0.3,0.4,0.6,0.5c0.2,0.1,0.5,0.2,0.8,0.2s0.6,0,0.8-0.1s0.4-0.2,0.6-0.4c0.2-0.1,0.3-0.3,0.4-0.4l0.2,0.8h1.2v-3.2
				c0-0.5-0.1-0.8-0.2-1.1S171.1,15.9,170.9,15.8L170.9,15.8z M169.6,19.6c-0.2,0.1-0.4,0.1-0.6,0.1c-0.2,0-0.4,0-0.4-0.1
				c-0.1-0.1-0.1-0.2-0.1-0.4V19c0-0.1,0-0.3,0.1-0.4c0.1-0.1,0.2-0.1,0.4-0.1h1.3v0.8c0,0,0,0-0.1,0.1
				C170,19.5,169.8,19.6,169.6,19.6L169.6,19.6z"/>
			<path d="M174.8,14.4h-1.5v1.4l-0.9,0v0.9h0.9v2.7c0,0.4,0.1,0.8,0.4,1s0.6,0.4,1,0.4c0.1,0,0.3,0,0.4,0s0.4,0,0.5-0.1
				c0.2,0,0.3-0.1,0.4-0.1l-0.2-1h-0.6c-0.2,0-0.3,0-0.4-0.1c-0.1-0.1-0.1-0.2-0.1-0.4v-2.4h1.4v-1h-1.4L174.8,14.4L174.8,14.4z"/>
			<path d="M181.3,18.3c0.2-0.2,0.4-0.6,0.3-1c0-0.6-0.2-1-0.5-1.3s-1-0.4-1.8-0.4c-0.6,0-1.1,0.1-1.5,0.2c-0.4,0.2-0.6,0.4-0.8,0.8
				c-0.2,0.4-0.3,0.9-0.3,1.5c0,0.6,0.1,1.1,0.2,1.5s0.4,0.7,0.8,0.8s0.9,0.3,1.5,0.3c0.2,0,0.5,0,0.8,0c0.3,0,0.5-0.1,0.8-0.1
				c0.2,0,0.5-0.1,0.7-0.2l-0.1-0.9c-0.3,0-0.7,0.1-1,0.1c-0.3,0-0.6,0-0.8,0c-0.3,0-0.6,0-0.7-0.1c-0.2-0.1-0.3-0.2-0.4-0.5
				c0-0.1-0.1-0.2-0.1-0.4h1.8C180.6,18.7,181.1,18.6,181.3,18.3L181.3,18.3z M178.3,17.8c0-0.3,0-0.5,0.1-0.6
				c0.1-0.2,0.2-0.4,0.3-0.4c0.1-0.1,0.4-0.1,0.6-0.1c0.3,0,0.5,0,0.6,0.1c0.1,0.1,0.2,0.2,0.2,0.5c0,0.2,0,0.3-0.1,0.4
				s-0.2,0.1-0.4,0.1L178.3,17.8L178.3,17.8z"/>
			<path d="M185.8,15c0,0.2,0,0.4,0,0.6c0,0.1,0,0.3,0,0.4c-0.2-0.1-0.4-0.2-0.6-0.3c-0.3-0.1-0.7-0.1-1-0.1c-0.4,0-0.8,0.1-1,0.2
				s-0.5,0.4-0.6,0.8c-0.1,0.4-0.2,0.9-0.2,1.5c0,0.9,0.1,1.5,0.4,2c0.3,0.5,0.7,0.7,1.4,0.7c0.5,0,0.9-0.1,1.2-0.3
				c0.3-0.2,0.5-0.4,0.7-0.6l0.1,0.8h1.2v-7h-1.5L185.8,15L185.8,15z M185.6,19.4c-0.1,0.1-0.2,0.1-0.4,0.2s-0.3,0.1-0.4,0.1
				c-0.2,0-0.4,0-0.5-0.1s-0.2-0.2-0.3-0.4s-0.1-0.5-0.1-0.9c0-0.4,0-0.7,0.1-1c0.1-0.2,0.1-0.4,0.3-0.4s0.3-0.1,0.5-0.1
				c0.2,0,0.4,0,0.6,0.1c0.1,0,0.3,0.1,0.4,0.1v2.3C185.7,19.3,185.6,19.3,185.6,19.4L185.6,19.4z"/>
			<path d="M192.8,14.4h-1.5v1.4l-0.9,0v0.9h0.9v2.7c0,0.4,0.1,0.8,0.4,1s0.6,0.4,1,0.4c0.1,0,0.3,0,0.4,0s0.4,0,0.5-0.1
				c0.2,0,0.3-0.1,0.4-0.1l-0.2-1h-0.6c-0.2,0-0.3,0-0.4-0.1c-0.1-0.1-0.1-0.2-0.1-0.4v-2.4h1.4v-1h-1.4L192.8,14.4L192.8,14.4z"/>
			<path d="M198.8,15.9c-0.4-0.2-0.9-0.2-1.5-0.2s-1.1,0.1-1.5,0.2c-0.4,0.2-0.6,0.4-0.8,0.8c-0.2,0.4-0.2,0.9-0.2,1.5
				s0.1,1.1,0.2,1.5c0.2,0.4,0.4,0.6,0.8,0.8s0.9,0.2,1.5,0.2s1.1-0.1,1.5-0.2s0.6-0.4,0.8-0.8s0.2-0.9,0.2-1.5s-0.1-1.1-0.2-1.5
				C199.4,16.3,199.1,16.1,198.8,15.9z M198.2,19.2c-0.1,0.2-0.2,0.4-0.3,0.5s-0.4,0.1-0.6,0.1s-0.4,0-0.6-0.1
				c-0.1-0.1-0.2-0.2-0.3-0.5c-0.1-0.2-0.1-0.5-0.1-0.9s0-0.7,0.1-0.9c0.1-0.2,0.2-0.4,0.3-0.5c0.1-0.1,0.4-0.1,0.6-0.1
				s0.4,0,0.6,0.1c0.1,0.1,0.2,0.2,0.3,0.5s0.1,0.5,0.1,0.9S198.2,18.9,198.2,19.2z"/>
			<path d="M206.4,15.6c-0.4,0-0.7,0.1-1.1,0.2c-0.3,0.1-0.6,0.4-0.9,0.6c0-0.1,0-0.2,0.1-0.3c0-0.2,0-0.5,0-0.7v-1.7H203v7h1.5
				v-3.4c0.3-0.1,0.5-0.2,0.7-0.3c0.2-0.1,0.4-0.1,0.7-0.1c0.2,0,0.3,0,0.4,0.1c0.1,0.1,0.1,0.2,0.1,0.5v3.2h1.5V17
				C207.8,16.1,207.3,15.6,206.4,15.6L206.4,15.6z"/>
			<path d="M213.3,18.3c0.2-0.2,0.4-0.6,0.3-1c0-0.6-0.2-1-0.5-1.3s-1-0.4-1.8-0.4c-0.6,0-1.1,0.1-1.5,0.2c-0.4,0.2-0.6,0.4-0.8,0.8
				c-0.2,0.4-0.3,0.9-0.3,1.5c0,0.6,0.1,1.1,0.2,1.5s0.4,0.7,0.8,0.8s0.9,0.3,1.5,0.3c0.2,0,0.5,0,0.8,0c0.3,0,0.5-0.1,0.8-0.1
				c0.2,0,0.5-0.1,0.7-0.2l-0.1-0.9c-0.3,0-0.7,0.1-1,0.1c-0.3,0-0.6,0-0.8,0c-0.3,0-0.6,0-0.7-0.1c-0.2-0.1-0.3-0.2-0.4-0.5
				c0-0.1-0.1-0.2-0.1-0.4h1.8C212.7,18.7,213.1,18.6,213.3,18.3L213.3,18.3z M210.3,17.8c0-0.3,0-0.5,0.1-0.6
				c0.1-0.2,0.2-0.4,0.3-0.4c0.1-0.1,0.4-0.1,0.6-0.1c0.3,0,0.5,0,0.6,0.1c0.1,0.1,0.2,0.2,0.2,0.5c0,0.2,0,0.3-0.1,0.4
				s-0.2,0.1-0.4,0.1L210.3,17.8L210.3,17.8z"/>
			<path d="M216.7,19.6c-0.2,0-0.3,0-0.4-0.1s-0.1-0.2-0.1-0.4v-5.4h-1.5v5.8c0,0.4,0.1,0.8,0.4,1s0.6,0.4,1.1,0.4
				c0.1,0,0.2,0,0.4,0c0.1,0,0.3,0,0.4-0.1c0.1,0,0.3-0.1,0.3-0.1l-0.2-1C217.1,19.6,216.7,19.6,216.7,19.6z"/>
			<path d="M221.1,15.6c-0.3,0-0.5,0-0.8,0.1s-0.5,0.2-0.7,0.3c-0.2,0.1-0.3,0.3-0.5,0.4l-0.1-0.8h-1.2v6.8h1.5v-1.2
				c0-0.2,0-0.4,0-0.6c0-0.1,0-0.3,0-0.5c0.2,0.2,0.4,0.3,0.7,0.4c0.3,0.1,0.7,0.1,1,0.1c0.4,0,0.8-0.1,1-0.2s0.5-0.4,0.6-0.8
				s0.2-0.9,0.2-1.5c0-0.9-0.1-1.5-0.4-2C222.1,15.9,221.7,15.6,221.1,15.6L221.1,15.6z M221.2,19.2c-0.1,0.2-0.1,0.4-0.3,0.4
				c-0.1,0.1-0.3,0.1-0.5,0.1c-0.2,0-0.4,0-0.6-0.1c-0.1,0-0.3-0.1-0.5-0.1v-2.3c0.2-0.1,0.4-0.3,0.6-0.3c0.2-0.1,0.4-0.1,0.6-0.1
				c0.2,0,0.4,0,0.5,0.1s0.2,0.2,0.3,0.5c0.1,0.2,0.1,0.5,0.1,0.9S221.3,19,221.2,19.2L221.2,19.2z"/>
			<rect x="223.9" y="15.8" width="1.5" height="4.9"/>
			<path d="M224.9,13.6h-0.6c-0.3,0-0.4,0.1-0.4,0.5v0.5c0,0.3,0.1,0.5,0.4,0.5h0.6c0.3,0,0.4-0.1,0.4-0.5V14
				C225.4,13.7,225.2,13.6,224.9,13.6z"/>
			<path d="M230,15.6c-0.4,0-0.7,0.1-1.1,0.2c-0.4,0.1-0.7,0.4-1,0.6l-0.1-0.8h-1.2v4.9h1.5v-3.4c0.3-0.1,0.5-0.2,0.7-0.3
				c0.2-0.1,0.4-0.1,0.7-0.1c0.2,0,0.3,0,0.4,0.1s0.1,0.2,0.1,0.5v3.2h1.5V17C231.4,16.1,230.9,15.6,230,15.6L230,15.6z"/>
			<path d="M234.8,15.6c-0.6,0-1,0-1.4,0.2s-0.6,0.3-0.7,0.5c-0.1,0.2-0.2,0.5-0.2,0.9s0.1,0.7,0.2,0.9c0.1,0.2,0.3,0.3,0.6,0.4
				c-0.1,0.1-0.2,0.1-0.3,0.2c-0.1,0.1-0.2,0.3-0.2,0.5c0,0.2,0,0.3,0,0.5c0.1,0.1,0.1,0.2,0.2,0.4c-0.1,0-0.2,0.1-0.3,0.2
				c-0.2,0.1-0.3,0.2-0.4,0.4c-0.1,0.1-0.1,0.3-0.1,0.5c0,0.3,0,0.5,0.1,0.7s0.2,0.3,0.4,0.4s0.5,0.2,0.8,0.2s0.8,0.1,1.3,0.1
				c0.6,0,1.1,0,1.5-0.1c0.4-0.1,0.7-0.2,0.8-0.5s0.3-0.6,0.3-1c0-0.5-0.1-0.8-0.3-1s-0.6-0.4-1.1-0.4l-1.8-0.2
				c-0.2,0-0.3-0.1-0.4-0.2s-0.1-0.2,0-0.3c0-0.1,0.1-0.1,0.1-0.1c0.2,0,0.5,0,0.8,0c0.6,0,1,0,1.4-0.2s0.6-0.3,0.7-0.5
				c0.1-0.2,0.2-0.5,0.2-0.9c0-0.3-0.1-0.5-0.1-0.7l0.6-0.1l0.1-0.6H236C235.7,15.7,235.3,15.6,234.8,15.6L234.8,15.6z M235.7,20.6
				c0.1,0,0.2,0.1,0.2,0.1c0.1,0.1,0.1,0.1,0.1,0.3c0,0.1,0,0.3-0.1,0.3s-0.2,0.1-0.4,0.2c-0.2,0-0.4,0-0.8,0s-0.6,0-0.7,0
				c-0.2,0-0.3-0.1-0.4-0.2s-0.1-0.2-0.1-0.4c0-0.1,0-0.2,0.1-0.3s0.1-0.2,0.2-0.2c0,0,0.1,0,0.1,0l1.2,0.1
				C235.4,20.5,235.6,20.6,235.7,20.6z M235.5,17.7c-0.1,0.1-0.4,0.1-0.8,0.1s-0.6,0-0.8-0.1s-0.2-0.3-0.2-0.5s0.1-0.4,0.2-0.5
				c0.1-0.1,0.4-0.1,0.8-0.1s0.6,0,0.8,0.1s0.2,0.3,0.2,0.5S235.6,17.6,235.5,17.7z"/>
			<path d="M244,19.6c-0.2,0-0.4,0-0.5,0c-0.2,0-0.3,0-0.4,0c-0.3,0-0.5,0-0.7-0.1c-0.2-0.1-0.3-0.2-0.4-0.4s-0.1-0.5-0.1-0.9
				s0-0.6,0.1-0.8s0.2-0.3,0.4-0.4c0.2-0.1,0.4-0.1,0.7-0.1c0.2,0,0.4,0,0.6,0s0.5,0,0.8,0l0.2-0.9c-0.2-0.1-0.4-0.1-0.6-0.2
				c-0.2,0-0.4-0.1-0.6-0.1s-0.4,0-0.6,0c-0.6,0-1.1,0.1-1.5,0.2c-0.4,0.2-0.6,0.4-0.8,0.8c-0.2,0.4-0.2,0.9-0.2,1.5
				s0.1,1.1,0.2,1.5c0.2,0.4,0.4,0.6,0.8,0.8s0.9,0.2,1.5,0.2c0.3,0,0.7,0,1-0.1s0.6-0.1,0.9-0.3l-0.1-0.9
				C244.4,19.6,244.2,19.6,244,19.6z"/>
			<path d="M247.8,15.9c-0.3,0.1-0.7,0.4-1,0.6l-0.1-0.8h-1.2v4.9h1.5v-3.3c0.3-0.1,0.6-0.2,0.8-0.2c0.2-0.1,0.5-0.1,0.7-0.1h0.4
				l0.1-1.4h-0.3C248.5,15.6,248.2,15.7,247.8,15.9z"/>
			<path d="M254.1,18.3c0.2-0.2,0.4-0.6,0.3-1c0-0.6-0.2-1-0.5-1.3s-1-0.4-1.8-0.4c-0.6,0-1.1,0.1-1.5,0.2c-0.4,0.2-0.6,0.4-0.8,0.8
				c-0.2,0.4-0.3,0.9-0.3,1.5c0,0.6,0.1,1.1,0.2,1.5s0.4,0.7,0.8,0.8s0.9,0.3,1.5,0.3c0.2,0,0.5,0,0.8,0c0.3,0,0.5-0.1,0.8-0.1
				c0.2,0,0.5-0.1,0.7-0.2l-0.1-0.9c-0.3,0-0.7,0.1-1,0.1c-0.3,0-0.6,0-0.8,0c-0.3,0-0.6,0-0.7-0.1c-0.2-0.1-0.3-0.2-0.4-0.5
				c0-0.1-0.1-0.2-0.1-0.4h1.8C253.5,18.7,253.9,18.6,254.1,18.3L254.1,18.3z M251.1,17.8c0-0.3,0-0.5,0.1-0.6
				c0.1-0.2,0.2-0.4,0.3-0.4c0.1-0.1,0.4-0.1,0.6-0.1c0.3,0,0.5,0,0.6,0.1c0.1,0.1,0.2,0.2,0.2,0.5c0,0.2,0,0.3-0.1,0.4
				s-0.2,0.1-0.4,0.1L251.1,17.8L251.1,17.8z"/>
			<path d="M259,15.8c-0.3-0.1-0.6-0.2-1-0.2c-0.2,0-0.5,0-0.8,0s-0.6,0-0.9,0.1s-0.6,0.1-0.8,0.1l0.1,1c0.4,0,0.8,0,1.2-0.1
				s0.7,0,1,0c0.3,0,0.5,0,0.6,0.2s0.2,0.3,0.2,0.5v0.2h-1.8c-0.5,0-0.8,0.1-1.1,0.3s-0.4,0.5-0.4,0.9v0.5c0,0.3,0.1,0.6,0.2,0.8
				c0.1,0.2,0.3,0.4,0.6,0.5c0.2,0.1,0.5,0.2,0.8,0.2s0.6,0,0.8-0.1c0.2-0.1,0.5-0.2,0.6-0.4c0.2-0.1,0.3-0.3,0.4-0.4l0.2,0.8h1.2
				v-3.2c0-0.5-0.1-0.8-0.2-1.1S259.3,15.9,259,15.8L259,15.8z M257.8,19.6c-0.2,0.1-0.4,0.1-0.6,0.1c-0.2,0-0.4,0-0.5-0.1
				c-0.1-0.1-0.1-0.2-0.1-0.4V19c0-0.1,0-0.3,0.1-0.4c0.1-0.1,0.2-0.1,0.4-0.1h1.3v0.8c0,0,0,0-0.1,0.1
				C258.2,19.5,258,19.6,257.8,19.6L257.8,19.6z"/>
			<path d="M263,14.4h-1.5v1.4l-0.9,0v0.9h0.9v2.7c0,0.4,0.1,0.8,0.4,1s0.6,0.4,1,0.4c0.1,0,0.3,0,0.4,0s0.4,0,0.5-0.1
				c0.2,0,0.3-0.1,0.4-0.1l-0.2-1h-0.6c-0.2,0-0.3,0-0.4-0.1c-0.1-0.1-0.1-0.2-0.1-0.4v-2.4h1.4v-1H263L263,14.4L263,14.4z"/>
			<path d="M269.5,18.3c0.2-0.2,0.4-0.6,0.3-1c0-0.6-0.2-1-0.5-1.3c-0.4-0.3-1-0.4-1.8-0.4c-0.6,0-1.1,0.1-1.5,0.2
				c-0.4,0.2-0.6,0.4-0.8,0.8s-0.3,0.9-0.3,1.5c0,0.6,0.1,1.1,0.2,1.5s0.5,0.7,0.8,0.8c0.4,0.2,0.9,0.3,1.5,0.3c0.2,0,0.5,0,0.8,0
				c0.3,0,0.5-0.1,0.8-0.1c0.2,0,0.5-0.1,0.7-0.2l-0.1-0.9c-0.3,0-0.7,0.1-1,0.1c-0.3,0-0.6,0-0.8,0c-0.3,0-0.6,0-0.7-0.1
				c-0.2-0.1-0.3-0.2-0.4-0.5c0-0.1-0.1-0.2-0.1-0.4h1.8C268.9,18.7,269.3,18.6,269.5,18.3L269.5,18.3z M266.5,17.8
				c0-0.3,0-0.5,0.1-0.6c0.1-0.2,0.2-0.4,0.3-0.4s0.4-0.1,0.6-0.1c0.3,0,0.5,0,0.6,0.1c0.1,0.1,0.2,0.2,0.2,0.5c0,0.2,0,0.3-0.1,0.4
				s-0.2,0.1-0.4,0.1L266.5,17.8L266.5,17.8z"/>
			<path d="M276.8,15.8c-0.3-0.1-0.6-0.2-1-0.2c-0.2,0-0.5,0-0.8,0s-0.6,0-0.9,0.1s-0.6,0.1-0.8,0.1l0.1,1c0.4,0,0.8,0,1.2-0.1
				s0.7,0,1,0c0.3,0,0.5,0,0.6,0.2s0.2,0.3,0.2,0.5v0.2h-1.8c-0.5,0-0.8,0.1-1.1,0.3s-0.4,0.5-0.4,0.9v0.5c0,0.3,0.1,0.6,0.2,0.8
				c0.1,0.2,0.3,0.4,0.6,0.5c0.2,0.1,0.5,0.2,0.8,0.2s0.6,0,0.8-0.1c0.2-0.1,0.5-0.2,0.6-0.4c0.2-0.1,0.3-0.3,0.4-0.4l0.2,0.8h1.2
				v-3.2c0-0.5-0.1-0.8-0.2-1.1S277.1,15.9,276.8,15.8L276.8,15.8z M275.5,19.6c-0.2,0.1-0.4,0.1-0.6,0.1c-0.2,0-0.4,0-0.5-0.1
				c-0.1-0.1-0.1-0.2-0.1-0.4V19c0-0.1,0-0.3,0.1-0.4c0.1-0.1,0.2-0.1,0.4-0.1h1.3v0.8c0,0,0,0-0.1,0.1
				C275.9,19.5,275.7,19.6,275.5,19.6L275.5,19.6z"/>
			<path d="M284.4,15.6c-0.4,0-0.7,0.1-1.1,0.2c-0.4,0.1-0.7,0.4-1,0.6l-0.1-0.8H281v4.9h1.5v-3.4c0.3-0.1,0.5-0.2,0.7-0.3
				c0.2-0.1,0.5-0.1,0.7-0.1c0.2,0,0.3,0,0.4,0.1c0.1,0.1,0.1,0.2,0.1,0.5v3.2h1.5V17C285.8,16.1,285.4,15.6,284.4,15.6L284.4,15.6z
				"/>
			<path d="M291.3,18.3c0.2-0.2,0.4-0.6,0.3-1c0-0.6-0.2-1-0.5-1.3c-0.4-0.3-1-0.4-1.8-0.4c-0.6,0-1.1,0.1-1.5,0.2
				c-0.4,0.2-0.6,0.4-0.8,0.8s-0.3,0.9-0.3,1.5c0,0.6,0.1,1.1,0.2,1.5s0.5,0.7,0.8,0.8c0.4,0.2,0.9,0.3,1.5,0.3c0.2,0,0.5,0,0.8,0
				c0.3,0,0.5-0.1,0.8-0.1c0.2,0,0.5-0.1,0.7-0.2l-0.1-0.9c-0.3,0-0.7,0.1-1,0.1c-0.3,0-0.6,0-0.8,0c-0.3,0-0.6,0-0.7-0.1
				c-0.2-0.1-0.3-0.2-0.4-0.5c0-0.1-0.1-0.2-0.1-0.4h1.8C290.7,18.7,291.1,18.6,291.3,18.3L291.3,18.3z M288.3,17.8
				c0-0.3,0-0.5,0.1-0.6c0.1-0.2,0.2-0.4,0.3-0.4s0.4-0.1,0.6-0.1c0.3,0,0.5,0,0.6,0.1c0.1,0.1,0.2,0.2,0.2,0.5c0,0.2,0,0.3-0.1,0.4
				s-0.2,0.1-0.4,0.1L288.3,17.8L288.3,17.8z"/>
			<path d="M298.2,19c0,0.1,0,0.3-0.1,0.4c0,0.1,0,0.3-0.1,0.4h-0.1c0-0.1,0-0.3-0.1-0.4s0-0.3-0.1-0.4l-0.5-2.7
				c0-0.1-0.1-0.2-0.2-0.3c-0.1-0.1-0.2-0.1-0.3-0.1h-1c-0.1,0-0.3,0-0.4,0.1s-0.1,0.2-0.2,0.3l-0.5,2.8c0,0.1,0,0.3-0.1,0.4
				c0,0.1,0,0.3-0.1,0.4h-0.1c0-0.1,0-0.3,0-0.4c0-0.1,0-0.3-0.1-0.4l-0.7-3.2h-1.5l1.2,4.5c0,0.1,0.1,0.2,0.2,0.3
				c0.1,0.1,0.2,0.1,0.3,0.1h1.1c0.1,0,0.2,0,0.4-0.1s0.2-0.2,0.2-0.3l0.5-2.8c0-0.1,0-0.3,0.1-0.4s0-0.3,0.1-0.4h0.1
				c0,0.1,0,0.3,0.1,0.4c0,0.1,0,0.3,0,0.4l0.5,2.8c0,0.1,0.1,0.2,0.2,0.3s0.2,0.1,0.4,0.1h1.1c0.1,0,0.2,0,0.3-0.1
				c0.1-0.1,0.1-0.2,0.2-0.3l1.2-4.5h-1.5L298.2,19L298.2,19z"/>
			<path d="M306.8,19.6c-0.2,0-0.4,0-0.5,0c-0.2,0-0.3,0-0.4,0c-0.3,0-0.5,0-0.7-0.1c-0.2-0.1-0.3-0.2-0.4-0.4s-0.1-0.5-0.1-0.9
				s0-0.6,0.1-0.8s0.2-0.3,0.4-0.4c0.2-0.1,0.4-0.1,0.7-0.1c0.2,0,0.4,0,0.6,0s0.5,0,0.8,0l0.2-0.9c-0.2-0.1-0.4-0.1-0.6-0.2
				c-0.2,0-0.4-0.1-0.6-0.1s-0.4,0-0.6,0c-0.6,0-1.1,0.1-1.5,0.2s-0.6,0.4-0.8,0.8s-0.2,0.9-0.2,1.5s0.1,1.1,0.2,1.5
				c0.2,0.4,0.4,0.6,0.8,0.8s0.9,0.2,1.5,0.2c0.3,0,0.7,0,1-0.1s0.6-0.1,0.9-0.3l-0.1-0.9C307.2,19.6,307,19.6,306.8,19.6
				L306.8,19.6z"/>
			<path d="M310.8,19c0,0.1-0.1,0.3-0.1,0.5c0,0.1,0,0.1-0.1,0.2h-0.1c0-0.1,0-0.2-0.1-0.4s0-0.2-0.1-0.4l-0.9-3.2h-1.6l1.6,4.6
				c0,0.1,0.1,0.2,0.2,0.3s0.2,0.1,0.3,0.1h0.3v0c-0.1,0.3-0.3,0.5-0.5,0.7c-0.2,0.2-0.5,0.3-1,0.4l0.1,0.8c0.4,0,0.8,0,1.1-0.1
				c0.3-0.1,0.6-0.2,0.8-0.5s0.4-0.4,0.5-0.7s0.2-0.5,0.3-0.7l1.8-5h-1.6L310.8,19L310.8,19z"/>
			<path d="M317.5,19.6c-0.2,0-0.4,0-0.5,0c-0.2,0-0.3,0-0.4,0c-0.3,0-0.5,0-0.7-0.1c-0.2-0.1-0.3-0.2-0.4-0.4s-0.1-0.5-0.1-0.9
				s0-0.6,0.1-0.8s0.2-0.3,0.4-0.4c0.2-0.1,0.4-0.1,0.7-0.1c0.2,0,0.4,0,0.6,0s0.5,0,0.8,0l0.2-0.9c-0.2-0.1-0.4-0.1-0.6-0.2
				c-0.2,0-0.4-0.1-0.6-0.1s-0.4,0-0.6,0c-0.6,0-1.1,0.1-1.5,0.2s-0.6,0.4-0.8,0.8s-0.2,0.9-0.2,1.5s0.1,1.1,0.2,1.5
				c0.2,0.4,0.4,0.6,0.8,0.8s0.9,0.2,1.5,0.2c0.3,0,0.7,0,1-0.1s0.6-0.1,0.9-0.3l-0.1-0.9C317.9,19.6,317.7,19.6,317.5,19.6
				L317.5,19.6z"/>
			<path d="M321.1,19.6c-0.2,0-0.3,0-0.4-0.1s-0.1-0.2-0.1-0.4v-5.4H319v5.8c0,0.4,0.1,0.8,0.4,1s0.6,0.4,1.1,0.4c0.1,0,0.2,0,0.4,0
				c0.1,0,0.3,0,0.5-0.1c0.1,0,0.3-0.1,0.3-0.1l-0.2-1L321.1,19.6L321.1,19.6z"/>
			<rect x="322.3" y="15.8" width="1.5" height="4.9"/>
			<path d="M323.4,13.6h-0.6c-0.3,0-0.4,0.1-0.4,0.5v0.5c0,0.3,0.1,0.5,0.4,0.5h0.6c0.3,0,0.4-0.1,0.4-0.5V14
				C323.8,13.7,323.7,13.6,323.4,13.6z"/>
			<path d="M328.5,15.6c-0.4,0-0.7,0.1-1.1,0.2c-0.4,0.1-0.7,0.4-1,0.6l-0.1-0.8h-1.2v4.9h1.5v-3.4c0.3-0.1,0.5-0.2,0.7-0.3
				c0.2-0.1,0.5-0.1,0.7-0.1c0.2,0,0.3,0,0.4,0.1c0.1,0.1,0.1,0.2,0.1,0.5v3.2h1.5V17C329.9,16.1,329.4,15.6,328.5,15.6L328.5,15.6z
				"/>
			<path d="M333.2,15.6c-0.6,0-1,0-1.4,0.2s-0.6,0.3-0.7,0.5s-0.2,0.5-0.2,0.9s0.1,0.7,0.2,0.9c0.1,0.2,0.3,0.3,0.5,0.4
				c-0.1,0.1-0.2,0.1-0.3,0.2c-0.1,0.1-0.2,0.3-0.2,0.5c0,0.2,0,0.3,0,0.5c0,0.1,0.1,0.2,0.2,0.4c-0.1,0-0.2,0.1-0.3,0.2
				c-0.2,0.1-0.3,0.2-0.4,0.4s-0.1,0.3-0.1,0.5c0,0.3,0,0.5,0.1,0.7s0.2,0.3,0.4,0.4s0.5,0.2,0.8,0.2s0.8,0.1,1.3,0.1
				c0.6,0,1.1,0,1.5-0.1c0.4-0.1,0.7-0.2,0.8-0.5s0.3-0.6,0.3-1c0-0.5-0.1-0.8-0.3-1s-0.6-0.4-1.1-0.4l-1.8-0.2
				c-0.2,0-0.3-0.1-0.4-0.2c0-0.1-0.1-0.2,0-0.3c0-0.1,0.1-0.1,0.1-0.1c0.2,0,0.5,0,0.8,0c0.6,0,1,0,1.4-0.2s0.6-0.3,0.7-0.5
				c0.1-0.2,0.2-0.5,0.2-0.9c0-0.3-0.1-0.5-0.1-0.7l0.6-0.1l0.1-0.6h-1.7C334.1,15.7,333.8,15.6,333.2,15.6L333.2,15.6z M334.2,20.6
				c0.1,0,0.2,0.1,0.2,0.1c0,0.1,0.1,0.1,0.1,0.3c0,0.1,0,0.3-0.1,0.3c-0.1,0.1-0.2,0.1-0.4,0.2c-0.2,0-0.4,0-0.8,0s-0.5,0-0.7,0
				c-0.2,0-0.3-0.1-0.4-0.2s-0.1-0.2-0.1-0.4c0-0.1,0-0.2,0.1-0.3s0.1-0.2,0.2-0.2c0,0,0,0,0.1,0l1.2,0.1
				C333.9,20.5,334.1,20.6,334.2,20.6L334.2,20.6z M334,17.7c-0.1,0.1-0.4,0.1-0.8,0.1s-0.6,0-0.8-0.1s-0.2-0.3-0.2-0.5
				s0.1-0.4,0.2-0.5c0.1-0.1,0.4-0.1,0.8-0.1s0.6,0,0.8,0.1s0.2,0.3,0.2,0.5S334.1,17.6,334,17.7z"/>
			<path d="M341.3,15.6c-0.6,0-1,0-1.4,0.2s-0.6,0.3-0.7,0.5s-0.2,0.5-0.2,0.9s0.1,0.7,0.2,0.9c0.1,0.2,0.3,0.3,0.5,0.4
				c-0.1,0.1-0.2,0.1-0.3,0.2c-0.1,0.1-0.2,0.3-0.2,0.5c0,0.2,0,0.3,0,0.5c0,0.1,0.1,0.2,0.2,0.4c-0.1,0-0.2,0.1-0.3,0.2
				c-0.2,0.1-0.3,0.2-0.4,0.4s-0.1,0.3-0.1,0.5c0,0.3,0,0.5,0.1,0.7s0.2,0.3,0.4,0.4s0.5,0.2,0.8,0.2s0.8,0.1,1.3,0.1
				c0.6,0,1.1,0,1.5-0.1c0.4-0.1,0.7-0.2,0.8-0.5s0.3-0.6,0.3-1c0-0.5-0.1-0.8-0.3-1s-0.6-0.4-1.1-0.4l-1.8-0.2
				c-0.2,0-0.3-0.1-0.4-0.2c0-0.1-0.1-0.2,0-0.3c0-0.1,0.1-0.1,0.1-0.1c0.2,0,0.5,0,0.8,0c0.6,0,1,0,1.4-0.2s0.6-0.3,0.7-0.5
				c0.1-0.2,0.2-0.5,0.2-0.9c0-0.3-0.1-0.5-0.1-0.7l0.6-0.1l0.1-0.6h-1.7C342.2,15.7,341.8,15.6,341.3,15.6L341.3,15.6z M342.2,20.6
				c0.1,0,0.2,0.1,0.2,0.1c0,0.1,0.1,0.1,0.1,0.3c0,0.1,0,0.3-0.1,0.3c-0.1,0.1-0.2,0.1-0.4,0.2c-0.2,0-0.4,0-0.8,0s-0.5,0-0.7,0
				c-0.2,0-0.3-0.1-0.4-0.2s-0.1-0.2-0.1-0.4c0-0.1,0-0.2,0.1-0.3s0.1-0.2,0.2-0.2c0,0,0,0,0.1,0l1.2,0.1
				C341.9,20.5,342.1,20.6,342.2,20.6L342.2,20.6z M342,17.7c-0.1,0.1-0.4,0.1-0.8,0.1s-0.6,0-0.8-0.1s-0.2-0.3-0.2-0.5
				s0.1-0.4,0.2-0.5c0.1-0.1,0.4-0.1,0.8-0.1s0.6,0,0.8,0.1s0.2,0.3,0.2,0.5S342.1,17.6,342,17.7z"/>
			<path d="M349.2,18.3c0.2-0.2,0.4-0.6,0.3-1c0-0.6-0.2-1-0.5-1.3c-0.4-0.3-1-0.4-1.8-0.4c-0.6,0-1.1,0.1-1.5,0.2
				c-0.4,0.2-0.6,0.4-0.8,0.8s-0.3,0.9-0.3,1.5c0,0.6,0.1,1.1,0.2,1.5s0.5,0.7,0.8,0.8c0.4,0.2,0.9,0.3,1.5,0.3c0.2,0,0.5,0,0.8,0
				c0.3,0,0.5-0.1,0.8-0.1c0.2,0,0.5-0.1,0.7-0.2l-0.1-0.9c-0.3,0-0.7,0.1-1,0.1c-0.3,0-0.6,0-0.8,0c-0.3,0-0.6,0-0.7-0.1
				c-0.2-0.1-0.3-0.2-0.4-0.5c0-0.1-0.1-0.2-0.1-0.4h1.8C348.6,18.7,349,18.6,349.2,18.3L349.2,18.3z M346.2,17.8
				c0-0.3,0-0.5,0.1-0.6c0.1-0.2,0.2-0.4,0.3-0.4s0.4-0.1,0.6-0.1c0.3,0,0.5,0,0.6,0.1c0.1,0.1,0.2,0.2,0.2,0.5c0,0.2,0,0.3-0.1,0.4
				s-0.2,0.1-0.4,0.1L346.2,17.8L346.2,17.8z"/>
			<path d="M353.9,15.6c-0.4,0-0.7,0.1-1.1,0.2c-0.4,0.1-0.7,0.4-1,0.6l-0.1-0.8h-1.2v4.9h1.5v-3.4c0.3-0.1,0.5-0.2,0.7-0.3
				c0.2-0.1,0.5-0.1,0.7-0.1c0.2,0,0.3,0,0.4,0.1c0.1,0.1,0.1,0.2,0.1,0.5v3.2h1.5V17C355.3,16.1,354.9,15.6,353.9,15.6L353.9,15.6z
				"/>
			<path d="M360.8,18.3c0.2-0.2,0.4-0.6,0.3-1c0-0.6-0.2-1-0.5-1.3c-0.4-0.3-1-0.4-1.8-0.4c-0.6,0-1.1,0.1-1.5,0.2
				c-0.4,0.2-0.6,0.4-0.8,0.8s-0.3,0.9-0.3,1.5c0,0.6,0.1,1.1,0.2,1.5s0.5,0.7,0.8,0.8c0.4,0.2,0.9,0.3,1.5,0.3c0.2,0,0.5,0,0.8,0
				c0.3,0,0.5-0.1,0.8-0.1c0.2,0,0.5-0.1,0.7-0.2l-0.1-0.9c-0.3,0-0.7,0.1-1,0.1c-0.3,0-0.6,0-0.8,0c-0.3,0-0.6,0-0.7-0.1
				c-0.2-0.1-0.3-0.2-0.4-0.5c0-0.1-0.1-0.2-0.1-0.4h1.8C360.2,18.7,360.6,18.6,360.8,18.3L360.8,18.3z M357.8,17.8
				c0-0.3,0-0.5,0.1-0.6c0.1-0.2,0.2-0.4,0.3-0.4s0.4-0.1,0.6-0.1c0.3,0,0.5,0,0.6,0.1c0.1,0.1,0.2,0.2,0.2,0.5c0,0.2,0,0.3-0.1,0.4
				s-0.2,0.1-0.4,0.1L357.8,17.8L357.8,17.8z"/>
			<path d="M364.4,15.9c-0.3,0.1-0.7,0.4-1,0.6l-0.1-0.8h-1.2v4.9h1.5v-3.3c0.3-0.1,0.6-0.2,0.8-0.2c0.2-0.1,0.5-0.1,0.7-0.1h0.4
				l0.1-1.4h-0.3C365.1,15.6,364.7,15.7,364.4,15.9z"/>
			<path d="M370,15.8c-0.3-0.1-0.6-0.2-1-0.2c-0.2,0-0.5,0-0.8,0s-0.6,0-0.9,0.1s-0.6,0.1-0.8,0.1l0.1,1c0.4,0,0.8,0,1.2-0.1
				s0.7,0,1,0c0.3,0,0.5,0,0.6,0.2s0.2,0.3,0.2,0.5v0.2h-1.8c-0.5,0-0.8,0.1-1.1,0.3s-0.4,0.5-0.4,0.9v0.5c0,0.3,0.1,0.6,0.2,0.8
				c0.1,0.2,0.3,0.4,0.6,0.5c0.2,0.1,0.5,0.2,0.8,0.2s0.6,0,0.8-0.1c0.2-0.1,0.5-0.2,0.6-0.4c0.2-0.1,0.3-0.3,0.4-0.4l0.2,0.8h1.2
				v-3.2c0-0.5-0.1-0.8-0.2-1.1S370.3,15.9,370,15.8L370,15.8z M368.7,19.6c-0.2,0.1-0.4,0.1-0.6,0.1c-0.2,0-0.4,0-0.5-0.1
				c-0.1-0.1-0.1-0.2-0.1-0.4V19c0-0.1,0-0.3,0.1-0.4c0.1-0.1,0.2-0.1,0.4-0.1h1.3v0.8c0,0,0,0-0.1,0.1
				C369.1,19.5,368.9,19.6,368.7,19.6L368.7,19.6z"/>
			<path d="M373.9,14.4h-1.5v1.4l-0.9,0v0.9h0.9v2.7c0,0.4,0.1,0.8,0.4,1s0.6,0.4,1,0.4c0.1,0,0.3,0,0.4,0s0.4,0,0.5-0.1
				c0.2,0,0.3-0.1,0.4-0.1l-0.2-1h-0.6c-0.2,0-0.3,0-0.4-0.1c-0.1-0.1-0.1-0.2-0.1-0.4v-2.4h1.4v-1h-1.4L373.9,14.4L373.9,14.4z"/>
			<path d="M377.2,13.6h-0.6c-0.3,0-0.4,0.1-0.4,0.5v0.5c0,0.3,0.1,0.5,0.4,0.5h0.6c0.3,0,0.4-0.1,0.4-0.5V14
				C377.6,13.7,377.5,13.6,377.2,13.6z"/>
			<rect x="376.1" y="15.8" width="1.5" height="4.9"/>
			<path d="M382.7,15.9c-0.4-0.2-0.9-0.2-1.5-0.2s-1.1,0.1-1.5,0.2c-0.4,0.2-0.6,0.4-0.8,0.8c-0.2,0.4-0.2,0.9-0.2,1.5
				s0.1,1.1,0.2,1.5c0.2,0.4,0.4,0.6,0.8,0.8s0.9,0.2,1.5,0.2s1.1-0.1,1.5-0.2s0.6-0.4,0.8-0.8c0.2-0.4,0.2-0.9,0.2-1.5
				s-0.1-1.1-0.2-1.5C383.3,16.3,383,16.1,382.7,15.9z M382.1,19.2c-0.1,0.2-0.2,0.4-0.3,0.5s-0.4,0.1-0.6,0.1s-0.5,0-0.6-0.1
				s-0.2-0.2-0.3-0.5c-0.1-0.2-0.1-0.5-0.1-0.9s0-0.7,0.1-0.9c0.1-0.2,0.2-0.4,0.3-0.5c0.1-0.1,0.4-0.1,0.6-0.1s0.5,0,0.6,0.1
				c0.1,0.1,0.2,0.2,0.3,0.5s0.1,0.5,0.1,0.9S382.1,18.9,382.1,19.2z"/>
			<path d="M388.2,15.6c-0.4,0-0.7,0.1-1.1,0.2c-0.4,0.1-0.7,0.4-1,0.6l-0.1-0.8h-1.2v4.9h1.5v-3.4c0.3-0.1,0.5-0.2,0.7-0.3
				c0.2-0.1,0.5-0.1,0.7-0.1c0.2,0,0.3,0,0.4,0.1c0.1,0.1,0.1,0.2,0.1,0.5v3.2h1.5V17C389.6,16.1,389.1,15.6,388.2,15.6L388.2,15.6z
				"/>
			<path d="M396.6,15.8c-0.3-0.1-0.6-0.2-1-0.2c-0.2,0-0.5,0-0.8,0s-0.6,0-0.9,0.1s-0.6,0.1-0.8,0.1l0.1,1c0.4,0,0.8,0,1.2-0.1
				s0.7,0,1,0c0.3,0,0.5,0,0.6,0.2s0.2,0.3,0.2,0.5v0.2h-1.8c-0.5,0-0.8,0.1-1.1,0.3s-0.4,0.5-0.4,0.9v0.5c0,0.3,0.1,0.6,0.2,0.8
				c0.1,0.2,0.3,0.4,0.6,0.5c0.2,0.1,0.5,0.2,0.8,0.2s0.6,0,0.8-0.1c0.2-0.1,0.5-0.2,0.6-0.4c0.2-0.1,0.3-0.3,0.4-0.4l0.2,0.8h1.2
				v-3.2c0-0.5-0.1-0.8-0.2-1.1S396.9,15.9,396.6,15.8L396.6,15.8z M395.3,19.6c-0.2,0.1-0.4,0.1-0.6,0.1c-0.2,0-0.4,0-0.5-0.1
				c-0.1-0.1-0.1-0.2-0.1-0.4V19c0-0.1,0-0.3,0.1-0.4c0.1-0.1,0.2-0.1,0.4-0.1h1.3v0.8c0,0,0,0-0.1,0.1
				C395.7,19.5,395.5,19.6,395.3,19.6L395.3,19.6z"/>
			<path d="M400.9,15.9c-0.3,0.1-0.7,0.4-1,0.6l-0.1-0.8h-1.2v4.9h1.5v-3.3c0.3-0.1,0.6-0.2,0.8-0.2c0.2-0.1,0.5-0.1,0.7-0.1h0.4
				l0.1-1.4h-0.3C401.6,15.6,401.2,15.7,400.9,15.9z"/>
			<path d="M406.7,15.9c-0.4-0.2-0.9-0.2-1.5-0.2s-1.1,0.1-1.5,0.2c-0.4,0.2-0.6,0.4-0.8,0.8c-0.2,0.4-0.2,0.9-0.2,1.5
				s0.1,1.1,0.2,1.5c0.2,0.4,0.4,0.6,0.8,0.8s0.9,0.2,1.5,0.2s1.1-0.1,1.5-0.2s0.6-0.4,0.8-0.8c0.2-0.4,0.2-0.9,0.2-1.5
				s-0.1-1.1-0.2-1.5C407.3,16.3,407,16.1,406.7,15.9z M406.1,19.2c-0.1,0.2-0.2,0.4-0.3,0.5s-0.4,0.1-0.6,0.1s-0.5,0-0.6-0.1
				s-0.2-0.2-0.3-0.5c-0.1-0.2-0.1-0.5-0.1-0.9s0-0.7,0.1-0.9c0.1-0.2,0.2-0.4,0.3-0.5c0.1-0.1,0.4-0.1,0.6-0.1s0.5,0,0.6,0.1
				c0.1,0.1,0.2,0.2,0.3,0.5s0.1,0.5,0.1,0.9S406.1,18.9,406.1,19.2z"/>
			<path d="M412,19.2c-0.2,0.1-0.4,0.2-0.6,0.3c-0.2,0.1-0.4,0.1-0.6,0.1s-0.3,0-0.4-0.1c-0.1-0.1-0.1-0.2-0.1-0.4v-3.2h-1.5v3.7
				c0,0.9,0.5,1.4,1.4,1.4c0.4,0,0.7-0.1,1.1-0.2c0.3-0.1,0.6-0.4,1-0.6l0.1,0.7h1.2v-4.9H412L412,19.2L412,19.2z"/>
			<path d="M418,15.6c-0.4,0-0.7,0.1-1.1,0.2c-0.4,0.1-0.7,0.4-1,0.6l-0.1-0.8h-1.2v4.9h1.5v-3.4c0.3-0.1,0.5-0.2,0.7-0.3
				c0.2-0.1,0.5-0.1,0.7-0.1c0.2,0,0.3,0,0.4,0.1c0.1,0.1,0.1,0.2,0.1,0.5v3.2h1.5V17C419.5,16.1,419,15.6,418,15.6L418,15.6z"/>
			<path d="M423.9,15c0,0.2,0,0.4,0,0.6c0,0.1,0,0.3,0,0.4c-0.2-0.1-0.4-0.2-0.6-0.3c-0.3-0.1-0.7-0.1-1-0.1c-0.4,0-0.8,0.1-1,0.2
				s-0.5,0.4-0.6,0.8c-0.1,0.4-0.2,0.9-0.2,1.5c0,0.9,0.1,1.5,0.4,2c0.3,0.5,0.7,0.7,1.4,0.7c0.5,0,0.9-0.1,1.2-0.3
				c0.3-0.2,0.5-0.4,0.7-0.6l0.1,0.8h1.2v-7h-1.5L423.9,15L423.9,15z M423.6,19.4c-0.1,0.1-0.2,0.1-0.4,0.2s-0.3,0.1-0.5,0.1
				c-0.2,0-0.4,0-0.5-0.1s-0.2-0.2-0.3-0.4s-0.1-0.5-0.1-0.9c0-0.4,0-0.7,0.1-1c0.1-0.2,0.1-0.4,0.3-0.4s0.3-0.1,0.5-0.1
				c0.2,0,0.5,0,0.6,0.1c0.1,0,0.3,0.1,0.4,0.1v2.3C423.8,19.3,423.7,19.3,423.6,19.4L423.6,19.4z"/>
			<path d="M430.8,14.4h-1.5v1.4l-0.9,0v0.9h0.9v2.7c0,0.4,0.1,0.8,0.4,1s0.6,0.4,1,0.4c0.1,0,0.3,0,0.4,0s0.4,0,0.5-0.1
				c0.2,0,0.3-0.1,0.4-0.1l-0.2-1h-0.6c-0.2,0-0.3,0-0.4-0.1c-0.1-0.1-0.1-0.2-0.1-0.4v-2.4h1.4v-1h-1.4L430.8,14.4L430.8,14.4z"/>
			<path d="M436.4,15.6c-0.4,0-0.7,0.1-1.1,0.2c-0.3,0.1-0.6,0.4-0.9,0.6c0-0.1,0-0.2,0.1-0.3c0-0.2,0-0.5,0-0.7v-1.7H433v7h1.5
				v-3.4c0.3-0.1,0.5-0.2,0.7-0.3c0.2-0.1,0.5-0.1,0.7-0.1c0.2,0,0.3,0,0.4,0.1c0.1,0.1,0.1,0.2,0.1,0.5v3.2h1.5V17
				C437.8,16.1,437.3,15.6,436.4,15.6L436.4,15.6z"/>
			<path d="M443.3,18.3c0.2-0.2,0.4-0.6,0.3-1c0-0.6-0.2-1-0.5-1.3c-0.4-0.3-1-0.4-1.8-0.4c-0.6,0-1.1,0.1-1.5,0.2
				c-0.4,0.2-0.6,0.4-0.8,0.8s-0.3,0.9-0.3,1.5c0,0.6,0.1,1.1,0.2,1.5s0.5,0.7,0.8,0.8c0.4,0.2,0.9,0.3,1.5,0.3c0.2,0,0.5,0,0.8,0
				c0.3,0,0.5-0.1,0.8-0.1c0.2,0,0.5-0.1,0.7-0.2l-0.1-0.9c-0.3,0-0.7,0.1-1,0.1c-0.3,0-0.6,0-0.8,0c-0.3,0-0.6,0-0.7-0.1
				c-0.2-0.1-0.3-0.2-0.4-0.5c0-0.1-0.1-0.2-0.1-0.4h1.8C442.7,18.7,443.1,18.6,443.3,18.3L443.3,18.3z M440.3,17.8
				c0-0.3,0-0.5,0.1-0.6c0.1-0.2,0.2-0.4,0.3-0.4s0.4-0.1,0.6-0.1c0.3,0,0.5,0,0.6,0.1c0.1,0.1,0.2,0.2,0.2,0.5c0,0.2,0,0.3-0.1,0.4
				s-0.2,0.1-0.4,0.1L440.3,17.8L440.3,17.8z"/>
			<path d="M452.2,19c0,0.1,0,0.3-0.1,0.4c0,0.1,0,0.3-0.1,0.4h-0.1c0-0.1,0-0.3-0.1-0.4s0-0.3-0.1-0.4l-0.5-2.7
				c0-0.1-0.1-0.2-0.2-0.3c-0.1-0.1-0.2-0.1-0.3-0.1h-1c-0.1,0-0.3,0-0.4,0.1s-0.1,0.2-0.2,0.3l-0.5,2.8c0,0.1,0,0.3-0.1,0.4
				c0,0.1,0,0.3-0.1,0.4h-0.1c0-0.1,0-0.3,0-0.4c0-0.1,0-0.3-0.1-0.4l-0.7-3.2h-1.5l1.2,4.5c0,0.1,0.1,0.2,0.2,0.3
				c0.1,0.1,0.2,0.1,0.3,0.1h1.1c0.1,0,0.2,0,0.4-0.1s0.2-0.2,0.2-0.3l0.5-2.8c0-0.1,0-0.3,0.1-0.4s0-0.3,0.1-0.4h0.1
				c0,0.1,0,0.3,0.1,0.4c0,0.1,0,0.3,0,0.4l0.5,2.8c0,0.1,0.1,0.2,0.2,0.3s0.2,0.1,0.4,0.1h1.1c0.1,0,0.2,0,0.3-0.1
				c0.1-0.1,0.1-0.2,0.2-0.3l1.2-4.5h-1.5L452.2,19L452.2,19z"/>
			<path d="M459,15.9c-0.4-0.2-0.9-0.2-1.5-0.2s-1.1,0.1-1.5,0.2c-0.4,0.2-0.6,0.4-0.8,0.8c-0.2,0.4-0.2,0.9-0.2,1.5
				s0.1,1.1,0.2,1.5c0.2,0.4,0.4,0.6,0.8,0.8s0.9,0.2,1.5,0.2s1.1-0.1,1.5-0.2s0.6-0.4,0.8-0.8c0.2-0.4,0.2-0.9,0.2-1.5
				s-0.1-1.1-0.2-1.5C459.6,16.3,459.3,16.1,459,15.9z M458.4,19.2c-0.1,0.2-0.2,0.4-0.3,0.5s-0.4,0.1-0.6,0.1s-0.5,0-0.6-0.1
				s-0.2-0.2-0.3-0.5c-0.1-0.2-0.1-0.5-0.1-0.9s0-0.7,0.1-0.9c0.1-0.2,0.2-0.4,0.3-0.5c0.1-0.1,0.4-0.1,0.6-0.1s0.5,0,0.6,0.1
				c0.1,0.1,0.2,0.2,0.3,0.5s0.1,0.5,0.1,0.9S458.4,18.9,458.4,19.2z"/>
			<path d="M463.3,15.9c-0.3,0.1-0.7,0.4-1,0.6l-0.1-0.8H461v4.9h1.5v-3.3c0.3-0.1,0.6-0.2,0.8-0.2c0.2-0.1,0.5-0.1,0.7-0.1h0.4
				l0.1-1.4h-0.3C464,15.6,463.6,15.7,463.3,15.9z"/>
			<path d="M467.3,19.6c-0.2,0-0.3,0-0.4-0.1s-0.1-0.2-0.1-0.4v-5.4h-1.5v5.8c0,0.4,0.1,0.8,0.4,1s0.6,0.4,1.1,0.4
				c0.1,0,0.2,0,0.4,0c0.1,0,0.3,0,0.5-0.1c0.1,0,0.3-0.1,0.3-0.1l-0.2-1L467.3,19.6L467.3,19.6z"/>
			<path d="M471.7,15c0,0.2,0,0.4,0,0.6c0,0.1,0,0.3,0,0.4c-0.2-0.1-0.4-0.2-0.6-0.3c-0.3-0.1-0.7-0.1-1-0.1c-0.4,0-0.8,0.1-1,0.2
				s-0.5,0.4-0.6,0.8c-0.1,0.4-0.2,0.9-0.2,1.5c0,0.9,0.1,1.5,0.4,2c0.3,0.5,0.7,0.7,1.4,0.7c0.5,0,0.9-0.1,1.2-0.3
				c0.3-0.2,0.5-0.4,0.7-0.6l0.1,0.8h1.2v-7h-1.5L471.7,15L471.7,15z M471.5,19.4c-0.1,0.1-0.2,0.1-0.4,0.2s-0.3,0.1-0.5,0.1
				c-0.2,0-0.4,0-0.5-0.1s-0.2-0.2-0.3-0.4s-0.1-0.5-0.1-0.9c0-0.4,0-0.7,0.1-1c0.1-0.2,0.1-0.4,0.3-0.4s0.3-0.1,0.5-0.1
				c0.2,0,0.5,0,0.6,0.1c0.1,0,0.3,0.1,0.4,0.1v2.3C471.6,19.3,471.5,19.3,471.5,19.4L471.5,19.4z"/>
			<path d="M475.3,19.2h-0.4c-0.2,0-0.3,0-0.4,0.1c-0.1,0.1-0.1,0.2-0.1,0.4v0.5c0,0.2,0,0.3,0.1,0.4c0.1,0.1,0.2,0.1,0.4,0.1h0.4
				c0.2,0,0.3,0,0.4-0.1s0.1-0.2,0.1-0.4v-0.5c0-0.2,0-0.3-0.1-0.4S475.5,19.2,475.3,19.2z"/>
			<polygon points="480.8,13.8 478.7,13.8 478.7,15 480.8,15 480.8,20.7 482.3,20.7 482.3,15 484.4,15 484.4,13.8 482.3,13.8 			"/>
			<path d="M488.6,15.6c-0.4,0-0.7,0.1-1.1,0.2c-0.3,0.1-0.6,0.4-0.9,0.6c0-0.1,0-0.2,0.1-0.3c0-0.2,0-0.5,0-0.7v-1.7h-1.5v7h1.5
				v-3.4c0.3-0.1,0.5-0.2,0.7-0.3c0.2-0.1,0.5-0.1,0.7-0.1c0.2,0,0.3,0,0.4,0.1c0.1,0.1,0.1,0.2,0.1,0.5v3.2h1.5V17
				C490,16.1,489.5,15.6,488.6,15.6L488.6,15.6z"/>
			<path d="M494.8,15.8c-0.3-0.1-0.6-0.2-1-0.2c-0.2,0-0.5,0-0.8,0s-0.6,0-0.9,0.1s-0.6,0.1-0.8,0.1l0.1,1c0.4,0,0.8,0,1.2-0.1
				s0.7,0,1,0c0.3,0,0.5,0,0.6,0.2s0.2,0.3,0.2,0.5v0.2h-1.8c-0.5,0-0.8,0.1-1.1,0.3s-0.4,0.5-0.4,0.9v0.5c0,0.3,0.1,0.6,0.2,0.8
				c0.1,0.2,0.3,0.4,0.6,0.5c0.2,0.1,0.5,0.2,0.8,0.2s0.6,0,0.8-0.1c0.2-0.1,0.5-0.2,0.6-0.4c0.2-0.1,0.3-0.3,0.4-0.4l0.2,0.8h1.2
				v-3.2c0-0.5-0.1-0.8-0.2-1.1S495.1,15.9,494.8,15.8L494.8,15.8z M493.5,19.6c-0.2,0.1-0.4,0.1-0.6,0.1c-0.2,0-0.4,0-0.5-0.1
				c-0.1-0.1-0.1-0.2-0.1-0.4V19c0-0.1,0-0.3,0.1-0.4c0.1-0.1,0.2-0.1,0.4-0.1h1.3v0.8c0,0,0,0-0.1,0.1
				C493.9,19.5,493.7,19.6,493.5,19.6L493.5,19.6z"/>
			<path d="M500.2,15.6c-0.4,0-0.7,0.1-1.1,0.2c-0.4,0.1-0.7,0.4-1,0.6l-0.1-0.8h-1.2v4.9h1.5v-3.4c0.3-0.1,0.5-0.2,0.7-0.3
				c0.2-0.1,0.5-0.1,0.7-0.1c0.2,0,0.3,0,0.4,0.1c0.1,0.1,0.1,0.2,0.1,0.5v3.2h1.5V17C501.6,16.1,501.2,15.6,500.2,15.6L500.2,15.6z
				"/>
			<path d="M506,18.2c-0.1-0.1-0.2-0.2-0.2-0.2v0c0.1,0,0.1-0.1,0.2-0.2s0.2-0.2,0.2-0.3l1.3-1.7h-1.6l-1.2,1.7h-0.5
				c0-0.1,0-0.1,0-0.2c0-0.2,0-0.5,0-0.7v-2.9h-1.5v7h1.5v-1.5c0-0.2,0-0.4,0-0.6c0,0,0-0.1,0-0.1h0.5l1.4,2.3h1.6l-1.5-2.2
				C506.2,18.4,506.1,18.3,506,18.2L506,18.2z"/>
			<path d="M513.2,19c0,0.1-0.1,0.3-0.2,0.5c0,0.1,0,0.1-0.1,0.2h-0.1c0-0.1,0-0.2-0.1-0.4s0-0.2-0.1-0.4l-0.9-3.2h-1.6l1.6,4.6
				c0,0.1,0.1,0.2,0.2,0.3s0.2,0.1,0.3,0.1h0.3v0c-0.1,0.3-0.3,0.5-0.5,0.7c-0.2,0.2-0.5,0.3-1,0.4l0.1,0.8c0.4,0,0.8,0,1.1-0.1
				c0.3-0.1,0.6-0.2,0.8-0.5c0.2-0.2,0.4-0.4,0.5-0.7c0.1-0.2,0.2-0.5,0.3-0.7l1.8-5h-1.6L513.2,19L513.2,19z"/>
			<path d="M520.2,15.9c-0.4-0.2-0.9-0.2-1.5-0.2s-1.1,0.1-1.5,0.2c-0.4,0.2-0.7,0.4-0.8,0.8c-0.2,0.4-0.2,0.9-0.2,1.5
				s0.1,1.1,0.2,1.5c0.2,0.4,0.4,0.6,0.8,0.8s0.9,0.2,1.5,0.2s1.1-0.1,1.5-0.2s0.6-0.4,0.8-0.8s0.2-0.9,0.2-1.5s-0.1-1.1-0.2-1.5
				C520.8,16.3,520.6,16.1,520.2,15.9z M519.6,19.2c-0.1,0.2-0.2,0.4-0.3,0.5s-0.3,0.1-0.6,0.1s-0.5,0-0.6-0.1
				c-0.2-0.1-0.2-0.2-0.3-0.5c-0.1-0.2-0.1-0.5-0.1-0.9s0-0.7,0.1-0.9c0.1-0.2,0.2-0.4,0.3-0.5c0.2-0.1,0.3-0.1,0.6-0.1
				s0.5,0,0.6,0.1c0.2,0.1,0.2,0.2,0.3,0.5s0.1,0.5,0.1,0.9S519.7,18.9,519.6,19.2z"/>
			<path d="M525.5,19.2c-0.2,0.1-0.4,0.2-0.6,0.3c-0.2,0.1-0.4,0.1-0.6,0.1s-0.3,0-0.4-0.1c-0.1-0.1-0.1-0.2-0.1-0.4v-3.2h-1.5v3.7
				c0,0.9,0.5,1.4,1.4,1.4c0.4,0,0.7-0.1,1.1-0.2c0.3-0.1,0.6-0.4,1-0.6l0.1,0.7h1.2v-4.9h-1.5L525.5,19.2L525.5,19.2z"/>
			<path d="M532.7,13.5c-0.2,0-0.3,0-0.5,0c-0.4,0-0.7,0.1-1,0.2c-0.2,0.1-0.4,0.3-0.5,0.5c-0.1,0.2-0.2,0.5-0.2,0.8v0.7l-0.9,0v0.9
				h0.9v4h1.5v-4h1.4v-1h-1.4v-0.5c0-0.2,0-0.4,0.2-0.5c0.1-0.1,0.3-0.1,0.5-0.1h0.9l0.1-1c-0.2,0-0.3,0-0.5-0.1
				S532.9,13.5,532.7,13.5L532.7,13.5z"/>
			<path d="M538.1,15.9c-0.4-0.2-0.9-0.2-1.5-0.2s-1.1,0.1-1.5,0.2c-0.4,0.2-0.7,0.4-0.8,0.8c-0.2,0.4-0.2,0.9-0.2,1.5
				s0.1,1.1,0.2,1.5c0.2,0.4,0.4,0.6,0.8,0.8s0.9,0.2,1.5,0.2s1.1-0.1,1.5-0.2s0.6-0.4,0.8-0.8s0.2-0.9,0.2-1.5s-0.1-1.1-0.2-1.5
				C538.7,16.3,538.5,16.1,538.1,15.9z M537.5,19.2c-0.1,0.2-0.2,0.4-0.3,0.5s-0.3,0.1-0.6,0.1s-0.5,0-0.6-0.1
				c-0.2-0.1-0.2-0.2-0.3-0.5c-0.1-0.2-0.1-0.5-0.1-0.9s0-0.7,0.1-0.9c0.1-0.2,0.2-0.4,0.3-0.5c0.2-0.1,0.3-0.1,0.6-0.1
				s0.5,0,0.6,0.1c0.2,0.1,0.2,0.2,0.3,0.5s0.1,0.5,0.1,0.9S537.6,18.9,537.5,19.2z"/>
			<path d="M542.4,15.9c-0.3,0.1-0.7,0.4-1,0.6l-0.1-0.8h-1.2v4.9h1.5v-3.3c0.3-0.1,0.6-0.2,0.8-0.2c0.2-0.1,0.5-0.1,0.7-0.1h0.4
				l0.1-1.4h-0.3C543.1,15.6,542.8,15.7,542.4,15.9L542.4,15.9z"/>
			<path d="M549.8,15c0,0.2,0,0.4,0,0.6c0,0.1,0,0.3,0,0.4c-0.2-0.1-0.4-0.2-0.6-0.3c-0.3-0.1-0.7-0.1-1-0.1c-0.4,0-0.8,0.1-1,0.2
				s-0.5,0.4-0.6,0.8c-0.1,0.4-0.2,0.9-0.2,1.5c0,0.9,0.1,1.5,0.4,2c0.3,0.5,0.7,0.7,1.3,0.7c0.5,0,0.9-0.1,1.2-0.3
				c0.3-0.2,0.5-0.4,0.7-0.6l0.1,0.8h1.2v-7h-1.5L549.8,15L549.8,15z M549.5,19.4c-0.1,0.1-0.2,0.1-0.4,0.2s-0.3,0.1-0.5,0.1
				c-0.2,0-0.3,0-0.5-0.1s-0.2-0.2-0.3-0.4s-0.1-0.5-0.1-0.9c0-0.4,0-0.7,0.1-1c0.1-0.2,0.2-0.4,0.3-0.4s0.3-0.1,0.5-0.1
				c0.2,0,0.5,0,0.6,0.1c0.1,0,0.3,0.1,0.4,0.1v2.3C549.7,19.3,549.6,19.3,549.5,19.4L549.5,19.4z"/>
			<path d="M556.3,15.9c-0.4-0.2-0.9-0.2-1.5-0.2s-1.1,0.1-1.5,0.2c-0.4,0.2-0.7,0.4-0.8,0.8c-0.2,0.4-0.2,0.9-0.2,1.5
				s0.1,1.1,0.2,1.5c0.2,0.4,0.4,0.6,0.8,0.8s0.9,0.2,1.5,0.2s1.1-0.1,1.5-0.2s0.6-0.4,0.8-0.8s0.2-0.9,0.2-1.5s-0.1-1.1-0.2-1.5
				C557,16.3,556.7,16.1,556.3,15.9z M555.7,19.2c-0.1,0.2-0.2,0.4-0.3,0.5s-0.3,0.1-0.6,0.1s-0.5,0-0.6-0.1
				c-0.2-0.1-0.2-0.2-0.3-0.5c-0.1-0.2-0.1-0.5-0.1-0.9s0-0.7,0.1-0.9c0.1-0.2,0.2-0.4,0.3-0.5c0.2-0.1,0.3-0.1,0.6-0.1
				s0.5,0,0.6,0.1c0.2,0.1,0.2,0.2,0.3,0.5s0.1,0.5,0.1,0.9S555.8,18.9,555.7,19.2z"/>
			<path d="M561.8,15.6c-0.4,0-0.7,0.1-1.1,0.2c-0.3,0.1-0.7,0.4-1,0.6l-0.1-0.8h-1.2v4.9h1.5v-3.4c0.3-0.1,0.5-0.2,0.7-0.3
				c0.2-0.1,0.5-0.1,0.7-0.1c0.2,0,0.3,0,0.4,0.1c0.1,0.1,0.1,0.2,0.1,0.5v3.2h1.5V17C563.2,16.1,562.7,15.6,561.8,15.6L561.8,15.6z
				"/>
			<path d="M568,15.8c-0.3-0.1-0.6-0.2-1-0.2c-0.2,0-0.5,0-0.8,0s-0.6,0-0.9,0.1s-0.6,0.1-0.8,0.1l0.1,1c0.4,0,0.8,0,1.2-0.1
				s0.7,0,1,0c0.3,0,0.5,0,0.6,0.2s0.2,0.3,0.2,0.5v0.2h-1.8c-0.5,0-0.8,0.1-1.1,0.3s-0.4,0.5-0.4,0.9v0.5c0,0.3,0.1,0.6,0.2,0.8
				c0.1,0.2,0.3,0.4,0.6,0.5c0.2,0.1,0.5,0.2,0.8,0.2s0.6,0,0.8-0.1s0.5-0.2,0.6-0.4c0.2-0.1,0.3-0.3,0.4-0.4l0.2,0.8h1.2v-3.2
				c0-0.5-0.1-0.8-0.2-1.1S568.3,15.9,568,15.8L568,15.8z M566.8,19.6c-0.2,0.1-0.4,0.1-0.6,0.1c-0.2,0-0.4,0-0.5-0.1
				c-0.1-0.1-0.1-0.2-0.1-0.4V19c0-0.1,0-0.3,0.1-0.4c0.1-0.1,0.2-0.1,0.4-0.1h1.3v0.8c0,0,0,0-0.1,0.1
				C567.1,19.5,566.9,19.6,566.8,19.6L566.8,19.6z"/>
			<path d="M571.9,14.4h-1.5v1.4l-0.9,0v0.9h0.9v2.7c0,0.4,0.1,0.8,0.4,1s0.6,0.4,1,0.4c0.1,0,0.3,0,0.4,0s0.3,0,0.5-0.1
				c0.2,0,0.3-0.1,0.4-0.1l-0.2-1h-0.6c-0.2,0-0.3,0-0.4-0.1c-0.1-0.1-0.1-0.2-0.1-0.4v-2.4h1.4v-1h-1.4L571.9,14.4L571.9,14.4z"/>
			<rect x="574.2" y="15.8" width="1.5" height="4.9"/>
			<path d="M575.2,13.6h-0.6c-0.3,0-0.4,0.1-0.4,0.5v0.5c0,0.3,0.2,0.5,0.4,0.5h0.6c0.3,0,0.4-0.1,0.4-0.5V14
				C575.7,13.7,575.5,13.6,575.2,13.6z"/>
			<path d="M580.3,15.6c-0.4,0-0.7,0.1-1.1,0.2c-0.3,0.1-0.7,0.4-1,0.6l-0.1-0.8h-1.2v4.9h1.5v-3.4c0.3-0.1,0.5-0.2,0.7-0.3
				c0.2-0.1,0.5-0.1,0.7-0.1c0.2,0,0.3,0,0.4,0.1c0.1,0.1,0.1,0.2,0.1,0.5v3.2h1.5V17C581.7,16.1,581.2,15.6,580.3,15.6L580.3,15.6z
				"/>
			<path d="M585.1,15.6c-0.6,0-1,0-1.4,0.2s-0.6,0.3-0.7,0.5c-0.2,0.2-0.2,0.5-0.2,0.9s0.1,0.7,0.2,0.9c0.1,0.2,0.3,0.3,0.5,0.4
				c-0.1,0.1-0.2,0.1-0.3,0.2c-0.1,0.1-0.2,0.3-0.2,0.5c0,0.2,0,0.3,0,0.5c0,0.1,0.1,0.2,0.2,0.4c-0.1,0-0.2,0.1-0.3,0.2
				c-0.2,0.1-0.3,0.2-0.4,0.4s-0.1,0.3-0.1,0.5c0,0.3,0,0.5,0.1,0.7s0.2,0.3,0.4,0.4c0.2,0.1,0.5,0.2,0.8,0.2s0.8,0.1,1.3,0.1
				c0.6,0,1.1,0,1.5-0.1c0.4-0.1,0.7-0.2,0.8-0.5s0.3-0.6,0.3-1c0-0.5-0.1-0.8-0.3-1s-0.6-0.4-1.1-0.4l-1.8-0.2
				c-0.2,0-0.3-0.1-0.3-0.2s-0.1-0.2,0-0.3c0-0.1,0.1-0.1,0.1-0.1c0.2,0,0.5,0,0.8,0c0.6,0,1,0,1.4-0.2s0.6-0.3,0.7-0.5
				c0.2-0.2,0.2-0.5,0.2-0.9c0-0.3-0.1-0.5-0.2-0.7l0.6-0.1l0.1-0.6h-1.7C586,15.7,585.6,15.6,585.1,15.6L585.1,15.6z M586,20.6
				c0.1,0,0.2,0.1,0.2,0.1c0,0.1,0.1,0.1,0.1,0.3c0,0.1,0,0.3-0.1,0.3s-0.2,0.1-0.4,0.2c-0.2,0-0.4,0-0.8,0s-0.5,0-0.7,0
				c-0.2,0-0.3-0.1-0.4-0.2s-0.1-0.2-0.1-0.4c0-0.1,0-0.2,0.1-0.3s0.1-0.2,0.2-0.2c0,0,0,0,0.1,0l1.2,0.1
				C585.7,20.5,585.9,20.6,586,20.6L586,20.6z M585.8,17.7c-0.1,0.1-0.4,0.1-0.8,0.1s-0.6,0-0.8-0.1s-0.2-0.3-0.2-0.5
				s0.1-0.4,0.2-0.5c0.1-0.1,0.4-0.1,0.8-0.1s0.6,0,0.8,0.1s0.2,0.3,0.2,0.5S585.9,17.6,585.8,17.7z"/>
			<path d="M589.4,19.2h-0.4c-0.2,0-0.3,0-0.4,0.1c-0.1,0.1-0.1,0.2-0.1,0.4v0.5c0,0.2,0,0.3,0.1,0.4c0.1,0.1,0.2,0.1,0.4,0.1h0.4
				c0.2,0,0.3,0,0.4-0.1s0.1-0.2,0.1-0.4v-0.5c0-0.2,0-0.3-0.1-0.4S589.6,19.2,589.4,19.2z"/>
		</g>
		<rect y="-3.5" class="st0" width="702.7" height="38.4"/>
	</g>
</g>
</svg>
