<?xml version="1.0" encoding="utf-8"?>
<!-- Generator: Adobe Illustrator 25.4.1, SVG Export Plug-In . SVG Version: 6.00 Build 0)  -->
<svg version="1.1" id="Capa_2_00000011747710287529178750000016581578019797663390_"
	 xmlns="http://www.w3.org/2000/svg" xmlns:xlink="http://www.w3.org/1999/xlink" x="0px" y="0px" width="702.7px" height="58.36px"
	 viewBox="0 0 702.7 58.36" style="enable-background:new 0 0 702.7 58.36;" xml:space="preserve">
<g id="Capa_1-2">
	<g>
		<path d="M16.19,0.5H0v57.35h15.81c4.92,0,8.43-1.59,10.44-4.71c1.93-3,2.91-7.26,2.91-12.67V14.48c0-4.48-1.1-7.97-3.27-10.35
			C23.7,1.72,20.43,0.5,16.19,0.5z M13.01,12.06h0.31c1.68,0,2.19,0.35,2.33,0.51c0.12,0.13,0.5,0.71,0.5,2.96v28.63
			c0,1.47-0.6,2.04-2.14,2.04h-1C13.01,46.2,13.01,12.06,13.01,12.06z"/>
		<path d="M45.49,0c-4.72,0-8.38,1.34-10.87,3.98c-2.48,2.62-3.74,6.48-3.74,11.45v26.36c0,5.27,1.26,9.39,3.74,12.23
			c2.52,2.88,6.17,4.34,10.86,4.34s8.35-1.46,10.87-4.34c2.48-2.84,3.74-6.95,3.74-12.23V15.43c0-4.97-1.26-8.83-3.74-11.45
			C53.86,1.34,50.2,0,45.48,0L45.49,0z M45.58,46.29c-0.81,0-1.11-0.35-1.28-0.65c-0.23-0.41-0.51-1.31-0.51-3.25V15.33
			c0-3.27,1.3-3.27,1.85-3.27c0.42,0,1.54,0,1.54,3.18v27.09C47.18,44.96,46.64,46.29,45.58,46.29z"/>
		<polygon points="78.78,18.32 75.36,0.5 62.26,0.5 62.26,57.85 74.95,57.85 74.95,38.5 78.82,57.85 91.35,57.85 91.35,0.5 
			78.78,0.5 		"/>
		<path d="M118.28,0.5h-20.5l-5.54,57.35h12.65l0.69-8.96h4.99l0.79,8.96h12.36l-5.36-56.51C118.36,1.34,118.28,0.5,118.28,0.5z
			 M109.56,38.18h-3.05l1.42-18.93C107.93,19.25,109.56,38.18,109.56,38.18z"/>
		<polygon points="122.75,13.01 129.34,13.01 129.34,57.85 142.29,57.85 142.29,13.01 148.88,13.01 148.88,0.5 122.75,0.5 		"/>
		<rect x="149.13" y="0.5" width="12.57" height="57.35"/>
		<path d="M178.21,0c-4.72,0-8.38,1.34-10.87,3.98c-2.48,2.62-3.74,6.48-3.74,11.45v26.36c0,5.27,1.26,9.39,3.74,12.23
			c2.52,2.88,6.17,4.34,10.86,4.34s8.35-1.46,10.87-4.34c2.48-2.84,3.74-6.95,3.74-12.23V15.43c0-4.97-1.26-8.83-3.74-11.45
			C186.58,1.34,182.92,0,178.2,0L178.21,0z M178.3,46.29c-0.81,0-1.11-0.35-1.28-0.65c-0.23-0.41-0.51-1.31-0.51-3.25V15.33
			c0-3.27,1.3-3.27,1.85-3.27c0.42,0,1.54,0,1.54,3.18v27.09C179.9,44.96,179.36,46.29,178.3,46.29z"/>
		<polygon points="211.31,18.32 207.88,0.5 194.78,0.5 194.78,57.85 207.48,57.85 207.48,38.5 211.35,57.85 223.88,57.85 
			223.88,0.5 211.31,0.5 		"/>
		<path d="M250.43,28.88c-1.09-1.38-2.31-2.71-3.62-3.96l-6.41-6.15c-1.15-1.09-1.92-2.05-2.29-2.84c-0.36-0.78-0.54-1.49-0.54-2.13
			c0-0.56,0.13-0.99,0.4-1.32c0.08-0.1,0.34-0.41,1.23-0.41c0.49,0,0.85,0.12,1.11,0.37c0.25,0.24,0.37,0.6,0.37,1.11v4.74h13.13
			v-0.92c0-5.72-1.14-10.07-3.4-12.93c-2.31-2.93-6.2-4.42-11.56-4.42c-4.42,0-7.86,1.36-10.23,4.03
			c-2.34,2.64-3.53,6.49-3.53,11.43s1.98,9.04,5.87,12.72l4.98,4.73c1.43,1.35,2.56,2.54,3.36,3.55c0.75,0.94,1.29,1.94,1.59,2.96
			c0.31,1.06,0.47,2.41,0.47,4.01c0,1.44-0.23,2.1-0.43,2.39c-0.08,0.12-0.31,0.47-1.33,0.47c-0.8,0-1.07-0.32-1.22-0.6
			c-0.31-0.59-0.47-1.45-0.47-2.58v-7.86h-12.82v6.35c0,5.71,1.21,9.97,3.59,12.66c2.41,2.72,6.33,4.09,11.65,4.09
			s8.72-1.63,10.82-4.85c2.01-3.09,3.04-7.38,3.04-12.76c0-2.68-0.35-5-1.03-6.89C252.48,31.99,251.56,30.31,250.43,28.88z"/>
		<path d="M294.22,28.88c-1.09-1.38-2.31-2.71-3.62-3.96l-6.41-6.15c-1.15-1.09-1.92-2.05-2.29-2.84c-0.36-0.78-0.54-1.49-0.54-2.13
			c0-0.56,0.13-0.99,0.4-1.32c0.08-0.1,0.34-0.41,1.23-0.41c0.49,0,0.85,0.12,1.11,0.37c0.25,0.24,0.37,0.6,0.37,1.11v4.74h13.13
			v-0.92c0-5.72-1.14-10.07-3.4-12.93c-2.31-2.93-6.2-4.42-11.56-4.42c-4.42,0-7.86,1.36-10.23,4.03
			c-2.34,2.64-3.53,6.49-3.53,11.43s1.98,9.04,5.87,12.72l4.98,4.73c1.43,1.35,2.56,2.54,3.36,3.55c0.75,0.94,1.29,1.94,1.59,2.96
			c0.31,1.06,0.47,2.41,0.47,4.01c0,1.44-0.23,2.1-0.43,2.39c-0.08,0.12-0.31,0.47-1.33,0.47c-0.8,0-1.07-0.32-1.22-0.6
			c-0.31-0.59-0.47-1.45-0.47-2.58v-7.86h-12.82v6.35c0,5.71,1.21,9.97,3.59,12.66c2.41,2.72,6.33,4.09,11.65,4.09
			s8.72-1.63,10.82-4.85c2.01-3.09,3.04-7.38,3.04-12.76c0-2.68-0.35-5-1.03-6.89C296.27,31.99,295.35,30.31,294.22,28.88
			L294.22,28.88z"/>
		<path d="M314.96,41.63c0,0.88-0.05,1.75-0.14,2.58c-0.08,0.7-0.26,1.26-0.55,1.67c-0.12,0.18-0.38,0.41-1.11,0.41
			s-0.94-0.24-1.07-0.42c-0.29-0.42-0.48-0.99-0.57-1.68c-0.1-0.8-0.15-1.66-0.15-2.55V0.5h-12.63v41.57c0,5.25,1.18,9.3,3.5,12.06
			c2.36,2.8,6.04,4.22,10.92,4.22s8.56-1.42,10.92-4.22c2.32-2.76,3.5-6.81,3.5-12.06V0.5h-12.63v41.13H314.96z"/>
		<path d="M353.82,26.03c1.09-0.66,1.97-1.56,2.62-2.69c1.01-1.75,1.53-4.04,1.53-6.8v-2.43c0-4.74-1.01-8.22-3.01-10.36
			c-2.01-2.15-5.21-3.24-9.49-3.24h-15.96v57.35h15.96c3.47,0,6.2-0.83,8.13-2.46c1.91-1.61,3.24-3.89,3.96-6.76
			c0.69-2.75,1.04-6,1.04-9.65c0-3.44-0.45-6.4-1.33-8.82C356.59,28.32,355.44,26.93,353.82,26.03z M342.2,31.93h1.13
			c1.25,0,1.65,0.5,1.85,0.87c0.4,0.78,0.61,1.89,0.61,3.31v6.94c0,2.23-1.02,3.18-3.4,3.18c-0.06,0-0.12,0-0.18,0v-14.3H342.2z
			 M345.05,18.27c0,1-0.13,1.86-0.38,2.55c-0.08,0.21-0.22,0.59-1.12,0.59h-1.35V10.93h1.41c0.73,0,1.44,0.14,1.44,1.76V18.27z"/>
		<polygon points="382.35,28.49 378.49,0.5 359.86,0.5 359.86,57.85 371.73,57.85 371.73,27.96 376.78,57.85 388.31,57.85 
			392.97,28.6 392.97,57.85 404.97,57.85 404.97,0.5 386.18,0.5 		"/>
		<rect x="406.63" y="0.5" width="12.57" height="57.35"/>
		<path d="M445.6,28.88c-1.09-1.38-2.31-2.71-3.62-3.96l-6.41-6.15c-1.15-1.09-1.92-2.05-2.29-2.84c-0.36-0.78-0.54-1.49-0.54-2.13
			c0-0.56,0.13-0.99,0.4-1.32c0.08-0.1,0.34-0.41,1.23-0.41c0.49,0,0.85,0.12,1.11,0.37c0.25,0.24,0.37,0.6,0.37,1.11v4.74h13.13
			v-0.92c0-5.72-1.14-10.07-3.4-12.93c-2.31-2.93-6.2-4.42-11.56-4.42c-4.42,0-7.86,1.36-10.23,4.03
			c-2.34,2.64-3.53,6.49-3.53,11.43s1.98,9.04,5.87,12.72l4.98,4.73c1.43,1.35,2.56,2.54,3.36,3.55c0.75,0.94,1.29,1.94,1.59,2.96
			c0.31,1.06,0.47,2.41,0.47,4.01c0,1.44-0.23,2.1-0.43,2.39c-0.08,0.12-0.31,0.47-1.33,0.47c-0.8,0-1.07-0.32-1.22-0.6
			c-0.31-0.59-0.47-1.45-0.47-2.58v-7.86h-12.82v6.35c0,5.71,1.21,9.97,3.59,12.66c2.41,2.72,6.33,4.09,11.65,4.09
			s8.72-1.63,10.82-4.85c2.01-3.09,3.04-7.38,3.04-12.76c0-2.68-0.35-5-1.03-6.89C447.65,31.99,446.73,30.31,445.6,28.88
			L445.6,28.88z"/>
		<path d="M474.86,28.88c-1.09-1.38-2.31-2.71-3.62-3.96l-6.41-6.15c-1.15-1.09-1.92-2.05-2.29-2.84c-0.36-0.78-0.54-1.49-0.54-2.13
			c0-0.56,0.13-0.99,0.4-1.32c0.08-0.1,0.34-0.41,1.23-0.41c0.49,0,0.85,0.12,1.11,0.37c0.25,0.24,0.37,0.6,0.37,1.11v4.74h13.13
			v-0.92c0-5.72-1.14-10.07-3.4-12.93c-2.31-2.93-6.2-4.42-11.56-4.42c-4.42,0-7.86,1.36-10.23,4.03
			c-2.34,2.64-3.53,6.49-3.53,11.43s1.98,9.04,5.87,12.72l4.98,4.73c1.43,1.35,2.56,2.54,3.36,3.55c0.75,0.94,1.29,1.94,1.59,2.96
			c0.31,1.06,0.47,2.41,0.47,4.01c0,1.44-0.23,2.1-0.43,2.39c-0.08,0.12-0.31,0.47-1.33,0.47c-0.8,0-1.07-0.32-1.22-0.6
			c-0.31-0.59-0.47-1.45-0.47-2.58v-7.86h-12.82v6.35c0,5.71,1.21,9.97,3.59,12.66c2.41,2.72,6.33,4.09,11.65,4.09
			s8.72-1.63,10.82-4.85c2.01-3.09,3.04-7.38,3.04-12.76c0-2.68-0.35-5-1.03-6.89C476.91,31.99,475.99,30.31,474.86,28.88
			L474.86,28.88z"/>
		<rect x="479.42" y="0.5" width="12.57" height="57.35"/>
		<path d="M508.49,0c-4.72,0-8.38,1.34-10.87,3.98c-2.48,2.62-3.74,6.48-3.74,11.45v26.36c0,5.27,1.26,9.39,3.74,12.23
			c2.52,2.88,6.17,4.34,10.86,4.34c4.69,0,8.35-1.46,10.87-4.34c2.48-2.84,3.74-6.95,3.74-12.23V15.43c0-4.97-1.26-8.83-3.74-11.45
			C516.86,1.34,513.2,0,508.48,0L508.49,0z M508.58,46.29c-0.81,0-1.11-0.35-1.28-0.65c-0.23-0.41-0.51-1.31-0.51-3.25V15.33
			c0-3.27,1.3-3.27,1.85-3.27c0.42,0,1.54,0,1.54,3.18v27.09C510.18,44.96,509.64,46.29,508.58,46.29z"/>
		<polygon points="541.59,18.32 538.17,0.5 525.07,0.5 525.07,57.85 537.76,57.85 537.76,38.5 541.63,57.85 554.16,57.85 
			554.16,0.5 541.59,0.5 		"/>
		<polygon points="571.05,57.85 584.06,57.85 584.06,32.69 594.53,32.69 594.53,20.15 584.06,20.15 584.06,13.17 595.1,13.17 
			595.1,0.5 571.05,0.5 		"/>
		<path d="M610.66,0c-4.72,0-8.38,1.34-10.87,3.98c-2.48,2.62-3.74,6.48-3.74,11.45v26.36c0,5.27,1.26,9.39,3.74,12.23
			c2.52,2.88,6.17,4.34,10.86,4.34s8.35-1.46,10.87-4.34c2.48-2.84,3.74-6.95,3.74-12.23V15.43c0-4.97-1.26-8.83-3.74-11.45
			C619.03,1.34,615.37,0,610.65,0L610.66,0z M610.75,46.29c-0.81,0-1.11-0.35-1.28-0.65c-0.23-0.41-0.51-1.31-0.51-3.25V15.33
			c0-3.27,1.3-3.27,1.85-3.27c0.42,0,1.54,0,1.54,3.18v27.09C612.35,44.96,611.81,46.29,610.75,46.29L610.75,46.29z"/>
		<path d="M655.11,24.59c0.81-1.91,1.22-4.48,1.22-7.61s-0.26-6-0.76-8.38c-0.53-2.51-1.61-4.5-3.21-5.92
			c-1.62-1.44-3.99-2.17-7.05-2.17h-17.95v57.35h13.07V32.57c1,0.07,1.53,0.26,1.81,0.42c0.26,0.15,0.54,0.82,0.54,2.22v22.65h12.79
			V35.94c0-2.32-0.39-4.26-1.16-5.77c-0.49-0.97-1.21-1.73-2.12-2.27c1.28-0.81,2.22-1.92,2.81-3.3L655.11,24.59z M640.5,12.63h1.66
			c0.72,0,0.94,0.25,1.07,0.5c0.15,0.3,0.41,1.21,0.41,3.84c0,1.53-0.18,4.09-1.38,4.09h-1.76L640.5,12.63L640.5,12.63z"/>
		<polygon points="683.92,0.5 680.08,28.49 676.22,0.5 657.59,0.5 657.59,57.85 669.47,57.85 669.47,27.96 674.51,57.85 
			686.04,57.85 690.7,28.6 690.7,57.85 702.7,57.85 702.7,0.5 		"/>
	</g>
</g>
</svg>
