<svg xmlns="http://www.w3.org/2000/svg" width="205.32" height="20.64" viewBox="0 0 205.32 20.64">
  <g>
    <path d="M0,2.44A2.44,2.44,0,0,1,2.44,0H202.88a2.44,2.44,0,0,1,2.44,2.44V18.2a2.44,2.44,0,0,1-2.44,2.44H2.44A2.44,2.44,0,0,1,0,18.2Z" fill="#e3e300" fill-rule="evenodd"/>
    <g>
      <path d="M84.38,13.65l1.69-7.5H89l1.69,7.5H89.12l-.29-1.35H86.2l-.3,1.35Zm2.87-6.24L86.48,11h2.06l-.76-3.56Z" fill="#fff"/>
      <path d="M96.38,13.53a10,10,0,0,1-2.11.26,4.07,4.07,0,0,1-1.5-.23,1.83,1.83,0,0,1-.88-.74,3.39,3.39,0,0,1-.45-1.19,10.31,10.31,0,0,1-.12-1.73,5.54,5.54,0,0,1,.61-3A2.62,2.62,0,0,1,94.19,6a9.51,9.51,0,0,1,2.2.3l0,1.21a12.53,12.53,0,0,0-1.81-.17,2,2,0,0,0-1,.2,1.18,1.18,0,0,0-.46.73,7.85,7.85,0,0,0-.15,1.85,3.66,3.66,0,0,0,.31,1.8,1.28,1.28,0,0,0,1.21.5,13.49,13.49,0,0,0,1.94-.15Z" fill="#fff"/>
      <path d="M102.37,13.53a10,10,0,0,1-2.11.26,4.15,4.15,0,0,1-1.5-.23,1.88,1.88,0,0,1-.88-.74,3.38,3.38,0,0,1-.44-1.19,10.31,10.31,0,0,1-.12-1.73,5.45,5.45,0,0,1,.61-3A2.61,2.61,0,0,1,100.19,6a9.5,9.5,0,0,1,2.19.3l0,1.21a12.66,12.66,0,0,0-1.82-.17,2,2,0,0,0-1,.2,1.22,1.22,0,0,0-.46.73,8,8,0,0,0-.14,1.85,3.8,3.8,0,0,0,.3,1.8,1.29,1.29,0,0,0,1.21.5,13.39,13.39,0,0,0,1.94-.15Z" fill="#fff"/>
      <path d="M103.61,13.65V6.15h4.86V7.47h-3.34V9.23h2.67v1.3h-2.67v1.8h3.34v1.32Z" fill="#fff"/>
      <path d="M112.48,11.47h-1.23v2.19h-1.52V6.15h2.76c1.78,0,2.67.87,2.67,2.6a2.8,2.8,0,0,1-.68,2A2.65,2.65,0,0,1,112.48,11.47Zm-1.23-1.3h1.22c.76,0,1.14-.48,1.14-1.42a1.51,1.51,0,0,0-.27-1,1.14,1.14,0,0,0-.86-.3h-1.23v2.72Z" fill="#fff"/>
      <path d="M115.55,7.5V6.15h5.52V7.5h-2v6.16h-1.53V7.5Z" fill="#fff"/>
    </g>
  </g>
</svg>
