<svg xmlns="http://www.w3.org/2000/svg" width="206.28" height="21.48" viewBox="0 0 206.28 21.48">
  <g>
    <path d="M203.38,21.48H2.9A2.9,2.9,0,0,1,0,18.58V2.9A2.9,2.9,0,0,1,2.9,0H203.38a2.9,2.9,0,0,1,2.9,2.9V18.58A2.9,2.9,0,0,1,203.38,21.48ZM2.9,1A1.94,1.94,0,0,0,1,2.9V18.58A1.94,1.94,0,0,0,2.9,20.52H203.38a1.94,1.94,0,0,0,1.94-1.94V2.9A1.94,1.94,0,0,0,203.38,1Z" fill="#fff"/>
    <g>
      <path d="M85.85,14H83.33V6.53h2.52a5.2,5.2,0,0,1,1.61.21,1.86,1.86,0,0,1,1,.67,2.68,2.68,0,0,1,.48,1.1,8.24,8.24,0,0,1,.14,1.65,9.75,9.75,0,0,1-.13,1.69A3.34,3.34,0,0,1,88.47,13a1.93,1.93,0,0,1-1,.76A4.74,4.74,0,0,1,85.85,14Zm1.61-3c0-.24,0-.56,0-1a8.56,8.56,0,0,0,0-1,1.87,1.87,0,0,0-.21-.68A.86.86,0,0,0,86.73,8a2.66,2.66,0,0,0-.88-.11h-1v4.85h1a1.54,1.54,0,0,0,1.21-.42A2.15,2.15,0,0,0,87.46,11.06Z" fill="#fff"/>
      <path d="M90.39,14V6.53h4.86V7.86H91.91V9.61h2.68v1.31H91.91v1.79h3.34V14Z" fill="#fff"/>
      <path d="M101.27,13.92a10,10,0,0,1-2.11.25,4.07,4.07,0,0,1-1.5-.23,1.84,1.84,0,0,1-.89-.74A3.38,3.38,0,0,1,96.33,12a10.26,10.26,0,0,1-.12-1.72,5.45,5.45,0,0,1,.61-3,2.61,2.61,0,0,1,2.26-.86,9.58,9.58,0,0,1,2.2.3l0,1.21a12.44,12.44,0,0,0-1.81-.16,2,2,0,0,0-1,.19,1.18,1.18,0,0,0-.46.73,7.85,7.85,0,0,0-.15,1.85,3.77,3.77,0,0,0,.3,1.8,1.31,1.31,0,0,0,1.22.51,13.44,13.44,0,0,0,1.93-.16Z" fill="#fff"/>
      <path d="M106.78,14H102.5V6.53H104v6.16h2.75V14Z" fill="#fff"/>
      <path d="M107.68,14V6.53h1.52V14Z" fill="#fff"/>
      <path d="M110.8,14V6.53h2.58l1.81,6.18h.11V6.53h1.52V14h-2.5l-1.88-6.18h-.11V14Z" fill="#fff"/>
      <path d="M118.46,14V6.53h4.85V7.86H120V9.61h2.67v1.31H120v1.79h3.33V14Z" fill="#fff"/>
    </g>
  </g>
</svg>
