<?xml version="1.0" encoding="utf-8"?>
<!-- Generator: Adobe Illustrator 27.1.1, SVG Export Plug-In . SVG Version: 6.00 Build 0)  -->
<svg version="1.1" id="Capa_1" xmlns="http://www.w3.org/2000/svg" xmlns:xlink="http://www.w3.org/1999/xlink" x="0px" y="0px"
	 viewBox="0 0 210.8 138.7" style="enable-background:new 0 0 210.8 138.7;" xml:space="preserve">
<g>
	<g>
		<g>
			<path d="M56.7,86.9c-2.8,0.3-5.7,0.3-8.5,0c-0.4-4.6-0.4-7.9-0.9-11.6h-2c-0.9,5.5-0.9,8.5-1.4,11.8c-2.4,0.1-4.7,0.1-7.1,0
				C38.2,73.8,39,60.6,41,47.3c3.3,0.1,6.6,0,9.9-0.4C52.9,59.3,54.2,71.9,56.7,86.9z M48.1,66.1c-0.4-3.5-0.9-6.5-1.4-10.9
				c-0.9,4.9-1.1,7.7-1.5,11.2L48.1,66.1z"/>
			<path d="M74,82.3c-0.5,1.2-3,3.4-4.3,4.2c-3.5,0.2-7.1,0.2-10.4,0.2c-0.9-13.2-1.1-26.4-0.4-39.7c2.4-0.1,6,0,8.5,0
				c2.1,0,3.7,1.2,5.2,2.9c1.2,1.3,1.9,2,1.9,2.6c0.1,4.1-0.2,8.2-0.8,12.3c-0.9,0.8-1.6,1.7-2.1,2.7c1.2,1.1,2.2,2.5,2.9,4
				C74.4,76,74.7,78.8,74,82.3z M65.2,65.6c0.7,0.4,2,0,2.9-0.3c0-3.2-0.4-6.4-0.4-9.6c-1-0.3-2.1-0.1-2.9,0.5
				C64.8,58.3,65,65.1,65.2,65.6z M68.3,79.5c-0.4-2.8-0.4-6.2-0.7-8.3l-2.3,0.4c0.1,2.9,0.2,4.8,0.4,8.7L68.3,79.5z"/>
			<path d="M93.9,47.4c0.5-0.5,5.6-0.5,7.4,0.1c0,10.7,0.1,17.1,0.7,29.5l2.5-0.7c0-9.3-0.6-9.5-0.6-19.5c2.2-0.1,4.8,0.3,6.9,0.2
				c0.4,11.7,0.2,17-0.2,28.1c-2,1.5-5.1,1.6-7,1.7c-4.3,0.2-7,0.1-9.1-1.6C93.9,73.2,93.8,59,93.9,47.4z M122.1,56.2
				c-0.7,9.3-0.3,20.9-0.3,30.7c-2.5-0.4-4.9-0.3-7.4,0.2c0-10.9,0.2-22-1.1-32.9c-0.9-0.5-7.7-0.3-8.9-0.6
				c-0.1-0.7-0.2-4.9-0.5-6.3c5.2-0.5,16.5,0.4,22.3,0c0,0-0.4,6.2-0.4,9C124.7,56.2,123.3,56.2,122.1,56.2z"/>
			<path d="M139.6,83.2c-0.7-11.8-0.8-24.2-0.7-35.8c0.5-0.5,5.2-0.5,7,0.1c0.6,9.5,0,19.6,1.1,29.1l2.1-0.7v-0.1
				c0-9.2-0.6-18.6-0.6-28.6c2.3-0.1,4.8,0.3,6.9,0.2c0.4,11.7,0.2,25.2-0.3,36.4c-0.1,1.3-1.7,2.4-3.5,2.8s-7.1,0.4-9.1-0.4
				C141.5,85.1,141,84.7,139.6,83.2z"/>
			<path d="M173.5,85c-0.1,1.2-0.9,1.7-2.7,1.7c-2.8,0-7.7,0.7-10.1-0.3c-1.9-1.2-1.2-13.3-0.6-14.6c1.3,0,2.5,0.3,3.7,0.7
				c0.2,2,0.2,4.2,0.9,5.9h2.2c0.4-1.5,0.1-3.1,0.2-4.6c-1.9-2-4.8-4.2-7.5-7.1c-1.1-6.6-1.1-13.4,0.1-20.1
				c4.2-0.4,8.4-0.3,12.6,0.3c1.4,3.2,1.2,10.7,1.6,14.9c-0.4,1.2-5.6,1.2-5.9-0.2c0.1-2.2-0.2-4.4-0.2-6.7l-2.8,0.8
				c-0.1,2-0.1,3.9,0.1,5.9c2.3,1.6,6.4,3.7,8.7,6.2C174,73.9,173.7,79.5,173.5,85z"/>
		</g>
	</g>
	<path d="M76.2,65.1c0-6.5,0.1-12.2,2-17.9c3.5-0.4,7.6-0.9,11.2-0.4c2.4,5.7,2.3,13.4,2.1,19.5c-0.1,6.8-0.4,12.9-1.1,19.7
		c-3.3,1.2-7.6,1.2-11.7,0.6C76.6,80.2,76.2,74.6,76.2,65.1z M82.8,76.8c1.3-0.1,1.9,0.2,3-0.4c-0.4-6.7,0.1-14.1-0.7-20.4
		c-0.6,0.2-2.6,0.1-3.5,0.4C81.7,61.2,81.7,69.6,82.8,76.8z"/>
</g>
</svg>
