<?xml version="1.0" encoding="utf-8"?>
<!-- Generator: Adobe Illustrator 27.1.1, SVG Export Plug-In . SVG Version: 6.00 Build 0)  -->
<svg version="1.1" id="Capa_1" xmlns="http://www.w3.org/2000/svg" xmlns:xlink="http://www.w3.org/1999/xlink" x="0px" y="0px"
	 viewBox="0 0 210.8 138.7" style="enable-background:new 0 0 210.8 138.7;" xml:space="preserve">
<g>
	<g>
		<path d="M42.5,64.5c-0.2-5.5,0.2-12.7,1.7-17.6c2.8,0.1,6-0.1,9.6-0.1c2.4,0,3.7,0.7,3.7,2.1c0.3,4.4,0.3,8.8,0,13.2
			c0,0.3-2.5,0.3-5.9,0.6c-0.4-2.7-0.2-4.9-0.7-6.7l-1.2,0.1c-0.7,2.7-0.4,5.8-0.5,8.5c-0.2,4.3,0.2,8.6,1,12.8h1.6
			c0.1-3.2,0-6.3-0.4-9.5c1.9,0.1,3.8,0.1,5.7,0.1c0.7,0,1,0.9,0.9,2.6c-0.1,5-0.6,12.8-1,16.1c-2.8,1.2-8.8,0.6-11.3,0.7
			C43.2,79.8,43,73.4,42.5,64.5z"/>
		<path d="M79.2,86.9c-2.8,0.3-5.7,0.3-8.5,0c-0.4-4.6-0.4-7.9-0.9-11.6h-2c-0.9,5.5-0.9,8.5-1.4,11.8c-2.4,0.1-4.7,0.1-7.1,0
			c1.4-13.3,2.2-26.5,4.2-39.8c3.3,0.1,6.6,0,9.9-0.4C75.5,59.3,76.7,71.9,79.2,86.9z M70.6,66.1c-0.4-3.5-0.9-6.5-1.4-10.9
			c-0.9,4.9-1.1,7.8-1.5,11.2L70.6,66.1z"/>
		<path d="M90.4,86.6c-0.2-2.1-0.1-8.9-0.8-11.4h-1.4c-0.2,3.4,0.1,10.3,0,11.3c-1.3,0.3-5.6,0.5-7-0.1c0.6-13,0.1-26.3-0.2-39.1
			c4.2-0.6,8.5-0.8,12.7-0.6c1.7,2.4,3,8.5,3,12.3c0.1,3.4-0.1,6.7-0.4,10.1l-2,1.8c1,0.6,3.1,1.7,3,3.3s-0.3,9.1-0.9,12.8
			C95.2,86.9,91.8,87.2,90.4,86.6z M90.6,66.1c0.1-3.9,0-7.7-0.6-11.5l-2.4,0.7c0.2,4,0.4,7.6,0.4,11.6L90.6,66.1z"/>
		<path d="M136.1,86.5c-1.6,0.7-17.6,0.5-19.7,0.3c-0.1-11.2-0.2-26.3-0.1-39.8c3.6-0.5,7.9-0.2,11.4-0.1c-0.2,3,0.2,6.1-0.1,9.2
			c-1.7-0.2-3.4-0.2-5.1-0.1c0.1,1.1-0.2,2.9,0.1,4.2c1.6-0.2,3,0,4.7-0.1c0.6,2.3,0.4,4.5,0.4,7.1c-1.2-0.1-2.1,0.1-3.5,0
			c-0.2,3.5,0,7,0.1,10.7c1.6-0.2,10.3,0.1,11.9-0.1C136.4,79.8,136.2,85.5,136.1,86.5z M139.7,86.6c-0.2-2.1,0.4-13.1-0.8-15.1
			h-1.6V75c-1.6,0.5-4.5,0.3-6.8,0.4c0.5-13,0.1-15.3-0.2-28.1c3.6-1.1,8.9-0.5,12.7-0.8c2.3,2.4,3,5.7,3,9.5
			c0.1,3.1-0.1,6.3-0.4,9.4l-2,1.8c1.2,1.2,3.7,1.7,3.6,3.3s-0.3,12.8-0.9,16.4C145,86.9,141.1,87.2,139.7,86.6L139.7,86.6z
			 M140.2,62.5c-0.5-4-0.2-4.1-0.9-7.9l-2.4,0.7c0.2,4,0.1,3.9,0.2,7.9L140.2,62.5z"/>
		<path d="M164.6,85c-0.1,1.2-0.9,1.7-2.7,1.7c-2.8,0-7.7,0.7-10.1-0.3c-1.9-1.2-1.2-13.3-0.6-14.6c1.3,0,2.5,0.3,3.7,0.7
			c0.2,2,0.2,4.2,0.9,5.9h2.2c0.4-1.5,0.1-3.1,0.2-4.6c-1.9-2-4.8-4.2-7.5-7.1c-1.1-6.6-1.1-13.4,0.1-20.1c4.2-0.4,8.4-0.3,12.6,0.3
			c1.3,3.2,1.2,10.7,1.6,14.9c-0.4,1.2-5.6,1.2-5.9-0.2c0.1-2.2-0.2-4.4-0.2-6.7l-2.7,0.8c-0.1,2-0.1,3.9,0.1,5.9
			c2.2,1.6,6.4,3.7,8.7,6.2C165.1,73.9,164.8,79.5,164.6,85z"/>
	</g>
</g>
<g id="Capa_2_00000005987218503962423210000017190468366218606497_">
	<g id="Capa_1-2">
		<path d="M113.1,86c-1.6,0.7-10.8,0.5-12.9,0.3c-0.1-11.2-0.2-26.3-0.1-39.8c3.6-0.5,8.1-0.2,11.7-0.1c-0.2,3,0.2,6.1-0.1,9.2
			c-1.8-0.2-3.5-0.2-5.3-0.1c0.1,1.1,0.1,2.3,0.1,4.2c1.6-0.2,3.2,0,4.9-0.1c0.6,2.3,0.4,4.5,0.4,7.1c-1.2-0.1-2.4,0.1-3.7,0
			c-0.2,3.5,0,7,0.1,10.7c1.6-0.2,3.5,0.1,5.1-0.1C113.3,79.3,113.2,84.9,113.1,86z"/>
	</g>
</g>
</svg>
