<svg xmlns="http://www.w3.org/2000/svg" width="210.79" height="138.71" viewBox="0 0 210.79 138.71">
  <g>
    <rect width="210.79" height="138.71" fill="none"/>
    <g>
      <path d="M35.18,64.48c-.24-5.49.19-12.69,1.65-17.63,2.81.06,6-.13,9.58-.13,2.44,0,3.66.68,3.66,2.08a105.38,105.38,0,0,1,0,13.18c0,.3-2.5.3-5.86.6-.42-2.74-.18-4.88-.73-6.71l-1.22.07c-.67,2.68-.43,5.85-.55,8.54a53.82,53.82,0,0,0,1,12.75h1.58a64.56,64.56,0,0,0-.42-9.46,50.31,50.31,0,0,0,5.67.06c.67,0,1,.86.92,2.62-.13,5-.61,12.75-1,16.11-2.75,1.16-8.79.55-11.29.73C35.85,79.79,35.67,73.38,35.18,64.48Z"/>
      <path d="M52.93,64.9c0-6.52.07-12.2,2-17.87,3.47-.37,7.62-.92,11.16-.37,2.44,5.68,2.26,13.42,2.14,19.52-.12,6.78-.37,12.88-1.1,19.71-3.3,1.22-7.63,1.22-11.71.55C53.36,80,52.93,74.48,52.93,64.9Zm6.59,11.72c1.28-.13,1.89.18,3-.43-.36-6.65.06-14.09-.73-20.44-.55.25-2.62.06-3.48.37C58.42,61,58.49,69.48,59.52,76.62Z"/>
      <path d="M83.19,87c-1.59-5.8-4.51-14.7-5.86-19.83-.12,3.6-.18,15.25-.18,19.83-2.56.12-4.15-.12-5.73-.12.3-11.23-.25-36.12-.37-39.54,1.83,0,3.6-.24,5.49-.36,1.28,2.86,5.86,17.14,6.65,18.85a66.33,66.33,0,0,0,.18-8.6,51,51,0,0,1,6.23,0c-.06,10.49,0,18.11,0,29.77C87.71,86.5,85,87,83.19,87Zm18-30.75c-.67,9.33-.31,20.92-.31,30.69a18.44,18.44,0,0,0-6.89.18c0-10.92-.31-21.84-.61-32.88-.92-.55-9.7-.31-10.92-.61-.12-.73-.18-4.94-.49-6.35,5.25-.48,17.57.37,23.37,0,0,0-.43,6.23-.43,9C103.75,56.24,102.35,56.18,101.19,56.24Z"/>
      <path d="M124.49,86.87a36.43,36.43,0,0,1-8.48,0c-.37-4.58-.43-7.94-.92-11.6h-2c-.92,5.49-.92,8.48-1.4,11.84a69.48,69.48,0,0,1-7.08,0c1.4-13.3,2.2-26.54,4.21-39.84a68.94,68.94,0,0,0,9.88-.36C120.77,59.29,122,71.86,124.49,86.87Zm-8.6-20.81c-.43-3.54-.92-6.52-1.41-10.92-.91,4.88-1.1,7.75-1.52,11.17Z"/>
      <path d="M125.22,64.48c0-5.49.18-12.69,1.64-17.63,2.81.06,5.31-.13,8.85-.13,2.44,0,3.66.68,3.66,2.08a112.2,112.2,0,0,1,0,13.6l-5.12.61c-.43-2.74-.19-5.31-.74-7.14l-1.22.07c-.67,2.68-.42,5.85-.54,8.54-.19,4.76.67,8.48,1.52,12.75h2.87A76.25,76.25,0,0,0,135.71,67c.79.12,2.07.06,6.65.06.67,0,1,1.59.91,3.35-.12,5-.61,12.75-1,16.11-2.75,1.16-11.53.55-14,.73A75.31,75.31,0,0,1,125.22,64.48Zm29.1-8.24c-.67,9.33-.31,20.92-.31,30.69a21.14,21.14,0,0,0-7.38.18c0-10.92.24-20.86-1.1-31.78-.91-.55-2.32-.31-3.54-.61-.12-.74-.18-6-.48-7.45,5.24-.48,11.16.37,17,0,0,0-.43,6.23-.43,9C156.88,56.24,155.48,56.18,154.32,56.24Z"/>
      <path d="M174.93,85c-.06,1.15-.91,1.7-2.68,1.7-2.75,0-7.69.67-10.13-.3-1.89-1.16-1.22-13.3-.61-14.58a13.22,13.22,0,0,1,3.72.67c.25,2,.19,4.15.92,5.86h2.19c.43-1.47.13-3.06.25-4.58-1.89-2-4.82-4.15-7.51-7.14a61.06,61.06,0,0,1,.07-20.07,50.34,50.34,0,0,1,12.62.31c1.35,3.23,1.22,10.67,1.65,14.94-.43,1.16-5.61,1.22-5.92-.18.06-2.2-.18-4.39-.24-6.65l-2.75.85a47.73,47.73,0,0,0,.06,5.86c2.26,1.59,6.41,3.72,8.73,6.16C175.42,73.93,175.12,79.48,174.93,85Z"/>
    </g>
  </g>
</svg>
