<?xml version="1.0" encoding="utf-8"?>
<!-- Generator: Adobe Illustrator 27.1.1, SVG Export Plug-In . SVG Version: 6.00 Build 0)  -->
<svg version="1.1" id="Capa_1" xmlns="http://www.w3.org/2000/svg" xmlns:xlink="http://www.w3.org/1999/xlink" x="0px" y="0px"
	 viewBox="0 0 210.8 138.7" style="enable-background:new 0 0 210.8 138.7;" xml:space="preserve">
<g>
	<path d="M50,87c-1-4.6-1.6-14.5-1.5-19.9c0.1-6.5-0.2-13.5,1.4-19.5c4.9-1.1,10.1-0.4,14.6,0.5c0,4.7,0.2,9.5-0.4,14.1
		c-1.5,0.1-4.1,0.1-5.7,0.1c-0.2-1.3,0.1-3.8-0.2-5.4H56c-0.5,2-0.9,8.8-0.9,10.6s0.4,7.2,0.5,9.6c0.7,0.2,3,0.3,3.4-0.2l-0.2-4.9
		c0-0.4-1.3-0.4-2.3-0.4c-0.3-2.4-0.4-4.8-0.4-7.2c1.9,0.1,4.9,0.4,6.8,0.4c1.1,0,1.7,0.2,1.7,0.8c0.2,6.8,0.4,15.4-0.7,21.4
		C58.9,87.2,54.8,86.4,50,87z"/>
	<path d="M86.4,86.9c-2.8,0.3-5.7,0.3-8.5,0c-0.4-4.6-0.4-7.9-0.9-11.6h-2c-0.9,5.5-0.9,8.5-1.4,11.8c-2.4,0.1-4.7,0.1-7.1,0
		c1.4-13.3,2.2-26.5,4.2-39.8c3.3,0.1,6.6,0,9.9-0.4C82.7,59.3,83.9,71.9,86.4,86.9z M77.8,66.1c-0.5-3.5-0.9-6.5-1.5-10.9
		c-0.9,4.9-1,7.8-1.5,11.2L77.8,66.1z"/>
	<path d="M108.5,47.3c0.2,9.7-0.9,20.9,0.2,29c4.8,0.7,9.4,0.4,14.2,0.3c0.5,3.3,0.5,6.7,0.1,10.1c-6.1-0.2-15.8,0.3-20.6-0.2
		c0.2-12.8-0.3-27-0.3-39.5C104.3,46.9,106.4,47,108.5,47.3z M123.9,74.1c-3.7-0.1-9.1,0.4-12.6-0.2c-0.2-8.7,0.1-17.6-0.9-26.2
		c4.3-0.4,8.6-0.6,12.9-0.5c0.4,1.2,0.6,5.4-0.2,5.7c-1.7,0.2-3.4,0.1-5.1-0.1c-0.4,0.5-0.1,2.6-0.1,3.8c1.5,0.2,2.9,0.2,4.4,0.1
		c-0.4,1.9,0.1,3.4-0.6,5.6c-1.3,0.1-2.7,0-4-0.1c-0.2,1.1-0.2,2.2-0.2,3.4c2.2,0.2,4.4,0.3,6.6,0.2
		C124.2,68.3,123.8,70.6,123.9,74.1z"/>
	<path d="M138.2,86.6c0.1-2.8-0.2-6.9-0.5-11c-0.2-2.4,0.4-4.5-2.8-3.8c-0.2,3.4,0.1,14,0,15c-2.6,0.2-5.2,0.1-7.7-0.1
		c0.6-13,0.1-26.5-0.2-39.3c3.9-0.5,9.4-0.5,13.2-0.8c1.9,2.3,2.5,8,2.6,11.8c0.2,2.8-0.7,5.6-2.4,7.9c1.6,1.3,3.2,2.4,4.1,4.6
		c1,2.6,1,12.4,0.4,16.1C143.5,86.9,139.6,87.2,138.2,86.6z M136,54.6l-2.4,0.7c0.2,5.9,0.4,4.2,0.4,8.2c1.3,0.2,1.7-0.2,2.7-0.7
		C136.8,60,136.6,57.3,136,54.6L136,54.6z M148.5,86.8c0.2-6.2-0.1-13.7-0.2-19.5c-1.3-6.8-2.8-14.2-5.3-20.3
		c2.7-0.2,5.4-0.3,8.1-0.2c0.8,3.8,1,7.9,2.2,11.3c1-2.9,1.5-8.2,2.8-11.2c2.1-0.1,4.2-0.1,6.3,0.1c-1.4,5.9-3.9,15.1-5.4,21.2
		c-0.2,5.9-0.1,13.2-0.2,18.7C154.7,86.7,150.5,87.3,148.5,86.8z"/>
	<path d="M95.5,47.5c0.2,9.6-1,21.1,0.3,29c0.9,0.1,0.9-0.1,4.3,0c0.6,3.3,0.6,6.6,0.1,10c-6.9-0.2-6.1,0.3-11.5-0.2
		c0.2-12.7-0.3-26.7-0.3-39.1C90.8,47.1,93.2,47.2,95.5,47.5z"/>
</g>
</svg>
