<?xml version="1.0" encoding="utf-8"?>
<!-- Generator: Adobe Illustrator 27.1.1, SVG Export Plug-In . SVG Version: 6.00 Build 0)  -->
<svg version="1.1" id="Capa_1" xmlns="http://www.w3.org/2000/svg" xmlns:xlink="http://www.w3.org/1999/xlink" x="0px" y="0px"
	 viewBox="0 0 210.8 138.7" style="enable-background:new 0 0 210.8 138.7;" xml:space="preserve">
<g>
	<g>
		<path d="M19.3,42v33h-8.6V61.2H8.2V75h-8.6V42h8.6v11.7h2.6V42L19.3,42L19.3,42z"/>
		<path d="M37.6,42l4.8,33h-8.8l-0.4-5.9h-3.1L29.6,75h-8.9l4.3-33L37.6,42L37.6,42z M32.9,63.3c-0.4-3.7-0.8-8.3-1.3-13.8
			c-0.8,6.3-1.3,10.8-1.6,13.8H32.9z"/>
		<path d="M52.5,42v26.4h5.2V75H43.8V42L52.5,42L52.5,42z"/>
		<path d="M68.3,42v26.4h5.3V75H59.7V42L68.3,42L68.3,42z"/>
		<path d="M102.5,61.3c0,3.3-0.1,5.7-0.2,7.1c-0.3,2.9-2.2,5.3-4.7,6.4c-1.5,0.6-3.2,0.9-4.8,0.9s-3.2-0.3-4.7-0.8
			c-2.7-1.1-4.6-3.6-4.9-6.5c-0.2-2.4-0.3-4.7-0.2-7.1v-5.7c0-3.3,0.1-5.7,0.2-7.1c0.2-1.3,0.6-2.7,1.4-3.8s2-2.1,3.3-2.6
			c1.5-0.6,3.2-0.9,4.8-0.9s3.2,0.3,4.7,0.8c1.3,0.5,2.5,1.4,3.4,2.6c0.8,1.1,1.3,2.4,1.5,3.8c0.2,2.4,0.3,4.7,0.2,7.1V61.3z
			 M93.9,50.5c0.1-1,0-2-0.2-2.9c-0.2-0.4-0.6-0.7-1-0.6c-0.4,0-0.8,0.2-1,0.5c-0.3,1-0.4,2.1-0.3,3.1v15.4c-0.1,1.1,0,2.4,0.2,3.5
			c0.3,0.6,0.9,0.8,1.5,0.6c0.3-0.1,0.5-0.4,0.6-0.7c0.2-1.2,0.3-2.5,0.2-3.7L93.9,50.5L93.9,50.5z"/>
		<path d="M105.7,42h14.5v6.6h-5.9v6.3h5.3v6.3h-5.3V75h-8.6V42H105.7z"/>
		<path d="M129.6,42h14.5v6.6h-5.9v6.3h5.3v6.3h-5.3V75h-8.6L129.6,42z"/>
		<path d="M160.2,42l4.9,33h-8.8l-0.4-5.9h-3.1l-0.5,5.9h-8.9l4.3-33L160.2,42L160.2,42z M155.6,63.3c-0.4-3.7-0.9-8.3-1.3-13.8
			c-0.8,6.3-1.4,10.9-1.6,13.8H155.6z"/>
		<path d="M192.8,42v33h-7.5V52.8l-3,22.3H177l-3.2-21.7V75h-7.5V42h11c0.3,2,0.7,4.3,1,7l1.1,8.3l2-15.4L192.8,42z"/>
		<path d="M196.3,42h14.2v6.6h-5.7v6.3h5.4v6.3h-5.4v7.2h6.3V75h-14.8V42z"/>
	</g>
	<polygon points="7.9,84.2 10.3,89.2 15.9,90 12,93.9 12.9,99.5 7.9,96.9 2.9,99.5 3.9,93.9 -0.1,90 5.4,89.2 	"/>
	<polygon points="29.6,84.2 32,89.2 37.5,90 33.5,93.9 34.5,99.5 29.6,96.9 24.5,99.5 25.5,93.9 21.5,90 27.1,89.2 	"/>
	<polygon points="51.2,84.2 53.6,89.2 59.2,90 55.1,93.9 56.2,99.5 51.2,96.9 46.2,99.5 47.2,93.9 43.2,90 48.7,89.2 	"/>
	<polygon points="72.9,84.2 75.3,89.2 80.8,90 76.8,93.9 77.8,99.5 72.9,96.9 67.8,99.5 68.8,93.9 64.8,90 70.3,89.2 	"/>
	<polygon points="94.2,83.9 96.7,89 102.2,89.8 98.2,93.7 99.2,99.2 94.2,96.6 89.2,99.2 90.1,93.7 86.2,89.8 91.7,89 	"/>
	<polygon points="116.1,84.2 118.6,89.2 124.1,90 120.1,93.9 121.1,99.5 116.1,96.9 111.1,99.5 112.1,93.9 108.1,90 113.6,89.2 	"/>
	<polygon points="137.7,84.2 140.2,89.2 145.7,90 141.7,93.9 142.7,99.5 137.7,96.9 132.8,99.5 133.7,93.9 129.7,90 135.3,89.2 	"/>
	<polygon points="159.3,84.2 161.9,89.2 167.4,90 163.4,93.9 164.4,99.5 159.3,96.9 154.4,99.5 155.3,93.9 151.4,90 156.9,89.2 	"/>
	<polygon points="181,84.2 183.5,89.2 189,90 185,93.9 186,99.5 181,96.9 176,99.5 177,93.9 172.9,90 178.6,89.2 	"/>
	<polygon points="202.6,84.2 205.1,89.2 210.7,90 206.7,93.9 207.7,99.5 202.6,96.9 197.7,99.5 198.6,93.9 194.6,90 200.2,89.2 	"/>
</g>
</svg>
