<svg xmlns="http://www.w3.org/2000/svg" width="210.79" height="138.71" viewBox="0 0 210.79 138.71">
  <g>
    <rect width="210.79" height="138.71" fill="none"/>
    <g>
      <path d="M78.43,87.11c-.67-6.22-.18-13.73-.73-20.13H75.5c.13,9.15-.18,13.54-.06,19.7-2.62.12-4.21-.12-6.4,0,.06-6-.55-13.18-.67-20.5-.12-6.16,0-14.76-.37-18.54a23.46,23.46,0,0,1,6.83-.31c.19,2.75.06,6.9.8,10,1.28-.31,2-.43,2.07-.85a41.9,41.9,0,0,0-.06-9.16c1.4-.12,6.53-.79,8.11-.3-.55,6-.79,14.58-1,20.56-.13,5.79.12,14.09-.13,19.4C83.25,87.35,80.38,86.87,78.43,87.11Z"/>
      <path d="M88.25,64.9c0-6.52.06-12.2,2-17.87,3.48-.37,7.63-.92,11.17-.37,2.44,5.68,2.26,13.42,2.13,19.52-.12,6.78-.36,12.88-1.09,19.71-3.3,1.22-7.63,1.22-11.72.55C88.68,80,88.25,74.48,88.25,64.9Zm6.59,11.72c1.28-.13,1.89.18,3-.43-.37-6.65.06-14.09-.73-20.44-.55.25-2.63.06-3.48.37C93.74,61,93.8,69.48,94.84,76.62Z"/>
      <path d="M121.56,86.87c-.31-3.18-.61-12-1.1-15.13-.79,5.85-1.16,12.14-1.59,15.19l-4-.06s-1.22-10-1.77-13.37c-.37,4.46-.37,11-.86,13.24a26.35,26.35,0,0,1-5.73-.24c.43-13.12.12-26.11-.12-39.1,2-.49,4.51-.19,7.2-.49.67,3.54,2.31,13.17,3.23,20.37,1.34-5.49,2.56-14.7,3.66-20.19l6,.06.3-.06c-.36,12.69.37,27,.67,39.59A42.85,42.85,0,0,0,121.56,86.87Z"/>
      <path d="M143.46,86.5c-1.59.67-10.8.49-12.87.3-.07-11.22-.25-26.35-.07-39.77,3.6-.55,8.12-.18,11.66-.12-.19,3,.18,6.1-.13,9.15a25.47,25.47,0,0,0-5.3-.06c.06,1.09.12,2.32.12,4.21,1.65-.19,3.23,0,4.94-.13.61,2.32.43,4.46.43,7.14-1.22-.06-2.38.12-3.72,0-.19,3.54,0,7,.06,10.74,1.58-.18,3.47.06,5.06-.12C143.7,79.85,143.58,85.46,143.46,86.5Z"/>
    </g>
  </g>
</svg>
