<?xml version="1.0" encoding="utf-8"?>
<!-- Generator: Adobe Illustrator 27.1.1, SVG Export Plug-In . SVG Version: 6.00 Build 0)  -->
<svg version="1.1" id="Capa_1" xmlns="http://www.w3.org/2000/svg" xmlns:xlink="http://www.w3.org/1999/xlink" x="0px" y="0px"
	 viewBox="0 0 210.8 138.7" style="enable-background:new 0 0 210.8 138.7;" xml:space="preserve">
<g>
	<g>
		<path d="M75.4,86.8c-0.3-3.2-0.6-12.3-1.1-15.4c-0.8,6-1.2,12.4-1.6,15.5l-4.1-0.1c0,0-1.2-10.1-1.8-13.6
			c-0.4,4.5-0.4,11.2-0.9,13.5c-1.9,0.1-3.9,0-5.8-0.3C60.5,73,60.2,59.8,60,46.5c2-0.5,4.6-0.2,7.3-0.5c0.7,3.6,2.4,13.4,3.3,20.8
			c1.4-5.6,2.6-14.9,3.8-20.6l6.1,0.1l0.3-0.1c-0.4,12.9,0.4,27.5,0.7,40.4C79.4,86.5,77.4,86.6,75.4,86.8z"/>
		<path d="M97.8,86.4c-1.6,0.7-11,0.5-13.1,0.3c-0.1-11.4-0.3-26.9-0.1-40.5c3.7-0.6,8.3-0.1,11.9-0.1c-0.2,3,0.2,6.2-0.1,9.3
			c-1.7-0.4-3.9-0.1-5.4-0.1c0.1,1.1,0.1,2.4,0.1,4.3c1.7-0.2,3.3,0,5-0.1c0.6,2.4,0.4,4.5,0.4,7.3c-1.2-0.1-2.4,0.1-3.8,0
			c-0.2,3.6,0,7.1,0.1,10.9c1.6-0.2,3.5,0.1,5.2-0.1C98,79.6,97.9,85.3,97.8,86.4z"/>
		<path d="M100.1,46.5c3.6-0.9,8.1-0.2,10.7-0.3c1.2,0.5,5.7,3.3,6,5.3c0.3,10.9,0,17,0.5,25.9c-0.1,1.2-0.7,2.3-1.6,3.1
			c-1.9,2.2-2.5,3.6-5,5.6c-2.1,1.6-8,0.8-9.7,0.1C101.6,72.9,100.9,60,100.1,46.5z M110.1,76.8c1.2-5.7,0.7-13.8-0.3-19.3
			c-1-0.1-2,0-2.9,0.4c0.4,4.9,0.8,12.6,1,18.5L110.1,76.8z"/>
		<path d="M128.5,86.7c-1.2,0.1-5.5,0.1-7.6-0.1c-0.1-6.1,0.1-13.8-0.2-20.8c-0.4-6.6-0.3-13.1-0.2-19.6c1.1-0.4,6.5-0.2,8.1-0.1
			c0.2,6.7-0.2,13.6,0,20.4C128.9,73.8,128.5,79.7,128.5,86.7z"/>
		<path d="M150.8,86.8c-2.9,0.3-5.8,0.3-8.6,0c-0.4-4.7-0.4-8.1-1-11.8h-2c-1,5.6-1,8.6-1.4,12.1c-2.4,0.1-4.8,0.1-7.2,0
			c1.4-13.6,2.2-27,4.3-40.6c3.3,0.1,6.7,0,10-0.4C147,58.6,148.3,71.5,150.8,86.8z M142.1,65.5c-0.4-3.6-1-6.7-1.4-11.1
			c-1,5-1.1,7.9-1.6,11.4L142.1,65.5z"/>
	</g>
</g>
</svg>
