<?xml version="1.0" encoding="utf-8"?>
<!-- Generator: Adobe Illustrator 19.0.0, SVG Export Plug-In . SVG Version: 6.00 Build 0)  -->
<svg version="1.1" id="Capa_1" xmlns="http://www.w3.org/2000/svg" xmlns:xlink="http://www.w3.org/1999/xlink" x="0px" y="0px"
	 width="210.79px" height="138.71px" viewBox="-534 443.29 210.79 138.71" enable-background="new -534 443.29 210.79 138.71"
	 xml:space="preserve">
<g>
	<rect x="-534" y="443.29" fill="none" width="210.79" height="138.71"/>
	<g>
		<path d="M-439.16,519.91c1.28-0.13,1.89,0.18,3-0.43c-0.37-6.65,0.06-14.09-0.73-20.44c-0.55,0.25-2.63,0.06-3.48,0.37
			C-440.26,504.29-440.2,512.77-439.16,519.91z"/>
	</g>
</g>
<g>
	<path d="M-430.525,489.651c1.979,0,3.843,0,5.719,0c0.158,0.928,0.296,1.84,0.473,2.743c0.269,1.383,0.571,2.759,0.847,4.14
		c0.137,0.684,0.243,1.375,0.37,2.061c0.218,1.176,0.423,2.355,0.671,3.525c0.145,0.685,0.366,1.354,0.546,2.032
		c0.339,1.279,0.674,2.559,1.007,3.839c0.108,0.413,0.205,0.829,0.369,1.495c0.092-0.377,0.152-0.515,0.156-0.654
		c0.109-4.821,0.241-9.642,0.299-14.463c0.016-1.355-0.193-2.713-0.291-4.07c-0.02-0.28-0.003-0.562-0.003-1.055
		c2.157,0.125,4.246,0.247,6.547,0.381c-0.729,6.688-0.369,13.337-0.398,19.982c-0.03,6.624,0.085,13.249,0.137,20.044
		c-0.315-0.092-0.717-0.222-1.126-0.325c-0.188-0.047-0.389-0.056-0.585-0.057c-0.993-0.005-1.997-0.092-2.977,0.022
		c-1.005,0.117-1.311-0.492-1.585-1.205c-0.34-0.885-0.642-1.785-0.965-2.677c-0.495-1.367-0.994-2.734-1.493-4.1
		c-0.364-0.996-0.73-1.992-1.202-3.006c0,3.75,0,7.499,0,11.431c-2.031,0-3.917,0-5.825,0c-0.049-0.302-0.087-0.434-0.089-0.566
		c-0.107-8.482-0.214-16.965-0.313-25.447c-0.018-1.532,0.029-3.066-0.009-4.598c-0.071-2.842-0.183-5.682-0.276-8.523
		C-430.534,490.296-430.525,489.992-430.525,489.651z"/>
	<path d="M-449.725,529.583c-2.08,0-4.148,0-6.346,0c0-0.35,0-0.678,0-1.006c0-3.86,0.017-7.72-0.018-11.58
		c-0.005-0.59-0.173-1.211-0.414-1.751c-0.113-0.253-0.579-0.348-0.886-0.515c-0.097,0.055-0.193,0.111-0.29,0.166
		c0.095,4.757,0.191,9.513,0.287,14.328c-1.989,0.325-3.988,0.651-6.088,0.994c0-0.381,0.007-0.657-0.001-0.932
		c-0.103-3.712-0.068-7.435-0.341-11.134c-0.549-7.441-0.112-14.884-0.228-22.325c-0.03-1.923,0.254-3.852,0.398-5.847
		c1.03-0.116,2.142-0.276,3.259-0.361c1.643-0.125,3.301-0.357,4.933-0.246c1.617,0.11,3.292,0.383,4.782,0.981
		c0.885,0.355,1.694,1.299,1.683,2.565c-0.029,3.434,0.038,6.869-0.036,10.302c-0.026,1.191-0.357,2.375-0.547,3.563
		c-0.086,0.538-0.136,1.083-0.258,1.613c-0.25,1.086-1.222,1.367-2.066,1.787c-0.177,0.088-0.334,0.214-0.5,0.322
		c0.167,0.2,0.299,0.456,0.508,0.591c0.706,0.456,1.469,0.827,2.145,1.32c0.241,0.176,0.413,0.609,0.415,0.925
		c0.026,4.569,0.037,9.139,0,13.708C-449.34,527.869-449.58,528.685-449.725,529.583z M-455.296,496.475
		c-0.097,0.019-0.195,0.038-0.292,0.056c-0.338,0.059-0.675,0.158-1.015,0.171c-1.113,0.045-1.383,0.256-1.33,1.323
		c0.068,1.383,0.268,2.76,0.316,4.143c0.057,1.643,0.057,3.292-0.006,4.935c-0.027,0.697,0.485,0.779,0.865,0.912
		c0.379,0.132,0.922,0.226,1.042-0.453c0.178-1.011,0.511-2.017,0.525-3.029C-455.153,501.849-455.252,499.162-455.296,496.475z"/>
	<path d="M-379.356,529.567c-2.225,0-4.313,0-6.493,0c0-0.342,0-0.645,0-0.949c0-3.859,0.014-7.718-0.015-11.577
		c-0.004-0.591-0.12-1.219-0.355-1.754c-0.123-0.279-0.619-0.394-1.163-0.708c0,2.681-0.041,5.084,0.011,7.485
		c0.052,2.38,0.197,4.758,0.301,7.146c-2.109,0.343-4.095,0.666-6.129,0.997c-0.037-0.2-0.079-0.33-0.083-0.462
		c-0.098-3.805-0.042-7.621-0.32-11.413c-0.541-7.355-0.111-14.711-0.226-22.066c-0.032-2.068,0.25-4.141,0.392-6.279
		c1.009-0.118,2.094-0.279,3.185-0.366c1.561-0.125,3.128-0.292,4.689-0.266c1.724,0.028,3.493,0.22,5.046,0.967
		c0.852,0.409,1.697,1.216,1.701,2.391c0.013,3.575,0.061,7.152-0.021,10.725c-0.035,1.541-0.231,3.106-0.599,4.6
		c-0.204,0.83-0.682,1.737-1.83,1.873c-0.31,0.037-0.581,0.402-0.869,0.616c0.258,0.222,0.496,0.474,0.778,0.658
		c0.338,0.221,0.736,0.351,1.068,0.579c0.691,0.474,1.244,0.953,1.223,1.983c-0.074,3.63-0.003,7.263-0.041,10.895
		C-379.122,526.259-379.266,527.872-379.356,529.567z M-385.337,496.563c-0.415,0.051-0.81,0.117-1.208,0.143
		c-0.916,0.062-1.215,0.32-1.168,1.209c0.082,1.572,0.259,3.14,0.32,4.712c0.056,1.441,0.07,2.889-0.01,4.328
		c-0.047,0.84,0.476,0.954,1.038,1.099c0.725,0.186,0.946-0.384,1.056-0.871c0.181-0.798,0.343-1.628,0.32-2.439
		C-385.066,501.984-384.637,499.196-385.337,496.563z"/>
	<path d="M-466.545,529.266c-2.481,0-4.834,0.013-7.186-0.008c-0.705-0.006-0.725-0.616-0.814-1.111
		c-0.225-1.248-0.442-2.498-0.641-3.75c-0.117-0.737-0.205-1.478-0.285-2.22c-0.11-1.024-0.178-2.052-0.306-3.073
		c-0.084-0.671-0.242-1.333-0.381-2.075c-0.197-0.024-0.452-0.012-0.675-0.09c-0.919-0.323-1.052-0.202-1.134,0.737
		c-0.152,1.732-0.408,3.456-0.562,5.188c-0.075,0.845,0.033,1.705-0.034,2.551c-0.109,1.38-0.292,2.754-0.447,4.153
		c-1.877,0-3.769,0-5.733,0c0.602-1.794,0.2-3.591,0.316-5.364c0.109-1.669,0.17-3.343,0.323-5.007
		c0.154-1.669,0.398-3.331,0.6-4.996c0.01-0.084,0.008-0.17,0.012-0.255c0.095-2.244,0.173-4.489,0.293-6.731
		c0.065-1.218,0.006-2.492,0.361-3.63c0.366-1.174,0.183-2.31,0.285-3.459c0.201-2.26,0.398-4.521,0.603-6.78
		c0.085-0.936,0.22-1.869,0.264-2.807c0.028-0.586,0.255-0.892,0.835-0.921c1.988-0.098,3.976-0.247,5.965-0.265
		c1.188-0.01,2.378,0.189,3.551,0.293c0.052,0.061,0.115,0.101,0.12,0.147c0.132,1.321,0.247,2.644,0.388,3.964
		c0.177,1.654,0.364,3.306,0.569,4.957c0.192,1.551,0.412,3.1,0.622,4.649c0.207,1.524,0.428,3.047,0.623,4.573
		c0.21,1.641,0.39,3.287,0.597,4.929c0.208,1.653,0.453,3.301,0.647,4.956c0.212,1.816,0.37,3.639,0.576,5.455
		c0.199,1.746,0.433,3.489,0.643,5.234C-466.522,528.726-466.545,528.949-466.545,529.266z M-476.259,497.863
		c-0.178,0.534-0.432,0.974-0.457,1.426c-0.133,2.411-0.207,4.826-0.304,7.239c-0.011,0.281,0.072,0.653-0.074,0.827
		c-0.601,0.717,0.016,0.985,0.446,1.24c0.649,0.385,1.673,0.045,1.741-0.548c0.058-0.503,0.065-1.026,0-1.527
		c-0.164-1.25-0.404-2.49-0.571-3.739c-0.132-0.991-0.167-1.995-0.308-2.984C-475.875,499.178-476.08,498.575-476.259,497.863z"/>
	<path d="M-366.494,498.849c-0.758,0-1.374,0-2.205,0c-0.077,1.113-0.297,2.242-0.192,3.34c0.103,1.068,0.261,2.105,1.679,2.619
		c1.845,0.67,3.562,1.731,5.256,2.754c0.393,0.237,0.635,0.993,0.658,1.523c0.079,1.813-0.014,3.633,0.043,5.447
		c0.059,1.893,0.342,3.786,0.294,5.673c-0.051,2.013-0.374,4.019-0.578,6.028c-0.098,0.966-0.194,1.933-0.302,3.01
		c-1.016,0.122-2.013,0.26-3.013,0.358c-1.237,0.122-2.477,0.296-3.715,0.297c-1.851,0-3.665-0.318-5.299-1.255
		c-0.282-0.162-0.51-0.544-0.611-0.871c-0.621-1.995-0.64-4.054-0.633-6.124c0.004-1.129-0.292-2.261-0.262-3.386
		c0.035-1.323,0.276-2.641,0.45-4.155c1.378,0,2.848,0,4.432,0c0,0.482-0.023,0.811,0.004,1.137c0.105,1.29,0.172,2.588,0.376,3.863
		c0.056,0.353,0.484,0.803,0.836,0.916c0.564,0.181,1.206,0.117,1.877,0.161c0-2.198,0.064-4.158-0.047-6.108
		c-0.027-0.467-0.548-1.033-0.993-1.326c-1.371-0.905-2.831-1.672-4.223-2.548c-0.689-0.434-1.349-0.939-1.931-1.506
		c-0.277-0.27-0.4-0.746-0.487-1.151c-0.245-1.14-0.507-2.285-0.625-3.442c-0.107-1.039,0.001-2.099-0.05-3.146
		c-0.04-0.825-0.271-1.647-0.255-2.467c0.04-2.072,0.151-4.144,0.279-6.213c0.038-0.618,0.185-1.239,0.366-1.834
		c0.065-0.212,0.351-0.44,0.58-0.504c0.859-0.24,1.78-0.307,2.596-0.639c1.266-0.514,2.557-0.333,3.823-0.28
		c1.422,0.06,2.835,0.362,4.249,0.575c0.479,0.072,0.961,0.306,1.426,0.268c1.241-0.101,1.191,0.921,1.39,1.598
		c0.49,1.667,0.806,3.39,0.665,5.133c-0.119,1.463-0.415,2.912-0.614,4.369c-0.046,0.335-0.024,0.68-0.018,1.02
		c0.011,0.55-0.24,0.85-0.8,0.853c-1.107,0.005-2.215,0.035-3.32-0.009c-0.896-0.036-1.169-0.458-1.118-1.349
		C-366.456,500.636-366.494,499.786-366.494,498.849z"/>
	<path d="M-396.89,520.086c-0.107,3.201-0.211,6.321-0.316,9.453c-2.956,0.731-5.837,0.245-8.689,0.374
		c-1.02,0.046-2.043,0.001-3.065,0.009c-0.524,0.004-0.871-0.171-0.902-0.753c-0.111-2.062-0.239-4.123-0.338-6.186
		c-0.117-2.434-0.025-4.896-0.358-7.299c-0.535-3.856,0.072-7.724-0.311-11.552c-0.448-4.467-0.079-8.927-0.24-13.387
		c-0.012-0.335-0.002-0.671-0.002-1.068c4.942,0,9.802,0,14.576,0c0,2.24,0,4.444,0,6.551c-2.485,0-4.783,0-7.295,0
		c0.111,1.286,0.232,2.666,0.349,4.045c0.019,0.225,0.022,0.452,0.033,0.678c0.046,0.953,0.372,1.265,1.326,1.265
		c1.894,0.001,3.788,0,5.898,0c-0.436,2.853-0.853,5.577-1.227,8.021c-1.138-0.007-2.044-0.068-2.942-0.001
		c-0.871,0.065-1.733,0.262-2.832,0.439c0.127,1.752,0.279,3.557,0.38,5.364c0.053,0.962,0.015,1.929,0.021,2.894
		c0.006,1.001,0.132,1.132,1.1,1.135c0.795,0.003,1.59-0.022,2.384,0.012c0.314,0.013,0.624,0.218,0.935,0.216
		C-397.969,520.296-397.534,520.183-396.89,520.086z"/>
	<path d="M-499.614,489.616c2.953,0,5.948-0.197,8.899,0.073c1.805,0.165,3.392,1.137,4.54,2.831
		c0.92,1.358,1.196,2.707,1.159,4.246c-0.034,1.418,0.026,2.839-0.015,4.257c-0.068,2.387-0.128,4.777-0.295,7.159
		c-0.132,1.891-0.309,3.793-0.682,5.647c-0.198,0.984-0.856,1.875-1.303,2.81c-0.103,0.216-0.184,0.442-0.288,0.657
		c-0.534,1.101-1.477,1.525-2.636,1.549c-0.988,0.02-1.976,0.004-3.077,0.004c0,0.426,0,0.783,0,1.141c0,2.781,0.001,5.562,0,8.344
		c0,1.074-0.079,1.154-1.15,1.276c-0.847,0.096-1.695,0.297-2.539,0.285c-0.897-0.013-1.791-0.224-2.782-0.361
		c0-0.301,0-0.604,0-0.907c0-2.639,0.179-5.293-0.033-7.915c-0.692-8.555-0.125-17.116-0.279-25.672
		C-500.126,493.273-499.791,491.501-499.614,489.616z M-492.069,497.28c-0.776,0-1.392,0-2.009,0c-0.427,0-0.56,0.195-0.391,0.59
		c0.064,0.148,0.173,0.294,0.184,0.446c0.116,1.721,0.23,3.442,0.319,5.164c0.123,2.368,0.223,4.737,0.339,7.105
		c0.004,0.073,0.072,0.143,0.105,0.205c0.66,0,1.299,0,1.983,0c0.113-1.095,0.262-2.14,0.31-3.19
		c0.021-0.451-0.218-0.907-0.255-1.367c-0.119-1.504-0.197-3.01-0.294-4.515C-491.87,500.285-491.966,498.851-492.069,497.28z"/>
	<path d="M-436.258,529.4c-2.454,0.074-4.672,0.142-6.89,0.207c-0.276,0.008-0.553,0.001-0.917,0.001c0-0.408,0-0.74,0-1.071
		c0-8.141,0.03-16.281-0.02-24.422c-0.014-2.232-0.268-4.462-0.42-6.812c-1.007,0-2.094,0-3.228,0c0-2.684,0-5.255,0-7.971
		c0.324,0,0.651,0,0.977,0c3.29,0,6.581,0.028,9.871-0.016c1.104-0.015,2.205-0.219,3.309-0.319
		c0.273-0.025,0.552,0.022,0.828,0.036c0.138,2.33,0.283,4.584,0.399,6.84c0.039,0.757,0.006,1.518,0.006,2.328
		c-1.47,0.231-2.857,0.45-4.372,0.689C-436.563,508.97-436.412,519.064-436.258,529.4z"/>
</g>
</svg>
