<svg xmlns="http://www.w3.org/2000/svg" width="210.79" height="138.71" viewBox="0 0 210.79 138.71">
  <g>
    <g>
      <g>
        <path d="M86.62,11.4,83.2,41H73.6q-1.32-6.81-2.33-15.5Q70.82,29.2,69.13,41H59.59L56.15,11.4h7.46l.82,10.32.78,10Q65.65,24,67.34,11.4h8q.17,1.3.84,9.75L77,32.4q.66-10.72,2.14-21Z" fill="#fff"/>
        <path d="M101.06,11.4,105.46,41H97.6l-.41-5.31H94.44L94,41H86L90,11.4ZM97,30.41q-.58-5-1.17-12.42-1.18,8.49-1.48,12.42Z" fill="#fff"/>
        <path d="M120.18,11.4v5.92h-4.56V41h-7.69V17.32h-4.55V11.4Z" fill="#fff"/>
        <path d="M121.94,11.4h12.81v5.92h-5.13v5.6h4.81v5.63h-4.81v6.5h5.65V41H121.94Z" fill="#fff"/>
        <path d="M137.47,11.4h5.45a41.52,41.52,0,0,1,7.36.42A5.06,5.06,0,0,1,153.42,14q1.22,1.72,1.22,5.5c0,2.3-.29,3.85-.86,4.64s-1.7,1.27-3.38,1.43a5.75,5.75,0,0,1,3.07,1.51,4.65,4.65,0,0,1,1,1.74,28.79,28.79,0,0,1,.19,4.38V41H147.5V31.14a6.75,6.75,0,0,0-.38-2.94c-.24-.38-.9-.56-2-.56V41h-7.69Zm7.69,5.06V23a3.37,3.37,0,0,0,1.82-.35c.35-.24.52-1,.52-2.31V18.74a2.48,2.48,0,0,0-.5-1.84A2.89,2.89,0,0,0,145.16,16.46Z" fill="#fff"/>
      </g>
      <g>
        <path d="M70.79,54.9h-6.2V50.76a7.1,7.1,0,0,0-.2-2.25.84.84,0,0,0-.87-.45.92.92,0,0,0-1,.54A8.2,8.2,0,0,0,62.34,51V62a7.59,7.59,0,0,0,.21,2.27.88.88,0,0,0,.93.53.87.87,0,0,0,.9-.53,8.84,8.84,0,0,0,.21-2.49v-3h6.2v.93A18.75,18.75,0,0,1,70.27,65,5.4,5.4,0,0,1,68,67.69a8,8,0,0,1-4.41,1.16,9.21,9.21,0,0,1-4.49-1,4.79,4.79,0,0,1-2.34-2.73,18.12,18.12,0,0,1-.57-5.25v-7a32.67,32.67,0,0,1,.17-3.86,5.36,5.36,0,0,1,1.06-2.48,5.84,5.84,0,0,1,2.42-1.88,10,10,0,0,1,8.09.37,5.08,5.08,0,0,1,2.34,2.64,15.93,15.93,0,0,1,.56,4.92Z" fill="#211915"/>
        <path d="M86.21,44.53l-4.52,15.2v8.62H76V59.73L71.6,44.53h5.69q1.33,7,1.5,9.38c.35-2.54.92-5.67,1.73-9.38Z" fill="#211915"/>
        <path d="M101.74,54.9h-6.2V50.76a7.43,7.43,0,0,0-.2-2.25.84.84,0,0,0-.87-.45.91.91,0,0,0-1,.54A8.2,8.2,0,0,0,93.29,51V62a7.59,7.59,0,0,0,.21,2.27.87.87,0,0,0,.92.53.89.89,0,0,0,.91-.53,8.84,8.84,0,0,0,.21-2.49v-3h6.2v.93a18.28,18.28,0,0,1-.53,5.25,5.3,5.3,0,0,1-2.31,2.71,7.94,7.94,0,0,1-4.4,1.16,9.19,9.19,0,0,1-4.49-1,4.79,4.79,0,0,1-2.34-2.73,18.05,18.05,0,0,1-.58-5.25v-7a30.19,30.19,0,0,1,.18-3.86,5.44,5.44,0,0,1,1-2.48,5.94,5.94,0,0,1,2.43-1.88,10,10,0,0,1,8.09.37,5.17,5.17,0,0,1,2.34,2.64,15.93,15.93,0,0,1,.56,4.92Z" fill="#211915"/>
        <path d="M110.15,44.53v19h3.77v4.77H104V44.53Z" fill="#211915"/>
        <path d="M121.62,44.53V68.35h-6.2V44.53Z" fill="#211915"/>
        <path d="M137.94,44.53V68.35h-5.43l-3.23-10.83V68.35H124.1V44.53h5.18l3.48,10.72V44.53Z" fill="#211915"/>
        <path d="M154.64,53.3h-6.2V51.13a11.4,11.4,0,0,0-.17-2.56.93.93,0,0,0-1.62-.07,7.05,7.05,0,0,0-.21,2.27V62.2a6.68,6.68,0,0,0,.21,2.11.8.8,0,0,0,.82.51.91.91,0,0,0,.92-.57,6.84,6.84,0,0,0,.24-2.24V59.18h-1.25V55.56h7.26V68.35h-3.89l-.58-1.71a4.32,4.32,0,0,1-1.59,1.66,4.53,4.53,0,0,1-2.28.55,5.84,5.84,0,0,1-2.92-.76,5.56,5.56,0,0,1-2.07-1.87,6,6,0,0,1-.89-2.35,30,30,0,0,1-.17-3.69V53.11a24.2,24.2,0,0,1,.36-5,5.11,5.11,0,0,1,2.12-2.84A7.44,7.44,0,0,1,147.24,44a8.42,8.42,0,0,1,4.51,1.11,5.3,5.3,0,0,1,2.34,2.66,13.86,13.86,0,0,1,.55,4.47Z" fill="#211915"/>
      </g>
      <g>
        <path d="M68.19,73.57v4.24H64.92v17H59.41v-17H56.15V73.57Z" fill="#211915"/>
        <path d="M69.45,73.57h3.9a29.9,29.9,0,0,1,5.28.3,3.65,3.65,0,0,1,2.25,1.54,7,7,0,0,1,.87,4,6.14,6.14,0,0,1-.61,3.32,3.25,3.25,0,0,1-2.42,1,4.19,4.19,0,0,1,2.2,1.08,3.33,3.33,0,0,1,.7,1.25,20.48,20.48,0,0,1,.13,3.14v5.59H76.64v-7a4.8,4.8,0,0,0-.27-2.1c-.18-.27-.65-.41-1.41-.41v9.56H69.45ZM75,77.2v4.71a2.43,2.43,0,0,0,1.3-.25c.25-.17.38-.73.38-1.66V78.84a1.78,1.78,0,0,0-.36-1.33A2.06,2.06,0,0,0,75,77.2Z" fill="#211915"/>
        <path d="M93.42,73.57l3.15,21.2H90.94L90.64,91h-2l-.33,3.81h-5.7l2.81-21.2ZM90.5,87.2q-.42-3.6-.84-8.9c-.56,4.06-.92,7-1.06,8.9Z" fill="#211915"/>
        <path d="M103,73.57v21.2H97.5V73.57Z" fill="#211915"/>
        <path d="M117.54,73.57v21.2H112.7l-2.86-9.64v9.64h-4.61V73.57h4.61l3.09,9.55V73.57Z" fill="#211915"/>
        <path d="M125.26,73.57v21.2h-5.51V73.57Z" fill="#211915"/>
        <path d="M139.78,73.57v21.2H135l-2.87-9.64v9.64h-4.61V73.57h4.61l3.09,9.55V73.57Z" fill="#211915"/>
        <path d="M154.64,81.38h-5.51V79.45a9.82,9.82,0,0,0-.16-2.28.71.71,0,0,0-.75-.46.69.69,0,0,0-.69.4,6.46,6.46,0,0,0-.18,2V89.3a6.1,6.1,0,0,0,.18,1.87.71.71,0,0,0,.73.46.81.81,0,0,0,.82-.51,6.08,6.08,0,0,0,.22-2V86.61h-1.12V83.39h6.46V94.77h-3.46l-.52-1.52a3.73,3.73,0,0,1-1.42,1.47,4,4,0,0,1-2,.49,5.25,5.25,0,0,1-2.6-.67,5,5,0,0,1-1.84-1.67,5.35,5.35,0,0,1-.79-2.09,25.84,25.84,0,0,1-.16-3.28V81.2a21,21,0,0,1,.33-4.41A4.6,4.6,0,0,1,144,74.27a6.59,6.59,0,0,1,4-1.14,7.49,7.49,0,0,1,4,1,4.66,4.66,0,0,1,2.08,2.37,12.24,12.24,0,0,1,.49,4Z" fill="#211915"/>
      </g>
      <g>
        <path d="M72.92,111.33H65.83v-4.75A8.49,8.49,0,0,0,65.6,104a1,1,0,0,0-1-.51,1,1,0,0,0-1.11.62,9.47,9.47,0,0,0-.23,2.7v12.68a8.78,8.78,0,0,0,.23,2.59,1,1,0,0,0,1.06.61,1,1,0,0,0,1-.61,9.92,9.92,0,0,0,.25-2.85v-3.44h7.09v1.07a21,21,0,0,1-.59,6A6.2,6.2,0,0,1,69.68,126a9.07,9.07,0,0,1-5.05,1.33,10.35,10.35,0,0,1-5.14-1.13,5.48,5.48,0,0,1-2.69-3.13,20.83,20.83,0,0,1-.65-6v-8a34.58,34.58,0,0,1,.2-4.43,6.24,6.24,0,0,1,1.2-2.84,6.71,6.71,0,0,1,2.79-2.15,10.08,10.08,0,0,1,4.09-.78,10,10,0,0,1,5.17,1.21,5.77,5.77,0,0,1,2.68,3,18.08,18.08,0,0,1,.64,5.63Z" fill="#fff"/>
        <path d="M75.47,99.44H87.31v5.46H82.57v5.18H87v5.19H82.57v6h5.21v5.46H75.47Z" fill="#fff"/>
        <path d="M105.67,99.44v27.3H99.45l-3.69-12.41v12.41H89.82V99.44h5.94l4,12.29V99.44Z" fill="#fff"/>
        <path d="M122.82,99.44v5.46H118.6v21.84h-7.09V104.9h-4.2V99.44Z" fill="#fff"/>
        <path d="M124.44,99.44h11.84v5.46h-4.74v5.18H136v5.19h-4.43v6h5.21v5.46H124.44Z" fill="#fff"/>
        <path d="M138.79,99.44h5a38.32,38.32,0,0,1,6.81.39,4.72,4.72,0,0,1,2.9,2,9,9,0,0,1,1.12,5.08c0,2.13-.27,3.55-.79,4.28a4.15,4.15,0,0,1-3.12,1.32,5.3,5.3,0,0,1,2.83,1.4,4.2,4.2,0,0,1,.9,1.61,25,25,0,0,1,.18,4v7.2h-6.59v-9.07a6.28,6.28,0,0,0-.35-2.72c-.23-.35-.84-.52-1.81-.52v12.31h-7.1Zm7.1,4.67v6.07a3.08,3.08,0,0,0,1.67-.33c.33-.22.49-.93.49-2.13v-1.5a2.28,2.28,0,0,0-.47-1.71A2.63,2.63,0,0,0,145.89,104.11Z" fill="#fff"/>
      </g>
    </g>
    <rect width="210.79" height="138.71" fill="none"/>
  </g>
</svg>
