<svg xmlns="http://www.w3.org/2000/svg" width="210.79" height="138.71" viewBox="0 0 210.79 138.71">
  <g>
    <g>
      <g>
        <path d="M85.82,14.35,82.75,40.87h-8.6Q73,34.77,72.06,27q-.42,3.34-1.93,13.91H61.58L58.49,14.35h6.7l.73,9.25.7,8.95q.39-6.94,1.91-18.2h7.16c.09.78.34,3.69.75,8.75l.76,10.09q.58-9.63,1.93-18.84Z" fill="#fff"/>
        <path d="M102.94,29.88c0,2.66-.07,4.55-.19,5.66a6.33,6.33,0,0,1-3.86,5.15,9.74,9.74,0,0,1-3.93.73,10,10,0,0,1-3.82-.69,6.34,6.34,0,0,1-2.73-2.09,6.26,6.26,0,0,1-1.23-3A56.77,56.77,0,0,1,87,29.88V25.34c0-2.66.06-4.55.18-5.65a6.36,6.36,0,0,1,1.18-3A6.44,6.44,0,0,1,91,14.53,9.81,9.81,0,0,1,95,13.8a10,10,0,0,1,3.82.69,6.34,6.34,0,0,1,2.73,2.09,6.26,6.26,0,0,1,1.23,3,55.92,55.92,0,0,1,.2,5.73ZM96,21.17a8.52,8.52,0,0,0-.2-2.37.82.82,0,0,0-.85-.51.92.92,0,0,0-.82.41,5.93,5.93,0,0,0-.29,2.47V33.55a11.88,11.88,0,0,0,.19,2.85.82.82,0,0,0,.87.54.87.87,0,0,0,.91-.62,13.44,13.44,0,0,0,.19-3Z" fill="#fff"/>
        <path d="M105.51,14.35h4.88a37.44,37.44,0,0,1,6.61.38,4.5,4.5,0,0,1,2.81,1.93,8.67,8.67,0,0,1,1.09,4.93c0,2.07-.26,3.45-.77,4.16a4,4,0,0,1-3,1.28,5.15,5.15,0,0,1,2.75,1.36,4.18,4.18,0,0,1,.88,1.56,25.62,25.62,0,0,1,.17,3.93v7h-6.4V32.06a6,6,0,0,0-.34-2.64c-.22-.34-.81-.51-1.76-.51v12h-6.89Zm6.89,4.54v5.9a3,3,0,0,0,1.63-.32c.31-.22.47-.91.47-2.07V20.94a2.24,2.24,0,0,0-.45-1.66A2.58,2.58,0,0,0,112.4,18.89Z" fill="#fff"/>
        <path d="M130.46,14.35V35.56h4.2v5.31H123.57V14.35Z" fill="#fff"/>
        <path d="M136.33,14.35h5.16a32.38,32.38,0,0,1,6.75.46,5.22,5.22,0,0,1,2.68,1.51,4.88,4.88,0,0,1,1.15,2.33,36.26,36.26,0,0,1,.22,5.06V33a21.88,21.88,0,0,1-.33,4.77,3.69,3.69,0,0,1-1.17,1.89,5,5,0,0,1-2.07,1,18.58,18.58,0,0,1-3.7.27h-8.69Zm6.89,4.54V36.33c1,0,1.61-.2,1.84-.6a8.73,8.73,0,0,0,.34-3.25V22.18a14.87,14.87,0,0,0-.11-2.31,1.14,1.14,0,0,0-.53-.74A3.35,3.35,0,0,0,143.22,18.89Z" fill="#fff"/>
      </g>
      <g>
        <path d="M87.52,45.06,84.25,73.21H75.12q-1.26-6.48-2.22-14.76c-.29,2.36-1,7.28-2,14.76H61.77L58.49,45.06H65.6l.78,9.82.75,9.5q.39-7.38,2-19.32h7.6c.1.82.37,3.92.8,9.28l.81,10.72q.63-10.23,2-20Z" fill="#211915"/>
        <path d="M101.27,45.06l4.18,28.15H98l-.39-5.06H95l-.44,5.06H87l3.74-28.15Zm-3.88,18.1q-.56-4.78-1.12-11.83-1.11,8.1-1.4,11.83Z" fill="#211915"/>
        <path d="M119.48,45.06v5.63h-4.35V73.21h-7.32V50.69h-4.33V45.06Z" fill="#211915"/>
        <path d="M121.15,45.06h12.21v5.63h-4.89V56H133v5.36h-4.57v6.19h5.37v5.63H121.15Z" fill="#211915"/>
        <path d="M136,45.06h5.18a39.42,39.42,0,0,1,7,.4,4.78,4.78,0,0,1,3,2c.77,1.1,1.15,2.84,1.15,5.24,0,2.19-.27,3.67-.81,4.42a4.32,4.32,0,0,1-3.22,1.36A5.52,5.52,0,0,1,151.18,60a4.27,4.27,0,0,1,.93,1.66,26.67,26.67,0,0,1,.18,4.17v7.42h-6.8V63.86a6.45,6.45,0,0,0-.35-2.8c-.24-.36-.86-.54-1.87-.54V73.21H136Zm7.32,4.81v6.26A3.3,3.3,0,0,0,145,55.8c.33-.23.49-1,.49-2.2V52.05a2.35,2.35,0,0,0-.47-1.76A2.71,2.71,0,0,0,143.27,49.87Z" fill="#211915"/>
      </g>
      <g>
        <path d="M72.44,86.93h-5.9V83a7.22,7.22,0,0,0-.19-2.14.82.82,0,0,0-.84-.43.86.86,0,0,0-.92.52,7.82,7.82,0,0,0-.2,2.24V93.71a7.38,7.38,0,0,0,.2,2.16.84.84,0,0,0,.88.5.83.83,0,0,0,.86-.5,8,8,0,0,0,.21-2.38V90.64h5.9v.89a17.46,17.46,0,0,1-.5,5,5.09,5.09,0,0,1-2.2,2.58,7.55,7.55,0,0,1-4.2,1.11,8.63,8.63,0,0,1-4.27-.94A4.49,4.49,0,0,1,59,96.67a16.78,16.78,0,0,1-.55-5V85.05a29.81,29.81,0,0,1,.17-3.68,5.18,5.18,0,0,1,1-2.36A5.67,5.67,0,0,1,62,77.22a9.48,9.48,0,0,1,7.71.36,4.8,4.8,0,0,1,2.22,2.51,14.88,14.88,0,0,1,.54,4.68Z" fill="#211915"/>
        <path d="M87.12,77.05l-4.3,14.47v8.22H77.36V91.52L73.21,77.05h5.42c.84,4.42,1.32,7.41,1.43,8.94.33-2.42.87-5.4,1.64-8.94Z" fill="#211915"/>
        <path d="M101.91,86.93H96V83a6.88,6.88,0,0,0-.19-2.14.8.8,0,0,0-.83-.43.87.87,0,0,0-.93.52,8,8,0,0,0-.19,2.24V93.71a7.5,7.5,0,0,0,.19,2.16,1,1,0,0,0,1.75,0,8.56,8.56,0,0,0,.2-2.38V90.64h5.9v.89a17.46,17.46,0,0,1-.5,5,5,5,0,0,1-2.2,2.58,7.51,7.51,0,0,1-4.2,1.11,8.65,8.65,0,0,1-4.27-.94,4.57,4.57,0,0,1-2.23-2.6,17.13,17.13,0,0,1-.55-5V85.05a29.81,29.81,0,0,1,.17-3.68,5.21,5.21,0,0,1,1-2.36,5.54,5.54,0,0,1,2.31-1.79,9.46,9.46,0,0,1,7.7.36,4.86,4.86,0,0,1,2.23,2.51,15.24,15.24,0,0,1,.53,4.68Z" fill="#211915"/>
        <path d="M109.93,77.05V95.2h3.58v4.54H104V77.05Z" fill="#211915"/>
        <path d="M120.84,77.05V99.74h-5.9V77.05Z" fill="#211915"/>
        <path d="M136.39,77.05V99.74h-5.17l-3.07-10.32V99.74h-4.94V77.05h4.94l3.3,10.21V77.05Z" fill="#211915"/>
        <path d="M152.29,85.4h-5.9V83.34a10.54,10.54,0,0,0-.16-2.44.89.89,0,0,0-1.55-.07,7,7,0,0,0-.19,2.16V93.88a6.55,6.55,0,0,0,.19,2,.77.77,0,0,0,.79.48.85.85,0,0,0,.87-.54,6.22,6.22,0,0,0,.24-2.13V91h-1.2V87.56h6.91V99.74h-3.7L148,98.11a4.14,4.14,0,0,1-1.52,1.58,4.3,4.3,0,0,1-2.17.52,5.62,5.62,0,0,1-2.78-.72,5.29,5.29,0,0,1-2-1.79,5.58,5.58,0,0,1-.84-2.23,25.44,25.44,0,0,1-.17-3.51V85.22a22.2,22.2,0,0,1,.35-4.73,4.78,4.78,0,0,1,2-2.69,7,7,0,0,1,4.29-1.23,8,8,0,0,1,4.31,1.06,5.08,5.08,0,0,1,2.23,2.53,13.67,13.67,0,0,1,.51,4.26Z" fill="#211915"/>
      </g>
      <g>
        <path d="M69.6,102.6l3.25,21.86h-5.8l-.31-3.93h-2l-.34,3.93H58.49l2.9-21.86Zm-3,14.05q-.42-3.7-.86-9.18c-.58,4.19-1,7.25-1.09,9.18Z" fill="#fff"/>
        <path d="M94.72,102.6l-2.53,21.86h-7.1q-1-5-1.72-11.46c-.23,1.83-.75,5.65-1.59,11.46h-7L72.19,102.6h5.52l.6,7.63.58,7.37q.31-5.73,1.57-15h5.9q.12,1,.62,7.21l.63,8.32q.48-7.93,1.59-15.53Z" fill="#fff"/>
        <path d="M105.39,102.6l3.25,21.86h-5.8l-.31-3.93h-2l-.35,3.93H94.28l2.9-21.86Zm-3,14.05c-.29-2.47-.57-5.53-.87-9.18-.57,4.19-.94,7.25-1.09,9.18Z" fill="#fff"/>
        <path d="M109.61,102.6h4a30.53,30.53,0,0,1,5.45.31,3.77,3.77,0,0,1,2.32,1.59,7.19,7.19,0,0,1,.9,4.07,6.3,6.3,0,0,1-.64,3.43,3.34,3.34,0,0,1-2.49,1,4.22,4.22,0,0,1,2.26,1.12,3.44,3.44,0,0,1,.73,1.29,21,21,0,0,1,.14,3.23v5.77H117v-7.27a4.89,4.89,0,0,0-.28-2.17c-.18-.28-.67-.42-1.45-.42v9.86h-5.68Zm5.68,3.74v4.86a2.53,2.53,0,0,0,1.34-.26q.39-.27.39-1.71V108a1.84,1.84,0,0,0-.37-1.37A2.16,2.16,0,0,0,115.29,106.34Z" fill="#fff"/>
        <path d="M124.5,102.6h4.25a26.55,26.55,0,0,1,5.57.38,4.32,4.32,0,0,1,2.21,1.24,3.94,3.94,0,0,1,.94,1.92,28.54,28.54,0,0,1,.19,4.17V118a17.37,17.37,0,0,1-.28,3.94,2.9,2.9,0,0,1-1,1.55,3.87,3.87,0,0,1-1.7.78,15.16,15.16,0,0,1-3.05.23H124.5Zm5.68,3.74v14.38c.82,0,1.32-.17,1.51-.49a7.17,7.17,0,0,0,.29-2.68v-8.5a10.41,10.41,0,0,0-.1-1.9.87.87,0,0,0-.43-.61A2.79,2.79,0,0,0,130.18,106.34Z" fill="#fff"/>
        <path d="M151.82,109.22h-5.28V107.6a3.14,3.14,0,0,0-.2-1.45.73.73,0,0,0-.67-.31.86.86,0,0,0-.78.42,2.39,2.39,0,0,0-.26,1.27,3.72,3.72,0,0,0,.29,1.65,4.33,4.33,0,0,0,1.61,1.33q3.79,2.26,4.78,3.7a8.46,8.46,0,0,1,1,4.66,8.25,8.25,0,0,1-.54,3.44,4.3,4.3,0,0,1-2.12,1.86,8.3,8.3,0,0,1-3.64.75,8.07,8.07,0,0,1-3.89-.87,4.24,4.24,0,0,1-2.12-2.2,11.32,11.32,0,0,1-.5-3.79v-1.43h5.28v2.66a3.66,3.66,0,0,0,.22,1.58.88.88,0,0,0,.79.35.94.94,0,0,0,.85-.45,2.6,2.6,0,0,0,.27-1.32,4.14,4.14,0,0,0-.52-2.53,17.64,17.64,0,0,0-2.66-2,27.72,27.72,0,0,1-2.81-2,4.75,4.75,0,0,1-1.14-1.75,7.78,7.78,0,0,1-.45-2.87,7.93,7.93,0,0,1,.64-3.67A4.32,4.32,0,0,1,142,102.8a8.22,8.22,0,0,1,3.46-.66,9,9,0,0,1,3.77.72,4,4,0,0,1,2.07,1.8,9.71,9.71,0,0,1,.5,3.69Z" fill="#fff"/>
      </g>
    </g>
    <rect width="210.79" height="138.71" fill="none"/>
  </g>
</svg>
