<?xml version="1.0" encoding="utf-8"?>
<!-- Generator: Adobe Illustrator 27.1.1, SVG Export Plug-In . SVG Version: 6.00 Build 0)  -->
<svg version="1.1" id="Capa_1" xmlns="http://www.w3.org/2000/svg" xmlns:xlink="http://www.w3.org/1999/xlink" x="0px" y="0px"
	 viewBox="0 0 1262.2 269.1" style="enable-background:new 0 0 1262.2 269.1;" xml:space="preserve">
<g>
	<path d="M127.9,113.4c3.7-8.8,5.6-20.6,5.6-35.1c0-14.7-1.2-27.7-3.5-38.6c-2.5-11.6-7.4-20.8-14.8-27.3c-7.5-6.7-18.4-10-32.5-10
		H0v264.4h60.3V150.1c4.6,0.3,7.1,1.2,8.3,2c1.2,0.7,2.5,3.8,2.5,10.2v104.4h59V165.7c0-10.7-1.8-19.7-5.3-26.6
		c-2.3-4.5-5.6-8-9.8-10.5C120.9,124.9,125.2,119.8,127.9,113.4z M60.6,58.2h7.7c3.3,0,4.4,1.2,4.9,2.3c0.7,1.4,1.9,5.6,1.9,17.7
		c0,7-0.8,18.9-6.4,18.9h-8.1V58.2z"/>
	<polygon points="199.9,158.3 248.2,158.3 248.2,101.6 199.9,101.6 199.9,60.3 250.3,60.3 250.3,2.3 139.4,2.3 139.4,266.8 
		253.6,266.8 253.6,208.4 199.9,208.4 	"/>
	<path d="M334.3,2.3h-74.6v264.4h72.9c22.7,0,38.9-7.3,48.1-21.7c8.9-13.8,13.4-33.5,13.4-58.4V66.8c0-20.7-5.1-36.7-15.1-47.7
		C369,8,353.9,2.3,334.3,2.3z M319.7,55.6h1.4c7.8,0,10.1,1.6,10.8,2.3c0.5,0.6,2.3,3.3,2.3,13.6v132c0,6.8-2.8,9.4-9.9,9.4h-4.6
		V55.6z"/>
	<path d="M605,148h-60v50.4c0,5-0.8,9.1-2.2,12.1c-0.7,1.5-2,3-5.4,3c-2.5,0-4.2-0.8-5.5-2.6c-0.9-1.2-2.3-4.4-2.3-12.5V70.3
		c0-5.1,0.7-9.1,2.1-11.9c0.4-0.8,1.3-2.7,5.8-2.7c3.5,0,4.9,1.3,5.6,2.2c0.6,0.9,2.1,3.9,2.1,13v42.1h59.4V64.5
		c0-14.2-2.9-26.2-8.8-35.7c-5.8-9.5-14-16.8-24.1-21.6c-10-4.7-21.5-7.1-34.2-7.1c-23.5,0-40.8,7.2-51.5,21.5
		c-10.4,13.9-15.6,33.9-15.6,59.5v118.1c0,21.8,6.1,39.1,18.2,51.4c12.1,12.3,28.1,18.6,47.8,18.6c21.3,0,38.3-5.5,50.4-16.3
		c12.2-10.9,18.4-28.5,18.4-52.1V148z"/>
	<path d="M629,2.3l-25.5,264.4h58.4l3.2-41.3h23l3.6,41.3h57L723.5,2.3H629z M683.3,176.1h-14l6.5-87.3L683.3,176.1z"/>
	<path d="M880.5,113.4c3.7-8.8,5.6-20.6,5.6-35.1c0-14.7-1.2-27.7-3.5-38.6c-2.5-11.6-7.4-20.8-14.8-27.3c-7.5-6.7-18.4-10-32.5-10
		h-82.8v264.4h60.3V150.1c4.6,0.3,7.1,1.2,8.3,2c1.2,0.7,2.5,3.8,2.5,10.2v104.4h59V165.7c0-10.7-1.8-19.7-5.3-26.6
		c-2.3-4.5-5.6-8-9.8-10.5C873.4,124.9,877.8,119.8,880.5,113.4z M813.2,58.2h7.7c3.3,0,4.3,1.2,4.9,2.3c0.7,1.4,1.9,5.6,1.9,17.7
		c0,7-0.8,18.9-6.4,18.9h-8.1V58.2z"/>
	<path d="M1000.1,12.6c-9-6.8-21.2-10.3-36.2-10.3H892v264.4h58.8V165.4h16.5c15.1,0,27-3.5,35.5-10.4c8.4-6.9,14.3-16.6,17.5-28.9
		c3.1-11.8,4.6-25.8,4.6-41.6c0-16.4-1.9-30.9-5.6-42.8C1015.5,29.2,1009.1,19.5,1000.1,12.6z M950.8,57.5h1.4c7.8,0,9.9,3,10.8,5.2
		c1.9,4.8,2.8,11.8,2.8,20.9c0,9.8-1,17.2-2.9,22c-1.3,3.3-5.4,5.1-12.2,5.3V57.5z"/>
	<polygon points="1090.4,158.3 1138.7,158.3 1138.7,101.6 1090.4,101.6 1090.4,60.3 1140.7,60.3 1140.7,2.3 1029.9,2.3 
		1029.9,266.8 1144.1,266.8 1144.1,208.4 1090.4,208.4 	"/>
	<polygon points="1141.7,2.3 1141.7,60 1172.1,60 1172.1,266.8 1231.8,266.8 1231.8,60 1262.2,60 1262.2,2.3 	"/>
</g>
</svg>
