<?xml version="1.0" encoding="utf-8"?>
<!-- Generator: Adobe Illustrator 19.0.0, SVG Export Plug-In . SVG Version: 6.00 Build 0)  -->
<svg version="1.0" id="Capa_1" xmlns="http://www.w3.org/2000/svg" xmlns:xlink="http://www.w3.org/1999/xlink" x="0px" y="0px"
	 width="56.6px" height="24.7px" viewBox="0 0 56.6 24.7" enable-background="new 0 0 56.6 24.7" xml:space="preserve">
<g>
	<linearGradient id="SVGID_1_" gradientUnits="userSpaceOnUse" x1="28.32" y1="-24.72" x2="28.32" y2="24.72">
		<stop  offset="0" style="stop-color:#000000"/>
		<stop  offset="0.25" style="stop-color:#000000"/>
		<stop  offset="0.5" style="stop-color:#454545"/>
		<stop  offset="0.75" style="stop-color:#000000"/>
		<stop  offset="1" style="stop-color:#000000"/>
	</linearGradient>
	<path fill-rule="evenodd" clip-rule="evenodd" fill="url(#SVGID_1_)" d="M0,4.1C0,1.8,1.8,0,4.1,0h48.4c2.3,0,4.1,1.8,4.1,4.1v16.5
		c0,2.3-1.8,4.1-4.1,4.1H4.1c-2.3,0-4.1-1.8-4.1-4.1V4.1z"/>
	<g>
		<g>
			<path fill="#FFFFFF" d="M12.4,19.3c0,0.3-0.1,0.6-0.3,0.8s-0.5,0.3-0.8,0.3H7.4c-0.3,0-0.6-0.1-0.8-0.3c-0.2-0.2-0.3-0.5-0.3-0.8
				v-3.9h1.4v3.8H11v-3.7l-4.2-5.1c-0.3-0.4-0.4-0.7-0.4-1.2V6.2c0-0.3,0.1-0.6,0.3-0.8c0.2-0.2,0.5-0.3,0.8-0.3h3.9
				c0.3,0,0.6,0.1,0.8,0.3s0.3,0.5,0.3,0.8v3.6H11V6.3H7.7v3.2l4.3,5.1c0.3,0.3,0.4,0.7,0.4,1.1V19.3z"/>
			<path fill="#FFFFFF" d="M21.1,19.3c0,0.3-0.1,0.6-0.3,0.8c-0.2,0.2-0.5,0.3-0.8,0.3h-4.2c-0.3,0-0.6-0.1-0.8-0.3
				c-0.2-0.2-0.3-0.5-0.3-0.8V5.1h1.4v14.1h3.6V5.1h1.4V19.3z"/>
			<path fill="#FFFFFF" d="M29.6,19.3c0,0.3-0.1,0.6-0.3,0.8c-0.2,0.2-0.5,0.3-0.8,0.3h-5.1V5.1h5c0.3,0,0.6,0.1,0.8,0.3
				c0.2,0.2,0.3,0.5,0.3,0.8v4.6c0,0.4-0.2,0.7-0.5,1c-0.4,0.2-0.7,0.4-1.1,0.6l1.2,0.7c0.3,0.2,0.5,0.5,0.5,1V19.3z M28.2,10.9V6.3
				h-3.4v5.5h2L28.2,10.9z M28.2,19.2v-5.3L26.8,13h-2v6.2H28.2z"/>
			<path fill="#FFFFFF" d="M39.5,20.4h-1.3v-9.7c0-0.1,0-0.5,0.1-1.2L35.8,19h-0.3L33,9.5c0.1,0.7,0.1,1.1,0.1,1.2v9.7h-1.3V5.1h1.3
				l2.5,10c0,0.1,0,0.2,0,0.4c0-0.1,0-0.2,0-0.4l2.5-10h1.3V20.4z"/>
			<path fill="#FFFFFF" d="M43.4,20.4H42V5.1h1.4V20.4z"/>
			<path fill="#FFFFFF" d="M51.2,6.3h-2.4v14.1h-1.4V6.3h-2.4V5.1h6.1V6.3z"/>
		</g>
	</g>
</g>
</svg>
