<?xml version="1.0" encoding="utf-8"?>
<!-- Generator: Adobe Illustrator 25.4.1, SVG Export Plug-In . SVG Version: 6.00 Build 0)  -->
<svg version="1.1" id="Capa_2_00000035511455688952675830000017880556355141021833_"
	 xmlns="http://www.w3.org/2000/svg" xmlns:xlink="http://www.w3.org/1999/xlink" x="0px" y="0px" width="701.51px"
	 height="35.68px" viewBox="0 0 701.51 35.68" style="enable-background:new 0 0 701.51 35.68;" xml:space="preserve">
<style type="text/css">
	.st0{fill:none;}
</style>
<g id="Capa_1-2">
	<g>
		<g>
			<polygon points="24.63,8.64 26.33,8.64 26.33,17.51 29.22,17.51 29.22,8.64 30.93,8.64 30.93,6.42 24.63,6.42 			"/>
			<path d="M37.59,7.35c-0.29-0.39-0.67-0.68-1.14-0.87s-1.01-0.29-1.6-0.29c-0.63,0-1.17,0.1-1.65,0.31
				c-0.47,0.21-0.84,0.5-1.12,0.88c-0.28,0.38-0.44,0.81-0.49,1.27s-0.08,1.25-0.08,2.37v1.9c0,1.14,0.03,1.94,0.08,2.4
				s0.23,0.88,0.51,1.27c0.29,0.39,0.67,0.68,1.14,0.87s1.01,0.29,1.6,0.29c0.63,0,1.17-0.1,1.65-0.31c0.47-0.21,0.84-0.5,1.12-0.88
				s0.44-0.81,0.49-1.27s0.08-1.25,0.08-2.37v-1.9c0-1.14-0.03-1.94-0.08-2.4S37.87,7.74,37.59,7.35z M35.3,14.37
				c0,0.65-0.03,1.07-0.08,1.24c-0.05,0.17-0.18,0.26-0.38,0.26s-0.31-0.08-0.37-0.23c-0.05-0.15-0.08-0.55-0.08-1.19V9.27
				c0-0.57,0.04-0.92,0.12-1.03c0.08-0.12,0.2-0.17,0.35-0.17c0.18,0,0.3,0.07,0.35,0.22c0.06,0.14,0.09,0.47,0.09,0.99v5.1
				L35.3,14.37z"/>
			<path d="M42.6,6.42l-1.47,11.1h2.98l0.17-2h1.03l0.15,2h2.95l-1.65-11.1h-4.17H42.6z M44.25,13.56c0.08-0.98,0.26-2.54,0.55-4.66
				c0.15,1.85,0.29,3.4,0.44,4.66C45.24,13.56,44.25,13.56,44.25,13.56z"/>
			<polygon points="51.75,6.42 48.87,6.42 48.87,17.51 53.51,17.51 53.51,15.29 51.75,15.29 			"/>
			<polygon points="57.14,6.42 54.25,6.42 54.25,17.51 58.89,17.51 58.89,15.29 57.14,15.29 			"/>
			<path d="M68.04,7.35c-0.29-0.39-0.67-0.68-1.14-0.87s-1.01-0.29-1.6-0.29c-0.63,0-1.17,0.1-1.65,0.31
				c-0.47,0.21-0.84,0.5-1.12,0.88s-0.44,0.81-0.49,1.27s-0.08,1.25-0.08,2.37v1.9c0,1.14,0.03,1.94,0.08,2.4s0.23,0.88,0.51,1.27
				c0.29,0.39,0.67,0.68,1.14,0.87c0.47,0.19,1.01,0.29,1.6,0.29c0.63,0,1.17-0.1,1.65-0.31c0.47-0.21,0.84-0.5,1.12-0.88
				s0.44-0.81,0.49-1.27s0.08-1.25,0.08-2.37v-1.9c0-1.14-0.03-1.94-0.08-2.4S68.32,7.74,68.04,7.35z M65.75,14.37
				c0,0.65-0.03,1.07-0.08,1.24s-0.18,0.26-0.38,0.26s-0.31-0.08-0.37-0.23c-0.05-0.15-0.08-0.55-0.08-1.19V9.27
				c0-0.57,0.04-0.92,0.12-1.03c0.08-0.12,0.2-0.17,0.35-0.17c0.18,0,0.3,0.07,0.35,0.22c0.06,0.14,0.09,0.47,0.09,0.99v5.1
				L65.75,14.37z"/>
			<path d="M73.38,14.59c0,0.55-0.03,0.9-0.08,1.05c-0.05,0.15-0.17,0.22-0.35,0.22c-0.16,0-0.27-0.07-0.32-0.2
				s-0.08-0.44-0.08-0.93V6.42h-2.89v6.57c0,1.25,0.02,2.07,0.07,2.46c0.04,0.39,0.19,0.76,0.45,1.11c0.25,0.35,0.63,0.64,1.14,0.86
				c0.51,0.22,1.09,0.33,1.75,0.33c0.6,0,1.12-0.09,1.56-0.28c0.44-0.18,0.8-0.46,1.07-0.82s0.43-0.71,0.49-1.05
				c0.05-0.34,0.08-0.93,0.08-1.77V6.41h-2.89C73.38,6.41,73.38,14.59,73.38,14.59z"/>
			<path d="M83.51,11.19c0.21-0.3,0.32-0.88,0.32-1.74c0-0.95-0.15-1.63-0.46-2.07c-0.3-0.43-0.7-0.7-1.18-0.81s-1.4-0.16-2.77-0.16
				h-2.04v11.1h2.89v-5c0.4,0,0.64,0.07,0.74,0.21s0.14,0.51,0.14,1.1v3.69h2.68v-2.93c0-0.9-0.02-1.44-0.07-1.64
				s-0.17-0.42-0.37-0.65c-0.2-0.24-0.58-0.43-1.15-0.57C82.87,11.66,83.29,11.48,83.51,11.19z M81.15,9.78
				c0,0.49-0.07,0.78-0.2,0.87s-0.36,0.13-0.68,0.13V8.31c0.33,0,0.56,0.05,0.69,0.17c0.12,0.11,0.19,0.34,0.19,0.69
				C81.15,9.17,81.15,9.78,81.15,9.78z"/>
			<polygon points="90.31,12.85 92.11,12.85 92.11,10.74 90.31,10.74 90.31,8.64 92.24,8.64 92.24,6.42 87.42,6.42 87.42,17.51 
				92.43,17.51 92.43,15.29 90.31,15.29 			"/>
			<path d="M96.68,10.43c-0.45-0.26-0.72-0.49-0.82-0.68c-0.1-0.19-0.15-0.47-0.15-0.84c0-0.29,0.04-0.5,0.13-0.65
				c0.09-0.14,0.22-0.21,0.39-0.21c0.16,0,0.27,0.05,0.34,0.16s0.1,0.35,0.1,0.73v0.82h2.68V9.32c0-0.88-0.09-1.51-0.26-1.88
				c-0.17-0.37-0.52-0.67-1.05-0.92c-0.53-0.24-1.17-0.36-1.92-0.36c-0.69,0-1.27,0.11-1.75,0.33s-0.83,0.53-1.05,0.92
				s-0.33,1.01-0.33,1.86c0,0.59,0.08,1.07,0.23,1.45s0.35,0.68,0.58,0.89s0.71,0.56,1.43,1.04c0.72,0.47,1.17,0.81,1.35,1.01
				s0.27,0.63,0.27,1.28c0,0.3-0.05,0.52-0.14,0.67s-0.24,0.23-0.43,0.23s-0.33-0.06-0.4-0.18c-0.08-0.12-0.11-0.39-0.11-0.8v-1.35
				h-2.68v0.73c0,0.83,0.08,1.47,0.25,1.93c0.17,0.46,0.53,0.83,1.07,1.12c0.55,0.29,1.21,0.44,1.98,0.44c0.7,0,1.32-0.13,1.85-0.38
				s0.89-0.57,1.07-0.94c0.18-0.38,0.28-0.96,0.28-1.75c0-1.09-0.17-1.88-0.5-2.37s-1.14-1.12-2.43-1.88L96.68,10.43z"/>
			<polygon points="100.02,8.64 101.73,8.64 101.73,17.51 104.62,17.51 104.62,8.64 106.33,8.64 106.33,6.42 100.02,6.42 			"/>
			<polygon points="109.88,12.85 111.68,12.85 111.68,10.74 109.88,10.74 109.88,8.64 111.8,8.64 111.8,6.42 106.99,6.42 
				106.99,17.51 111.99,17.51 111.99,15.29 109.88,15.29 			"/>
			<polygon points="115.71,12.85 117.51,12.85 117.51,10.74 115.71,10.74 115.71,8.64 117.64,8.64 117.64,6.42 112.82,6.42 
				112.82,17.51 117.83,17.51 117.83,15.29 115.71,15.29 			"/>
			<path d="M123.2,11.6l-0.41-2.82c-0.12-0.91-0.23-1.69-0.34-2.36h-3.73v11.1h2.52V10.2l1.06,7.32h1.79l1-7.49v7.49h2.53V6.42
				h-3.76L123.2,11.6L123.2,11.6z"/>
			<polygon points="131.66,12.85 133.47,12.85 133.47,10.74 131.66,10.74 131.66,8.64 133.59,8.64 133.59,6.42 128.78,6.42 
				128.78,17.51 133.78,17.51 133.78,15.29 131.66,15.29 			"/>
			<path d="M140.76,7.24c-0.26-0.29-0.63-0.5-1.12-0.63s-1.43-0.19-2.83-0.19h-2.16v11.1h3.64c0.69,0,1.21-0.04,1.55-0.11
				s0.63-0.21,0.86-0.4s0.4-0.45,0.49-0.79s0.14-1,0.14-2v-3.89c0-1.05-0.03-1.76-0.1-2.12c-0.06-0.36-0.22-0.68-0.48-0.98
				L140.76,7.24z M138.45,14.01c0,0.74-0.05,1.19-0.14,1.36c-0.1,0.17-0.35,0.25-0.77,0.25v-7.3c0.32,0,0.53,0.03,0.64,0.1
				s0.19,0.17,0.22,0.31s0.05,0.46,0.05,0.97V14.01z"/>
			<path d="M148.33,10.43c-0.45-0.26-0.72-0.49-0.82-0.68c-0.1-0.19-0.15-0.47-0.15-0.84c0-0.29,0.04-0.5,0.13-0.65
				c0.09-0.14,0.22-0.21,0.39-0.21c0.16,0,0.27,0.05,0.34,0.16c0.07,0.11,0.1,0.35,0.1,0.73v0.82H151V9.32
				c0-0.88-0.09-1.51-0.26-1.88s-0.52-0.67-1.05-0.92c-0.53-0.24-1.17-0.36-1.92-0.36c-0.69,0-1.27,0.11-1.75,0.33
				s-0.83,0.53-1.05,0.92s-0.33,1.01-0.33,1.86c0,0.59,0.08,1.07,0.23,1.45s0.35,0.68,0.58,0.89s0.71,0.56,1.43,1.04
				c0.72,0.47,1.17,0.81,1.35,1.01c0.18,0.2,0.27,0.63,0.27,1.28c0,0.3-0.05,0.52-0.14,0.67s-0.24,0.23-0.43,0.23
				s-0.33-0.06-0.4-0.18c-0.08-0.12-0.11-0.39-0.11-0.8v-1.35h-2.68v0.73c0,0.83,0.08,1.47,0.25,1.93c0.17,0.46,0.53,0.83,1.07,1.12
				c0.55,0.29,1.21,0.44,1.98,0.44c0.7,0,1.32-0.13,1.85-0.38s0.89-0.57,1.07-0.94c0.18-0.38,0.28-0.96,0.28-1.75
				c0-1.09-0.17-1.88-0.5-2.37s-1.14-1.12-2.43-1.88L148.33,10.43z"/>
			<path d="M157.78,7.14c-0.21-0.23-0.53-0.41-0.95-0.54c-0.42-0.12-1.03-0.18-1.81-0.18h-2.91v11.1H155v-4.47h0.77
				c0.63,0,1.14-0.09,1.53-0.26s0.66-0.42,0.81-0.75s0.22-0.84,0.22-1.55V9.52c0-0.7-0.04-1.21-0.11-1.54
				c-0.08-0.33-0.22-0.61-0.43-0.85L157.78,7.14z M155.91,10.14c0,0.41-0.05,0.68-0.15,0.81c-0.1,0.13-0.29,0.2-0.55,0.2
				c-0.06,0-0.13,0-0.21,0V8.33c0.38,0,0.62,0.06,0.74,0.17c0.12,0.11,0.18,0.36,0.18,0.74v0.91L155.91,10.14z"/>
			<path d="M165.16,7.35c-0.29-0.39-0.67-0.68-1.14-0.87s-1.01-0.29-1.6-0.29c-0.63,0-1.17,0.1-1.65,0.31
				c-0.47,0.21-0.84,0.5-1.12,0.88s-0.44,0.81-0.49,1.27s-0.08,1.25-0.08,2.37v1.9c0,1.14,0.03,1.94,0.08,2.4s0.23,0.88,0.51,1.27
				c0.29,0.39,0.67,0.68,1.14,0.87s1.01,0.29,1.6,0.29c0.63,0,1.17-0.1,1.65-0.31c0.47-0.21,0.84-0.5,1.12-0.88s0.44-0.81,0.49-1.27
				s0.08-1.25,0.08-2.37v-1.9c0-1.14-0.03-1.94-0.08-2.4S165.44,7.74,165.16,7.35z M162.87,14.37c0,0.65-0.03,1.07-0.08,1.24
				s-0.18,0.26-0.38,0.26s-0.31-0.08-0.37-0.23c-0.05-0.15-0.08-0.55-0.08-1.19V9.27c0-0.57,0.04-0.92,0.12-1.03
				c0.08-0.12,0.2-0.17,0.35-0.17c0.18,0,0.3,0.07,0.35,0.22c0.06,0.14,0.09,0.47,0.09,0.99v5.1V14.37z"/>
			<polygon points="170.87,11.41 169.26,6.42 166.84,6.42 166.84,17.51 169.26,17.51 169.26,12.47 170.76,17.51 173.29,17.51 
				173.29,6.42 170.87,6.42 			"/>
			<path d="M177.83,10.43c-0.45-0.26-0.72-0.49-0.82-0.68c-0.1-0.19-0.15-0.47-0.15-0.84c0-0.29,0.04-0.5,0.13-0.65
				c0.09-0.14,0.22-0.21,0.39-0.21c0.16,0,0.27,0.05,0.34,0.16c0.07,0.11,0.1,0.35,0.1,0.73v0.82h2.68V9.32
				c0-0.88-0.09-1.51-0.26-1.88s-0.52-0.67-1.05-0.92c-0.53-0.24-1.17-0.36-1.92-0.36c-0.69,0-1.27,0.11-1.75,0.33
				s-0.83,0.53-1.05,0.92s-0.33,1.01-0.33,1.86c0,0.59,0.08,1.07,0.23,1.45s0.35,0.68,0.58,0.89s0.71,0.56,1.43,1.04
				c0.72,0.47,1.17,0.81,1.35,1.01c0.18,0.2,0.27,0.63,0.27,1.28c0,0.3-0.05,0.52-0.14,0.67s-0.24,0.23-0.43,0.23
				s-0.33-0.06-0.4-0.18c-0.08-0.12-0.11-0.39-0.11-0.8v-1.35h-2.68v0.73c0,0.83,0.08,1.47,0.25,1.93c0.17,0.46,0.53,0.83,1.07,1.12
				c0.55,0.29,1.21,0.44,1.98,0.44c0.7,0,1.32-0.13,1.85-0.38s0.89-0.57,1.07-0.94c0.18-0.38,0.28-0.96,0.28-1.75
				c0-1.09-0.17-1.88-0.5-2.37s-1.14-1.12-2.43-1.88L177.83,10.43z"/>
			<path d="M187.61,7.35c-0.29-0.39-0.67-0.68-1.14-0.87s-1.01-0.29-1.6-0.29c-0.63,0-1.17,0.1-1.65,0.31
				c-0.47,0.21-0.84,0.5-1.12,0.88s-0.44,0.81-0.49,1.27s-0.08,1.25-0.08,2.37v1.9c0,1.14,0.03,1.94,0.08,2.4s0.23,0.88,0.51,1.27
				c0.29,0.39,0.67,0.68,1.14,0.87s1.01,0.29,1.6,0.29c0.63,0,1.17-0.1,1.65-0.31c0.47-0.21,0.84-0.5,1.12-0.88s0.44-0.81,0.49-1.27
				s0.08-1.25,0.08-2.37v-1.9c0-1.14-0.03-1.94-0.08-2.4S187.89,7.74,187.61,7.35z M185.32,14.37c0,0.65-0.03,1.07-0.08,1.24
				s-0.18,0.26-0.38,0.26s-0.31-0.08-0.37-0.23c-0.05-0.15-0.08-0.55-0.08-1.19V9.27c0-0.57,0.04-0.92,0.12-1.03
				c0.08-0.12,0.2-0.17,0.35-0.17c0.18,0,0.3,0.07,0.35,0.22c0.06,0.14,0.09,0.47,0.09,0.99v5.1V14.37z"/>
			<path d="M195.4,11.19c0.21-0.3,0.32-0.88,0.32-1.74c0-0.95-0.15-1.63-0.46-2.07c-0.3-0.43-0.7-0.7-1.18-0.81s-1.4-0.16-2.77-0.16
				h-2.04v11.1h2.89v-5c0.4,0,0.64,0.07,0.74,0.21s0.14,0.51,0.14,1.1v3.69h2.68v-2.93c0-0.9-0.02-1.44-0.07-1.64
				s-0.17-0.42-0.37-0.65c-0.2-0.24-0.58-0.43-1.15-0.57C194.76,11.66,195.18,11.48,195.4,11.19L195.4,11.19z M193.04,9.78
				c0,0.49-0.07,0.78-0.2,0.87c-0.13,0.09-0.36,0.13-0.68,0.13V8.31c0.33,0,0.56,0.05,0.69,0.17c0.12,0.11,0.19,0.34,0.19,0.69
				L193.04,9.78L193.04,9.78z"/>
			<path d="M200.27,10.43c-0.45-0.26-0.72-0.49-0.82-0.68c-0.1-0.19-0.15-0.47-0.15-0.84c0-0.29,0.04-0.5,0.13-0.65
				c0.09-0.14,0.22-0.21,0.39-0.21c0.16,0,0.27,0.05,0.34,0.16c0.07,0.11,0.1,0.35,0.1,0.73v0.82h2.68V9.32
				c0-0.88-0.09-1.51-0.26-1.88s-0.52-0.67-1.05-0.92c-0.53-0.24-1.17-0.36-1.92-0.36c-0.69,0-1.27,0.11-1.75,0.33
				s-0.83,0.53-1.05,0.92s-0.33,1.01-0.33,1.86c0,0.59,0.08,1.07,0.23,1.45s0.35,0.68,0.58,0.89s0.71,0.56,1.43,1.04
				c0.72,0.47,1.17,0.81,1.35,1.01c0.18,0.2,0.27,0.63,0.27,1.28c0,0.3-0.05,0.52-0.14,0.67s-0.24,0.23-0.43,0.23
				s-0.33-0.06-0.4-0.18c-0.08-0.12-0.11-0.39-0.11-0.8v-1.35h-2.68v0.73c0,0.83,0.08,1.47,0.25,1.93c0.17,0.46,0.53,0.83,1.07,1.12
				c0.55,0.29,1.21,0.44,1.98,0.44c0.7,0,1.32-0.13,1.85-0.38s0.89-0.57,1.07-0.94c0.18-0.38,0.28-0.96,0.28-1.75
				c0-1.09-0.17-1.88-0.5-2.37s-1.14-1.12-2.43-1.88L200.27,10.43z"/>
			<path d="M203.72,17.51h0.47c-0.04,0.26-0.19,0.47-0.47,0.62v0.79c0.38-0.08,0.73-0.23,1.03-0.47c0.3-0.23,0.52-0.52,0.64-0.85
				s0.18-0.76,0.18-1.28v-0.99h-1.86v2.17L203.72,17.51z"/>
			<path d="M212.7,6.42l-0.2,2.06c-0.17,1.66-0.33,3.56-0.48,5.7c-0.15-2.12-0.4-4.7-0.76-7.76h-3.04l1.67,11.1h4.38l1.47-11.1
				H212.7L212.7,6.42z"/>
			<path d="M216.75,6.42l-1.47,11.1h2.98l0.17-2h1.03l0.15,2h2.95l-1.65-11.1h-4.17H216.75z M218.4,13.56
				c0.08-0.98,0.26-2.54,0.55-4.66c0.15,1.85,0.29,3.4,0.44,4.66H218.4z"/>
			<polygon points="225.9,6.42 223.02,6.42 223.02,17.51 227.66,17.51 227.66,15.29 225.9,15.29 			"/>
			<path d="M232.08,14.59c0,0.55-0.03,0.9-0.08,1.05c-0.05,0.15-0.17,0.22-0.35,0.22c-0.16,0-0.27-0.07-0.32-0.2
				s-0.08-0.44-0.08-0.93V6.42h-2.89v6.57c0,1.25,0.02,2.07,0.07,2.46c0.04,0.39,0.19,0.76,0.45,1.11c0.25,0.35,0.63,0.64,1.14,0.86
				c0.51,0.22,1.09,0.33,1.75,0.33c0.6,0,1.12-0.09,1.56-0.28c0.44-0.18,0.8-0.46,1.07-0.82s0.43-0.71,0.49-1.05
				c0.05-0.34,0.08-0.93,0.08-1.77V6.41h-2.89V14.59z"/>
			<polygon points="238.97,12.85 240.77,12.85 240.77,10.74 238.97,10.74 238.97,8.64 240.89,8.64 240.89,6.42 236.08,6.42 
				236.08,17.51 241.08,17.51 241.08,15.29 238.97,15.29 			"/>
			<path d="M248.02,7.24c-0.26-0.29-0.63-0.5-1.12-0.63s-1.43-0.19-2.83-0.19h-2.16v11.1h3.64c0.69,0,1.21-0.04,1.55-0.11
				s0.63-0.21,0.86-0.4s0.4-0.45,0.49-0.79s0.14-1,0.14-2v-3.89c0-1.05-0.03-1.76-0.1-2.12c-0.06-0.36-0.22-0.68-0.48-0.98
				L248.02,7.24z M245.71,14.01c0,0.74-0.05,1.19-0.14,1.36c-0.1,0.17-0.35,0.25-0.77,0.25v-7.3c0.32,0,0.53,0.03,0.64,0.1
				s0.19,0.17,0.22,0.31s0.05,0.46,0.05,0.97V14.01z"/>
			<path d="M258.33,7.24c-0.26-0.29-0.63-0.5-1.12-0.63s-1.43-0.19-2.83-0.19h-2.16v11.1h3.64c0.69,0,1.21-0.04,1.55-0.11
				s0.63-0.21,0.86-0.4c0.23-0.19,0.4-0.45,0.49-0.79s0.14-1,0.14-2v-3.89c0-1.05-0.03-1.76-0.1-2.12
				c-0.06-0.36-0.22-0.68-0.48-0.98L258.33,7.24z M256.02,14.01c0,0.74-0.05,1.19-0.14,1.36c-0.1,0.17-0.35,0.25-0.77,0.25v-7.3
				c0.32,0,0.53,0.03,0.64,0.1s0.19,0.17,0.22,0.31s0.05,0.46,0.05,0.97V14.01z"/>
			<path d="M265.98,7.35c-0.29-0.39-0.67-0.68-1.14-0.87s-1.01-0.29-1.6-0.29c-0.63,0-1.17,0.1-1.65,0.31
				c-0.47,0.21-0.84,0.5-1.12,0.88s-0.44,0.81-0.49,1.27s-0.08,1.25-0.08,2.37v1.9c0,1.14,0.03,1.94,0.08,2.4s0.23,0.88,0.51,1.27
				c0.29,0.39,0.67,0.68,1.14,0.87s1.01,0.29,1.6,0.29c0.63,0,1.17-0.1,1.65-0.31c0.47-0.21,0.84-0.5,1.12-0.88s0.44-0.81,0.49-1.27
				s0.08-1.25,0.08-2.37v-1.9c0-1.14-0.03-1.94-0.08-2.4S266.26,7.74,265.98,7.35z M263.69,14.37c0,0.65-0.03,1.07-0.08,1.24
				s-0.18,0.26-0.38,0.26s-0.31-0.08-0.37-0.23c-0.05-0.15-0.08-0.55-0.08-1.19V9.27c0-0.57,0.04-0.92,0.12-1.03
				c0.08-0.12,0.2-0.17,0.35-0.17c0.18,0,0.3,0.07,0.35,0.22c0.06,0.14,0.09,0.47,0.09,0.99v5.1L263.69,14.37z"/>
			<polygon points="271.71,11.41 270.09,6.42 267.68,6.42 267.68,17.51 270.09,17.51 270.09,12.47 271.59,17.51 274.12,17.51 
				274.12,6.42 271.71,6.42 			"/>
			<path d="M281.24,7.35c-0.29-0.39-0.67-0.68-1.14-0.87s-1.01-0.29-1.6-0.29c-0.63,0-1.17,0.1-1.65,0.31
				c-0.47,0.21-0.84,0.5-1.12,0.88s-0.44,0.81-0.49,1.27s-0.08,1.25-0.08,2.37v1.9c0,1.14,0.03,1.94,0.08,2.4s0.23,0.88,0.51,1.27
				c0.29,0.39,0.67,0.68,1.14,0.87s1.01,0.29,1.6,0.29c0.63,0,1.17-0.1,1.65-0.31c0.47-0.21,0.84-0.5,1.12-0.88s0.44-0.81,0.49-1.27
				s0.08-1.25,0.08-2.37v-1.9c0-1.14-0.03-1.94-0.08-2.4S281.52,7.74,281.24,7.35z M278.95,14.37c0,0.65-0.03,1.07-0.08,1.24
				s-0.18,0.26-0.38,0.26s-0.31-0.08-0.37-0.23c-0.05-0.15-0.08-0.55-0.08-1.19V9.27c0-0.57,0.04-0.92,0.12-1.03
				c0.08-0.12,0.2-0.17,0.35-0.17c0.18,0,0.3,0.07,0.35,0.22c0.06,0.14,0.09,0.47,0.09,0.99v5.1L278.95,14.37z"/>
			<path d="M289.03,11.19c0.21-0.3,0.32-0.88,0.32-1.74c0-0.95-0.15-1.63-0.46-2.07c-0.3-0.43-0.7-0.7-1.18-0.81
				s-1.4-0.16-2.77-0.16h-2.04v11.1h2.89v-5c0.4,0,0.64,0.07,0.74,0.21s0.14,0.51,0.14,1.1v3.69h2.68v-2.93
				c0-0.9-0.02-1.44-0.07-1.64c-0.05-0.2-0.17-0.42-0.37-0.65c-0.2-0.24-0.58-0.43-1.15-0.57
				C288.39,11.66,288.81,11.48,289.03,11.19L289.03,11.19z M286.67,9.78c0,0.49-0.07,0.78-0.2,0.87s-0.36,0.13-0.68,0.13V8.31
				c0.33,0,0.56,0.05,0.69,0.17c0.12,0.11,0.19,0.34,0.19,0.69V9.78z"/>
			<path d="M293.9,10.43c-0.45-0.26-0.72-0.49-0.82-0.68c-0.1-0.19-0.15-0.47-0.15-0.84c0-0.29,0.04-0.5,0.13-0.65
				c0.09-0.14,0.22-0.21,0.39-0.21c0.16,0,0.27,0.05,0.34,0.16s0.1,0.35,0.1,0.73v0.82h2.68V9.32c0-0.88-0.09-1.51-0.26-1.88
				s-0.52-0.67-1.05-0.92c-0.53-0.24-1.17-0.36-1.92-0.36c-0.69,0-1.27,0.11-1.75,0.33s-0.83,0.53-1.05,0.92s-0.33,1.01-0.33,1.86
				c0,0.59,0.08,1.07,0.23,1.45c0.15,0.38,0.35,0.68,0.58,0.89c0.23,0.21,0.71,0.56,1.43,1.04c0.72,0.47,1.17,0.81,1.35,1.01
				s0.27,0.63,0.27,1.28c0,0.3-0.05,0.52-0.14,0.67c-0.09,0.15-0.24,0.23-0.43,0.23s-0.33-0.06-0.4-0.18
				c-0.08-0.12-0.11-0.39-0.11-0.8v-1.35h-2.68v0.73c0,0.83,0.08,1.47,0.25,1.93c0.17,0.46,0.53,0.83,1.07,1.12
				c0.55,0.29,1.21,0.44,1.98,0.44c0.7,0,1.32-0.13,1.85-0.38s0.89-0.57,1.07-0.94c0.18-0.38,0.28-0.96,0.28-1.75
				c0-1.09-0.17-1.88-0.5-2.37s-1.14-1.12-2.43-1.88L293.9,10.43z"/>
			<path d="M297.35,17.51h0.47c-0.04,0.26-0.19,0.47-0.47,0.62v0.79c0.38-0.08,0.73-0.23,1.03-0.47c0.3-0.23,0.52-0.52,0.64-0.85
				c0.12-0.33,0.18-0.76,0.18-1.28v-0.99h-1.86v2.17L297.35,17.51z"/>
			<rect x="302.51" y="6.42" width="2.89" height="11.1"/>
			<polygon points="310.58,11.41 308.97,6.42 306.55,6.42 306.55,17.51 308.97,17.51 308.97,12.47 310.47,17.51 313,17.51 313,6.42 
				310.58,6.42 			"/>
			<polygon points="314.13,17.51 317.01,17.51 317.01,12.85 318.8,12.85 318.8,10.74 317.01,10.74 317.01,8.64 319.02,8.64 
				319.02,6.42 314.13,6.42 			"/>
			<polygon points="322.64,6.42 319.76,6.42 319.76,17.51 324.4,17.51 324.4,15.29 322.64,15.29 			"/>
			<path d="M328.81,14.59c0,0.55-0.03,0.9-0.08,1.05c-0.05,0.15-0.17,0.22-0.35,0.22c-0.16,0-0.27-0.07-0.32-0.2
				c-0.05-0.13-0.08-0.44-0.08-0.93V6.42h-2.89v6.57c0,1.25,0.02,2.07,0.07,2.46c0.04,0.39,0.19,0.76,0.45,1.11
				c0.25,0.35,0.63,0.64,1.14,0.86c0.51,0.22,1.09,0.33,1.75,0.33c0.6,0,1.12-0.09,1.56-0.28c0.44-0.18,0.8-0.46,1.07-0.82
				s0.43-0.71,0.49-1.05c0.05-0.34,0.08-0.93,0.08-1.77V6.41h-2.89V14.59z"/>
			<polygon points="335.7,12.85 337.51,12.85 337.51,10.74 335.7,10.74 335.7,8.64 337.63,8.64 337.63,6.42 332.82,6.42 
				332.82,17.51 337.82,17.51 337.82,15.29 335.7,15.29 			"/>
			<polygon points="342.68,11.41 341.07,6.42 338.65,6.42 338.65,17.51 341.07,17.51 341.07,12.47 342.57,17.51 345.1,17.51 
				345.1,6.42 342.68,6.42 			"/>
			<path d="M351.64,6.68c-0.55-0.33-1.25-0.49-2.1-0.49c-0.63,0-1.18,0.11-1.66,0.32s-0.86,0.5-1.13,0.87
				c-0.27,0.37-0.44,0.76-0.49,1.16c-0.05,0.4-0.08,1-0.08,1.8v3.24c0,1.09,0.09,1.9,0.27,2.44s0.54,0.97,1.09,1.27
				c0.55,0.31,1.25,0.46,2.09,0.46s1.5-0.18,2.05-0.54c0.56-0.36,0.91-0.78,1.08-1.26s0.24-1.3,0.24-2.44v-0.43h-2.89v1.4
				c0,0.61-0.03,1-0.1,1.16s-0.21,0.25-0.42,0.25s-0.37-0.08-0.43-0.25c-0.06-0.16-0.1-0.52-0.1-1.06V9.42c0-0.56,0.03-0.93,0.1-1.1
				c0.06-0.17,0.21-0.25,0.45-0.25c0.21,0,0.35,0.07,0.41,0.21s0.09,0.49,0.09,1.05v1.93H353v-1.05c0-1.04-0.09-1.8-0.26-2.29
				s-0.54-0.9-1.09-1.23L351.64,6.68z"/>
			<polygon points="356.91,12.85 358.72,12.85 358.72,10.74 356.91,10.74 356.91,8.64 358.84,8.64 358.84,6.42 354.03,6.42 
				354.03,17.51 359.03,17.51 359.03,15.29 356.91,15.29 			"/>
			<path d="M366.03,11.19c0.21-0.3,0.32-0.88,0.32-1.74c0-0.95-0.15-1.63-0.46-2.07c-0.3-0.43-0.7-0.7-1.18-0.81
				s-1.4-0.16-2.77-0.16h-2.04v11.1h2.89v-5c0.4,0,0.64,0.07,0.74,0.21s0.14,0.51,0.14,1.1v3.69h2.68v-2.93
				c0-0.9-0.02-1.44-0.07-1.64c-0.05-0.2-0.17-0.42-0.37-0.65c-0.2-0.24-0.58-0.43-1.15-0.57
				C365.39,11.66,365.81,11.48,366.03,11.19L366.03,11.19z M363.67,9.78c0,0.49-0.07,0.78-0.2,0.87s-0.36,0.13-0.68,0.13V8.31
				c0.33,0,0.56,0.05,0.69,0.17c0.12,0.11,0.19,0.34,0.19,0.69V9.78z"/>
			<path d="M370.89,10.43c-0.45-0.26-0.72-0.49-0.82-0.68c-0.1-0.19-0.15-0.47-0.15-0.84c0-0.29,0.04-0.5,0.13-0.65
				c0.09-0.14,0.22-0.21,0.39-0.21c0.16,0,0.27,0.05,0.34,0.16s0.1,0.35,0.1,0.73v0.82h2.68V9.32c0-0.88-0.09-1.51-0.26-1.88
				s-0.52-0.67-1.05-0.92c-0.53-0.24-1.17-0.36-1.92-0.36c-0.69,0-1.27,0.11-1.75,0.33s-0.83,0.53-1.05,0.92s-0.33,1.01-0.33,1.86
				c0,0.59,0.08,1.07,0.23,1.45c0.15,0.38,0.35,0.68,0.58,0.89c0.23,0.21,0.71,0.56,1.43,1.04c0.72,0.47,1.17,0.81,1.35,1.01
				s0.27,0.63,0.27,1.28c0,0.3-0.05,0.52-0.14,0.67c-0.09,0.15-0.24,0.23-0.43,0.23s-0.33-0.06-0.4-0.18
				c-0.08-0.12-0.11-0.39-0.11-0.8v-1.35h-2.68v0.73c0,0.83,0.08,1.47,0.25,1.93c0.17,0.46,0.53,0.83,1.07,1.12
				c0.55,0.29,1.21,0.44,1.98,0.44c0.7,0,1.32-0.13,1.85-0.38s0.89-0.57,1.07-0.94c0.18-0.38,0.28-0.96,0.28-1.75
				c0-1.09-0.17-1.88-0.5-2.37s-1.14-1.12-2.43-1.88L370.89,10.43z"/>
			<path d="M384.38,15.17V13.3l-1.51,0.97l-0.98-1.77c0.58-0.58,0.86-1.25,0.86-1.99s-0.24-1.3-0.71-1.76s-1.12-0.69-1.94-0.69
				c-0.92,0-1.63,0.24-2.15,0.71s-0.78,1.09-0.78,1.87c0,0.9,0.37,1.61,1.1,2.13c-0.51,0.21-0.9,0.49-1.15,0.84
				s-0.38,0.82-0.38,1.42c0,0.75,0.22,1.4,0.65,1.93c0.43,0.54,1.05,0.8,1.86,0.8s1.58-0.28,2.44-0.85l0.33,0.62h2.56l-0.97-1.85
				l0.77-0.49L384.38,15.17z M379.71,9.7c0.08-0.1,0.19-0.15,0.34-0.15c0.17,0,0.29,0.07,0.38,0.2s0.14,0.28,0.14,0.44
				c0,0.37-0.16,0.76-0.47,1.17c-0.34-0.37-0.51-0.76-0.51-1.19c0-0.21,0.04-0.36,0.12-0.46V9.7z M379.96,15.94
				c-0.21,0-0.37-0.06-0.47-0.2c-0.11-0.13-0.16-0.33-0.16-0.59c0-0.36,0.17-0.7,0.51-1.01l0.89,1.5c-0.29,0.2-0.55,0.29-0.77,0.29
				L379.96,15.94z"/>
			<path d="M391.02,10.43c-0.45-0.26-0.72-0.49-0.82-0.68c-0.1-0.19-0.15-0.47-0.15-0.84c0-0.29,0.04-0.5,0.13-0.65
				c0.09-0.14,0.22-0.21,0.39-0.21c0.16,0,0.27,0.05,0.34,0.16s0.1,0.35,0.1,0.73v0.82h2.68V9.32c0-0.88-0.09-1.51-0.26-1.88
				s-0.52-0.67-1.05-0.92c-0.53-0.24-1.17-0.36-1.92-0.36c-0.69,0-1.27,0.11-1.75,0.33s-0.83,0.53-1.05,0.92s-0.33,1.01-0.33,1.86
				c0,0.59,0.08,1.07,0.23,1.45c0.15,0.38,0.35,0.68,0.58,0.89c0.23,0.21,0.71,0.56,1.43,1.04c0.72,0.47,1.17,0.81,1.35,1.01
				s0.27,0.63,0.27,1.28c0,0.3-0.05,0.52-0.14,0.67c-0.09,0.15-0.24,0.23-0.43,0.23s-0.33-0.06-0.4-0.18
				c-0.08-0.12-0.11-0.39-0.11-0.8v-1.35h-2.68v0.73c0,0.83,0.08,1.47,0.25,1.93c0.17,0.46,0.53,0.83,1.07,1.12
				c0.55,0.29,1.21,0.44,1.98,0.44c0.7,0,1.32-0.13,1.85-0.38s0.89-0.57,1.07-0.94c0.18-0.38,0.28-0.96,0.28-1.75
				c0-1.09-0.17-1.88-0.5-2.37s-1.14-1.12-2.43-1.88L391.02,10.43z"/>
			<path d="M398.47,14.59c0,0.55-0.03,0.9-0.08,1.05c-0.05,0.15-0.17,0.22-0.35,0.22c-0.16,0-0.27-0.07-0.32-0.2
				c-0.05-0.13-0.08-0.44-0.08-0.93V6.42h-2.89v6.57c0,1.25,0.02,2.07,0.07,2.46c0.04,0.39,0.19,0.76,0.45,1.11
				c0.25,0.35,0.63,0.64,1.14,0.86c0.51,0.22,1.09,0.33,1.75,0.33c0.6,0,1.12-0.09,1.56-0.28c0.44-0.18,0.8-0.46,1.07-0.82
				s0.43-0.71,0.49-1.05c0.05-0.34,0.08-0.93,0.08-1.77V6.41h-2.89V14.59z"/>
			<path d="M408.15,7.14c-0.21-0.23-0.53-0.41-0.95-0.54c-0.42-0.12-1.03-0.18-1.81-0.18h-2.91v11.1h2.89v-4.47h0.77
				c0.63,0,1.14-0.09,1.53-0.26s0.66-0.42,0.81-0.75s0.22-0.84,0.22-1.55V9.52c0-0.7-0.04-1.21-0.11-1.54
				c-0.08-0.33-0.22-0.61-0.43-0.85L408.15,7.14z M406.28,10.14c0,0.41-0.05,0.68-0.15,0.81s-0.29,0.2-0.55,0.2
				c-0.06,0-0.13,0-0.21,0V8.33c0.38,0,0.62,0.06,0.74,0.17s0.18,0.36,0.18,0.74v0.91L406.28,10.14z"/>
			<path d="M415.2,7.14c-0.21-0.23-0.53-0.41-0.95-0.54c-0.42-0.12-1.03-0.18-1.81-0.18h-2.91v11.1h2.89v-4.47h0.77
				c0.63,0,1.14-0.09,1.53-0.26s0.66-0.42,0.81-0.75s0.22-0.84,0.22-1.55V9.52c0-0.7-0.04-1.21-0.11-1.54
				c-0.08-0.33-0.22-0.61-0.43-0.85L415.2,7.14z M413.33,10.14c0,0.41-0.05,0.68-0.15,0.81s-0.29,0.2-0.55,0.2
				c-0.06,0-0.13,0-0.21,0V8.33c0.38,0,0.62,0.06,0.74,0.17s0.18,0.36,0.18,0.74v0.91L413.33,10.14z"/>
			<path d="M422.63,7.35c-0.29-0.39-0.67-0.68-1.14-0.87s-1.01-0.29-1.6-0.29c-0.63,0-1.17,0.1-1.65,0.31
				c-0.47,0.21-0.84,0.5-1.12,0.88s-0.44,0.81-0.49,1.27s-0.08,1.25-0.08,2.37v1.9c0,1.14,0.03,1.94,0.08,2.4s0.23,0.88,0.51,1.27
				c0.29,0.39,0.67,0.68,1.14,0.87s1.01,0.29,1.6,0.29c0.63,0,1.17-0.1,1.65-0.31c0.47-0.21,0.84-0.5,1.12-0.88s0.44-0.81,0.49-1.27
				s0.08-1.25,0.08-2.37v-1.9c0-1.14-0.03-1.94-0.08-2.4S422.91,7.74,422.63,7.35z M420.34,14.37c0,0.65-0.03,1.07-0.08,1.24
				s-0.18,0.26-0.38,0.26s-0.31-0.08-0.37-0.23c-0.05-0.15-0.08-0.55-0.08-1.19V9.27c0-0.57,0.04-0.92,0.12-1.03
				c0.08-0.12,0.2-0.17,0.35-0.17c0.18,0,0.3,0.07,0.35,0.22c0.06,0.14,0.09,0.47,0.09,0.99v5.1L420.34,14.37z"/>
			<path d="M430.42,11.19c0.21-0.3,0.32-0.88,0.32-1.74c0-0.95-0.15-1.63-0.46-2.07c-0.3-0.43-0.7-0.7-1.18-0.81
				s-1.4-0.16-2.77-0.16h-2.04v11.1h2.89v-5c0.4,0,0.64,0.07,0.74,0.21s0.14,0.51,0.14,1.1v3.69h2.68v-2.93
				c0-0.9-0.02-1.44-0.07-1.64c-0.05-0.2-0.17-0.42-0.37-0.65c-0.2-0.24-0.58-0.43-1.15-0.57C429.78,11.66,430.2,11.48,430.42,11.19
				L430.42,11.19z M428.06,9.78c0,0.49-0.07,0.78-0.2,0.87s-0.36,0.13-0.68,0.13V8.31c0.33,0,0.56,0.05,0.69,0.17
				c0.12,0.11,0.19,0.34,0.19,0.69V9.78z"/>
			<polygon points="431.37,8.64 433.08,8.64 433.08,17.51 435.96,17.51 435.96,8.64 437.68,8.64 437.68,6.42 431.37,6.42 			"/>
			<polygon points="441.22,12.85 443.02,12.85 443.02,10.74 441.22,10.74 441.22,8.64 443.15,8.64 443.15,6.42 438.33,6.42 
				438.33,17.51 443.34,17.51 443.34,15.29 441.22,15.29 			"/>
			<path d="M450.33,11.19c0.21-0.3,0.32-0.88,0.32-1.74c0-0.95-0.15-1.63-0.46-2.07c-0.3-0.43-0.7-0.7-1.18-0.81
				s-1.4-0.16-2.77-0.16h-2.04v11.1h2.89v-5c0.4,0,0.64,0.07,0.74,0.21s0.14,0.51,0.14,1.1v3.69h2.68v-2.93
				c0-0.9-0.02-1.44-0.07-1.64c-0.05-0.2-0.17-0.42-0.37-0.65c-0.2-0.24-0.58-0.43-1.15-0.57
				C449.69,11.66,450.11,11.48,450.33,11.19L450.33,11.19z M447.97,9.78c0,0.49-0.07,0.78-0.2,0.87s-0.36,0.13-0.68,0.13V8.31
				c0.33,0,0.56,0.05,0.69,0.17c0.12,0.11,0.19,0.34,0.19,0.69V9.78z"/>
			<path d="M455.2,10.43c-0.45-0.26-0.72-0.49-0.82-0.68c-0.1-0.19-0.15-0.47-0.15-0.84c0-0.29,0.04-0.5,0.13-0.65
				c0.09-0.14,0.22-0.21,0.39-0.21c0.16,0,0.27,0.05,0.34,0.16s0.1,0.35,0.1,0.73v0.82h2.68V9.32c0-0.88-0.09-1.51-0.26-1.88
				s-0.52-0.67-1.05-0.92c-0.53-0.24-1.17-0.36-1.92-0.36c-0.69,0-1.27,0.11-1.75,0.33s-0.83,0.53-1.05,0.92s-0.33,1.01-0.33,1.86
				c0,0.59,0.08,1.07,0.23,1.45c0.15,0.38,0.35,0.68,0.58,0.89c0.23,0.21,0.71,0.56,1.43,1.04c0.72,0.47,1.17,0.81,1.35,1.01
				s0.27,0.63,0.27,1.28c0,0.3-0.05,0.52-0.14,0.67c-0.09,0.15-0.24,0.23-0.43,0.23s-0.33-0.06-0.4-0.18
				c-0.08-0.12-0.11-0.39-0.11-0.8v-1.35h-2.68v0.73c0,0.83,0.08,1.47,0.25,1.93c0.17,0.46,0.53,0.83,1.07,1.12
				c0.55,0.29,1.21,0.44,1.98,0.44c0.7,0,1.32-0.13,1.85-0.38s0.89-0.57,1.07-0.94c0.18-0.38,0.28-0.96,0.28-1.75
				c0-1.09-0.17-1.88-0.5-2.37s-1.14-1.12-2.43-1.88L455.2,10.43z"/>
			<path d="M458.63,17.51h0.47c-0.04,0.26-0.19,0.47-0.47,0.62v0.79c0.38-0.08,0.73-0.23,1.03-0.47c0.3-0.23,0.52-0.52,0.64-0.85
				c0.12-0.33,0.18-0.76,0.18-1.28v-0.99h-1.86v2.17L458.63,17.51z"/>
			<path d="M464.46,6.42l-1.47,11.1h2.98l0.17-2h1.03l0.15,2h2.95l-1.65-11.1h-4.17H464.46z M466.11,13.56
				c0.08-0.98,0.26-2.54,0.55-4.66c0.15,1.85,0.29,3.4,0.44,4.66H466.11z"/>
			<polygon points="474.76,11.41 473.14,6.42 470.73,6.42 470.73,17.51 473.14,17.51 473.14,12.47 474.64,17.51 477.17,17.51 
				477.17,6.42 474.76,6.42 			"/>
			<path d="M484.4,7.24c-0.26-0.29-0.63-0.5-1.12-0.63s-1.43-0.19-2.83-0.19h-2.16v11.1h3.64c0.69,0,1.21-0.04,1.55-0.11
				s0.63-0.21,0.86-0.4c0.23-0.19,0.4-0.45,0.49-0.79s0.14-1,0.14-2v-3.89c0-1.05-0.03-1.76-0.1-2.12
				c-0.06-0.36-0.22-0.68-0.48-0.98L484.4,7.24z M482.09,14.01c0,0.74-0.05,1.19-0.14,1.36c-0.1,0.17-0.35,0.25-0.77,0.25v-7.3
				c0.32,0,0.53,0.03,0.64,0.1s0.19,0.17,0.22,0.31s0.05,0.46,0.05,0.97V14.01z"/>
			<path d="M493.97,6.68c-0.55-0.33-1.25-0.49-2.1-0.49c-0.63,0-1.18,0.11-1.66,0.32s-0.86,0.5-1.13,0.87
				c-0.27,0.37-0.44,0.76-0.49,1.16c-0.05,0.4-0.08,1-0.08,1.8v3.24c0,1.09,0.09,1.9,0.27,2.44s0.54,0.97,1.09,1.27
				c0.55,0.31,1.25,0.46,2.09,0.46s1.5-0.18,2.05-0.54c0.56-0.36,0.91-0.78,1.08-1.26s0.24-1.3,0.24-2.44v-0.43h-2.89v1.4
				c0,0.61-0.03,1-0.1,1.16s-0.21,0.25-0.42,0.25s-0.37-0.08-0.43-0.25c-0.06-0.16-0.1-0.52-0.1-1.06V9.42c0-0.56,0.03-0.93,0.1-1.1
				c0.06-0.17,0.21-0.25,0.45-0.25c0.21,0,0.35,0.07,0.41,0.21s0.09,0.49,0.09,1.05v1.93h2.89v-1.05c0-1.04-0.09-1.8-0.26-2.29
				s-0.54-0.9-1.09-1.23L493.97,6.68z"/>
			<polygon points="500.1,10.38 499.24,10.38 499.24,6.42 496.35,6.42 496.35,17.51 499.24,17.51 499.24,12.85 500.1,12.85 
				500.1,17.51 502.99,17.51 502.99,6.42 500.1,6.42 			"/>
			<polygon points="507.03,12.85 508.84,12.85 508.84,10.74 507.03,10.74 507.03,8.64 508.96,8.64 508.96,6.42 504.15,6.42 
				504.15,17.51 509.15,17.51 509.15,15.29 507.03,15.29 			"/>
			<path d="M516.16,11.19c0.21-0.3,0.32-0.88,0.32-1.74c0-0.95-0.15-1.63-0.46-2.07c-0.3-0.43-0.7-0.7-1.18-0.81
				s-1.4-0.16-2.77-0.16h-2.04v11.1h2.89v-5c0.4,0,0.64,0.07,0.74,0.21s0.14,0.51,0.14,1.1v3.69h2.68v-2.93
				c0-0.9-0.02-1.44-0.07-1.64s-0.17-0.42-0.37-0.65c-0.2-0.24-0.58-0.43-1.15-0.57C515.52,11.66,515.94,11.48,516.16,11.19
				L516.16,11.19z M513.8,9.78c0,0.49-0.07,0.78-0.2,0.87s-0.36,0.13-0.68,0.13V8.31c0.33,0,0.56,0.05,0.69,0.17
				c0.12,0.11,0.19,0.34,0.19,0.69V9.78z"/>
			<rect x="517.6" y="6.42" width="2.89" height="11.1"/>
			<path d="M525.07,10.43c-0.45-0.26-0.72-0.49-0.82-0.68c-0.1-0.19-0.15-0.47-0.15-0.84c0-0.29,0.04-0.5,0.13-0.65
				c0.09-0.14,0.22-0.21,0.39-0.21c0.16,0,0.27,0.05,0.34,0.16s0.1,0.35,0.1,0.73v0.82h2.68V9.32c0-0.88-0.09-1.51-0.26-1.88
				s-0.52-0.67-1.05-0.92c-0.53-0.24-1.17-0.36-1.92-0.36c-0.69,0-1.27,0.11-1.75,0.33s-0.83,0.53-1.05,0.92s-0.33,1.01-0.33,1.86
				c0,0.59,0.08,1.07,0.23,1.45c0.15,0.38,0.35,0.68,0.58,0.89c0.23,0.21,0.71,0.56,1.43,1.04c0.72,0.47,1.17,0.81,1.35,1.01
				s0.27,0.63,0.27,1.28c0,0.3-0.05,0.52-0.14,0.67s-0.24,0.23-0.43,0.23s-0.33-0.06-0.4-0.18c-0.08-0.12-0.11-0.39-0.11-0.8v-1.35
				h-2.68v0.73c0,0.83,0.08,1.47,0.25,1.93c0.17,0.46,0.53,0.83,1.07,1.12c0.55,0.29,1.21,0.44,1.98,0.44c0.7,0,1.32-0.13,1.85-0.38
				s0.89-0.57,1.07-0.94c0.18-0.38,0.28-0.96,0.28-1.75c0-1.09-0.17-1.88-0.5-2.37s-1.14-1.12-2.43-1.88L525.07,10.43z"/>
			<polygon points="532.66,10.38 531.79,10.38 531.79,6.42 528.91,6.42 528.91,17.51 531.79,17.51 531.79,12.85 532.66,12.85 
				532.66,17.51 535.54,17.51 535.54,6.42 532.66,6.42 			"/>
			<polygon points="539.59,12.85 541.39,12.85 541.39,10.74 539.59,10.74 539.59,8.64 541.51,8.64 541.51,6.42 536.7,6.42 
				536.7,17.51 541.7,17.51 541.7,15.29 539.59,15.29 			"/>
			<path d="M548.64,7.24c-0.26-0.29-0.63-0.5-1.12-0.63s-1.43-0.19-2.83-0.19h-2.16v11.1h3.64c0.69,0,1.21-0.04,1.55-0.11
				s0.63-0.21,0.86-0.4s0.4-0.45,0.49-0.79s0.14-1,0.14-2v-3.89c0-1.05-0.03-1.76-0.1-2.12c-0.06-0.36-0.22-0.68-0.48-0.98
				L548.64,7.24z M546.33,14.01c0,0.74-0.05,1.19-0.14,1.36c-0.1,0.17-0.35,0.25-0.77,0.25v-7.3c0.32,0,0.53,0.03,0.64,0.1
				s0.19,0.17,0.22,0.31c0.03,0.14,0.05,0.46,0.05,0.97L546.33,14.01L546.33,14.01z"/>
			<path d="M556.12,8.48c-0.17,1.66-0.33,3.56-0.48,5.7c-0.15-2.12-0.4-4.7-0.76-7.76h-3.04l1.67,11.1h4.38l1.47-11.1h-3.04
				L556.12,8.48z"/>
			<path d="M565.85,7.35c-0.29-0.39-0.67-0.68-1.14-0.87c-0.47-0.19-1.01-0.29-1.6-0.29c-0.63,0-1.17,0.1-1.65,0.31
				c-0.47,0.21-0.84,0.5-1.12,0.88c-0.28,0.38-0.44,0.81-0.49,1.27s-0.08,1.25-0.08,2.37v1.9c0,1.14,0.03,1.94,0.08,2.4
				s0.23,0.88,0.51,1.27c0.29,0.39,0.67,0.68,1.14,0.87s1.01,0.29,1.6,0.29c0.63,0,1.17-0.1,1.65-0.31c0.47-0.21,0.84-0.5,1.12-0.88
				s0.44-0.81,0.49-1.27s0.08-1.25,0.08-2.37v-1.9c0-1.14-0.03-1.94-0.08-2.4S566.13,7.74,565.85,7.35z M563.56,14.37
				c0,0.65-0.03,1.07-0.08,1.24s-0.18,0.26-0.38,0.26s-0.31-0.08-0.37-0.23c-0.05-0.15-0.08-0.55-0.08-1.19V9.27
				c0-0.57,0.04-0.92,0.12-1.03c0.08-0.12,0.2-0.17,0.35-0.17c0.18,0,0.3,0.07,0.35,0.22c0.06,0.14,0.09,0.47,0.09,0.99v5.1
				L563.56,14.37z"/>
			<polygon points="570.41,6.42 567.52,6.42 567.52,17.51 572.16,17.51 572.16,15.29 570.41,15.29 			"/>
			<path d="M576.56,14.59c0,0.55-0.03,0.9-0.08,1.05c-0.05,0.15-0.17,0.22-0.35,0.22c-0.16,0-0.27-0.07-0.32-0.2
				s-0.08-0.44-0.08-0.93V6.42h-2.89v6.57c0,1.25,0.02,2.07,0.07,2.46c0.04,0.39,0.19,0.76,0.45,1.11c0.25,0.35,0.63,0.64,1.14,0.86
				c0.51,0.22,1.09,0.33,1.75,0.33c0.6,0,1.12-0.09,1.56-0.28c0.44-0.18,0.8-0.46,1.07-0.82s0.43-0.71,0.49-1.05
				c0.05-0.34,0.08-0.93,0.08-1.77V6.41h-2.89V14.59z"/>
			<polygon points="584.6,11.41 582.98,6.42 580.57,6.42 580.57,17.51 582.98,17.51 582.98,12.47 584.48,17.51 587.01,17.51 
				587.01,6.42 584.6,6.42 			"/>
			<polygon points="587.64,8.64 589.34,8.64 589.34,17.51 592.23,17.51 592.23,8.64 593.94,8.64 593.94,6.42 587.64,6.42 			"/>
			<polygon points="597.49,12.85 599.29,12.85 599.29,10.74 597.49,10.74 597.49,8.64 599.41,8.64 599.41,6.42 594.6,6.42 
				594.6,17.51 599.61,17.51 599.61,15.29 597.49,15.29 			"/>
			<polygon points="603.35,12.85 605.15,12.85 605.15,10.74 603.35,10.74 603.35,8.64 605.28,8.64 605.28,6.42 600.46,6.42 
				600.46,17.51 605.47,17.51 605.47,15.29 603.35,15.29 			"/>
			<path d="M612.42,11.19c0.21-0.3,0.32-0.88,0.32-1.74c0-0.95-0.15-1.63-0.46-2.07c-0.3-0.43-0.7-0.7-1.18-0.81
				s-1.4-0.16-2.77-0.16h-2.04v11.1h2.89v-5c0.4,0,0.64,0.07,0.74,0.21s0.14,0.51,0.14,1.1v3.69h2.68v-2.93
				c0-0.9-0.02-1.44-0.07-1.64s-0.17-0.42-0.37-0.65c-0.2-0.24-0.58-0.43-1.15-0.57C611.78,11.66,612.2,11.48,612.42,11.19z
				 M610.06,9.78c0,0.49-0.07,0.78-0.2,0.87s-0.36,0.13-0.68,0.13V8.31c0.33,0,0.56,0.05,0.69,0.17c0.12,0.11,0.19,0.34,0.19,0.69
				V9.78z"/>
			<path d="M617.29,10.43c-0.45-0.26-0.72-0.49-0.82-0.68c-0.1-0.19-0.15-0.47-0.15-0.84c0-0.29,0.04-0.5,0.13-0.65
				c0.09-0.14,0.22-0.21,0.39-0.21c0.16,0,0.27,0.05,0.34,0.16s0.1,0.35,0.1,0.73v0.82h2.68V9.32c0-0.88-0.09-1.51-0.26-1.88
				s-0.52-0.67-1.05-0.92c-0.53-0.24-1.17-0.36-1.92-0.36c-0.69,0-1.27,0.11-1.75,0.33s-0.83,0.53-1.05,0.92s-0.33,1.01-0.33,1.86
				c0,0.59,0.08,1.07,0.23,1.45c0.15,0.38,0.35,0.68,0.58,0.89c0.23,0.21,0.71,0.56,1.43,1.04c0.72,0.47,1.17,0.81,1.35,1.01
				s0.27,0.63,0.27,1.28c0,0.3-0.05,0.52-0.14,0.67s-0.24,0.23-0.43,0.23s-0.33-0.06-0.4-0.18c-0.08-0.12-0.11-0.39-0.11-0.8v-1.35
				h-2.68v0.73c0,0.83,0.08,1.47,0.25,1.93c0.17,0.46,0.53,0.83,1.07,1.12c0.55,0.29,1.21,0.44,1.98,0.44c0.7,0,1.32-0.13,1.85-0.38
				s0.89-0.57,1.07-0.94c0.18-0.38,0.28-0.96,0.28-1.75c0-1.09-0.17-1.88-0.5-2.37s-1.14-1.12-2.43-1.88L617.29,10.43z"/>
			<rect x="621.04" y="10.29" width="2.09" height="2.25"/>
			<rect x="621.04" y="15.25" width="2.09" height="2.26"/>
			<polygon points="625.98,8.64 627.69,8.64 627.69,17.51 630.57,17.51 630.57,8.64 632.29,8.64 632.29,6.42 625.98,6.42 			"/>
			<polygon points="636.7,10.38 635.83,10.38 635.83,6.42 632.95,6.42 632.95,17.51 635.83,17.51 635.83,12.85 636.7,12.85 
				636.7,17.51 639.58,17.51 639.58,6.42 636.7,6.42 			"/>
			<path d="M641.56,6.42l-1.47,11.1h2.98l0.17-2h1.03l0.15,2h2.95l-1.65-11.1h-4.17H641.56z M643.21,13.56
				c0.08-0.98,0.26-2.54,0.55-4.66c0.15,1.85,0.29,3.4,0.44,4.66H643.21z"/>
			<polygon points="651.9,11.41 650.28,6.42 647.87,6.42 647.87,17.51 650.28,17.51 650.28,12.47 651.78,17.51 654.31,17.51 
				654.31,6.42 651.9,6.42 			"/>
			<polygon points="662.28,6.42 659.57,6.42 658.29,10.73 658.29,6.42 655.4,6.42 655.4,17.51 658.29,17.51 658.29,12.76 
				659.46,17.51 662.44,17.51 660.63,11.43 			"/>
			<path d="M668.15,10.79c-0.05-0.75-0.29-2.21-0.7-4.37h-2.65l2.03,7.08v4.02h2.67V13.5l2.11-7.08h-2.65
				c-0.38,1.73-0.64,3.19-0.8,4.37H668.15z"/>
			<path d="M678.09,7.35c-0.29-0.39-0.67-0.68-1.14-0.87c-0.47-0.19-1.01-0.29-1.6-0.29c-0.63,0-1.17,0.1-1.65,0.31
				c-0.47,0.21-0.84,0.5-1.12,0.88c-0.28,0.38-0.44,0.81-0.49,1.27s-0.08,1.25-0.08,2.37v1.9c0,1.14,0.03,1.94,0.08,2.4
				s0.23,0.88,0.51,1.27c0.29,0.39,0.67,0.68,1.14,0.87s1.01,0.29,1.6,0.29c0.63,0,1.17-0.1,1.65-0.31c0.47-0.21,0.84-0.5,1.12-0.88
				s0.44-0.81,0.49-1.27s0.08-1.25,0.08-2.37v-1.9c0-1.14-0.03-1.94-0.08-2.4S678.37,7.74,678.09,7.35z M675.8,14.37
				c0,0.65-0.03,1.07-0.08,1.24s-0.18,0.26-0.38,0.26s-0.31-0.08-0.37-0.23c-0.05-0.15-0.08-0.55-0.08-1.19V9.27
				c0-0.57,0.04-0.92,0.12-1.03c0.08-0.12,0.2-0.17,0.35-0.17c0.18,0,0.3,0.07,0.35,0.22c0.06,0.14,0.09,0.47,0.09,0.99v5.1
				L675.8,14.37z"/>
			<path d="M683.44,14.59c0,0.55-0.03,0.9-0.08,1.05c-0.05,0.15-0.17,0.22-0.35,0.22c-0.16,0-0.27-0.07-0.32-0.2
				s-0.08-0.44-0.08-0.93V6.42h-2.89v6.57c0,1.25,0.02,2.07,0.07,2.46c0.04,0.39,0.19,0.76,0.45,1.11c0.25,0.35,0.63,0.64,1.14,0.86
				c0.51,0.22,1.09,0.33,1.75,0.33c0.6,0,1.12-0.09,1.56-0.28c0.44-0.18,0.8-0.46,1.07-0.82s0.43-0.71,0.49-1.05
				c0.05-0.34,0.08-0.93,0.08-1.77V6.41h-2.89V14.59z"/>
			<rect x="687.12" y="15.25" width="2.09" height="2.26"/>
		</g>
		<rect y="0" class="st0" width="701.51" height="35.68"/>
	</g>
</g>
</svg>
