<?xml version="1.0" encoding="utf-8"?>
<!-- Generator: Adobe Illustrator 25.4.1, SVG Export Plug-In . SVG Version: 6.00 Build 0)  -->
<svg version="1.1" id="Capa_2_00000154405737193516147310000012071051375357171135_"
	 xmlns="http://www.w3.org/2000/svg" xmlns:xlink="http://www.w3.org/1999/xlink" x="0px" y="0px" width="699.97px"
	 height="53.37px" viewBox="0 0 699.97 53.37" style="enable-background:new 0 0 699.97 53.37;" xml:space="preserve">
<g id="Capa_1-2">
	<g>
		<path d="M23.17,26.41c-1-1.26-2.11-2.48-3.31-3.62L14,17.16c-1.05-1-1.76-1.87-2.09-2.6c-0.33-0.71-0.5-1.37-0.5-1.95
			c0-0.51,0.12-0.91,0.37-1.21c0.2-0.25,0.58-0.37,1.12-0.37c0.45,0,0.78,0.11,1.01,0.34c0.23,0.22,0.34,0.55,0.34,1.01v4.33h12.01
			v-0.84c0-5.23-1.05-9.2-3.11-11.83C21.04,1.36,17.49,0,12.58,0C8.54,0,5.39,1.24,3.23,3.69C1.08,6.1,0,9.62,0,14.14
			s1.81,8.27,5.37,11.63l4.56,4.33c1.31,1.24,2.35,2.33,3.08,3.24c0.69,0.86,1.17,1.77,1.45,2.71c0.28,0.97,0.43,2.2,0.43,3.67
			c0,1.39-0.25,1.97-0.39,2.19c-0.07,0.11-0.28,0.43-1.21,0.43c-0.72,0-0.97-0.28-1.12-0.55c-0.29-0.54-0.43-1.33-0.43-2.35v-7.19H0
			v5.8c0,5.23,1.11,9.12,3.29,11.58c2.21,2.49,5.79,3.75,10.65,3.75s7.98-1.49,9.89-4.44c1.84-2.83,2.78-6.75,2.78-11.66
			c0-2.45-0.32-4.57-0.95-6.3c-0.62-1.72-1.46-3.26-2.5-4.56L23.17,26.41z"/>
		<path d="M49.35,2.51c-1.79-1.36-4.21-2.05-7.19-2.05H27.91v52.45h11.67v-20.1h3.28c2.99,0,5.36-0.69,7.04-2.06
			c1.66-1.36,2.83-3.29,3.47-5.73c0.61-2.34,0.92-5.11,0.92-8.25s-0.37-6.12-1.1-8.5c-0.76-2.47-2.05-4.41-3.83-5.76L49.35,2.51z
			 M39.57,11.41h0.28c1.55,0,1.97,0.59,2.14,1.04c0.37,0.94,0.56,2.34,0.56,4.15c0,1.94-0.19,3.41-0.57,4.36
			c-0.26,0.66-1.07,1.01-2.41,1.05V11.42V11.41z"/>
		<path d="M68.33,0c-4.32,0-7.66,1.22-9.94,3.64c-2.27,2.4-3.42,5.92-3.42,10.47v24.11c0,4.82,1.15,8.58,3.42,11.18
			c2.3,2.63,5.64,3.97,9.94,3.97s7.63-1.33,9.94-3.97c2.27-2.6,3.42-6.36,3.42-11.18V14.11c0-4.55-1.15-8.07-3.42-10.47
			C75.99,1.22,72.64,0,68.33,0z M68.42,42.34c-0.74,0-1.01-0.32-1.17-0.59c-0.21-0.38-0.47-1.2-0.47-2.97V14.02
			c0-2.99,1.19-2.99,1.69-2.99c0.38,0,1.41,0,1.41,2.91v24.77C69.88,41.12,69.39,42.34,68.42,42.34z"/>
		<polygon points="98.66,16.76 95.53,0.46 83.55,0.46 83.55,52.91 95.16,52.91 95.16,35.21 98.7,52.91 110.16,52.91 110.16,0.46 
			98.66,0.46 		"/>
		<path d="M134.62,26.41c-1-1.26-2.11-2.48-3.31-3.62l-5.86-5.63c-1.05-1-1.76-1.87-2.09-2.6c-0.33-0.71-0.5-1.37-0.5-1.95
			c0-0.51,0.12-0.91,0.37-1.21c0.2-0.25,0.58-0.37,1.12-0.37c0.45,0,0.78,0.11,1.01,0.34c0.23,0.22,0.34,0.55,0.34,1.01v4.33h12.01
			v-0.84c0-5.23-1.05-9.2-3.11-11.83C132.49,1.36,128.93,0,124.03,0c-4.04,0-7.19,1.24-9.36,3.69c-2.14,2.42-3.23,5.93-3.23,10.45
			s1.81,8.27,5.37,11.63l4.56,4.33c1.31,1.24,2.35,2.33,3.08,3.24c0.69,0.86,1.17,1.77,1.45,2.71c0.28,0.97,0.43,2.2,0.43,3.67
			c0,1.39-0.25,1.97-0.39,2.19c-0.07,0.11-0.28,0.43-1.21,0.43c-0.72,0-0.97-0.28-1.12-0.55c-0.29-0.54-0.43-1.33-0.43-2.35v-7.19
			h-11.72v5.8c0,5.23,1.11,9.12,3.29,11.58c2.21,2.49,5.79,3.75,10.65,3.75c4.86,0,7.98-1.49,9.89-4.44
			c1.84-2.83,2.78-6.75,2.78-11.66c0-2.45-0.32-4.57-0.95-6.3c-0.62-1.72-1.46-3.26-2.5-4.56L134.62,26.41z"/>
		<path d="M152.2,0c-4.32,0-7.66,1.22-9.94,3.64c-2.27,2.4-3.42,5.92-3.42,10.47v24.11c0,4.82,1.15,8.58,3.42,11.18
			c2.3,2.63,5.64,3.97,9.94,3.97s7.63-1.33,9.94-3.97c2.27-2.6,3.42-6.36,3.42-11.18V14.11c0-4.55-1.15-8.07-3.42-10.47
			C159.86,1.22,156.51,0,152.2,0z M152.29,42.34c-0.74,0-1.01-0.32-1.17-0.59c-0.21-0.38-0.47-1.2-0.47-2.97V14.02
			c0-2.99,1.19-2.99,1.69-2.99c0.38,0,1.41,0,1.41,2.91v24.77C153.75,41.12,153.26,42.34,152.29,42.34z"/>
		<path d="M192.67,22.49c0.74-1.75,1.12-4.09,1.12-6.96s-0.23-5.48-0.7-7.66c-0.49-2.29-1.47-4.12-2.93-5.41
			c-1.48-1.32-3.65-1.99-6.44-1.99H167.3v52.45h11.96V29.79c0.92,0.07,1.4,0.24,1.66,0.39c0.24,0.14,0.49,0.75,0.49,2.03v20.71
			h11.69V32.87c0-2.12-0.36-3.9-1.06-5.27c-0.45-0.88-1.1-1.58-1.94-2.07c1.17-0.74,2.04-1.75,2.57-3.02L192.67,22.49z
			 M179.31,11.55h1.52c0.66,0,0.86,0.23,0.97,0.46c0.14,0.28,0.37,1.11,0.37,3.52c0,1.4-0.16,3.74-1.26,3.74h-1.61v-7.71
			L179.31,11.55z"/>
		<path d="M217.01,26.41c-1-1.26-2.11-2.48-3.31-3.62l-5.86-5.63c-1.05-1-1.76-1.87-2.09-2.6c-0.33-0.71-0.5-1.37-0.5-1.95
			c0-0.51,0.12-0.91,0.37-1.21c0.2-0.25,0.58-0.37,1.12-0.37c0.45,0,0.78,0.11,1.01,0.34c0.23,0.22,0.34,0.55,0.34,1.01v4.33h12.01
			v-0.84c0-5.23-1.05-9.2-3.11-11.83C214.88,1.36,211.32,0,206.42,0c-4.04,0-7.19,1.24-9.36,3.69c-2.14,2.42-3.23,5.93-3.23,10.45
			s1.81,8.27,5.37,11.63l4.56,4.33c1.31,1.24,2.35,2.33,3.08,3.24c0.69,0.86,1.17,1.77,1.45,2.71c0.28,0.97,0.43,2.2,0.43,3.67
			c0,1.39-0.25,1.97-0.39,2.19c-0.07,0.11-0.28,0.43-1.21,0.43c-0.72,0-0.97-0.28-1.12-0.55c-0.29-0.54-0.43-1.33-0.43-2.35v-7.19
			h-11.72v5.8c0,5.23,1.11,9.12,3.29,11.58c2.21,2.49,5.79,3.75,10.65,3.75s7.98-1.49,9.89-4.44c1.84-2.83,2.78-6.75,2.78-11.66
			c0-2.45-0.32-4.57-0.95-6.3c-0.62-1.72-1.46-3.26-2.5-4.56L217.01,26.41z"/>
		<polygon points="236.52,18.6 233.42,18.6 233.42,0.46 221.64,0.46 221.64,52.91 233.42,52.91 233.42,29.89 236.52,29.89 
			236.52,52.91 248.3,52.91 248.3,0.46 236.52,0.46 		"/>
		<rect x="250.12" y="0.46" width="11.49" height="52.45"/>
		<path d="M285.08,2.51c-1.79-1.36-4.21-2.05-7.19-2.05h-14.25v52.45h11.67v-20.1h3.28c2.99,0,5.36-0.69,7.04-2.06
			c1.66-1.36,2.83-3.29,3.47-5.73c0.61-2.34,0.92-5.11,0.92-8.25s-0.37-6.12-1.1-8.5c-0.76-2.47-2.05-4.41-3.83-5.76L285.08,2.51z
			 M275.3,11.41h0.28c1.55,0,1.97,0.59,2.14,1.04c0.37,0.94,0.56,2.34,0.56,4.15c0,1.94-0.19,3.41-0.57,4.36
			c-0.26,0.66-1.07,1.01-2.41,1.05V11.42V11.41z"/>
		<path d="M326.4,26.41c-1-1.26-2.11-2.48-3.31-3.62l-5.86-5.63c-1.05-1-1.76-1.87-2.09-2.6c-0.33-0.71-0.5-1.37-0.5-1.95
			c0-0.51,0.12-0.91,0.37-1.21c0.2-0.25,0.58-0.37,1.12-0.37c0.45,0,0.78,0.11,1.01,0.34c0.23,0.22,0.34,0.55,0.34,1.01v4.33h12.01
			v-0.84c0-5.23-1.05-9.2-3.11-11.83C324.27,1.36,320.71,0,315.81,0c-4.04,0-7.19,1.24-9.36,3.69c-2.14,2.42-3.23,5.93-3.23,10.45
			s1.81,8.27,5.37,11.63l4.56,4.33c1.31,1.24,2.35,2.33,3.08,3.24c0.69,0.86,1.17,1.77,1.45,2.71c0.28,0.97,0.43,2.2,0.43,3.67
			c0,1.39-0.25,1.97-0.39,2.19c-0.07,0.11-0.28,0.43-1.21,0.43c-0.72,0-0.97-0.28-1.12-0.55c-0.29-0.54-0.43-1.33-0.43-2.35v-7.19
			h-11.72v5.8c0,5.23,1.11,9.12,3.29,11.58c2.21,2.49,5.79,3.75,10.65,3.75s7.98-1.49,9.89-4.44c1.84-2.83,2.78-6.75,2.78-11.66
			c0-2.45-0.32-4.57-0.95-6.3c-0.62-1.72-1.46-3.26-2.5-4.56L326.4,26.41z"/>
		<path d="M345.36,38.08c0,0.81-0.04,1.6-0.12,2.36c-0.07,0.64-0.24,1.15-0.5,1.52c-0.07,0.09-0.27,0.38-1.01,0.38
			c-0.64,0-0.86-0.22-0.98-0.39c-0.27-0.38-0.44-0.9-0.52-1.54c-0.09-0.74-0.14-1.52-0.14-2.33V0.46h-11.55v38.02
			c0,4.8,1.08,8.51,3.2,11.03c2.16,2.56,5.52,3.86,9.99,3.86s7.83-1.3,9.99-3.86c2.12-2.52,3.2-6.23,3.2-11.03V0.46h-11.55v37.61
			L345.36,38.08z"/>
		<path d="M380.96,23.8c0.99-0.6,1.8-1.42,2.4-2.47c0.93-1.6,1.4-3.7,1.4-6.22v-2.22c0-4.33-0.93-7.52-2.75-9.47
			c-1.84-1.97-4.76-2.96-8.68-2.96h-14.6v52.45h14.6c3.17,0,5.67-0.76,7.44-2.25c1.75-1.47,2.96-3.55,3.62-6.18
			c0.63-2.52,0.95-5.49,0.95-8.83c0-3.14-0.41-5.85-1.22-8.06c-0.62-1.69-1.68-2.96-3.15-3.79H380.96z M370.34,29.2h1.03
			c1.14,0,1.51,0.46,1.69,0.8c0.37,0.71,0.55,1.73,0.55,3.03v6.34c0,2.04-0.93,2.91-3.11,2.91c-0.05,0-0.11,0-0.17,0V29.2H370.34z
			 M372.95,16.7c0,0.91-0.12,1.7-0.35,2.33c-0.07,0.19-0.2,0.54-1.02,0.54h-1.23V9.98h1.29c0.67,0,1.32,0.12,1.32,1.61v5.1
			L372.95,16.7z"/>
		<polygon points="407,26.06 403.47,0.46 386.43,0.46 386.43,52.91 397.29,52.91 397.29,25.56 401.9,52.91 412.45,52.91 
			416.71,26.15 416.71,52.91 427.69,52.91 427.69,0.46 410.5,0.46 		"/>
		<rect x="429.14" y="0.46" width="11.49" height="52.45"/>
		<path d="M464.79,26.41c-1-1.26-2.11-2.48-3.31-3.62l-5.86-5.63c-1.05-1-1.76-1.87-2.09-2.6c-0.33-0.71-0.5-1.37-0.5-1.95
			c0-0.51,0.12-0.91,0.37-1.21c0.2-0.25,0.58-0.37,1.12-0.37c0.45,0,0.78,0.11,1.01,0.34c0.23,0.22,0.34,0.55,0.34,1.01v4.33h12.01
			v-0.84c0-5.23-1.05-9.2-3.11-11.83C462.66,1.36,459.1,0,454.2,0c-4.04,0-7.19,1.24-9.36,3.69c-2.14,2.42-3.23,5.93-3.23,10.45
			s1.81,8.27,5.37,11.63l4.56,4.33c1.31,1.24,2.35,2.33,3.08,3.24c0.69,0.86,1.17,1.77,1.45,2.71c0.28,0.97,0.43,2.2,0.43,3.67
			c0,1.39-0.25,1.97-0.39,2.19c-0.07,0.11-0.28,0.43-1.21,0.43c-0.72,0-0.97-0.28-1.12-0.55c-0.29-0.54-0.43-1.33-0.43-2.35v-7.19
			h-11.72v5.8c0,5.23,1.11,9.12,3.29,11.58c2.21,2.49,5.79,3.75,10.65,3.75s7.98-1.49,9.89-4.44c1.84-2.83,2.78-6.75,2.78-11.66
			c0-2.45-0.32-4.57-0.95-6.3c-0.62-1.72-1.46-3.26-2.5-4.56L464.79,26.41z"/>
		<path d="M491.54,26.41c-1-1.26-2.11-2.48-3.31-3.62l-5.86-5.63c-1.05-1-1.76-1.87-2.09-2.6c-0.33-0.71-0.5-1.37-0.5-1.95
			c0-0.51,0.12-0.91,0.37-1.21c0.2-0.25,0.58-0.37,1.12-0.37c0.45,0,0.78,0.11,1.01,0.34c0.23,0.22,0.34,0.55,0.34,1.01v4.33h12.01
			v-0.84c0-5.23-1.05-9.2-3.11-11.83C489.41,1.36,485.85,0,480.95,0c-4.04,0-7.19,1.24-9.36,3.69c-2.14,2.42-3.23,5.93-3.23,10.45
			s1.81,8.27,5.37,11.63l4.56,4.33c1.31,1.24,2.35,2.33,3.08,3.24c0.69,0.86,1.17,1.77,1.45,2.71c0.28,0.97,0.43,2.2,0.43,3.67
			c0,1.39-0.25,1.97-0.39,2.19c-0.07,0.11-0.28,0.43-1.21,0.43c-0.72,0-0.97-0.28-1.12-0.55c-0.29-0.54-0.43-1.33-0.43-2.35v-7.19
			h-11.72v5.8c0,5.23,1.11,9.12,3.29,11.58c2.21,2.49,5.79,3.75,10.65,3.75s7.98-1.49,9.89-4.44c1.84-2.83,2.78-6.75,2.78-11.66
			c0-2.45-0.32-4.57-0.95-6.3c-0.62-1.72-1.46-3.26-2.5-4.56L491.54,26.41z"/>
		<rect x="495.71" y="0.46" width="11.49" height="52.45"/>
		<path d="M522.18,0c-4.32,0-7.66,1.22-9.94,3.64c-2.27,2.4-3.42,5.92-3.42,10.47v24.11c0,4.82,1.15,8.58,3.42,11.18
			c2.3,2.63,5.64,3.97,9.94,3.97s7.63-1.33,9.94-3.97c2.27-2.6,3.42-6.36,3.42-11.18V14.11c0-4.55-1.15-8.07-3.42-10.47
			C529.84,1.22,526.49,0,522.18,0z M522.27,42.34c-0.74,0-1.01-0.32-1.17-0.59c-0.21-0.38-0.47-1.2-0.47-2.97V14.02
			c0-2.99,1.19-2.99,1.69-2.99c0.38,0,1.41,0,1.41,2.91v24.77C523.73,41.12,523.24,42.34,522.27,42.34z"/>
		<polygon points="552.51,16.76 549.38,0.46 537.4,0.46 537.4,52.91 549.01,52.91 549.01,35.21 552.55,52.91 564,52.91 564,0.46 
			552.51,0.46 		"/>
		<polygon points="579.57,52.91 591.47,52.91 591.47,29.89 601.04,29.89 601.04,18.43 591.47,18.43 591.47,12.04 601.56,12.04 
			601.56,0.46 579.57,0.46 		"/>
		<path d="M615.8,0c-4.32,0-7.66,1.22-9.94,3.64c-2.27,2.4-3.42,5.92-3.42,10.47v24.11c0,4.82,1.15,8.58,3.42,11.18
			c2.3,2.63,5.64,3.97,9.94,3.97s7.63-1.33,9.94-3.97c2.27-2.6,3.42-6.36,3.42-11.18V14.11c0-4.55-1.15-8.07-3.42-10.47
			C623.46,1.22,620.11,0,615.8,0z M615.89,42.34c-0.74,0-1.01-0.32-1.17-0.59c-0.21-0.38-0.47-1.2-0.47-2.97V14.02
			c0-2.99,1.19-2.99,1.69-2.99c0.38,0,1.41,0,1.41,2.91v24.77C617.35,41.12,616.86,42.34,615.89,42.34z"/>
		<path d="M656.5,22.49c0.74-1.75,1.12-4.09,1.12-6.96s-0.23-5.48-0.7-7.66c-0.49-2.29-1.47-4.12-2.93-5.41
			c-1.48-1.32-3.65-1.99-6.44-1.99h-16.42v52.45h11.96V29.79c0.92,0.07,1.4,0.24,1.66,0.39c0.24,0.14,0.49,0.75,0.49,2.03v20.71
			h11.69V32.87c0-2.12-0.36-3.9-1.06-5.27c-0.45-0.88-1.1-1.58-1.94-2.07c1.17-0.74,2.04-1.75,2.57-3.02V22.49z M643.14,11.55h1.52
			c0.66,0,0.86,0.23,0.97,0.46c0.14,0.28,0.37,1.11,0.37,3.52c0,1.4-0.16,3.74-1.26,3.74h-1.61v-7.71L643.14,11.55z"/>
		<polygon points="682.79,0.46 679.28,26.06 675.75,0.46 658.71,0.46 658.71,52.91 669.57,52.91 669.57,25.56 674.19,52.91 
			684.73,52.91 689,26.15 689,52.91 699.97,52.91 699.97,0.46 		"/>
	</g>
</g>
</svg>
