<?xml version="1.0" encoding="utf-8"?>
<!-- Generator: Adobe Illustrator 25.4.1, SVG Export Plug-In . SVG Version: 6.00 Build 0)  -->
<svg version="1.1" id="Capa_2_00000103238373210241969010000013927684127218101134_"
	 xmlns="http://www.w3.org/2000/svg" xmlns:xlink="http://www.w3.org/1999/xlink" x="0px" y="0px" width="702.78px"
	 height="56.38px" viewBox="0 0 702.78 56.38" style="enable-background:new 0 0 702.78 56.38;" xml:space="preserve">
<g id="Capa_1-2">
	<g>
		<path d="M22.65,2.65c-1.89-1.44-4.44-2.16-7.59-2.16H0V55.9h12.33V34.66h3.47c3.16,0,5.67-0.73,7.43-2.18
			c1.76-1.44,2.99-3.47,3.67-6.06c0.65-2.47,0.97-5.4,0.97-8.71s-0.39-6.46-1.17-8.98c-0.8-2.61-2.17-4.65-4.04-6.08L22.65,2.65z
			 M12.32,12.05h0.3c1.64,0,2.08,0.63,2.26,1.1c0.39,1,0.59,2.47,0.59,4.38c0,2.05-0.2,3.6-0.61,4.6c-0.28,0.7-1.13,1.07-2.55,1.11
			V12.05L12.32,12.05z"/>
		<path d="M55.82,23.76C56.6,21.91,57,19.44,57,16.4s-0.25-5.8-0.74-8.09c-0.52-2.42-1.56-4.35-3.1-5.72
			c-1.56-1.39-3.85-2.1-6.81-2.1H29.01V55.9h12.63V31.46c0.97,0.07,1.48,0.25,1.75,0.41c0.25,0.15,0.52,0.79,0.52,2.14v21.88h12.36
			V34.71c0-2.24-0.38-4.12-1.12-5.57c-0.48-0.93-1.16-1.67-2.05-2.19C54.34,26.17,55.25,25.1,55.82,23.76z M41.71,12.21h1.61
			c0.7,0,0.91,0.24,1.03,0.48c0.15,0.29,0.39,1.17,0.39,3.72c0,1.48-0.17,3.95-1.33,3.95h-1.7C41.71,20.36,41.71,12.21,41.71,12.21z
			"/>
		<path d="M71.97,0c-4.56,0-8.1,1.29-10.5,3.84c-2.4,2.54-3.61,6.26-3.61,11.06v25.47c0,5.1,1.22,9.07,3.62,11.81
			c2.43,2.78,5.96,4.19,10.5,4.19s8.07-1.41,10.5-4.19c2.4-2.75,3.62-6.72,3.62-11.81V14.91c0-4.8-1.21-8.53-3.61-11.06
			c-2.41-2.55-5.94-3.84-10.5-3.84L71.97,0z M72.06,44.73c-0.78,0-1.07-0.34-1.23-0.63c-0.23-0.4-0.49-1.27-0.49-3.14V14.82
			c0-3.16,1.25-3.16,1.79-3.16c0.41,0,1.48,0,1.48,3.07V40.9C73.61,43.44,73.09,44.73,72.06,44.73z"/>
		<polygon points="109.9,27.53 106.17,0.49 88.17,0.49 88.17,55.9 99.64,55.9 99.64,27.01 104.52,55.9 115.66,55.9 120.16,27.63 
			120.16,55.9 131.76,55.9 131.76,0.49 113.6,0.49 		"/>
		<path d="M147.6,0c-4.56,0-8.1,1.29-10.5,3.84c-2.4,2.54-3.61,6.26-3.61,11.06v25.47c0,5.1,1.22,9.07,3.62,11.81
			c2.43,2.78,5.96,4.19,10.5,4.19s8.07-1.41,10.5-4.19c2.4-2.75,3.62-6.72,3.62-11.81V14.91c0-4.8-1.21-8.53-3.61-11.06
			c-2.41-2.55-5.94-3.84-10.5-3.84L147.6,0z M147.69,44.73c-0.78,0-1.07-0.34-1.23-0.63c-0.23-0.4-0.49-1.27-0.49-3.14V14.82
			c0-3.16,1.25-3.16,1.79-3.16c0.41,0,1.48,0,1.48,3.07V40.9C149.24,43.44,148.72,44.73,147.69,44.73L147.69,44.73z"/>
		<polygon points="161.78,12.57 168.15,12.57 168.15,55.9 180.66,55.9 180.66,12.57 187.03,12.57 187.03,0.49 161.78,0.49 		"/>
		<polygon points="200.58,33.17 210.69,33.17 210.69,21.3 200.58,21.3 200.58,12.63 211.12,12.63 211.12,0.49 187.89,0.49 
			187.89,55.9 211.82,55.9 211.82,43.66 200.58,43.66 		"/>
		<path d="M239.9,23.76c0.78-1.85,1.18-4.32,1.18-7.36s-0.25-5.8-0.74-8.09c-0.52-2.42-1.56-4.35-3.1-5.72
			c-1.56-1.39-3.85-2.1-6.81-2.1h-17.34V55.9h12.63V31.46c0.97,0.07,1.48,0.25,1.75,0.41c0.25,0.15,0.52,0.79,0.52,2.14v21.88h12.36
			V34.71c0-2.24-0.38-4.12-1.12-5.57c-0.48-0.93-1.16-1.67-2.05-2.19C238.42,26.17,239.33,25.1,239.9,23.76z M225.79,12.21h1.61
			c0.7,0,0.91,0.24,1.03,0.48c0.15,0.29,0.39,1.17,0.39,3.72c0,1.48-0.17,3.95-1.33,3.95h-1.7
			C225.79,20.36,225.79,12.21,225.79,12.21z"/>
		<path d="M265.74,27.9c-1.05-1.33-2.23-2.62-3.49-3.82l-6.19-5.95c-1.11-1.05-1.86-1.98-2.21-2.75c-0.35-0.75-0.53-1.44-0.53-2.06
			c0-0.54,0.13-0.96,0.39-1.27c0.08-0.1,0.33-0.39,1.19-0.39c0.47,0,0.82,0.12,1.07,0.35c0.24,0.23,0.36,0.58,0.36,1.07v4.58h12.69
			v-0.89c0-5.52-1.1-9.73-3.28-12.5C263.51,1.44,259.75,0,254.57,0c-4.27,0-7.6,1.31-9.88,3.9c-2.26,2.55-3.41,6.27-3.41,11.04
			s1.91,8.74,5.67,12.29l4.82,4.57c1.38,1.31,2.48,2.46,3.25,3.43c0.73,0.91,1.24,1.87,1.53,2.86c0.3,1.02,0.45,2.33,0.45,3.88
			c0,1.39-0.23,2.02-0.42,2.31c-0.07,0.11-0.3,0.45-1.28,0.45c-0.76,0-1.03-0.29-1.18-0.58c-0.3-0.57-0.46-1.4-0.46-2.49v-7.59
			h-12.39v6.13c0,5.52,1.17,9.64,3.47,12.23c2.33,2.62,6.12,3.96,11.25,3.96s8.43-1.58,10.45-4.69c1.95-2.99,2.93-7.13,2.93-12.32
			c0-2.59-0.34-4.83-1-6.66c-0.66-1.82-1.55-3.44-2.64-4.82L265.74,27.9z"/>
		<path d="M307.98,27.9c-1.05-1.33-2.23-2.62-3.49-3.82l-6.19-5.95c-1.11-1.05-1.86-1.98-2.21-2.75c-0.35-0.75-0.53-1.44-0.53-2.06
			c0-0.54,0.13-0.96,0.39-1.27c0.08-0.1,0.33-0.39,1.19-0.39c0.47,0,0.82,0.12,1.07,0.35c0.24,0.23,0.36,0.58,0.36,1.07v4.58h12.69
			v-0.89c0-5.52-1.1-9.73-3.28-12.5C305.75,1.44,301.99,0,296.81,0c-4.27,0-7.6,1.31-9.88,3.9c-2.26,2.55-3.41,6.27-3.41,11.04
			s1.91,8.74,5.67,12.29l4.82,4.57c1.38,1.31,2.48,2.46,3.25,3.43c0.73,0.91,1.24,1.87,1.53,2.86c0.3,1.02,0.45,2.33,0.45,3.88
			c0,1.39-0.23,2.02-0.42,2.31c-0.07,0.11-0.3,0.45-1.28,0.45c-0.76,0-1.03-0.29-1.18-0.58c-0.3-0.57-0.46-1.4-0.46-2.49v-7.59
			h-12.39v6.13c0,5.52,1.17,9.64,3.47,12.23c2.33,2.62,6.12,3.96,11.25,3.96s8.43-1.58,10.45-4.69c1.95-2.99,2.93-7.13,2.93-12.32
			c0-2.59-0.34-4.83-1-6.66c-0.66-1.82-1.55-3.44-2.64-4.82L307.98,27.9z"/>
		<path d="M327.96,40.23c0,0.86-0.04,1.7-0.13,2.49c-0.07,0.68-0.25,1.22-0.53,1.61c-0.07,0.1-0.28,0.4-1.07,0.4
			c-0.67,0-0.91-0.23-1.03-0.41c-0.28-0.41-0.47-0.95-0.55-1.63c-0.1-0.78-0.15-1.61-0.15-2.46V0.49h-12.2v40.17
			c0,5.07,1.14,8.99,3.38,11.65c2.28,2.71,5.83,4.08,10.55,4.08s8.27-1.37,10.55-4.08c2.24-2.66,3.38-6.58,3.38-11.65V0.49h-12.2
			L327.96,40.23L327.96,40.23z"/>
		<path d="M365.56,25.15c1.05-0.63,1.9-1.5,2.54-2.6c0.98-1.7,1.47-3.91,1.47-6.57v-2.35c0-4.58-0.98-7.95-2.91-10.01
			c-1.94-2.08-5.03-3.13-9.17-3.13h-15.43V55.9h15.43c3.35,0,6-0.8,7.86-2.37c1.84-1.56,3.13-3.75,3.83-6.53c0.66-2.66,1-5.8,1-9.33
			c0-3.32-0.43-6.18-1.29-8.52C368.23,27.36,367.12,26.02,365.56,25.15L365.56,25.15z M354.34,30.85h1.09
			c1.21,0,1.59,0.48,1.78,0.84c0.39,0.75,0.59,1.83,0.59,3.2v6.7c0,2.15-0.98,3.07-3.28,3.07c-0.05,0-0.11,0-0.17,0V30.85H354.34z
			 M357.1,17.65c0,0.96-0.12,1.79-0.37,2.46c-0.07,0.2-0.21,0.58-1.08,0.58h-1.3V10.56h1.36c0.71,0,1.39,0.13,1.39,1.7L357.1,17.65
			L357.1,17.65z"/>
		<polygon points="393.07,27.53 389.34,0.49 371.34,0.49 371.34,55.9 382.81,55.9 382.81,27.01 387.69,55.9 398.83,55.9 
			403.33,27.63 403.33,55.9 414.93,55.9 414.93,0.49 396.78,0.49 		"/>
		<rect x="416.59" y="0.49" width="12.14" height="55.41"/>
		<path d="M454.37,27.9c-1.06-1.33-2.23-2.62-3.5-3.82l-6.19-5.95c-1.11-1.05-1.85-1.98-2.21-2.75c-0.35-0.75-0.53-1.44-0.53-2.06
			c0-0.54,0.13-0.96,0.39-1.27c0.08-0.1,0.33-0.39,1.19-0.39c0.47,0,0.82,0.12,1.07,0.35c0.24,0.23,0.36,0.58,0.36,1.07v4.58h12.69
			v-0.89c0-5.52-1.1-9.73-3.28-12.5C452.13,1.44,448.37,0,443.19,0c-4.27,0-7.59,1.31-9.88,3.9c-2.26,2.55-3.41,6.27-3.41,11.04
			s1.91,8.74,5.67,12.29l4.82,4.57c1.38,1.3,2.48,2.46,3.25,3.43c0.73,0.91,1.24,1.87,1.53,2.86c0.3,1.02,0.45,2.33,0.45,3.88
			c0,1.39-0.23,2.02-0.42,2.31c-0.07,0.11-0.3,0.45-1.28,0.45c-0.77,0-1.04-0.31-1.18-0.58c-0.3-0.57-0.46-1.4-0.46-2.49v-7.59
			h-12.39v6.13c0,5.52,1.17,9.64,3.47,12.23c2.33,2.62,6.12,3.96,11.25,3.96s8.43-1.58,10.45-4.69c1.95-2.99,2.93-7.13,2.93-12.32
			c0-2.59-0.34-4.83-1-6.66c-0.66-1.82-1.55-3.44-2.64-4.82L454.37,27.9z"/>
		<path d="M482.58,27.9c-1.06-1.33-2.23-2.62-3.5-3.82l-6.19-5.95c-1.11-1.05-1.85-1.98-2.21-2.75c-0.35-0.75-0.53-1.44-0.53-2.06
			c0-0.54,0.13-0.96,0.39-1.27c0.08-0.1,0.33-0.39,1.19-0.39c0.47,0,0.82,0.12,1.07,0.35c0.24,0.23,0.36,0.58,0.36,1.07v4.58h12.69
			v-0.89c0-5.52-1.1-9.73-3.28-12.5C480.34,1.44,476.58,0,471.4,0c-4.27,0-7.59,1.31-9.88,3.9c-2.26,2.55-3.41,6.27-3.41,11.04
			s1.91,8.74,5.67,12.29l4.82,4.57c1.38,1.3,2.48,2.46,3.25,3.43c0.73,0.91,1.24,1.87,1.53,2.86c0.3,1.02,0.45,2.33,0.45,3.88
			c0,1.39-0.23,2.02-0.42,2.31c-0.07,0.11-0.3,0.45-1.28,0.45c-0.77,0-1.04-0.31-1.18-0.58c-0.3-0.57-0.46-1.4-0.46-2.49v-7.59
			H458.1v6.13c0,5.52,1.17,9.64,3.47,12.23c2.33,2.62,6.12,3.96,11.25,3.96s8.43-1.58,10.45-4.69c1.95-2.99,2.93-7.13,2.93-12.32
			c0-2.59-0.34-4.83-1-6.66c-0.66-1.82-1.55-3.44-2.64-4.82L482.58,27.9z"/>
		<rect x="486.92" y="0.49" width="12.14" height="55.41"/>
		<path d="M515.01,0c-4.56,0-8.1,1.29-10.51,3.84c-2.39,2.54-3.61,6.26-3.61,11.06v25.47c0,5.1,1.22,9.07,3.62,11.81
			c2.43,2.78,5.96,4.19,10.5,4.19c4.54,0,8.07-1.41,10.5-4.19c2.4-2.74,3.62-6.72,3.62-11.81V14.91c0-4.8-1.21-8.53-3.61-11.06
			c-2.41-2.55-5.94-3.84-10.5-3.84L515.01,0z M515.1,44.73c-0.78,0-1.07-0.34-1.23-0.63c-0.23-0.4-0.49-1.27-0.49-3.14V14.82
			c0-3.16,1.25-3.16,1.79-3.16c0.41,0,1.48,0,1.48,3.07V40.9C516.65,43.44,516.13,44.73,515.1,44.73z"/>
		<polygon points="547.05,17.7 543.74,0.49 531.09,0.49 531.09,55.9 543.35,55.9 543.35,37.19 547.09,55.9 559.19,55.9 559.19,0.49 
			547.05,0.49 		"/>
		<polygon points="575.58,55.9 588.15,55.9 588.15,31.58 598.26,31.58 598.26,19.47 588.15,19.47 588.15,12.72 598.81,12.72 
			598.81,0.49 575.58,0.49 		"/>
		<path d="M613.73,0c-4.56,0-8.1,1.29-10.51,3.84c-2.39,2.54-3.61,6.26-3.61,11.06v25.47c0,5.1,1.22,9.07,3.62,11.81
			c2.43,2.78,5.96,4.19,10.5,4.19s8.07-1.41,10.5-4.19c2.4-2.74,3.62-6.72,3.62-11.81V14.91c0-4.8-1.21-8.53-3.61-11.06
			c-2.41-2.55-5.94-3.84-10.5-3.84L613.73,0z M613.82,44.73c-0.78,0-1.07-0.34-1.23-0.63c-0.23-0.4-0.49-1.27-0.49-3.14V14.82
			c0-3.16,1.25-3.16,1.79-3.16c0.41,0,1.48,0,1.48,3.07V40.9C615.37,43.44,614.85,44.73,613.82,44.73z"/>
		<path d="M656.73,23.76c0.79-1.85,1.18-4.32,1.18-7.36s-0.25-5.8-0.74-8.09c-0.52-2.42-1.56-4.35-3.1-5.72
			c-1.56-1.39-3.85-2.1-6.81-2.1h-17.34V55.9h12.63V31.46c0.97,0.07,1.48,0.25,1.75,0.41c0.25,0.15,0.52,0.79,0.52,2.14v21.88h12.36
			V34.71c0-2.24-0.38-4.12-1.12-5.57c-0.48-0.93-1.17-1.67-2.05-2.19C655.25,26.17,656.16,25.1,656.73,23.76z M642.62,12.21h1.61
			c0.7,0,0.91,0.24,1.03,0.48c0.15,0.29,0.39,1.17,0.39,3.72c0,1.48-0.17,3.95-1.33,3.95h-1.7
			C642.62,20.36,642.62,12.21,642.62,12.21z"/>
		<polygon points="684.63,0.49 680.92,27.53 677.19,0.49 659.19,0.49 659.19,55.9 670.67,55.9 670.67,27.01 675.54,55.9 
			686.68,55.9 691.19,27.63 691.19,55.9 702.78,55.9 702.78,0.49 		"/>
	</g>
</g>
</svg>
