<?xml version="1.0" encoding="utf-8"?>
<!-- Generator: Adobe Illustrator 27.1.1, SVG Export Plug-In . SVG Version: 6.00 Build 0)  -->
<svg version="1.1" id="Capa_1" xmlns="http://www.w3.org/2000/svg" xmlns:xlink="http://www.w3.org/1999/xlink" x="0px" y="0px"
	 viewBox="0 0 210.8 138.7" style="enable-background:new 0 0 210.8 138.7;" xml:space="preserve">
<style type="text/css">
	.st0{fill:#FFFFFF;}
	.st1{fill:#211915;}
</style>
<g>
	<g>
		<g>
			<path class="st0" d="M81,0.7l-3.8,33.1H66.4c-1-5.1-1.8-10.8-2.6-17.3c-0.3,2.8-1.2,8.6-2.4,17.4H50.7L46.8,0.7h8.4l0.9,11.5
				L57,23.4c0.3-5.8,1.1-13.3,2.4-22.7h8.9c0.1,1,0.4,4.6,0.9,10.9l0.9,12.6c0.5-8,1.3-15.9,2.4-23.5L81,0.7z"/>
			<path class="st0" d="M102.3,20.1c0,3.3-0.1,5.7-0.2,7.1c-0.3,2.9-2.2,5.3-4.8,6.4c-1.6,0.6-3.2,0.9-4.9,0.9
				c-1.6,0-3.3-0.3-4.8-0.9c-1.4-0.5-2.5-1.4-3.4-2.6c-0.8-1.1-1.4-2.4-1.5-3.7c-0.2-2.4-0.3-4.8-0.2-7.2v-5.7
				c0-3.3,0.1-5.7,0.2-7.1c0.2-1.4,0.7-2.6,1.5-3.7c0.8-1.2,2-2.1,3.3-2.7c1.6-0.6,3.3-1,5-0.9c1.6,0,3.3,0.3,4.8,0.9
				c1.4,0.5,2.5,1.4,3.4,2.6c0.8,1.1,1.4,2.4,1.5,3.7c0.2,2.4,0.3,4.8,0.2,7.2L102.3,20.1z M93.7,9.2c0.1-1,0-2-0.2-3
				c-0.2-0.4-0.6-0.7-1.1-0.6c-0.4,0-0.8,0.2-1,0.5c-0.3,1-0.5,2-0.4,3.1v15.5c-0.1,1.2,0,2.4,0.2,3.6c0.2,0.5,0.6,0.7,1.1,0.7
				c0.5,0,1-0.3,1.1-0.8c0.2-1.2,0.3-2.5,0.2-3.7L93.7,9.2z"/>
			<path class="st0" d="M105.5,0.7h6.1c2.8-0.1,5.5,0.1,8.3,0.5c1.4,0.3,2.7,1.2,3.5,2.4c1.1,1.9,1.5,4,1.4,6.2c0,2.6-0.3,4.3-1,5.2
				c-1,1-2.3,1.6-3.7,1.6c1.3,0.2,2.5,0.8,3.4,1.7c0.5,0.6,0.9,1.2,1.1,1.9c0.2,1.6,0.3,3.3,0.2,4.9v8.7h-8v-11
				c0.1-1.1,0-2.2-0.4-3.3c-0.3-0.4-1-0.6-2.2-0.6v15h-8.6L105.5,0.7z M114.1,6.4v7.4c0.7,0.1,1.4-0.1,2-0.4
				c0.4-0.3,0.6-1.1,0.6-2.6V8.9c0.1-0.7-0.1-1.5-0.6-2.1C115.6,6.5,114.9,6.3,114.1,6.4z"/>
			<path class="st0" d="M136.7,0.7v26.5h5.2v6.6h-13.8V0.7H136.7z"/>
			<path class="st0" d="M144,0.7h6.4c2.8-0.1,5.6,0.1,8.4,0.6c1.3,0.3,2.4,0.9,3.3,1.9c0.7,0.8,1.2,1.8,1.4,2.9
				c0.2,2.1,0.3,4.2,0.3,6.3V24c0.1,2-0.1,4-0.4,6c-0.2,0.9-0.7,1.7-1.5,2.4c-0.8,0.6-1.6,1-2.6,1.2c-1.5,0.3-3.1,0.4-4.6,0.3H144
				L144,0.7z M152.6,6.4v21.8c1.2,0,2-0.2,2.3-0.7c0.4-1.3,0.5-2.7,0.4-4.1V10.5c0-1,0-1.9-0.1-2.9c-0.1-0.4-0.3-0.7-0.7-0.9
				C153.9,6.4,153.3,6.3,152.6,6.4z"/>
		</g>
		<g>
			<path class="st1" d="M83.1,39L79,74.2H67.6c-1-5.4-2-11.5-2.8-18.4c-0.4,2.9-1.2,9.1-2.5,18.4H50.9L46.8,39h8.9l1,12.3l0.9,11.9
				C58,57,58.8,49,60.1,39h9.5c0.1,1,0.5,4.9,1,11.6l1,13.4c0.5-8.5,1.4-16.8,2.5-25L83.1,39z"/>
			<path class="st1" d="M100.2,39l5.2,35.1h-9.3l-0.5-6.3h-3.3l-0.5,6.3h-9.4L87.1,39L100.2,39z M95.4,61.6c-0.5-4-0.9-8.9-1.4-14.8
				c-0.9,6.7-1.5,11.7-1.7,14.8H95.4z"/>
			<path class="st1" d="M123,39v7h-5.4v28.1h-9.1V46.1H103v-7H123z"/>
			<path class="st1" d="M125.1,39h15.2v7h-6.1v6.6h5.7v6.7h-5.7v7.7h6.7v7h-15.8V39z"/>
			<path class="st1" d="M143.6,39h6.5c2.9-0.1,5.8,0.1,8.7,0.5c1.5,0.3,2.9,1.2,3.7,2.5c1,1.4,1.4,3.5,1.4,6.5c0,2.7-0.3,4.6-1,5.5
				c-1,1.1-2.5,1.7-4,1.7c1.4,0.3,2.6,0.9,3.6,1.9c0.5,0.6,0.9,1.3,1.2,2.1c0.2,1.7,0.3,3.5,0.2,5.2v9.3h-8.5V62.5
				c0.1-1.2,0-2.4-0.4-3.5c-0.3-0.4-1.1-0.7-2.3-0.7v15.8h-9.1V39z M152.7,45v7.8c0.7,0,1.4-0.1,2.1-0.4c0.4-0.3,0.6-1.2,0.6-2.7
				v-1.9c0.1-0.8-0.1-1.6-0.6-2.2C154.2,45.1,153.4,45,152.7,45L152.7,45z"/>
		</g>
		<g>
			<path class="st1" d="M64.3,91.3h-7.4v-4.9c0.1-0.9,0-1.8-0.2-2.7c-0.2-0.4-0.6-0.6-1-0.5c-0.5-0.1-1,0.2-1.1,0.6
				c-0.2,0.9-0.3,1.9-0.2,2.8v13.1c-0.1,0.9,0,1.8,0.2,2.7c0.2,0.4,0.6,0.7,1.1,0.6c0.5,0.1,0.9-0.2,1.1-0.6c0.2-1,0.3-2,0.3-3v-3.6
				h7.4V97c0.1,2.1-0.1,4.2-0.6,6.2c-0.5,1.4-1.5,2.5-2.7,3.2c-1.6,1-3.4,1.4-5.2,1.4c-1.8,0.1-3.7-0.3-5.3-1.2
				c-1.3-0.7-2.4-1.8-2.8-3.3c-0.5-2-0.8-4.1-0.7-6.2v-8.3c0-1.5,0-3.1,0.2-4.6c0.2-1.1,0.6-2.1,1.2-2.9c0.8-1,1.8-1.8,3-2.2
				c3.1-1.2,6.6-1.1,9.6,0.4c1.3,0.7,2.3,1.8,2.8,3.1c0.5,1.9,0.8,3.9,0.7,5.8L64.3,91.3z"/>
			<path class="st1" d="M82.6,79L77.2,97v10.3h-6.8V97L65.2,79H72c1,5.5,1.6,9.2,1.8,11.2c0.4-3,1.1-6.7,2-11.2H82.6z"/>
			<path class="st1" d="M101,91.3h-7.4v-4.9c0.1-0.9,0-1.8-0.2-2.7c-0.2-0.4-0.6-0.6-1-0.5c-0.5-0.1-1,0.2-1.2,0.6
				c-0.2,0.9-0.3,1.9-0.2,2.8v13.1c-0.1,0.9,0,1.8,0.2,2.7c0.3,0.6,1.1,0.8,1.7,0.5c0.2-0.1,0.4-0.3,0.5-0.5c0.2-1,0.3-2,0.2-3v-3.6
				h7.4V97c0.1,2.1-0.1,4.2-0.6,6.2c-0.5,1.4-1.5,2.5-2.7,3.2c-1.6,1-3.4,1.5-5.2,1.4c-1.8,0.1-3.7-0.3-5.3-1.2
				c-1.3-0.7-2.3-1.8-2.8-3.2c-0.5-2-0.8-4.1-0.7-6.2v-8.3c0-1.5,0-3.1,0.2-4.6c0.2-1.1,0.6-2.1,1.2-2.9c0.7-1,1.7-1.8,2.9-2.2
				c3.1-1.2,6.6-1.1,9.6,0.4c1.3,0.7,2.3,1.8,2.8,3.1c0.5,1.9,0.7,3.9,0.7,5.8L101,91.3z"/>
			<path class="st1" d="M111.1,79v22.7h4.5v5.7h-11.9V79H111.1z"/>
			<path class="st1" d="M124.7,79v28.3h-7.4V79H124.7z"/>
			<path class="st1" d="M144.1,79v28.3h-6.5l-3.8-12.9v12.9h-6.2V79h6.2l4.1,12.7V79H144.1z"/>
			<path class="st1" d="M163.9,89.4h-7.4v-2.6c0.1-1,0-2-0.2-3c-0.3-0.5-0.9-0.8-1.5-0.5c-0.2,0.1-0.3,0.2-0.4,0.4
				c-0.2,0.9-0.3,1.8-0.2,2.7V100c0,0.8,0,1.7,0.2,2.5c0.2,0.4,0.6,0.6,1,0.6c0.5,0,0.9-0.2,1.1-0.7c0.3-0.9,0.4-1.8,0.3-2.7v-3.4
				h-1.5v-4.3h8.6v15.2h-4.6l-0.7-2c-0.4,0.8-1.1,1.5-1.9,2c-0.8,0.5-1.8,0.7-2.7,0.6c-1.2,0-2.4-0.3-3.5-0.9
				c-1-0.5-1.9-1.3-2.5-2.2c-0.5-0.8-0.9-1.8-1-2.8c-0.2-1.5-0.2-2.9-0.2-4.4v-8.4c-0.1-2,0.1-4,0.4-5.9c0.4-1.4,1.3-2.6,2.5-3.4
				c1.6-1.1,3.5-1.6,5.4-1.5c1.9-0.1,3.7,0.4,5.4,1.3c1.3,0.7,2.2,1.8,2.8,3.2c0.5,1.7,0.7,3.5,0.6,5.3L163.9,89.4z"/>
		</g>
		<g>
			<path class="st0" d="M60.7,110.9l4.1,27.3h-7.2l-0.4-4.9h-2.5l-0.4,4.9h-7.4l3.6-27.3H60.7z M57,128.4c-0.3-3.1-0.7-6.9-1.1-11.5
				c-0.7,5.2-1.2,9.1-1.4,11.5H57z"/>
			<path class="st0" d="M92.1,110.9l-3.2,27.3h-8.9c-0.8-4.2-1.5-8.9-2.1-14.3c-0.3,2.3-0.9,7.1-2,14.3h-8.7l-3.2-27.3h6.9l0.7,9.5
				l0.7,9.2c0.3-4.8,0.9-11,2-18.7h7.4c0.1,0.8,0.4,3.8,0.8,9l0.8,10.4c0.4-6.6,1.1-13.1,2-19.4H92.1z"/>
			<path class="st0" d="M105.4,110.9l4.1,27.3h-7.2l-0.4-4.9h-2.5l-0.4,4.9h-7.4l3.6-27.3H105.4z M101.6,128.4
				c-0.4-3.1-0.7-6.9-1.1-11.5c-0.7,5.2-1.2,9.1-1.4,11.5H101.6z"/>
			<path class="st0" d="M110.7,110.9h5c2.3-0.1,4.6,0.1,6.8,0.4c1.2,0.3,2.2,1,2.9,2c0.9,1.5,1.3,3.3,1.1,5.1c0.1,1.5-0.1,3-0.8,4.3
				c-0.8,0.8-1.9,1.3-3.1,1.2c1.1,0.2,2,0.7,2.8,1.4c0.4,0.5,0.7,1,0.9,1.6c0.2,1.3,0.2,2.7,0.2,4v7.2h-6.6V129
				c0.1-0.9,0-1.8-0.3-2.7c-0.2-0.3-0.8-0.5-1.8-0.5v12.3h-7.1L110.7,110.9z M117.7,115.5v6.1c0.6,0,1.2-0.1,1.7-0.3
				c0.3-0.2,0.5-0.9,0.5-2.1v-1.5c0.1-0.6-0.1-1.2-0.5-1.7C118.9,115.6,118.3,115.5,117.7,115.5z"/>
			<path class="st0" d="M129.2,110.9h5.3c2.3-0.1,4.7,0.1,7,0.5c1.1,0.2,2,0.8,2.8,1.5c0.6,0.7,1,1.5,1.2,2.4
				c0.2,1.7,0.3,3.5,0.2,5.2v9.6c0.1,1.6,0,3.3-0.3,4.9c-0.2,0.8-0.6,1.4-1.2,1.9c-0.6,0.5-1.3,0.8-2.1,1c-1.3,0.2-2.5,0.3-3.8,0.3
				h-8.9V110.9z M136.3,115.5v18c1,0,1.6-0.2,1.9-0.6c0.3-1.1,0.5-2.2,0.4-3.3v-10.6c0-0.8,0-1.6-0.1-2.4c-0.1-0.3-0.3-0.6-0.5-0.8
				C137.4,115.6,136.9,115.5,136.3,115.5z"/>
			<path class="st0" d="M163.3,119.1h-6.6v-2c0.1-0.6,0-1.2-0.2-1.8c-0.2-0.3-0.5-0.4-0.8-0.4c-0.4,0-0.8,0.2-1,0.5
				c-0.3,0.5-0.4,1-0.3,1.6c0,0.7,0.1,1.4,0.4,2.1c0.5,0.7,1.2,1.3,2,1.7c3.2,1.9,5.1,3.4,6,4.6c1,1.8,1.4,3.8,1.2,5.8
				c0.1,1.5-0.1,2.9-0.7,4.3c-0.6,1-1.5,1.9-2.6,2.3c-1.4,0.7-3,1-4.5,0.9c-1.7,0-3.4-0.3-4.9-1.1c-1.2-0.6-2.1-1.5-2.6-2.7
				c-0.5-1.5-0.7-3.1-0.6-4.7v-1.8h6.6v3.3c-0.1,0.7,0,1.3,0.3,2c0.2,0.3,0.6,0.5,1,0.4c0.4,0,0.8-0.2,1.1-0.6
				c0.3-0.5,0.4-1.1,0.3-1.6c0.1-1.1-0.1-2.2-0.6-3.2c-1-0.9-2.1-1.8-3.3-2.5c-1.2-0.8-2.4-1.6-3.5-2.5c-0.6-0.6-1.1-1.4-1.4-2.2
				c-0.4-1.1-0.6-2.4-0.6-3.6c-0.1-1.6,0.2-3.1,0.8-4.6c0.6-1,1.5-1.8,2.5-2.3c1.4-0.6,2.8-0.9,4.3-0.8c1.6,0,3.2,0.3,4.7,0.9
				c1.1,0.4,2,1.2,2.6,2.2c0.5,1.5,0.7,3,0.6,4.6L163.3,119.1z"/>
		</g>
	</g>
</g>
</svg>
