<svg xmlns="http://www.w3.org/2000/svg" width="1185.68" height="40.08" viewBox="0 0 1185.68 40.08">
  <g>
    <g>
      <path d="M0,.64H2.9L4.57,11.86h.3L7.31.64H10.5l2.44,11.22h.3L14.92.64h2.89L15.22,14.22H11L8.91,3.89,6.77,14.22H2.6Z"/>
      <path d="M20.05,5.36A4.19,4.19,0,0,1,23.58,4a4.22,4.22,0,0,1,3.54,1.37,6.21,6.21,0,0,1,1.06,3.85q0,5.25-4.6,5.25T19,9.21A6.14,6.14,0,0,1,20.05,5.36Zm2.07,6.1a1.53,1.53,0,0,0,1.46.72,1.54,1.54,0,0,0,1.47-.72,4.76,4.76,0,0,0,.41-2.25A4.66,4.66,0,0,0,25.05,7a1.55,1.55,0,0,0-1.47-.7,1.54,1.54,0,0,0-1.46.7,4.54,4.54,0,0,0-.41,2.24A4.64,4.64,0,0,0,22.12,11.46Z"/>
      <path d="M30.13,14.22v-10h2.66V5.29A10.27,10.27,0,0,1,36,4v2.7c-1.08.23-2,.46-2.78.7l-.4.14v6.69Z"/>
      <path d="M37.68,14.22V.24h2.68v14Z"/>
      <path d="M51.44.24v14H48.79V13.8a5.89,5.89,0,0,1-2.42.66,3.43,3.43,0,0,1-3-1.26,7.24,7.24,0,0,1-.85-4,6.27,6.27,0,0,1,1-4A3.81,3.81,0,0,1,46.61,4a11.49,11.49,0,0,1,1.78.2l.38.08v-4ZM48.49,11.82l.28-.06V6.51a11.51,11.51,0,0,0-2-.2q-1.62,0-1.62,2.88a4.94,4.94,0,0,0,.36,2.21,1.25,1.25,0,0,0,1.19.66A7,7,0,0,0,48.49,11.82Z"/>
      <path d="M58.15,18.41V4.23h2.66v.54A4.56,4.56,0,0,1,63.08,4a3.59,3.59,0,0,1,3,1.21,6.75,6.75,0,0,1,1,4.11c0,1.93-.36,3.27-1.06,4a4.62,4.62,0,0,1-3.48,1.13,9,9,0,0,1-1.41-.12l-.24,0v4.11Zm4.41-12a4,4,0,0,0-1.49.3l-.24.1V12a11.45,11.45,0,0,0,1.45.12,1.7,1.7,0,0,0,1.59-.68,4.5,4.5,0,0,0,.43-2.31Q64.3,6.39,62.56,6.39Z"/>
      <path d="M69,14.22v-10h2.66V5.29A10.27,10.27,0,0,1,74.87,4v2.7c-1.08.23-2,.46-2.78.7l-.4.14v6.69Z"/>
      <path d="M79.13,11.69a2,2,0,0,0,1.35.41c1.23,0,2.34,0,3.31-.12l.56-.06,0,2a17.82,17.82,0,0,1-4.15.56A4.08,4.08,0,0,1,77,13.26a6,6,0,0,1-1-3.89C75.94,5.79,77.41,4,80.36,4s4.35,1.51,4.35,4.52l-.2,1.85H78.64A1.72,1.72,0,0,0,79.13,11.69Zm2.94-3.36a2.68,2.68,0,0,0-.38-1.67,2.08,2.08,0,0,0-2.66,0,2.76,2.76,0,0,0-.41,1.65Z"/>
      <path d="M89.3,14.22H86.63v-10h2.65v.56A5,5,0,0,1,91.64,4a3.29,3.29,0,0,1,2.5.94A7.53,7.53,0,0,1,97.49,4a3.09,3.09,0,0,1,2.75,1.15A6.8,6.8,0,0,1,101,8.81v5.41H98.33V8.89A4.75,4.75,0,0,0,98.05,7a1.11,1.11,0,0,0-1.12-.61,5.48,5.48,0,0,0-1.56.28l-.3.1c.06,1,.08,1.76.08,2.28v5.17H92.48V9.09A6,6,0,0,0,92.22,7a1.09,1.09,0,0,0-1.14-.61,4.36,4.36,0,0,0-1.54.28l-.24.08Z"/>
      <path d="M103.32,3V.24H106V3Zm0,11.26v-10H106v10Z"/>
      <path d="M111.16,11.69a2,2,0,0,0,1.35.41c1.24,0,2.34,0,3.31-.12l.56-.06,0,2a17.82,17.82,0,0,1-4.15.56,4.08,4.08,0,0,1-3.28-1.2,6,6,0,0,1-1-3.89C108,5.79,109.45,4,112.39,4s4.35,1.51,4.35,4.52l-.2,1.85h-5.87A1.72,1.72,0,0,0,111.16,11.69Zm3-3.36a2.75,2.75,0,0,0-.38-1.67,1.65,1.65,0,0,0-1.33-.47,1.61,1.61,0,0,0-1.34.49,2.76,2.76,0,0,0-.41,1.65Z"/>
      <path d="M118.7,14.22v-10h2.65V5.29a10.37,10.37,0,0,1,3.2-1.3v2.7c-1.08.23-2,.46-2.78.7l-.4.14v6.69Z"/>
      <path d="M128.81,11.69a2,2,0,0,0,1.35.41c1.24,0,2.34,0,3.32-.12l.55-.06,0,2a17.82,17.82,0,0,1-4.15.56,4.07,4.07,0,0,1-3.27-1.2,6,6,0,0,1-1-3.89C125.63,5.79,127.1,4,130,4s4.35,1.51,4.35,4.52l-.2,1.85h-5.87A1.75,1.75,0,0,0,128.81,11.69Zm2.95-3.36a2.75,2.75,0,0,0-.38-1.67,1.64,1.64,0,0,0-1.33-.47,1.61,1.61,0,0,0-1.34.49,2.83,2.83,0,0,0-.41,1.65Z"/>
      <path d="M148.29,7.35V11.5a1.62,1.62,0,0,0,.16.67.73.73,0,0,0,.5.27l-.08,2a7.82,7.82,0,0,1-1.63-.14,3.59,3.59,0,0,1-1.22-.56,6.61,6.61,0,0,1-2.94.7q-3.09,0-3.09-3.28a2.69,2.69,0,0,1,.85-2.26,4.8,4.8,0,0,1,2.64-.79L145.62,8V7.35a1.08,1.08,0,0,0-.28-.85,1.45,1.45,0,0,0-.9-.23l-3.76.16-.08-1.86A15.85,15.85,0,0,1,144.67,4a4,4,0,0,1,2.77.8A3.38,3.38,0,0,1,148.29,7.35ZM143.8,10a1.07,1.07,0,0,0-1.12,1.19c0,.74.33,1.1,1,1.1a6.46,6.46,0,0,0,1.66-.24l.3-.08V9.83Z"/>
      <path d="M150.09,4.23h2.64l1.21,7.71h.48l1.52-7.51h2.76l1.51,7.51h.48l1.22-7.71h2.64l-1.9,10h-4.19l-1.14-6.11-1.14,6.11H152Z"/>
      <path d="M173.91,7.35V11.5a1.62,1.62,0,0,0,.16.67.73.73,0,0,0,.5.27l-.08,2a7.82,7.82,0,0,1-1.63-.14,3.59,3.59,0,0,1-1.22-.56,6.61,6.61,0,0,1-2.94.7q-3.09,0-3.09-3.28a2.69,2.69,0,0,1,.85-2.26,4.83,4.83,0,0,1,2.64-.79L171.24,8V7.35A1.08,1.08,0,0,0,171,6.5a1.45,1.45,0,0,0-.9-.23l-3.76.16-.07-1.86A15.72,15.72,0,0,1,170.29,4a4,4,0,0,1,2.77.8A3.38,3.38,0,0,1,173.91,7.35ZM169.42,10a1.07,1.07,0,0,0-1.12,1.19c0,.74.33,1.1,1,1.1a6.46,6.46,0,0,0,1.66-.24l.3-.08V9.83Z"/>
      <path d="M176.47,14.22v-10h2.65V5.29a10.37,10.37,0,0,1,3.2-1.3v2.7c-1.08.23-2,.46-2.78.7l-.39.14v6.69Z"/>
      <path d="M192.38.24v14h-2.65V13.8a5.85,5.85,0,0,1-2.42.66,3.4,3.4,0,0,1-3-1.26,7.15,7.15,0,0,1-.86-4,6.2,6.2,0,0,1,1-4A3.78,3.78,0,0,1,187.55,4a11.36,11.36,0,0,1,1.78.2l.38.08v-4Zm-2.95,11.58.28-.06V6.51a11.41,11.41,0,0,0-2-.2q-1.62,0-1.62,2.88a4.94,4.94,0,0,0,.36,2.21,1.25,1.25,0,0,0,1.19.66A6.94,6.94,0,0,0,189.43,11.82Z"/>
      <path d="M202.57,4a14.61,14.61,0,0,1,2.66.32l.53.12-.08,2.12c-1.05-.11-1.83-.16-2.33-.16a2.23,2.23,0,0,0-1.83.59,3.91,3.91,0,0,0-.45,2.23,4,4,0,0,0,.45,2.24,2.2,2.2,0,0,0,1.85.61l2.31-.16.08,2.14a18.33,18.33,0,0,1-3.25.42,3.81,3.81,0,0,1-3.19-1.25,6.61,6.61,0,0,1-1-4,6.38,6.38,0,0,1,1-4A3.92,3.92,0,0,1,202.57,4Z"/>
      <path d="M210.43,11.69a1.94,1.94,0,0,0,1.34.41c1.24,0,2.35,0,3.32-.12l.56-.06,0,2a17.89,17.89,0,0,1-4.15.56,4.08,4.08,0,0,1-3.28-1.2,6,6,0,0,1-1-3.89c0-3.58,1.47-5.38,4.42-5.38S216,5.5,216,8.51l-.2,1.85h-5.87A1.68,1.68,0,0,0,210.43,11.69Zm2.94-3.36A2.68,2.68,0,0,0,213,6.66a2.08,2.08,0,0,0-2.66,0,2.76,2.76,0,0,0-.41,1.65Z"/>
      <path d="M217.93,14.22v-10h2.65V5.29a10.27,10.27,0,0,1,3.2-1.3v2.7c-1.08.23-2,.46-2.78.7l-.4.14v6.69Z"/>
      <path d="M228,11.69a2,2,0,0,0,1.35.41c1.24,0,2.34,0,3.31-.12l.56-.06,0,2a17.82,17.82,0,0,1-4.15.56,4.08,4.08,0,0,1-3.28-1.2,6,6,0,0,1-1-3.89c0-3.58,1.48-5.38,4.42-5.38s4.35,1.51,4.35,4.52l-.2,1.85h-5.87A1.72,1.72,0,0,0,228,11.69Zm3-3.36a2.75,2.75,0,0,0-.38-1.67,1.65,1.65,0,0,0-1.33-.47,1.61,1.61,0,0,0-1.34.49,2.76,2.76,0,0,0-.41,1.65Z"/>
      <path d="M238.21,14.22h-2.67v-10h2.65v.56a5,5,0,0,1,2.36-.8,3.29,3.29,0,0,1,2.5.94A7.53,7.53,0,0,1,246.4,4a3.08,3.08,0,0,1,2.75,1.15,6.8,6.8,0,0,1,.77,3.67v5.41h-2.68V8.89A4.75,4.75,0,0,0,247,7a1.11,1.11,0,0,0-1.12-.61,5.37,5.37,0,0,0-1.55.28l-.3.1c0,1,.08,1.76.08,2.28v5.17h-2.68V9.09A6,6,0,0,0,241.13,7,1.09,1.09,0,0,0,240,6.39a4.36,4.36,0,0,0-1.54.28l-.24.08Z"/>
      <path d="M252.79,5.36a5.25,5.25,0,0,1,7.07,0,6.14,6.14,0,0,1,1.06,3.85q0,5.25-4.59,5.25t-4.6-5.25A6.21,6.21,0,0,1,252.79,5.36Zm2.07,6.1a1.85,1.85,0,0,0,2.93,0,4.64,4.64,0,0,0,.41-2.25A4.54,4.54,0,0,0,257.79,7a1.88,1.88,0,0,0-2.93,0,4.66,4.66,0,0,0-.41,2.24A4.76,4.76,0,0,0,254.86,11.46Z"/>
      <path d="M265.55,14.22h-2.67v-10h2.65v.56A5.05,5.05,0,0,1,268,4a3,3,0,0,1,2.75,1.18,6.83,6.83,0,0,1,.76,3.64v5.41h-2.67V8.89a4.52,4.52,0,0,0-.3-1.89,1.2,1.2,0,0,0-1.2-.61,4.46,4.46,0,0,0-1.58.28l-.24.08Z"/>
      <path d="M273,4.23h2.64l1.82,7.71h.45l1.82-7.71h2.64l-3.52,14.18h-2.61l1.09-4.19h-1.87Z"/>
      <path d="M293.83,6.51h-2.46V10.6a8.1,8.1,0,0,0,0,.85.72.72,0,0,0,.22.43.85.85,0,0,0,.59.18l1.52,0,.12,2.14a10.12,10.12,0,0,1-2,.3,3,3,0,0,1-2.45-.81,4.91,4.91,0,0,1-.66-3V6.51h-1.18V4.23h1.18V1.46h2.67V4.23h2.46Z"/>
      <path d="M296,5.36a5.25,5.25,0,0,1,7.07,0,6.21,6.21,0,0,1,1.05,3.85q0,5.25-4.59,5.25t-4.59-5.25A6.14,6.14,0,0,1,296,5.36Zm2.06,6.1a1.86,1.86,0,0,0,2.94,0,4.76,4.76,0,0,0,.41-2.25A4.66,4.66,0,0,0,301,7a1.89,1.89,0,0,0-2.94,0,4.66,4.66,0,0,0-.41,2.24A4.76,4.76,0,0,0,298.05,11.46Z"/>
      <path d="M310.46,14.22v-10h2.66V5.29a10.27,10.27,0,0,1,3.2-1.3v2.7c-1.08.23-2,.46-2.78.7l-.4.14v6.69Z"/>
      <path d="M320.5,11.69a2,2,0,0,0,1.35.41c1.23,0,2.34,0,3.31-.12l.56-.06,0,2a17.82,17.82,0,0,1-4.15.56,4.08,4.08,0,0,1-3.28-1.2,6,6,0,0,1-1-3.89c0-3.58,1.47-5.38,4.42-5.38s4.35,1.51,4.35,4.52l-.2,1.85H320A1.72,1.72,0,0,0,320.5,11.69Zm2.94-3.36a2.68,2.68,0,0,0-.38-1.67,2.08,2.08,0,0,0-2.66,0A2.76,2.76,0,0,0,320,8.33Z"/>
      <path d="M327.24,4.23h2.63l1.22,7.71h.48l1.52-7.51h2.76l1.51,7.51h.48l1.22-7.71h2.64l-1.9,10h-4.19l-1.14-6.11-1.14,6.11h-4.19Z"/>
      <path d="M351.06,7.35V11.5a1.62,1.62,0,0,0,.16.67.73.73,0,0,0,.5.27l-.08,2a7.82,7.82,0,0,1-1.63-.14,3.59,3.59,0,0,1-1.22-.56,6.61,6.61,0,0,1-2.94.7c-2.06,0-3.1-1.09-3.1-3.28a2.7,2.7,0,0,1,.86-2.26,4.8,4.8,0,0,1,2.64-.79L348.39,8V7.35a1.08,1.08,0,0,0-.28-.85,1.45,1.45,0,0,0-.9-.23l-3.76.16-.08-1.86A15.85,15.85,0,0,1,347.44,4a4,4,0,0,1,2.77.8A3.38,3.38,0,0,1,351.06,7.35ZM346.57,10a1.07,1.07,0,0,0-1.12,1.19c0,.74.33,1.1,1,1.1a6.52,6.52,0,0,0,1.66-.24l.3-.08V9.83Z"/>
      <path d="M353.62,14.22v-10h2.65V5.29a10.37,10.37,0,0,1,3.2-1.3v2.7c-1.08.23-2,.46-2.78.7l-.4.14v6.69Z"/>
      <path d="M369.53.24v14h-2.65V13.8a5.85,5.85,0,0,1-2.42.66,3.4,3.4,0,0,1-3-1.26,7.15,7.15,0,0,1-.86-4,6.2,6.2,0,0,1,1-4A3.78,3.78,0,0,1,364.7,4a11.36,11.36,0,0,1,1.78.2l.38.08v-4Zm-2.95,11.58.28-.06V6.51a11.51,11.51,0,0,0-2-.2q-1.62,0-1.62,2.88a4.94,4.94,0,0,0,.36,2.21,1.25,1.25,0,0,0,1.19.66A6.94,6.94,0,0,0,366.58,11.82Z"/>
      <path d="M381.73,6.51h-2.45V10.6a8.1,8.1,0,0,0,0,.85.67.67,0,0,0,.22.43.82.82,0,0,0,.59.18l1.51,0,.12,2.14a10.14,10.14,0,0,1-2,.3,3.05,3.05,0,0,1-2.46-.81,4.91,4.91,0,0,1-.66-3V6.51h-1.18V4.23h1.18V1.46h2.68V4.23h2.45Z"/>
      <path d="M386.07,14.22h-2.68V.24h2.68V4.71A5.44,5.44,0,0,1,388.54,4a3,3,0,0,1,2.76,1.18,6.83,6.83,0,0,1,.76,3.64v5.41h-2.68V8.87a4.45,4.45,0,0,0-.3-1.87,1.19,1.19,0,0,0-1.19-.61,5.28,5.28,0,0,0-1.56.24l-.26.08Z"/>
      <path d="M397.12,11.69a2,2,0,0,0,1.35.41c1.24,0,2.34,0,3.31-.12l.56-.06,0,2a17.82,17.82,0,0,1-4.15.56,4.09,4.09,0,0,1-3.28-1.2,6,6,0,0,1-1-3.89c0-3.58,1.47-5.38,4.41-5.38s4.35,1.51,4.35,4.52l-.2,1.85h-5.87A1.75,1.75,0,0,0,397.12,11.69Zm2.95-3.36a2.75,2.75,0,0,0-.38-1.67,1.65,1.65,0,0,0-1.33-.47,1.61,1.61,0,0,0-1.34.49,2.76,2.76,0,0,0-.41,1.65Z"/>
      <path d="M412.17,6.51v7.71h-2.68V6.51h-1.08V4.23h1.08V3.79a5,5,0,0,1,.64-3A2.74,2.74,0,0,1,412.41,0a11.39,11.39,0,0,1,1.85.2l.42.06,0,2.18c-.58,0-1.07,0-1.47,0a.85.85,0,0,0-.8.32,2.08,2.08,0,0,0-.2,1.09v.42h2.41V6.51Z"/>
      <path d="M416.14,3V.24h2.68V3Zm0,11.26v-10h2.68v10Z"/>
      <path d="M421.33,14.22v-10H424V5.29a10.27,10.27,0,0,1,3.2-1.3v2.7c-1.08.23-2,.46-2.78.7l-.4.14v6.69Z"/>
      <path d="M435.93,6.73a32.54,32.54,0,0,0-3.46-.32,2.86,2.86,0,0,0-1.28.18.63.63,0,0,0-.29.57.54.54,0,0,0,.39.54,14.42,14.42,0,0,0,2,.44,4.34,4.34,0,0,1,2.28.95,2.88,2.88,0,0,1,.68,2.13q0,3.24-4,3.24a17.42,17.42,0,0,1-3.2-.36L428.4,14l.08-2.24a30.08,30.08,0,0,0,3.45.32,3.09,3.09,0,0,0,1.32-.19.62.62,0,0,0,0-1.13,10.23,10.23,0,0,0-1.92-.44A5,5,0,0,1,429,9.43a2.75,2.75,0,0,1-.76-2.21,2.81,2.81,0,0,1,1.08-2.4A4.52,4.52,0,0,1,432.1,4a19,19,0,0,1,3.21.38l.66.12Z"/>
      <path d="M443.6,6.51h-2.46V10.6a8.1,8.1,0,0,0,0,.85.72.72,0,0,0,.22.43.85.85,0,0,0,.59.18l1.52,0,.12,2.14a10.12,10.12,0,0,1-2,.3,3,3,0,0,1-2.45-.81,4.91,4.91,0,0,1-.66-3V6.51h-1.18V4.23h1.18V1.46h2.67V4.23h2.46Z"/>
      <path d="M448.93.64h2.9l1.67,11.22h.3L456.24.64h3.2l2.43,11.22h.3L463.85.64h2.89l-2.59,13.58H460L457.84,3.89,455.7,14.22h-4.17Z"/>
      <path d="M467.52,14.22,470.58.64h5.23l3.06,13.58h-2.76l-.54-2.46h-4.75l-.54,2.46Zm5.19-11.3-1.37,6.45h3.71l-1.38-6.45Z"/>
      <path d="M479.4,3.08V.64h10V3.08h-3.6V14.22H483V3.08Z"/>
      <path d="M491.07,14.22V.64h8.78V3h-6V6.21h4.84V8.57h-4.84v3.25h6v2.4Z"/>
      <path d="M504.89,9.67v4.55h-2.76V.64h5.27c3.2,0,4.79,1.49,4.79,4.47a4.31,4.31,0,0,1-2,3.92l1.93,5.19h-3l-1.58-4.55Zm4-3a2.44,2.44,0,0,0,.48-1.58,2.25,2.25,0,0,0-.51-1.55A1.84,1.84,0,0,0,507.4,3h-2.51V7.31h2.55A1.76,1.76,0,0,0,508.9,6.71Z"/>
    </g>
    <path d="M523.5,14.74a5.55,5.55,0,0,1-4.43-1.64c-.94-1.09-1.39-2.79-1.39-5.19,0-4.77,2-7.18,6-7.18s5.91,2.05,5.91,6.09l-.27,2.41a.37.37,0,0,1-.36.32h-7.07a1.55,1.55,0,0,0,.47,1,2.2,2.2,0,0,0,1.48.44c1.56,0,3-.06,4.18-.16l.7-.08a.41.41,0,0,1,.28.09.37.37,0,0,1,.12.26l0,2.52a.36.36,0,0,1-.27.36A23.49,23.49,0,0,1,523.5,14.74Zm.15-13.29c-3.53,0-5.25,2.11-5.25,6.46,0,2.19.41,3.78,1.22,4.72A4.79,4.79,0,0,0,523.5,14a22,22,0,0,0,4.92-.63l0-1.83-.32,0c-1.24.11-2.66.17-4.25.17a2.92,2.92,0,0,1-1.95-.61,2.5,2.5,0,0,1-.74-2,.32.32,0,0,1,.1-.26.36.36,0,0,1,.26-.11h7.13l.23-2C528.84,3.2,527.14,1.45,523.65,1.45ZM525.84,7h-4.4a.36.36,0,0,1-.26-.11.4.4,0,0,1-.1-.26,3.73,3.73,0,0,1,.61-2.3,3,3,0,0,1,3.95,0,3.79,3.79,0,0,1,.56,2.35A.36.36,0,0,1,525.84,7Zm-4-.72h3.65a2.74,2.74,0,0,0-.39-1.54,1.78,1.78,0,0,0-1.41-.46,1.81,1.81,0,0,0-1.42.5A2.65,2.65,0,0,0,521.82,6.23Z"/>
    <g>
      <path d="M531.73.64h5.33a5,5,0,0,1,3.18.85,3.31,3.31,0,0,1,1,2.74A4,4,0,0,1,541,6a3.09,3.09,0,0,1-1.15,1.19,2.65,2.65,0,0,1,1.32,1.1,3.84,3.84,0,0,1,.43,2,3.6,3.6,0,0,1-1.15,2.94,5,5,0,0,1-3.26,1h-5.41ZM536.92,3h-2.44V6.23h2.46q1.56,0,1.56-1.62A1.41,1.41,0,0,0,536.92,3ZM537,8.55h-2.52v3.31H537a2.05,2.05,0,0,0,1.33-.36,1.68,1.68,0,0,0,.43-1.32C538.76,9.09,538.17,8.55,537,8.55Z"/>
      <path d="M543.89,14.22V.64h2.76V14.22Z"/>
      <path d="M552.28,14.22h-2.76V.64h2.76v6l1.83-.2L556.35.64h3.14l-3,6.81,3,6.77h-3.18l-2.28-5.41-1.83.2Z"/>
      <path d="M561.44,14.22V.64h8.79V3h-6V6.21H569V8.57H564.2v3.25h6v2.4Z"/>
    </g>
    <g>
      <path d="M585.27,14a18,18,0,0,1-3.82.46,7.23,7.23,0,0,1-2.71-.42,3.34,3.34,0,0,1-1.6-1.34,5.91,5.91,0,0,1-.8-2.16,17.86,17.86,0,0,1-.22-3.11q0-3.93,1.11-5.48c.74-1,2.1-1.55,4.08-1.55a17.4,17.4,0,0,1,4,.54l-.08,2.2a22.75,22.75,0,0,0-3.29-.3,3.66,3.66,0,0,0-1.87.35,2.14,2.14,0,0,0-.82,1.32A14.27,14.27,0,0,0,579,7.85a6.75,6.75,0,0,0,.55,3.26,2.33,2.33,0,0,0,2.19.91,23.19,23.19,0,0,0,3.51-.28Z"/>
      <path d="M595.31,14.22V8.59h-5v5.63H587.5V.64h2.76V6.19h5V.64h2.76V14.22Z"/>
      <path d="M599.88,14.22,602.94.64h5.23l3.06,13.58h-2.76l-.54-2.46h-4.75l-.54,2.46Zm5.2-11.3L603.7,9.37h3.71L606,2.92Z"/>
      <path d="M612.92,14.22V.64h4.7l2.39,9.9,2.4-9.9h4.69V14.22h-2.75V3.71h-.3l-2.66,9.91h-2.75L616,3.71h-.3V14.22Z"/>
      <path d="M635.05,10.26h-2.24v4h-2.75V.64h5q4.83,0,4.83,4.71A5.08,5.08,0,0,1,638.66,9,4.82,4.82,0,0,1,635.05,10.26Zm-2.24-2.35H635c1.37,0,2.06-.85,2.06-2.56a2.68,2.68,0,0,0-.5-1.81A2,2,0,0,0,635,3h-2.22Z"/>
      <path d="M641.82,14.22V.64h2.76V14.22Z"/>
      <path d="M656.85,12.77c-.85,1.13-2.3,1.69-4.37,1.69s-3.51-.56-4.36-1.69a8.84,8.84,0,0,1-1.27-5.28,9.14,9.14,0,0,1,1.27-5.34Q649.4.4,652.48.4c2.07,0,3.52.58,4.37,1.75a9.14,9.14,0,0,1,1.27,5.34A8.84,8.84,0,0,1,656.85,12.77ZM650.28,11a2.84,2.84,0,0,0,4.41,0,7.66,7.66,0,0,0,.59-3.51,8,8,0,0,0-.6-3.59,2.73,2.73,0,0,0-4.39,0,8,8,0,0,0-.6,3.59A7.53,7.53,0,0,0,650.28,11Z"/>
      <path d="M660.47,14.22V.64h4.65l3.28,11.18h.2V.64h2.76V14.22h-4.54L663.43,3h-.2V14.22Z"/>
      <path d="M678.48,2.8c-1.45,0-2.17.48-2.17,1.43a1.08,1.08,0,0,0,.54,1,14,14,0,0,0,2.52,1,7,7,0,0,1,2.79,1.45,3.42,3.42,0,0,1,.8,2.48,4,4,0,0,1-1.3,3.24,5.11,5.11,0,0,1-3.4,1.1,19,19,0,0,1-3.81-.48l-.72-.14L674,11.7a33.14,33.14,0,0,0,4.1.36c1.41,0,2.11-.58,2.11-1.76a1.15,1.15,0,0,0-.49-1,6.79,6.79,0,0,0-1.94-.78A7.87,7.87,0,0,1,674.52,7a3.36,3.36,0,0,1-.95-2.53,3.65,3.65,0,0,1,1.24-3,5.26,5.26,0,0,1,3.4-1A22.2,22.2,0,0,1,682,.8l.72.14-.22,2.18A38.78,38.78,0,0,0,678.48,2.8Z"/>
      <path d="M688.57,4.23h2.64l1.21,7.71h.48l1.52-7.51h2.76l1.51,7.51h.48l1.22-7.71H703l-1.9,10h-4.19L695.8,8.11l-1.14,6.11h-4.19Z"/>
      <path d="M704.74,3V.24h2.68V3Zm0,11.26v-10h2.68v10Z"/>
      <path d="M712.57,14.22H709.9v-10h2.65v.56a5.05,5.05,0,0,1,2.5-.8,3,3,0,0,1,2.75,1.18,6.83,6.83,0,0,1,.76,3.64v5.41h-2.67V8.89a4.52,4.52,0,0,0-.3-1.89,1.2,1.2,0,0,0-1.2-.61,4.46,4.46,0,0,0-1.58.28l-.24.08Z"/>
      <path d="M723.66,14.22H721v-10h2.66v.56a5,5,0,0,1,2.49-.8,3.05,3.05,0,0,1,2.76,1.18,6.93,6.93,0,0,1,.76,3.64v5.41H727V8.89a4.52,4.52,0,0,0-.3-1.89,1.2,1.2,0,0,0-1.2-.61,4.5,4.5,0,0,0-1.58.28l-.23.08Z"/>
      <path d="M734.71,11.69a2,2,0,0,0,1.35.41c1.23,0,2.34,0,3.31-.12l.56-.06,0,2a17.89,17.89,0,0,1-4.15.56,4.08,4.08,0,0,1-3.28-1.2,6,6,0,0,1-1-3.89C731.52,5.79,733,4,735.94,4s4.35,1.51,4.35,4.52l-.2,1.85h-5.87A1.72,1.72,0,0,0,734.71,11.69Zm2.94-3.36a2.68,2.68,0,0,0-.38-1.67,2.08,2.08,0,0,0-2.66,0,2.76,2.76,0,0,0-.41,1.65Z"/>
      <path d="M742.21,14.22v-10h2.65V5.29a10.37,10.37,0,0,1,3.2-1.3v2.7c-1.08.23-2,.46-2.78.7l-.4.14v6.69Z"/>
      <path d="M756.8,6.73a32.54,32.54,0,0,0-3.46-.32,2.86,2.86,0,0,0-1.28.18.63.63,0,0,0-.29.57.54.54,0,0,0,.39.54,14.82,14.82,0,0,0,2,.44,4.41,4.41,0,0,1,2.29.95,2.88,2.88,0,0,1,.67,2.13c0,2.16-1.33,3.24-4,3.24a17.33,17.33,0,0,1-3.19-.36l-.64-.12.08-2.24a30.15,30.15,0,0,0,3.44.32,3,3,0,0,0,1.32-.19.62.62,0,0,0,0-1.13,10.23,10.23,0,0,0-1.92-.44,4.9,4.9,0,0,1-2.3-.87,2.72,2.72,0,0,1-.76-2.21,2.83,2.83,0,0,1,1.07-2.4A4.52,4.52,0,0,1,753,4a19,19,0,0,1,3.22.38l.65.12Z"/>
      <path d="M762.75,4.23h2.64l1.22,7.71h.48l1.52-7.51h2.75l1.52,7.51h.48l1.22-7.71h2.63l-1.89,10h-4.2L770,8.11l-1.13,6.11h-4.2Z"/>
      <path d="M778.93,3V.24h2.68V3Zm0,11.26v-10h2.68v10Z"/>
      <path d="M789.61,6.51h-2.45V10.6a8.1,8.1,0,0,0,0,.85.67.67,0,0,0,.22.43.82.82,0,0,0,.59.18l1.51,0,.12,2.14a10.14,10.14,0,0,1-2,.3,3.05,3.05,0,0,1-2.46-.81,4.91,4.91,0,0,1-.66-3V6.51H783.3V4.23h1.18V1.46h2.68V4.23h2.45Z"/>
      <path d="M794,14.22h-2.68V.24H794V4.71A5.44,5.44,0,0,1,796.5,4a3.05,3.05,0,0,1,2.76,1.18A6.83,6.83,0,0,1,800,8.81v5.41h-2.68V8.87A4.45,4.45,0,0,0,797,7a1.2,1.2,0,0,0-1.2-.61,5.26,5.26,0,0,0-1.55.24l-.26.08Z"/>
      <path d="M806.51,18.41V4.23h2.65v.54A4.62,4.62,0,0,1,811.44,4a3.59,3.59,0,0,1,3,1.21,6.83,6.83,0,0,1,1,4.11q0,2.89-1,4a4.62,4.62,0,0,1-3.48,1.13,9.17,9.17,0,0,1-1.42-.12l-.24,0v4.11Zm4.41-12a4.09,4.09,0,0,0-1.5.3l-.24.1V12a11.59,11.59,0,0,0,1.46.12,1.73,1.73,0,0,0,1.59-.68,4.61,4.61,0,0,0,.43-2.31Q812.66,6.39,810.92,6.39Z"/>
      <path d="M817.37,14.22v-10H820V5.29A10.32,10.32,0,0,1,823.22,4v2.7c-1.08.23-2,.46-2.77.7l-.4.14v6.69Z"/>
      <path d="M827.49,11.69a1.94,1.94,0,0,0,1.34.41c1.24,0,2.35,0,3.32-.12l.56-.06,0,2a17.9,17.9,0,0,1-4.16.56,4.07,4.07,0,0,1-3.27-1.2,6,6,0,0,1-1-3.89c0-3.58,1.47-5.38,4.41-5.38s4.36,1.51,4.36,4.52l-.2,1.85H827A1.68,1.68,0,0,0,827.49,11.69Zm2.94-3.36a2.75,2.75,0,0,0-.38-1.67,1.62,1.62,0,0,0-1.33-.47,1.59,1.59,0,0,0-1.33.49A2.76,2.76,0,0,0,827,8.33Z"/>
      <path d="M842.15,6.73a32.54,32.54,0,0,0-3.46-.32,2.86,2.86,0,0,0-1.28.18.63.63,0,0,0-.29.57.54.54,0,0,0,.39.54,14.82,14.82,0,0,0,2,.44,4.34,4.34,0,0,1,2.28.95,2.84,2.84,0,0,1,.68,2.13q0,3.24-4,3.24a17.42,17.42,0,0,1-3.2-.36l-.64-.12.09-2.24a30,30,0,0,0,3.44.32,3.09,3.09,0,0,0,1.32-.19.62.62,0,0,0,0-1.13,10.23,10.23,0,0,0-1.92-.44,5,5,0,0,1-2.31-.87,2.75,2.75,0,0,1-.76-2.21,2.81,2.81,0,0,1,1.08-2.4A4.52,4.52,0,0,1,838.32,4a18.88,18.88,0,0,1,3.21.38l.66.12Z"/>
      <path d="M847,11.69a1.94,1.94,0,0,0,1.34.41c1.24,0,2.35,0,3.32-.12l.56-.06,0,2a17.9,17.9,0,0,1-4.16.56,4.07,4.07,0,0,1-3.27-1.2,6,6,0,0,1-1-3.89c0-3.58,1.47-5.38,4.41-5.38s4.36,1.51,4.36,4.52l-.2,1.85h-5.87A1.68,1.68,0,0,0,847,11.69Zm2.94-3.36a2.75,2.75,0,0,0-.38-1.67,1.62,1.62,0,0,0-1.33-.47,1.59,1.59,0,0,0-1.33.49,2.76,2.76,0,0,0-.41,1.65Z"/>
      <path d="M857.15,14.22h-2.68v-10h2.66v.56a5.05,5.05,0,0,1,2.5-.8,3,3,0,0,1,2.75,1.18,6.83,6.83,0,0,1,.76,3.64v5.41h-2.67V8.89a4.52,4.52,0,0,0-.3-1.89,1.2,1.2,0,0,0-1.2-.61,4.46,4.46,0,0,0-1.58.28l-.24.08Z"/>
      <path d="M869.25,4a14.61,14.61,0,0,1,2.66.32l.54.12-.08,2.12c-1-.11-1.83-.16-2.34-.16A2.23,2.23,0,0,0,868.2,7a3.91,3.91,0,0,0-.45,2.23,4,4,0,0,0,.45,2.24,2.2,2.2,0,0,0,1.85.61l2.32-.16.08,2.14a18.42,18.42,0,0,1-3.26.42A3.77,3.77,0,0,1,866,13.21a6.54,6.54,0,0,1-1-4,6.31,6.31,0,0,1,1-4A3.88,3.88,0,0,1,869.25,4Z"/>
      <path d="M877.11,11.69a2,2,0,0,0,1.35.41c1.24,0,2.34,0,3.31-.12l.56-.06,0,2a17.82,17.82,0,0,1-4.15.56,4.08,4.08,0,0,1-3.28-1.2,6,6,0,0,1-1-3.89c0-3.58,1.48-5.38,4.42-5.38s4.35,1.51,4.35,4.52l-.2,1.85h-5.87A1.72,1.72,0,0,0,877.11,11.69Zm2.94-3.36a2.76,2.76,0,0,0-.37-1.67,1.65,1.65,0,0,0-1.33-.47,1.6,1.6,0,0,0-1.34.49,2.76,2.76,0,0,0-.41,1.65Z"/>
      <path d="M889.74,5.36a5.25,5.25,0,0,1,7.07,0,6.21,6.21,0,0,1,1.06,3.85q0,5.25-4.6,5.25t-4.59-5.25A6.14,6.14,0,0,1,889.74,5.36Zm2.07,6.1a1.85,1.85,0,0,0,2.93,0,4.64,4.64,0,0,0,.41-2.25A4.54,4.54,0,0,0,894.74,7a1.88,1.88,0,0,0-2.93,0,4.54,4.54,0,0,0-.41,2.24A4.64,4.64,0,0,0,891.81,11.46Z"/>
      <path d="M903,6.51v7.71H900.3V6.51h-1.07V4.23h1.07V3.79a5.1,5.1,0,0,1,.64-3A2.74,2.74,0,0,1,903.22,0a11.6,11.6,0,0,1,1.86.2l.42.06,0,2.18c-.59,0-1.08,0-1.48,0a.85.85,0,0,0-.8.32,2.18,2.18,0,0,0-.2,1.09v.42h2.42V6.51Z"/>
      <path d="M918.32,6.73a32.67,32.67,0,0,0-3.47-.32,2.89,2.89,0,0,0-1.28.18.63.63,0,0,0-.29.57.54.54,0,0,0,.39.54,14.82,14.82,0,0,0,2,.44,4.41,4.41,0,0,1,2.29.95,2.88,2.88,0,0,1,.68,2.13q0,3.24-4,3.24a17.33,17.33,0,0,1-3.19-.36l-.64-.12.08-2.24a30.15,30.15,0,0,0,3.44.32,3,3,0,0,0,1.32-.19.6.6,0,0,0,.35-.57.59.59,0,0,0-.37-.56,10.23,10.23,0,0,0-1.92-.44,4.9,4.9,0,0,1-2.3-.87,2.72,2.72,0,0,1-.76-2.21,2.81,2.81,0,0,1,1.08-2.4A4.49,4.49,0,0,1,914.48,4a19,19,0,0,1,3.22.38l.66.12Z"/>
      <path d="M920.49,18.41V4.23h2.66v.54A4.56,4.56,0,0,1,925.43,4a3.58,3.58,0,0,1,3,1.21,6.75,6.75,0,0,1,1,4.11c0,1.93-.35,3.27-1.06,4a4.58,4.58,0,0,1-3.47,1.13,9.07,9.07,0,0,1-1.42-.12l-.24,0v4.11Zm4.42-12a4,4,0,0,0-1.5.3l-.24.1V12a11.45,11.45,0,0,0,1.46.12,1.7,1.7,0,0,0,1.58-.68,4.5,4.5,0,0,0,.43-2.31C926.64,7.31,926.06,6.39,924.91,6.39Z"/>
      <path d="M931.9,5.36a5.23,5.23,0,0,1,7.06,0A6.14,6.14,0,0,1,940,9.21q0,5.25-4.59,5.25t-4.59-5.25A6.14,6.14,0,0,1,931.9,5.36Zm2.06,6.1a1.86,1.86,0,0,0,2.94,0,4.76,4.76,0,0,0,.41-2.25A4.66,4.66,0,0,0,936.9,7,1.89,1.89,0,0,0,934,7a4.66,4.66,0,0,0-.41,2.24A4.76,4.76,0,0,0,934,11.46Z"/>
      <path d="M942,14.22v-10h2.66V5.29A10.23,10.23,0,0,1,947.83,4v2.7c-1.08.23-2,.46-2.77.7l-.4.14v6.69Z"/>
      <path d="M954.94,6.51h-2.46V10.6a8.1,8.1,0,0,0,0,.85.72.72,0,0,0,.22.43.85.85,0,0,0,.59.18l1.52,0,.12,2.14a10.12,10.12,0,0,1-2,.3,3,3,0,0,1-2.45-.81,4.91,4.91,0,0,1-.66-3V6.51h-1.18V4.23h1.18V1.46h2.67V4.23h2.46Z"/>
      <path d="M963.75,14.22h-2.68v-10h2.66v.56a4.92,4.92,0,0,1,2.35-.8,3.29,3.29,0,0,1,2.5.94A7.53,7.53,0,0,1,971.93,4a3.08,3.08,0,0,1,2.75,1.15,6.8,6.8,0,0,1,.77,3.67v5.41h-2.68V8.89A4.75,4.75,0,0,0,972.49,7a1.09,1.09,0,0,0-1.11-.61,5.37,5.37,0,0,0-1.56.28l-.3.1c.05,1,.08,1.76.08,2.28v5.17h-2.68V9.09A6,6,0,0,0,966.66,7a1.09,1.09,0,0,0-1.14-.61,4.27,4.27,0,0,0-1.53.28l-.24.08Z"/>
      <path d="M980.51,11.69a2,2,0,0,0,1.35.41c1.24,0,2.34,0,3.31-.12l.56-.06,0,2a17.82,17.82,0,0,1-4.15.56,4.08,4.08,0,0,1-3.28-1.2,6,6,0,0,1-1-3.89c0-3.58,1.47-5.38,4.41-5.38s4.35,1.51,4.35,4.52l-.2,1.85H980A1.75,1.75,0,0,0,980.51,11.69Zm3-3.36a2.75,2.75,0,0,0-.38-1.67,1.65,1.65,0,0,0-1.33-.47,1.61,1.61,0,0,0-1.34.49A2.76,2.76,0,0,0,980,8.33Z"/>
      <path d="M996.5.24v14h-2.66V13.8a5.85,5.85,0,0,1-2.42.66,3.4,3.4,0,0,1-3-1.26,7.23,7.23,0,0,1-.86-4,6.2,6.2,0,0,1,1-4A3.78,3.78,0,0,1,991.66,4a11.36,11.36,0,0,1,1.78.2l.38.08v-4Zm-3,11.58.28-.06V6.51a11.32,11.32,0,0,0-2-.2c-1.07,0-1.61,1-1.61,2.88a4.94,4.94,0,0,0,.36,2.21,1.24,1.24,0,0,0,1.18.66A6.88,6.88,0,0,0,993.54,11.82Z"/>
      <path d="M1006.68,7.35V11.5a1.62,1.62,0,0,0,.16.67.73.73,0,0,0,.5.27l-.08,2a7.82,7.82,0,0,1-1.63-.14,3.72,3.72,0,0,1-1.23-.56,6.54,6.54,0,0,1-2.93.7q-3.11,0-3.1-3.28a2.7,2.7,0,0,1,.86-2.26,4.78,4.78,0,0,1,2.64-.79L1004,8V7.35a1,1,0,0,0-.28-.85,1.4,1.4,0,0,0-.89-.23l-3.76.16L999,4.57a15.85,15.85,0,0,1,4.07-.58,4,4,0,0,1,2.77.8A3.38,3.38,0,0,1,1006.68,7.35ZM1002.19,10a1.07,1.07,0,0,0-1.12,1.19c0,.74.33,1.1,1,1.1a6.52,6.52,0,0,0,1.66-.24L1004,12V9.83Z"/>
      <path d="M1009.36,14.22V.24H1012v14Z"/>
      <path d="M1018,4.23h2.64l1.22,7.71h.48l1.51-7.51h2.76l1.52,7.51h.48l1.22-7.71h2.63l-1.9,10h-4.19l-1.14-6.11-1.14,6.11h-4.19Z"/>
      <path d="M1034.22,3V.24h2.67V3Zm0,11.26v-10h2.67v10Z"/>
      <path d="M1042.05,14.22h-2.68v-10H1042v.56a5,5,0,0,1,2.49-.8,3.05,3.05,0,0,1,2.76,1.18,6.93,6.93,0,0,1,.76,3.64v5.41h-2.68V8.89a4.52,4.52,0,0,0-.3-1.89,1.2,1.2,0,0,0-1.2-.61,4.4,4.4,0,0,0-1.57.28l-.24.08Z"/>
      <path d="M1053.15,14.22h-2.68v-10h2.66v.56a5,5,0,0,1,2.5-.8,3,3,0,0,1,2.75,1.18,6.83,6.83,0,0,1,.76,3.64v5.41h-2.68V8.89a4.72,4.72,0,0,0-.29-1.89,1.21,1.21,0,0,0-1.2-.61,4.42,4.42,0,0,0-1.58.28l-.24.08Z"/>
      <path d="M1064.2,11.69a2,2,0,0,0,1.35.41c1.24,0,2.34,0,3.32-.12l.55-.06,0,2a17.82,17.82,0,0,1-4.15.56,4.05,4.05,0,0,1-3.27-1.2,6,6,0,0,1-1-3.89c0-3.58,1.47-5.38,4.41-5.38s4.35,1.51,4.35,4.52l-.2,1.85h-5.87A1.75,1.75,0,0,0,1064.2,11.69Zm3-3.36a2.75,2.75,0,0,0-.38-1.67,1.64,1.64,0,0,0-1.33-.47,1.61,1.61,0,0,0-1.34.49,2.83,2.83,0,0,0-.41,1.65Z"/>
      <path d="M1071.7,14.22v-10h2.66V5.29a10.32,10.32,0,0,1,3.19-1.3v2.7c-1.08.23-2,.46-2.77.7l-.4.14v6.69Z"/>
      <path d="M1086.3,6.73a32.67,32.67,0,0,0-3.47-.32,2.8,2.8,0,0,0-1.27.18.61.61,0,0,0-.29.57.54.54,0,0,0,.39.54,14.52,14.52,0,0,0,2,.44,4.37,4.37,0,0,1,2.29.95,2.88,2.88,0,0,1,.68,2.13q0,3.24-4,3.24a17.42,17.42,0,0,1-3.19-.36l-.64-.12.08-2.24a30.15,30.15,0,0,0,3.44.32,3,3,0,0,0,1.32-.19.62.62,0,0,0,0-1.13,9.83,9.83,0,0,0-1.91-.44,4.94,4.94,0,0,1-2.31-.87,2.72,2.72,0,0,1-.76-2.21,2.81,2.81,0,0,1,1.08-2.4,4.49,4.49,0,0,1,2.77-.81,19,19,0,0,1,3.22.38l.66.12Z"/>
    </g>
    <g>
      <path d="M1096.64,4a14.52,14.52,0,0,1,2.65.32l.54.12-.08,2.12c-1-.11-1.83-.16-2.33-.16a2.23,2.23,0,0,0-1.83.59,3.91,3.91,0,0,0-.45,2.23,4,4,0,0,0,.45,2.24,2.19,2.19,0,0,0,1.85.61l2.31-.16.08,2.14a18.33,18.33,0,0,1-3.25.42,3.81,3.81,0,0,1-3.19-1.25,6.6,6.6,0,0,1-1-4,6.38,6.38,0,0,1,1-4A3.92,3.92,0,0,1,1096.64,4Z"/>
      <path d="M1104.49,11.69a2,2,0,0,0,1.35.41c1.24,0,2.35,0,3.32-.12l.56-.06,0,2a17.9,17.9,0,0,1-4.16.56,4.07,4.07,0,0,1-3.27-1.2,6,6,0,0,1-1-3.89c0-3.58,1.47-5.38,4.41-5.38s4.36,1.51,4.36,4.52l-.2,1.85H1104A1.75,1.75,0,0,0,1104.49,11.69Zm3-3.36a2.75,2.75,0,0,0-.38-1.67,1.64,1.64,0,0,0-1.33-.47,1.61,1.61,0,0,0-1.34.49,2.77,2.77,0,0,0-.4,1.65Z"/>
      <path d="M1112.11,14.22V.24h2.68v14Z"/>
      <path d="M1120.07,11.69a2,2,0,0,0,1.35.41c1.24,0,2.34,0,3.31-.12l.56-.06,0,2a17.82,17.82,0,0,1-4.15.56,4.08,4.08,0,0,1-3.28-1.2,6,6,0,0,1-1-3.89c0-3.58,1.47-5.38,4.41-5.38s4.35,1.51,4.35,4.52l-.2,1.85h-5.87A1.72,1.72,0,0,0,1120.07,11.69Zm3-3.36a2.75,2.75,0,0,0-.38-1.67,1.65,1.65,0,0,0-1.33-.47,1.61,1.61,0,0,0-1.34.49,2.76,2.76,0,0,0-.41,1.65Z"/>
      <path d="M1132.42,4a3.82,3.82,0,0,1,3.07,1.15c.64.77,1,2.14,1,4.11s-.38,3.33-1.12,4.08a5.35,5.35,0,0,1-3.86,1.13c-.57,0-1.61-.07-3.13-.2l-.76-.08V.24h2.67V4.53A5.8,5.8,0,0,1,1132.42,4Zm-.94,8.07a2.06,2.06,0,0,0,1.8-.65,4.18,4.18,0,0,0,.46-2.32q0-2.7-1.68-2.7a5.81,5.81,0,0,0-1.52.2l-.28.06V12C1130.88,12,1131.28,12.06,1131.48,12.06Z"/>
      <path d="M1138.45,14.22v-10h2.66V5.29A10.32,10.32,0,0,1,1144.3,4v2.7c-1.08.23-2,.46-2.77.7l-.4.14v6.69Z"/>
      <path d="M1145.88,3V.24h2.68V3Zm0,11.26v-10h2.68v10Z"/>
      <path d="M1156.56,6.51h-2.45V10.6a8.1,8.1,0,0,0,0,.85.67.67,0,0,0,.22.43.82.82,0,0,0,.59.18l1.51,0,.12,2.14a10.14,10.14,0,0,1-2,.3,3.05,3.05,0,0,1-2.46-.81,4.91,4.91,0,0,1-.66-3V6.51h-1.18V4.23h1.18V1.46h2.68V4.23h2.45Z"/>
      <path d="M1158.2,3V.24h2.68V3Zm0,11.26v-10h2.68v10Z"/>
      <path d="M1166,11.69a2,2,0,0,0,1.35.41c1.24,0,2.34,0,3.31-.12l.56-.06,0,2a17.82,17.82,0,0,1-4.15.56,4.08,4.08,0,0,1-3.28-1.2,6,6,0,0,1-1-3.89c0-3.58,1.47-5.38,4.41-5.38s4.35,1.51,4.35,4.52l-.2,1.85h-5.87A1.72,1.72,0,0,0,1166,11.69Zm3-3.36a2.75,2.75,0,0,0-.38-1.67,1.65,1.65,0,0,0-1.33-.47,1.61,1.61,0,0,0-1.34.49,2.76,2.76,0,0,0-.41,1.65Z"/>
      <path d="M1180.75,6.73a32.67,32.67,0,0,0-3.47-.32,2.89,2.89,0,0,0-1.28.18.62.62,0,0,0-.28.57.54.54,0,0,0,.39.54,14.14,14.14,0,0,0,2,.44,4.37,4.37,0,0,1,2.29.95,2.88,2.88,0,0,1,.68,2.13q0,3.24-4,3.24a17.33,17.33,0,0,1-3.19-.36l-.64-.12.08-2.24a30.15,30.15,0,0,0,3.44.32,3,3,0,0,0,1.32-.19.6.6,0,0,0,.35-.57.59.59,0,0,0-.37-.56,9.8,9.8,0,0,0-1.92-.44,4.9,4.9,0,0,1-2.3-.87,2.72,2.72,0,0,1-.76-2.21,2.81,2.81,0,0,1,1.08-2.4,4.49,4.49,0,0,1,2.77-.81,19,19,0,0,1,3.22.38l.66.12Z"/>
      <path d="M1182.8,14.22V10.9h2.88v3.32Z"/>
    </g>
    <g>
      <path d="M388.65,39.84V26.26h4.65l3.28,11.18h.19V26.26h2.76V39.84H395l-3.4-11.18h-.2V39.84Z"/>
      <path d="M402.49,39.84V26.26h8.78v2.4h-6v3.17h4.83v2.36h-4.83v3.25h6v2.4Z"/>
      <path d="M412.49,26.26h2.9l1.67,11.22h.3l2.44-11.22H423l2.44,11.22h.3l1.68-11.22h2.89l-2.59,13.58h-4.18L421.4,29.52l-2.14,10.32h-4.17Z"/>
      <path d="M435.3,26.26h2.89l1.68,11.22h.3l2.43-11.22h3.2l2.44,11.22h.3l1.67-11.22h2.9l-2.6,13.58h-4.17L444.2,29.52l-2.14,10.32h-4.17Z"/>
      <path d="M453.91,39.84l3-13.58h5.23l3.06,13.58h-2.76L462,37.38H457.2l-.54,2.46Zm5.19-11.3L457.72,35h3.72l-1.38-6.45Z"/>
      <path d="M465.79,28.7V26.26h10V28.7h-3.59V39.84h-2.76V28.7Z"/>
      <path d="M477.45,39.84V26.26h8.79v2.4h-6v3.17H485v2.36h-4.83v3.25h6v2.4Z"/>
      <path d="M491.27,35.29v4.55h-2.76V26.26h5.28q4.79,0,4.79,4.47a4.31,4.31,0,0,1-2,3.92l1.94,5.19h-3l-1.57-4.55Zm4-3a2.44,2.44,0,0,0,.48-1.58,2.25,2.25,0,0,0-.51-1.55,1.83,1.83,0,0,0-1.46-.58h-2.52v4.31h2.56A1.74,1.74,0,0,0,495.28,32.33Z"/>
      <path d="M509.2,28.42c-1.45,0-2.17.48-2.17,1.44a1.09,1.09,0,0,0,.53,1,13.48,13.48,0,0,0,2.53,1,7.05,7.05,0,0,1,2.79,1.45,3.43,3.43,0,0,1,.8,2.49,4,4,0,0,1-1.3,3.23,5.11,5.11,0,0,1-3.4,1.1,18.78,18.78,0,0,1-3.81-.48l-.72-.14.28-2.14a33.17,33.17,0,0,0,4.09.36c1.41,0,2.12-.58,2.12-1.75a1.16,1.16,0,0,0-.49-1,6.89,6.89,0,0,0-1.95-.78,7.88,7.88,0,0,1-3.26-1.57,3.34,3.34,0,0,1-.95-2.53,3.66,3.66,0,0,1,1.24-3,5.21,5.21,0,0,1,3.39-1,22.2,22.2,0,0,1,3.76.4l.72.14-.22,2.18A39,39,0,0,0,509.2,28.42Z"/>
      <path d="M520.88,35.89h-2.23v4h-2.76V26.26h5q4.85,0,4.84,4.71a5,5,0,0,1-1.23,3.65A4.82,4.82,0,0,1,520.88,35.89Zm-2.23-2.36h2.21c1.38,0,2.06-.85,2.06-2.56a2.63,2.63,0,0,0-.5-1.8,2,2,0,0,0-1.56-.55h-2.21Z"/>
      <path d="M537.05,38.39q-1.27,1.7-4.36,1.69c-2.07,0-3.52-.56-4.37-1.69a8.84,8.84,0,0,1-1.27-5.28,9.14,9.14,0,0,1,1.27-5.34c.85-1.17,2.3-1.75,4.37-1.75s3.51.58,4.36,1.75a9.14,9.14,0,0,1,1.27,5.34A8.84,8.84,0,0,1,537.05,38.39Zm-6.57-1.76a2.84,2.84,0,0,0,4.41,0,7.5,7.5,0,0,0,.59-3.51,8,8,0,0,0-.6-3.58,2.71,2.71,0,0,0-4.39,0,8,8,0,0,0-.6,3.58A7.64,7.64,0,0,0,530.48,36.63Z"/>
      <path d="M543.43,35.29v4.55h-2.76V26.26H546q4.78,0,4.79,4.47a4.31,4.31,0,0,1-2,3.92l1.94,5.19h-3l-1.57-4.55Zm4-3a2.44,2.44,0,0,0,.48-1.58,2.25,2.25,0,0,0-.51-1.55,1.83,1.83,0,0,0-1.46-.58h-2.52v4.31H546A1.74,1.74,0,0,0,547.44,32.33Z"/>
      <path d="M551.84,28.7V26.26h10V28.7h-3.59V39.84h-2.76V28.7Z"/>
      <path d="M566.73,26.26h2.9l1.68,11.22h.3L574,26.26h3.2l2.43,11.22h.3l1.68-11.22h2.9L582,39.84h-4.17l-2.14-10.32L573.5,39.84h-4.17Z"/>
      <path d="M586.4,39.84V26.26h2.76V39.84Z"/>
      <path d="M590.9,28.7V26.26h10V28.7h-3.59V39.84h-2.76V28.7Z"/>
      <path d="M610.35,39.84V34.21h-5.06v5.63h-2.75V26.26h2.75v5.55h5.06V26.26h2.75V39.84Z"/>
      <path d="M629.81,38.39c-.85,1.13-2.3,1.69-4.37,1.69s-3.51-.56-4.36-1.69-1.27-2.88-1.27-5.28a9.06,9.06,0,0,1,1.27-5.34Q622.35,26,625.44,26c2.07,0,3.52.58,4.37,1.75a9.14,9.14,0,0,1,1.27,5.34A8.84,8.84,0,0,1,629.81,38.39Zm-6.57-1.76a2.84,2.84,0,0,0,4.41,0,7.64,7.64,0,0,0,.59-3.51,8,8,0,0,0-.6-3.58,2.71,2.71,0,0,0-4.39,0,8,8,0,0,0-.6,3.58A7.5,7.5,0,0,0,623.24,36.63Z"/>
      <path d="M641.16,39.84h-7.73V26.26h2.76V37.4h5Z"/>
      <path d="M648.21,39.84h-2.76V34.35l-4.19-8.09h3.06l2.49,5.41,2.5-5.41h3.05l-4.15,8.09Z"/>
      <path d="M653.86,39.84V26.26h4.69l2.4,9.91,2.4-9.91H668V39.84h-2.76V29.34H665l-2.65,9.9h-2.76l-2.65-9.9h-.3v10.5Z"/>
      <path d="M676,35.89h-2.24v4H671V26.26h5q4.83,0,4.83,4.71a5,5,0,0,1-1.23,3.65A4.81,4.81,0,0,1,676,35.89Zm-2.24-2.36H676c1.37,0,2-.85,2-2.56a2.58,2.58,0,0,0-.5-1.8,2,2,0,0,0-1.55-.55h-2.22Z"/>
      <path d="M682.7,39.84V26.26h2.75V39.84Z"/>
      <path d="M697,39.62a17.89,17.89,0,0,1-3.81.46,7.29,7.29,0,0,1-2.72-.42,3.36,3.36,0,0,1-1.59-1.34,5.75,5.75,0,0,1-.8-2.15,18.06,18.06,0,0,1-.22-3.12q0-3.93,1.11-5.48c.74-1,2.1-1.55,4.08-1.55a17.32,17.32,0,0,1,4,.54l-.08,2.2a22.51,22.51,0,0,0-3.28-.3,3.63,3.63,0,0,0-1.87.35,2.15,2.15,0,0,0-.83,1.32,14.27,14.27,0,0,0-.27,3.34,6.87,6.87,0,0,0,.55,3.26,2.36,2.36,0,0,0,2.2.91,23,23,0,0,0,3.5-.28Z"/>
      <path d="M708.58,35.89h-2.24v4h-2.76V26.26h5q4.83,0,4.83,4.71a5,5,0,0,1-1.23,3.65A4.81,4.81,0,0,1,708.58,35.89Zm-2.24-2.36h2.22c1.37,0,2.05-.85,2.05-2.56a2.58,2.58,0,0,0-.5-1.8,2,2,0,0,0-1.55-.55h-2.22Z"/>
      <path d="M724.68,38.39c-.84,1.13-2.3,1.69-4.36,1.69s-3.52-.56-4.36-1.69-1.27-2.88-1.27-5.28A9.06,9.06,0,0,1,716,27.77Q717.22,26,720.32,26c2.06,0,3.52.58,4.36,1.75A9.06,9.06,0,0,1,726,33.11Q726,36.71,724.68,38.39Zm-6.57-1.76a2.85,2.85,0,0,0,4.42,0,7.66,7.66,0,0,0,.58-3.51,8,8,0,0,0-.59-3.58,2.72,2.72,0,0,0-4.4,0,8,8,0,0,0-.6,3.58A7.64,7.64,0,0,0,718.11,36.63Z"/>
      <path d="M727.09,28.7V26.26h10V28.7h-3.59V39.84h-2.76V28.7Z"/>
      <path d="M738.75,39.84V26.26h8.79v2.4h-6v3.17h4.83v2.36h-4.83v3.25h6v2.4Z"/>
      <path d="M749.81,39.84V26.26h4.66l3.27,11.18h.2V26.26h2.76V39.84h-4.54l-3.39-11.18h-.2V39.84Z"/>
      <path d="M762.47,28.7V26.26h10V28.7h-3.6V39.84h-2.75V28.7Z"/>
      <path d="M774.14,39.84V26.26h2.75V39.84Z"/>
      <path d="M778.65,39.84l3.05-13.58h5.24l3,13.58h-2.75l-.54-2.46h-4.76l-.53,2.46Zm5.19-11.3L782.46,35h3.72l-1.38-6.45Z"/>
      <path d="M799.48,39.84h-7.73V26.26h2.75V37.4h5Z"/>
    </g>
  </g>
</svg>
