<?xml version="1.0" encoding="utf-8"?>
<!-- Generator: Adobe Illustrator 25.4.1, SVG Export Plug-In . SVG Version: 6.00 Build 0)  -->
<svg version="1.1" id="Capa_2_00000072972503977196556460000005700309628947645601_"
	 xmlns="http://www.w3.org/2000/svg" xmlns:xlink="http://www.w3.org/1999/xlink" x="0px" y="0px" width="702.12px"
	 height="61.15px" viewBox="0 0 702.12 61.15" style="enable-background:new 0 0 702.12 61.15;" xml:space="preserve">
<g id="Capa_1-2">
	<g>
		<path d="M26.54,30.26c-1.14-1.45-2.42-2.84-3.79-4.15l-6.71-6.45c-1.21-1.14-2.01-2.15-2.4-2.98c-0.38-0.81-0.57-1.57-0.57-2.24
			c0-0.59,0.14-1.04,0.42-1.38c0.24-0.28,0.67-0.43,1.29-0.43c0.51,0,0.89,0.13,1.16,0.39c0.26,0.25,0.39,0.63,0.39,1.16v4.97h13.76
			v-0.97c0-5.99-1.2-10.55-3.56-13.55C24.11,1.56,20.03,0,14.42,0C9.79,0,6.18,1.42,3.7,4.23C1.24,7,0,11.03,0,16.2
			s2.07,9.48,6.15,13.33l5.22,4.96c1.5,1.42,2.69,2.67,3.53,3.72c0.79,0.99,1.35,2.03,1.66,3.11c0.32,1.11,0.49,2.52,0.49,4.21
			c0,1.51-0.25,2.2-0.45,2.51c-0.08,0.12-0.32,0.49-1.39,0.49c-0.83,0-1.11-0.32-1.28-0.63c-0.33-0.61-0.5-1.52-0.5-2.7v-8.24H0
			v6.65c0,5.99,1.27,10.45,3.76,13.27c2.53,2.85,6.63,4.29,12.21,4.29s9.14-1.71,11.34-5.08c2.11-3.24,3.18-7.74,3.18-13.37
			c0-2.81-0.36-5.24-1.08-7.22c-0.72-1.97-1.68-3.73-2.86-5.23L26.54,30.26z"/>
		<path d="M56.48,2.87c-2.05-1.56-4.82-2.34-8.24-2.34H31.91v60.1h13.37V37.6h3.76c3.43,0,6.14-0.8,8.06-2.37
			c1.91-1.56,3.24-3.77,3.98-6.57c0.7-2.68,1.06-5.86,1.06-9.45s-0.43-7.01-1.27-9.74C60,6.64,58.52,4.42,56.48,2.87z M45.28,13.07
			h0.32c1.78,0,2.25,0.68,2.45,1.19c0.43,1.08,0.64,2.68,0.64,4.75c0,2.22-0.22,3.9-0.66,4.99c-0.3,0.75-1.23,1.16-2.76,1.21V13.07
			L45.28,13.07z"/>
		<path d="M78.23,0c-4.95,0-8.78,1.4-11.39,4.17c-2.6,2.75-3.92,6.79-3.92,12V43.8c0,5.53,1.32,9.84,3.92,12.81
			c2.64,3.01,6.47,4.54,11.39,4.54s8.75-1.53,11.39-4.54c2.6-2.98,3.92-7.29,3.92-12.81V16.17c0-5.21-1.32-9.25-3.92-12
			C87.01,1.4,83.17,0,78.23,0z M78.33,48.51c-0.85,0-1.16-0.36-1.34-0.68c-0.24-0.43-0.54-1.38-0.54-3.41V16.07
			c0-3.43,1.36-3.43,1.94-3.43c0.44,0,1.61,0,1.61,3.33v28.39c0,2.76-0.56,4.16-1.68,4.16L78.33,48.51z"/>
		<polygon points="113.12,19.2 109.53,0.53 95.81,0.53 95.81,60.62 109.11,60.62 109.11,40.34 113.16,60.62 126.29,60.62 
			126.29,0.53 113.12,0.53 		"/>
		<path d="M154.25,30.26c-1.14-1.45-2.42-2.84-3.79-4.15l-6.71-6.45c-1.21-1.14-2.01-2.15-2.4-2.98c-0.38-0.81-0.57-1.57-0.57-2.24
			c0-0.59,0.14-1.04,0.42-1.38c0.24-0.28,0.67-0.43,1.29-0.43c0.51,0,0.89,0.13,1.16,0.39c0.26,0.25,0.39,0.63,0.39,1.16v4.97h13.76
			v-0.97c0-5.99-1.2-10.55-3.56-13.55C151.82,1.56,147.75,0,142.13,0c-4.63,0-8.24,1.42-10.72,4.23c-2.45,2.77-3.7,6.8-3.7,11.98
			s2.07,9.48,6.15,13.33l5.22,4.96c1.5,1.42,2.69,2.67,3.53,3.72c0.79,0.99,1.35,2.03,1.66,3.11c0.32,1.11,0.49,2.52,0.49,4.21
			c0,1.51-0.25,2.2-0.45,2.51c-0.08,0.12-0.32,0.49-1.39,0.49c-0.83,0-1.11-0.32-1.28-0.63c-0.33-0.61-0.5-1.52-0.5-2.7v-8.24
			h-13.43v6.65c0,5.99,1.27,10.45,3.76,13.27c2.53,2.85,6.63,4.29,12.21,4.29s9.14-1.71,11.34-5.08c2.11-3.24,3.18-7.74,3.18-13.37
			c0-2.81-0.36-5.24-1.08-7.22c-0.72-1.97-1.68-3.73-2.86-5.23L154.25,30.26z"/>
		<path d="M174.47,0c-4.95,0-8.78,1.4-11.39,4.17c-2.6,2.75-3.92,6.79-3.92,12V43.8c0,5.53,1.32,9.84,3.92,12.81
			c2.64,3.01,6.47,4.54,11.39,4.54s8.75-1.53,11.39-4.54c2.6-2.98,3.92-7.29,3.92-12.81V16.17c0-5.21-1.32-9.25-3.92-12
			C183.25,1.4,179.41,0,174.47,0z M174.57,48.51c-0.85,0-1.16-0.36-1.34-0.68c-0.24-0.43-0.54-1.38-0.54-3.41V16.07
			c0-3.43,1.36-3.43,1.94-3.43c0.44,0,1.61,0,1.61,3.33v28.39c0,2.76-0.56,4.16-1.68,4.16L174.57,48.51z"/>
		<path d="M221.12,25.77c0.85-2.01,1.28-4.69,1.28-7.98s-0.27-6.29-0.8-8.78c-0.56-2.63-1.69-4.72-3.36-6.2
			c-1.69-1.51-4.18-2.28-7.39-2.28h-18.81v60.1h13.7v-26.5c1.05,0.08,1.61,0.28,1.9,0.45c0.27,0.16,0.56,0.85,0.56,2.32v23.74h13.4
			V37.66c0-2.43-0.41-4.47-1.21-6.04c-0.52-1.01-1.26-1.81-2.23-2.38c1.34-0.85,2.33-2.01,2.95-3.46L221.12,25.77z M205.81,13.24
			h1.74c0.75,0,0.99,0.26,1.12,0.52c0.16,0.32,0.43,1.27,0.43,4.03c0,1.6-0.19,4.29-1.45,4.29h-1.84
			C205.81,22.08,205.81,13.24,205.81,13.24z"/>
		<path d="M249.07,30.26c-1.14-1.45-2.42-2.84-3.79-4.15l-6.71-6.45c-1.21-1.14-2.01-2.15-2.4-2.98c-0.38-0.81-0.57-1.57-0.57-2.24
			c0-0.59,0.14-1.04,0.42-1.38c0.24-0.28,0.67-0.43,1.29-0.43c0.51,0,0.89,0.13,1.16,0.39c0.26,0.25,0.39,0.63,0.39,1.16v4.97h13.76
			v-0.97c0-5.99-1.2-10.55-3.56-13.55C246.64,1.56,242.57,0,236.95,0c-4.63,0-8.24,1.42-10.72,4.23c-2.45,2.77-3.7,6.8-3.7,11.98
			s2.07,9.48,6.15,13.33l5.22,4.96c1.5,1.42,2.69,2.67,3.53,3.72c0.79,0.99,1.35,2.03,1.66,3.11c0.32,1.11,0.49,2.52,0.49,4.21
			c0,1.51-0.25,2.2-0.45,2.51c-0.08,0.12-0.32,0.49-1.39,0.49c-0.83,0-1.11-0.32-1.28-0.63c-0.33-0.61-0.5-1.52-0.5-2.7v-8.24
			h-13.43v6.65c0,5.99,1.27,10.45,3.76,13.27c2.53,2.85,6.63,4.29,12.21,4.29s9.14-1.71,11.34-5.08c2.11-3.24,3.18-7.74,3.18-13.37
			c0-2.81-0.36-5.24-1.08-7.22c-0.72-1.97-1.68-3.73-2.86-5.23L249.07,30.26z"/>
		<polygon points="271.36,21.32 267.81,21.32 267.81,0.53 254.31,0.53 254.31,60.62 267.81,60.62 267.81,34.25 271.36,34.25 
			271.36,60.62 284.86,60.62 284.86,0.53 271.36,0.53 		"/>
		<rect x="286.88" y="0.53" width="13.17" height="60.1"/>
		<path d="M327.07,2.87c-2.05-1.56-4.82-2.34-8.24-2.34H302.5v60.1h13.37V37.6h3.76c3.43,0,6.14-0.8,8.06-2.37
			c1.91-1.56,3.24-3.77,3.98-6.57c0.7-2.68,1.06-5.86,1.06-9.45s-0.43-7.01-1.27-9.74C330.59,6.64,329.11,4.42,327.07,2.87
			L327.07,2.87z M315.87,13.07h0.32c1.78,0,2.25,0.68,2.45,1.19c0.43,1.08,0.64,2.68,0.64,4.75c0,2.22-0.22,3.9-0.66,4.99
			c-0.3,0.75-1.23,1.16-2.76,1.21V13.07L315.87,13.07z"/>
		<path d="M375.32,29.23c1.34-0.85,2.33-2.01,2.95-3.46c0.85-2.01,1.28-4.69,1.28-7.98s-0.27-6.29-0.8-8.78
			c-0.56-2.63-1.69-4.72-3.36-6.2c-1.69-1.51-4.18-2.28-7.39-2.28h-18.81v60.1h13.7v-26.5c1.05,0.08,1.61,0.28,1.9,0.45
			c0.27,0.16,0.56,0.85,0.56,2.32v23.74h13.4V37.66c0-2.43-0.41-4.47-1.21-6.04c-0.52-1.01-1.26-1.81-2.23-2.38L375.32,29.23z
			 M362.96,13.24h1.74c0.75,0,0.99,0.26,1.12,0.52c0.16,0.32,0.43,1.27,0.43,4.03c0,1.6-0.19,4.29-1.45,4.29h-1.84L362.96,13.24
			L362.96,13.24z"/>
		<path d="M385.13,0.53l-5.81,60.1h13.26l0.73-9.39h5.23l0.83,9.39h12.95l-5.7-60.1L385.13,0.53L385.13,0.53z M397.48,40.02h-3.19
			l1.48-19.84L397.48,40.02z"/>
		<rect x="412.76" y="0.53" width="13.17" height="60.1"/>
		<path d="M453.74,30.26c-1.14-1.45-2.42-2.84-3.79-4.15l-6.71-6.45c-1.21-1.14-2.01-2.15-2.4-2.98c-0.38-0.81-0.57-1.57-0.57-2.24
			c0-0.59,0.14-1.04,0.42-1.38c0.24-0.28,0.67-0.43,1.29-0.43c0.51,0,0.89,0.13,1.16,0.39c0.26,0.25,0.39,0.63,0.39,1.16v4.97h13.76
			v-0.97c0-5.99-1.2-10.55-3.56-13.55C451.31,1.56,447.24,0,441.62,0c-4.63,0-8.24,1.42-10.72,4.23c-2.45,2.77-3.7,6.8-3.7,11.98
			s2.07,9.48,6.15,13.33l5.22,4.96c1.5,1.42,2.69,2.67,3.53,3.72c0.79,0.99,1.35,2.03,1.66,3.11c0.32,1.11,0.49,2.52,0.49,4.21
			c0,1.51-0.25,2.2-0.45,2.51c-0.08,0.12-0.32,0.49-1.39,0.49c-0.83,0-1.11-0.32-1.28-0.63c-0.33-0.61-0.5-1.52-0.5-2.7v-8.24H427.2
			v6.65c0,5.99,1.27,10.45,3.76,13.27c2.53,2.85,6.63,4.29,12.21,4.29s9.14-1.71,11.34-5.08c2.11-3.24,3.18-7.74,3.18-13.37
			c0-2.81-0.36-5.24-1.08-7.22c-0.72-1.97-1.68-3.73-2.86-5.23L453.74,30.26z"/>
		<polygon points="472.88,35.97 483.85,35.97 483.85,23.1 472.88,23.1 472.88,13.7 484.31,13.7 484.31,0.53 459.11,0.53 
			459.11,60.62 485.07,60.62 485.07,47.36 472.88,47.36 		"/>
		<path d="M515.53,25.77c0.85-2.01,1.28-4.69,1.28-7.98s-0.27-6.29-0.8-8.78c-0.56-2.63-1.69-4.72-3.36-6.2
			c-1.69-1.51-4.18-2.28-7.39-2.28h-18.81v60.1h13.7v-26.5c1.05,0.08,1.61,0.28,1.9,0.45c0.27,0.16,0.56,0.85,0.56,2.32v23.74h13.4
			V37.66c0-2.43-0.41-4.47-1.21-6.04c-0.52-1.01-1.26-1.81-2.23-2.38c1.34-0.85,2.33-2.01,2.95-3.46L515.53,25.77z M500.22,13.24
			h1.74c0.75,0,0.99,0.26,1.12,0.52c0.16,0.32,0.43,1.27,0.43,4.03c0,1.6-0.19,4.29-1.45,4.29h-1.84L500.22,13.24L500.22,13.24z"/>
		<path d="M543.48,30.26c-1.14-1.45-2.42-2.84-3.79-4.15l-6.71-6.45c-1.21-1.14-2.01-2.15-2.4-2.98c-0.38-0.81-0.57-1.57-0.57-2.24
			c0-0.59,0.14-1.04,0.42-1.38c0.24-0.28,0.67-0.43,1.29-0.43c0.51,0,0.89,0.13,1.16,0.39c0.26,0.25,0.39,0.63,0.39,1.16v4.97h13.76
			v-0.97c0-5.99-1.2-10.55-3.56-13.55C541.05,1.56,536.98,0,531.36,0c-4.63,0-8.24,1.42-10.72,4.23c-2.45,2.77-3.7,6.8-3.7,11.98
			s2.07,9.48,6.15,13.33l5.22,4.96c1.5,1.42,2.69,2.67,3.53,3.72c0.79,0.99,1.35,2.03,1.66,3.11c0.32,1.11,0.49,2.52,0.49,4.21
			c0,1.51-0.25,2.2-0.45,2.51c-0.08,0.12-0.32,0.49-1.39,0.49c-0.83,0-1.11-0.32-1.28-0.63c-0.33-0.61-0.5-1.52-0.5-2.7v-8.24
			h-13.43v6.65c0,5.99,1.27,10.45,3.76,13.27c2.53,2.85,6.63,4.29,12.21,4.29s9.14-1.71,11.34-5.08c2.11-3.24,3.18-7.74,3.18-13.37
			c0-2.81-0.36-5.24-1.08-7.22c-0.72-1.97-1.68-3.73-2.86-5.23L543.48,30.26z"/>
		<polygon points="564.08,60.62 577.72,60.62 577.72,34.25 588.69,34.25 588.69,21.12 577.72,21.12 577.72,13.8 589.28,13.8 
			589.28,0.53 564.08,0.53 		"/>
		<path d="M605.6,0c-4.95,0-8.78,1.4-11.39,4.17c-2.6,2.75-3.92,6.79-3.92,12V43.8c0,5.53,1.32,9.84,3.92,12.81
			c2.64,3.01,6.47,4.54,11.38,4.54s8.75-1.53,11.39-4.54c2.6-2.98,3.92-7.29,3.92-12.81V16.17c0-5.21-1.32-9.25-3.92-12
			C614.37,1.4,610.53,0,605.59,0H605.6z M605.7,48.51c-0.85,0-1.16-0.36-1.34-0.68c-0.25-0.43-0.54-1.38-0.54-3.41V16.07
			c0-3.43,1.36-3.43,1.94-3.43c0.44,0,1.61,0,1.61,3.33v28.39c0,2.76-0.56,4.16-1.68,4.16L605.7,48.51z"/>
		<path d="M652.24,25.77c0.85-2.01,1.28-4.69,1.28-7.98s-0.27-6.28-0.8-8.78c-0.56-2.63-1.69-4.72-3.36-6.2
			c-1.69-1.51-4.18-2.28-7.38-2.28h-18.81v60.1h13.7v-26.5c1.05,0.08,1.6,0.27,1.9,0.45c0.27,0.16,0.56,0.85,0.56,2.32v23.74h13.4
			V37.66c0-2.43-0.41-4.47-1.21-6.04c-0.52-1.01-1.26-1.81-2.22-2.38c1.34-0.85,2.33-2.01,2.95-3.46L652.24,25.77z M636.93,13.24
			h1.74c0.75,0,0.99,0.27,1.12,0.52c0.16,0.32,0.43,1.27,0.43,4.03c0,1.6-0.19,4.29-1.45,4.29h-1.84L636.93,13.24L636.93,13.24z"/>
		<polygon points="682.43,0.53 678.41,29.86 674.36,0.53 654.84,0.53 654.84,60.62 667.28,60.62 667.28,29.29 672.57,60.62 
			684.66,60.62 689.54,29.97 689.54,60.62 702.12,60.62 702.12,0.53 		"/>
	</g>
</g>
</svg>
