<svg xmlns="http://www.w3.org/2000/svg" width="1270.35" height="167.83" viewBox="0 0 1270.35 167.83">
  <g>
    <path d="M19.57,166.33V33.15H0V1.5H72.12V33.15H52.54V166.33Z"/>
    <path d="M81.29,166.33V1.5h50.58q12.65,0,19.11,5.76t8.66,16.11a118.54,118.54,0,0,1,2.2,24.3q0,13.48-3.42,21.54T145.54,80.36q7.78,1.59,10.91,7.72T159.59,104v62.37h-32.5V101.81q0-7.22-3-9t-9.5-1.73v75.2ZM114.82,62.56h8q6.84,0,6.84-14.89,0-9.64-1.5-12.64t-5.62-3h-7.68Z"/>
    <path d="M168.21,166.33,184.13,1.5H240l15.64,164.83H224.5l-2.34-26.59H202.3l-2.06,26.59Zm36.43-52.91h15L212.42,29.6h-1.5Z"/>
    <path d="M264.3,166.33V1.5h31.84V166.33Z"/>
    <path d="M309.26,166.33V1.5h33.9l15.17,79V1.5h31.85V166.33H358L341.47,83.92v82.41Z"/>
    <path d="M403.29,166.33V1.5h31.84V166.33Z"/>
    <path d="M448.24,166.33V1.5h33.91l15.17,79V1.5h31.84V166.33H496.94L480.46,83.92v82.41Z"/>
    <path d="M577.77,167.83q-35.31,0-35.31-50.57V46.17Q542.46,0,582.92,0q16.68,0,25.57,6.7t12.27,19.52q3.38,12.84,3.37,31.29H591.91V42.89A24,24,0,0,0,590.46,34c-1-2.4-3-3.61-6-3.61q-5.71,0-7.54,3.84a19.4,19.4,0,0,0-1.82,8.43V122.5a28.42,28.42,0,0,0,1.73,10.82c1.15,2.78,3.42,4.17,6.79,4.17s5.82-1.39,7-4.17a29.23,29.23,0,0,0,1.73-11V98.81h-8.81V70.34h40.28v96H610.55l-5.62-13.86Q596.32,167.83,577.77,167.83Z"/>
    <path d="M720.13,167.83q-17.89,0-28.8-11.14T680.42,125.5v-76q0-24,9.51-36.71T720.88,0a48.34,48.34,0,0,1,20.84,4.31,32.9,32.9,0,0,1,14.37,12.88q5.25,8.56,5.25,21.58V67.25H728.56V42.89c0-4.93-.63-8.25-1.87-10a6.71,6.71,0,0,0-5.81-2.58q-4.59,0-6.18,3.33a20.73,20.73,0,0,0-1.59,8.85V125q0,6.84,2,9.65a6.66,6.66,0,0,0,5.76,2.81,6.12,6.12,0,0,0,6-3.47,20.19,20.19,0,0,0,1.73-9V95.34h33.15v31.19q0,21.74-11,31.52T720.13,167.83Z"/>
    <path d="M772.67,166.33V1.5h65.94V33.34H806.2V65.47h31.1v31H806.2v37.74h34.56v32.12Z"/>
    <path d="M851.62,166.33V1.5h33.91l15.17,79V1.5h31.84V166.33H900.33L883.84,83.92v82.41Z"/>
    <path d="M961.3,166.33V33.15H941.72V1.5h72.12V33.15H994.26V166.33Z"/>
    <path d="M1022.44,166.33V1.5h65.94V33.34H1056V65.47h31.09v31H1056v37.74h34.56v32.12Z"/>
    <path d="M1101.4,166.33V1.5H1152q12.65,0,19.11,5.76t8.66,16.11a117.84,117.84,0,0,1,2.2,24.3q0,13.48-3.42,21.54t-12.88,11.15q7.78,1.59,10.91,7.72t3.14,15.88v62.37h-32.5V101.81q0-7.22-3-9t-9.5-1.73v75.2Zm33.52-103.77h8q6.84,0,6.84-14.89,0-9.64-1.5-12.64t-5.62-3h-7.68Z"/>
    <path d="M1232,167.83q-22.58,0-32.54-11.24t-10-35.77V104.71H1222v20.6q0,5.72,1.74,8.95c1.15,2.15,3.17,3.23,6,3.23s5.07-.88,6.23-2.62,1.73-4.62,1.73-8.62a45.67,45.67,0,0,0-1.5-12.69,28.41,28.41,0,0,0-5.2-9.74A108.13,108.13,0,0,0,1220.81,93L1206,79q-16.58-15.63-16.58-35.77,0-21.08,9.79-32.13t28.33-11q22.67,0,32.17,12.08t9.51,36.72H1235.7V37.46a7,7,0,0,0-1.92-5.24,7.12,7.12,0,0,0-5.2-1.88q-3.93,0-5.76,2.21a8.54,8.54,0,0,0-1.83,5.66,17.85,17.85,0,0,0,1.88,7.49q1.88,4,7.4,9.28l19,18.26a110.84,110.84,0,0,1,10.49,11.47,50.08,50.08,0,0,1,7.68,14.05q2.9,8,2.9,19.53,0,23.22-8.57,36.38T1232,167.83Z"/>
  </g>
</svg>
