<svg xmlns="http://www.w3.org/2000/svg" width="125.82" height="12.67" viewBox="0 0 125.82 12.67">
  <g>
    <path d="M6.34,12.67a6.34,6.34,0,1,1,6.33-6.33A6.34,6.34,0,0,1,6.34,12.67ZM6.34,1a5.34,5.34,0,1,0,5.33,5.34A5.34,5.34,0,0,0,6.34,1Z" fill="#ff0001"/>
    <path d="M6.67,2.48V5.69L6.59,7.56H5.87L5.78,5.69V2.48ZM6.35,8.54a.36.36,0,0,1,.25.07.33.33,0,0,1,.08.26v.57a.31.31,0,0,1-.08.26.36.36,0,0,1-.25.08H6.11a.36.36,0,0,1-.25-.08.35.35,0,0,1-.07-.26V8.87a.37.37,0,0,1,.07-.26.36.36,0,0,1,.25-.07Z" fill="#ff0001"/>
    <g>
      <path d="M20.71,3.78v.64H16.37V3.78Zm-1.82,0V9.41h-.71V3.78Z" fill="#ff0001"/>
      <path d="M22.23,3.7V5.28c0,.17,0,.34,0,.5a2.35,2.35,0,0,1-.06.42l.07.12V9.41h-.69V3.7ZM24,5.34A1,1,0,0,1,25,6.43v3h-.7V6.63a.9.9,0,0,0-.13-.55.54.54,0,0,0-.44-.15A1.65,1.65,0,0,0,23,6.1a8.65,8.65,0,0,0-.87.49l0-.49a4.54,4.54,0,0,1,.92-.56A2.26,2.26,0,0,1,24,5.34Z" fill="#ff0001"/>
      <path d="M26.81,3.75A.19.19,0,0,1,27,4v.47a.19.19,0,0,1-.21.21h-.33a.19.19,0,0,1-.21-.21V4a.19.19,0,0,1,.21-.21ZM27,5.44v4h-.68v-4Z" fill="#ff0001"/>
      <path d="M29.61,5.34l.56,0,.58,0c.19,0,.37,0,.53.06L31.23,6l-.76,0h-.75a5,5,0,0,0-.58,0,.52.52,0,0,0-.31.13.56.56,0,0,0-.09.36.46.46,0,0,0,.15.41,1.39,1.39,0,0,0,.43.16l1.16.26a1.49,1.49,0,0,1,.69.35,1.06,1.06,0,0,1,.23.74,1.19,1.19,0,0,1-.19.74.87.87,0,0,1-.55.32,4.22,4.22,0,0,1-1,.09l-.63,0a8.3,8.3,0,0,1-.92-.1l.05-.5.41,0h.95a5.74,5.74,0,0,0,.7,0,.61.61,0,0,0,.36-.16.53.53,0,0,0,.11-.36A.43.43,0,0,0,30.56,8a1.88,1.88,0,0,0-.46-.16L29,7.54a1.48,1.48,0,0,1-.52-.22A.76.76,0,0,1,28.15,7a1.38,1.38,0,0,1-.09-.54,1.22,1.22,0,0,1,.17-.7.81.81,0,0,1,.5-.32A3.68,3.68,0,0,1,29.61,5.34Z" fill="#ff0001"/>
      <path d="M34.79,3.75A.19.19,0,0,1,35,4v.47a.19.19,0,0,1-.21.21h-.33a.19.19,0,0,1-.21-.21V4a.19.19,0,0,1,.21-.21ZM35,5.44v4h-.68v-4Z" fill="#ff0001"/>
      <path d="M37.59,5.34l.55,0,.58,0c.2,0,.37,0,.54.06L39.2,6l-.75,0h-.76a5.14,5.14,0,0,0-.58,0,.47.47,0,0,0-.3.13.56.56,0,0,0-.09.36c0,.21,0,.34.14.41a1.39,1.39,0,0,0,.43.16l1.16.26a1.48,1.48,0,0,1,.7.35,1.06,1.06,0,0,1,.22.74,1.26,1.26,0,0,1-.18.74.89.89,0,0,1-.56.32,4.19,4.19,0,0,1-1,.09l-.63,0a8.73,8.73,0,0,1-.93-.1l.05-.5.42,0h.95a5.88,5.88,0,0,0,.7,0,.61.61,0,0,0,.36-.16.53.53,0,0,0,.1-.36A.41.41,0,0,0,38.53,8a1.66,1.66,0,0,0-.45-.16l-1.14-.26a1.54,1.54,0,0,1-.53-.22A.74.74,0,0,1,36.13,7,1.38,1.38,0,0,1,36,6.43a1.23,1.23,0,0,1,.16-.7.84.84,0,0,1,.51-.32A3.68,3.68,0,0,1,37.59,5.34Z" fill="#ff0001"/>
      <path d="M45.13,7v.52h-1.9a.51.51,0,0,0-.39.15.62.62,0,0,0-.12.4v.25a.58.58,0,0,0,.15.45.63.63,0,0,0,.47.14,1.78,1.78,0,0,0,.52-.08,2.72,2.72,0,0,0,.58-.27A2.53,2.53,0,0,0,45,8.08v.51a3,3,0,0,1-.26.27,2.77,2.77,0,0,1-.4.29,2.39,2.39,0,0,1-.51.23,1.74,1.74,0,0,1-.61.1,1.38,1.38,0,0,1-.62-.13A1,1,0,0,1,42.15,9,1.17,1.17,0,0,1,42,8.37V7.94a.92.92,0,0,1,.29-.72A1.18,1.18,0,0,1,43.1,7Zm-1-1.62a2,2,0,0,1,.74.12.89.89,0,0,1,.46.39,1.62,1.62,0,0,1,.16.76v2.8h-.55l-.11-.87,0-.09V6.61a.69.69,0,0,0-.17-.52A.93.93,0,0,0,44,5.93l-.78,0L42.25,6l-.07-.51.61-.09c.22,0,.44,0,.67-.06Z" fill="#ff0001"/>
      <path d="M47.28,5.44l.06.76,0,.12V9.41h-.7v-4Zm1.83-.1a1,1,0,0,1,1.07,1.09v3h-.69V6.63a.9.9,0,0,0-.13-.55.57.57,0,0,0-.44-.15,1.61,1.61,0,0,0-.73.18c-.25.12-.54.28-.88.48l0-.49a4.36,4.36,0,0,1,.92-.56A2.34,2.34,0,0,1,49.11,5.34Z" fill="#ff0001"/>
      <path d="M54.92,5.34a2.61,2.61,0,0,1,1.1.2,1.22,1.22,0,0,1,.59.67,3.38,3.38,0,0,1,.18,1.22,3.36,3.36,0,0,1-.18,1.21,1.22,1.22,0,0,1-.59.67,3.1,3.1,0,0,1-2.19,0,1.22,1.22,0,0,1-.59-.67,3.36,3.36,0,0,1-.18-1.21,3.38,3.38,0,0,1,.18-1.22,1.22,1.22,0,0,1,.59-.67A2.59,2.59,0,0,1,54.92,5.34Zm0,.59a1.44,1.44,0,0,0-.68.13.77.77,0,0,0-.35.46,3.08,3.08,0,0,0-.11.91,3.05,3.05,0,0,0,.11.9.77.77,0,0,0,.35.46,1.44,1.44,0,0,0,.68.13,1.49,1.49,0,0,0,.69-.13A.77.77,0,0,0,56,8.33a2.75,2.75,0,0,0,.11-.9A2.78,2.78,0,0,0,56,6.52a.77.77,0,0,0-.35-.46A1.49,1.49,0,0,0,54.92,5.93Z" fill="#ff0001"/>
      <path d="M58.55,3.7V5.19c0,.16,0,.32,0,.46a1.59,1.59,0,0,1-.06.43l.07.12V9.25l-.7,0V3.7ZM60,5.34a1.27,1.27,0,0,1,1.09.48,2.77,2.77,0,0,1,.35,1.59,4,4,0,0,1-.09.9,1.65,1.65,0,0,1-.28.66,1.22,1.22,0,0,1-.54.4,2.34,2.34,0,0,1-.85.13h-.44a3.93,3.93,0,0,1-.48-.06,4,4,0,0,1-.48-.09,2.7,2.7,0,0,1-.43-.12l.56-.47.43.1a2.18,2.18,0,0,0,.43.05l.39,0a1.35,1.35,0,0,0,.62-.15.86.86,0,0,0,.34-.47,3.07,3.07,0,0,0,.1-.89,4,4,0,0,0-.08-.87.73.73,0,0,0-.29-.46,1.07,1.07,0,0,0-.59-.14,1.17,1.17,0,0,0-.62.18c-.19.12-.42.27-.68.47l0-.46a3.36,3.36,0,0,1,.5-.44,2.37,2.37,0,0,1,.53-.26A1.81,1.81,0,0,1,60,5.34Z" fill="#ff0001"/>
      <path d="M63.21,3.7V8.31a.5.5,0,0,0,.14.4.55.55,0,0,0,.4.13h.38l.09.53L64,9.43l-.28,0h-.24a1,1,0,0,1-.7-.26,1,1,0,0,1-.27-.75V3.7Z" fill="#ff0001"/>
      <path d="M65.47,3.75a.19.19,0,0,1,.21.21v.47a.19.19,0,0,1-.21.21h-.33a.19.19,0,0,1-.21-.21V4a.19.19,0,0,1,.21-.21Zm.18,1.69v4H65v-4Z" fill="#ff0001"/>
      <path d="M67.4,7.61l.4,0a.67.67,0,0,0-.19.3.44.44,0,0,0,0,.32.42.42,0,0,0,.33.19l1.48.24a1.24,1.24,0,0,1,.79.34,1.24,1.24,0,0,1,.22.77,1.27,1.27,0,0,1-.18.73,1,1,0,0,1-.59.39,4.73,4.73,0,0,1-1.12.11,5.84,5.84,0,0,1-.91-.06,1.7,1.7,0,0,1-.59-.2.81.81,0,0,1-.32-.37,1.44,1.44,0,0,1-.1-.58,1.1,1.1,0,0,1,.08-.43A.79.79,0,0,1,67,9.1a1.66,1.66,0,0,1,.44-.27l.49-.27.32.11-.4.3a2.32,2.32,0,0,0-.28.24,1,1,0,0,0-.16.26,1,1,0,0,0,0,.32.73.73,0,0,0,.1.42.56.56,0,0,0,.38.2,3.76,3.76,0,0,0,.75.05,3.59,3.59,0,0,0,.74-.05.58.58,0,0,0,.37-.21.67.67,0,0,0,.11-.41.8.8,0,0,0,0-.31.36.36,0,0,0-.2-.16,2.12,2.12,0,0,0-.43-.1L67.67,9a.69.69,0,0,1-.4-.16.72.72,0,0,1-.21-.31.74.74,0,0,1,0-.36.7.7,0,0,1,.12-.34A.58.58,0,0,1,67.4,7.61Zm1.12-2.27a3.05,3.05,0,0,1,1,.13.94.94,0,0,1,.53.41,1.37,1.37,0,0,1,.16.72,1.42,1.42,0,0,1-.16.72,1,1,0,0,1-.53.41,3.06,3.06,0,0,1-1,.14,3,3,0,0,1-1-.14A1,1,0,0,1,67,7.32a1.46,1.46,0,0,1-.16-.71A1.55,1.55,0,0,1,67,5.88a1,1,0,0,1,.53-.41A3.09,3.09,0,0,1,68.52,5.34Zm0,.53a1.49,1.49,0,0,0-.83.17.66.66,0,0,0-.23.56.69.69,0,0,0,.23.57,2.11,2.11,0,0,0,1.66,0,.69.69,0,0,0,.23-.57A.66.66,0,0,0,69.35,6,1.49,1.49,0,0,0,68.52,5.87Zm2.16-.43,0,.38-1,.08-.28-.46Z" fill="#ff0001"/>
      <path d="M74.37,7v.52h-1.9a.55.55,0,0,0-.4.15A.61.61,0,0,0,72,8v.25a.62.62,0,0,0,.14.45.66.66,0,0,0,.48.14,1.68,1.68,0,0,0,.51-.08,2.58,2.58,0,0,0,.59-.27,2.48,2.48,0,0,0,.53-.45v.51a2.74,2.74,0,0,1-.25.27,4.62,4.62,0,0,1-.4.29,2.73,2.73,0,0,1-.52.23,1.68,1.68,0,0,1-.6.1,1.35,1.35,0,0,1-.62-.13A1,1,0,0,1,71.39,9a1.17,1.17,0,0,1-.15-.61V7.94a.89.89,0,0,1,.29-.72A1.18,1.18,0,0,1,72.34,7Zm-1-1.62a2.11,2.11,0,0,1,.75.12.93.93,0,0,1,.46.39,1.63,1.63,0,0,1,.15.76v2.8h-.54L74,8.54,74,8.45V6.61a.65.65,0,0,0-.17-.52.91.91,0,0,0-.64-.16l-.77,0L71.48,6l-.06-.51.6-.09c.22,0,.45,0,.68-.06Z" fill="#ff0001"/>
      <path d="M78.19,5.44V6H75.51v-.5l.79,0ZM76.92,4.27v4a.53.53,0,0,0,.13.41.57.57,0,0,0,.41.12h.6l.09.53-.31.06-.33,0h-.26a1,1,0,0,1-.76-.28,1.13,1.13,0,0,1-.26-.8V4.27Z" fill="#ff0001"/>
      <path d="M80.71,5.34a2.61,2.61,0,0,1,1.1.2,1.22,1.22,0,0,1,.59.67,3.38,3.38,0,0,1,.18,1.22,3.36,3.36,0,0,1-.18,1.21,1.22,1.22,0,0,1-.59.67,3.1,3.1,0,0,1-2.19,0A1.22,1.22,0,0,1,79,8.64a3.36,3.36,0,0,1-.18-1.21A3.38,3.38,0,0,1,79,6.21a1.22,1.22,0,0,1,.59-.67A2.59,2.59,0,0,1,80.71,5.34Zm0,.59a1.44,1.44,0,0,0-.68.13.77.77,0,0,0-.35.46,3.08,3.08,0,0,0-.11.91,3.05,3.05,0,0,0,.11.9.77.77,0,0,0,.35.46,1.44,1.44,0,0,0,.68.13,1.49,1.49,0,0,0,.69-.13.77.77,0,0,0,.35-.46,3.05,3.05,0,0,0,.11-.9,3.08,3.08,0,0,0-.11-.91.77.77,0,0,0-.35-.46A1.49,1.49,0,0,0,80.71,5.93Z" fill="#ff0001"/>
      <path d="M84.2,5.44l.09.76.06.12V9.41h-.69v-4Zm1.94-.1L86.06,6h-.23a2,2,0,0,0-.7.14c-.23.1-.51.23-.85.41l-.06-.43a4.43,4.43,0,0,1,.89-.57,2.1,2.1,0,0,1,.85-.2Z" fill="#ff0001"/>
      <path d="M87.18,5.44l1,3c0,.08,0,.16.08.24a1.37,1.37,0,0,1,.07.24h.18l-.22.53h-.22A.3.3,0,0,1,88,9.36a.38.38,0,0,1-.09-.13L86.44,5.44Zm3.27,0L88.86,9.62a3.54,3.54,0,0,1-.25.52,2.24,2.24,0,0,1-.35.46,1.72,1.72,0,0,1-.49.34,1.83,1.83,0,0,1-.65.14l-.06-.45a1.69,1.69,0,0,0,1.15-1.05l.2-.48c0-.1.09-.22.13-.35s.08-.25.12-.35l1-3Z" fill="#ff0001"/>
      <path d="M94.47,5.34l.41,0,.48,0a3.55,3.55,0,0,1,.47.09,3.75,3.75,0,0,1,.43.12l-.56.48A3.39,3.39,0,0,0,95.27,6a3.34,3.34,0,0,0-.43,0,1.63,1.63,0,0,0-.38,0,1.28,1.28,0,0,0-.63.14.77.77,0,0,0-.33.47,3.26,3.26,0,0,0-.11.94,2.4,2.4,0,0,0,.18,1.07.71.71,0,0,0,.7.35A1.39,1.39,0,0,0,95,8.74a5.33,5.33,0,0,0,.7-.43l.09.46a4.09,4.09,0,0,1-.53.4,2.41,2.41,0,0,1-.57.25,2,2,0,0,1-.59.09A1.13,1.13,0,0,1,93,9a2.91,2.91,0,0,1-.33-1.58,4.07,4.07,0,0,1,.08-.9,1.66,1.66,0,0,1,.29-.66,1.33,1.33,0,0,1,.55-.4A2.55,2.55,0,0,1,94.47,5.34Zm1.1.25.69,0V11h-.69V9.68c0-.17,0-.33,0-.47a3.27,3.27,0,0,1,.06-.42l-.07-.12Z" fill="#ff0001"/>
      <path d="M98.18,5.44V8.22a.75.75,0,0,0,.14.53.63.63,0,0,0,.49.16,1.46,1.46,0,0,0,.66-.16,8.48,8.48,0,0,0,.8-.46l.09.48a4,4,0,0,1-.9.55,2.16,2.16,0,0,1-.89.19,1,1,0,0,1-1.08-1.09v-3Zm2.71,0v4h-.56l-.06-.75-.07-.13V5.44Z" fill="#ff0001"/>
      <path d="M103.79,5.34a2,2,0,0,1,1.3.33,1.16,1.16,0,0,1,.4,1,1.27,1.27,0,0,1-.22.82.84.84,0,0,1-.72.3h-2.32V7.22h2.14a.35.35,0,0,0,.35-.18,1.06,1.06,0,0,0,.08-.4.66.66,0,0,0-.23-.55,1.31,1.31,0,0,0-.75-.16,1.59,1.59,0,0,0-.68.12.72.72,0,0,0-.35.44,2.91,2.91,0,0,0-.1.88,3,3,0,0,0,.12,1,.76.76,0,0,0,.41.45,1.67,1.67,0,0,0,.73.13l.7,0,.68-.07.07.46a2.92,2.92,0,0,1-.46.13l-.56.07a4.88,4.88,0,0,1-.52,0,2.48,2.48,0,0,1-1.1-.21,1.24,1.24,0,0,1-.61-.66A3.39,3.39,0,0,1,102,7.41a3.37,3.37,0,0,1,.19-1.23,1.2,1.2,0,0,1,.6-.65A2.39,2.39,0,0,1,103.79,5.34Z" fill="#ff0001"/>
      <path d="M107.85,5.34l.56,0,.58,0c.19,0,.37,0,.53.06l0,.51-.76,0H108a5,5,0,0,0-.58,0,.47.47,0,0,0-.3.13.5.5,0,0,0-.1.36.46.46,0,0,0,.15.41,1.39,1.39,0,0,0,.43.16l1.16.26a1.49,1.49,0,0,1,.69.35,1.06,1.06,0,0,1,.23.74,1.19,1.19,0,0,1-.19.74.87.87,0,0,1-.55.32,4.22,4.22,0,0,1-1,.09l-.63,0a8.3,8.3,0,0,1-.92-.1l0-.5.41,0h1a5.74,5.74,0,0,0,.7,0,.61.61,0,0,0,.36-.16.53.53,0,0,0,.11-.36A.43.43,0,0,0,108.8,8a1.88,1.88,0,0,0-.46-.16l-1.14-.26a1.48,1.48,0,0,1-.52-.22A.69.69,0,0,1,106.4,7a1.22,1.22,0,0,1-.09-.54,1.23,1.23,0,0,1,.16-.7.84.84,0,0,1,.5-.32A3.68,3.68,0,0,1,107.85,5.34Z" fill="#ff0001"/>
      <path d="M112.93,5.44V6h-2.67v-.5l.78,0Zm-1.26-1.17v4a.57.57,0,0,0,.12.41.57.57,0,0,0,.41.12h.61l.08.53-.3.06-.34,0H112a1,1,0,0,1-.76-.28,1.13,1.13,0,0,1-.26-.8V4.27Z" fill="#ff0001"/>
      <path d="M114.31,3.75a.19.19,0,0,1,.21.21v.47a.19.19,0,0,1-.21.21H114a.19.19,0,0,1-.22-.21V4a.19.19,0,0,1,.22-.21Zm.18,1.69v4h-.68v-4Z" fill="#ff0001"/>
      <path d="M117.47,5.34a2.61,2.61,0,0,1,1.1.2,1.22,1.22,0,0,1,.59.67,3.38,3.38,0,0,1,.18,1.22,3.36,3.36,0,0,1-.18,1.21,1.22,1.22,0,0,1-.59.67,2.61,2.61,0,0,1-1.1.2,2.51,2.51,0,0,1-1.08-.2,1.2,1.2,0,0,1-.6-.67,3.36,3.36,0,0,1-.18-1.21,3.38,3.38,0,0,1,.18-1.22,1.2,1.2,0,0,1,.6-.67A2.51,2.51,0,0,1,117.47,5.34Zm0,.59a1.47,1.47,0,0,0-.68.13.77.77,0,0,0-.35.46,3.08,3.08,0,0,0-.11.91,3.05,3.05,0,0,0,.11.9.77.77,0,0,0,.35.46,1.47,1.47,0,0,0,.68.13,1.49,1.49,0,0,0,.69-.13.74.74,0,0,0,.36-.46,3.1,3.1,0,0,0,.1-.9,3.13,3.13,0,0,0-.1-.91.74.74,0,0,0-.36-.46A1.49,1.49,0,0,0,117.47,5.93Z" fill="#ff0001"/>
      <path d="M121,5.44l0,.76,0,.12V9.41h-.69v-4Zm1.82-.1a1,1,0,0,1,1.08,1.09v3h-.69V6.63a.9.9,0,0,0-.13-.55.57.57,0,0,0-.44-.15,1.68,1.68,0,0,0-.74.18q-.36.18-.87.48l0-.49a4.13,4.13,0,0,1,.92-.56A2.26,2.26,0,0,1,122.83,5.34Z" fill="#ff0001"/>
      <path d="M125.56,8.44a.29.29,0,0,1,.21.06.36.36,0,0,1,0,.21v.43a.36.36,0,0,1,0,.21.29.29,0,0,1-.21.06h-.23a.28.28,0,0,1-.2-.06.29.29,0,0,1-.06-.21V8.71a.29.29,0,0,1,.06-.21.28.28,0,0,1,.2-.06Z" fill="#ff0001"/>
    </g>
  </g>
</svg>
