<svg xmlns="http://www.w3.org/2000/svg" width="1259.63" height="63.53" viewBox="0 0 1259.63 63.53">
  <g>
    <path d="M0,63V.57H19.14c3.19,0,5.6.72,7.24,2.18a10.87,10.87,0,0,1,3.27,6.09,44.4,44.4,0,0,1,.84,9.2,21.09,21.09,0,0,1-1.3,8.16,7.47,7.47,0,0,1-4.87,4.22,5.58,5.58,0,0,1,4.13,2.92,13.22,13.22,0,0,1,1.19,6V63H17.34V38.54c0-1.82-.38-2.95-1.12-3.39a7.42,7.42,0,0,0-3.6-.66V63ZM12.69,23.68h3q2.6,0,2.59-5.64a13,13,0,0,0-.56-4.78,2.16,2.16,0,0,0-2.13-1.14H12.69Z"/>
    <path d="M34.6,63V.57h25v12H47.29V24.78H59.06V36.51H47.29V50.8H60.37V63Z"/>
    <path d="M64.49,63V.57H81a13.29,13.29,0,0,1,8.21,2.3,12.59,12.59,0,0,1,4.34,6.56,34.82,34.82,0,0,1,1.31,10.14,39.4,39.4,0,0,1-1.1,9.87A12.05,12.05,0,0,1,89.81,36c-1.87,1.53-4.54,2.3-8,2.3H76.75V63ZM76.75,27.05h.71c2.32,0,3.73-.65,4.25-1.95a16.2,16.2,0,0,0,.78-5.74,15.45,15.45,0,0,0-.76-5.48C81.22,12.59,80,12,78.13,12H76.75Z"/>
    <path d="M98.77,63V.57h12.48V52.33h12.83V63Z"/>
    <path d="M127.06,63V.57h12.05V63Z"/>
    <path d="M158.61,63.53a14.56,14.56,0,0,1-10.9-4.22q-4.14-4.22-4.13-11.81V18.72q0-9.07,3.59-13.9T158.89,0a18.24,18.24,0,0,1,7.89,1.63,12.52,12.52,0,0,1,5.44,4.87,15.49,15.49,0,0,1,2,8.18V25.45H161.8V16.24a7,7,0,0,0-.71-3.78,2.54,2.54,0,0,0-2.2-1,2.34,2.34,0,0,0-2.34,1.26,7.8,7.8,0,0,0-.6,3.34V47.33a6.5,6.5,0,0,0,.76,3.65A2.52,2.52,0,0,0,158.89,52a2.31,2.31,0,0,0,2.25-1.31,7.57,7.57,0,0,0,.66-3.4V36.09h12.55v11.8q0,8.24-4.15,11.93T158.61,63.53Z"/>
    <path d="M176.79,63l6-62.39H204L209.91,63H198.1l-.89-10.07H189.7L188.92,63Zm13.79-20h5.68L193.53,11.2H193Z"/>
    <path d="M219.09,63V12.55h-7.41V.57H239v12h-7.41V63Z"/>
    <path d="M242.45,63V.57h25v12H255.14V24.78h11.77V36.51H255.14V50.8h13.08V63Z"/>
    <path d="M287.15,63.53q-8.53,0-12.32-4.26t-3.77-13.54v-6.1h12.33v7.8a7.21,7.21,0,0,0,.66,3.39A2.38,2.38,0,0,0,286.34,52a2.6,2.6,0,0,0,2.35-1,6.09,6.09,0,0,0,.66-3.26,17.27,17.27,0,0,0-.57-4.81,10.88,10.88,0,0,0-2-3.68,41.54,41.54,0,0,0-3.89-4.1l-5.6-5.32q-6.27-5.91-6.27-13.54,0-8,3.7-12.16T285.49,0q8.58,0,12.17,4.57t3.6,13.9H288.57V14.18a2.61,2.61,0,0,0-.73-2,3.17,3.17,0,0,0-4.14.12,3.26,3.26,0,0,0-.7,2.14,6.82,6.82,0,0,0,.71,2.84,12.69,12.69,0,0,0,2.8,3.51l7.2,6.91a40.6,40.6,0,0,1,4,4.35,18.59,18.59,0,0,1,2.91,5.31,21.88,21.88,0,0,1,1.1,7.39q0,8.81-3.25,13.78T287.15,63.53Z"/>
    <path d="M327.55,63V12.55h-7.41V.57h27.3v12H340V63Z"/>
    <path d="M350.91,63V.57h12.41v22.3h5.89V.57h12.4V63h-12.4V34.67h-5.89V63Z"/>
    <path d="M387.14,63V.57h25v12H399.84V24.78H411.6V36.51H399.84V50.8h13.08V63Z"/>
    <path d="M448.58,63.53a14.58,14.58,0,0,1-10.9-4.22q-4.12-4.22-4.13-11.81V18.72q0-9.07,3.6-13.9T448.86,0a18.21,18.21,0,0,1,7.89,1.63,12.47,12.47,0,0,1,5.44,4.87,15.39,15.39,0,0,1,2,8.18V25.45H451.77V16.24a7,7,0,0,0-.71-3.78,2.52,2.52,0,0,0-2.2-1,2.35,2.35,0,0,0-2.34,1.26,7.8,7.8,0,0,0-.6,3.34V47.33a6.59,6.59,0,0,0,.76,3.65A2.52,2.52,0,0,0,448.86,52a2.31,2.31,0,0,0,2.26-1.31,7.71,7.71,0,0,0,.65-3.4V36.09h12.55v11.8q0,8.24-4.15,11.93T448.58,63.53Z"/>
    <path d="M475.8,63V42.43L465.84.57h12.37l3.48,21.13L485.16.57H497.5l-9.93,41.86V63Z"/>
    <path d="M515.19,63.53a14.56,14.56,0,0,1-10.9-4.22q-4.14-4.22-4.13-11.81V18.72q0-9.07,3.59-13.9T515.47,0a18.24,18.24,0,0,1,7.89,1.63A12.52,12.52,0,0,1,528.8,6.5a15.49,15.49,0,0,1,2,8.18V25.45H518.38V16.24a7,7,0,0,0-.71-3.78,2.54,2.54,0,0,0-2.2-1,2.34,2.34,0,0,0-2.34,1.26,7.8,7.8,0,0,0-.6,3.34V47.33a6.5,6.5,0,0,0,.76,3.65A2.52,2.52,0,0,0,515.47,52a2.31,2.31,0,0,0,2.25-1.31,7.57,7.57,0,0,0,.66-3.4V36.09h12.55v11.8q0,8.24-4.15,11.93T515.19,63.53Z"/>
    <path d="M535.08,63V.57h12.47V52.33h12.84V63Z"/>
    <path d="M563.37,63V.57h12V63Z"/>
    <path d="M580.38,63V.57h12.84L599,30.45V.57h12V63H598.82l-6.24-31.2V63Z"/>
    <path d="M629.41,63.53q-13.36,0-13.36-19.15V17.48Q616.05,0,631.36,0q6.32,0,9.68,2.54a13,13,0,0,1,4.64,7.39A47.25,47.25,0,0,1,647,21.77h-12.2V16.24a9,9,0,0,0-.55-3.39,2.19,2.19,0,0,0-2.28-1.36,2.84,2.84,0,0,0-2.86,1.45,7.34,7.34,0,0,0-.69,3.19V46.37a10.69,10.69,0,0,0,.66,4.09A2.51,2.51,0,0,0,631.61,52a2.57,2.57,0,0,0,2.64-1.58,10.94,10.94,0,0,0,.66-4.16V37.4h-3.34V26.62h15.25V63h-5l-2.13-5.25Q636.43,63.53,629.41,63.53Z"/>
    <path d="M668.76,63V.57h25v12H681.45V24.78h11.77V36.51H681.45V50.8h13.08V63Z"/>
    <path d="M696.84,63l6.7-33.08L698.22.53h12.2L713.64,22,716.51.53h12.24l-5.32,29.35L730.09,63H717.47l-3.93-24.39L709.5,63Z"/>
    <path d="M733.78,63V.57h16.48a13.29,13.29,0,0,1,8.21,2.3,12.59,12.59,0,0,1,4.34,6.56,34.48,34.48,0,0,1,1.31,10.14,38.94,38.94,0,0,1-1.1,9.87A12,12,0,0,1,759.11,36q-2.82,2.29-8,2.3H746V63ZM746,27.05h.71q3.48,0,4.26-1.95a16.2,16.2,0,0,0,.78-5.74,15.42,15.42,0,0,0-.77-5.48c-.5-1.29-1.7-1.93-3.59-1.93H746Z"/>
    <path d="M768.06,63V.57h25v12H780.75V24.78h11.77V36.51H780.75V50.8h13.08V63Z"/>
    <path d="M798,63V.57h19.14c3.19,0,5.6.72,7.23,2.18a10.94,10.94,0,0,1,3.28,6.09,45.15,45.15,0,0,1,.83,9.2,21.3,21.3,0,0,1-1.29,8.16,7.48,7.48,0,0,1-4.88,4.22,5.56,5.56,0,0,1,4.13,2.92,13.09,13.09,0,0,1,1.19,6V63h-12.3V38.54c0-1.82-.37-2.95-1.12-3.39a7.35,7.35,0,0,0-3.59-.66V63Zm12.69-39.28h3q2.6,0,2.59-5.64a12.71,12.71,0,0,0-.57-4.78,2.16,2.16,0,0,0-2.13-1.14h-2.9Z"/>
    <path d="M832,63V.57h12V63Z"/>
    <path d="M849,63V.57h25v12H861.69V24.78h11.77V36.51H861.69V50.8h13.08V63Z"/>
    <path d="M878.73,63V.57h12.84l5.74,29.88V.57h12.05V63H897.17l-6.24-31.2V63Z"/>
    <path d="M929.14,63.53a14.56,14.56,0,0,1-10.9-4.22q-4.14-4.22-4.13-11.81V18.72q0-9.07,3.6-13.9T929.42,0a18.24,18.24,0,0,1,7.89,1.63,12.52,12.52,0,0,1,5.44,4.87,15.49,15.49,0,0,1,2,8.18V25.45H932.33V16.24a7,7,0,0,0-.71-3.78,2.54,2.54,0,0,0-2.2-1,2.34,2.34,0,0,0-2.34,1.26,7.8,7.8,0,0,0-.6,3.34V47.33a6.5,6.5,0,0,0,.76,3.65A2.52,2.52,0,0,0,929.42,52a2.29,2.29,0,0,0,2.25-1.31,7.57,7.57,0,0,0,.66-3.4V36.09h12.55v11.8q0,8.24-4.15,11.93T929.14,63.53Z"/>
    <path d="M949,63V.57h25v12H961.72V24.78h11.77V36.51H961.72V50.8H974.8V63Z"/>
    <path d="M1010,63.53q-7.49,0-11.43-4.52t-4-13.07V16.31q0-8,3.92-12.16T1010,0q7.54,0,11.47,4.15t3.91,12.16V45.94q0,8.55-4,13.07C1018.82,62,1015,63.53,1010,63.53Zm.1-11.49c1.9,0,2.84-1.83,2.84-5.49V16.09q0-4.61-2.76-4.6-3.12,0-3.12,4.71V46.62a8.84,8.84,0,0,0,.71,4.16A2.46,2.46,0,0,0,1010.12,52Z"/>
    <path d="M1030.44,63V.57h12.83L1049,30.45V.57h12.06V63h-12.2l-6.24-31.2V63Z"/>
    <path d="M1088.51,63,1081.81.57H1094L1097.44,40,1101,.57h11.63L1115.91,40,1119.24.57h12.34L1124.77,63h-15l-3.12-30-3,30Z"/>
    <path d="M1133.6,63l6-62.39h21.16L1166.71,63h-11.8L1154,52.89h-7.52L1145.72,63Zm13.79-20h5.67l-2.73-31.73h-.56Z"/>
    <path d="M1175.89,63V12.55h-7.41V.57h27.3v12h-7.41V63Z"/>
    <path d="M1199.26,63V.57h25v12H1212V24.78h11.77V36.51H1212V50.8H1225V63Z"/>
    <path d="M1229.14,63V.57h19.14c3.2,0,5.61.72,7.24,2.18a10.94,10.94,0,0,1,3.28,6.09,45.15,45.15,0,0,1,.83,9.2,21.09,21.09,0,0,1-1.3,8.16,7.47,7.47,0,0,1-4.87,4.22,5.58,5.58,0,0,1,4.13,2.92,13.22,13.22,0,0,1,1.19,6V63h-12.3V38.54c0-1.82-.38-2.95-1.12-3.39a7.36,7.36,0,0,0-3.6-.66V63Zm12.69-39.28h3q2.58,0,2.58-5.64a13,13,0,0,0-.56-4.78,2.16,2.16,0,0,0-2.13-1.14h-2.91Z"/>
  </g>
</svg>
