<?xml version="1.0" encoding="utf-8"?>
<!-- Generator: Adobe Illustrator 19.0.0, SVG Export Plug-In . SVG Version: 6.00 Build 0)  -->
<svg version="1.1" id="Capa_1" xmlns="http://www.w3.org/2000/svg" xmlns:xlink="http://www.w3.org/1999/xlink" x="0px" y="0px"
	 width="210.79px" height="138.71px" viewBox="-534 443.29 210.79 138.71" enable-background="new -534 443.29 210.79 138.71"
	 xml:space="preserve">
<g>
	<g>
		<g>
			<path fill="#FFFFFF" d="M-451.062,443.315l-4.091,35.407h-11.483c-1.053-5.431-1.982-11.611-2.787-18.541
				c-0.359,2.951-1.212,9.131-2.56,18.541h-11.412l-4.115-35.407h8.924l0.981,12.345l0.933,11.962
				c0.351-6.156,1.2-14.259,2.548-24.307h9.57c0.136,1.037,0.471,4.924,1.005,11.663l0.981,13.457
				c0.526-8.549,1.38-16.922,2.56-25.12L-451.062,443.315z"/>
			<path fill="#FFFFFF" d="M-433.789,443.315l5.263,35.407h-9.402l-0.49-6.352h-3.29l-0.526,6.352h-9.57l4.785-35.407H-433.789z
				 M-438.646,466.055c-0.463-3.987-0.929-8.94-1.4-14.857c-0.941,6.77-1.531,11.723-1.77,14.857H-438.646z"/>
			<path fill="#FFFFFF" d="M-410.918,443.315v7.081h-5.455v28.326h-9.199v-28.326h-5.443v-7.081H-410.918z"/>
			<path fill="#FFFFFF" d="M-408.813,443.315h15.323v7.081h-6.136v6.699h5.754v6.735h-5.754v7.775h6.758v7.117h-15.945V443.315z"/>
			<path fill="#FFFFFF" d="M-390.236,443.315h6.519c2.944-0.094,5.89,0.074,8.804,0.502c1.545,0.345,2.893,1.281,3.756,2.608
				c0.973,1.372,1.459,3.565,1.459,6.579c0,2.751-0.347,4.605-1.029,5.55c-0.682,0.945-2.034,1.519-4.043,1.711
				c1.379,0.216,2.66,0.846,3.672,1.806c0.545,0.598,0.954,1.309,1.196,2.081c0.209,1.738,0.285,3.49,0.227,5.239v9.33h-8.565
				v-11.794c0.111-1.191-0.044-2.393-0.455-3.517c-0.287-0.455-1.077-0.67-2.392-0.67v15.981h-9.199L-390.236,443.315z
				 M-381.037,449.368v7.823c0.751,0.067,1.505-0.078,2.177-0.419c0.419-0.287,0.622-1.196,0.622-2.763v-1.914
				c0.102-0.784-0.113-1.576-0.598-2.201C-379.49,449.477-380.265,449.292-381.037,449.368z"/>
		</g>
		<g>
			<path fill="#211915" d="M-469.998,495.35h-7.416v-4.952c0.064-0.904-0.016-1.813-0.239-2.691
				c-0.196-0.384-0.614-0.601-1.041-0.538c-0.5-0.086-0.994,0.181-1.196,0.646c-0.213,0.941-0.285,1.909-0.215,2.871v13.158
				c-0.053,0.913,0.031,1.828,0.251,2.715c0.185,0.438,0.641,0.698,1.112,0.634c0.46,0.052,0.899-0.207,1.077-0.634
				c0.224-0.976,0.309-1.979,0.251-2.979v-3.589h7.416v1.112c0.094,2.128-0.115,4.259-0.622,6.328
				c-0.52,1.346-1.476,2.479-2.715,3.218c-1.587,0.965-3.419,1.447-5.275,1.388c-1.863,0.062-3.711-0.35-5.371-1.196
				c-1.322-0.684-2.326-1.855-2.799-3.266c-0.533-2.049-0.762-4.165-0.682-6.28v-8.373c-0.023-1.542,0.045-3.084,0.203-4.617
				c0.163-1.081,0.599-2.102,1.268-2.967c0.748-0.994,1.747-1.77,2.895-2.249c3.144-1.224,6.658-1.063,9.677,0.443
				c1.28,0.684,2.273,1.805,2.799,3.158c0.529,1.915,0.755,3.901,0.67,5.885L-469.998,495.35z"/>
			<path fill="#211915" d="M-451.553,482.945l-5.407,18.182v10.311h-6.806v-10.311l-5.263-18.182h6.806
				c1.061,5.582,1.659,9.322,1.794,11.22c0.419-3.038,1.1-6.782,2.069-11.22H-451.553z"/>
			<path fill="#211915" d="M-432.976,495.35h-7.416v-4.952c0.058-0.904-0.023-1.812-0.239-2.691
				c-0.196-0.384-0.614-0.601-1.041-0.538c-0.501-0.091-0.997,0.177-1.196,0.646c-0.213,0.941-0.285,1.909-0.215,2.871v13.158
				c-0.053,0.913,0.031,1.828,0.251,2.715c0.18,0.437,0.632,0.697,1.1,0.634c0.462,0.049,0.903-0.208,1.089-0.634
				c0.224-0.976,0.309-1.979,0.251-2.979v-3.589h7.416v1.112c0.094,2.113-0.12,4.228-0.634,6.28
				c-0.52,1.367-1.496,2.512-2.763,3.242c-1.581,0.966-3.411,1.448-5.263,1.388c-1.863,0.063-3.711-0.349-5.371-1.196
				c-1.322-0.684-2.326-1.855-2.799-3.266c-0.538-2.048-0.772-4.164-0.694-6.28v-8.373c-0.027-1.542,0.045-3.084,0.215-4.617
				c0.146-1.073,0.557-2.093,1.196-2.967c0.755-0.992,1.757-1.767,2.907-2.249c3.144-1.224,6.658-1.063,9.677,0.443
				c1.274,0.692,2.265,1.81,2.799,3.158c0.529,1.915,0.755,3.901,0.67,5.885L-432.976,495.35z"/>
			<path fill="#211915" d="M-422.916,482.945v22.728h4.51v5.706h-11.866v-28.433H-422.916z"/>
			<path fill="#211915" d="M-409.196,482.945v28.493h-7.416v-28.493H-409.196z"/>
			<path fill="#211915" d="M-389.674,482.945v28.493h-6.495l-3.864-12.955v12.955h-6.196v-28.493h6.196l4.163,12.823v-12.823
				H-389.674z"/>
			<path fill="#211915" d="M-369.697,493.436h-7.416v-2.596c0.048-1.025-0.021-2.052-0.203-3.062
				c-0.278-0.548-0.947-0.767-1.495-0.49c-0.182,0.092-0.335,0.233-0.443,0.406c-0.23,0.885-0.315,1.803-0.251,2.715v13.672
				c-0.051,0.849,0.034,1.701,0.251,2.524c0.154,0.4,0.554,0.649,0.981,0.61c0.477,0.039,0.923-0.237,1.1-0.682
				c0.243-0.871,0.34-1.777,0.287-2.679v-3.385h-1.495v-4.33h8.684v15.299h-4.653l-0.694-2.046c-0.443,0.822-1.1,1.508-1.902,1.986
				c-0.836,0.455-1.776,0.682-2.727,0.658c-1.224,0.008-2.428-0.305-3.493-0.909c-1.002-0.523-1.854-1.293-2.476-2.237
				c-0.549-0.851-0.912-1.809-1.065-2.811c-0.158-1.466-0.226-2.94-0.203-4.414v-8.457c-0.064-2.003,0.08-4.008,0.431-5.981
				c0.413-1.399,1.312-2.604,2.536-3.397c1.588-1.074,3.48-1.607,5.395-1.519c1.887-0.072,3.757,0.388,5.395,1.328
				c1.27,0.708,2.259,1.832,2.799,3.182c0.509,1.735,0.732,3.541,0.658,5.347V493.436z"/>
		</g>
		<g>
			<path fill="#211915" d="M-473.108,517.682v5.072h-3.912v20.335h-6.591v-20.335h-3.9v-5.072H-473.108z"/>
			<path fill="#211915" d="M-471.601,517.682h4.665c2.112-0.067,4.225,0.053,6.316,0.359c1.101,0.243,2.066,0.904,2.691,1.842
				c0.816,1.456,1.178,3.122,1.041,4.785c0.133,1.366-0.12,2.742-0.73,3.971c-0.755,0.787-1.805,1.221-2.895,1.196
				c0.986,0.159,1.903,0.609,2.632,1.292c0.384,0.432,0.67,0.942,0.837,1.495c0.148,1.246,0.2,2.502,0.156,3.756v6.687H-463v-8.373
				c0.081-0.851-0.03-1.709-0.323-2.512c-0.215-0.323-0.778-0.49-1.687-0.49v11.436h-6.591V517.682z M-464.962,522.025v5.634
				c0.536,0.046,1.074-0.057,1.555-0.299c0.299-0.203,0.455-0.873,0.455-1.986v-1.388c0.076-0.567-0.079-1.14-0.431-1.591
				C-463.853,522.097-464.409,521.967-464.962,522.025z"/>
			<path fill="#211915" d="M-442.928,517.682l3.768,25.359h-6.735l-0.359-4.51h-2.392l-0.395,4.557h-6.818l3.361-25.359
				L-442.928,517.682z M-446.421,533.987c-0.335-2.871-0.67-6.42-1.005-10.646c-0.67,4.857-1.1,8.373-1.268,10.646H-446.421z"/>
			<path fill="#211915" d="M-431.469,517.682v25.359h-6.579v-25.359H-431.469z"/>
			<path fill="#211915" d="M-414.076,517.682v25.359h-5.79l-3.421-11.531v11.531h-5.514v-25.359h5.514l3.696,11.424v-11.424
				H-414.076z"/>
			<path fill="#211915" d="M-404.842,517.682v25.359h-6.591v-25.359H-404.842z"/>
			<path fill="#211915" d="M-387.473,517.682v25.359h-5.718l-3.433-11.531v11.531h-5.514v-25.359h5.514l3.696,11.424v-11.424
				H-387.473z"/>
			<path fill="#211915" d="M-369.697,527.025h-6.591v-2.309c0.043-0.913-0.022-1.829-0.191-2.727
				c-0.136-0.369-0.507-0.597-0.897-0.55c-0.349-0.032-0.68,0.16-0.825,0.478c-0.196,0.781-0.269,1.589-0.215,2.392v12.189
				c-0.044,0.752,0.028,1.507,0.215,2.237c0.133,0.359,0.491,0.585,0.873,0.55c0.426,0.035,0.824-0.213,0.981-0.61
				c0.22-0.777,0.309-1.586,0.263-2.392v-3.002h-1.34v-3.852h7.727v13.613h-4.139l-0.622-1.818c-0.391,0.733-0.98,1.342-1.699,1.758
				c-0.733,0.401-1.557,0.603-2.392,0.586c-1.089,0.007-2.16-0.269-3.11-0.801c-0.89-0.47-1.647-1.157-2.201-1.998
				c-0.487-0.758-0.809-1.609-0.945-2.5c-0.147-1.302-0.211-2.613-0.191-3.923v-7.536c-0.054-1.767,0.078-3.536,0.395-5.275
				c0.354-1.227,1.124-2.293,2.177-3.014c1.406-0.959,3.084-1.438,4.785-1.364c1.675-0.057,3.333,0.358,4.785,1.196
				c1.134,0.627,2.013,1.63,2.488,2.835c0.458,1.552,0.656,3.168,0.586,4.785L-369.697,527.025z"/>
		</g>
		<g>
			<path fill="#FFFFFF" d="M-467.45,562.851h-8.481v-5.682c0.067-1.037-0.026-2.078-0.275-3.086c-0.236-0.429-0.71-0.671-1.196-0.61
				c-0.563-0.102-1.12,0.209-1.328,0.742c-0.246,1.058-0.339,2.146-0.275,3.23v15.168c-0.063,1.041,0.03,2.085,0.275,3.098
				c0.207,0.503,0.729,0.803,1.268,0.73c0.514,0.04,0.997-0.254,1.196-0.73c0.264-1.116,0.365-2.264,0.299-3.409v-4.115h8.481v1.28
				c0.111,2.414-0.126,4.831-0.706,7.177c-0.59,1.57-1.695,2.895-3.134,3.756c-1.814,1.111-3.915,1.664-6.041,1.591
				c-2.132,0.087-4.25-0.379-6.148-1.352c-1.52-0.781-2.674-2.124-3.218-3.744c-0.606-2.342-0.868-4.76-0.778-7.177v-9.57
				c-0.034-1.77,0.046-3.54,0.239-5.299c0.187-1.235,0.68-2.403,1.435-3.397c0.864-1.139,2.016-2.027,3.337-2.572
				c1.548-0.648,3.214-0.966,4.892-0.933c2.154-0.084,4.291,0.416,6.184,1.447c1.464,0.773,2.602,2.047,3.206,3.589
				c0.608,2.191,0.866,4.463,0.766,6.735V562.851z"/>
			<path fill="#FFFFFF" d="M-464.4,548.628h14.163v6.531h-5.67v6.196h5.299v6.208h-5.299v7.177h6.232v6.531H-464.4V548.628z"/>
			<path fill="#FFFFFF" d="M-428.275,548.628v32.656h-7.44l-4.414-14.845v14.845h-7.105v-32.656h7.105l4.785,14.701v-14.701
				H-428.275z"/>
			<path fill="#FFFFFF" d="M-407.76,548.628v6.531h-5.048v26.125h-8.481v-26.125h-5.024v-6.531H-407.76z"/>
			<path fill="#FFFFFF" d="M-405.822,548.628h14.163v6.531h-5.67v6.196h5.335v6.208h-5.299v7.177h6.232v6.531h-14.761V548.628z"/>
			<path fill="#FFFFFF" d="M-388.657,548.628h5.981c2.724-0.087,5.45,0.069,8.146,0.466c1.422,0.32,2.665,1.177,3.469,2.392
				c1.035,1.849,1.501,3.963,1.34,6.077c0,2.548-0.323,4.246-0.945,5.12c-0.963,1.033-2.32,1.607-3.732,1.579
				c1.272,0.201,2.453,0.785,3.385,1.675c0.497,0.554,0.865,1.212,1.077,1.926c0.2,1.587,0.272,3.187,0.215,4.785v8.613h-7.883
				v-10.849c0.102-1.102-0.041-2.213-0.419-3.254c-0.275-0.419-1.005-0.622-2.165-0.622v14.725h-8.493L-388.657,548.628z
				 M-380.164,554.214v7.261c0.69,0.059,1.382-0.078,1.998-0.395c0.395-0.263,0.586-1.112,0.586-2.548v-1.794
				c0.096-0.73-0.106-1.467-0.562-2.046C-378.743,554.309-379.456,554.14-380.164,554.214z"/>
		</g>
	</g>
</g>
</svg>
