<svg xmlns="http://www.w3.org/2000/svg" width="1243.59" height="38.94" viewBox="0 0 1243.59 38.94">
  <g>
    <g>
      <path d="M449,23.38l-.19,2c-1.09,0-2.7-.06-4.08-.06s-1.89.08-1.89,1.19c0,.91.38,1.16,1.36,1.48l2.48.85a3.58,3.58,0,0,1,2.76,3.84c0,3-1.29,3.76-4.84,3.76a21.63,21.63,0,0,1-4.48-.49l.17-2.08c2.42,0,3.47.09,4.31.09,1.51,0,1.92-.21,1.92-1.26s-.35-1.16-1.22-1.44l-2.63-.93a3.58,3.58,0,0,1-2.71-3.82c0-3,1.38-3.61,4.75-3.61A16.08,16.08,0,0,1,449,23.38Z"/>
      <path d="M461.22,27.2c0,3.37-1.15,4.27-4.39,4.27a19,19,0,0,1-2.45-.15v4.84H451.5v-13a45.88,45.88,0,0,1,5-.17C460.07,23,461.22,23.87,461.22,27.2Zm-4.82,2.06c1.47,0,1.93-.43,1.93-2.06s-.46-2-1.93-2h-2v4.1Z"/>
      <path d="M465.62,32.74l-.94,3.42h-2.95l3.76-12.29a1,1,0,0,1,1-.75h2.73a1,1,0,0,1,1,.75L474,36.16h-2.93l-.95-3.42Zm2.76-6.22c-.09-.4-.2-.83-.26-1.23h-.51l-.29,1.23-1.09,4h3.25Z"/>
      <path d="M484.21,23.33,484,25.48c-1.23-.07-2-.09-3.67-.09-1.89,0-2.46,1-2.46,4.25s.57,4.25,2.46,4.25a27.52,27.52,0,0,0,3.93-.17l.25,2.14a12.8,12.8,0,0,1-4.18.53c-4,0-5.48-1.78-5.48-6.75s1.46-6.75,5.48-6.75A13.56,13.56,0,0,1,484.21,23.33Z"/>
      <path d="M495.13,36c-1.78.19-4,.19-6.05.19a2.59,2.59,0,0,1-2.87-2.63v-7.9a2.59,2.59,0,0,1,2.87-2.63c2,0,4.27,0,6.05.19L495,25.39h-5c-.62,0-.89.28-.89,1v2h5.2v2.09h-5.2v2.51c0,.7.27,1,.89,1h5Z"/>
      <path d="M505.79,23.38l-.19,2c-1.09,0-2.7-.06-4.08-.06s-1.89.08-1.89,1.19c0,.91.38,1.16,1.36,1.48l2.48.85a3.58,3.58,0,0,1,2.76,3.84c0,3-1.29,3.76-4.84,3.76a21.7,21.7,0,0,1-4.48-.49l.17-2.08c2.42,0,3.48.09,4.31.09,1.51,0,1.93-.21,1.93-1.26s-.36-1.16-1.23-1.44l-2.63-.93a3.57,3.57,0,0,1-2.7-3.82c0-3,1.38-3.61,4.74-3.61A16.08,16.08,0,0,1,505.79,23.38Z"/>
      <path d="M515.68,25.39c-.74,0-1,.28-1,1v2.23h5v2.1h-5v5.48h-2.9V25.76a2.6,2.6,0,0,1,2.88-2.7,52.28,52.28,0,0,1,5.86.21l-.15,2.12Z"/>
      <path d="M533,29.64c0,5.24-1.47,6.77-5.59,6.77s-5.58-1.53-5.58-6.77,1.45-6.77,5.58-6.77S533,24.4,533,29.64Zm-8.15,0c0,3.46.59,4.44,2.56,4.44s2.55-1,2.55-4.44-.59-4.44-2.55-4.44S524.86,26.18,524.86,29.64Z"/>
      <path d="M542.52,36.16l-1-4a1.26,1.26,0,0,0-1.4-1.09h-2v5.08h-2.83v-13a46.19,46.19,0,0,1,5-.17c3.4,0,4.82.87,4.82,3.85,0,1.84-.64,3-2.49,3.24v.09a2.39,2.39,0,0,1,1.85,2l1.13,4.06Zm-2.33-7.31c1.52,0,2-.42,2-1.86s-.45-1.83-2-1.83l-2.08,0v3.67Z"/>
      <path d="M557.15,25.46v10.7h-2.89V25.46h-3.9V23.12H561v2.34Z"/>
      <path d="M570,36.16l-1-4a1.25,1.25,0,0,0-1.4-1.09h-2v5.08h-2.83v-13a46,46,0,0,1,5-.17c3.4,0,4.82.87,4.82,3.85,0,1.84-.64,3-2.5,3.24v.09a2.4,2.4,0,0,1,1.86,2L573,36.16Zm-2.33-7.31c1.51,0,2-.42,2-1.86s-.46-1.83-2-1.83l-2.08,0v3.67Z"/>
      <path d="M577.45,32.74l-1,3.42h-2.94l3.76-12.29a1,1,0,0,1,1-.75H581a1,1,0,0,1,1,.75l3.77,12.29h-2.93l-1-3.42Zm2.76-6.22c-.09-.4-.21-.83-.26-1.23h-.51l-.29,1.23-1.09,4h3.25Z"/>
      <path d="M587.09,36.16v-13H590v13Z"/>
      <path d="M603.65,35.12a.92.92,0,0,1-1,1h-1.8c-.6,0-.87-.28-1.15-.85l-3.42-7a12,12,0,0,1-.8-2h-.2a16.13,16.13,0,0,1,.13,2.08v7.75h-2.74v-12a.93.93,0,0,1,1-1h1.76c.6,0,.86.28,1.15.85l3.31,6.75c.28.56.64,1.36.94,2.1H601c-.06-.74-.11-1.46-.11-2.2v-7.5h2.72Z"/>
      <path d="M606.37,36.16v-13h2.87v13Z"/>
      <path d="M622.93,35.12a.92.92,0,0,1-1,1h-1.8c-.6,0-.87-.28-1.15-.85l-3.42-7a12,12,0,0,1-.8-2h-.2a16.13,16.13,0,0,1,.13,2.08v7.75h-2.74v-12a.93.93,0,0,1,1-1h1.76c.6,0,.87.28,1.15.85l3.31,6.75c.28.56.64,1.36.94,2.1h.19c-.06-.74-.11-1.46-.11-2.2v-7.5h2.72Z"/>
      <path d="M635.52,36.16H633.4l-.26-1.32a5.23,5.23,0,0,1-3.76,1.57c-2.94,0-4.16-2-4.16-6.81,0-5.16,1.55-6.73,5.84-6.73a14.64,14.64,0,0,1,4,.46l-.23,2.11c-1.29-.05-2.55-.09-3.69-.09-2.17,0-2.89.57-2.89,4.35,0,3.25.51,4.25,2.14,4.25a4.73,4.73,0,0,0,2.34-.66V28.64h2.78Z"/>
      <path d="M639.15,33.31c.72,0,1,.22,1,1v1.21a6.12,6.12,0,0,1-1,3.46L638,38.58a9.92,9.92,0,0,0,.27-2.42c-.51,0-.78-.32-.8-.87l0-1c0-.74.29-1,1-1Z"/>
      <path d="M653.1,36.16l-1-4a1.24,1.24,0,0,0-1.39-1.09h-2v5.08h-2.83v-13a46.08,46.08,0,0,1,5-.17c3.4,0,4.82.87,4.82,3.85,0,1.84-.64,3-2.5,3.24v.09a2.4,2.4,0,0,1,1.86,2l1.13,4.06Zm-2.33-7.31c1.51,0,2-.42,2-1.86s-.46-1.83-2-1.83l-2.08,0v3.67Z"/>
      <path d="M666.82,36c-1.78.19-4,.19-6.05.19a2.59,2.59,0,0,1-2.87-2.63v-7.9a2.59,2.59,0,0,1,2.87-2.63c2,0,4.27,0,6.05.19l-.13,2.14h-5c-.62,0-.89.28-.89,1v2H666v2.09h-5.2v2.51c0,.7.27,1,.89,1h5Z"/>
      <path d="M679.9,35.12a.92.92,0,0,1-1,1h-1.79c-.61,0-.87-.28-1.16-.85l-3.42-7a11.94,11.94,0,0,1-.79-2h-.21a16.13,16.13,0,0,1,.13,2.08v7.75H668.9v-12a.93.93,0,0,1,1-1h1.76c.6,0,.87.28,1.15.85l3.31,6.75c.28.56.64,1.36.94,2.1h.19c0-.74-.11-1.46-.11-2.2v-7.5h2.72Z"/>
      <path d="M688.48,25.46v10.7h-2.89V25.46h-3.9V23.12h10.69v2.34Z"/>
      <path d="M696.63,32.74l-1,3.42h-2.95l3.77-12.29a1,1,0,0,1,1-.75h2.72a1,1,0,0,1,1,.75L705,36.16h-2.93l-.95-3.42Zm2.76-6.22c-.09-.4-.21-.83-.26-1.23h-.52l-.28,1.23-1.1,4h3.26Z"/>
      <path d="M709.09,32.85c0,.68.28,1,1,1h4.48l.13,2.19a52.44,52.44,0,0,1-5.52.21c-2.1,0-3-1.17-3-2.78V23.12h2.88Z"/>
      <path d="M722.77,32.74l-.94,3.42h-3l3.76-12.29a1,1,0,0,1,1-.75h2.72a1,1,0,0,1,1,.75l3.76,12.29H728.2l-1-3.42Zm2.76-6.22c-.09-.4-.21-.83-.26-1.23h-.51l-.29,1.23-1.09,4h3.25Z"/>
      <path d="M743.38,35.12a.92.92,0,0,1-1,1h-1.8c-.61,0-.87-.28-1.15-.85l-3.43-7a11.94,11.94,0,0,1-.79-2H735a14.52,14.52,0,0,1,.13,2.08v7.75h-2.74v-12a.93.93,0,0,1,1-1h1.76c.61,0,.87.28,1.15.85l3.31,6.75c.29.56.65,1.36,1,2.1h.19c-.06-.74-.12-1.46-.12-2.2v-7.5h2.73Z"/>
      <path d="M756.72,29.64c0,5.16-1.45,6.69-5.56,6.69-2,0-3.57-.07-5.06-.17v-13c1.49-.1,3.08-.17,5.06-.17C755.27,23,756.72,24.48,756.72,29.64Zm-3,0c0-3.42-.59-4.44-2.54-4.44l-2.19,0V34l2.19,0C753.11,34.06,753.7,33.06,753.7,29.64Z"/>
    </g>
    <g>
      <g>
        <path d="M11.17,7.09c0,5.24-1.47,6.77-5.59,6.77S0,12.33,0,7.09,1.46.32,5.58.32,11.17,1.85,11.17,7.09ZM3,7.09c0,3.46.59,4.44,2.56,4.44s2.55-1,2.55-4.44S7.54,2.65,5.58,2.65,3,3.63,3,7.09Z"/>
        <path d="M22.67,9c0,3.7-1.21,4.82-3.56,4.82A5.25,5.25,0,0,1,16,13a16.56,16.56,0,0,1,.06,2V17.2H13.27V4.29h2.27l.21,1.36a5.08,5.08,0,0,1,3.7-1.6C21.76,4.05,22.67,5.88,22.67,9ZM19.79,9c0-2.25-.41-2.8-1.45-2.8a4,4,0,0,0-2.29.89V11.4a7.86,7.86,0,0,0,2.12.38C19.36,11.78,19.79,11.36,19.79,9Z"/>
        <path d="M32.87,11.4l.27,1.74a10.23,10.23,0,0,1-4.07.7c-3.53,0-4.86-1.44-4.86-4.88C24.21,5.28,25.57,4,29,4c3.18,0,4.4,1.11,4.42,3.25,0,1.7-.81,2.61-2.83,2.61H27.18c.19,1.42.8,1.72,2.21,1.72C30.24,11.61,31.61,11.53,32.87,11.4ZM27.12,8.21h2.65c.76,0,.87-.44.87-1,0-.87-.38-1.17-1.59-1.17C27.65,6.05,27.2,6.45,27.12,8.21Z"/>
        <path d="M44.35,6.62v7H41.57V7.49c0-.85-.23-1.1-.91-1.1a5.73,5.73,0,0,0-2.61.85l0,6.37h-2.8V4.29h2.27l.21,1.38a6.35,6.35,0,0,1,4-1.64A2.33,2.33,0,0,1,44.35,6.62Z"/>
        <path d="M54.33,10.57c0,.7.26.94,1,.94h1.19l.3,2a9.78,9.78,0,0,1-2.63.38,2.44,2.44,0,0,1-2.66-2.69v-5H49.9V4.39l1.65-.1V1.68h2.78V4.29h2.59V6.16H54.33Z"/>
        <path d="M67.54,6.62v7H64.76V7.49c0-.85-.23-1.1-.91-1.1a5.65,5.65,0,0,0-2.59.85v6.37H58.47V.38h2.79l0,3.23a11.33,11.33,0,0,1-.17,1.95A6.3,6.3,0,0,1,64.93,4,2.33,2.33,0,0,1,67.54,6.62Z"/>
        <path d="M78.05,11.4l.26,1.74a10.18,10.18,0,0,1-4.06.7c-3.54,0-4.86-1.44-4.86-4.88C69.39,5.28,70.75,4,74.14,4c3.17,0,4.4,1.11,4.42,3.25,0,1.7-.81,2.61-2.84,2.61H72.36c.19,1.42.79,1.72,2.21,1.72C75.42,11.61,76.78,11.53,78.05,11.4ZM72.3,8.21H75c.76,0,.87-.44.87-1,0-.87-.38-1.17-1.59-1.17C72.83,6.05,72.38,6.45,72.3,8.21Z"/>
        <path d="M88.8,2c-.94,0-1.24.32-1.24,1.21v1h2.57V6.16H87.56v7.45H84.74V6.16H83.11V4.39l1.63-.1V2.87c0-1.74.81-2.87,3.06-2.87a21.89,21.89,0,0,1,3,.19L90.56,2Z"/>
        <path d="M93.7.17a.72.72,0,0,1,.81.81V2a.72.72,0,0,1-.81.82H92.45A.72.72,0,0,1,91.64,2V1a.72.72,0,0,1,.81-.81Zm-2,13.44V4.29h2.78v9.32Z"/>
        <path d="M103.21,6.62h-.76a8.76,8.76,0,0,0-2.85.64v6.35H96.8V4.29H99l.25,1.38A6.06,6.06,0,0,1,103,4h.49Z"/>
        <path d="M112.74,4.39l-.19,1.79c-1.19,0-2.42,0-3.6,0-1.45,0-1.79,0-1.79.63s.34.58,1.23.83l2.38.64c1.59.46,2.31,1.1,2.31,2.73,0,2.3-1.27,2.85-4.28,2.85a26.18,26.18,0,0,1-4.18-.32l.18-1.82c.68,0,2,0,3.23,0,1.91,0,2.34-.09,2.34-.7s-.39-.6-1.32-.87l-2.33-.62C105,9,104.46,8.17,104.46,6.69c0-1.94,1.05-2.66,4-2.66A30.53,30.53,0,0,1,112.74,4.39Z"/>
        <path d="M118.54,10.57c0,.7.26.94,1,.94h1.19l.3,2a9.72,9.72,0,0,1-2.63.38,2.44,2.44,0,0,1-2.66-2.69v-5h-1.65V4.39l1.65-.1V1.68h2.78V4.29h2.59V6.16h-2.59Z"/>
        <path d="M141,12.82a1,1,0,0,1-1,.79h-2.76a1,1,0,0,1-1-.81l-1.42-8.53c-.09-.55-.17-1.09-.22-1.64h-.36c-.08.55-.13,1.11-.23,1.66l-1.4,8.51a1,1,0,0,1-1,.81h-2.76a1,1,0,0,1-1-.79L125.68.57h2.95l1.27,9c.07.57.13,1.19.17,1.89h.38c.07-.62.19-1.3.28-1.89l1.4-8.16a1,1,0,0,1,1-.89h2.5a1,1,0,0,1,1,.89l1.4,8.18c.09.61.2,1.29.26,1.87h.4c0-.6.09-1.28.17-1.85L140.16.57h2.93Z"/>
        <path d="M147.5,10.19l-.95,3.42h-3l3.76-12.29a1,1,0,0,1,1-.75h2.72a1,1,0,0,1,1,.75l3.76,12.29h-2.93L152,10.19ZM150.26,4c-.1-.4-.21-.83-.27-1.23h-.51L149.2,4l-1.1,4h3.25Z"/>
        <path d="M162.94,2.91v10.7h-2.89V2.91h-3.9V.57h10.68V2.91Z"/>
        <path d="M177.31,13.48c-1.78.19-4,.19-6.05.19A2.6,2.6,0,0,1,168.38,11V3.14A2.6,2.6,0,0,1,171.26.51c2,0,4.27,0,6.05.19l-.14,2.14h-5c-.62,0-.88.28-.88,1v2h5.19V7.87h-5.19v2.51c0,.7.26,1,.88,1h5Z"/>
        <path d="M186.63,13.61l-1-4a1.25,1.25,0,0,0-1.4-1.09h-2v5.08h-2.84V.57a46.28,46.28,0,0,1,5-.17c3.4,0,4.82.87,4.82,3.85,0,1.84-.65,3-2.5,3.24v.09a2.41,2.41,0,0,1,1.85,2l1.14,4.06ZM184.3,6.3c1.51,0,2-.42,2-1.86s-.46-1.83-2-1.83l-2.08,0V6.3Z"/>
        <path d="M204.45.78l-.25,2.15c-1.22-.07-2-.09-3.66-.09-1.89,0-2.46,1-2.46,4.25s.57,4.25,2.46,4.25a27.52,27.52,0,0,0,3.93-.17l.24,2.14a12.74,12.74,0,0,1-4.17.53c-4,0-5.49-1.78-5.49-6.75S196.51.34,200.54.34A13.49,13.49,0,0,1,204.45.78Z"/>
        <path d="M212.45,13.61h-2.9V9.28L205.24.57h3l2.17,4.78A9.74,9.74,0,0,1,210.91,7h.19a10.72,10.72,0,0,1,.48-1.65L213.75.57h3l-4.27,8.71Z"/>
        <path d="M227.08.78l-.25,2.15c-1.23-.07-2-.09-3.67-.09-1.89,0-2.45,1-2.45,4.25s.56,4.25,2.45,4.25a27.75,27.75,0,0,0,3.94-.17l.24,2.14a12.8,12.8,0,0,1-4.18.53c-4,0-5.48-1.78-5.48-6.75S219.14.34,223.16.34A13.52,13.52,0,0,1,227.08.78Z"/>
        <path d="M232,10.3c0,.68.28,1,1,1h4.48l.13,2.19a52.44,52.44,0,0,1-5.52.21c-2.1,0-3-1.17-3-2.78V.57H232Z"/>
        <path d="M239.25,13.61V.57h2.87v13Z"/>
        <path d="M255.83,12.57a.92.92,0,0,1-1,1H253c-.6,0-.87-.28-1.15-.85l-3.42-7a11.18,11.18,0,0,1-.8-2h-.21a14.54,14.54,0,0,1,.14,2.08v7.75h-2.75v-12a.93.93,0,0,1,1-1h1.76c.61,0,.87.28,1.16.85l3.3,6.75c.29.56.65,1.36.95,2.1h.19c-.06-.74-.12-1.46-.12-2.2V.57h2.73Z"/>
        <path d="M268.42,13.61H266.3L266,12.29a5.21,5.21,0,0,1-3.76,1.57c-2.93,0-4.16-2-4.16-6.81,0-5.16,1.55-6.73,5.84-6.73a14.59,14.59,0,0,1,4,.46l-.22,2.11c-1.29-.05-2.56-.09-3.69-.09-2.17,0-2.89.57-2.89,4.35,0,3.25.51,4.25,2.13,4.25a4.77,4.77,0,0,0,2.35-.66V6.09h2.78Z"/>
        <path d="M279.79,2.91v10.7H276.9V2.91H273V.57h10.68V2.91Z"/>
        <path d="M292.59,13.61l-1-4a1.26,1.26,0,0,0-1.4-1.09h-2v5.08h-2.84V.57a46.19,46.19,0,0,1,5-.17c3.41,0,4.82.87,4.82,3.85,0,1.84-.64,3-2.49,3.24v.09a2.41,2.41,0,0,1,1.85,2l1.14,4.06ZM290.27,6.3c1.51,0,2-.42,2-1.86s-.45-1.83-2-1.83l-2.08,0V6.3Z"/>
        <path d="M300.1,10.19l-1,3.42H296.2L300,1.32a1,1,0,0,1,1-.75h2.72a1,1,0,0,1,1,.75l3.76,12.29h-2.93l-.94-3.42ZM302.86,4c-.1-.4-.21-.83-.27-1.23h-.51L301.8,4l-1.1,4H304Z"/>
        <path d="M309.74,13.61V.57h2.87v13Z"/>
        <path d="M326.3,12.57a.92.92,0,0,1-1,1h-1.79c-.61,0-.87-.28-1.15-.85l-3.43-7a11.94,11.94,0,0,1-.79-2h-.21A14.52,14.52,0,0,1,318,5.86v7.75h-2.74v-12a.93.93,0,0,1,1-1h1.76c.61,0,.87.28,1.15.85l3.31,6.75c.29.56.65,1.36.95,2.1h.19c-.06-.74-.12-1.46-.12-2.2V.57h2.73Z"/>
        <path d="M329,13.61V.57h2.87v13Z"/>
        <path d="M345.58,12.57a.92.92,0,0,1-1,1h-1.8c-.61,0-.87-.28-1.15-.85l-3.43-7a11.94,11.94,0,0,1-.79-2h-.21a14.52,14.52,0,0,1,.13,2.08v7.75h-2.74v-12a.93.93,0,0,1,1-1h1.76c.61,0,.87.28,1.15.85l3.31,6.75c.29.56.65,1.36.95,2.1H343c-.06-.74-.12-1.46-.12-2.2V.57h2.73Z"/>
        <path d="M358.16,13.61h-2.11l-.27-1.32A5.21,5.21,0,0,1,352,13.86c-2.93,0-4.16-2-4.16-6.81,0-5.16,1.55-6.73,5.84-6.73a14.64,14.64,0,0,1,4,.46l-.23,2.11c-1.28-.05-2.55-.09-3.68-.09-2.18,0-2.9.57-2.9,4.35,0,3.25.52,4.25,2.14,4.25a4.77,4.77,0,0,0,2.35-.66V6.09h2.77Z"/>
        <path d="M373.14.78l-.25,2.15c-1.23-.07-2-.09-3.67-.09-1.89,0-2.46,1-2.46,4.25s.57,4.25,2.46,4.25a27.52,27.52,0,0,0,3.93-.17l.25,2.14a12.8,12.8,0,0,1-4.18.53c-4,0-5.48-1.78-5.48-6.75S365.19.34,369.22.34A13.56,13.56,0,0,1,373.14.78Z"/>
        <path d="M384.06,13.48c-1.78.19-4,.19-6.05.19A2.59,2.59,0,0,1,375.14,11V3.14A2.59,2.59,0,0,1,378,.51c2,0,4.27,0,6.05.19l-.13,2.14h-5c-.63,0-.89.28-.89,1v2h5.2V7.87H378v2.51c0,.7.26,1,.89,1h5Z"/>
        <path d="M397.2,12.57a.92.92,0,0,1-1,1h-1.8c-.6,0-.87-.28-1.15-.85l-3.42-7a11.18,11.18,0,0,1-.8-2h-.21a14.54,14.54,0,0,1,.14,2.08v7.75H386.2v-12a.93.93,0,0,1,1-1H389c.61,0,.87.28,1.16.85l3.31,6.75c.28.56.64,1.36.94,2.1h.19c-.06-.74-.11-1.46-.11-2.2V.57h2.72Z"/>
        <path d="M405.72,2.91v10.7h-2.89V2.91h-3.89V.57h10.68V2.91Z"/>
        <path d="M420.09,13.48c-1.78.19-4,.19-6,.19A2.58,2.58,0,0,1,411.17,11V3.14A2.58,2.58,0,0,1,414,.51c2,0,4.27,0,6,.19L420,2.84h-5c-.63,0-.89.28-.89,1v2h5.2V7.87h-5.2v2.51c0,.7.26,1,.89,1h5Z"/>
        <path d="M429.41,13.61l-1-4A1.24,1.24,0,0,0,427,8.53h-2v5.08h-2.83V.57a46.08,46.08,0,0,1,5-.17c3.4,0,4.82.87,4.82,3.85,0,1.84-.64,3-2.5,3.24v.09a2.42,2.42,0,0,1,1.86,2l1.13,4.06ZM427.08,6.3c1.51,0,2-.42,2-1.86s-.46-1.83-2-1.83l-2.08,0V6.3Z"/>
        <path d="M440,.17a.72.72,0,0,1,.82.81V2a.72.72,0,0,1-.82.82h-1.24a.72.72,0,0,1-.82-.82V1a.72.72,0,0,1,.82-.81Zm-2,13.44V4.29h2.78v9.32Z"/>
        <path d="M452.15,6.62v7h-2.78V7.49c0-.85-.23-1.1-.91-1.1a5.76,5.76,0,0,0-2.61.85l0,6.37h-2.8V4.29h2.27l.21,1.38a6.35,6.35,0,0,1,4-1.64A2.33,2.33,0,0,1,452.15,6.62Z"/>
        <path d="M461.73,10.57c0,.7.26.94,1,.94h1.19l.3,2a9.71,9.71,0,0,1-2.62.38A2.44,2.44,0,0,1,459,11.15v-5h-1.64V4.39l1.64-.1V1.68h2.78V4.29h2.59V6.16h-2.59Z"/>
        <path d="M474.94,6.62v7h-2.78V7.49c0-.85-.22-1.1-.9-1.1a5.58,5.58,0,0,0-2.59.85v6.37h-2.8V.38h2.8l0,3.23a12.42,12.42,0,0,1-.17,1.95A6.28,6.28,0,0,1,472.33,4,2.33,2.33,0,0,1,474.94,6.62Z"/>
        <path d="M485.45,11.4l.27,1.74a10.23,10.23,0,0,1-4.07.7c-3.53,0-4.86-1.44-4.86-4.88,0-3.68,1.37-4.93,4.75-4.93,3.18,0,4.4,1.11,4.42,3.25,0,1.7-.81,2.61-2.83,2.61h-3.37c.19,1.42.8,1.72,2.21,1.72C482.83,11.61,484.19,11.53,485.45,11.4Zm-5.74-3.19h2.64c.76,0,.87-.44.87-1,0-.87-.38-1.17-1.59-1.17C480.24,6.05,479.78,6.45,479.71,8.21Z"/>
        <path d="M503.79,12.88a1,1,0,0,1-1,.73h-2.2a1,1,0,0,1-1-.85l-.95-5.27c-.07-.53-.11-1-.2-1.57h-.23L498,7.49l-.92,5.27a1,1,0,0,1-1,.85h-2.16a1,1,0,0,1-1-.73l-2.29-8.59h2.82l1.26,6.05a13.46,13.46,0,0,1,.23,1.53h.25c.07-.51.17-1,.24-1.53l.95-5.22a.92.92,0,0,1,1-.83h2a1,1,0,0,1,1,.85l.93,5.2c.07.51.18,1,.26,1.53h.23c.07-.51.11-1,.22-1.53l1.29-6h2.82Z"/>
        <path d="M516.72,9c0,3.58-1.31,4.9-4.79,4.9s-4.8-1.32-4.8-4.9S508.44,4,511.93,4,516.72,5.37,516.72,9Zm-6.66,0c0,2.23.4,2.8,1.87,2.8s1.86-.57,1.86-2.8-.42-2.83-1.86-2.83S510.06,6.69,510.06,9Z"/>
        <path d="M525.07,6.62h-.75a8.81,8.81,0,0,0-2.86.64v6.35h-2.8V4.29h2.18l.24,1.38A6.06,6.06,0,0,1,524.86,4h.5Z"/>
        <path d="M529.57,10.57c0,.64.36.94,1.06.94h.76l.32,2a6.44,6.44,0,0,1-2.23.38,2.42,2.42,0,0,1-2.69-2.57V.38h2.78Z"/>
        <path d="M541.88,13.61h-2.21l-.21-1.38a4.62,4.62,0,0,1-3.58,1.61c-2.38,0-3.3-1.8-3.3-5,0-3.73,1.22-4.84,3.57-4.84a5.27,5.27,0,0,1,3,.83c0-.62-.09-1.27-.09-1.95V.38h2.8ZM537,11.53a3.39,3.39,0,0,0,2.08-.75V6.47a6.69,6.69,0,0,0-2-.36c-1.19,0-1.64.39-1.64,2.74S535.9,11.53,537,11.53Z"/>
        <path d="M545.77,10.76c.72,0,1,.22,1,1v1.21a6.12,6.12,0,0,1-1,3.46L544.62,16a9.92,9.92,0,0,0,.26-2.42c-.51,0-.77-.32-.79-.87l0-1c0-.74.28-1,1-1Z"/>
        <path d="M561.72,9c0,3.7-1.21,4.82-3.55,4.82a5.25,5.25,0,0,1-3.12-.91,16.56,16.56,0,0,1,.06,2V17.2h-2.78V4.29h2.27l.21,1.36a5.08,5.08,0,0,1,3.7-1.6C560.82,4.05,561.72,5.88,561.72,9Zm-2.87,0c0-2.25-.41-2.8-1.45-2.8a4,4,0,0,0-2.29.89V11.4a7.86,7.86,0,0,0,2.12.38C558.42,11.78,558.85,11.36,558.85,9Z"/>
        <path d="M565.75.17a.72.72,0,0,1,.81.81V2a.72.72,0,0,1-.81.82H564.5a.72.72,0,0,1-.81-.82V1a.72.72,0,0,1,.81-.81Zm-2,13.44V4.29h2.77v9.32Z"/>
        <path d="M578.07,9c0,3.58-1.3,4.9-4.78,4.9s-4.8-1.32-4.8-4.9S569.79,4,573.29,4,578.07,5.37,578.07,9Zm-6.65,0c0,2.23.4,2.8,1.87,2.8s1.85-.57,1.85-2.8-.41-2.83-1.85-2.83S571.42,6.69,571.42,9Z"/>
        <path d="M589.06,6.62v7h-2.78V7.49c0-.85-.23-1.1-.91-1.1a5.76,5.76,0,0,0-2.61.85l0,6.37H580V4.29h2.27l.21,1.38a6.35,6.35,0,0,1,4-1.64A2.33,2.33,0,0,1,589.06,6.62Z"/>
        <path d="M599.57,11.4l.26,1.74a10.21,10.21,0,0,1-4.06.7c-3.54,0-4.86-1.44-4.86-4.88,0-3.68,1.36-4.93,4.74-4.93,3.18,0,4.41,1.11,4.43,3.25,0,1.7-.82,2.61-2.84,2.61h-3.36c.19,1.42.79,1.72,2.21,1.72C596.94,11.61,598.3,11.53,599.57,11.4Zm-5.75-3.19h2.65c.75,0,.87-.44.87-1,0-.87-.38-1.17-1.59-1.17C594.35,6.05,593.9,6.45,593.82,8.21Z"/>
        <path d="M610.21,11.4l.26,1.74a10.18,10.18,0,0,1-4.06.7c-3.54,0-4.86-1.44-4.86-4.88,0-3.68,1.36-4.93,4.75-4.93,3.17,0,4.4,1.11,4.42,3.25,0,1.7-.81,2.61-2.84,2.61h-3.36c.19,1.42.79,1.72,2.21,1.72C607.58,11.61,608.94,11.53,610.21,11.4Zm-5.75-3.19h2.65c.75,0,.87-.44.87-1,0-.87-.38-1.17-1.59-1.17C605,6.05,604.54,6.45,604.46,8.21Z"/>
        <path d="M618.81,6.62h-.76a8.76,8.76,0,0,0-2.85.64v6.35h-2.8V4.29h2.17l.25,1.38A6.06,6.06,0,0,1,618.6,4h.49Z"/>
        <path d="M628.34,4.39l-.19,1.79c-1.19,0-2.42,0-3.59,0-1.46,0-1.8,0-1.8.63s.34.58,1.23.83l2.38.64c1.59.46,2.31,1.1,2.31,2.73,0,2.3-1.27,2.85-4.28,2.85a26,26,0,0,1-4.17-.32l.17-1.82c.68,0,2,0,3.23,0,1.91,0,2.34-.09,2.34-.7s-.39-.6-1.32-.87l-2.33-.62c-1.77-.51-2.26-1.36-2.26-2.84,0-1.94,1.05-2.66,4-2.66A30.53,30.53,0,0,1,628.34,4.39Z"/>
        <path d="M635.9.17a.72.72,0,0,1,.81.81V2a.72.72,0,0,1-.81.82h-1.25a.72.72,0,0,1-.81-.82V1a.72.72,0,0,1,.81-.81Zm-2,13.44V4.29h2.78v9.32Z"/>
        <path d="M648.07,6.62v7h-2.78V7.49c0-.85-.23-1.1-.91-1.1a5.76,5.76,0,0,0-2.61.85l0,6.37H639V4.29h2.26l.21,1.38a6.37,6.37,0,0,1,4-1.64A2.33,2.33,0,0,1,648.07,6.62Z"/>
        <path d="M657.88,10.57c0,.7.27.94,1,.94h1.19l.31,2a9.84,9.84,0,0,1-2.63.38,2.44,2.44,0,0,1-2.67-2.69v-5h-1.64V4.39l1.64-.1V1.68h2.78V4.29h2.59V6.16h-2.59Z"/>
        <path d="M671.09,6.62v7h-2.78V7.49c0-.85-.22-1.1-.9-1.1a5.58,5.58,0,0,0-2.59.85v6.37H662V.38h2.8l0,3.23a12.42,12.42,0,0,1-.17,1.95A6.28,6.28,0,0,1,668.48,4,2.33,2.33,0,0,1,671.09,6.62Z"/>
        <path d="M681.6,11.4l.27,1.74a10.23,10.23,0,0,1-4.07.7c-3.53,0-4.86-1.44-4.86-4.88,0-3.68,1.37-4.93,4.75-4.93,3.18,0,4.4,1.11,4.42,3.25,0,1.7-.81,2.61-2.83,2.61h-3.37c.19,1.42.8,1.72,2.21,1.72C679,11.61,680.34,11.53,681.6,11.4Zm-5.74-3.19h2.64c.76,0,.87-.44.87-1,0-.87-.38-1.17-1.59-1.17C676.39,6.05,675.93,6.45,675.86,8.21Z"/>
        <path d="M696.4,13.61h-2.21L694,12.23a4.58,4.58,0,0,1-3.57,1.61c-2.38,0-3.31-1.8-3.31-5,0-3.73,1.23-4.84,3.58-4.84a5.29,5.29,0,0,1,3,.83q-.09-.93-.09-1.95V.38h2.79Zm-4.87-2.08a3.41,3.41,0,0,0,2.08-.75V6.47a6.69,6.69,0,0,0-2-.36c-1.19,0-1.64.39-1.64,2.74S690.43,11.53,691.53,11.53Z"/>
        <path d="M707.05,11.4l.26,1.74a10.21,10.21,0,0,1-4.06.7c-3.54,0-4.86-1.44-4.86-4.88,0-3.68,1.36-4.93,4.74-4.93,3.18,0,4.41,1.11,4.43,3.25,0,1.7-.82,2.61-2.84,2.61h-3.36c.18,1.42.79,1.72,2.21,1.72C704.42,11.61,705.78,11.53,707.05,11.4ZM701.3,8.21H704c.75,0,.87-.44.87-1,0-.87-.38-1.17-1.59-1.17C701.83,6.05,701.37,6.45,701.3,8.21Z"/>
        <path d="M715.68,13a.92.92,0,0,1-.9.66h-2.42a.93.93,0,0,1-.91-.66l-3.06-8.66h3L713,10.13c.15.55.28,1.12.39,1.67h.25c.15-.55.28-1.12.43-1.67l1.69-5.84h3Z"/>
        <path d="M728.31,11.4l.27,1.74a10.23,10.23,0,0,1-4.07.7c-3.53,0-4.86-1.44-4.86-4.88C719.65,5.28,721,4,724.4,4c3.17,0,4.4,1.11,4.42,3.25,0,1.7-.81,2.61-2.83,2.61h-3.37c.19,1.42.8,1.72,2.21,1.72C725.68,11.61,727.05,11.53,728.31,11.4Zm-5.75-3.19h2.65c.76,0,.87-.44.87-1,0-.87-.38-1.17-1.59-1.17C723.09,6.05,722.64,6.45,722.56,8.21Z"/>
        <path d="M733.53,10.57c0,.64.36.94,1.06.94h.75l.32,2a6.36,6.36,0,0,1-2.23.38,2.42,2.42,0,0,1-2.68-2.57V.38h2.78Z"/>
        <path d="M746.1,9c0,3.58-1.31,4.9-4.78,4.9s-4.81-1.32-4.81-4.9S737.82,4,741.32,4,746.1,5.37,746.1,9Zm-6.66,0c0,2.23.4,2.8,1.88,2.8s1.85-.57,1.85-2.8-.42-2.83-1.85-2.83S739.44,6.69,739.44,9Z"/>
        <path d="M757.4,9c0,3.7-1.21,4.82-3.55,4.82a5.23,5.23,0,0,1-3.12-.91,18.87,18.87,0,0,1,.06,2V17.2H748V4.29h2.26l.21,1.36a5.12,5.12,0,0,1,3.71-1.6C756.49,4.05,757.4,5.88,757.4,9Zm-2.87,0c0-2.25-.42-2.8-1.46-2.8a3.94,3.94,0,0,0-2.28.89V11.4a7.79,7.79,0,0,0,2.11.38C754.09,11.78,754.53,11.36,754.53,9Z"/>
        <path d="M773.79,6.62v7H771V7.49c0-.8-.22-1.1-1-1.1a3.84,3.84,0,0,0-2.08.83v6.39h-2.68V7.49c0-.83-.31-1.1-1-1.1a3.78,3.78,0,0,0-2.06.81v6.41h-2.78V4.29h2.23l.19,1.36A5.18,5.18,0,0,1,765.4,4a2.26,2.26,0,0,1,2.4,1.51A4.82,4.82,0,0,1,771.2,4,2.32,2.32,0,0,1,773.79,6.62Z"/>
        <path d="M784.17,11.4l.26,1.74a10.18,10.18,0,0,1-4.06.7c-3.54,0-4.86-1.44-4.86-4.88,0-3.68,1.36-4.93,4.75-4.93,3.17,0,4.4,1.11,4.42,3.25,0,1.7-.81,2.61-2.84,2.61h-3.36c.19,1.42.79,1.72,2.21,1.72C781.54,11.61,782.9,11.53,784.17,11.4Zm-5.75-3.19h2.65c.75,0,.87-.44.87-1,0-.87-.38-1.17-1.59-1.17C779,6.05,778.5,6.45,778.42,8.21Z"/>
        <path d="M795.43,6.62v7h-2.77V7.49c0-.85-.23-1.1-.91-1.1a5.69,5.69,0,0,0-2.61.85l0,6.37h-2.8V4.29h2.27l.21,1.38a6.33,6.33,0,0,1,4-1.64A2.32,2.32,0,0,1,795.43,6.62Z"/>
        <path d="M801.14,10.57c0,.7.27.94,1,.94h1.19l.31,2a9.78,9.78,0,0,1-2.63.38,2.45,2.45,0,0,1-2.67-2.69v-5h-1.64V4.39l1.64-.1V1.68h2.78V4.29h2.59V6.16h-2.59Z"/>
        <path d="M817.74,9c0,3.58-1.3,4.9-4.78,4.9s-4.81-1.32-4.81-4.9S809.46,4,813,4,817.74,5.37,817.74,9Zm-6.66,0c0,2.23.4,2.8,1.88,2.8s1.85-.57,1.85-2.8-.42-2.83-1.85-2.83S811.08,6.69,811.08,9Z"/>
        <path d="M824.54,2c-.94,0-1.24.32-1.24,1.21v1h2.57V6.16H823.3v7.45h-2.82V6.16h-1.63V4.39l1.63-.1V2.87c0-1.74.81-2.87,3.06-2.87a22,22,0,0,1,3,.19L826.3,2Z"/>
        <path d="M839.8,7.45v6.16h-2.21l-.29-1.42a4.45,4.45,0,0,1-3.44,1.65c-1.74,0-3-.95-3-2.69v-.94c0-1.49,1.08-2.36,2.85-2.36H837V7.43c0-.94-.34-1.21-1.53-1.21-.89,0-2.44.06-3.93.15l-.27-1.89A34.05,34.05,0,0,1,836.13,4C838.53,4,839.8,4.82,839.8,7.45Zm-6.22,3.33c0,.66.34,1,1.09,1a4.09,4.09,0,0,0,2.33-.91V9.53h-2.51c-.68,0-.91.36-.91.89Z"/>
        <path d="M858.38,12.88a1,1,0,0,1-1,.73h-2.2a1,1,0,0,1-1-.85l-1-5.27c-.07-.53-.11-1-.2-1.57h-.23l-.23,1.57-.92,5.27a1,1,0,0,1-1,.85h-2.16a1,1,0,0,1-1-.73l-2.29-8.59h2.82l1.26,6.05a13.46,13.46,0,0,1,.23,1.53h.24c.08-.51.18-1,.25-1.53l1-5.22a.92.92,0,0,1,1-.83h2a1,1,0,0,1,1,.85l.93,5.2c.07.51.19,1,.26,1.53h.23c.07-.51.11-1,.22-1.53l1.29-6h2.82Z"/>
        <path d="M871.31,9c0,3.58-1.31,4.9-4.78,4.9s-4.81-1.32-4.81-4.9S863,4,866.53,4,871.31,5.37,871.31,9Zm-6.66,0c0,2.23.4,2.8,1.88,2.8s1.85-.57,1.85-2.8-.42-2.83-1.85-2.83S864.65,6.69,864.65,9Z"/>
        <path d="M879.63,6.62h-.76a8.86,8.86,0,0,0-2.86.64v6.35h-2.79V4.29h2.17l.25,1.38A6,6,0,0,1,879.42,4h.49Z"/>
        <path d="M884.14,10.57c0,.64.36.94,1.06.94H886l.32,2a6.4,6.4,0,0,1-2.23.38,2.42,2.42,0,0,1-2.69-2.57V.38h2.78Z"/>
        <path d="M896.45,13.61h-2.21L894,12.23a4.61,4.61,0,0,1-3.57,1.61c-2.39,0-3.31-1.8-3.31-5,0-3.73,1.23-4.84,3.57-4.84a5.27,5.27,0,0,1,3,.83c0-.62-.09-1.27-.09-1.95V.38h2.8Zm-4.88-2.08a3.39,3.39,0,0,0,2.08-.75V6.47a6.68,6.68,0,0,0-2-.36c-1.2,0-1.65.39-1.65,2.74S890.47,11.53,891.57,11.53Z"/>
        <path d="M911.74,9c0,3.7-1.21,4.82-3.55,4.82a5.23,5.23,0,0,1-3.12-.91,18.93,18.93,0,0,1,0,2V17.2h-2.78V4.29h2.27l.21,1.36a5.12,5.12,0,0,1,3.71-1.6C910.83,4.05,911.74,5.88,911.74,9Zm-2.87,0c0-2.25-.42-2.8-1.46-2.8a4,4,0,0,0-2.29.89V11.4a7.93,7.93,0,0,0,2.12.38C908.43,11.78,908.87,11.36,908.87,9Z"/>
        <path d="M920.1,6.62h-.76a8.86,8.86,0,0,0-2.86.64v6.35h-2.79V4.29h2.17l.25,1.38A6,6,0,0,1,919.89,4h.49Z"/>
        <path d="M930.09,11.4l.27,1.74a10.23,10.23,0,0,1-4.07.7c-3.53,0-4.85-1.44-4.85-4.88,0-3.68,1.36-4.93,4.74-4.93,3.18,0,4.41,1.11,4.42,3.25,0,1.7-.81,2.61-2.83,2.61H924.4c.19,1.42.8,1.72,2.22,1.72C927.47,11.61,928.83,11.53,930.09,11.4Zm-5.74-3.19H927c.76,0,.87-.44.87-1,0-.87-.38-1.17-1.59-1.17C924.88,6.05,924.42,6.45,924.35,8.21Z"/>
        <path d="M946.84,6.62v7h-2.78V7.49c0-.8-.22-1.1-1-1.1a3.84,3.84,0,0,0-2.08.83v6.39h-2.68V7.49c0-.83-.31-1.1-1-1.1a3.78,3.78,0,0,0-2.06.81v6.41h-2.77V4.29h2.23l.19,1.36A5.16,5.16,0,0,1,938.45,4a2.26,2.26,0,0,1,2.4,1.51A4.84,4.84,0,0,1,944.25,4,2.32,2.32,0,0,1,946.84,6.62Z"/>
        <path d="M951.23.17A.72.72,0,0,1,952,1V2a.72.72,0,0,1-.81.82H950a.72.72,0,0,1-.81-.82V1A.72.72,0,0,1,950,.17Zm-2,13.44V4.29H952v9.32Z"/>
        <path d="M962.59,11.4l.26,1.74a10.18,10.18,0,0,1-4.06.7c-3.54,0-4.86-1.44-4.86-4.88,0-3.68,1.36-4.93,4.74-4.93,3.18,0,4.41,1.11,4.43,3.25,0,1.7-.82,2.61-2.84,2.61H956.9c.19,1.42.79,1.72,2.21,1.72C960,11.61,961.32,11.53,962.59,11.4Zm-5.75-3.19h2.65c.75,0,.87-.44.87-1,0-.87-.38-1.17-1.59-1.17C957.37,6.05,956.92,6.45,956.84,8.21Z"/>
        <path d="M971.21,6.62h-.76a8.76,8.76,0,0,0-2.85.64v6.35h-2.8V4.29H967l.25,1.38A6.06,6.06,0,0,1,971,4h.49Z"/>
        <path d="M981,11.4l.26,1.74a10.18,10.18,0,0,1-4.06.7c-3.53,0-4.86-1.44-4.86-4.88,0-3.68,1.36-4.93,4.75-4.93,3.17,0,4.4,1.11,4.42,3.25,0,1.7-.81,2.61-2.84,2.61h-3.36c.19,1.42.79,1.72,2.21,1.72C978.35,11.61,979.71,11.53,981,11.4Zm-5.75-3.19h2.65c.76,0,.87-.44.87-1,0-.87-.38-1.17-1.59-1.17C975.76,6.05,975.31,6.45,975.23,8.21Z"/>
        <path d="M994.5,4.39l-.19,1.79c-1.2,0-2.42,0-3.6,0-1.45,0-1.79,0-1.79.63s.34.58,1.23.83l2.38.64c1.59.46,2.31,1.1,2.31,2.73,0,2.3-1.27,2.85-4.28,2.85a26,26,0,0,1-4.17-.32l.17-1.82c.68,0,2,0,3.23,0,1.91,0,2.34-.09,2.34-.7s-.4-.6-1.32-.87l-2.33-.62c-1.77-.51-2.27-1.36-2.27-2.84,0-1.94,1.06-2.66,4-2.66A30.53,30.53,0,0,1,994.5,4.39Z"/>
        <path d="M1006.06,9c0,3.7-1.21,4.82-3.55,4.82a5.23,5.23,0,0,1-3.12-.91,16.56,16.56,0,0,1,.06,2V17.2h-2.78V4.29h2.27l.2,1.36a5.12,5.12,0,0,1,3.71-1.6C1005.16,4.05,1006.06,5.88,1006.06,9Zm-2.87,0c0-2.25-.42-2.8-1.46-2.8a3.94,3.94,0,0,0-2.28.89V11.4a7.79,7.79,0,0,0,2.11.38C1002.76,11.78,1003.19,11.36,1003.19,9Z"/>
        <path d="M1017.2,9c0,3.58-1.31,4.9-4.79,4.9s-4.8-1.32-4.8-4.9,1.31-4.93,4.8-4.93S1017.2,5.37,1017.2,9Zm-6.66,0c0,2.23.4,2.8,1.87,2.8s1.86-.57,1.86-2.8-.42-2.83-1.86-2.83S1010.54,6.69,1010.54,9Z"/>
        <path d="M1025.53,6.62h-.75a8.81,8.81,0,0,0-2.86.64v6.35h-2.8V4.29h2.18l.24,1.38A6.06,6.06,0,0,1,1025.32,4h.5Z"/>
        <path d="M1030.86,10.57c0,.7.27.94,1,.94h1.19l.31,2a9.78,9.78,0,0,1-2.63.38,2.45,2.45,0,0,1-2.67-2.69v-5h-1.64V4.39l1.64-.1V1.68h2.78V4.29h2.59V6.16h-2.59Z"/>
        <path d="M1050.94,12.88a1,1,0,0,1-1,.73h-2.19a1,1,0,0,1-1-.85l-1-5.27c-.07-.53-.11-1-.2-1.57h-.23l-.23,1.57-.92,5.27a1,1,0,0,1-1,.85h-2.16a1,1,0,0,1-1-.73l-2.28-8.59h2.81l1.27,6.05a13.46,13.46,0,0,1,.23,1.53h.24c.08-.51.17-1,.25-1.53l.94-5.22a.94.94,0,0,1,1-.83h2a1,1,0,0,1,1,.85l.92,5.2c.08.51.19,1,.27,1.53h.23c.07-.51.11-1,.22-1.53l1.29-6h2.82Z"/>
        <path d="M1056.76.17a.72.72,0,0,1,.81.81V2a.72.72,0,0,1-.81.82h-1.25a.72.72,0,0,1-.81-.82V1a.72.72,0,0,1,.81-.81Zm-2,13.44V4.29h2.78v9.32Z"/>
        <path d="M1063.53,10.57c0,.7.26.94,1,.94h1.19l.3,2a9.78,9.78,0,0,1-2.63.38,2.44,2.44,0,0,1-2.66-2.69v-5h-1.65V4.39l1.65-.1V1.68h2.78V4.29h2.59V6.16h-2.59Z"/>
        <path d="M1076.74,6.62v7H1074V7.49c0-.85-.23-1.1-.91-1.1a5.65,5.65,0,0,0-2.59.85v6.37h-2.8V.38h2.8l0,3.23a11.33,11.33,0,0,1-.17,1.95A6.3,6.3,0,0,1,1074.13,4,2.33,2.33,0,0,1,1076.74,6.62Z"/>
        <path d="M1093.35,7.09c0,5.24-1.47,6.77-5.59,6.77s-5.58-1.53-5.58-6.77,1.46-6.77,5.58-6.77S1093.35,1.85,1093.35,7.09Zm-8.14,0c0,3.46.58,4.44,2.55,4.44s2.55-1,2.55-4.44-.58-4.44-2.55-4.44S1085.21,3.63,1085.21,7.09Z"/>
        <path d="M1098.25,10.57c0,.64.36.94,1.06.94h.75l.33,2a6.46,6.46,0,0,1-2.24.38,2.42,2.42,0,0,1-2.68-2.57V.38h2.78Z"/>
        <path d="M1107.64,13.75c-.62,1.81-2.08,4-5.14,3.66l-.23-1.64a3.63,3.63,0,0,0,2.78-2.08l0-.08h-.53a.94.94,0,0,1-.91-.68l-3-8.64h3l1.74,6c.11.46.21.93.28,1.4h.25c.15-.47.28-1,.38-1.4l1.72-6h3Z"/>
        <path d="M1126.68,6.62v7h-2.78V7.49c0-.8-.23-1.1-1-1.1a3.81,3.81,0,0,0-2.08.83v6.39h-2.69V7.49c0-.83-.3-1.1-1-1.1a3.78,3.78,0,0,0-2.06.81v6.41h-2.78V4.29h2.23l.19,1.36A5.16,5.16,0,0,1,1118.29,4a2.26,2.26,0,0,1,2.4,1.51,4.8,4.8,0,0,1,3.4-1.51A2.32,2.32,0,0,1,1126.68,6.62Z"/>
        <path d="M1138.38,9c0,3.7-1.21,4.82-3.55,4.82a5.23,5.23,0,0,1-3.12-.91,18.93,18.93,0,0,1,0,2V17.2H1129V4.29h2.27l.21,1.36a5.12,5.12,0,0,1,3.71-1.6C1137.47,4.05,1138.38,5.88,1138.38,9Zm-2.87,0c0-2.25-.42-2.8-1.46-2.8a4,4,0,0,0-2.29.89V11.4a7.93,7.93,0,0,0,2.12.38C1135.07,11.78,1135.51,11.36,1135.51,9Z"/>
        <path d="M1142.4.17a.72.72,0,0,1,.82.81V2a.72.72,0,0,1-.82.82h-1.24a.72.72,0,0,1-.82-.82V1a.72.72,0,0,1,.82-.81Zm-2,13.44V4.29h2.78v9.32Z"/>
        <path d="M1153.29,4.61l-.3,1.74c-1,0-2,0-2.66,0-1.69,0-2.25.57-2.25,2.63s.56,2.63,2.25,2.63a22.27,22.27,0,0,0,2.85-.17l.25,1.81a9.49,9.49,0,0,1-3.62.63c-3.42,0-4.66-1.3-4.66-4.9s1.26-4.91,4.7-4.91A9.39,9.39,0,0,1,1153.29,4.61Z"/>
        <path d="M1168.62,9c0,3.7-1.21,4.82-3.55,4.82A5.25,5.25,0,0,1,1162,13a16.56,16.56,0,0,1,.06,2V17.2h-2.78V4.29h2.27l.2,1.36a5.12,5.12,0,0,1,3.71-1.6C1167.72,4.05,1168.62,5.88,1168.62,9Zm-2.87,0c0-2.25-.42-2.8-1.46-2.8a3.94,3.94,0,0,0-2.28.89V11.4a7.79,7.79,0,0,0,2.11.38C1165.32,11.78,1165.75,11.36,1165.75,9Z"/>
        <path d="M1179.76,9c0,3.58-1.31,4.9-4.78,4.9s-4.81-1.32-4.81-4.9S1171.48,4,1175,4,1179.76,5.37,1179.76,9Zm-6.66,0c0,2.23.4,2.8,1.88,2.8s1.85-.57,1.85-2.8-.42-2.83-1.85-2.83S1173.1,6.69,1173.1,9Z"/>
        <path d="M1185.31,10.57c0,.7.27.94,1,.94h1.2l.3,2a9.78,9.78,0,0,1-2.63.38,2.45,2.45,0,0,1-2.67-2.69v-5h-1.64V4.39l1.64-.1V1.68h2.78V4.29h2.59V6.16h-2.59Z"/>
        <path d="M1197.71,11.4l.27,1.74a10.23,10.23,0,0,1-4.07.7c-3.53,0-4.85-1.44-4.85-4.88,0-3.68,1.36-4.93,4.74-4.93,3.18,0,4.41,1.11,4.43,3.25,0,1.7-.82,2.61-2.84,2.61H1192c.19,1.42.8,1.72,2.22,1.72C1195.09,11.61,1196.45,11.53,1197.71,11.4ZM1192,8.21h2.64c.76,0,.87-.44.87-1,0-.87-.38-1.17-1.58-1.17C1192.5,6.05,1192,6.45,1192,8.21Z"/>
        <path d="M1209.15,6.62v7h-2.78V7.49c0-.85-.22-1.1-.91-1.1a5.7,5.7,0,0,0-2.6.85v6.37h-2.79V4.29h2.27l.2,1.38a6.37,6.37,0,0,1,4-1.64A2.33,2.33,0,0,1,1209.15,6.62Z"/>
        <path d="M1215,10.57c0,.7.26.94,1,.94h1.19l.3,2a9.71,9.71,0,0,1-2.62.38,2.44,2.44,0,0,1-2.67-2.69v-5h-1.65V4.39l1.65-.1V1.68H1215V4.29h2.59V6.16H1215Z"/>
        <path d="M1221.06.17a.72.72,0,0,1,.81.81V2a.72.72,0,0,1-.81.82h-1.25A.72.72,0,0,1,1219,2V1a.72.72,0,0,1,.81-.81Zm-2,13.44V4.29h2.78v9.32Z"/>
        <path d="M1232.67,7.45v6.16h-2.22l-.28-1.42a4.47,4.47,0,0,1-3.44,1.65c-1.74,0-3-.95-3-2.69v-.94c0-1.49,1.07-2.36,2.85-2.36h3.33V7.43c0-.94-.34-1.21-1.53-1.21-.89,0-2.44.06-3.94.15l-.26-1.89A33.92,33.92,0,0,1,1229,4C1231.4,4,1232.67,4.82,1232.67,7.45Zm-6.23,3.33c0,.66.35,1,1.1,1a4.14,4.14,0,0,0,2.33-.91V9.53h-2.52c-.68,0-.91.36-.91.89Z"/>
        <path d="M1237.67,10.57c0,.64.36.94,1.06.94h.76l.32,2a6.4,6.4,0,0,1-2.23.38,2.42,2.42,0,0,1-2.69-2.57V.38h2.78Z"/>
        <path d="M1242.61,10.76c.73,0,1,.22,1,1v.91c0,.74-.25,1-1,1h-.76c-.74,0-1-.24-1-1v-.91c0-.74.24-1,1-1Z"/>
      </g>
      <g>
        <path d="M772.5,23.38l-.19,2c-1.09,0-2.7-.06-4.08-.06s-1.89.08-1.89,1.19c0,.91.38,1.16,1.36,1.48l2.48.85a3.58,3.58,0,0,1,2.76,3.84c0,3-1.29,3.76-4.84,3.76a21.77,21.77,0,0,1-4.49-.49l.18-2.08c2.42,0,3.47.09,4.31.09,1.51,0,1.92-.21,1.92-1.26s-.36-1.16-1.22-1.44l-2.63-.93a3.58,3.58,0,0,1-2.71-3.82c0-3,1.38-3.61,4.75-3.61A16.12,16.12,0,0,1,772.5,23.38Z"/>
        <path d="M777.62,32.74l-.94,3.42h-2.95l3.76-12.29a1,1,0,0,1,1-.75h2.72a1,1,0,0,1,1,.75L786,36.16h-2.93l-.95-3.42Zm2.76-6.22c-.09-.4-.21-.83-.26-1.23h-.51l-.29,1.23-1.09,4h3.25Z"/>
        <path d="M790.08,32.85c0,.68.28,1,1,1h4.48l.13,2.19a52.44,52.44,0,0,1-5.52.21c-2.1,0-3-1.17-3-2.78V23.12h2.88Z"/>
        <path d="M806.11,36c-1.78.19-4,.19-6.05.19a2.58,2.58,0,0,1-2.87-2.63v-7.9a2.58,2.58,0,0,1,2.87-2.63c2,0,4.27,0,6.05.19L806,25.39h-5c-.63,0-.89.28-.89,1v2h5.2v2.09h-5.2v2.51c0,.7.26,1,.89,1h5Z"/>
      </g>
    </g>
  </g>
</svg>
