<?xml version="1.0" encoding="utf-8"?>
<!-- Generator: Adobe Illustrator 19.0.0, SVG Export Plug-In . SVG Version: 6.00 Build 0)  -->
<svg version="1.0" id="Capa_1" xmlns="http://www.w3.org/2000/svg" xmlns:xlink="http://www.w3.org/1999/xlink" x="0px" y="0px"
	 width="41.8px" height="24.1px" viewBox="0 0 41.8 24.1" enable-background="new 0 0 41.8 24.1" xml:space="preserve">
<g>
	<linearGradient id="SVGID_1_" gradientUnits="userSpaceOnUse" x1="20.88" y1="-24.12" x2="20.88" y2="24.12">
		<stop  offset="0" style="stop-color:#000000"/>
		<stop  offset="0.25" style="stop-color:#000000"/>
		<stop  offset="0.5" style="stop-color:#454545"/>
		<stop  offset="0.75" style="stop-color:#000000"/>
		<stop  offset="1" style="stop-color:#000000"/>
	</linearGradient>
	<path fill-rule="evenodd" clip-rule="evenodd" fill="url(#SVGID_1_)" d="M0,4c0-2.2,1.8-4,4-4h33.7c2.2,0,4,1.8,4,4v16.1
		c0,2.2-1.8,4-4,4H4c-2.2,0-4-1.8-4-4V4z"/>
	<g>
		<g>
			<path fill="#FFFFFF" d="M11.7,19.3c0,0.3-0.1,0.6-0.3,0.8c-0.2,0.2-0.5,0.3-0.8,0.3H6.8c-0.3,0-0.6-0.1-0.8-0.3
				c-0.2-0.2-0.3-0.5-0.3-0.8v-3.9H7v3.8h3.3v-3.7l-4.2-5.1C5.8,10,5.7,9.7,5.7,9.2V6.1c0-0.3,0.1-0.6,0.3-0.8S6.5,5,6.8,5h3.9
				c0.3,0,0.6,0.1,0.8,0.3s0.3,0.5,0.3,0.8v3.6h-1.4V6.2H7v3.2l4.2,5.1c0.3,0.3,0.4,0.7,0.4,1.1V19.3z"/>
			<path fill="#FFFFFF" d="M19.1,20.4h-5V5h5v1.2h-3.6V12h3.3v1.2h-3.3v6h3.7V20.4z"/>
			<path fill="#FFFFFF" d="M27.6,20.4h-0.9L22.6,9.1v11.3h-1.3V5h1l4,11.1V5h1.3V20.4z"/>
			<path fill="#FFFFFF" d="M36.4,17.6c0,0.8-0.3,1.5-0.8,2c-0.5,0.5-1.2,0.8-2,0.8h-3.5V5h3.5c0.8,0,1.5,0.3,2,0.8s0.8,1.2,0.8,2
				V17.6z M35,17.4V7.9c0-0.5-0.2-0.9-0.5-1.2s-0.7-0.5-1.2-0.5h-1.9v12.9h1.8c0.5,0,1-0.2,1.3-0.5C34.8,18.4,35,18,35,17.4z"/>
		</g>
	</g>
</g>
</svg>
