<?xml version="1.0" encoding="utf-8"?>
<!-- Generator: Adobe Illustrator 25.4.1, SVG Export Plug-In . SVG Version: 6.00 Build 0)  -->
<svg version="1.1" id="Capa_2_00000085957912991905056880000004458730388077011595_"
	 xmlns="http://www.w3.org/2000/svg" xmlns:xlink="http://www.w3.org/1999/xlink" x="0px" y="0px" width="703.7px" height="73.21px"
	 viewBox="0 0 703.7 73.21" style="enable-background:new 0 0 703.7 73.21;" xml:space="preserve">
<g id="Capa_1-2">
	<g>
		<path d="M31.78,36.22c-1.37-1.73-2.9-3.4-4.54-4.96l-8.04-7.72c-1.44-1.37-2.41-2.57-2.87-3.56c-0.45-0.97-0.68-1.88-0.68-2.68
			c0-0.7,0.17-1.25,0.5-1.65c0.11-0.13,0.42-0.51,1.54-0.51c0.61,0,1.07,0.15,1.39,0.46c0.31,0.3,0.46,0.76,0.46,1.39v5.94h16.48
			v-1.16c0-7.17-1.43-12.63-4.26-16.22C28.86,1.87,23.98,0,17.26,0C11.72,0,7.4,1.7,4.42,5.06C1.49,8.37,0,13.2,0,19.4
			s2.48,11.34,7.36,15.95l6.25,5.94c1.8,1.7,3.22,3.2,4.22,4.45c0.94,1.18,1.61,2.43,1.99,3.72c0.39,1.33,0.59,3.02,0.59,5.04
			c0,1.8-0.29,2.63-0.54,3c-0.1,0.15-0.39,0.59-1.67,0.59c-1,0-1.34-0.4-1.53-0.75c-0.39-0.74-0.59-1.82-0.59-3.23v-9.86H0v7.96
			c0,7.17,1.52,12.51,4.5,15.88c3.02,3.41,7.94,5.14,14.61,5.14s10.94-2.05,13.57-6.08c2.53-3.88,3.81-9.26,3.81-16
			c0-3.36-0.44-6.27-1.3-8.64c-0.85-2.36-2.01-4.46-3.42-6.26L31.78,36.22z"/>
		<polygon points="54.61,43.06 67.74,43.06 67.74,27.65 54.61,27.65 54.61,16.4 68.29,16.4 68.29,0.63 38.13,0.63 38.13,72.58 
			69.2,72.58 69.2,56.69 54.61,56.69 		"/>
		<polygon points="91.75,22.98 87.46,0.63 71.02,0.63 71.02,72.58 86.95,72.58 86.95,48.29 91.8,72.58 107.52,72.58 107.52,0.63 
			91.75,0.63 		"/>
		<path d="M131.03,0.63h-20.31v71.94h19.83c6.17,0,10.58-1.99,13.1-5.91c2.42-3.76,3.64-9.11,3.64-15.9V18.17
			c0-5.63-1.38-9.99-4.1-12.98c-2.75-3.02-6.84-4.55-12.17-4.55L131.03,0.63z M127.04,15.13h0.39c2.11,0,2.75,0.45,2.93,0.64
			c0.15,0.16,0.62,0.9,0.62,3.71V55.4c0,1.84-0.75,2.56-2.68,2.56h-1.26V15.13z"/>
		<path d="M187.92,52.23c0,1.12-0.06,2.21-0.17,3.24c-0.1,0.88-0.33,1.58-0.68,2.09c-0.16,0.22-0.47,0.52-1.39,0.52
			s-1.18-0.3-1.34-0.53c-0.36-0.53-0.6-1.24-0.71-2.11c-0.12-1.01-0.19-2.09-0.19-3.2V0.63H167.6v52.15
			c0,6.58,1.48,11.67,4.39,15.13c2.96,3.52,7.57,5.3,13.7,5.3s10.74-1.78,13.7-5.3c2.91-3.46,4.39-8.54,4.39-15.13V0.63h-15.84v51.6
			H187.92z"/>
		<path d="M236.6,36.22c-1.37-1.73-2.9-3.4-4.54-4.96l-8.04-7.72c-1.44-1.37-2.41-2.57-2.87-3.56c-0.45-0.97-0.68-1.88-0.68-2.68
			c0-0.7,0.17-1.25,0.5-1.65c0.11-0.13,0.42-0.51,1.54-0.51c0.61,0,1.07,0.15,1.39,0.46c0.31,0.3,0.46,0.76,0.46,1.39v5.94h16.48
			v-1.16c0-7.17-1.43-12.63-4.26-16.22c-2.9-3.68-7.77-5.54-14.5-5.54c-5.54,0-9.86,1.7-12.83,5.06c-2.94,3.31-4.42,8.14-4.42,14.34
			s2.48,11.34,7.36,15.95l6.25,5.94c1.8,1.7,3.22,3.2,4.22,4.45c0.94,1.18,1.61,2.43,1.99,3.72c0.39,1.33,0.59,3.02,0.59,5.04
			c0,1.8-0.29,2.63-0.54,3c-0.1,0.15-0.39,0.59-1.67,0.59c-1,0-1.34-0.4-1.53-0.75c-0.39-0.74-0.59-1.82-0.59-3.23v-9.86h-16.08
			v7.96c0,7.17,1.52,12.51,4.5,15.88c3.02,3.41,7.94,5.14,14.61,5.14s10.94-2.05,13.57-6.08c2.53-3.88,3.81-9.26,3.81-16
			c0-3.36-0.44-6.27-1.3-8.64c-0.85-2.36-2.01-4.46-3.42-6.26L236.6,36.22z"/>
		<polygon points="280.47,0.63 277.58,18.23 274.69,0.63 258.43,0.63 269.86,48.65 269.86,72.58 285.3,72.58 285.3,48.65 
			296.69,0.63 		"/>
		<path d="M314.69,0c-5.92,0-10.51,1.68-13.64,4.99c-3.11,3.29-4.69,8.13-4.69,14.36v33.07c0,6.62,1.58,11.78,4.7,15.34
			c3.16,3.61,7.74,5.44,13.63,5.44s10.47-1.83,13.63-5.44c3.12-3.56,4.7-8.73,4.7-15.34V19.36c0-6.24-1.58-11.07-4.69-14.36
			c-3.13-3.31-7.72-4.99-13.64-4.99V0z M314.81,58.08c-1.01,0-1.39-0.44-1.6-0.82c-0.29-0.52-0.64-1.65-0.64-4.08V19.24
			c0-4.1,1.63-4.1,2.33-4.1c0.53,0,1.93,0,1.93,3.99v33.98c0,3.3-0.68,4.97-2.01,4.97H314.81z"/>
		<path d="M355.15,52.23c0,1.12-0.06,2.21-0.17,3.24c-0.1,0.88-0.33,1.58-0.68,2.09c-0.16,0.22-0.47,0.52-1.39,0.52
			s-1.18-0.3-1.34-0.53c-0.36-0.53-0.6-1.24-0.71-2.11c-0.12-1.01-0.19-2.09-0.19-3.2V0.63h-15.84v52.15
			c0,6.58,1.48,11.67,4.39,15.13c2.96,3.52,7.57,5.3,13.7,5.3s10.74-1.78,13.7-5.3c2.91-3.46,4.39-8.54,4.39-15.13V0.63h-15.84v51.6
			H355.15z"/>
		<path d="M408.29,30.85c1.02-2.4,1.54-5.62,1.54-9.55s-0.32-7.52-0.96-10.51c-0.67-3.15-2.02-5.65-4.02-7.43
			c-2.03-1.81-5-2.73-8.84-2.73h-22.52v71.94h16.4V40.84c1.26,0.09,1.92,0.33,2.27,0.53c0.33,0.19,0.67,1.02,0.67,2.78v28.42h16.04
			V45.06c0-2.91-0.49-5.35-1.45-7.23c-0.62-1.21-1.51-2.16-2.66-2.85c1.61-1.02,2.79-2.4,3.53-4.15L408.29,30.85z M389.96,15.85
			h2.09c0.9,0,1.18,0.32,1.34,0.63c0.19,0.38,0.51,1.52,0.51,4.82c0,1.92-0.22,5.13-1.73,5.13h-2.21V15.85z"/>
		<polygon points="457.85,35.74 453,0.63 429.63,0.63 429.63,72.58 444.53,72.58 444.53,35.07 450.86,72.58 465.33,72.58 
			471.17,35.88 471.17,72.58 486.23,72.58 486.23,0.63 462.66,0.63 		"/>
		<polygon points="505.5,43.06 518.64,43.06 518.64,27.65 505.5,27.65 505.5,16.4 519.19,16.4 519.19,0.63 489.02,0.63 
			489.02,72.58 520.1,72.58 520.1,56.69 505.5,56.69 		"/>
		<path d="M552.27,36.22c-1.37-1.73-2.9-3.4-4.54-4.96l-8.04-7.72c-1.44-1.37-2.41-2.57-2.87-3.56c-0.45-0.97-0.68-1.88-0.68-2.68
			c0-0.7,0.17-1.25,0.5-1.65c0.11-0.13,0.42-0.51,1.54-0.51c0.61,0,1.07,0.15,1.39,0.46c0.31,0.3,0.46,0.76,0.46,1.39v5.94h16.48
			v-1.16c0-7.17-1.43-12.63-4.26-16.22c-2.9-3.68-7.77-5.54-14.5-5.54c-5.54,0-9.86,1.7-12.83,5.06c-2.94,3.31-4.42,8.14-4.42,14.34
			s2.48,11.34,7.36,15.95l6.25,5.94c1.8,1.7,3.22,3.2,4.22,4.45c0.94,1.18,1.61,2.43,1.99,3.72c0.39,1.33,0.59,3.02,0.59,5.04
			c0,1.8-0.29,2.63-0.54,3c-0.1,0.15-0.39,0.59-1.67,0.59c-1,0-1.34-0.4-1.53-0.75c-0.39-0.74-0.59-1.82-0.59-3.23v-9.86H520.5v7.96
			c0,7.17,1.52,12.51,4.5,15.88c3.02,3.41,7.94,5.14,14.61,5.14s10.94-2.05,13.57-6.08c2.53-3.88,3.81-9.26,3.81-16
			c0-3.36-0.44-6.27-1.3-8.64c-0.85-2.36-2.01-4.46-3.42-6.26V36.22z"/>
		<path d="M592.4,42.48c-0.85-2.36-2.01-4.46-3.42-6.26c-1.37-1.73-2.9-3.4-4.54-4.96l-8.04-7.72c-1.44-1.37-2.41-2.57-2.87-3.56
			c-0.45-0.97-0.68-1.88-0.68-2.68c0-0.7,0.17-1.25,0.5-1.65c0.11-0.13,0.42-0.51,1.54-0.51c0.61,0,1.07,0.15,1.39,0.46
			c0.31,0.3,0.46,0.76,0.46,1.39v5.94h16.48v-1.16c0-7.17-1.43-12.63-4.26-16.22c-2.9-3.68-7.77-5.54-14.5-5.54
			c-5.54,0-9.86,1.7-12.83,5.06c-2.94,3.31-4.42,8.14-4.42,14.34s2.48,11.34,7.36,15.95l6.25,5.94c1.8,1.7,3.22,3.2,4.22,4.45
			c0.94,1.18,1.61,2.43,1.99,3.72c0.39,1.33,0.59,3.02,0.59,5.04c0,1.8-0.29,2.63-0.54,3c-0.1,0.15-0.39,0.59-1.67,0.59
			c-1,0-1.34-0.4-1.53-0.75c-0.39-0.74-0.59-1.82-0.59-3.23v-9.86h-16.08v7.96c0,7.17,1.52,12.51,4.5,15.88
			c3.02,3.41,7.94,5.14,14.61,5.14s10.94-2.05,13.57-6.08c2.53-3.88,3.81-9.26,3.81-16c0-3.36-0.44-6.27-1.3-8.64V42.48z"/>
		<path d="M600.26,0.63l-6.95,71.94h15.88l0.87-11.24h6.25l0.99,11.24h15.51l-6.83-71.94C625.98,0.63,600.26,0.63,600.26,0.63z
			 M615.04,47.91h-3.82L613,24.16L615.04,47.91z"/>
		<path d="M663.17,3.06C660.47,1.03,656.6,0,651.67,0c-12.11,0-18.25,6.95-18.25,20.66v30.03c0,14.94,5.41,22.52,16.07,22.52
			c4.82,0,8.59-1.74,11.23-5.17l1.84,4.54h7.51V29.71h-19.33v14.34h3.72v8.77c0,1.76-0.22,3.18-0.64,4.21
			c-0.22,0.52-0.61,1.05-1.88,1.05c-1.2,0-1.58-0.53-1.8-1.05c-0.43-1.03-0.64-2.41-0.64-4.13V19.16c0-1.11,0.22-2.14,0.66-3.06
			c0.12-0.26,0.46-0.96,2.14-0.96c1.02,0,1.31,0.38,1.48,0.8c0.35,0.87,0.53,2,0.53,3.35v7.33h15.92v-1.16
			c0-5.27-0.49-9.81-1.46-13.51c-1.01-3.85-2.9-6.84-5.61-8.88L663.17,3.06z"/>
		<polygon points="689.1,56.69 689.1,43.06 702.24,43.06 702.24,27.65 689.1,27.65 689.1,16.4 702.79,16.4 702.79,0.63 672.62,0.63 
			672.62,72.58 703.7,72.58 703.7,56.69 		"/>
	</g>
</g>
</svg>
