<svg xmlns="http://www.w3.org/2000/svg" width="240.79" height="37.48" viewBox="0 0 240.79 37.48">
  <g>
    <rect width="240.79" height="37.48" rx="6.25" fill="#e3e300"/>
    <g>
      <path d="M46.88,11.83c-1.83,0-2.75.6-2.75,1.81a1.36,1.36,0,0,0,.68,1.23A17.7,17.7,0,0,0,48,16.11a8.93,8.93,0,0,1,3.52,1.83,4.3,4.3,0,0,1,1,3.13,5.07,5.07,0,0,1-1.63,4.09,6.44,6.44,0,0,1-4.29,1.38,24,24,0,0,1-4.81-.6l-.91-.18.35-2.7a41,41,0,0,0,5.17.46q2.67,0,2.67-2.22A1.45,1.45,0,0,0,48.45,20a8.74,8.74,0,0,0-2.45-1,10.15,10.15,0,0,1-4.12-2,4.2,4.2,0,0,1-1.2-3.19,4.63,4.63,0,0,1,1.56-3.83A6.64,6.64,0,0,1,46.53,8.8a28,28,0,0,1,4.73.51l.91.17-.28,2.75C49.53,12,47.85,11.83,46.88,11.83Z"/>
      <path d="M61.92,16.51h-3.1v5.17c0,.5,0,.86,0,1.07a.89.89,0,0,0,.28.54,1.06,1.06,0,0,0,.74.23l1.92-.05L62,26.16a12.31,12.31,0,0,1-2.57.38,3.84,3.84,0,0,1-3.1-1c-.56-.68-.83-1.93-.83-3.77V16.51H54V13.64h1.49v-3.5h3.37v3.5h3.1Z"/>
      <path d="M64,26.24V13.64h3.35V15a12.83,12.83,0,0,1,4-1.64v3.4c-1.36.29-2.53.58-3.5.88l-.5.18v8.44Z"/>
      <path d="M76.73,23.05a2.47,2.47,0,0,0,1.7.52c1.56,0,3-.05,4.18-.15l.71-.08.05,2.5a22.34,22.34,0,0,1-5.24.7A5.15,5.15,0,0,1,74,25q-1.27-1.52-1.28-4.91,0-6.78,5.57-6.78T83.77,19l-.25,2.35H76.11A2.16,2.16,0,0,0,76.73,23.05Zm3.71-4.24A3.55,3.55,0,0,0,80,16.7a2.65,2.65,0,0,0-3.37,0,3.48,3.48,0,0,0-.52,2.08Z"/>
      <path d="M95.77,17.57v5.24a2,2,0,0,0,.2.85.94.94,0,0,0,.63.34l-.1,2.54a10.16,10.16,0,0,1-2.06-.17,4.76,4.76,0,0,1-1.55-.71,8.34,8.34,0,0,1-3.7.88q-3.91,0-3.91-4.13a3.39,3.39,0,0,1,1.09-2.86,6.07,6.07,0,0,1,3.32-1l2.7-.2v-.78A1.34,1.34,0,0,0,92,16.5a1.83,1.83,0,0,0-1.14-.29l-4.74.2-.1-2.34a19.53,19.53,0,0,1,5.13-.73,5,5,0,0,1,3.5,1A4.21,4.21,0,0,1,95.77,17.57ZM90.1,20.9a1.37,1.37,0,0,0-1.42,1.51c0,.92.42,1.39,1.24,1.39A8.27,8.27,0,0,0,92,23.49l.38-.1V20.7Z"/>
      <path d="M102.29,26.24H98.92V13.64h3.35v.71a6.14,6.14,0,0,1,3-1,4.1,4.1,0,0,1,3.15,1.18,9.44,9.44,0,0,1,4.23-1.18,3.86,3.86,0,0,1,3.47,1.45,8.54,8.54,0,0,1,1,4.62v6.83h-3.38V19.51a6,6,0,0,0-.35-2.38,1.41,1.41,0,0,0-1.41-.77,7.19,7.19,0,0,0-2,.35l-.38.13c.07,1.26.11,2.22.11,2.87v6.53H106.3V19.76a7.34,7.34,0,0,0-.33-2.63,1.4,1.4,0,0,0-1.44-.77,5.72,5.72,0,0,0-1.94.35l-.3.1Z"/>
      <path d="M120,12V8.6h3.38V12Zm0,14.21V13.64h3.38v12.6Z"/>
      <path d="M129.78,26.24h-3.37V13.64h3.35v.71a6.22,6.22,0,0,1,3.15-1c1.68,0,2.84.49,3.48,1.48a8.66,8.66,0,0,1,1,4.59v6.83H134V19.51a5.7,5.7,0,0,0-.38-2.38,1.52,1.52,0,0,0-1.51-.77,5.83,5.83,0,0,0-2,.35l-.31.1Z"/>
      <path d="M151.68,27.81A3.49,3.49,0,0,1,150,31a8.47,8.47,0,0,1-4.5,1,10.12,10.12,0,0,1-4.36-.76,2.79,2.79,0,0,1-1.52-2.75,3.89,3.89,0,0,1,1.81-3,2.14,2.14,0,0,1-.93-1.91,3.72,3.72,0,0,1,.76-1.66l.22-.36A4.19,4.19,0,0,1,139.79,18a4.07,4.07,0,0,1,1.45-3.49,6.25,6.25,0,0,1,3.84-1.08,9.07,9.07,0,0,1,2.14.25l.41.08,4.05-.13v2.7l-1.89-.15a3.13,3.13,0,0,1,.56,1.71q0,2.52-1.29,3.48a6.86,6.86,0,0,1-4,1,4.55,4.55,0,0,1-1-.1,3.19,3.19,0,0,0-.26,1.07.57.57,0,0,0,.43.57,8.56,8.56,0,0,0,2,.18c2.12,0,3.56.3,4.33.84A3.39,3.39,0,0,1,151.68,27.81Zm-8.72.37c0,.72.89,1.08,2.66,1.08s2.66-.42,2.66-1.26a.84.84,0,0,0-.45-.87,6.79,6.79,0,0,0-1.92-.21l-2.27-.18A2.06,2.06,0,0,0,143,28.18Zm.2-10.32c0,1.24.65,1.85,1.93,1.85S147,19.1,147,17.86,146.38,16,145.09,16,143.16,16.63,143.16,17.86Z"/>
      <path d="M169.17,26.24h-9.75V9.1h3.48V23.17h6.27Z"/>
      <path d="M170.93,12V8.6h3.38V12Zm0,14.21V13.64h3.38v12.6Z"/>
      <path d="M176.18,13.64h3.52l2,9.73h.7l2.12-9.73H188l-3,12.6H179.2Z"/>
      <path d="M193.22,23.05a2.49,2.49,0,0,0,1.7.52c1.56,0,3-.05,4.19-.15l.7-.08.05,2.5a22.34,22.34,0,0,1-5.24.7A5.12,5.12,0,0,1,190.49,25q-1.29-1.52-1.29-4.91,0-6.78,5.57-6.78c3.66,0,5.5,1.9,5.5,5.69L200,21.38H192.6A2.2,2.2,0,0,0,193.22,23.05Zm3.72-4.24a3.46,3.46,0,0,0-.48-2.11,2.07,2.07,0,0,0-1.68-.59,2,2,0,0,0-1.68.62,3.48,3.48,0,0,0-.52,2.08Z"/>
    </g>
  </g>
</svg>
