<?xml version="1.0" encoding="utf-8"?>
<!-- Generator: Adobe Illustrator 27.1.1, SVG Export Plug-In . SVG Version: 6.00 Build 0)  -->
<svg version="1.1" id="Capa_1" xmlns="http://www.w3.org/2000/svg" xmlns:xlink="http://www.w3.org/1999/xlink" x="0px" y="0px"
	 viewBox="0 0 1279.1 183.2" style="enable-background:new 0 0 1279.1 183.2;" xml:space="preserve">
<g>
	<polygon points="98.3,80 91.6,1.6 53.9,1.6 46.8,81.3 39.9,1.6 0,1.6 19.3,181.3 66.9,181.3 72.6,123.3 78.7,181.3 125.6,181.3 
		145.2,1.6 104.9,1.6 	"/>
	<path d="M191.2,0c-14.8,0-26.3,4.2-34.1,12.5c-7.8,8.2-11.7,20.3-11.7,35.9v82.6c0,16.5,3.9,29.4,11.7,38.3
		c7.9,9,19.3,13.6,34,13.6c14.7,0,26.2-4.6,34-13.6c7.8-8.9,11.7-21.8,11.7-38.3V48.3c0-15.6-3.9-27.6-11.7-35.9
		C217.5,4.2,206,0,191.2,0z M191.5,145c-2.5,0-3.5-1.1-4-2c-0.7-1.3-1.6-4.1-1.6-10.2V48c0-10.3,4.1-10.3,5.8-10.3
		c1.3,0,4.8,0,4.8,10v84.9C196.5,140.9,194.8,145,191.5,145z"/>
	<path d="M330.5,77c2.5-6,3.8-14,3.8-23.9c0-10-0.8-18.8-2.4-26.2c-1.7-7.9-5.1-14.1-10-18.6c-5.1-4.5-12.5-6.8-22.1-6.8h-56.2
		v179.7h41V102c3.1,0.2,4.8,0.8,5.7,1.3c0.8,0.5,1.7,2.6,1.7,6.9v71h40.1v-68.7c0-7.3-1.2-13.4-3.6-18.1c-1.6-3-3.8-5.4-6.7-7.1
		C325.7,84.9,328.6,81.4,330.5,77z M284.7,39.6h5.2c2.3,0,3,0.8,3.3,1.6c0.5,1,1.3,3.8,1.3,12c0,4.8-0.6,12.8-4.3,12.8h-5.5V39.6z"
		/>
	<polygon points="378.8,1.6 338.2,1.6 338.2,181.3 414.6,181.3 414.6,145.8 378.8,145.8 	"/>
	<path d="M467.9,1.6h-50.7v179.7h49.5c15.4,0,26.4-5,32.7-14.8c6-9.4,9.1-22.7,9.1-39.7V45.4c0-14.1-3.4-25-10.2-32.4
		C491.4,5.4,481.2,1.6,467.9,1.6z M457.9,37.8h1c5.3,0,6.9,1.1,7.3,1.6c0.4,0.4,1.6,2.2,1.6,9.3v89.7c0,4.6-1.9,6.4-6.7,6.4h-3.1
		V37.8z"/>
	<path d="M634.7,8.6c-6.1-4.7-14.4-7-24.6-7h-48.8v179.7h40v-68.9h11.2c10.3,0,18.4-2.4,24.1-7.1c5.7-4.7,9.7-11.3,11.9-19.6
		c2.1-8,3.2-17.5,3.2-28.2c0-11.2-1.3-21-3.8-29.1C645.2,19.9,640.8,13.2,634.7,8.6z M601.2,39.1h1c5.3,0,6.7,2,7.3,3.6
		c1.3,3.2,1.9,8,1.9,14.2c0,6.6-0.7,11.7-2,14.9c-0.9,2.3-3.7,3.5-8.3,3.6V39.1z"/>
	<path d="M742,77c2.5-6,3.8-14,3.8-23.9c0-10-0.8-18.8-2.4-26.2c-1.7-7.9-5.1-14.1-10-18.6c-5.1-4.5-12.5-6.8-22.1-6.8h-56.2v179.7
		h41V102c3.1,0.2,4.8,0.8,5.7,1.3c0.8,0.5,1.7,2.6,1.7,6.9v71h40.1v-68.7c0-7.3-1.2-13.4-3.6-18.1c-1.6-3-3.8-5.4-6.7-7.1
		C737.2,84.9,740.2,81.4,742,77z M696.3,39.6h5.2c2.3,0,3,0.8,3.3,1.6c0.5,1,1.3,3.8,1.3,12c0,4.8-0.6,12.8-4.3,12.8h-5.5V39.6z"/>
	<polygon points="791,107.6 823.8,107.6 823.8,69.1 791,69.1 791,41 825.2,41 825.2,1.6 749.8,1.6 749.8,181.3 827.4,181.3 
		827.4,141.6 791,141.6 	"/>
	<polygon points="902,89.3 890,1.6 831.6,1.6 831.6,181.3 868.8,181.3 868.8,87.6 884.6,181.3 920.7,181.3 935.3,89.6 935.3,181.3 
		972.9,181.3 972.9,1.6 914.1,1.6 	"/>
	<rect x="978.3" y="1.6" width="39.4" height="179.7"/>
	<polygon points="1066.2,107.6 1099,107.6 1099,69.1 1066.2,69.1 1066.2,41 1100.4,41 1100.4,1.6 1025,1.6 1025,181.3 1102.6,181.3 
		1102.6,141.6 1066.2,141.6 	"/>
	<path d="M1193.7,77c2.5-6,3.8-14,3.8-23.9c0-10-0.8-18.8-2.4-26.2c-1.7-7.9-5.1-14.1-10-18.6c-5.1-4.5-12.5-6.8-22.1-6.8h-56.2
		v179.7h41V102c3.1,0.2,4.8,0.8,5.7,1.3c0.8,0.5,1.7,2.6,1.7,6.9v71h40.1v-68.7c0-7.3-1.2-13.4-3.6-18.1c-1.6-3-3.8-5.4-6.7-7.1
		C1188.9,84.9,1191.9,81.4,1193.7,77z M1147.9,39.6h5.2c2.3,0,3,0.8,3.3,1.6c0.5,1,1.3,3.8,1.3,12c0,4.8-0.6,12.8-4.3,12.8h-5.5
		V39.6z"/>
	<polygon points="1242.6,141.6 1242.6,107.6 1275.4,107.6 1275.4,69.1 1242.6,69.1 1242.6,41 1276.8,41 1276.8,1.6 1201.5,1.6 
		1201.5,181.3 1279.1,181.3 1279.1,141.6 	"/>
</g>
</svg>
