<svg xmlns="http://www.w3.org/2000/svg" width="240.79" height="37.48" viewBox="0 0 240.79 37.48">
  <g>
    <rect width="240.79" height="37.48" rx="6.25" fill="#e3e300"/>
    <g>
      <path d="M81.52,12.09V9H94.11v3.08H89.58V26.15H86.1V12.09Z"/>
      <path d="M96.08,11.94V8.51h3.38v3.43Zm0,14.21V13.55h3.38v12.6Z"/>
      <path d="M107.37,13.25a17.87,17.87,0,0,1,3.35.4l.68.15-.1,2.67c-1.33-.13-2.31-.2-3-.2a2.76,2.76,0,0,0-2.3.75,4.88,4.88,0,0,0-.57,2.81,5,5,0,0,0,.57,2.83,2.77,2.77,0,0,0,2.33.77l2.92-.2.1,2.69a22.61,22.61,0,0,1-4.11.53,4.79,4.79,0,0,1-4-1.57c-.81-1.05-1.22-2.74-1.22-5.05s.42-4,1.26-5A4.91,4.91,0,0,1,107.37,13.25Z"/>
      <path d="M117.35,26.15H114V8.51h3.38v10l1.28-.23,2.5-4.76h3.78l-3.28,6,3.45,6.63h-3.8l-2.55-4.91-1.38.22Z"/>
      <path d="M130.41,23a2.51,2.51,0,0,0,1.7.52c1.57,0,3-.05,4.19-.15l.7-.08.05,2.5a22.28,22.28,0,0,1-5.24.7,5.13,5.13,0,0,1-4.13-1.51c-.86-1-1.28-2.64-1.28-4.91q0-6.78,5.56-6.78t5.5,5.69l-.25,2.35H129.8A2.16,2.16,0,0,0,130.41,23Zm3.72-4.24a3.46,3.46,0,0,0-.48-2.11,2.64,2.64,0,0,0-3.36,0,3.48,3.48,0,0,0-.52,2.08Z"/>
      <path d="M146.93,16.42h-3.1v5.17c0,.5,0,.86,0,1.07a.89.89,0,0,0,.28.54,1,1,0,0,0,.74.23l1.92-.05.15,2.7a13,13,0,0,1-2.57.37,3.83,3.83,0,0,1-3.1-1c-.56-.68-.83-1.93-.83-3.76V16.42H139V13.55h1.49v-3.5h3.37v3.5h3.1Z"/>
      <path d="M158.25,16.7a39.63,39.63,0,0,0-4.38-.4,3.64,3.64,0,0,0-1.61.22.81.81,0,0,0-.36.72.67.67,0,0,0,.49.68,19.48,19.48,0,0,0,2.52.56,5.54,5.54,0,0,1,2.88,1.19,3.66,3.66,0,0,1,.86,2.7q0,4.08-5.07,4.08a22.23,22.23,0,0,1-4-.45l-.8-.15.1-2.82a39.56,39.56,0,0,0,4.34.4,3.94,3.94,0,0,0,1.67-.24.78.78,0,0,0,.44-.72.74.74,0,0,0-.47-.7,11.43,11.43,0,0,0-2.42-.56,6.28,6.28,0,0,1-2.91-1.11,3.42,3.42,0,0,1-1-2.78,3.57,3.57,0,0,1,1.36-3,5.71,5.71,0,0,1,3.51-1,23.58,23.58,0,0,1,4.06.48l.83.15Z"/>
    </g>
  </g>
</svg>
