<?xml version="1.0" encoding="utf-8"?>
<!-- Generator: Adobe Illustrator 25.4.1, SVG Export Plug-In . SVG Version: 6.00 Build 0)  -->
<svg version="1.1" id="Capa_2_00000069381674232979621240000002717540100289051021_"
	 xmlns="http://www.w3.org/2000/svg" xmlns:xlink="http://www.w3.org/1999/xlink" x="0px" y="0px" width="702.4px" height="61.93px"
	 viewBox="0 0 702.4 61.93" style="enable-background:new 0 0 702.4 61.93;" xml:space="preserve">
<g id="Capa_1-2">
	<g>
		<polygon points="23.87,30.24 19.77,0.54 0,0.54 0,61.4 12.6,61.4 12.6,29.67 17.96,61.4 30.2,61.4 35.14,30.35 35.14,61.4 
			47.88,61.4 47.88,0.54 27.94,0.54 		"/>
		<polygon points="64.25,36.43 75.36,36.43 75.36,23.39 64.25,23.39 64.25,13.87 75.83,13.87 75.83,0.54 50.31,0.54 50.31,61.4 
			76.6,61.4 76.6,47.96 64.25,47.96 		"/>
		<path d="M95.39,0.54H78.21V61.4h16.78c5.22,0,8.95-1.68,11.08-5c2.05-3.18,3.08-7.71,3.08-13.45V15.37
			c0-4.76-1.17-8.45-3.47-10.98c-2.33-2.56-5.79-3.85-10.3-3.85L95.39,0.54z M92.02,12.81h0.33c1.79,0,2.33,0.38,2.48,0.54
			c0.12,0.13,0.53,0.76,0.53,3.14v30.39c0,1.56-0.64,2.17-2.27,2.17h-1.06V12.8L92.02,12.81z"/>
		<rect x="110.92" y="0.54" width="13.34" height="60.86"/>
		<path d="M130.84,0.54l-5.88,60.86h13.43l0.74-9.5h5.29l0.84,9.5h13.12L152.6,0.54H130.84L130.84,0.54z M143.35,40.54h-3.23
			l1.5-20.09L143.35,40.54z"/>
		<path d="M178.89,0.54l-5.88,60.86h13.43l0.74-9.5h5.29l0.84,9.5h13.12l-5.78-60.86H178.89z M191.4,40.54h-3.23l1.5-20.09
			L191.4,40.54z"/>
		<path d="M224.22,45.66c0,1.16-0.17,2.09-0.52,2.77c-0.17,0.34-0.46,0.7-1.25,0.7c-0.58,0-0.97-0.18-1.26-0.6
			c-0.2-0.28-0.54-1.02-0.54-2.88V16.16c0-1.16,0.16-2.09,0.47-2.74c0.09-0.19,0.3-0.63,1.33-0.63c0.81,0,1.12,0.3,1.28,0.52
			c0.15,0.2,0.48,0.89,0.48,2.99v9.68h13.67V14.83c0-3.27-0.68-6.04-2.02-8.23c-1.34-2.2-3.21-3.87-5.56-4.98
			c-2.3-1.08-4.94-1.63-7.86-1.63c-5.41,0-9.4,1.66-11.85,4.95c-2.38,3.19-3.59,7.8-3.59,13.71v27.18c0,5.02,1.41,9,4.18,11.83
			c2.78,2.84,6.48,4.28,10.99,4.28c4.91,0,8.81-1.26,11.6-3.75c2.82-2.51,4.24-6.55,4.24-11.99V34.08H224.2v11.59L224.22,45.66z"/>
		<path d="M256.3,45.66c0,1.16-0.17,2.09-0.52,2.77c-0.17,0.34-0.46,0.7-1.25,0.7c-0.58,0-0.97-0.18-1.26-0.6
			c-0.2-0.28-0.54-1.02-0.54-2.88V16.16c0-1.16,0.16-2.09,0.47-2.74c0.09-0.19,0.3-0.63,1.33-0.63c0.81,0,1.12,0.3,1.28,0.52
			c0.15,0.2,0.48,0.89,0.48,2.99v9.68h13.67V14.83c0-3.27-0.68-6.04-2.02-8.23c-1.34-2.2-3.21-3.87-5.56-4.98
			c-2.3-1.08-4.94-1.63-7.86-1.63c-5.41,0-9.4,1.66-11.85,4.95c-2.38,3.19-3.59,7.8-3.59,13.71v27.18c0,5.02,1.41,9,4.18,11.83
			c2.78,2.84,6.48,4.28,10.99,4.28c4.91,0,8.81-1.26,11.6-3.75c2.82-2.51,4.24-6.55,4.24-11.99V34.08h-13.81v11.59L256.3,45.66z"/>
		<path d="M300.94,26.09c0.86-2.03,1.3-4.75,1.3-8.08s-0.27-6.37-0.81-8.89c-0.57-2.66-1.71-4.78-3.4-6.28
			c-1.72-1.53-4.23-2.31-7.48-2.31H271.5v60.86h13.87V34.55c1.06,0.08,1.63,0.28,1.92,0.45c0.28,0.16,0.57,0.87,0.57,2.35v24.04
			h13.57V38.12c0-2.47-0.41-4.52-1.23-6.12c-0.53-1.03-1.28-1.83-2.25-2.41c1.36-0.86,2.36-2.03,2.99-3.51V26.09z M285.44,13.4h1.77
			c0.76,0,1,0.27,1.13,0.53c0.16,0.32,0.43,1.28,0.43,4.08c0,1.62-0.19,4.34-1.46,4.34h-1.87V13.4z"/>
		<polygon points="317.52,36.43 328.63,36.43 328.63,23.39 317.52,23.39 317.52,13.87 329.1,13.87 329.1,0.54 303.58,0.54 
			303.58,61.4 329.87,61.4 329.87,47.96 317.52,47.96 		"/>
		<path d="M348.52,0.54h-17.18V61.4h16.78c5.22,0,8.95-1.68,11.08-5c2.05-3.18,3.08-7.71,3.08-13.45V15.37
			c0-4.76-1.17-8.45-3.47-10.98c-2.33-2.56-5.79-3.85-10.3-3.85L348.52,0.54z M345.15,12.81h0.33c1.79,0,2.33,0.38,2.48,0.54
			c0.12,0.13,0.53,0.76,0.53,3.14v30.39c0,1.56-0.64,2.17-2.27,2.17h-1.06V12.8L345.15,12.81z"/>
		<rect x="363.98" y="0.54" width="13.34" height="60.86"/>
		<polygon points="405.52,0.54 377.79,0.54 377.79,13.81 384.79,13.81 384.79,61.4 398.53,61.4 398.53,13.81 405.52,13.81 		"/>
		<path d="M410.57,0.54l-5.88,60.86h13.43l0.74-9.5h5.29l0.84,9.5h13.12l-5.77-60.86h-21.76L410.57,0.54z M423.08,40.54h-3.23
			l1.5-20.09L423.08,40.54z"/>
		<polygon points="437.15,13.81 444.15,13.81 444.15,61.4 457.89,61.4 457.89,13.81 464.88,13.81 464.88,0.54 437.15,0.54 		"/>
		<rect x="465.22" y="0.54" width="13.34" height="60.86"/>
		<path d="M496.01,0c-5.01,0-8.89,1.42-11.54,4.22c-2.63,2.79-3.97,6.88-3.97,12.15v27.98c0,5.6,1.34,9.96,3.97,12.98
			c2.67,3.05,6.55,4.6,11.53,4.6s8.86-1.55,11.53-4.6c2.64-3.02,3.97-7.38,3.97-12.98V16.37c0-5.28-1.33-9.37-3.97-12.15
			C504.88,1.42,501,0,495.99,0L496.01,0z M496.11,49.13c-0.86,0-1.17-0.37-1.36-0.69c-0.25-0.44-0.54-1.39-0.54-3.45V16.27
			c0-3.47,1.38-3.47,1.97-3.47c0.45,0,1.63,0,1.63,3.37v28.75C497.81,47.71,497.24,49.13,496.11,49.13z"/>
		<polygon points="531.27,19.44 527.64,0.54 513.74,0.54 513.74,61.4 527.21,61.4 527.21,40.86 531.32,61.4 544.61,61.4 
			544.61,0.54 531.27,0.54 		"/>
		<polygon points="562.61,61.4 576.42,61.4 576.42,34.69 587.53,34.69 587.53,21.39 576.42,21.39 576.42,13.97 588.13,13.97 
			588.13,0.54 562.61,0.54 		"/>
		<path d="M604.58,0c-5.01,0-8.89,1.42-11.54,4.22c-2.63,2.79-3.97,6.88-3.97,12.15v27.98c0,5.6,1.34,9.96,3.97,12.98
			c2.67,3.05,6.55,4.6,11.53,4.6s8.86-1.55,11.53-4.6c2.64-3.02,3.97-7.38,3.97-12.98V16.37c0-5.28-1.33-9.37-3.97-12.15
			C613.45,1.42,609.57,0,604.56,0L604.58,0z M604.68,49.13c-0.86,0-1.17-0.37-1.36-0.69c-0.25-0.44-0.54-1.39-0.54-3.45V16.27
			c0-3.47,1.38-3.47,1.97-3.47c0.45,0,1.63,0,1.63,3.37v28.75C606.38,47.71,605.81,49.13,604.68,49.13z"/>
		<path d="M651.75,26.09c0.86-2.03,1.3-4.75,1.3-8.08s-0.27-6.36-0.81-8.89c-0.57-2.66-1.71-4.78-3.4-6.28
			c-1.72-1.53-4.23-2.31-7.48-2.31h-19.05v60.86h13.87V34.55c1.06,0.08,1.63,0.28,1.92,0.45c0.28,0.16,0.57,0.87,0.57,2.35v24.04
			h13.57V38.12c0-2.47-0.41-4.52-1.23-6.12c-0.53-1.03-1.28-1.83-2.25-2.41c1.36-0.86,2.36-2.03,2.99-3.51V26.09z M636.25,13.4h1.76
			c0.76,0,1,0.27,1.13,0.53c0.16,0.32,0.43,1.29,0.43,4.08c0,1.62-0.19,4.34-1.46,4.34h-1.87V13.4H636.25z"/>
		<polygon points="682.46,0.54 678.39,30.24 674.3,0.54 654.53,0.54 654.53,61.4 667.13,61.4 667.13,29.67 672.48,61.4 684.72,61.4 
			689.67,30.35 689.67,61.4 702.4,61.4 702.4,0.54 		"/>
	</g>
</g>
</svg>
