<?xml version="1.0" encoding="utf-8"?>
<!-- Generator: Adobe Illustrator 27.1.1, SVG Export Plug-In . SVG Version: 6.00 Build 0)  -->
<svg version="1.1" id="Capa_1" xmlns="http://www.w3.org/2000/svg" xmlns:xlink="http://www.w3.org/1999/xlink" x="0px" y="0px"
	 viewBox="0 0 61.4 138.7" style="enable-background:new 0 0 61.4 138.7;" xml:space="preserve">
<g id="Capa_2_00000132047778810470924860000013969039880155404732_">
	<g id="Capa_1-2">
		<path d="M7.4,71.1c-1.6,0-3,0-4.4,0c-0.5,0-1.3-0.3-1.4-0.7c-0.2-0.6,0-1.2,0.3-1.7c3.5-4.2,7-8.3,10.5-12.5
			c5.6-6.7,11.3-13.4,17-20.1c1.2-1.4,1.7-1.4,2.8,0l20.2,24c2.4,2.9,4.9,5.7,7.3,8.6c0.4,0.4,0.5,1,0.4,1.6
			c-0.4,0.5-0.9,0.7-1.6,0.7c-1.3,0.1-2.7,0-4.3,0v24.5c0,1.7-0.4,2-2.1,2c-4,0-8,0-12,0c-1.6,0-1.9-0.4-1.9-1.9V81.3
			c0.2-2.6-1.8-4.8-4.3-4.9c-0.1,0-0.2,0-0.3,0c-1.9,0-3.7,0-5.6,0c-2.5-0.1-4.6,1.9-4.7,4.5c0,0.1,0,0.3,0,0.4c0,4.8,0,9.6,0,14.4
			c0,1.6-0.4,2-2,2c-4,0-8.1,0-12.1,0c-1.6,0-1.9-0.4-1.9-1.9c0-7.6,0-15.1,0-22.7L7.4,71.1z"/>
	</g>
</g>
</svg>
