<?xml version="1.0" encoding="utf-8"?>
<!-- Generator: Adobe Illustrator 27.1.1, SVG Export Plug-In . SVG Version: 6.00 Build 0)  -->
<svg version="1.1" id="Capa_1" xmlns="http://www.w3.org/2000/svg" xmlns:xlink="http://www.w3.org/1999/xlink" x="0px" y="0px"
	 viewBox="0 0 74.2 138.7" style="enable-background:new 0 0 74.2 138.7;" xml:space="preserve">
<style type="text/css">
	.st0{fill:#FFFFFF;}
</style>
<g id="Capa_2_00000056402288311437354930000008754692617261130651_">
	<g id="Capa_1-2">
		<circle cx="37.1" cy="69.3" r="31.3"/>
		<path class="st0" d="M43.1,80.9c-1.2,0-2.4,0.3-3.4,1l-9.5-9.5c1.4-1.9,1.4-4.6,0.1-6.6l9.2-9.2c2.6,1.8,6.2,1,8-1.6
			c0.6-0.9,0.9-2,0.9-3.2c0.1-3.2-2.4-5.9-5.5-6c-3.1-0.1-5.9,2.4-6,5.5c0,0.2,0,0.3,0,0.5c0,0.7,0.2,1.4,0.4,2.1l-9.7,9.7
			c-3-1.2-6.3,0.3-7.5,3.2c-1.2,3,0.3,6.3,3.2,7.5c0.7,0.3,1.5,0.4,2.2,0.4c0.7,0,1.3-0.1,1.9-0.3l10.2,10.3c-1,3,0.6,6.3,3.6,7.3
			c3,1,6.3-0.6,7.3-3.6c1-3-0.6-6.3-3.6-7.3C44.5,81.1,43.9,80.9,43.1,80.9L43.1,80.9z"/>
	</g>
</g>
</svg>
