<?xml version="1.0" encoding="utf-8"?>
<!-- Generator: Adobe Illustrator 27.1.1, SVG Export Plug-In . SVG Version: 6.00 Build 0)  -->
<svg version="1.1" id="Capa_1" xmlns="http://www.w3.org/2000/svg" xmlns:xlink="http://www.w3.org/1999/xlink" x="0px" y="0px"
	 viewBox="0 0 70.6 138.7" style="enable-background:new 0 0 70.6 138.7;" xml:space="preserve">
<g id="Capa_2_00000164499455729909259160000011617774317398818436_">
	<g id="Capa_1-2">
		<path d="M10.5,87.9H60c3.5,0,6.3,2.8,6.3,6.3l0,0c0,3.5-2.8,6.3-6.3,6.3H10.5c-3.5,0-6.3-2.8-6.3-6.3l0,0
			C4.2,90.8,7.1,87.9,10.5,87.9z"/>
		<path d="M10.5,63H60c3.5,0,6.3,2.8,6.3,6.3l0,0c0,3.5-2.8,6.3-6.3,6.3H10.5c-3.5,0-6.3-2.8-6.3-6.3l0,0C4.2,65.8,7.1,63,10.5,63z"
			/>
		<path d="M10.5,38.2H60c3.5,0,6.3,2.8,6.3,6.3l0,0c0,3.5-2.8,6.3-6.3,6.3H10.5c-3.5,0-6.3-2.8-6.3-6.3l0,0
			C4.2,41,7.1,38.2,10.5,38.2z"/>
	</g>
</g>
</svg>
