<?xml version="1.0" encoding="utf-8"?>
<!-- Generator: Adobe Illustrator 25.4.1, SVG Export Plug-In . SVG Version: 6.00 Build 0)  -->
<svg version="1.1" id="Capa_1" xmlns="http://www.w3.org/2000/svg" xmlns:xlink="http://www.w3.org/1999/xlink" x="0px" y="0px"
	 viewBox="0 0 46.4 69.5" style="enable-background:new 0 0 46.4 69.5;" xml:space="preserve">
<style type="text/css">
	.st0{fill:#FFFFFF;}
</style>
<path class="st0" d="M42.7,26.8L36.9,21L19.5,3.6c-2.1-2.1-4.9-3.3-7.9-3.3S5.8,1.5,3.7,3.6c-4.4,4.4-4.4,11.5,0,15.8L15.3,31
	c2,2,2,5.3,0,7.4L3.7,50c-4.4,4.4-4.4,11.5,0,15.8c2.1,2.1,4.9,3.3,7.9,3.3s5.8-1.2,7.9-3.3l17.4-17.4l5.8-5.8
	C47.1,38.2,47.1,31.1,42.7,26.8z"/>
<path d="M5.8,17.3l11.6,11.6c3.2,3.2,3.2,8.4,0,11.6L5.8,52.1c-3.2,3.2-3.2,8.4,0,11.6l0,0c3.2,3.2,8.4,3.2,11.6,0l0,0l17.4-17.4
	l5.8-5.8c3.2-3.2,3.2-8.4,0-11.6l-5.8-5.8L17.4,5.7C14.2,2.5,9,2.5,5.8,5.7l0,0C2.6,8.9,2.6,14.1,5.8,17.3z"/>
</svg>
