<svg xmlns="http://www.w3.org/2000/svg" viewBox="0 0 210.79 138.71"><g id="Capa_2" data-name="Capa 2"><g id="Capa_1-2" data-name="Capa 1"><path d="M53.16,25.56,50.7,46.86H43.78Q42.83,42,42.1,35.69q-.33,2.69-1.54,11.17H33.68L31.2,25.56h5.38L37.17,33l.56,7.19Q38,34.6,39.26,25.56H45c.07.62.28,3,.6,7l.61,8.11q.48-7.74,1.55-15.13Z" fill="#fff"/><path d="M66.92,38c0,2.14-.06,3.66-.16,4.55a5.06,5.06,0,0,1-3.1,4.14,7.87,7.87,0,0,1-3.15.59,8.13,8.13,0,0,1-3.08-.56,5.09,5.09,0,0,1-2.19-1.68,5,5,0,0,1-1-2.43A43.5,43.5,0,0,1,54.1,38V34.39c0-2.14,0-3.66.15-4.55a5.11,5.11,0,0,1,3.1-4.14,7.88,7.88,0,0,1,3.16-.59,8.07,8.07,0,0,1,3.07.56,5,5,0,0,1,2.19,1.68,5.07,5.07,0,0,1,1,2.43c.1.88.16,2.41.16,4.61Zm-5.55-7a6.66,6.66,0,0,0-.16-1.9.65.65,0,0,0-.68-.41.75.75,0,0,0-.66.33,4.65,4.65,0,0,0-.23,2V41a9.85,9.85,0,0,0,.15,2.29.65.65,0,0,0,.7.43.68.68,0,0,0,.73-.5,11,11,0,0,0,.15-2.38Z" fill="#fff"/><path d="M69,25.56H72.9a30.16,30.16,0,0,1,5.31.3,3.67,3.67,0,0,1,2.27,1.55,7,7,0,0,1,.87,4,6.15,6.15,0,0,1-.62,3.35,3.22,3.22,0,0,1-2.43,1,4.19,4.19,0,0,1,2.21,1.1,3.13,3.13,0,0,1,.7,1.25,18.73,18.73,0,0,1,.14,3.15v5.62H76.21V39.78a4.91,4.91,0,0,0-.27-2.12c-.18-.27-.65-.4-1.42-.4v9.6H69Zm5.54,3.64v4.74a2.45,2.45,0,0,0,1.31-.26c.25-.17.38-.72.38-1.66V30.85a1.73,1.73,0,0,0-.37-1.33A2,2,0,0,0,74.52,29.2Z" fill="#fff"/><path d="M89,25.56v17h3.37v4.26H83.5V25.56Z" fill="#fff"/><path d="M93.75,25.56h4.14a25.42,25.42,0,0,1,5.43.37,4,4,0,0,1,2.15,1.21A3.81,3.81,0,0,1,106.4,29a29,29,0,0,1,.18,4.06v7.46a17.35,17.35,0,0,1-.27,3.84,2.86,2.86,0,0,1-.94,1.51,3.92,3.92,0,0,1-1.66.77,15.48,15.48,0,0,1-3,.21h-7Zm5.54,3.64v14q1.2,0,1.47-.48a6.86,6.86,0,0,0,.28-2.61V31.85A11.38,11.38,0,0,0,101,30a.89.89,0,0,0-.42-.6A2.88,2.88,0,0,0,99.29,29.2Z" fill="#fff"/><path d="M54.52,50.23,51.9,72.85H44.56q-1-5.2-1.78-11.86-.36,2.85-1.64,11.86H33.83L31.2,50.23h5.71l.63,7.89.6,7.64c.21-4,.76-9.13,1.62-15.53h6.11q.12,1,.65,7.46l.65,8.61q.49-8.22,1.64-16.07Z" fill="#211915"/><path d="M65.57,50.23l3.37,22.62h-6l-.32-4.06H60.5l-.35,4.06H54.07l3-22.62ZM62.46,64.78q-.45-3.84-.9-9.51c-.6,4.34-1,7.5-1.13,9.51Z" fill="#211915"/><path d="M80.21,50.23v4.53H76.72V72.85H70.83V54.76H67.35V50.23Z" fill="#211915"/><path d="M81.55,50.23h9.81v4.53H87.43v4.29h3.68v4.3H87.43v5h4.32v4.52H81.55Z" fill="#211915"/><path d="M93.44,50.23h4.17a32.44,32.44,0,0,1,5.64.32,3.9,3.9,0,0,1,2.4,1.64,7.47,7.47,0,0,1,.93,4.22,6.57,6.57,0,0,1-.66,3.55,3.49,3.49,0,0,1-2.58,1.09,4.38,4.38,0,0,1,2.35,1.16,3.33,3.33,0,0,1,.74,1.33,20.68,20.68,0,0,1,.15,3.35v6h-5.46V65.34a5.19,5.19,0,0,0-.29-2.25c-.19-.29-.69-.44-1.5-.44v10.2H93.44Zm5.89,3.87v5a2.62,2.62,0,0,0,1.39-.27c.26-.18.4-.77.4-1.77V55.85a1.85,1.85,0,0,0-.39-1.41A2.12,2.12,0,0,0,99.33,54.1Z" fill="#211915"/><path d="M42.41,83.88H37.66V80.71A5.81,5.81,0,0,0,37.51,79c-.1-.23-.32-.34-.67-.34a.69.69,0,0,0-.74.42,6,6,0,0,0-.16,1.8v8.47a5.7,5.7,0,0,0,.16,1.73.8.8,0,0,0,1.4,0,6.65,6.65,0,0,0,.16-1.91V86.86h4.75v.71a14.29,14.29,0,0,1-.4,4,4.11,4.11,0,0,1-1.77,2.07,6,6,0,0,1-3.38.89,7,7,0,0,1-3.43-.75,3.65,3.65,0,0,1-1.79-2.09,13.83,13.83,0,0,1-.44-4V82.37a24,24,0,0,1,.13-3,4.12,4.12,0,0,1,.81-1.9A4.6,4.6,0,0,1,34,76.08a6.68,6.68,0,0,1,2.73-.53,6.69,6.69,0,0,1,3.46.81,4,4,0,0,1,1.79,2,12.3,12.3,0,0,1,.43,3.76Z" fill="#211915"/><path d="M54.21,75.94,50.75,87.57v6.6H46.36v-6.6L43,75.94h4.36c.68,3.56,1.07,6,1.15,7.18.26-1.94.7-4.34,1.32-7.18Z" fill="#211915"/><path d="M66.09,83.88H61.35V80.71A5.81,5.81,0,0,0,61.2,79a.65.65,0,0,0-.67-.34.71.71,0,0,0-.75.42,6.56,6.56,0,0,0-.15,1.8v8.47a6.19,6.19,0,0,0,.15,1.73.69.69,0,0,0,.71.41.68.68,0,0,0,.7-.41,7.06,7.06,0,0,0,.16-1.91V86.86h4.74v.71a13.92,13.92,0,0,1-.4,4,4.11,4.11,0,0,1-1.77,2.07,6,6,0,0,1-3.37.89,7.06,7.06,0,0,1-3.44-.75,3.69,3.69,0,0,1-1.79-2.09,13.83,13.83,0,0,1-.44-4V82.37a23.53,23.53,0,0,1,.14-3,4.2,4.2,0,0,1,.8-1.9,4.6,4.6,0,0,1,1.86-1.43,7.57,7.57,0,0,1,6.19.28,3.88,3.88,0,0,1,1.79,2,12,12,0,0,1,.43,3.76Z" fill="#211915"/><path d="M72.53,75.94V90.52h2.89v3.65H67.79V75.94Z" fill="#211915"/><path d="M81.31,75.94V94.17H76.56V75.94Z" fill="#211915"/><path d="M93.8,75.94V94.17H89.64l-2.47-8.29v8.29h-4V75.94h4l2.66,8.21V75.94Z" fill="#211915"/><path d="M106.58,82.65h-4.74V81a8.18,8.18,0,0,0-.14-2,.6.6,0,0,0-.64-.39.6.6,0,0,0-.6.34,5.71,5.71,0,0,0-.15,1.73v8.75a5.49,5.49,0,0,0,.15,1.62.62.62,0,0,0,.63.39.71.71,0,0,0,.71-.44,5.3,5.3,0,0,0,.18-1.71V87.15h-1V84.38h5.55v9.79h-3l-.44-1.31a3.25,3.25,0,0,1-1.22,1.27,3.45,3.45,0,0,1-1.74.42A4.48,4.48,0,0,1,98,94a4.24,4.24,0,0,1-1.58-1.43,4.56,4.56,0,0,1-.68-1.8,21.46,21.46,0,0,1-.14-2.82V82.5a17.82,17.82,0,0,1,.29-3.79,3.85,3.85,0,0,1,1.61-2.17,5.64,5.64,0,0,1,3.45-1,6.43,6.43,0,0,1,3.46.86,4,4,0,0,1,1.79,2,10.74,10.74,0,0,1,.42,3.42Z" fill="#211915"/><path d="M40.13,96.47,42.74,114H38.07l-.24-3.16H36.19L35.92,114H31.2l2.33-17.57Zm-2.42,11.3q-.35-3-.7-7.38-.69,5-.87,7.38Z" fill="#fff"/><path d="M60.31,96.47l-2,17.57h-5.7q-.8-4-1.39-9.21-.27,2.2-1.27,9.21H44.25l-2-17.57h4.44l.48,6.13.47,5.93q.25-4.61,1.26-12.06H53.6c.06.52.23,2.45.49,5.8L54.6,109q.39-6.37,1.27-12.48Z" fill="#fff"/><path d="M68.89,96.47,71.5,114H66.83l-.24-3.16H65L64.68,114H60l2.33-17.57Zm-2.42,11.3q-.34-3-.7-7.38-.69,5-.87,7.38Z" fill="#fff"/><path d="M72.28,96.47h3.23a25.49,25.49,0,0,1,4.38.25A3,3,0,0,1,81.75,98a5.78,5.78,0,0,1,.72,3.27A5.1,5.1,0,0,1,82,104a2.64,2.64,0,0,1-2,.85,3.38,3.38,0,0,1,1.82.9,2.76,2.76,0,0,1,.58,1,15.94,15.94,0,0,1,.11,2.59V114H78.23V108.2a4,4,0,0,0-.22-1.75q-.23-.33-1.17-.33V114H72.28Zm4.56,3v3.9a2,2,0,0,0,1.08-.21c.21-.14.31-.6.31-1.37v-1a1.45,1.45,0,0,0-.3-1.09A1.64,1.64,0,0,0,76.84,99.48Z" fill="#fff"/><path d="M84.24,96.47h3.42a20.66,20.66,0,0,1,4.48.31,3.46,3.46,0,0,1,1.77,1,3.23,3.23,0,0,1,.76,1.55,23.66,23.66,0,0,1,.15,3.35v6.15A14.23,14.23,0,0,1,94.6,112a2.4,2.4,0,0,1-.78,1.25,3.23,3.23,0,0,1-1.36.63A12.38,12.38,0,0,1,90,114H84.24Zm4.57,3V111c.66,0,1.06-.13,1.21-.39a5.67,5.67,0,0,0,.23-2.16v-6.82a9.43,9.43,0,0,0-.07-1.53.74.74,0,0,0-.35-.5A2.35,2.35,0,0,0,88.81,99.48Z" fill="#fff"/><path d="M106.2,101.79H102v-1.3a2.66,2.66,0,0,0-.16-1.16.6.6,0,0,0-.55-.25.69.69,0,0,0-.62.33,2,2,0,0,0-.21,1,2.9,2.9,0,0,0,.24,1.33,3.5,3.5,0,0,0,1.29,1.07,13.21,13.21,0,0,1,3.84,3,6.82,6.82,0,0,1,.79,3.75,6.57,6.57,0,0,1-.44,2.76,3.44,3.44,0,0,1-1.7,1.49,6.72,6.72,0,0,1-2.93.61,6.61,6.61,0,0,1-3.13-.7,3.35,3.35,0,0,1-1.69-1.77,8.94,8.94,0,0,1-.41-3v-1.15h4.25v2.14a2.8,2.8,0,0,0,.18,1.27.67.67,0,0,0,.63.28.75.75,0,0,0,.68-.36,2,2,0,0,0,.22-1.06,3.33,3.33,0,0,0-.42-2,13,13,0,0,0-2.14-1.59,20.45,20.45,0,0,1-2.26-1.64,3.78,3.78,0,0,1-.91-1.41,6.05,6.05,0,0,1-.37-2.3,6.39,6.39,0,0,1,.52-3,3.48,3.48,0,0,1,1.66-1.46,6.69,6.69,0,0,1,2.78-.53,7.24,7.24,0,0,1,3,.58,3.11,3.11,0,0,1,1.66,1.45,7.65,7.65,0,0,1,.41,3Z" fill="#fff"/><path d="M119.59,96.16v11.22h-2.92v-4.71h-.87v4.71h-2.92V96.16h2.92v4h.87v-4Z" fill="#211915"/><path d="M125.81,96.16l1.67,11.22h-3l-.15-2h-1l-.17,2h-3l1.49-11.22Zm-1.55,7.22c-.15-1.28-.3-2.85-.44-4.72-.3,2.15-.49,3.72-.56,4.72Z" fill="#211915"/><path d="M130.89,96.16v9h1.77v2.24H128V96.16Z" fill="#211915"/><path d="M136.29,96.16v9h1.77v2.24h-4.69V96.16Z" fill="#211915"/><path d="M147.94,102.73c0,1.13,0,1.93-.08,2.4a2.67,2.67,0,0,1-.5,1.28,2.73,2.73,0,0,1-1.13.9,4.29,4.29,0,0,1-1.67.31,4.09,4.09,0,0,1-1.61-.3,2.63,2.63,0,0,1-1.16-.88,2.7,2.7,0,0,1-.52-1.28c-.05-.47-.08-1.27-.08-2.43v-1.92c0-1.13,0-1.92.08-2.39a2.67,2.67,0,0,1,.5-1.29,2.58,2.58,0,0,1,1.13-.89,4.1,4.1,0,0,1,1.66-.32,4.18,4.18,0,0,1,1.62.3,2.7,2.7,0,0,1,1.16.88,2.74,2.74,0,0,1,.52,1.29c0,.46.08,1.27.08,2.42ZM145,99a3.37,3.37,0,0,0-.09-1,.34.34,0,0,0-.35-.22.4.4,0,0,0-.35.18,2.54,2.54,0,0,0-.12,1v5.24a4.75,4.75,0,0,0,.08,1.21.34.34,0,0,0,.37.23.36.36,0,0,0,.38-.26,6.1,6.1,0,0,0,.08-1.26Z" fill="#211915"/><path d="M149,96.16H154v2.25h-2v2.12h1.8v2.14H152v4.71H149Z" fill="#211915"/><path d="M157.18,96.16h4.94v2.25h-2v2.12h1.8v2.14h-1.8v4.71h-2.92Z" fill="#211915"/><path d="M167.59,96.16l1.67,11.22h-3l-.15-2h-1.05l-.17,2h-3l1.49-11.22ZM166,103.38c-.15-1.28-.29-2.85-.44-4.72-.3,2.15-.49,3.72-.56,4.72Z" fill="#211915"/><path d="M178.76,96.16v11.22H176.2V99.81l-1,7.57h-1.81l-1.07-7.4v7.4h-2.55V96.16h3.78c.11.67.22,1.47.34,2.39l.42,2.85.67-5.24Z" fill="#211915"/><path d="M179.93,96.16h4.86v2.25h-1.95v2.12h1.83v2.14h-1.83v2.47H185v2.24h-5.06Z" fill="#211915"/><polygon points="115.55 109.33 116.38 111 118.22 111.27 116.89 112.57 117.2 114.41 115.55 113.54 113.9 114.41 114.22 112.57 112.88 111.27 114.73 111 115.55 109.33" fill="#211915"/><polygon points="122.23 109.33 123.05 111 124.9 111.27 123.56 112.57 123.88 114.41 122.23 113.54 120.58 114.41 120.89 112.57 119.56 111.27 121.4 111 122.23 109.33" fill="#211915"/><polygon points="128.9 109.33 129.73 111 131.57 111.27 130.24 112.57 130.55 114.41 128.9 113.54 127.25 114.41 127.57 112.57 126.23 111.27 128.08 111 128.9 109.33" fill="#211915"/><polygon points="135.58 109.33 136.41 111 138.25 111.27 136.91 112.57 137.23 114.41 135.58 113.54 133.93 114.41 134.25 112.57 132.91 111.27 134.76 111 135.58 109.33" fill="#211915"/><polygon points="142.26 109.33 143.08 111 144.93 111.27 143.59 112.57 143.91 114.41 142.26 113.54 140.61 114.41 140.92 112.57 139.59 111.27 141.43 111 142.26 109.33" fill="#211915"/><polygon points="148.93 109.33 149.76 111 151.6 111.27 150.27 112.57 150.58 114.41 148.93 113.54 147.28 114.41 147.6 112.57 146.26 111.27 148.11 111 148.93 109.33" fill="#211915"/><polygon points="155.61 109.33 156.44 111 158.28 111.27 156.94 112.57 157.26 114.41 155.61 113.54 153.96 114.41 154.28 112.57 152.94 111.27 154.79 111 155.61 109.33" fill="#211915"/><polygon points="162.29 109.33 163.11 111 164.96 111.27 163.62 112.57 163.94 114.41 162.29 113.54 160.64 114.41 160.95 112.57 159.62 111.27 161.46 111 162.29 109.33" fill="#211915"/><polygon points="168.96 109.33 169.79 111 171.63 111.27 170.3 112.57 170.61 114.41 168.96 113.54 167.31 114.41 167.63 112.57 166.29 111.27 168.14 111 168.96 109.33" fill="#211915"/><polygon points="175.64 109.33 176.47 111 178.31 111.27 176.97 112.57 177.29 114.41 175.64 113.54 173.99 114.41 174.31 112.57 172.97 111.27 174.82 111 175.64 109.33" fill="#211915"/><polygon points="182.32 109.33 183.14 111 184.99 111.27 183.65 112.57 183.97 114.41 182.32 113.54 180.67 114.41 180.98 112.57 179.65 111.27 181.49 111 182.32 109.33" fill="#211915"/><circle cx="148.93" cy="58.12" r="32.62" fill="#3275d3"/><polygon points="133.31 73.52 137.65 73.52 149.67 42.71 145.32 42.71 133.31 73.52" fill="#fff"/><polygon points="123.83 73.52 128.18 73.52 140.2 42.71 135.85 42.71 123.83 73.52" fill="#fff"/><path d="M153.77,60.94l2.83-7.72c.61-1.7,1.31-4.61,1.31-4.61H158s.7,2.91,1.31,4.61l2.84,7.72Zm18.62,7.76c-.79,0-1.16-.17-1.44-1l-9.78-25h-6.38l-12,30.81h3.68c2.32,0,3.12-.56,3.86-2.52l2.05-5.38h11.18l2,5.38c.74,2,1.58,2.52,3.91,2.52H174V68.7Z" fill="#fff"/><rect width="210.79" height="138.71" fill="none"/></g></g></svg>