<svg xmlns="http://www.w3.org/2000/svg" width="342.2" height="156" viewBox="0 0 342.2 156">
  <g>
    <path d="M27.77,111.06c-4.24,3.47-6.05,2.47-11.09,2.49-5.94,0-14.41,1.49-16.41-6-.51-1.78-.15-3.63-.12-5.44.16-2.4.23-4.8.37-7.2.59-9.56,1.13-19.11,1.91-28.65C3.57,50.58,5,34.91,6.5,19.23c.21-2.18.46-4.36.67-6.55.15-5,1.17-9.92,6.8-11.14A196.73,196.73,0,0,1,36,1c6.25-.23,11.9,1.58,12.19,8.61.42.16.47-1.91.65-2.28A8.06,8.06,0,0,1,55.2,1,77.6,77.6,0,0,1,71.81.12a112.24,112.24,0,0,1,12,1c3.58.62,7.61.54,10.38,3.24,4.09-3,9.55-3.21,14.45-3.19a29.25,29.25,0,0,1,7.71,1.21c.53.17,1.07.35,1.52-.05,2.3-1.18,5-1.17,7.5-1.56C131.71.26,139,.18,144.27,4.14c1.32-1.06,2.59-2.21,4.33-2.54A129.93,129.93,0,0,1,163.5.92c2.69,0,5.39,0,8.08.08s5.58.08,8,1.64c3.2-2,7.06-1.43,10.64-1.83,8.75-.24,17.5,0,26.24-.39,2.14-.06,4.35-.57,6.41.2a1.4,1.4,0,0,0,.86,0c4.56-1,9.27-.2,13.87.08A53.57,53.57,0,0,0,244,.94a9.06,9.06,0,0,1,5.61,1.88c9-3.58,20.44-2.59,29.94-1.82,3.74.61,8.11.26,11.08,3,.3.23.48.63.89.66a9.17,9.17,0,0,1,7.53-3.37C305.4.9,311.75.9,318.09,1,332.8.47,330,9,331.88,19.75c.77,6.34,1.6,12.66,2.45,19,1.65,12.57,3.35,25.13,4.85,37.71,1,7.81,1.82,15.64,2.61,23.47.14,1.44.28,2.89.38,4.33.48,4.42-4.09,8.64-7.84,8.42-2.53,0-5.06,0-7.59.09-2.9.1-5.81.11-8.71.12-2.71.08-5.57-.05-7.79-1.8a1.11,1.11,0,0,0-.65.39,7.87,7.87,0,0,1-5.39,2.21c-4.06-.22-8.12-.09-12.18,0a11.32,11.32,0,0,1-4.86-.85,1.61,1.61,0,0,0-1.2-.12c-6.87,1.15-13.91.77-20.84.65-4.79-.57-10.58,1-14.66-1.94-.74-.83-1.84,1.8-5.3,2.1-4.87.43-9.78.14-14.67.19a6.62,6.62,0,0,0-1.71.21,8.42,8.42,0,0,1-9.91-4.82c-3.68,4.71-5.83,4.1-11.35,4.34-4.84.23-9.7.28-14.55.29a7.89,7.89,0,0,1-3.6-.83c-.36-.16-.72-.52-1.14-.39-5.92.47-11.94.28-17.9.41-2.7.1-5.49-.11-7.71-1.83-3.66,3.28-6.08,2.62-10.59,2.48-5.83-.2-12.19,1.69-16.09-3.83-5.19,3.61-8.28,3.45-14.29,3.55a56.13,56.13,0,0,1-9.44-.11,29.52,29.52,0,0,1-11.79-3.62c-.44-.1-.28.5-.36.75-.51,5.24-5,7.16-9.63,7.86A85.49,85.49,0,0,1,74,119.87c-4.25.2-6.67-3.39-9.16-6.26-.29-.26-.53-.75-1-.65-3.18.94-6.64,1.76-9.56-.34a1,1,0,0,0-.94-.17,7.51,7.51,0,0,1-2.22.21c-5.18,0-10.36.24-15.54.21C32.87,112.94,30,112.85,27.77,111.06ZM88.33,91.43a299.89,299.89,0,0,0,2-30.55c.3-13.59.09-27.22-2-40.67a107,107,0,0,0-2.9-13.47.68.68,0,0,0-.61-.52A125.14,125.14,0,0,0,69,4.49a78.41,78.41,0,0,0-15,.64c-.64.28-.47,1.67-.7,2.28-.23,1.48-.44,2.95-.58,4.44C51.23,26,51.36,40.24,51.31,54.45c.14,15.89.72,32.21,4.61,47.6,2.42-.5,4.79-1.26,7.2-1.83.92-.33,1.41.86,2,1.34,1.87,2,3.78,4.08,5.56,6.2.26.33.69.2,1.05.22,1.62,0,3.23-.14,4.84-.26a58.68,58.68,0,0,0,12.27-2.1c-1.6-3.4-4-6.29-6.29-9.26-.59-1-1.57-1.71-1.88-2.78,1.47-.48,3-.68,4.55-1.07C86.3,92.17,87.47,92.21,88.33,91.43ZM115,71.73c-1.87-19.61-2.09-39.32-2-59-.16-1,.42-5.61-.35-5.68a24.52,24.52,0,0,0-14.06-.92c-.57.24-1.78.1-1.91.84-.18,24.32-.7,48.68.87,73,.41,5.21.81,10.41,1.42,15.6a6.21,6.21,0,0,0,3.38,3.76c6.52,3.19,13.94,2,20.93,2,4.49-.32,7.43-4.46,10.13-7.62a1.23,1.23,0,0,0,.27-.8c.08-4.73.13-9.45.22-14.18.51-24.09,1.32-48.19,1.4-72.29C130.85,4,123.78,5,118.84,5.74c.1,22.62,2.23,45.52.8,68.19A34.63,34.63,0,0,1,115,71.73Zm-89.66-.26c.93,6.15,1.75,12.35,2.56,18.53.49,3.52,1,7,1.75,10.53.23.86,1.71.27,2.38.45,5.31,0,10.61-.08,15.92-.2.23,0,.55,0,.52-.35-.52-5.32-1-10.64-1.67-15.94-1.75-16.19-4-32.31-6.09-48.45-1.12-8.12-2.1-16.27-3.14-24.4-.36-2-.21-4.13-.87-6a172.16,172.16,0,0,0-23.82.11c-.7-.17-.53,3-.71,3.48-.8,8.2-1.61,16.4-2.33,24.62C8,56.33,5.7,79.2,5.22,101.66c3.55.2,7.13,0,10.69,0,.61-.14,2.59.48,2.6-.34.46-3.37.63-6.77.89-10.15.42-6.57.68-13.18,1.81-19.67.17-1,.14-1,1.09-.78S24.4,70.94,25.37,71.47Zm134.85-.13c1,6.17,1.74,12.36,2.6,18.56.62,3.66.82,7.46,1.93,11a183.4,183.4,0,0,0,18.63-.31C181.29,77.27,178,54,174.93,30.8c-.84-6.41-1.63-12.82-2.45-19.23-.2-1.73-.39-3.46-.59-5.19,0-.32-.07-.73-.42-.82s-.41-.06-.62-.07c-6.5-.4-13-.24-19.52,0-1.16,0-2.32.14-3.48.21-.65,0-.45.89-.54,1.34q-2,19.86-3.7,39.73c-1.15,14.46-2.3,28.93-3.07,43.41-.14,2.53-.29,5-.43,7.58,0,1.24-.18,2.48-.15,3.72.11.28.53.2.77.24,4.1,0,8.21-.1,12.31,0,.31-.07.4-.39.42-.67.19-1.9.39-3.79.55-5.69.32-4.39.52-8.78.86-13.16A98.44,98.44,0,0,1,156.23,71c.07-.34.2-.43.5-.38C157.93,70.87,159,71.09,160.22,71.34ZM331,100.75c-2.83-31.61-7.87-63-11.51-94.49,0-.27-.1-.62-.4-.69s-.49-.07-.74-.08a172.86,172.86,0,0,0-17.78,0c-6.78.65-5.22-1.49-6,5.18-3,30.28-5.64,60.61-7,91,3.84.25,7.72,0,11.58.09.75-.08,2,.48,1.93-.73q.46-4.45.76-8.92c.49-7,.69-14.1,2-21,.07-.43.29-.43.63-.37,1.14.31,2.37.22,3.41.81,1,6.1,1.7,12.27,2.56,18.4.66,3.67.75,7.5,2,11C318.52,101.11,324.67,100.89,331,100.75ZM270.23,74.28l-4.25.78c-.48.08-.62,0-.71-.43-3.27-15.32-3.38-31.19-2.69-46.78a.69.69,0,0,1,.54-.43,33.21,33.21,0,0,1,4-.93c1.53,3.22,1.82,7,2.12,10.5.16,2.48.27,5,.27,7.46,0,.43-.09,1,.38,1.21,3.6,1.81,9.81,1.87,13.55.46,1.2-13.1.3-26.39-1.29-39.46.24-1-4.76-1-5.59-1.24a101.79,101.79,0,0,0-19.12-.5c-1.48.13-3,.34-4.43.59-.59.22-1.87.19-2.11.82-.49,3-1,6-1.33,9.09-2.1,16.93-1.6,34-.72,51,.53,11.6,1.09,23.28,3.56,34.65,5.55.47,11.21.31,16.81.5,3.6,0,7.21-.08,10.8-.4a.82.82,0,0,0,.91-.79c2.08-9.82,2.17-19.93,2.56-29.93.3-15.38,2.3-16-14.37-14.92C269.46,61.76,270.64,68.13,270.23,74.28Zm-89-68.55c-.91,4-.51,8.25-.48,12.35q.1,3,.18,6.09c.07.3.37.27.6.29,2.37-.06,4.73.13,7.09.15.44,0,.53.08.55.47.2,4.1.29,8.2.38,12.3.43,20,.35,40,.34,60,.15.82-.36,4.47.38,4.39,5.84.07,11.68-.24,17.52-.38.9.09.7-.7.72-1.33,0-23.91-.85-47.84-1.12-71.73a66.08,66.08,0,0,1,10.17-1.45c.69-5.13-.09-10.69-.15-15.94-.09-2-.19-3.89-.2-5.84,0-.19,0-.46-.22-.52C205.11,5.47,193,4.28,181.22,5.73Zm41.87,47.76h0c.6,15,1.1,30,.43,45-.18,5.72-.83,3.12,4.4,3.32,4.22,0,8.45.29,12.67-.07.33,0,.46-.15.47-.44,0-4,0-8,0-12.06.15-26.52.4-53,.18-79.56,0-1.33,0-2.65-.08-4-.18-.81-1.44-.16-2-.35-4.39,0-8.76-.63-13.15-.78-.63,0-3.18-.17-3.28.48C221.77,21.18,222.52,37.35,223.09,53.49Z" fill="#020202"/>
    <path d="M214.36,155.66c-6.25-7.59-12.1-15.57-18.43-23-.52,0-.2,1.06-.29,1.41,0,7.09.05,14.17,0,21.26-.15.64-1.06.24-1.54.34a.39.39,0,0,1-.3-.34c0-8.68-.23-17.43.09-26.09,1.53-.33,1.95,0,2.79,1.22,5.66,7,11.16,14.22,16.88,21.19.1.06.28,0,.29-.1.17-7.28,0-14.59.07-21.88,0-.35.17-.51.55-.51s1.32-.21,1.33.46c0,8.21,0,16.41,0,24.62C215.72,155.67,216,155.63,214.36,155.66Z" fill="#020202"/>
    <path d="M130.53,142.35c0-4.31-.05-8.62,0-12.93a.4.4,0,0,1,.34-.3c6,0,12,0,18,0,.7-.11.63,1.62.19,1.82-4.95.16-9.95,0-14.92.06-.77,0-1.85-.27-1.64.92q0,4.29,0,8.58c0,.25-.06.65.24.77,4.83.17,9.7,0,14.54.08.65.14.25,1.06.35,1.53-.16.55-1,.24-1.45.33-4.44,0-8.88,0-13.31,0-.46.05-.34.59-.37.92q0,4.35,0,8.7c0,.29,0,.75.28.86,5,.15,10,0,15.05.06,1.55-.05,1.89-.12,1.63,1.62-5.93.72-12.53.06-18.67.23-.32,0-.32-.45-.32-.71C130.53,150.73,130.54,146.54,130.53,142.35Z" fill="#020202"/>
    <path d="M19.82,129.18c.25.43.08,1,.13,1.46-.21.62-1.19.25-1.69.35-4.9,0-9.79,0-14.68,0-.28,0-.43.18-.45.48,0,3.15-.06,6.3,0,9.45.14.6,1,.29,1.42.38H16.89c1.54,0,1.45-.15,1.37,1.52-.13.6-1,.27-1.42.36-4.44,0-8.88,0-13.31,0-.55.05-.37.76-.41,1.15,0,3,0,6,0,9,.1.68,1,.35,1.49.44,5.1.06,10.21-.13,15.3.07.3.15.18.62.23.9,0,.82,0,.91-.91.91H1.71c-.47,0-.61-.14-.62-.57,0-8.16,0-16.33,0-24.5,0-.59-.2-1.61.72-1.47C7.8,129.17,13.83,129,19.82,129.18Z" fill="#020202"/>
    <path d="M332,156a14.37,14.37,0,0,1-10.21-4.14c-.1-.47.62-.89.85-1.29.56-.43,1.12.61,1.61.85,4.11,3.77,15.05,4.58,14.79-3.09-.63-5.75-10-4.31-13.79-7.38-5.35-3.82-1.89-11.6,4.21-12.08A13.36,13.36,0,0,1,340,131.81c.22.57-.61,1-.88,1.49-.4.23-.8-.4-1.15-.56-3.8-3.05-12.63-3.56-13.33,2.64-.29,6.62,9.79,5.13,13.72,8.2,3.8,2.37,3.45,8.29-.15,10.69A10.13,10.13,0,0,1,332,156Z" fill="#020202"/>
    <path d="M73.72,155.75c-3.93-8.7-7.73-17.48-11.49-26.25-.08-.7,1.29-.29,1.71-.38s.55.69.76,1c3.29,7.66,6.49,15.35,9.82,23,3.88-7.51,6.76-15.85,10.33-23.64.19-.56.85-.37,1.31-.4.91,0,1,0,.6.86q-5.25,12-10.49,24C75.6,155.48,75.66,156.19,73.72,155.75Z" fill="#020202"/>
    <path d="M268.82,143.25c0-4,.06-7.95,0-11.93-.14-.52-.91-.26-1.32-.33-2.2,0-4.39,0-6.59,0-1.51,0-1.34,0-1.21-1.65,6.11-.66,12.76,0,19-.24,1.48-.1,1.44.16,1.34,1.56-.15.52-.92.25-1.33.33-2.36,0-4.72,0-7.09,0-.69,0-.77.1-.79.79,0,7.83,0,15.66,0,23.48a.38.38,0,0,1-.41.38c-.47-.09-1.38.26-1.55-.34C268.78,151.28,268.85,147.26,268.82,143.25Z" fill="#020202"/>
    <path d="M88.33,91.43c-.86.78-2,.74-3.08,1.09-1.5.38-3.08.58-4.55,1.06.31,1.07,1.29,1.83,1.88,2.78,2.26,3,4.69,5.86,6.29,9.26a58.68,58.68,0,0,1-12.27,2.1c-1.61.12-3.22.23-4.84.26-.36,0-.79.11-1.05-.22-1.78-2.12-3.69-4.15-5.56-6.2-.62-.49-1.1-1.67-2-1.34-2.41.57-4.78,1.33-7.2,1.83C52,86.66,51.45,70.34,51.31,54.45c0-14.21-.08-28.45,1.36-42.6.14-1.49.35-3,.59-4.43.22-.68.06-2,.69-2.29a78.41,78.41,0,0,1,15-.64,125.14,125.14,0,0,1,15.8,1.73.68.68,0,0,1,.61.52,107,107,0,0,1,2.9,13.47c2.11,13.45,2.32,27.08,2,40.67A299.89,299.89,0,0,1,88.33,91.43ZM65.51,31.7c.31,11.77.09,23.62,1.63,35.32.28,2.14.66,4.26,1.1,6.37.24.67.09,2.2,1.12,2,2-.25,4-.46,5.91-.79.27-.13.15-.55.18-.8-.27-6.58-.59-13.16-1-19.74s-.93-13.22-1.32-19.84c-.17-.66.1-3.69-.58-3.64A30,30,0,0,0,65.51,31.7Z" fill="#fefefe"/>
    <path d="M115,71.73a34.63,34.63,0,0,0,4.61,2.2c1.43-22.67-.7-45.57-.8-68.19,4.93-.76,12-1.74,16.53.61-.08,24.1-.89,48.2-1.4,72.29-.09,4.73-.14,9.45-.22,14.18a1.23,1.23,0,0,1-.27.8c-2.69,3.16-5.64,7.3-10.13,7.62-7,.06-14.41,1.23-20.93-2A6.24,6.24,0,0,1,99,95.52c-.61-5.19-1-10.39-1.42-15.6-1.32-19.48-1.09-39-1-58.54,0-4.68.09-9.37.14-14,0-.32,0-.74.36-.83A24.92,24.92,0,0,1,112.72,7c.76-.07.2,4.9.35,5.68C112.94,32.4,113.16,52.12,115,71.73Z" fill="#fefefe"/>
    <path d="M25.37,71.47c-1-.52-2-.41-3.07-.71s-.92-.19-1.09.78C20.08,78,19.82,84.64,19.4,91.21c-.26,3.38-.43,6.78-.89,10.15-.05.91-2,.14-2.6.34-3.56,0-7.14.16-10.69,0C5.7,79.2,8,56.34,9.87,33.81c.72-8.22,1.53-16.42,2.33-24.62.21-.81,0-3.49.71-3.48A172.16,172.16,0,0,1,36.73,5.6c.66,1.91.51,4.05.87,6,1,8.13,2,16.28,3.14,24.4,2.09,16.14,4.34,32.26,6.09,48.45.63,5.3,1.15,10.62,1.67,15.94,0,.3-.29.36-.52.35-5.31.12-10.61.23-15.92.2-.66-.14-2.17.36-2.38-.45-.79-3.48-1.26-7-1.75-10.53C27.12,83.82,26.3,77.62,25.37,71.47Zm-.59-46.93c-.37.41-.3.85-.38,1.34-.12,1.16-.24,2.31-.34,3.47-.57,5.89-.78,11.82-1.14,17.73.13.76-.6,3.37,0,3.6a7.86,7.86,0,0,0,5.24.22c.38-.13.48-.26.43-.64-.26-2.18-.51-4.36-.77-6.54C27,37.26,26.12,30.92,24.78,24.54Z" fill="#fefefe"/>
    <path d="M160.22,71.34c-1.24-.25-2.29-.47-3.49-.68-.3,0-.43,0-.5.38a98.44,98.44,0,0,0-1.36,11.22c-.34,4.38-.54,8.77-.86,13.16-.23,1-.23,6.39-1,6.36-4.1-.15-8.21,0-12.31,0-.26,0-.65,0-.77-.24,0-1.24.11-2.49.15-3.72.14-2.53.29-5,.43-7.58.77-14.48,1.92-28.95,3.07-43.41q1.72-19.87,3.7-39.73c.09-.48-.11-1.29.54-1.34,1.16-.07,2.32-.18,3.48-.21,6.5-.25,13-.41,19.52,0,.65,0,1,.12,1,.89q.56,5.07,1.22,10.12c1,7.9,2,15.78,3.06,23.67,2.64,20.11,5.41,40.23,7.21,60.43a183.35,183.35,0,0,1-18.63.31c-1.11-3.55-1.31-7.35-1.93-11C162,83.7,161.25,77.51,160.22,71.34Zm-.57-47c-.78,2.63-.64,5.43-1,8.15-.4,4.91-.63,9.83-.89,14.75a29.25,29.25,0,0,1-.26,3,.41.41,0,0,0,.3.48,8.67,8.67,0,0,0,4.16.46c.46-.14,1.35-.15,1.47-.7-.21-2.23-.52-4.44-.77-6.66C161.94,37.19,161,30.93,159.65,24.35Z" fill="#fefefe"/>
    <path d="M331,100.75c-6.29.14-12.44.36-18.6.17-1.22-3.53-1.31-7.36-2-11-.86-6.13-1.56-12.3-2.56-18.4-1-.6-2.28-.5-3.41-.81-.34-.06-.56-.06-.63.37-1.28,6.92-1.48,14-2,21q-.3,4.47-.76,8.92c.05,1.2-1.18.65-1.93.73-3.86-.08-7.74.16-11.58-.09,1.35-30.39,4-60.72,7-91,.77-6.64-.8-4.53,6-5.18a172.86,172.86,0,0,1,17.78,0c.56,0,1.16,0,1.14.77C323.09,37.79,328.13,69.14,331,100.75ZM307.23,24.41c-.83,2.78-.65,5.67-1,8.52-.32,4.21-.53,8.43-.73,12.65-.05,1.08-.13,2.15-.21,3.23,0,.58-.49,1.46.07,1.87a8.55,8.55,0,0,0,4.28.47c.74-.08,1.65-.31,1.36-1.26-.18-1.52-.37-3-.55-4.56C309.64,38.25,308.69,31.44,307.23,24.41Z" fill="#fefefe"/>
    <path d="M270.23,74.28c.41-6.15-.77-12.52-1.13-18.73,16.65-1,14.68-.49,14.37,14.92-.39,10-.48,20.11-2.56,29.93a.82.82,0,0,1-.91.79c-3.59.32-7.2.44-10.8.4-5.6-.19-11.26,0-16.81-.5-2.47-11.37-3-23-3.56-34.65-.88-17-1.38-34.09.72-51,.33-3.05.84-6.07,1.33-9.09.23-.67,1.53-.58,2.11-.82,1.47-.25,2.95-.46,4.43-.59a101.79,101.79,0,0,1,19.12.5c.92.27,5.77.27,5.59,1.24,1.59,13.07,2.49,26.36,1.29,39.46-3.76,1.41-9.93,1.36-13.55-.46-.47-.21-.36-.78-.38-1.21,0-2.49-.11-5-.27-7.46-.3-3.52-.59-7.28-2.12-10.5a33.21,33.21,0,0,0-4,.93.71.71,0,0,0-.54.43c-.69,15.59-.58,31.46,2.69,46.78.13.93,1.33.18,1.93.2Z" fill="#fefefe"/>
    <path d="M181.22,5.73C193,4.28,205.11,5.47,217,4.62c.21.07.21.33.22.52,0,2,.11,3.89.2,5.84.06,5.25.84,10.82.15,15.94a66.08,66.08,0,0,0-10.17,1.45c.27,23.89,1.08,47.82,1.12,71.73,0,.57.19,1.47-.72,1.33-5.84.14-11.68.45-17.52.38-.72.27-.25-3.86-.38-4.39,0-20,.09-40-.34-60-.09-4.1-.18-8.2-.38-12.3,0-.39-.11-.47-.55-.47-2.36,0-4.72-.21-7.09-.15-.65.09-.63-.42-.62-.91-.05-1.82-.09-3.65-.16-5.47C180.71,14,180.31,9.76,181.22,5.73Z" fill="#fefefe"/>
    <path d="M223.09,53.49c-.57-16.14-1.32-32.31-.33-48.45a.35.35,0,0,1,.3-.34,18.6,18.6,0,0,1,3-.15c4.39.15,8.76.73,13.15.78.57.14,1.87-.39,2,.35,0,1.33.07,2.65.08,4,.22,26.52,0,53-.18,79.56,0,4,0,8,0,12.06,0,.29-.14.42-.47.44-4.22.36-8.45,0-12.67.07-5.24-.2-4.58,2.4-4.4-3.32.67-15,.17-30-.43-45Z" fill="#fefefe"/>
    <path d="M65.51,31.7a33.55,33.55,0,0,1,5-1c.58,0,2.48-.57,2.36.39.46,7.65,1,15.29,1.52,22.94.45,6.58.77,13.16,1,19.74.17,1.12-.62.8-1.4,1-1.56.21-3.13.41-4.69.59-1,.25-.88-1.3-1.12-2-.44-2.11-.82-4.23-1.1-6.37C65.6,55.32,65.82,43.47,65.51,31.7Z" fill="#020202"/>
    <path d="M24.78,24.54c1.34,6.38,2.25,12.72,3,19.18.26,2.18.51,4.36.77,6.54.05.38-.05.51-.43.64a7.86,7.86,0,0,1-5.24-.22c-.58-.21.15-2.87,0-3.6.36-5.91.57-11.84,1.14-17.73.1-1.16.22-2.31.34-3.47C24.48,25.39,24.41,25,24.78,24.54Z" fill="#020202"/>
    <path d="M159.65,24.35c1.34,6.58,2.29,12.84,3,19.45.25,2.22.56,4.43.77,6.66-.12.55-1,.55-1.47.7a8.67,8.67,0,0,1-4.16-.46.41.41,0,0,1-.3-.48,29.25,29.25,0,0,0,.26-3c.26-4.92.49-9.84.89-14.75C159,29.78,158.87,27,159.65,24.35Z" fill="#020202"/>
    <path d="M307.23,24.41c1.46,7,2.41,13.84,3.22,20.92.18,1.52.37,3,.55,4.56.29.94-.62,1.19-1.36,1.26a8.55,8.55,0,0,1-4.28-.47c-.56-.4,0-1.29-.07-1.87.08-1.08.16-2.15.21-3.23.2-4.22.41-8.44.73-12.65C306.58,30.07,306.4,27.19,307.23,24.41Z" fill="#020202"/>
  </g>
</svg>
