<svg xmlns="http://www.w3.org/2000/svg" width="340.55" height="594" viewBox="0 0 340.55 594">
  <g>
    <path d="M274.49,590.46a9.27,9.27,0,0,1-6.12,2.24c-5.28-.5-10.76.75-15.91-.66-5.1.37-10.37.39-15.56.33s-10.65-.12-16,0a8.61,8.61,0,0,1-3.69-.6A9.31,9.31,0,0,1,212,586c-.37-.27-.73.3-1,.49a19.38,19.38,0,0,1-9,5.27c-10.64.94-23.83,2.29-32-6-1.33-1.78-1.33-.86-1.77.63a8.79,8.79,0,0,1-8.38,5.89c-5.92.27-11.85.34-17.77.4-2.77.14-4.86-1.33-6.9-3-1.58.91-3,2.23-4.92,2.41-3.93.32-7.89.09-11.83.41-2.49,0-5.08.53-7.48-.35a2.56,2.56,0,0,0-1.4-.09c-3.84.6-7.68,1.15-11.52,1.74a8.63,8.63,0,0,1-8.5-3.49c-.5-.59-.56-.63-1.21-.4a50.57,50.57,0,0,1-11,2.4,107.12,107.12,0,0,1-16.32.27c-5.12-.66-11.55.78-15.08-3.87-1.7-2.14-2-5-2.69-7.54a142.4,142.4,0,0,1-2.26-15.8.37.37,0,0,0-.52-.3A11.55,11.55,0,0,1,34,566.81c-.68,0-.63.76-.63,1.25,0,4.85,0,9.69,0,14.54.2,4.37-3.15,8-7.3,9-5.78,1.65-11.94,1.31-17.8.32a8.56,8.56,0,0,1-7-6.15C.23,580,1,574,.63,568.21c-.45-26-1.34-52.08.43-78.06,1.32-11.06,14.32-7.43,22.11-8.12,6.88-.43,13-.26,19,3.66.7.54,1,.34,1.4-.31a9.07,9.07,0,0,1,6.9-4,115.45,115.45,0,0,1,15.78-.31c5.44.27,10.87.67,16.32.64a9.12,9.12,0,0,1,7.34,3.5c.41.42.88-.15,1.25-.35a9.44,9.44,0,0,1,3.48-1.36,99.27,99.27,0,0,1,20.71-1.72,43.3,43.3,0,0,1,9.93,1.38c1,.13,2.09,1.08,3.07.5,3-2.22,7-1.69,10.58-2,9.75-.51,19.51.07,29.25-.64a9,9,0,0,1,4.78,1.31,3.34,3.34,0,0,0,1.93.06,36.27,36.27,0,0,1,9.48-.22c2-.08,4.44,1.48,6.3.77,2.07-1,4.45-.89,6.67-1.27a35.19,35.19,0,0,1,15.6,1.25c.5.16,1,.49,1.55.26,9.73-3,20.2-2.43,30.27-2.4,4.3-.21,8.28,1.76,10,5.86,4.88-5.56,7.17-4.28,14-4.85.29-.1.55-.26,0-.51a17.63,17.63,0,0,1-7.48-6,8.74,8.74,0,0,1-1.62-4.31c-.1-.43.12-1.3-.46-1.41-2.8-.1-5.62.07-8.41-.21-2.66.8-5.44.59-8.19.57-5.79-.16-11.6,0-17.39,0-3.36.43-7,1.59-10.17-.27a2.32,2.32,0,0,0-1.83-.52,45,45,0,0,1-12.31.89c-2.84-.29-5.78.07-8.55-.82-6.09.94-12.38.63-18.58.54a8.88,8.88,0,0,1-8.92-7.54A111.76,111.76,0,0,1,163,445.09c-.53-10-.88-20.12.28-30.11.21-1.85.48-3.68.8-5.51,1.57-9.55,13.31-8.34,20.64-8.09,1.55.1,3.09.33,4.63.54,1.75.37,3.34-.68,5.11-.63,5.67-.55,11.35.21,17,.27a8.19,8.19,0,0,1,4.16.89,2.18,2.18,0,0,0,1.56.18c7.08-1.24,14.62-2,21.46.77,2.93-2,6.47-1.79,9.85-1.85,4.37.19,9-.7,13.05,1.4,7.06-2.68,16.07-2,23.39-.58,1.74.1,3.45-.89,5.29-.72,5.35.14,10.9-1,16,1,6.14-2.64,13.13-1.26,19.66-1.2,7.31-.43,10.69,2.82,12.31,9.76,2.34,8.46,2.36,17.3,2.31,26,0,4.72-.08,9.46-.54,14.16-.88,6-.07,14.54-7.1,16.9-6.65,2.39-13.86,1.86-20.79,1.44-4.28-.54-8.61,0-12.91-.18-1.23.09-2.53-.37-3.73-.06a10.22,10.22,0,0,1-4.07.47c-1,.15-2.88-.57-3.25.64a8.5,8.5,0,0,1-4.63,6.65c-2.41,1.22-4.66,2.7-7,3.95-.23.12-.37.35-.27.39,5.68.73,13.12-1.38,17.12,3.92.39.32.77,1.81,1.39,1.11a8.92,8.92,0,0,1,5.51-5.05c4.78-1,9.81-.33,14.68-.61,7.12-.35,14.76.5,15.11,8.73-.36,13.57-.8,27.15-1.2,40.72-.25,6.23-.24,12.45-.33,18.67,0,1.72-.06,1.68,1.65,1.67,5.18-.56,10.26,3.14,10.31,8.54-.06,8.67.47,17.37-.34,26-1,6.47-6.52,8.54-12.84,7.38-6.29-.08-12.57-.05-18.85-.1-1.74,0-3.47-.14-5.2-.2s-3.39-1.17-5.26-.71c-5.81.06-11.61.34-17.41.24A11.58,11.58,0,0,1,274.49,590.46ZM80.26,486.78c-10.57.13-21.27-1.79-31.76-.23-1.1,12.91-2.35,25.87-2.69,38.84.07,16.16.31,32.49,3,48.46.41,1.22.73,5.84,2,5.84,10.63.37,21.87,2,32-1.89C86.77,556,89.18,506.43,80.26,486.78ZM192.75,553c-.12,0-.26.12-.34.08-1.29-.62-2.57-1.26-3.85-1.9a.69.69,0,0,1-.38-.57c-.23-2.68-.49-5.36-.67-8-.94-13.07-1.2-26.18-1.18-39.28,0-4.78,0-9.57,0-14.36-.78-1.5-5.74-1.84-7.39-2s-7.55,0-8.39,1.41c-.14,8.31-.18,16.63-.24,24.94-.14,20.22.2,40.47,2.4,60.58,2.79,7.76,16.84,5.65,23.43,5.72,2.45,0,4.52-1.59,6.23-3.21,1.21-1.44,3.85-3.47,4-5.34.07-8.62.32-17.23.46-25.84.33-19.21,1.16-38.42,1-57.63-5-2-10.71-1.37-15.89-.43C191.93,509,194.05,531.11,192.75,553ZM94.18,581.4c1.73-.51,14.52-1.34,13.94-2.79q-.42-13.64-.65-27.27c0-1.56-.11-3.11-.1-4.67.2-.87,1.49-.63,2.16-.9,1.23.47,1.55,5.21,1.71,6.55.71,9-.48,18.06,0,27.09,0,.61.18.76.74.74,1.37,0,2.75,0,4.12-.14,3.31-.27,6.6-.18,9.91-.31,1.38-7.19,1-14.68,1-22-.07-5.14-.13-10.29-.25-15.43-.1-2.18-2.37-3.25-4-4.17-4.89-2.43-3.87-2.32.49-4.05a4,4,0,0,0,2.47-3.07c.51-2.59,1-5.18,1.27-7.79,1.2-8.67.82-17.44.68-26.17.39-7.68-5.8-9.36-12.19-10a74.62,74.62,0,0,0-16.29.5c-1,.31-6,.33-5.8,1.5A898,898,0,0,0,94.18,581.4ZM277,579.26c5.51.36,11.09,0,16.61-.07.49,0,1.51.13,1.43-.59-1.3-12.67-2.68-25.34-4.33-38-1.73-13-3.39-26-5.12-38.95-.59-4.63-1.11-9.27-1.67-13.9-.14-1.43-2.46-.71-3.46-1-6.68-.06-13.49-.32-20.11.49-2.56,22.36-4.3,44.87-5.88,67.34-.63,8.23-1,16.48-1.43,24.73a.72.72,0,0,0,.36.73c1.2,0,2.4.06,3.59,0,2.75,0,5.51-.14,8.26,0,.39,0,.77-.06.79-.49.57-4.26.74-8.58,1.05-12.87a140.2,140.2,0,0,1,1.62-16.24c.27-1.06,2.13,0,2.91-.06.52.06,1.13.24,1.15.89q.42,2.83.81,5.68C274.76,564.45,275.15,572,277,579.26Zm-45.66-35.65c.74.73,2.15.28,3.13.52,1.3.66,1,4.85,1.27,6.29-.15,1,.72,6.15-.34,6s-4.29.83-4.65,0c-.84-8.2-1.52-16.44-1.92-24.69-.07-5.89-.7-14.24.41-19.65,1.34-.29,2.7-.49,4-.78.73-.13.93,0,1.09.79.65,3.16,1.07,6.36,1.63,9.54.31.8.27,3.91,1.18,3.92,2.92-.06,5.87.12,8.79-.09,2.31-.21,1.49-1.26,1.71-3.17.25-10,1.07-20.21-1.38-30-.53-1.48-1.54-6.48-3.21-6.42-8.89-.25-17.87-.3-26.65,1.35-1-.25-1,5.56-1.32,6.45-.51,5.54-1,11.09-1.12,16.65a412.87,412.87,0,0,0,3.68,67.31c.22.86-.06,2.48,1.25,2.27h25.49c.68-.11,1.78.25,2.1-.54A88.77,88.77,0,0,0,248.05,569c1.19-12.21,1.13-24.5,1.5-36.76,0-.82-.06-1-1-1-4.19,0-8.37.37-12.55.56-.8.23-4.76-.19-4.7.38A76.56,76.56,0,0,1,231.35,543.61ZM22.11,578.94c.18-7.9-.15-15.82.3-23.72-.35-1.07,7.39-.85,8.45-1,1.93.32,3.4-.94,4.41-2.46a50.88,50.88,0,0,0,4.19-9.09c.38-2.67.61-5.35.85-8,.6-6.43.93-12.89,1-19.35,0-5.77.55-11.64,0-17.37-2.13-6.52-8.28-11.44-15.28-11.08-6,.29-12.08.23-18.12.29-.54,0-.72.18-.75.77-1.58,30.44-.84,61.14.14,91.51C12.1,580.3,17.58,580.89,22.11,578.94Zm134.21-69.78a42.6,42.6,0,0,1,7.81-1.3c.69-.15,1.72.07,2.19-.47.26-6.57-.27-13.16-.46-19.72-.05-1.81.06-1.66-1.68-1.57-10.45.68-21,0-31.4.76-.65.12-1.26-.1-1.81.45-1,5.76-.32,11.76-.23,17.58.24,1,6.84.05,7.85.75,1.18,24.05.66,48.19.79,72.28.09,1.06-.44,2.5,1.22,2.26,5.38,0,10.76-.22,16.14-.41.7,0,.63-.7.64-1.2C157.4,555.43,156.58,532.29,156.32,509.16Zm172.39,71.26c1.21-7.78.35-15.9.5-23.79.07-.74-.36-.91-1-.87-3.54,0-7,.54-10.55.82-.85-.25-.36-1.57-.5-2.25-.05-21.72.84-43.43,1.54-65.13-.15-.88.59-2.93-.48-3.09-5.69-.28-11.37,0-17.05,0-.27,0-.68,0-.77.31-1.16,31.1.51,62.23,1,93.33C310.47,580.6,319.6,579.52,328.71,580.42Zm-19.95-174c-1.55,16.57-2.67,33.6.72,50,.21.72.29.81.94.85,2.15.11,4.3.23,6.45.33A31.93,31.93,0,0,0,327,456.43c.67-.14.65-.94.79-1.48,1.81-13.83,3.14-34.73-1.41-47.86a.82.82,0,0,0-.82-.56C319.91,406.43,314.41,405.69,308.76,406.39Zm-99.62.21c-5.62-.23-11.29-.84-16.9-.25-.87.26-.4,2.53-.64,3.34-.79,9.18-1.61,18.38-1,27.59.34,6.63.26,13.53,2.34,19.89,2.94.24,16.85,1.29,17.86-1.62C212.59,442.77,214.3,418.2,209.14,406.6Zm60.64,11.68c3-1.07,2.37-.26,3.08,2.56a39.13,39.13,0,0,1,.38,4.83c.1.71-.23,1.67.36,2.2a10,10,0,0,0,6.66.35c.65-.2.44-1.05.51-1.58a100.59,100.59,0,0,0-.9-19.47,2.65,2.65,0,0,0-1.37-.42c-4.79-.53-9.71-.91-14.47,0-1,.3-.64,1.74-.92,2.53-1.64,10.12-1.16,20.42-.69,30.61.4,5.76.42,11.67,1.95,17.26.69.27,4.28-.3,3.92.64s-1.69,3-.09,3.42c.49.41,3.77,1.09,3,1.85-1.6,1.37-3.75,1.95-5.26,3.41,1,1.24,2.93,3.44,4.61,2.82,2.06-1.2,4.14-2.38,6.24-3.59a20.29,20.29,0,0,0-.37-4.78c-.23-.78-1.31-.79-1.9-1.21-1.12-.65-2.1-.92-1.15-2.34a53.53,53.53,0,0,0,5.38-.23c.93-.28.66-1.76.93-2.54.71-6.65,1.34-13.55.85-20.2-.49-2.12-5.55-1.53-7.25-1.31-.71,1,1,7.76.19,9.82a4.74,4.74,0,0,1-2.37.3A83.12,83.12,0,0,1,269.78,418.28Zm-53.3-10.69c-1,16.31-.48,32.72.14,49.05,0,.57,0,1.58.8,1.42a58.78,58.78,0,0,0,7-1.18c-.15-5.93-.33-11.83-.38-17.76,3.46-2.63,1.76,12.48,2,14.22.17.89-.49,4.1.65,4.12,2.45-.13,4.93,0,7.35-.27,1.41-6.39.42-13.27.57-19.82.23-2.4-2.61-2.61-4-3.93,1-1.27,3.22-.75,3.44-3.13a77.47,77.47,0,0,0,1-17.87c.22-4.23-2.77-5.39-6.44-5.75C224.59,406.52,220.38,406.42,216.48,407.59Zm37.67-.81c-4-.6-8.15-.16-12.2,0-1,0-.7,3.95-1,4.86-1,10.31-1.89,20.62-2.58,31-.32,4.83-.65,9.68-.86,14.5.5.64,1.45.28,2.16.39,1.6-.11,3.32.24,4.84-.18.76-4.2.64-8.57,1.11-12.82.08-1,.28-2,.46-3,.22-.46.89-.25,1.29-.2,1.46,0,1.05,3,1.41,4.09.55,3.72.87,7.49,1.63,11.18a.65.65,0,0,0,.64.52c3-.17,6.32.26,9.25-.25-.52-9.31-2-18.56-3.17-27.81C256,421.6,255.57,414.05,254.15,406.78ZM295.92,457c3.18.08,6.31.07,9.46-.07.31-.14.28-.49.26-.77-.29-3-.56-5.95-.9-8.93-1.55-13.06-3.38-26.08-5-39.14-.1-.49,0-1.17-.59-1.37a85.82,85.82,0,0,0-12,.05c-1,0-.79,5.82-1.1,6.89-.6,5.42-1,10.84-1.47,16.27-.72,9.05-1.48,18.13-1.76,27.21.17.41.76.27,1.12.32,1.79,0,3.59,0,5.38,0,.72,0,.6-.94.72-1.44.46-4.82.47-9.69,1.25-14.47.12-.68,2.24-.31,2.24.33C294.4,446.87,294.62,452,295.92,457ZM176.5,418.32c.79-.16,1.71-.85,2.39-.29a15.11,15.11,0,0,1,1,4.89c.26,1.23-.33,4.37.61,5a10.47,10.47,0,0,0,6.34.33c.47-.12.62-.28.64-.72.09-1.85.18-3.71.23-5.56a85.69,85.69,0,0,0-1.11-14.93c-2.86-.73-14.58-1.72-16.39.25-1.66,9.39-1.64,19-1.19,28.45.37,7,.48,14.14,2,21.05.11.33.55.44.89.4,4.63-.06,9.39.53,14-.18,1.06-2.7,1-5.79,1.24-8.66.29-4.41.46-8.85.38-13.27,0-1.82-1.8-2.2-3.28-2.19-.8.16-4.44-.46-4.31.6.19,3,.64,6.09.59,9.12-.42.59-1.48.42-2.14.67a.54.54,0,0,1-.54-.37A91.94,91.94,0,0,1,176.5,418.32Z" fill="#040303"/>
    <path d="M215.94,17.83c3.26-.15,6.34-.79,9.58-1a51.64,51.64,0,0,1,13.67,1.64c11.78,3.15,21.8,9.6,28,20.28,11.68,19.16,5.4,41-8.1,57.18,43.51,15.65,62.23,60,46.8,102.86C293,234.53,260.34,257.05,231,278.74c-21.23,15.83-40.16,36.51-36.53,64.92.36,4.24,1.66,8.33,1.93,12.58a15.3,15.3,0,0,1-9.27,14.34c-4.24,1.92-9,1.26-13.32-.12a265.11,265.11,0,0,1-35.42-13.24c-43-20.22-84-52.47-101-98.24-21.94-57,3-118.18,55.32-148-24.18-32.8,4.77-75.31,40.82-81.93,1.46-.55,5.25-.13,5.87-1.49C152.37-.78,198.68-12.45,215.94,17.83ZM106.36,109.61c-52,22.77-83,75.68-67.73,132,12.6,46.22,51.7,79.31,93.12,100.12a232.09,232.09,0,0,0,33.89,13.65c5.15,1.43,14.86,6.47,15.71-2.16-8-35.73,5.8-59.74,33.25-81.72,25.71-20,55-37.94,71.28-67.17,12.28-21.76,14.44-50.2,1.78-72.26-10.85-18.69-31.21-31.09-52.55-33.5-1.31-.27-3,0-4.09-.88,18.44-9.83,33.88-32.47,24.49-53.47-3.15-6.8-8.43-13.08-15.41-16.12-6.54-3-13.74-5.07-21-4.29a91.91,91.91,0,0,0-10.82,1.59,18.94,18.94,0,0,1-3.47.79c-.71-.14-.55-1.13-.74-1.67C200,7.09,178.29,3,163.88,9.89a38.9,38.9,0,0,0-21,20.58c-.65,1.38-.78,3-1.79,4.15-22,0-43.7,14.43-50.3,35.76C86.11,86.49,91.6,101.41,106.36,109.61Z" fill="#040303"/>
    <path d="M25.56,467.54a13.71,13.71,0,0,1-7.77,2.34c-5.33-.09-12.24.93-15.37-4.45a8.68,8.68,0,0,1-1.31-4.6c0-4.07,0-8.14-.1-12.2C.77,436.06.19,423.51,0,411c-.07-11.18,13-9.52,20.76-9.65,3.05-.15,6.09.71,9.11.14,3.23-.71,6.57-.05,9.83.09,1.49.1,3-.12,4.45.39a2.54,2.54,0,0,0,1.42,0,25.23,25.23,0,0,1,5.87-.67c4.71,0,9.48,0,14.09,1.09,1.71.21,3.34-.86,5.11-.67,2-.06,4.07-.19,6.1-.18,17.66-1,14.07,8,16.45,21.31,1.46,11.68,3.14,23.35,4.29,35.07.84,4.66-.8,9.7-6.15,11.26-3.79.79-7.77.22-11.63.42-1.31.15-2.65-.5-3.89,0A7.52,7.52,0,0,1,73,470c-3.1-.12-6.25.27-9.31-.32-5.29.34-10.64.15-16,.08-1.56-.06-3.08-.6-4.61.05a40.61,40.61,0,0,1-7,.19C31.66,470.38,29.27,470.64,25.56,467.54Zm48.66-26c.91,4.94,1.21,10.07,2.27,15,.05.32.38.42.68.43l8.79-.08c.33,0,.51-.24.48-.59-.51-5.3-1.12-10.59-1.76-15.87-1.3-10.38-2.79-20.73-4-31.12-.25-.85.07-2.08-.68-2.65a81.47,81.47,0,0,0-12,0c-.95,0-.61,2.69-.85,3.43-.34,3.63-.71,7.26-1,10.89-.81,9.41-1.55,18.83-2.16,28.26q-.24,3.66-.39,7.34c0,.38.1.79.52.76h6.1c.52,0,.55-.55.57-1,.35-4.59.64-9.18,1.12-13.76.16-.51,0-1.61.79-1.57A2.72,2.72,0,0,1,74.22,441.58ZM50.37,418.34c.9-.17,1.76-.88,2.47-.3,1.06,2.47,1,5.29,1.1,7.94.08.72-.2,1.75.66,2.06a11,11,0,0,0,6.19.24c.46-.12.61-.28.63-.73a96.77,96.77,0,0,0-.69-19.69c.54-2.14-11.63-1.53-13.31-1.52-1,.18-2.44.05-3.2.83a52.61,52.61,0,0,0-.89,6,181.83,181.83,0,0,0,1.52,43.29c.09.51.18.73.82.74,4.71-.08,9.47.45,14.15-.15,1.61-5.61,1.32-11.67,1.6-17.48-.28-2,1.06-5.73-1.5-6.46a25.62,25.62,0,0,0-5.18-.19c-.83,0-.93.14-.88.95.22,2.62.43,5.25.61,7.87a1.56,1.56,0,0,1-.17,1.13c-.69.06-2.08.9-2.55.05C50,434.87,50,426.56,50.37,418.34Zm-33.21,38.6c.66-7.55-1.12-15.43.53-22.9,2-.19,3.94.14,5.92-.25.84-3.2.81-6.53,1.07-9.81.4-1.49-6.56-.35-7.76-.9-.42.24-.32-4.69-.14-5.83.16-1.46.18-1.5,1.64-1.46,2.09.06,4.18.17,6.27.26,1.3.27,1.4-.46,1.47-1.54,0-2.5.41-5,0-7.52-6.31-1.18-13-.73-19.46-.25-1.09,8.32.37,17.58.19,26.19.33,7.9.39,15.8.51,23.69.22,1.06,3.28.52,4.2.73C13.46,457.21,15.44,457.68,17.16,456.94Zm12.85.73c1.81-.66,8.23.57,9-.68.09-16.73.29-33.52,0-50.23-.54-.37-1.15-.17-1.73-.22-2.44-.17-4.88-.43-7.34-.36a.55.55,0,0,0-.58.55,168.28,168.28,0,0,0-.13,17.4c.31,9,.81,17.93.64,26.9,0,2-.09,4-.14,5.92A.84.84,0,0,0,30,457.67Z" fill="#040303"/>
    <path d="M98.49,435.81c-.1-8.19-.14-16.39-.36-24.59.15-10.32,9.77-10,17.54-9.24,1.59-.12,3.13-.76,4.77-.55,2.62.19,5.29,0,7.87.51,1.65.18,3.24-.81,4.94-.67,4.78-.44,9.56,0,14.34.2,4.31-.18,8.51.86,10.38,5.11,4.9,11.63,3.94,24.66,3.9,37-.08,4.19-.51,8.36-1,12.52-.49,4.68-1,10.19-6.16,12-6.88,2.62-14.44,2.07-21.65,1.58a12.78,12.78,0,0,0-4.57,0c-2.5.18-5-.37-7.52-.17-3.84-.29-7.58,1-11.43.47-6.39.23-11.06-3.74-10.66-10.35-.14-8-.11-15.92-.38-23.88Zm49-29.18c-1.84,0-18.37-1.57-17.46.51-1.09,12.47-1.85,24.95-.81,37.45.45,4.21.49,8.56,2,12.56,5.83.38,12.15,1.2,17.7-1C151.07,443.39,152.49,418.34,147.5,406.63Zm-22.35.53c-2.34-1.08-5.14-.49-7.67-.7a.53.53,0,0,0-.51.4c.11,7.6.32,15.2,0,22.79-.29,2.17-.75.14-1-.73-1.9-7.05-3-14.27-4.31-21.44-.08-.47-.28-.65-.7-.66-1.61,0-3.23-.08-4.84-.08-1.77,0-1.67,0-1.65,1.68.41,16.26.23,32.64.93,48.84a18.07,18.07,0,0,0,7.14,0c.49-4.54-.32-9.24-.09-13.84.68,0,1.32,3.46,1.72,4.22,1.17,3.08,1.94,6.5,3.59,9.32,2.06.14,4.18,0,6.26.26,1.22.25,1-.62,1-1.49C125,439.54,124.52,423.33,125.15,407.16Z" fill="#040303"/>
    <path d="M80.26,486.78c8.91,19.61,6.52,69.15,2.63,91-10.16,3.87-21.4,2.26-32,1.89-1.28.07-1.63-4.75-2-5.84-2.72-16-3-32.3-3-48.46.34-13,1.59-25.93,2.69-38.84C59,485,69.69,486.91,80.26,486.78Zm-9.57,53.46a183.83,183.83,0,0,0-2.46-29.75c-.27-1.79-.31-1.58-1.92-1.47a14.86,14.86,0,0,0-5.55,1.28c-.66.32-.44,1.19-.49,1.79,0,6,0,12,0,17.95a132.54,132.54,0,0,0,2,21.59c.27.74,0,2.34.9,2.52,1.19-.36,7.07-.57,7.22-1.46C70.66,548.53,70.74,544.32,70.69,540.24Z" fill="#fdfdfd"/>
    <path d="M192.75,553c1.3-21.92-.82-44-.79-65.84,5.18-.94,10.89-1.53,15.89.43.16,19.21-.67,38.42-1,57.63-.52,9,.32,18.37-.89,27.16-2.61,3.05-5.46,7-9.81,7.23-6.58-.06-20.66,2-23.43-5.72-2.2-20.11-2.54-40.36-2.4-60.58.06-8.31.1-16.63.24-24.94,0-.33.28-.51.58-.56A24.51,24.51,0,0,1,179,487c1.67.1,6.59.48,7.39,2,0,4.79,0,9.58,0,14.36,0,13.1.24,26.21,1.18,39.28.18,2.69.44,5.37.67,8a.69.69,0,0,0,.38.57c1.28.64,2.56,1.28,3.85,1.9C192.49,553.15,192.63,553.06,192.75,553Z" fill="#fdfdfd"/>
    <path d="M94.18,581.4A898,898,0,0,1,93.42,489c-.24-1.21,4.85-1.16,5.8-1.5a74.62,74.62,0,0,1,16.29-.5c6.4.66,12.57,2.29,12.18,10,.15,8.73.53,17.5-.67,26.17-.32,2.61-.76,5.2-1.27,7.79a4,4,0,0,1-2.47,3.07c-4.42,1.74-5.32,1.65-.49,4.05,1.67.92,3.94,2,4,4.17.12,5.14.18,10.29.25,15.43-.07,7.32.33,14.81-1,22-3.31.13-6.6,0-9.91.31-1.37.09-2.75.1-4.12.14-.56,0-.69-.13-.74-.74-.5-9,.69-18.07,0-27.09-.17-1.41-.46-6-1.71-6.55-.67.25-2,.05-2.16.9,0,1.56.08,3.11.1,4.67q.23,13.63.65,27.27a.65.65,0,0,1-.6.75C103.09,580.25,98.68,580.73,94.18,581.4Zm17.25-50.95c1.31-1.25,1.34-6.21,1.62-8.15a103.37,103.37,0,0,0-.38-18.45c-.22-1-1.55-.16-2.21-.16-1.21.29-2.47.4-3.61.76a.86.86,0,0,0-.17.73c.41,4.11.62,8.23.68,12.36.14,4-.32,8,.17,11.88Z" fill="#fdfdfd"/>
    <path d="M277,579.26c-1.86-7.28-2.25-14.81-3.42-22.22-.34-2-.47-4.17-.95-6.18-1-.63-2.21-.53-3.3-.82-1-.07-.82,2.56-1.09,3.32-1.17,8.72-1.12,17.56-2.2,26.28,0,.41-.4.54-.79.49-2.75-.14-5.51,0-8.26,0-1.19,0-2.39,0-3.59,0a.73.73,0,0,1-.36-.73c.41-8.25.8-16.5,1.43-24.73,1.58-22.47,3.32-45,5.88-67.34,6.62-.81,13.43-.55,20.11-.49,1,.23,3.36-.37,3.46,1,.56,4.63,1.08,9.27,1.67,13.9,1.73,13,3.39,26,5.12,38.95,1.65,12.63,3,25.3,4.33,38,.08.74-.94.54-1.43.59C288.1,579.22,282.52,579.62,277,579.26ZM272,505.36c-1.13,8.39-1.31,16.71-1.85,25.12a6.54,6.54,0,0,0,5.25.39c1-.3-.4-5.77-.34-7C274.19,517.64,273.59,511.52,272,505.36Z" fill="#fdfdfd"/>
    <path d="M231.35,543.61a76.56,76.56,0,0,0-.09-11.43c-.06-.58,3.91-.15,4.7-.38,4.18-.19,8.36-.57,12.55-.56,1,0,1.06.2,1,1-.37,12.26-.31,24.55-1.5,36.76a88.77,88.77,0,0,1-1.53,10.28c-.31.82-1.42.4-2.1.54H218.93c-1.31.22-1-1.42-1.25-2.27A412.87,412.87,0,0,1,214,510.27c.14-5.56.61-11.11,1.12-16.65.31-1.14.27-6.53,1.32-6.45,8.78-1.65,17.76-1.6,26.65-1.35,1.66-.14,2.72,5.1,3.21,6.42,2.45,9.81,1.63,20,1.38,30-.22,1.92.6,3-1.71,3.17-2.92.21-5.87,0-8.79.09-.9,0-.88-3.1-1.18-3.92-.56-3.18-1-6.38-1.63-9.54-.16-.78-.36-.92-1.09-.79-1.33.29-2.69.49-4,.78-1.11,5.44-.48,13.74-.41,19.65.4,8.25,1.08,16.49,1.92,24.69.36.87,3.69-.11,4.65,0s.19-5.09.34-6c-.22-1.38,0-5.7-1.27-6.29C233.5,543.9,232.09,544.34,231.35,543.61Z" fill="#fdfdfd"/>
    <path d="M22.11,578.94c-4.53,1.95-10,1.36-14.75.5-1-30.37-1.72-61.07-.14-91.51,0-.59.21-.77.75-.77,6-.06,12.08,0,18.12-.29,7-.36,13.15,4.56,15.28,11.08.53,5.73,0,11.6,0,17.37-.11,6.46-.44,12.92-1,19.35-.24,2.68-.47,5.36-.85,8a50.88,50.88,0,0,1-4.19,9.09c-1,1.51-2.48,2.79-4.41,2.46-1.05.13-8.8-.11-8.45,1C22,563.12,22.29,571,22.11,578.94Zm-.62-42.59c7-.09,5.06.73,5.66-6.12-.15-8.5-.95-17.07-1.87-25.48a45.4,45.4,0,0,0-5.23-.12.41.41,0,0,0-.36.34c.06,2.8.36,5.6.51,8.41C20.75,521.11,21.19,528.54,21.49,536.35Z" fill="#fdfdfd"/>
    <path d="M156.32,509.16c.26,23.13,1.08,46.27,1.06,69.41,0,.49.07,1.25-.64,1.2-5.38.19-10.76.45-16.14.41-1.7.19-1.12-1.12-1.22-2.26-.13-24.08.39-48.23-.79-72.28-1-.7-7.61.27-7.85-.75-.09-5.82-.81-11.82.23-17.58.54-.55,1.17-.33,1.81-.45,10.45-.77,20.95-.08,31.4-.76,1.74-.09,1.63-.24,1.68,1.57.19,6.56.72,13.16.46,19.72-.46.55-1.51.31-2.19.47A42.6,42.6,0,0,0,156.32,509.16Z" fill="#fdfdfd"/>
    <path d="M328.71,580.42c-9.11-.9-18.24.18-27.31-.63-.49-31.09-2.16-62.23-1-93.33.1-.27.5-.31.77-.31,5.68-.08,11.36-.32,17.05,0,1.08.12.32,2.31.48,3.08-.7,21.71-1.59,43.42-1.54,65.14.14.7-.36,2,.5,2.25,3.52-.28,7-.83,10.55-.82.61-.07,1.1.18,1,.87C329.06,564.52,329.92,572.64,328.71,580.42Z" fill="#fdfdfd"/>
    <path d="M308.76,406.39c5.65-.71,11.15,0,16.78.14a.82.82,0,0,1,.82.56c4.55,13.15,3.22,34,1.41,47.86-.14.54-.12,1.34-.79,1.48a31.93,31.93,0,0,1-10.11,1.15c-2.15-.1-4.3-.22-6.45-.33-.65,0-.73-.13-.94-.85C306.09,440,307.21,423,308.76,406.39Zm11.83,36.23A96.1,96.1,0,0,0,319.4,419c-.38-.88-2.23,0-3,0-.55.11-1.23.42-1.2,1.09,0,7.46-.3,15,1.14,22.34.13.82.37.88,1.06.76A25.29,25.29,0,0,0,320.59,442.62Z" fill="#fdfdfd"/>
    <path d="M209.14,406.6c5.15,11.59,3.46,36.15,1.65,48.95-1,2.92-14.86,1.86-17.86,1.62-2.08-6.36-2-13.26-2.34-19.89-.6-9.21.22-18.41,1-27.59.24-.84-.23-3.05.64-3.34C197.85,405.76,203.52,406.37,209.14,406.6Zm-9.47,36.69c1.13-.33,3.8,0,4.15-1.06a105.55,105.55,0,0,0-1-21.46c-.35-3.1-.84-2-3.35-1.75a1.31,1.31,0,0,0-1.23,1.62C198.22,428.22,198,435.83,199.67,443.29Z" fill="#fdfdfd"/>
    <path d="M269.78,418.28a83.12,83.12,0,0,0,1.35,24.93,4.74,4.74,0,0,0,2.37-.3c.8-2-.9-8.87-.19-9.82,1.7-.23,6.77-.8,7.25,1.31.49,6.65-.14,13.55-.85,20.2-.27.79,0,2.25-.93,2.54a53.53,53.53,0,0,1-5.38.23c-.95,1.43,0,1.68,1.15,2.34.59.42,1.67.43,1.9,1.21a20.29,20.29,0,0,1,.37,4.78c-2.1,1.21-4.18,2.39-6.24,3.59-1.68.62-3.63-1.58-4.61-2.82,1.51-1.46,3.66-2,5.26-3.41.75-.75-2.55-1.45-3-1.85-1.6-.43-.14-2.36.09-3.42s-3.23-.37-3.92-.64c-1.53-5.59-1.55-11.5-1.95-17.26a201.07,201.07,0,0,1-.22-22.23c.23-1.68.5-10.6,1.83-10.91,4.76-.92,9.68-.53,14.47,0a2.65,2.65,0,0,1,1.37.42,100.59,100.59,0,0,1,.9,19.47c-.07.53.14,1.38-.51,1.58a10,10,0,0,1-6.66-.35c-.59-.52-.26-1.49-.36-2.2a39.13,39.13,0,0,0-.38-4.83C272.15,418,272.81,417.21,269.78,418.28Z" fill="#fdfdfd"/>
    <path d="M216.48,407.59c3.9-1.17,8.11-1.07,12.17-.9,3.63.33,6.69,1.56,6.44,5.75a77.47,77.47,0,0,1-1,17.87c-.23,2.38-2.39,1.87-3.44,3.13,1.35,1.31,4.19,1.53,4,3.93-.15,6.55.84,13.43-.57,19.82-2.42.26-4.9.14-7.35.27-1.15,0-.47-3.24-.65-4.12-.26-1.74,1.45-16.83-2-14.22,0,5.93.23,11.83.38,17.76a58.44,58.44,0,0,1-7,1.18c-.84.16-.78-.86-.8-1.42C216,440.31,215.43,423.9,216.48,407.59Zm7.53,15.1c0,1.87,0,3.6,0,5.33,0,2.23-.14,1.7,2.06,2.27,1.7-1.77,1.11-11.49.82-14.21-.26-.93-2.23.08-3,.05-.39.2-.21.79-.24,1.15C223.8,419.13,223.91,421,224,422.69Z" fill="#fdfdfd"/>
    <path d="M254.15,406.78c1.42,7.27,1.87,14.81,3,22.17,1.15,9.25,2.65,18.5,3.17,27.81-2.93.51-6.21.08-9.25.25a.65.65,0,0,1-.64-.52c-.76-3.69-1.08-7.46-1.63-11.18-.36-1.11.06-4-1.41-4.09-.41-.05-1.07-.25-1.29.2-.18,1-.38,2-.46,3-.47,4.25-.35,8.62-1.11,12.82-1.52.43-3.24.07-4.84.18-.71-.1-1.66.24-2.16-.39.21-4.82.54-9.67.86-14.5.69-10.33,1.61-20.64,2.58-31,.29-1,0-4.8,1-4.86C246,406.62,250.15,406.18,254.15,406.78ZM248,417.13c-.94,3.44-.61,7.14-1,10.68-.2,2.35-.65,3.23,2.28,2.9,1.31,0-.15-5-.06-6.08C248.92,422.15,248.53,419.67,248,417.13Z" fill="#fdfdfd"/>
    <path d="M295.92,457c-1.3-4.93-1.52-10.1-2.36-15.13,0-.63-2.11-1-2.24-.33-.78,4.78-.79,9.65-1.25,14.47-.12.51,0,1.41-.72,1.44-1.79,0-3.59,0-5.38,0-.36,0-.94.08-1.11-.32.27-9.08,1-18.16,1.75-27.21.48-5.43.87-10.85,1.47-16.27.32-1.19.14-6.78,1.09-6.89a84.47,84.47,0,0,1,12-.05c.56.19.49.89.59,1.37,1.59,13.06,3.42,26.08,5,39.14.34,3,.61,5.95.9,8.93,0,.28.05.63-.26.77C302.23,457,299.1,457.05,295.92,457Zm-2.63-39.72c-1.06,4.13-.73,8.44-1.15,12.66.06,1.15,1.77.85,2.56.76,1-.45.09-2.3.14-3.17C294.42,424.07,294,420.63,293.29,417.25Z" fill="#fdfdfd"/>
    <path d="M176.5,418.32a92.37,92.37,0,0,0,1.3,24.62.54.54,0,0,0,.54.37c.66-.25,1.72-.08,2.14-.67.05-3-.4-6.08-.59-9.12-.13-1.06,3.51-.44,4.31-.6,2,0,3.49.61,3.32,2.91-.29,7,.22,14.41-1.66,21.21-4.58.71-9.34.12-14,.18-.33,0-.78-.06-.89-.4-1.51-6.91-1.62-14-2-21.05-.45-9.49-.47-19.06,1.19-28.45,1.78-2,13.54-1,16.39-.25A85.69,85.69,0,0,1,187.7,422c0,1.85-.14,3.71-.23,5.56,0,.44-.17.6-.64.72a10.47,10.47,0,0,1-6.34-.33c-.94-.67-.34-3.8-.61-5a15.11,15.11,0,0,0-1-4.89C178.2,417.47,177.3,418.16,176.5,418.32Z" fill="#fdfdfd"/>
    <path d="M106.36,109.61C91.6,101.4,86.11,86.5,90.81,70.38c6.6-21.33,28.28-35.79,50.3-35.76,1-1.18,1.15-2.77,1.79-4.15a38.9,38.9,0,0,1,21-20.58C178.29,3,200,7.08,204.07,24.48c.19.53,0,1.54.73,1.67a18.86,18.86,0,0,0,3.48-.79,91.91,91.91,0,0,1,10.82-1.59c7.26-.78,14.46,1.3,21,4.29,7,3,12.26,9.32,15.41,16.12,9.38,21-6,43.63-24.49,53.47,1.07.85,2.76.65,4.09.88,21.34,2.41,41.7,14.81,52.55,33.5,12.66,22.06,10.5,50.5-1.78,72.26-16.34,29.23-45.57,47.11-71.28,67.17-27.45,21.94-41.21,46.08-33.25,81.72-.84,8.6-10.54,3.61-15.71,2.16a232.09,232.09,0,0,1-33.89-13.65c-41.41-20.81-80.53-53.91-93.12-100.12C23.32,185.29,54.33,132.38,106.36,109.61Zm82.12,34.14c-33.93,8.54-38.89,48.54-48.81,76.75-4.29,13.65-9,26.48-23.83,31.44-2.69.91-5.38,2.47-4.38,5.82,1,3.72,5.17,5.21,8.63,5.64,13.73,1,23.2-7.48,27.14-20.11,4.84-13.57,8.74-27.43,12.6-41.31.48-2.77,3-5.47,6-4.17,2.15.91,1.48,3.63,1.41,5.48-.58,4.87-1.57,9.68-2.34,14.52-.71,4.31-1.32,8.63-2.12,12.92-.4,1.8.14,4.1,2.23,4.39,7.49,1,8.67-9.15,15.16-10.67,8.71-1.25,19.73-3.19,23.18-12.56,3.14-7.81,4.32-16.16,5.24-24.47.5-3,.41-6.14,1.47-9,1.46-3.08,3.9-1,4.47,1.44,1.12,4.15,2.52,8.23,3.77,12.34,1.81,4.94,4.78,7.28,9.5,3.7,9.11-7.67,10.43-26.51,12.47-37.75.83-5.93,2.59-11.66,4.13-17.43,1.18-5.21,4.2-9.6,6.42-14.36,0-2.19-3.29-1.52-4.58-.78-9,4.1-15,12.87-17.83,22.1-1.06,3.49-1.8,7.06-2.52,10.63-.49,2.41-1,4.81-1.46,7.21-.12,1.28-1,3.45-2.58,2.05-1.24-1.32-1.28-3.32-1.89-5q-2.07-6.94-4.16-13.91c-1.06-2.39-1.73-8.9-4.3-9.48-4.4-1.28-6.1,3.21-7.6,6.46-7,14.39-8.94,30.49-11.45,46.11-.61,4.14-1.17,8.29-1.79,12.43-1.08,4.58-.14,13-6.62,13.25-3.84-.34-2.14-7.74-2.34-10.42.28-5.61.75-11.23,1.57-16.79,2-11.48,4.16-22.94,6.48-34.36.6-2.93,1.27-5.84,1.89-8.77C192.33,144.48,191.1,143.73,188.48,143.75Zm78.69,35.66h0c.28,2.75-1.09,7.59,2.56,8.52,5.36.93,9.2-4,10.37-8.68,1.35-8.61.05-17.69-2.15-26.08-2.42-7.89-6.52-15.6-13.18-20.69-1.94-1.39-4.34-3.18-6.84-2.39-6.73,2.79-7.35,15.74-9,22.14-1.7,9.1-2.65,18.35-4.77,27.37-3.91,16-15.8,28.88-28.78,38.39-17.45,12.43-37.88,19.76-55.54,31.74-4.7,3.69-9.34,8-11.37,13.79-2.69,7.14-2.15,15.69,3.59,21.19a3.37,3.37,0,0,1-1.21,4.92c-2.36,1.65-4.72,3.28-7.17,4.78-6.41,3.85-15.7,9-22.17,2.66-5.27-5.07,1.55-13.63,6.55-13.27,2.61.05,5-1.13,5.57-3.79,1.25-5.61-5.81-5.2-9.33-4-14.87,3.91-19.91,26.27-3.22,31.62,13.67,4.84,29.06-12.15,29.42-6.24-1.28,3.93-4.26,7.3-4.58,11.58-1.31,7.88,6.63,13.11,13.65,11.15a12.3,12.3,0,0,0,8.84-6.66c1-2.12,2.53-5.27.32-7.11-2.45-2-4.76,1.05-5.38,3.23a6.61,6.61,0,0,1-6.1,4,4.41,4.41,0,0,1-4.36-2.85c-.69-1.5.35-3,.68-4.49,2.58-6.43,8.11-11.25,12.44-16.54,3.71-4.16,8.33-7.4,12.07-11.51,1.78-2.79,5-5.78,4-9.37-.77-2.59-4.13-3.27-6.27-2-1.62.82-2.23,2.59-3.21,4a10,10,0,0,1-7.38,4.22c-8.22,1-9.31-9.48-6-15,4.73-8.19,13.6-12.56,21.8-16.54,25-12.86,54.2-23.17,70.38-47.63,3.79-6.54,6-13.84,7.48-21.21.49-1.93.5-4.19,2.11-5.59,1.44-1.75,6.24-1.74,6.15,1.64C267.15,176.29,267.17,177.85,267.17,179.41ZM217.74,45.9a11.07,11.07,0,0,0-6.89-8.36c-8.42-3.49-18.29.66-22.65,8.45a3,3,0,0,0,1.3,4.51c5.93,2.39,6-8.26,15.9-6.21,2.82.65,4.15,3.85,3.86,6.51-.47,10-18.71,16.75-26.72,20.6-2.33,1.37-3.91,0-4.87-2.2a59,59,0,0,0-4.59-7.48c-4.29-6.61-12.17-16.88-7.15-24.73,2.34-3.68,6.85-6.69,11.23-4.71,5.74,3,1.09,7.32,4.55,9.68,4.81,2.08,7.39-3.46,6.74-7.78-.48-8.27-10.38-11.53-17.37-9.53a21.26,21.26,0,0,0-8.91,5.52c-4.89,4.58-6.36,11.67-4.68,18C160.82,62.3,174.81,66.94,174,84.08c-.61,4.39-2.59,16.9-8.89,15.18a1.85,1.85,0,0,1-1.53-1.93c1-4.53,3.66-8.6,3.92-13.36,1.1-5.64-2.66-11.5-8.15-13.39-6.1-1.81-12.85.7-17.22,5.09a14.09,14.09,0,0,0-4,10.62c.11,1.52.63,3.72,2.37,4,3.38.4,5.63-2.08,5.2-5.38,1-10.29,17.56-10,14.21,2.33a28.65,28.65,0,0,1-2.59,6.67c-1,2-3.49,2.4-5.47,2-6.67-1.35-13.41-2.46-20-4.16-5.12-1.64-13.46-4.12-14.79-10-.82-3.93-.24-8.47,2.8-11.34,3.9-3.77,10.85-5.84,15.61-2.58,1.57,1.35,3.22,3.26,5.5,3A6.56,6.56,0,0,0,146.47,67c1.77-3.43-1.67-6.71-4.47-8.26-11.8-6.08-27.27.87-33.34,12-3.24,6.16-3.14,14.51,1.52,19.93,9.89,10.46,25.72,10.61,39.09,12.52,9.29,1.7,20,4.24,25.26,12.85,1,1.52,1.9,3.79,4.11,3.38a3.72,3.72,0,0,0,3.49-3.09c.34-1.37-.11-3,.74-4.18a42.55,42.55,0,0,1,5.48-6.85c3.17-3.34,7.79-6.17,12.44-4.2,4.43,1.47,4.36,7.9.9,10.51-1.48,1.33-3.88,1.83-4.47,3.94a2.67,2.67,0,0,0,1.49,3.72c2.39,1.17,5.08-.71,7.09-1.94a16.21,16.21,0,0,0,6.71-9.24A12.58,12.58,0,0,0,210.68,98c-3.45-4.86-10.47-5.54-15.87-4.21-4.27,1.1-7.89,3.79-11,6.86-1.94,1.75-3.43,4.11-5.77,5.34-1.61.76-3.35-1.36-2.48-3a20.21,20.21,0,0,1,2.9-4.09,49.09,49.09,0,0,1,13-9.74c13.75-7.91,31.51-9.17,42.66-21.22C245.66,54.31,233.8,40.06,217.74,45.9ZM48.63,212.49C47.27,241,62,269.62,87.91,282.25c5.18,2.9,14.53,1.86,13.77-5.73a47.76,47.76,0,0,1-.55-5.35c-2.55-30.6,2.55-61.83,16.17-89.45,3.15-6.58,6.29-13.17,9.88-19.52.66-1.35,2.59-3.3.85-4.54-5.22-2.41-13.68,5.72-17.08,9.32-17.45,18.15-20.72,44.47-23.28,68.45-.39,3.87-.8,7.73-1.2,11.6-.31,2.28-.32,4.76-1.68,6.71-2.23,3.3-6.83,2.3-9.1-.85-11.9-13.49-16.26-42.56-11-59.53,1.33-4.48,6.54-14.13,12.06-9.45.82.86,1.52,1.85,2.42,2.63,3.55,1.86,7-4.82,8-7.58a10.71,10.71,0,0,0,.35-5.15c-2.12-10.31-15.22-9.91-21.64-3.8C54.38,180.29,49.41,197.73,48.63,212.49ZM157.7,123c-7.32.26-15.2,4.4-17.55,11.69-5.17,14.61,14.28,14.78,15,2.07.47-4.65,7.45-6.38,8.6-1.83,1.19,8.09-6.34,14.37-13.67,15.73-10,2.21-14.48,12.35-18.65,20.65a203.4,203.4,0,0,0-19,53.89c-.6,2.81-1.15,5.62-1.54,8.47-.28,3.23-1.57,6.55-.48,9.74,1.75,3.58,7.67-.44,9.31-2.52,5.5-5.84,8.54-13.43,10.7-21.05,7.16-22,11.51-46,25.94-64.64,3.84-5.15,9.19-9.29,11.9-15.2C171.87,131.59,167.48,122.64,157.7,123Z" fill="#fdfdfd"/>
    <path d="M74.22,441.58a2.72,2.72,0,0,0-1.58-.45c-.76,0-.63,1.05-.79,1.57-.48,4.58-.77,9.17-1.12,13.76,0,.4,0,.93-.57,1h-6.1c-.42,0-.55-.37-.52-.76q.15-3.67.39-7.34c.61-9.43,1.35-18.85,2.16-28.26.34-3.63.71-7.26,1-10.89.25-.84-.11-3.33.85-3.43a81.47,81.47,0,0,1,12,0c.75.55.43,1.81.68,2.65,1.22,10.39,2.71,20.74,4,31.12.64,5.28,1.25,10.57,1.76,15.87,0,.35-.15.59-.48.59l-8.79.08c-.3,0-.63-.1-.68-.43C75.43,451.65,75.13,446.52,74.22,441.58Zm-.49-24.25c-.4,3.92-.61,7.8-.81,11.73-.48,1.85,1.2,1.86,2.55,1.59,1-.21-.59-7.22-.56-8.52C74.56,420.83,74.66,418.2,73.73,417.33Z" fill="#fdfdfd"/>
    <path d="M50.37,418.34c-.34,8.22-.36,16.53,1.38,24.6.47.85,1.86,0,2.55-.05a1.56,1.56,0,0,0,.17-1.13c-.18-2.62-.39-5.25-.61-7.87,0-.81,0-.93.88-.95a25.62,25.62,0,0,1,5.18.19c2.56.73,1.22,4.49,1.5,6.46-.28,5.81,0,11.87-1.6,17.48-4.68.6-9.44.07-14.15.15-.64,0-.73-.23-.82-.74a181.83,181.83,0,0,1-1.52-43.29,52.61,52.61,0,0,1,.89-6c.75-.79,2.17-.64,3.2-.83,1.69,0,13.83-.61,13.31,1.52a96.77,96.77,0,0,1,.69,19.69c0,.45-.17.61-.63.73A11,11,0,0,1,54.6,428c-.86-.31-.58-1.34-.66-2.06-.11-2.65,0-5.47-1.1-7.94C52.13,417.46,51.27,418.17,50.37,418.34Z" fill="#fdfdfd"/>
    <path d="M17.16,456.94c-1.72.74-3.7.27-5.53.41-.91-.18-4,.29-4.2-.73-.12-7.89-.18-15.79-.51-23.69.18-8.61-1.28-17.87-.19-26.19,6.43-.48,13.15-.93,19.46.25.38,2.48,0,5,0,7.52-.08,1.09-.16,1.81-1.47,1.54-2.09-.09-4.18-.2-6.27-.26-1.46,0-1.48,0-1.64,1.46-.2,1.14-.26,6.06.14,5.83,1.21.55,8.14-.6,7.76.9-.26,3.28-.23,6.61-1.07,9.81-2,.39-3.93.06-5.92.25C16,441.51,17.82,449.39,17.16,456.94Z" fill="#fdfdfd"/>
    <path d="M30,457.67a.84.84,0,0,1-.29-.72c.05-2,.12-3.94.14-5.92.17-9-.33-17.94-.64-26.9a168.28,168.28,0,0,1,.13-17.4.55.55,0,0,1,.58-.55c2.46-.07,4.9.19,7.34.36.58,0,1.19-.15,1.73.22.29,16.71.09,33.5,0,50.23C38.29,458.24,31.8,457,30,457.67Z" fill="#fdfdfd"/>
    <path d="M147.5,406.63c5,11.74,3.57,36.7,1.43,49.52-5.55,2.2-11.87,1.38-17.7,1-1.52-4-1.55-8.35-2-12.56-1-12.5-.27-25,.82-37.45C129.12,405.05,145.63,406.61,147.5,406.63Zm-5.43,35.91a99.12,99.12,0,0,0-1.21-23.27c-.19-1.25-1.81-.33-2.63-.35-.92.16-1.87.52-1.65,1.64-.1,7.47-.23,15,1.29,22.33C137.89,443.72,141.55,442.76,142.07,442.54Z" fill="#fdfdfd"/>
    <path d="M125.15,407.16c-.63,16.17-.16,32.38-.11,48.57,0,.82.16,1.77-1,1.49-2.07-.29-4.19-.12-6.25-.26-1.65-2.82-2.42-6.24-3.59-9.32-.41-.77-1-4.18-1.72-4.22-.23,4.6.58,9.3.09,13.84a18.07,18.07,0,0,1-7.14,0c-.7-16.2-.52-32.58-.93-48.84,0-1.7-.12-1.69,1.65-1.68,1.61,0,3.23.05,4.84.08.42,0,.62.19.7.66,1.34,7.17,2.41,14.39,4.31,21.44.2.85.68,2.89,1,.73.37-7.59.16-15.19,0-22.79a.52.52,0,0,1,.51-.4C120,406.67,122.81,406.08,125.15,407.16Z" fill="#fdfdfd"/>
    <path d="M70.69,540.24c0,4.08,0,8.29-.35,12.45a.56.56,0,0,1-.48.46c-2.24.37-4.49.67-6.74,1-.9-.14-.63-1.83-.9-2.52a132.54,132.54,0,0,1-2-21.59c0-6,.08-12,0-17.95,0-.61-.17-1.47.49-1.79A14.86,14.86,0,0,1,66.31,509c1.61-.11,1.65-.32,1.92,1.47A183.83,183.83,0,0,1,70.69,540.24Z" fill="#040303"/>
    <path d="M111.43,530.45l-3.9-1c-.49-3.9,0-7.92-.17-11.88-.06-4.13-.27-8.25-.68-12.36a.86.86,0,0,1,.17-.73c1.14-.36,2.4-.47,3.61-.76.66,0,2-.79,2.21.16C113.29,510.07,114.17,525.28,111.43,530.45Z" fill="#040303"/>
    <path d="M272,505.36c1.63,6.16,2.23,12.28,3.06,18.55-.06,1.21,1.3,6.64.34,7a6.54,6.54,0,0,1-5.25-.39C270.65,522.07,270.83,513.75,272,505.36Z" fill="#040303"/>
    <path d="M21.49,536.35c-.3-7.8-.74-15.24-1.29-23-.15-2.81-.45-5.61-.51-8.41a.41.41,0,0,1,.36-.34,45.4,45.4,0,0,1,5.23.12c.92,8.41,1.72,17,1.87,25.48C26.55,537.09,28.48,536.26,21.49,536.35Z" fill="#040303"/>
    <path d="M320.59,442.62a25.29,25.29,0,0,1-3.2.58c-.69.12-.93.06-1.06-.76-1.44-7.37-1.15-14.88-1.14-22.34,0-.67.65-1,1.2-1.09.76,0,2.67-.84,3,0A96.2,96.2,0,0,1,320.59,442.62Z" fill="#040303"/>
    <path d="M199.67,443.29c-1.67-7.46-1.45-15.07-1.4-22.65A1.31,1.31,0,0,1,199.5,419c2.49-.23,3-1.37,3.35,1.75a105.55,105.55,0,0,1,1,21.46C203.47,443.26,200.81,443,199.67,443.29Z" fill="#040303"/>
    <path d="M224,422.69c-.1-1.71-.21-3.56-.32-5.41,0-.36-.15-.95.24-1.15.73,0,2.7-1,3-.05.29,2.72.89,12.43-.82,14.21-2.2-.57-2.08,0-2.06-2.27C224,426.29,224,424.56,224,422.69Z" fill="#040303"/>
    <path d="M248,417.13c.56,2.54.95,5,1.25,7.5-.09,1.07,1.37,6.09.06,6.08-2.88.34-2.5-.57-2.28-2.9C247.36,424.27,247,420.57,248,417.13Z" fill="#040303"/>
    <path d="M293.29,417.25c.75,3.38,1.13,6.82,1.55,10.25,0,.87.84,2.72-.14,3.17-.79.1-2.5.38-2.56-.76C292.56,425.69,292.23,421.38,293.29,417.25Z" fill="#040303"/>
    <path d="M188.48,143.75c2.57,0,3.87.64,3.14,3.37-.62,2.93-1.29,5.84-1.89,8.77-2.32,11.42-4.45,22.88-6.48,34.36-.82,5.56-1.29,11.18-1.57,16.79.2,2.73-1.51,10,2.34,10.42,6.49-.26,5.54-8.67,6.63-13.25.61-4.14,1.17-8.29,1.78-12.43,2.51-15.62,4.44-31.73,11.45-46.11a41.9,41.9,0,0,1,2.39-4.61c1.49-2.32,5.09-2.91,6.74-.68,2.8,7.2,4.56,14.85,6.93,22.22.62,1.64.64,3.65,1.89,5,1.57,1.4,2.46-.77,2.58-2.05,2.63-15.12,6.35-33,21.81-39.94,1.39-.81,4.51-1.35,4.58.78-2.22,4.76-5.24,9.15-6.42,14.36-1.54,5.77-3.3,11.5-4.13,17.43-2,11.24-3.36,30.06-12.47,37.75-1.88,1.38-4.91,2.77-6.82.71-3.16-3.31-3.61-8.13-5.13-12.28-.91-2.3-1-5-2.69-6.94-4.29-2.88-4,7.75-4.57,10-.52,4.15-1,8.31-1.75,12.43-1.49,6-2.73,13.85-7.65,18-5.27,4.67-12.36,5.54-19,6.61-4.51,1.16-6.3,5.84-9.37,8.81-2.06,2-7.4,3.34-8.08-.56.7-8.11,2.57-16.19,3.78-24.26.14-2.65,2.39-9.33-.67-10.63a3.81,3.81,0,0,0-4.17.73,5.46,5.46,0,0,0-1.38,2.07c-2.33,7.78-4.41,15.65-6.69,23.44-1.29,4.49-2.83,8.89-4.34,13.3-1.76,5.07-3.16,10.33-6.19,14.84s-7.18,8.43-12.53,9.89c-5.18,1.58-11.14,2.4-16-.49-2.17-1.19-3.76-3.82-3-6.31.54-2,2.68-2.57,4.39-3.34,14.82-5,19.54-17.79,23.83-31.44C149.58,192.3,154.56,152.28,188.48,143.75Zm-22.2,42.58c3.17.22,5.17-2.34,5.7-5.14l2.76-12.58c.34-1-.1-2.11-1.28-1.91-3.55,1.18-5.64,5.06-7.06,8.33-.92,2.53-1.59,5.13-2.27,7.72C163.59,184.66,164,186.44,166.28,186.33Z" fill="#040303"/>
    <path d="M267.17,179.41c-.33-2.33,1-5.82-1.5-7.11-2.88-1.31-5.44.73-6.08,3.24-2.28,11.28-5.41,23.16-13.64,31.66-18.72,20.87-45.91,30.32-70.2,43-6.4,3.3-12.83,7.53-16.5,13.91-3.32,5.47-2.25,15.94,6,15a10,10,0,0,0,7.38-4.22c1-1.41,1.59-3.18,3.21-4,2.14-1.31,5.5-.61,6.27,2,1,3.6-2.24,6.57-4,9.37-3.74,4.11-8.36,7.35-12.07,11.51-4.33,5.29-9.86,10.11-12.44,16.54-.34,1.48-1.37,3-.68,4.49a4.41,4.41,0,0,0,4.36,2.85,6.61,6.61,0,0,0,6.1-4c.62-2.18,2.93-5.24,5.38-3.23,2.21,1.85.65,5-.32,7.11a12.3,12.3,0,0,1-8.85,6.66c-7,1.94-15-3.25-13.64-11.15.33-4.29,3.3-7.65,4.58-11.58-.41-5.9-15.73,11.08-29.42,6.24-16.66-5.36-11.69-27.67,3.22-31.62,3.53-1.17,10.57-1.56,9.33,4-.58,2.65-3,3.86-5.57,3.79-4.94-.4-11.87,8.24-6.55,13.27,6.48,6.35,15.76,1.18,22.17-2.66,2.45-1.5,4.81-3.13,7.17-4.78a3.38,3.38,0,0,0,1.21-4.92c-5.76-5.57-6.28-14-3.59-21.19,2-5.78,6.67-10.1,11.37-13.79,17.66-12,38.09-19.31,55.54-31.74,13-9.51,24.87-22.39,28.78-38.39,2.12-9,3.07-18.27,4.77-27.37,1.66-6.54,2.22-19.29,9-22.14,2.51-.81,4.89,1,6.84,2.39,6.66,5.09,10.76,12.8,13.18,20.69,2.21,8.38,3.49,17.47,2.15,26.08-1.07,3.74-3.39,7.81-7.51,8.6-1.43.17-3.36.51-4.38-.79-1.7-2.15-.84-5.12-1-7.65Zm-4.56-14.61a4.22,4.22,0,0,0,4.43-4.33c-.35-3.38-.67-7.05-2.53-10-1.89-2.57-2.82-.86-3.07,1.48-.46,3.2-.9,6.39-1.35,9.59C259.75,163.28,260.67,165,262.61,164.8Z" fill="#040303"/>
    <path d="M217.74,45.9c16-5.82,28,8.34,16.42,22C223,79.94,205.25,81.2,191.5,89.11c-5.94,3.3-11.93,7.32-15.56,13.21-1.44,1.61.13,4.52,2.13,3.65,2.34-1.23,3.83-3.59,5.77-5.34,3.08-3.07,6.7-5.76,11-6.86,5.41-1.33,12.42-.65,15.87,4.21a12.58,12.58,0,0,1,1.83,10.1,16.21,16.21,0,0,1-6.71,9.24c-2,1.25-4.71,3.1-7.09,1.94a2.67,2.67,0,0,1-1.49-3.72c.59-2.11,3-2.62,4.47-3.94,3.46-2.61,3.53-9-.9-10.52-4.66-2-9.27.87-12.44,4.21a42.55,42.55,0,0,0-5.48,6.85c-.85,1.22-.4,2.8-.74,4.18a3.72,3.72,0,0,1-3.49,3.09c-2.22.41-3.1-1.86-4.11-3.38-5.28-8.61-16-11.15-25.26-12.85-13.37-1.9-29.2-2.06-39.09-12.52-4.66-5.42-4.75-13.77-1.52-19.93,6.06-11.15,21.54-18.1,33.34-12,2.79,1.55,6.25,4.83,4.47,8.26A6.56,6.56,0,0,1,141,70.81c-2.28.28-3.93-1.63-5.5-3-4.76-3.26-11.7-1.19-15.61,2.58-3,2.87-3.63,7.41-2.8,11.34,1.33,5.9,9.68,8.35,14.79,10,6.6,1.69,13.34,2.8,20,4.15,2,.41,4.49,0,5.47-2A28.65,28.65,0,0,0,160,87.25c3.35-12.35-13.23-12.62-14.21-2.33a4.51,4.51,0,0,1-5.2,5.38c-1.75-.29-2.24-2.5-2.37-4a14.09,14.09,0,0,1,4-10.62c4.36-4.39,11.12-6.9,17.22-5.09,5.5,1.9,9.24,7.75,8.16,13.39-.27,4.75-3,8.83-3.93,13.36a1.86,1.86,0,0,0,1.53,1.93c6.31,1.72,8.28-10.8,8.89-15.18.76-17.14-13.2-21.75-16.56-35.87-1.67-6.37-.2-13.46,4.69-18a21.26,21.26,0,0,1,8.91-5.52c7-2,16.89,1.27,17.37,9.53.65,4.33-1.93,9.85-6.74,7.78-3.46-2.37,1.19-6.69-4.55-9.68-4.38-2-8.88,1-11.23,4.71-5,7.83,2.87,18.14,7.15,24.73a59,59,0,0,1,4.59,7.48c1,2.17,2.55,3.57,4.87,2.2,8-3.86,26.24-10.54,26.72-20.6.3-2.67-1-5.86-3.86-6.51-9.9-2-10,8.61-15.9,6.21A3,3,0,0,1,188.2,46c4.36-7.79,14.24-11.94,22.65-8.45A11.07,11.07,0,0,1,217.74,45.9Zm12,12.3c.53-4.71-4.87-6.81-8.72-5.43a8.5,8.5,0,0,0-5.3,3.7,31.27,31.27,0,0,1-5.29,6.08c-6.67,6-15,9.55-23.18,13a18.69,18.69,0,0,0-4.3,2.55c-2.05,1.43-1.75,5.13.83,5.71,2.16.61,4.26-.25,6.21-1.14,3.36-1.57,6.89-2.7,10.35-4C209.48,74.69,229.74,70.37,229.79,58.2Z" fill="#040303"/>
    <path d="M48.63,212.49c.78-14.76,5.75-32.19,17.24-42.48,6.42-6.09,19.52-6.53,21.64,3.8a10.71,10.71,0,0,1-.35,5.15c-.89,2.7-4.41,9.47-8,7.58-.9-.78-1.6-1.77-2.42-2.63-5.53-4.69-10.72,5-12.06,9.45-5.3,17-1,46,11,59.53,2.2,3.09,6.93,4.18,9.1.85,1.36-2,1.37-4.43,1.68-6.71.4-3.87.81-7.73,1.2-11.6,2.56-24,5.84-50.31,23.28-68.45,3.44-3.65,11.88-11.71,17.08-9.32,1.75,1.22-.22,3.21-.85,4.54-3.59,6.35-6.74,12.94-9.88,19.52-13.62,27.62-18.72,58.85-16.17,89.45a47.76,47.76,0,0,0,.55,5.35c.76,7.54-8.58,8.66-13.77,5.73C62,269.61,47.28,241,48.63,212.49Z" fill="#040303"/>
    <path d="M157.7,123c9.77-.32,14.17,8.56,10.49,17-2.71,5.91-8.06,10.05-11.9,15.2-14.43,18.66-18.78,42.67-25.94,64.64-2.16,7.62-5.2,15.21-10.7,21.05-1.75,2.2-7.51,6-9.31,2.52-1.09-3.19.2-6.51.48-9.74.39-2.85.94-5.66,1.54-8.47a203.4,203.4,0,0,1,19-53.89c4.17-8.29,8.68-18.44,18.65-20.65A18.47,18.47,0,0,0,161.2,144a11.91,11.91,0,0,0,2.52-9.08,3.23,3.23,0,0,0-2.83-2.61c-3.7-.5-6,2.74-6.08,6.57-1.17,8.33-16.34,10.37-15.43-.16a15.58,15.58,0,0,1,6.16-11.49A21.72,21.72,0,0,1,157.7,123Z" fill="#040303"/>
    <path d="M73.73,417.33c.93.87.83,3.5,1.18,4.8,0,1.3,1.52,8.32.56,8.52-1.35.26-3,.27-2.55-1.59C73.12,425.13,73.33,421.25,73.73,417.33Z" fill="#040303"/>
    <path d="M142.07,442.54c-.54.24-4.18,1.16-4.2.35-1.52-7.35-1.39-14.86-1.29-22.33-.22-1.11.73-1.49,1.65-1.64.82,0,2.44-.89,2.63.35A99.12,99.12,0,0,1,142.07,442.54Z" fill="#040303"/>
    <path d="M166.28,186.33c-2.3.11-2.7-1.65-2.15-3.58.68-2.59,1.35-5.19,2.27-7.72,1.42-3.28,3.51-7.15,7.06-8.33,1.17-.19,1.62.92,1.28,1.91L172,181.19C171.45,184,169.45,186.54,166.28,186.33Z" fill="#fdfdfd"/>
    <path d="M262.61,164.8c-1.94.19-2.86-1.52-2.52-3.24.45-3.2.89-6.39,1.35-9.59.25-2.32,1.18-4.07,3.07-1.48,1.86,2.93,2.18,6.6,2.53,10A4.22,4.22,0,0,1,262.61,164.8Z" fill="#fdfdfd"/>
    <path d="M229.79,58.2c0,8.84-10.27,12.87-17.16,15.85-8.36,3.23-16.83,6.17-25.09,9.65-2.16.78-5.64.41-5.88-2.42A3.41,3.41,0,0,1,183,78.13a18.69,18.69,0,0,1,4.3-2.55c8.15-3.48,16.51-7.07,23.18-13a31.27,31.27,0,0,0,5.29-6.08,8.5,8.5,0,0,1,5.3-3.7C224.92,51.4,230.33,53.49,229.79,58.2Z" fill="#fdfdfd"/>
  </g>
</svg>
