<svg xmlns="http://www.w3.org/2000/svg" width="386.65" height="594" viewBox="0 0 386.65 594">
  <g>
    <path d="M121.35,594h-2.56c-.14-.43-.59-.55-1-.7-2.27-.56-3.72-2.16-5.22-3.81-11.83,4.15-24.47,3-36.74,2.31a8.84,8.84,0,0,1-7.84-7c-2-6.49-2.33-13.28-3.42-19.92-2,.84-3.74,1.77-5.93,1.66-.44,0-1.15,0-1.21.6-.22,5.24,0,10.5-.1,15.74-.16,6.46-6.88,9.13-12.46,9.38-7.35.35-19.69.86-19.9-9.22-.51-28.52-1.5-57.06-.29-85.57.07-6.63.39-14.3,8.09-15.1,7.85-.14,15.76-.53,23.61-.2a25.63,25.63,0,0,1,9.51,3.52c.58.49,1.15.59,1.53-.16,2.52-3.77,5.06-3.39,8.74-4.45-1.28-.7-3.08-.92-4.5-1.43a14.47,14.47,0,0,1-7.33,2c-3.08-.16-6.33.31-9.29-.71-3-.59-6.22.33-9.31-.28-7.18.46-18.12,3.16-21.17-5.79-.9-3.44-.12-7.07-.17-10.59.49-10.92.89-21.84,1.26-32.76q.39-11.06.76-22.12A8.9,8.9,0,0,1,34,399.81c5.36-.68,11.26-1.55,16.38.59,1.41.71,2.9-.16,4.37-.12,4.6,0,8.81-.78,13.22.79a25,25,0,0,1,10-1c1.48,0,3,.67,4.41.5a31.49,31.49,0,0,1,15.16-.23,3.14,3.14,0,0,0,1.87.08,55.67,55.67,0,0,1,13.53.18,10.67,10.67,0,0,1,4.19-.84,70.05,70.05,0,0,1,11,.56c1.91.1,3.62-1.18,5.61-.95a50.32,50.32,0,0,1,6.38.21c3.1.49,6.32-.23,9.27,1.08,7.69-2.08,15.84-1.27,23.66-.33,1.94.36,3.6-1.09,5.58-.94,4-.28,8.06.49,12.11.44a7,7,0,0,1,2.52.32c1.36.5,2.81-.09,4.21,0,6.39.23,13.07-1.21,19.23.88.78.17,1.62.91,2.41.51,3.57-2.92,8.43-2.18,12.7-1.93,2.9.26,5.83.26,8.67.57,6.13-1.49,12.61-.69,18.86-.51,7.64.69,2.2-1,7.39-5.9a2.35,2.35,0,0,0,.85-1c-.28-.94-.57-1.95-.82-2.79-1.26-.72-2.31-1.39-3.45-2-.45-.12-.78.23-1.12.46a8.6,8.6,0,0,1-5.79,1.73c-4.68-.19-9.35-.75-14-.33-2,.28-3.72-.56-5.56-1.18a11.81,11.81,0,0,1-5.15,1.76,59.51,59.51,0,0,1-10.84.36c-3-.38-6.21,0-9-1.44a1.27,1.27,0,0,0-1.4.11c-4.58,2.48-10.2,1.59-15.24,2q-11,0-21.93.05c-1.8.16-3.11-.84-4.81-1.18-3,1.42-6.54.23-9.77.29-7.94-.05-15.89-.05-23.84-.13a11,11,0,0,1-4.76-1c-5.33,0-10.9.32-16.33.25-3.82-.25-8,.78-11.51-1.12-.56-.25-1-.88-1.7-.57-4,4-10,2.19-15,2.53-3.62-.18-7.59.68-10.77-1.5a1.34,1.34,0,0,0-1-.38c-4.32,4.71-9.9,1.76-15.27,1.84-7.42-.29-18.47,2.66-20-7.61-1.44-10-2.81-20.08-4.18-30.13-1.81-13.79-3.62-27.57-5.28-41.37-.7-6.42-1.59-12.81-2.53-19.2-.8-8.59-6.61-19.58,5.29-22.58a65.4,65.4,0,0,1,15.58-2c4-.27,8.33-.3,11.22,3,2-.86,3.83-2.26,6.17-2.07,5.25-.27,10.47-.81,15.72-1a9.77,9.77,0,0,1,4.77.86c2.66.55,5.5-.36,8.24-.16a193.37,193.37,0,0,1,20.43,0,8.93,8.93,0,0,1,8.75,6.46c.52.93.57,6.92,1.25,6.64,0-5.28.18-11.72,6.21-13.53,3.85-1,7.94-.24,11.87-.61,7,.14,16.78-2,20,6.08,2.46-2.76,4.75-4.72,8.73-4.53,9.51.09,19,.21,28.52.26,3.61.17,7.27-.56,10.84,0,1.34.37,2.63-.36,4-.38,1.91-.08,3.83-.16,5.75-.16,4.75.34,9.88-.78,14.24,1.58a10.28,10.28,0,0,1,6.51-2.25c.49,0,1,0,1.48,0,.19,0,.27-.11.22-.25C220.93,260,199,253.49,177.5,246.15a10.76,10.76,0,0,1-6.83-9.91q1-36.81,0-73.65c-.2-11.44-4.12-24-14.22-30.39-7,10.14-7.07,23.37-7.45,35.28a11.25,11.25,0,0,1-4.79,8.85C129,188.24,114.49,201.07,99,212.49a4.11,4.11,0,0,0-2.07,1.74A10.7,10.7,0,0,1,85.53,218c-22.57-7.57-45.06-15.43-67.6-23.1-6.49-2.57-15.62-3.35-17.12-11.59-.08-.49-.25-1-.81-1.1v-2.13c11.54-39.07,20.7-79.88,31.5-119.5a11.2,11.2,0,0,1,7.79-7.91c1.61-3.39,3.9-6,7.61-7C98.65,30.45,150.61,15.32,202.25,0c33.25,2.47,66.68,5.57,100,8.23,12.08,1.06,24.17,2,36.24,3,5.74,1,13.3-.42,17.63,4,4.5,3.11,7.23,3.47,8.79,9.65,7.22,23.47,14.64,47,21.7,70.45-.14,1.72.33,3.64-.27,5.25C378.07,118.2,367.26,134.81,358,152c-3.61,5.61-9.05,5.42-13.69,4.53-5.87.81-11.33-2.75-17-3.93.6,11.38,3.7,23.15,5.8,34.53a11.21,11.21,0,0,1-1.16,8.23q-7.31,12.85-14.63,25.7c-8.7,15.37-17.54,30.65-26.16,46.07a.45.45,0,0,0,.33.64q5.73.48,11.4,1.38a9.52,9.52,0,0,1,5.09,2.87c4.55-3.78,5.18-3.39,11.09-3.73a216.2,216.2,0,0,1,22.34,0c10.55.3,9.19,10.79,10.41,18.39q2.08,16.47,4.28,32.91c2.56,20.54,5.65,41.07,7.11,61.71-.85,11.25-14.54,7.75-22.27,8.38-3.95-.22-8.37.84-11.81-1.58-1.42-1-2.73,3-8.15,2.49-5.85-.48-11.89.67-17.6-.77-.31,2.9.57,5.91.52,8.85.32,6.6-5.83,8.35-10.53,11.08-4.85,2.39-9.71,7.47-15.5,5.19-.49-.16-1.59-.6-1.47.29a71.66,71.66,0,0,1,1.07,7.15c.3,3,.55,6.07.57,9.13.12,10.28.23,20.58-.84,30.83-1.07,6.14,0,14.89-7.33,17.23-.49.36-3.53.68-2.56,1.23,4.57,0,8.47,1.44,10.42,5.82.71-.06.9-.84,1.37-1.27a8.23,8.23,0,0,1,5.47-3c3.46-.38,6.94-.41,10.42-.5,4.82-.14,9.64-.11,14.46.21,4,.2,5.54,2.16,8,4.9,3.21-7.67,11.41-5.47,18.08-5.88,8.76-.23,18.09-.53,17.25,11.08-.5,14-.9,27.94-1.29,41.91,0,5.32-.28,10.65-.21,16,.3,1,2.63.31,3.54.57,10.65,1.13,8.09,11.52,8.44,19.21-.1,5.1.16,10.24-.47,15.31a8.69,8.69,0,0,1-9.91,7.46,24.48,24.48,0,0,0-3.82-.29c-7.3-.15-14.62.13-21.92-.17-2.42-.07-4-1-6.45-.72-3.83.06-7.66.09-11.49.12-3.93-.13-8.05.61-11.64-1.32-4.06,3-7.85,1.94-12.53,2.07-2.55-.07-5.13.18-7.66-.11-1.88-.84-3.67-.41-5.62-.2-9.22.45-18.44-.37-27.66.12a8.7,8.7,0,0,1-8.24-5c-.33-.41-.33-1.5-1-1.41a32.82,32.82,0,0,1-5.6,4.21c-4.54,2.65-9.94,1.89-15,2.15-8,.32-16.64-1.49-22.19-7.61-1.63,7.2-7.33,7.83-13.66,7.71-4.33.09-8.66.15-13,.22-2.71.1-4.9-1.23-6.83-3-4.17,4-10.14,2.14-15.32,2.83-1.84.12-3.68.14-5.53.19-1.73.26-3.32-.83-5-.48-3.09.48-6.18.88-9.26,1.35A3.76,3.76,0,0,0,121.35,594Zm132-497.19C215,89.76,176.48,83.72,138.09,77c-31.44-5.39-62.9-10.68-94.33-16.09-1.35,0-3.43-1.38-3.7.74-10,38.57-20.06,77.12-30,115.7,23.52,10.48,51.18,17.62,76.1,26.91,1,.6,1.25-5.5,1.54-6.29,2.16-14,4.3-28,6.77-42,1.57-7.31,2-15,4.93-21.94,7.2-15.39,25.48-24.51,42.11-21.29,27.1,3.89,39.66,26.41,38.55,52.22.52,22.06.59,44.13-.07,66.19-.34,1.93.63,2.16,2.45,2.65,29.52,8.95,59.95,21.11,89,28.45-2.06-19.61-4.3-39.2-6.4-58.81C261.05,167.93,257.5,132.33,253.31,96.81Zm.76-9C274.28,75.16,293.22,59,313,45.14c10.6-8.45,23.72-16.29,33.06-25-34.84-3.05-69.7-5.8-104.54-8.78-12.16-1-24.32-2-36.48-3.08C156.3,19.57,108.2,36.62,59.68,49.86l-8.77,2.57c-.54.26-1.36.17-1.62.77,0,.16.07.27.24.3l8.38,1.43L164.68,72.84C194.44,77.84,224.32,82.89,254.07,87.84Zm66.85,99c-4.75-26.38-12.06-54-5.45-80.69,2-7.51,11.86-15.2,18.8-8.72,5.67,5.46,6.51,13.76,8.22,21.06,1.87,7.9,2.91,16.07,4.74,23.92,9.34-15.26,18.72-32,27-48-7.33-23.39-14.16-47-21.86-70.26C322,47.65,290.4,71,261.12,95.39c1,9.25,2.05,18.47,3,27.72,5,45.56,9.72,91.16,14.85,136.72C293.65,236.35,306.85,211,320.92,186.82ZM239.45,377.07c4.54.34,9.23-.14,13.81.48,1,.1,1.54,0,1.48-1.14-.35-34.17-.92-68.44.09-102.54-5-1.27-10.17-.87-15.29-1-.49,0-1.28-.11-1.49.44.09,16.75,1.35,33.76-.55,50.42-5.48-15.92-7.1-33-10.57-49.48a.73.73,0,0,0-.76-.6c-3-.09-6.1-.19-9.14-.26-6.44-.25-4.58.45-4.73,5.9.45,31.92,1.12,63.84,1.47,95.76.15.85-.38,2.36.64,2.66a58.44,58.44,0,0,0,13,.29c2.09-.06,1.93-1,1.88-2.71-.1-8.92-.82-17.86-.5-26.78.52-.14.57.41.75.75C232.62,358.6,235.44,368.09,239.45,377.07Zm43.42-81c2.58,5.57,2.32,12,2.62,18-.14,3,.51,3.23,3.25,3.91a23.13,23.13,0,0,0,11.57-.36c.86-.44.5-1.73.66-2.54a221.23,221.23,0,0,0-1.66-40.35c-.08-.55-.29-.81-.76-.88a126.6,126.6,0,0,0-15.67-1.46c-2.86,0-16.91-.46-17.67,2.17-.95,5.82-1.78,11.64-2.2,17.52-1.73,23.36-.29,46.85,1.52,70.16a125.83,125.83,0,0,0,2.36,14.69c.27.82,1.43.45,2.1.59l5.53.16c1.06,0,1.18.37.75,1.24-.5,1.65-2.31,4.73-1.56,6.18,2.58,1.54,5.84,2.1,8.22,3.88-2,2.13-4.91,3.38-7.43,4.87-1.31.89-3.12,1.34-4,2.72,1.21,2.34,6.94,7.56,9.62,5.83,4.13-2.47,8.31-4.91,12.55-7.17A1.26,1.26,0,0,0,293,394c-.18-2.33-.35-4.66-.57-7-.22-2.67-.77-3-3.16-3.84-1.52-.88-5.33-1.78-4.1-4.11.24-1.43,1.11-1.37,2.39-1.34,1.79-.25,10.15.53,10.41-1.24,1.79-8.05,2-16.33,2.51-24.53-.12-7.23,1.31-14.76,0-21.85-1.46-4.24-10.57-2.28-14.27-2.63-1-.05-1,.7-.95,1.45.2,2.48.45,4.95.63,7.43.24,3,.49,6.08.61,9.13.11,2.75.39,2.53-2.29,2.95-1.16,0-3.18,1.14-3.38-.65-3.35-16.56-3.74-33.71-2.65-50.52A29,29,0,0,1,282.87,296ZM99.55,345c1.78,10.48,2.5,21.06,4.7,31.45a.84.84,0,0,0,.93.7c6.1.08,12.2-.17,18.3-.23.45,0,1.11,0,1.2-.56-.05-2.27-.44-4.52-.64-6.77-1.5-14.82-3.31-29.61-5.26-44.37-2.16-16.45-4.4-32.9-6.36-49.38-.32-2.9-.1-2.51-2.86-2.79a228.53,228.53,0,0,0-23,.31c-.41,0-.93.11-1,.6-.43,3.24-.69,6.49-1,9.74-.6,6-1.21,12-1.71,18q-2.5,26.7-4.18,53.46c-.42,6.59-.79,13.18-1.17,19.76,0,1.34-.63,3.41,1.47,3.1,3.83.06,7.66-.23,11.49,0,2.12.46,1.66-1.46,1.9-2.9.69-8.05,1-16.14,1.8-24.19.34-1.45.29-6.11,1.49-6.75A24.85,24.85,0,0,1,99.55,345Zm227.65,0c1.69,9.7,2.51,19.55,4.25,29.25.69,3.4.19,2.95,3.63,2.94,5.39,0,10.78-.16,16.17-.26.53,0,1.32-.1,1.17-.82-2.09-22.17-5-44.25-8-66.32-1.45-11-2.91-22.08-4.24-33.13-.48-4,.11-3.31-3.84-3.65-7.65-.08-15.39-.36-23,.57-2.77,25-4.77,50-6.54,75.06-.67,9.55-1.29,19.12-1.61,28.68.22,1.39,5,.47,6.25.68,2.34-.06,4.68-.14,7,0,.88.09,1.33-.14,1.37-1.09,1.29-9.85,1.06-19.85,2.53-29.67C322.91,343.18,322.8,344,327.2,345ZM55.46,319.29c-2.19-14.47-3.17-29-5.26-43.49-.12-.91-.3-1.81-.45-2.72-.17-.73-1.08-.53-1.64-.58-5.44,0-11,.2-16.24,1.7-1.64.19-.73,1.92-.62,3,3.78,20.36,5.37,41.06,8.34,61.55q2.49,19.2,5.26,38.36c.18,1.73,2.3.75,3.44,1a79.07,79.07,0,0,1,16.56.72c4.45-28.5,6.77-57.5,10.88-86.11C76.54,286,78,279.52,79.17,273c-.17-1.07-4.93-.13-5.92-.26-3.5.34-7,.51-10.55.82-1.67,8.84-1.92,18-3.61,26.83C57.78,306.64,57.46,313.25,55.46,319.29Zm147.6,8.35a137.86,137.86,0,0,0,2.88-18.86c.13-1.94.07-2-1.92-2.12-1.7-.1-3.4-.16-5.1-.26a60.93,60.93,0,0,0-9.36,0c-.67.11-1.35,0-1.43-.82a40.25,40.25,0,0,1-1.12-13.3c0-.77.38-1.64,1.31-1.49,5.25-.1,10.5-.13,15.74.22,2,.25,1.45-2.63,1.63-3.89.08-4.19-.28-8.38.15-12.55.16-1-1.17-.69-1.8-.76-3,0-6,.11-8.94.1-8.87,0-17.74-.14-26.6-.12a.68.68,0,0,0-.7.64c-.1,8.59,0,17.18,0,25.76.29,24.05,1,48.11,2.9,72.09.31,1.36,0,6.11,1,6.53,5.09.26,10.22,0,15.32.11s10.22-.15,15.31-.52c1.63,0,1.28-1.89,1.49-3,.51-6.58.73-13.18.85-19.78-.08-.62.25-1.87-.6-2a126.09,126.09,0,0,1-12.74-.65c-.57-.11-1.44-.06-1.62-.76a42.32,42.32,0,0,1-.62-5.27c-.28-6.12-.83-12.35-.16-18.44C193.56,327.13,198.46,328.49,203.06,327.64ZM104.38,486.77c-8.48,0-16.9-.94-25.38-.79-1.91,0-3.82.25-5.73.39-1.06.38-.59,2-.84,2.86C71.55,502.68,70,516.1,70,529.58c.5,15.83.31,31.91,3.84,47.43.64,2.46.32,2.28,2.92,2.44,9.78.51,19.86,1.43,29.36-1.57a1.36,1.36,0,0,0,1.08-1.15C110.73,554.13,113.4,507.25,104.38,486.77Zm107.69,64.07c-1.78-15.57-1.93-31.24-2.06-46.9l.06-13.62c.08-1.32-.08-2-1.5-2.33-4-1.22-10.48-1.73-14.25.29-.19,26.9-.86,53.91,1.67,80.73.28,3,.21,6.71,3.41,8.16,6.18,3.26,13.34,2.26,20,2.12,4.72-.13,7.77-4.26,10.47-7.67.52-27.79,1.42-55.59,1.63-83.39-1.43-3-13-1.79-15.91-1,0,17.7,1.44,35.46,1.13,53.2-.07,4,0,8-.34,11.91C216,553.53,213,551.12,212.07,550.84Zm-94.38-62.35c-1.65,23.76-1.07,47.69-.45,71.5.3,6.8.49,13.61.84,20.41a.63.63,0,0,0,.75.56q5.37-.72,10.73-1.55c.8-.25,2-.1,2.47-.92.32-10.75-1.1-21.87-.29-32.5.68,0,1.83-.86,2.3,0a18.23,18.23,0,0,1,1,3.92c1.11,8.82,0,17.73.13,26.58.2,1-.33,3.24.94,3.36q6.7-.36,13.4-.42a.8.8,0,0,0,.73-.65,152.34,152.34,0,0,0,.88-20.82c-.49-3.65.78-16.31-1.29-18-1.72-1.61-4-2.39-5.95-3.67-1.78-1.61,5.81-1.59,5.93-5.59,2.13-10.6,2.35-21.44,1.88-32.21.3-6.76-1.91-9.57-8.58-10.91C134.7,486,126,486.84,117.69,488.49Zm199.83,81.44h0c-1.86-18-4.32-36-6.69-54-1.06-8.15-2.17-16.3-3.1-24.47-.61-4.7.29-4.54-4.87-4.67-6.1,0-12.2-.11-18.29.37-.66,0-.89.26-.95.89-.28,2.75-.58,5.5-.84,8.25-1.6,17.3-3.26,34.6-4.41,51.94-.72,10-1.38,20.09-1.87,30.15-.05.53,0,1.32.63,1.37,1.2,0,2.41.1,3.61.08a66.66,66.66,0,0,1,7.87,0c1.48.13,1-3.08,1.29-4.07.63-7.63.81-15.31,1.81-22.9.58-3.7.42-3.22,4-2.38.52.26.53,1,.63,1.5.35,2.53.68,5.06,1,7.59.8,5.83,1.51,11.67,2.52,17.47.26.83.18,2.1,1.39,2,5.1.05,10.21-.14,15.31-.18.69,0,1.9.13,1.78-.89Q317.93,573.95,317.52,569.93Zm-57.24-44.78c2.77.64,5.84.22,8.71.19,1.75-.19,2.25-.42,2.16-2.31,0-10.48,2.12-28.66-4.23-37.15-8.92-.23-17.94-.44-26.73,1.28-1.4.21-.94,3.92-1.31,5.08-2.54,24.43-1.52,49.11,1,73.5q.54,4.65,1.11,9.3c.32,1.13.13,3.86,1,4.4,9.22.08,18.57.4,27.77-.11,3.57-15.5,2.57-31.73,3.19-47.56a.76.76,0,0,0-.68-.69c-5.54-.11-11,.66-16.58.67-.4,0-.93.11-.89.64a92.91,92.91,0,0,1,.17,10.42c-.05.45.12.93.59.93,1.09.21,2.84-.39,3.07,1.11a33.48,33.48,0,0,1,.68,7.61,14.61,14.61,0,0,1,0,3.37c-.07.27-.6.35-3.5.59-1.43.12-1.49.06-1.62-1.47-.38-3.74-.64-7.49-.95-11.24a201.89,201.89,0,0,1-.71-30.61c0-.46,0-1.12.59-1.23,1,0,4.18-1.21,4.66-.27C258.85,516,259.14,520.72,260.28,525.15ZM31.6,579c2.41,1,13.86,1.76,14.84-.84.11-7.51-.15-15,.33-22.54,0-1,.17-1.13,1.08-1.19,2.62-.17,5.23-.46,7.86-.38,3,.07,4.36-3.23,5.53-5.49,3.38-6,3.29-12.94,3.82-19.62s.58-13.61.72-20.41c0-6.81,1.3-11.74-4.08-17.11-5.14-5.72-12.93-4.36-19.83-4.29-2.62,0-5.24,0-7.87.06-1,.1-2.47-.41-2.41,1.17C29.86,518.49,31.09,548.74,31.6,579Zm99-253.56c.43,16.81.88,34,1.19,50.86-.13,1.54.62,1.57,2,1.57,9.28.45,18.59-.27,27.86.45,1.5.25,1.23-1.29,1.33-2.27.28-8.29.38-16.59,0-24.88-.34-1.19-6.66.05-8.05-.06-1.1-.13-5,1.1-5.27,0-.42-20.48.65-41,1.17-61.45q.27-8,.52-15.95c0-.47,0-1.07-.48-1.28-6.33-.64-12.77.07-19.12,0-.4,0-1,.05-1,.52C129.92,290.44,130.36,307.76,130.64,325.39ZM147.4,120.27c-15.71-7.58-35.33,3-42.73,17.67-3,6.49-3.09,13.95-4.72,20.87Q96.64,177,93.38,195.22c0,.8-1,4-.13,3.86,14.41-11.58,29-23.08,43.11-35C136.78,148.93,138,132.85,147.4,120.27Zm33,388.72a61.37,61.37,0,0,1,8-1.28c.62-.14,1.66.13,1.8-.71.1-6.8-.35-13.62-.65-20.41-.3-1.1-3.45-.09-4.43-.33-8.86.22-17.74.08-26.6.48-2.87.35-3.89-.52-4,3.05-.29,4.9,0,9.79.09,14.68a.71.71,0,0,0,.66.7c1.39.24,6.64-.21,7.23.71.35,4.29.33,8.65.46,13,.25,19.65.4,39.31.35,59,.1.69-.23,1.82.67,2,5.38.1,10.78-.26,16.17-.35,1.21.09,1.09-1.18,1.1-2C181.37,554.64,180,531.7,180.37,509ZM341.81,486.3c-5.68-.9-11.5,0-17.24-.08-.54,0-.94.12-1,.86-.32,9.15-.47,18.3-.33,27.45.19,21,1.08,42,1.3,63,0,1.89.09,2.16,2.14,2.1,7.45.17,14.9-.12,22.34.27.92-.12,2.74.66,3.05-.51.63-7.29.31-14.6.29-21.91,0-1,0-2.07-1.26-1.92a57.53,57.53,0,0,0-6.15.39c-1-.07-4.39,1-4.53-.27C340,532.53,341.72,509.4,341.81,486.3ZM41.36,446c.59.11.56.71.71,1.17,1.12,6.78,2.14,13.59,2.61,20.46.5,1.25,3.64.65,4.79.66a1.35,1.35,0,0,0,1.31-1.58c.24-2.89.47-5.79.71-8.69a103.89,103.89,0,0,1,1.33-11.4c0-.27.26-1,.54-.75,1.28,7.22,1.11,14.83,2.43,22.12-.13,1.72,4.75,1,6,1.19.75,0,1.88,0,2.32-.71.21-3.89-.19-7.8-.22-11.69-.14-7.73-.58-15.46-.77-23.19-.26-9.14-.47-18.29-.55-27.44-.12-1.13-1.62-1-2.47-1.11-2.1.19-8-.54-9.26,1.06-1.49,6.62-1.64,13.41-2.85,20.09-1.19-2.64-1-5.58-1.59-8.39-.67-4.27-1.09-8.58-2.09-12.8-.77-1.83-8.79-.64-10.67-.39-1.1.15-.55,6.94-.83,8.25C32.3,429.57,31.55,446.29,31,463c.17,1.3-.95,5.22.47,5.61a23.72,23.72,0,0,0,8.44-.4c1.23-.28.67-6.81.94-8.23C40.92,455.32,40.82,450.65,41.36,446Zm223.7,21.41A182.79,182.79,0,0,0,266.12,415a40.59,40.59,0,0,0-2.64-9.83c-.42-.62-1.32-.37-2-.47-6.51-.18-13.06-.95-19.55-.19-.7.09-.61.85-.68,1.37-.48,5.58-.87,11.17-1.31,16.75-.74,14.86-.71,30.09,2.28,44.71.15.51.26,1.23.89,1.32,1.84.2,3.69.17,5.53.32C254.13,469.27,259.88,469.35,265.06,467.38Zm-155.4-15.87c2,5.44,3.58,11,5.84,16.3a1,1,0,0,0,1,.64,51.22,51.22,0,0,1,7.43.24c1.43.27,1.21-1.05,1.23-2.05-.07-19.72-.79-39.44.07-59.15,0-.84.4-2.12-.74-2.37a39.37,39.37,0,0,0-6.78-.47c-3.19,0-2.83-.43-2.75,2.83.21,8.08.31,16.17,0,24.26,0,10.36-3.36-7.82-3.82-9.82-1.05-5.36-1.83-10.76-3-16.1-.09-.45-.31-.65-.71-.66-2.34-.06-4.67-.13-7-.15-1.1,0-1.32.25-1.29,1.43.53,20.73.19,41.64,1.18,62.29a23.89,23.89,0,0,0,8.92,0c.67-4.55-.16-9.36-.06-14C109.35,453.68,108.79,452.36,109.66,451.51ZM79.11,406c-1.74-1.09-10-1.9-10.65.27-.14,9.5-.34,19-.17,28.5.1,8.79.45,17.58,1.24,26.34.29,1.64,0,3.53,1,4.92,1.92,2.19,5.23,2.66,8,2.81,3.54-.35,7.72.83,10.75-1.45a18.08,18.08,0,0,0,2.56-2.54c1.36-1.6,1.22-1.48,1.25-3.23.27-18,.91-36,1-54,.25-2.8-.5-2.46-3-3a26.71,26.71,0,0,0-7.62.42c-.93.5-.3,2.07-.45,3,.41,13.95,1.26,27.93.63,41.89-.42,1-1.87-.45-2.56-.59a1.13,1.13,0,0,1-.64-1c-.28-4-.65-8.06-.83-12.1C79.06,426.09,79.55,416,79.11,406Zm78.73,13.57c.86-.08,2.51-1.18,3,0,1.2,3.38,1,7,1.3,10.52.08.59-.09,1.41.58,1.69,1.71.84,7.95,1.59,8.8-.39a133.41,133.41,0,0,0-.9-25.27c-.38-2.19-14.76-1.77-17.12-1.56-1.11.28-3.1,0-3.73,1.09-.6,2.54-.76,5.19-1.14,7.78-1.28,11.51-.66,23.1-.1,34.64.33,6.85.64,13.82,2.35,20.47,5.59.41,11.22.36,16.83.22,2.62.09,2.13-1.52,2.58-3.49a146,146,0,0,0,1.1-14.63c.08-2.91.14-5.82.21-8.72.11-1.6-.51-3.56-2.36-3.7-1,0-7.77-.81-7.32.73.38,3.67.67,7.35.76,11-.15,1.27-2,.79-2.9,1.07-1.23-.8-1.39-6.45-1.75-8.13a156.81,156.81,0,0,1-.53-21.89A2.27,2.27,0,0,1,157.84,419.52ZM195,405.25c-1.68,19.84-.39,39.85-.3,59.74.26,1.27-.64,3.62,1.25,3.75,2.08.1,8,1,9.13-1,.13-5,0-9.93.16-14.9.07-.42,0-1.13.45-1.32a47.46,47.46,0,0,1,5.72-.33c3.51-.41,4-4.93,5.47-7.51,1-5.7,1.14-11.58,1.41-17.37.12-4,.09-8.09.17-12.13a7.88,7.88,0,0,0-1.51-4.56c-3-5.13-8.85-5-14.08-4.69C200.31,405.16,197.54,404.57,195,405.25Zm-51.61,32c-.12-10.93.27-21.27-.19-32a.88.88,0,0,0-.83-.51c-3.46-.16-6.93-.59-10.4-.52-2.48-.49-.9,20.83-1.11,23.63.55,13.18,1.13,26.37.63,39.56.07.59-.31,1.73.58,1.74,3-.37,5.94,0,8.92-.11.63-.12,1.88.11,2.09-.63C143.33,458.14,143.27,447.36,143.43,437.25Zm91.61-.39h0c-.05-10.5.07-21-.1-31.51a.94.94,0,0,0-1-.6c-3.4-.17-6.79-.55-10.2-.51-.83-.06-1.18.67-1.13,1.41-1.15,19.57,1.42,39.15.64,58.73.19,1-.84,5.06.61,4.79,3.39-.43,6.81.14,10.21-.21a.78.78,0,0,0,.8-.81C235,457.72,235,447.29,235,436.86Zm-58.37,0h0c.47,10.64.67,21.28.27,31.91a.49.49,0,0,0,.43.39c2.76-.32,5.52,0,8.29-.08.88-.15,2.5.29,2.93-.65.12-20.64.46-41.29.15-61.93-.05-.64.15-1.64-.74-1.72-3-.19-5.95-.39-8.92-.56s-2.67.43-2.79,3.07C176,417.15,176.33,427,176.67,436.86Zm150.8-335.4c-11-.25-8.56,26.13-8.05,33.57,0,.49.16,1.05.69,1.2,6.4,2.09,12.82,4.1,19.22,6.14,1.23.42,1.22.08,1.11-1.08-1.33-10-2.48-20-5-29.74C334.21,107.32,333.14,101.31,327.47,101.46ZM221.93,481.53c-7.36-4.69-5.07-9.3-5.17-16.79,0-.49-.08-1.54-.69-.74-.4,3.51.36,7.12-.44,10.58-2.77,8.19-13.5,7.46-20.44,6.29-.4-.12-1.52-.18-1,.48,1.25.46,2.36,1.45,3.75,1.15a32.77,32.77,0,0,1,14.31.64,2,2,0,0,0,1.45,0C216.34,481.94,219,482.05,221.93,481.53ZM206.72,344.65h-.05c-.25-1,.47-4.11-.77-4.26l-4.65-.07c-.76-.08-1.73.07-1.6,1.05.52,7.32-1.94,7.61,6.48,7.23C207.25,348.2,206.52,345.66,206.72,344.65ZM113.94,485.53c5-3.2,11.79-2.81,17.54-3.59a2.6,2.6,0,0,0-2.31-.83,49.69,49.69,0,0,1-7-.11c-2-.15-4.13.35-6.14-.17a2.54,2.54,0,0,0-1.47,0c-2,.75-4.07.45-6.07.93A14.13,14.13,0,0,1,113.94,485.53Zm47.29-170.66h-.11c-.28,10.18-.88,20.41-.5,30.59.36.55,1.7.32,1.58-.41C161.93,335,161.57,324.93,161.23,314.87ZM151.36,484a11.4,11.4,0,0,1,6.13-2c.85-.15,3.07.14,3.44-.52-3.52-.76-7.37.26-10.88-.8a1.74,1.74,0,0,0-1.25.05c-3.83,1.42-8,.59-12,1l.11.08A43.59,43.59,0,0,1,151.36,484Zm89.78-3.52c-2.72,1.28-5.66,1.06-8.56,1.14-.21,0-.27.09-.15.27,2.13.32,4.29,2,6.44,1a62.41,62.41,0,0,1,6.42-1.32c.08,0,.14-.15.25-.29A15.12,15.12,0,0,1,241.14,480.49Zm-139.91,1.1c-2.12-.41-3.66-1.77-5.44-2.71a27.71,27.71,0,0,1-4.21,1.85c-.11,0-.28.17-.27.24,0,.25.27.24.45.25C94.92,481.33,98.08,481.69,101.23,481.59Zm69.05,0c.43-.18,6.46.53,4.69-.66a1.35,1.35,0,0,0-1-.09,33.52,33.52,0,0,1-3.95.56Z"/>
    <path d="M253.31,96.81c4.19,35.52,7.74,71.12,11.77,106.66,2.1,19.61,4.34,39.2,6.4,58.8-29.11-7.34-59.52-19.49-89-28.44-1.63-.53-2.83-.56-2.44-2.65.65-22.06.58-44.13.06-66.19,1.12-25.81-11.46-48.34-38.55-52.22-16.63-3.22-34.91,5.9-42.11,21.29C96.49,141,96,148.69,94.47,156c-2.47,14-4.61,28-6.77,42-.4,1.19-.46,6.71-1.54,6.29-24.91-9.29-52.59-16.43-76.1-26.91,9.94-38.58,20-77.13,30-115.7.23-2.15,2.37-.73,3.7-.74,31.43,5.41,62.89,10.7,94.33,16.09C176.48,83.72,215,89.76,253.31,96.81Z" fill="#fff"/>
    <path d="M254.07,87.84c-29.76-5-59.63-10-89.39-15L57.91,54.93,49.53,53.5c-.17,0-.28-.14-.24-.3.17-.59,1.14-.52,1.62-.77l8.77-2.57C108.2,36.62,156.3,19.57,205.05,8.23c12.16,1.07,24.32,2.06,36.48,3.08,34.84,3,69.7,5.73,104.54,8.78-9.36,8.77-22.45,16.6-33.06,25.05C293.23,59,274.28,75.16,254.07,87.84Z" fill="#fff"/>
    <path d="M320.92,186.82c-14.07,24.17-27.27,49.53-42,73-5.13-45.56-9.8-91.16-14.85-136.72-.93-9.25-2-18.47-3-27.71C290.4,71,322,47.65,352.35,24.12c7.7,23.22,14.53,46.87,21.86,70.25-8.26,16-17.64,32.76-27,48-1.83-7.85-2.87-16-4.74-23.92-1.7-7.29-2.55-15.61-8.22-21.06-6.94-6.48-16.76,1.21-18.79,8.72C308.86,132.78,316.18,160.44,320.92,186.82Z" fill="#fff"/>
    <path d="M239.45,377.07c-4-9-6.83-18.47-10-27.79-.18-.34-.23-.89-.75-.75-.32,8.92.4,17.86.5,26.78,0,1.56.3,2.71-1.88,2.71a58.44,58.44,0,0,1-13-.29c-1-.26-.48-1.86-.64-2.66-.35-31.92-1-63.84-1.47-95.76.21-5.3-1.86-6.18,4.73-5.9,1.47.29,10-.36,9.9.86,3.47,16.46,5.1,33.56,10.57,49.48,1.9-16.66.64-33.67.55-50.42.21-.56,1-.42,1.49-.44,5.12.11,10.27-.29,15.29,1-1,34.1-.44,68.37-.09,102.54,0,1.07-.45,1.28-1.48,1.14C248.68,376.93,244,377.41,239.45,377.07Z" fill="#fff"/>
    <path d="M282.87,296a29,29,0,0,0-4.72,1.25c-1.09,16.81-.7,34,2.65,50.52.2,1.79,2.22.66,3.38.65,2.68-.42,2.4-.2,2.29-2.95-.12-3.05-.37-6.09-.61-9.13-.18-2.48-.43-4.95-.63-7.43-.08-.69,0-1.56.95-1.45,3.71.34,12.81-1.6,14.27,2.63,1.35,7.09-.08,14.62,0,21.85-.46,8.2-.72,16.48-2.51,24.53-.27,1.79-8.63,1-10.41,1.24-1.28-.05-2.17-.06-2.39,1.34-1.51,2.57,4.39,4,6.05,4.94,1.9,1.25,1.29,7.64,1.78,10a1.23,1.23,0,0,1-.32,1.16c-4.24,2.26-8.42,4.7-12.55,7.17-2.75,1.74-8.39-3.53-9.62-5.83.86-1.38,2.68-1.83,4-2.72,2.52-1.49,5.41-2.74,7.43-4.87-2.38-1.78-5.64-2.34-8.22-3.88-.77-1.39,1.1-4.65,1.56-6.18.47-1,.26-1.24-.75-1.24-1.44-.28-7.22.36-7.63-.75a125.83,125.83,0,0,1-2.36-14.69c-1.81-23.31-3.25-46.8-1.52-70.16.42-5.88,1.25-11.7,2.2-17.51.67-2.66,14.89-2.18,17.67-2.18a126.6,126.6,0,0,1,15.67,1.46c.47.07.68.33.76.88A221.23,221.23,0,0,1,301,315.05c-.15.8.19,2.1-.66,2.54a23.13,23.13,0,0,1-11.57.36c-2.76-.68-3.39-.93-3.25-3.91C285.19,308,285.45,301.61,282.87,296Z" fill="#fff"/>
    <path d="M99.55,345a24.85,24.85,0,0,0-3.85-.84c-1.21.66-1.15,5.26-1.49,6.75-.77,8.05-1.11,16.14-1.8,24.19-.23,1.41.22,3.38-1.9,2.9-3.83-.21-7.66.08-11.49,0-2.13.25-1.44-1.69-1.47-3.1.38-6.58.75-13.17,1.17-19.76q1.69-26.76,4.18-53.46c.5-6,1.11-12,1.71-18,.3-3.25.56-6.5,1-9.74.07-.46.58-.6,1-.6a228.53,228.53,0,0,1,23-.31c2.76.28,2.54-.11,2.86,2.79,2,16.48,4.2,32.93,6.36,49.38,2,14.76,3.76,29.55,5.26,44.37.2,2.25.59,4.5.64,6.77-.1.56-.75.53-1.2.56-6.1.06-12.2.31-18.3.23a.84.84,0,0,1-.93-.7C102.05,366.08,101.33,355.5,99.55,345Zm-2.21-34.1h0c-.29,3.39-.21,6.79-.63,10.17,0,.56-.12,1.19.57,1.41a8.93,8.93,0,0,0,5.22.13c.78-.29.42-1.27.42-1.9-.25-1.08-3.38-31.1-4.47-24.85C98,300.88,97.54,305.89,97.34,310.92Z" fill="#fff"/>
    <path d="M327.2,345c-4.41-1-4.29-1.83-4.79,2.26-1.47,9.82-1.24,19.82-2.53,29.67,0,.85-.48,1.25-1.37,1.09-2.34-.16-4.68-.08-7,0-1.26-.19-6,.67-6.25-.68.32-9.56.94-19.13,1.61-28.68,1.77-25,3.77-50.11,6.54-75.06,7.59-.93,15.33-.65,23-.57,3.95.34,3.36-.33,3.84,3.65,1.33,11.05,2.79,22.09,4.24,33.13,2.93,22.07,5.88,44.15,8,66.32.14.7-.63.84-1.17.82-5.39.1-10.78.24-16.17.26-3.44,0-2.94.46-3.63-2.94C329.71,364.56,328.89,354.71,327.2,345Zm-2.69-24.49h-.1c-.67,3.21,3.71,2.42,5.67,2.16a.94.94,0,0,0,.63-1.17c-1.11-8.78-2-17.58-3.81-26.25,0-.33-.53-.58-.63-.15C325.35,303.55,325,312,324.51,320.52Z" fill="#fff"/>
    <path d="M55.46,319.29c2-6,2.32-12.66,3.63-18.93,1.69-8.87,1.94-18,3.61-26.83,3.5-.31,7-.48,10.55-.82,1.07.07,5.67-.74,5.92.26C78,279.52,76.54,286,75.73,292.65c-4.11,28.61-6.43,57.61-10.88,86.11A79.75,79.75,0,0,0,48.29,378c-1.13-.16-3.27.73-3.44-1Q42,357.94,39.59,338.73C37.66,324.6,36,310.44,34.25,296.3c-.86-6.39-1.72-12.79-3-19.12,0-.89-.84-2.15,0-2.79,5.43-1.7,11.2-1.85,16.85-1.89.56,0,1.47-.15,1.64.58C52.25,288.42,53.09,303.92,55.46,319.29Z" fill="#fff"/>
    <path d="M203.06,327.64c-4.6.85-9.5-.51-14.08.82-.67,6.09-.12,12.32.16,18.44a42.32,42.32,0,0,0,.62,5.27c.18.71,1.05.64,1.62.76a126.09,126.09,0,0,0,12.74.65c.86.19.51,1.4.6,2-.12,6.6-.34,13.2-.85,19.78-.2,1.13.14,3-1.49,3-5.09.37-10.2.5-15.31.52s-10.23.15-15.32-.11c-1-.3-.72-5.35-1-6.53-1.95-24-2.61-48-2.9-72.09,0-8.58-.12-17.17,0-25.76a.68.68,0,0,1,.7-.64c8.86,0,17.73.12,26.6.12,3,0,6-.07,8.94-.1.64,0,2-.25,1.8.76-.43,4.17-.07,8.36-.15,12.55-.16,1.2.24,3.21-1,3.88-5.45-.24-10.92-.37-16.38-.21-2.37-.61-1.24,8.1-1.16,9.57.36,1.42.39,5.23,1.55,6a128.22,128.22,0,0,1,15.31.27c2,.12,2,.18,1.92,2.12A137.86,137.86,0,0,1,203.06,327.64Z" fill="#fff"/>
    <path d="M104.38,486.77c9,20.44,6.36,67.33,2.83,90a1.36,1.36,0,0,1-1.08,1.15c-9.5,3-19.58,2.08-29.36,1.57-2.6-.16-2.28,0-2.92-2.44-3.53-15.52-3.34-31.6-3.84-47.43,0-13.48,1.54-26.9,2.43-40.35.23-.92-.22-2.46.83-2.86,1.91-.14,3.82-.35,5.73-.39C87.48,485.83,95.89,486.74,104.38,486.77ZM94.93,539.5c-.22-5.73-.41-11.48-.94-17.19-.43-2-.89-13.43-2.54-13.44-2.11.34-7.57.05-7,3.23,0,7.23-.17,14.47.08,21.69a150.83,150.83,0,0,0,2.26,19.41.69.69,0,0,0,.9.64,51.71,51.71,0,0,0,6.47-1.1c.4-.19.35-.74.41-1.12C94.79,547.58,95,543.55,94.93,539.5Z" fill="#fff"/>
    <path d="M212.07,550.84c.9.33,4,2.65,4.36,1.51.38-4,.27-7.94.34-11.91.31-17.74-1.15-35.5-1.13-53.2,3-.81,14.44-2,15.91,1-.21,27.8-1.11,55.6-1.63,83.39-2.69,3.41-5.75,7.54-10.47,7.67-6.71.14-13.87,1.14-20-2.12-3.2-1.46-3.13-5.16-3.41-8.16-2.53-26.82-1.86-53.83-1.67-80.73,3.76-2,10.23-1.51,14.25-.29,1.39.33,1.59,1,1.5,2.33q0,6.81,0,13.62C210.14,519.6,210.29,535.27,212.07,550.84Z" fill="#fff"/>
    <path d="M117.69,488.49c8.26-1.65,17-2.46,25.37-.95,6.64,1.34,8.89,4.13,8.58,10.91.47,10.77.25,21.6-1.88,32.21-.12,4-7.7,4-5.93,5.59,1.94,1.28,4.23,2.06,5.95,3.67,2.07,1.7.8,14.35,1.29,18a152.34,152.34,0,0,1-.88,20.82.8.8,0,0,1-.73.65q-6.71.06-13.39.42c-1.29-.06-.74-2.47-.95-3.36-.11-8.85,1-17.76-.13-26.58a18.23,18.23,0,0,0-1-3.92c-.48-.83-1.62,0-2.3,0-.81,10.63.61,21.75.29,32.5-.42.84-1.68.66-2.47.92q-5.36.83-10.73,1.55a.63.63,0,0,1-.75-.56c-.35-6.8-.54-13.61-.84-20.41C116.62,536.18,116,512.25,117.69,488.49Zm13.75,29.62v6.29c.21,1.11-.54,4.45.45,4.89a29.54,29.54,0,0,0,3.49.85c.63-.2.62-1.07.82-1.6.91-2.38,2.06-25.18-.29-25.16-1.12.21-2.23.46-3.35.64-2,.33-1.95.32-1.74,2.3C131.25,510.35,131.21,514.4,131.44,518.11Z" fill="#fff"/>
    <path d="M317.52,569.93q.41,4,.8,8c.12,1-1.09.86-1.78.89-5.1,0-10.21.23-15.31.18-1.21.08-1.13-1.2-1.39-2-1-5.8-1.72-11.64-2.52-17.47-.35-2.53-.68-5.06-1-7.59-.1-.5-.11-1.24-.63-1.5-3.56-.85-3.38-1.3-4,2.38-1,7.59-1.18,15.27-1.82,22.9-.31,1.08.21,4.15-1.28,4.07a66.66,66.66,0,0,0-7.87,0c-1.2,0-2.41,0-3.61-.08-.67-.06-.68-.84-.63-1.37.49-10.06,1.15-20.11,1.87-30.15,1.15-17.34,2.81-34.64,4.41-51.94.26-2.75.56-5.5.84-8.25.06-.63.29-.85.95-.89,6.09-.48,12.19-.38,18.29-.37,5,.2,4.29-.24,4.87,4.67q1,8.34,2.08,16.67c2.65,20.6,5.59,41.17,7.71,61.84Zm-22.29-63.72c-.76,5.15-.9,10.42-1.24,15.63.14,1.44-1.08,8.42-.07,8.7,1.33.53,5.72,1.24,5.09-1.2-.79-7.52-1.72-15-3.19-22.45C295.74,506.58,295.63,506.21,295.23,506.21Z" fill="#fff"/>
    <path d="M260.28,525.15c-1.14-4.43-1.43-9.11-2.52-13.55-.51-1-3.63.27-4.66.27-.55.12-.56.77-.59,1.23a201.89,201.89,0,0,0,.71,30.61c.31,3.75.57,7.5.95,11.24.13,1.53.19,1.59,1.62,1.47,2.9-.24,3.43-.32,3.5-.59a14.61,14.61,0,0,0,0-3.37,33.48,33.48,0,0,0-.68-7.61c-.23-1.5-2-.91-3.07-1.11-.47,0-.64-.47-.59-.93a92.91,92.91,0,0,0-.17-10.42c0-.53.48-.64.89-.64,5.54,0,11-.78,16.58-.67a.76.76,0,0,1,.68.69c-.62,15.83.38,32.06-3.19,47.56-9.2.51-18.55.18-27.77.11-.88-.47-.7-3.38-1-4.4q-.57-4.65-1.11-9.3c-2.53-24.39-3.55-49.07-1-73.5.37-1.25-.08-4.82,1.31-5.08,8.37-1.67,17-1.47,25.45-1.33,2.23-.29,2.21,1.2,3,2.83,4,11,2.7,22.92,2.5,34.37.07,1.87-.38,2.12-2.16,2.31C266.12,525.37,263.05,525.8,260.28,525.15Z" fill="#fff"/>
    <path d="M31.6,579c-.51-30.21-1.74-60.46,0-90.64-.06-1.57,1.38-1.09,2.41-1.17,2.63,0,5.25,0,7.87-.06,6.9-.07,14.69-1.43,19.83,4.29,5.38,5.38,4.06,10.28,4.08,17.11-.14,6.8-.24,13.61-.72,20.41s-.44,13.62-3.82,19.62c-1.16,2.26-2.55,5.55-5.53,5.49-2.63-.08-5.24.21-7.86.38-.91.06-1,.18-1.08,1.19-.48,7.51-.22,15-.33,22.54C45.51,580.74,34,579.93,31.6,579Zm19.87-52.64c-.35-4.92-.74-9.88-1.2-14.8-.35-1.2.11-7.21-1.27-6.95-1,.24-5.16-.71-5,.8.32,4.8.75,9.6,1,14.4.24,4.32.4,8.63.63,13-.12,4.72.66,3.22,4.65,3.34C52.19,535.74,51.23,528.09,51.47,526.31Z" fill="#fff"/>
    <path d="M130.64,325.39c-.28-17.63-.72-34.95.12-52.5.09-.46.64-.51,1-.52,6.35,0,12.79-.67,19.12,0,.48.22.5.81.48,1.28q-.26,8-.52,15.95c-.52,20.47-1.59,41-1.17,61.45.32,1.17,4.15-.11,5.27,0,1.43.12,7.69-1.15,8.05.06.37,8.29.27,16.59,0,24.88-.1,1,.17,2.53-1.33,2.27-9.27-.72-18.58,0-27.86-.45-.62-.08-1.58.14-1.9-.52C131.39,360.1,131.16,342.54,130.64,325.39Z" fill="#fff"/>
    <path d="M147.4,120.27c-9.42,12.58-10.62,28.66-11,43.85-14.14,11.88-28.7,23.38-43.11,35-1,.29.19-3.33.13-3.86Q96.61,177,100,158.81c1.63-6.92,1.69-14.38,4.72-20.87C112.07,123.22,131.69,112.69,147.4,120.27Z" fill="#fff"/>
    <path d="M180.37,509c-.36,22.71,1,45.65.91,68.45,0,.84.11,2.15-1.1,2-5.39.09-10.79.45-16.17.35-.9-.16-.57-1.36-.67-2,0-19.66-.1-39.32-.35-59-.13-4.32-.11-8.68-.46-13a.64.64,0,0,0-.43-.39c-2.26-.17-4.53-.24-6.8-.32a.71.71,0,0,1-.66-.7c-.08-4.89-.38-9.78-.09-14.68.07-3.48,1-2.74,4-3.05,8.86-.4,17.74-.26,26.6-.48,1,.2,4.15-.71,4.43.33.3,6.79.75,13.61.65,20.41-.14.83-1.19.58-1.8.71A61.37,61.37,0,0,0,180.37,509Z" fill="#fff"/>
    <path d="M341.81,486.3c-.09,23.1-1.79,46.23-1.35,69.36.17,1.3,3.53.19,4.53.27a57.53,57.53,0,0,1,6.15-.39c1.26-.17,1.27,1,1.26,1.92,0,7.31.34,14.62-.29,21.91-.3,1.21-2.14.35-3.05.51-7.44-.38-14.89-.1-22.34-.27-1.94,0-2.2-.05-2.14-2.1-.22-21-1.11-42-1.3-63-.14-9.15,0-18.3.33-27.45,0-.74.42-.84,1-.86C330.31,486.27,336.13,485.4,341.81,486.3Z" fill="#fff"/>
    <path d="M41.36,446c-.54,4.68-.44,9.35-.55,14-.27,1.51.29,7.91-.94,8.23a23.49,23.49,0,0,1-8.44.4c-1.43-.36-.3-4.37-.47-5.61.59-16.74,1.34-33.46,1.86-50.2.28-1.45-.27-8,.83-8.25,1.89-.28,9.9-1.4,10.67.39,1,4.22,1.42,8.53,2.09,12.8.61,2.81.4,5.75,1.59,8.39,1.21-6.68,1.36-13.47,2.85-20.09,1.15-1.61,7.2-.85,9.26-1.06.85.07,2.35,0,2.47,1.11.08,9.15.29,18.3.55,27.44.19,7.73.63,15.46.77,23.19,0,3.89.43,7.8.22,11.69-.43.71-1.57.65-2.32.71-1.24-.2-6.16.51-6-1.19-1.32-7.29-1.15-14.9-2.43-22.12-.28-.21-.54.48-.54.75A103.89,103.89,0,0,0,51.49,458c-.24,2.9-.47,5.8-.71,8.7a1.35,1.35,0,0,1-1.31,1.57c-1.17,0-4.28.57-4.79-.66-.47-6.87-1.49-13.68-2.61-20.46C41.92,446.68,42,446.08,41.36,446Z" fill="#fff"/>
    <path d="M265.06,467.38c-5.18,2-10.93,1.89-16.38,1.6-1.84-.15-3.69-.12-5.53-.32-.63-.09-.73-.81-.89-1.32-3-14.62-3-29.85-2.28-44.71.44-5.58.83-11.17,1.31-16.75.07-.53,0-1.28.68-1.37,6.49-.76,13,0,19.55.19.64.09,1.54-.14,2,.47a40.59,40.59,0,0,1,2.64,9.83A182.79,182.79,0,0,1,265.06,467.38ZM256.73,441a128.46,128.46,0,0,0-1.82-20.37c-.39-1.29-2.5-.21-3.49-.26-1.1.15-2.14.73-1.89,2-.07,9-.3,18,1.33,26.91.15.59.16,1.7,1,1.64a36.23,36.23,0,0,0,4-.54C257.2,450.3,256.47,441.63,256.73,441Z" fill="#fff"/>
    <path d="M109.66,451.51c-.87.85-.31,2.17-.45,3.27-.1,4.63.73,9.44.06,14a23.89,23.89,0,0,1-8.92,0c-1-20.65-.65-41.56-1.19-62.29,0-1.18.2-1.44,1.3-1.43,2.34,0,4.67.09,7,.15.4,0,.62.21.71.66,1.14,5.34,1.92,10.74,3,16.1.45,1.95,3.78,20.2,3.82,9.82.3-8.09.2-16.18,0-24.26-.08-3.26-.44-2.81,2.75-2.83a39.37,39.37,0,0,1,6.78.47c1.14.24.68,1.54.74,2.37-.86,19.71-.14,39.43-.07,59.15,0,.95.21,2.36-1.23,2.05a51.22,51.22,0,0,0-7.43-.24,1,1,0,0,1-1-.64C113.24,462.47,111.67,457,109.66,451.51Z" fill="#fff"/>
    <path d="M79.11,406c.44,10,0,20.14.59,30.18.18,4,.55,8.07.83,12.1a1.13,1.13,0,0,0,.64,1c.7.16,2.14,1.56,2.56.59.63-14-.22-27.94-.63-41.89.15-.91-.48-2.45.45-3a26.71,26.71,0,0,1,7.62-.42c2.45.53,3.22.15,3,3-.1,18-.74,36-1,54,0,1.75.11,1.63-1.25,3.23a18.08,18.08,0,0,1-2.56,2.54c-3,2.29-7.21,1.1-10.75,1.45-2.77-.14-6.08-.63-8-2.81-1-1.38-.74-3.29-1-4.92-.79-8.76-1.14-17.55-1.24-26.34-.17-9.5,0-19,.17-28.5C69.06,404,77.47,404.89,79.11,406Z" fill="#fff"/>
    <path d="M157.84,419.52a2.27,2.27,0,0,0-.35,1.5,156.81,156.81,0,0,0,.53,21.89c.35,1.66.52,7.34,1.75,8.13.91-.28,2.75.2,2.9-1.07-.09-3.69-.38-7.37-.76-11-.47-1.54,6.29-.76,7.32-.73,1.85.14,2.47,2.1,2.36,3.7-.07,2.9-.13,5.81-.21,8.72a146,146,0,0,1-1.1,14.63c-.44,1.93,0,3.59-2.58,3.49-5.61.14-11.24.19-16.83-.22-2.65-11-2.24-22.44-2.93-33.65a160.17,160.17,0,0,1,.68-21.46c.43-1.6.43-7.94,1.73-8.35,6.41-1.29,13-.75,19.47.17,1.38.28.9,3.71,1.27,4.88a141.92,141.92,0,0,1,.48,20.41c.5,3.07-6.5,2-8.27,1.5-1-.19-1.2-1-1.17-1.95-.11-1.91-.2-3.83-.33-5.74a18.63,18.63,0,0,0-1-4.78C160.34,418.33,158.7,419.45,157.84,419.52Z" fill="#fff"/>
    <path d="M195,405.25c2.5-.68,5.27-.09,7.87-.31,5.23-.27,11.08-.45,14.08,4.69a7.81,7.81,0,0,1,1.51,4.56c-.08,4-.05,8.09-.17,12.13-.64,8.06.47,17.23-4.81,24-1.82,2-6.11.18-8.09,1.53-.53,5.28-.08,10.64-.31,15.94-1.06,2-7.06,1.08-9.13,1-1.9-.11-1-2.5-1.25-3.75C194.65,445.1,193.36,425.09,195,405.25Zm13.51,28.21h.08c-.22-4-.57-8.06-.9-12.09-.28-1,.09-4.19-1-4.33-4.15-.3-3.24.21-3.11,3.8.52,5.8.73,11.61,1.07,17.41,0,.24.33.59.54.58.9-.18,2.4.3,3-.5A18.85,18.85,0,0,0,208.55,433.46Z" fill="#fff"/>
    <path d="M143.43,437.25c-.16,10.11-.1,20.89-.31,31.18-.21.77-1.47.48-2.09.63-3,.13-5.95-.26-8.92.11a.49.49,0,0,1-.57-.47c.19-8.44.26-16.87,0-25.31-.37-12.74-1.36-25.52-.47-38.26.13-1.43,2.13-.77,3.11-.89,2.88.22,5.82.27,8.69.6.72.42.45,1.41.55,2.12C143.49,417.11,143.42,426.88,143.43,437.25Z" fill="#fff"/>
    <path d="M235,436.86c-.06,10.43,0,20.86-.14,31.29a.78.78,0,0,1-.8.81c-3.4.35-6.82-.22-10.21.21-1.47.31-.41-3.88-.61-4.79.78-19.58-1.79-39.16-.64-58.73,0-.71.3-1.49,1.13-1.41,3.41,0,6.8.34,10.2.51.39,0,.92.19,1,.6.17,10.5,0,21,.1,31.51Z" fill="#fff"/>
    <path d="M176.67,436.86c-.34-9.85-.72-19.71-.37-29.57.14-2.52-.28-3.29,2.79-3.07s5.94.37,8.92.56c.89.08.69,1.09.74,1.72.31,20.64,0,41.29-.15,61.93-.43,1-2,.47-2.93.65-2.77.05-5.53-.24-8.29.08a.49.49,0,0,1-.43-.39c.4-10.63.2-21.27-.27-31.91Z" fill="#fff"/>
    <path d="M327.47,101.46c5.67-.15,6.74,5.86,7.94,10.09,2.55,9.74,3.7,19.77,5,29.74.09,1,.15,1.56-1.11,1.08l-16-5.09c-1.27-.67-3.82-.43-3.92-2.25C318.91,127.6,316.46,101.22,327.47,101.46Z" fill="#fff"/>
    <path d="M97.34,310.92c.2-5,.62-10,1.1-15,1.08-6.3,4.22,23.72,4.47,24.85,0,.63.36,1.61-.42,1.9a8.93,8.93,0,0,1-5.22-.13c-.69-.22-.63-.85-.57-1.41.42-3.38.34-6.78.63-10.17Z"/>
    <path d="M324.51,320.52c.44-8.48.84-17,1.76-25.41.09-.31.38-.29.57-.05,1.89,8.7,2.73,17.61,3.87,26.45.1.49-.12,1.1-.63,1.17-2,.26-6.34,1.05-5.67-2.16Z"/>
    <path d="M94.93,539.5c0,4-.14,8.08-.37,12.12.06,1-.51,1.31-1.42,1.42-1.12-.07-6.48,1.64-6.36.16a150.83,150.83,0,0,1-2.26-19.41c-.25-7.22-.08-14.46-.08-21.69-.56-3.2,4.89-2.88,7-3.23,1.64-.08,2.12,11.55,2.54,13.44C94.52,528,94.71,533.77,94.93,539.5Z"/>
    <path d="M131.44,518.11c-.23-3.71-.19-7.76-.62-11.79-.21-2-.27-2,1.74-2.3,1.12-.18,2.23-.43,3.34-.64,2.36,0,1.22,22.69.3,25.16-.2.54-.19,1.39-.82,1.6a29.54,29.54,0,0,1-3.49-.85c-1-.43-.24-3.8-.45-4.89Z"/>
    <path d="M295.23,506.21c.4,0,.51.36.59.68,1.47,7.42,2.4,14.93,3.19,22.45.63,2.45-3.76,1.72-5.09,1.2-1-.27.21-7.29.07-8.7C294.33,516.63,294.47,511.36,295.23,506.21Z"/>
    <path d="M51.47,526.31c-.24,1.82.72,9.39-1.14,9.74-4-.13-4.77,1.39-4.65-3.34-.23-4.32-.39-8.63-.63-13-.3-4.8-.73-9.6-1-14.4-.16-1.52,4-.55,5-.8,1.38-.27.92,5.8,1.28,6.95C50.73,516.43,51.12,521.39,51.47,526.31Z"/>
    <path d="M256.73,441c-.26.64.47,9.24-.9,9.4a36.23,36.23,0,0,1-4,.54c-.81.07-.82-1.05-1-1.64-1.63-8.89-1.4-17.92-1.33-26.91-.25-1.27.78-1.88,1.89-2,1,0,3.1-1,3.49.26A128.46,128.46,0,0,1,256.73,441Z"/>
    <path d="M208.55,433.46a18.85,18.85,0,0,1-.3,4.86c-.63.81-2.06.31-3,.5-.21,0-.53-.34-.54-.58-.34-5.8-.55-11.61-1.07-17.41-.13-3.55-1.05-4.11,3.11-3.8,1.06.13.69,3.4,1,4.33.33,4,.68,8.06.9,12.09Z"/>
  </g>
</svg>
