<svg xmlns="http://www.w3.org/2000/svg" viewBox="0 0 210.79 138.71"><g id="Capa_2" data-name="Capa 2"><g id="Capa_1-2" data-name="Capa 1"><path d="M45.91,26.64,43.39,48.43H36.32C35.67,45.08,35.1,41.28,34.6,37Q34.25,39.74,33,48.43H26L23.45,26.64H29l.6,7.6.58,7.35q.32-5.7,1.57-15h5.88c.08.64.29,3,.62,7.19l.63,8.29q.48-7.9,1.58-15.48Z" fill="#fff"/><path d="M56.56,26.64,59.8,48.43H54l-.31-3.91h-2l-.34,3.91H45.48l2.89-21.79Zm-3,14q-.42-3.7-.86-9.15-.87,6.26-1.09,9.15Z" fill="#fff"/><path d="M70.65,26.64V31H67.29V48.43H61.62V31H58.27V26.64Z" fill="#fff"/><path d="M72,26.64H81.4V31H77.61v4.13h3.54v4.15H77.61v4.79h4.16v4.36H72Z" fill="#fff"/><path d="M83.4,26.64h4a30.19,30.19,0,0,1,5.43.31,3.75,3.75,0,0,1,2.32,1.58,7.25,7.25,0,0,1,.89,4.06A6.38,6.38,0,0,1,95.42,36a3.34,3.34,0,0,1-2.49,1.05,4.22,4.22,0,0,1,2.26,1.12,3.17,3.17,0,0,1,.72,1.28,19.65,19.65,0,0,1,.14,3.22v5.75H90.79V41.19A4.89,4.89,0,0,0,90.51,39c-.18-.27-.66-.41-1.44-.41v9.82H83.4Zm5.67,3.73v4.84A2.48,2.48,0,0,0,90.41,35c.25-.17.38-.74.38-1.7v-1.2a1.81,1.81,0,0,0-.37-1.36A2.15,2.15,0,0,0,89.07,30.37Z" fill="#fff"/><path d="M34.24,58.71H29.68V55.65A5.36,5.36,0,0,0,29.53,54a.63.63,0,0,0-.65-.33.67.67,0,0,0-.71.4A6.23,6.23,0,0,0,28,55.8V64a5.77,5.77,0,0,0,.15,1.67.78.78,0,0,0,1.35,0,6.63,6.63,0,0,0,.16-1.84V61.58h4.56v.69a13.78,13.78,0,0,1-.38,3.86,4,4,0,0,1-1.71,2,5.81,5.81,0,0,1-3.24.86,6.65,6.65,0,0,1-3.31-.73,3.5,3.5,0,0,1-1.73-2,13.34,13.34,0,0,1-.42-3.87V57.25a22.38,22.38,0,0,1,.13-2.85,4,4,0,0,1,.77-1.82,4.35,4.35,0,0,1,1.79-1.39,6.61,6.61,0,0,1,2.64-.5,6.46,6.46,0,0,1,3.33.78,3.75,3.75,0,0,1,1.72,1.94A11.61,11.61,0,0,1,34.24,57Z" fill="#211915"/><path d="M45.61,51.06l-3.33,11.2v6.36H38.05V62.26l-3.21-11.2H39c.66,3.43,1,5.73,1.11,6.92.26-1.87.68-4.18,1.28-6.92Z" fill="#211915"/><path d="M57.06,58.71H52.49V55.65A5.36,5.36,0,0,0,52.34,54a.63.63,0,0,0-.64-.33.67.67,0,0,0-.72.4,6.23,6.23,0,0,0-.15,1.74V64A5.77,5.77,0,0,0,51,65.63a.78.78,0,0,0,1.35,0,6.24,6.24,0,0,0,.16-1.84V61.58h4.57v.69a13.31,13.31,0,0,1-.39,3.86,4,4,0,0,1-1.7,2,5.85,5.85,0,0,1-3.25.86,6.68,6.68,0,0,1-3.31-.73,3.54,3.54,0,0,1-1.73-2,13.34,13.34,0,0,1-.42-3.87V57.25a24.45,24.45,0,0,1,.13-2.85,4,4,0,0,1,.78-1.82A4.29,4.29,0,0,1,49,51.19a6.56,6.56,0,0,1,2.63-.5,6.46,6.46,0,0,1,3.33.78,3.75,3.75,0,0,1,1.72,1.94A11.55,11.55,0,0,1,57.06,57Z" fill="#211915"/><path d="M63.26,51.06v14H66v3.51H58.69V51.06Z" fill="#211915"/><path d="M71.71,51.06V68.62H67.14V51.06Z" fill="#211915"/><path d="M83.74,51.06V68.62h-4l-2.38-8v8H73.54V51.06h3.82L79.92,59V51.06Z" fill="#211915"/><path d="M96.05,57.52H91.49V55.93A8.29,8.29,0,0,0,91.36,54a.59.59,0,0,0-.62-.38.58.58,0,0,0-.58.33A5.31,5.31,0,0,0,90,55.66v8.43a5.07,5.07,0,0,0,.15,1.55.6.6,0,0,0,.61.38.67.67,0,0,0,.68-.43,4.91,4.91,0,0,0,.18-1.65V61.86h-.92V59.19h5.34v9.43H93.18l-.42-1.26a3.15,3.15,0,0,1-1.18,1.22,3.31,3.31,0,0,1-1.67.41,4.4,4.4,0,0,1-2.16-.56,4,4,0,0,1-1.52-1.38,4.43,4.43,0,0,1-.66-1.73,22.18,22.18,0,0,1-.13-2.72V57.38a16.66,16.66,0,0,1,.28-3.65,3.76,3.76,0,0,1,1.55-2.09,5.5,5.5,0,0,1,3.33-1,6.23,6.23,0,0,1,3.33.82,3.93,3.93,0,0,1,1.72,2,10.31,10.31,0,0,1,.4,3.29Z" fill="#211915"/><path d="M32.33,72.47V75.6H29.92V88.09H25.85V75.6h-2.4V72.47Z" fill="#211915"/><path d="M33.25,72.47h2.88a21.7,21.7,0,0,1,3.89.22,2.67,2.67,0,0,1,1.66,1.14,5.07,5.07,0,0,1,.65,2.9,4.49,4.49,0,0,1-.46,2.46,2.38,2.38,0,0,1-1.78.75,3.12,3.12,0,0,1,1.62.8,2.2,2.2,0,0,1,.51.92A13.79,13.79,0,0,1,42.33,84v4.12H38.55V82.9a3.44,3.44,0,0,0-.2-1.55c-.13-.2-.47-.3-1-.3v7H33.25Zm4.07,2.67v3.48a1.87,1.87,0,0,0,1-.19c.18-.13.27-.53.27-1.22v-.86a1.35,1.35,0,0,0-.26-1A1.54,1.54,0,0,0,37.32,75.14Z" fill="#211915"/><path d="M50.92,72.47l2.33,15.62H49.09l-.21-2.8H47.42l-.24,2.8H43l2.07-15.62Zm-2.15,10c-.21-1.77-.41-4-.62-6.57-.41,3-.67,5.18-.78,6.57Z" fill="#211915"/><path d="M58,72.47V88.09H53.94V72.47Z" fill="#211915"/><path d="M68.7,72.47V88.09H65.14L63,81v7.1h-3.4V72.47H63l2.28,7v-7Z" fill="#211915"/><path d="M74.4,72.47V88.09H70.33V72.47Z" fill="#211915"/><path d="M85.1,72.47V88.09H81.54L79.42,81v7.1H76V72.47h3.39l2.28,7v-7Z" fill="#211915"/><path d="M96.05,78.22H92V76.8a6.85,6.85,0,0,0-.12-1.68.61.61,0,0,0-1.06-.05,4.83,4.83,0,0,0-.13,1.49v7.5a4.48,4.48,0,0,0,.13,1.38.52.52,0,0,0,.54.34A.61.61,0,0,0,92,85.4a4.58,4.58,0,0,0,.16-1.47V82.08H91.3V79.71h4.75v8.38H93.5L93.12,87a2.74,2.74,0,0,1-1,1.09,3,3,0,0,1-1.5.36,3.85,3.85,0,0,1-1.91-.49,3.74,3.74,0,0,1-1.36-1.24,3.88,3.88,0,0,1-.58-1.53,18,18,0,0,1-.12-2.42V78.1a15.53,15.53,0,0,1,.25-3.26A3.33,3.33,0,0,1,88.24,73a4.81,4.81,0,0,1,3-.85,5.57,5.57,0,0,1,3,.73,3.45,3.45,0,0,1,1.54,1.75,9.5,9.5,0,0,1,.35,2.93Z" fill="#211915"/><path d="M35.82,100.3H30.58V96.8a6.42,6.42,0,0,0-.16-1.9.73.73,0,0,0-.74-.38.76.76,0,0,0-.82.46,6.8,6.8,0,0,0-.18,2v9.35a6.33,6.33,0,0,0,.18,1.91.88.88,0,0,0,1.54,0,7.34,7.34,0,0,0,.18-2.11v-2.53h5.24v.79a15.63,15.63,0,0,1-.44,4.43,4.54,4.54,0,0,1-2,2.29,6.61,6.61,0,0,1-3.72,1,7.65,7.65,0,0,1-3.79-.83,4.08,4.08,0,0,1-2-2.3,15.34,15.34,0,0,1-.48-4.44V98.63a26,26,0,0,1,.15-3.26,4.5,4.5,0,0,1,.89-2.09,5,5,0,0,1,2.05-1.59,7.48,7.48,0,0,1,3-.58,7.35,7.35,0,0,1,3.82.9,4.24,4.24,0,0,1,2,2.23,13.17,13.17,0,0,1,.48,4.15Z" fill="#fff"/><path d="M37.69,91.54h8.73v4H42.93v3.82H46.2v3.83H42.93v4.42h3.84v4H37.69Z" fill="#fff"/><path d="M60,91.54v20.12H55.37l-2.72-9.15v9.15H48.27V91.54h4.38l2.93,9.06V91.54Z" fill="#fff"/><path d="M72.6,91.54v4H69.49v16.1H64.26V95.56h-3.1v-4Z" fill="#fff"/><path d="M73.79,91.54h8.73v4H79v3.82h3.27v3.83H79v4.42h3.84v4H73.79Z" fill="#fff"/><path d="M84.37,91.54h3.7a28.67,28.67,0,0,1,5,.28,3.47,3.47,0,0,1,2.14,1.46A6.68,6.68,0,0,1,96.05,97a5.87,5.87,0,0,1-.58,3.16,3.08,3.08,0,0,1-2.3,1,3.89,3.89,0,0,1,2.09,1,3.06,3.06,0,0,1,.66,1.19,18.31,18.31,0,0,1,.13,3v5.31H91.19V105a4.66,4.66,0,0,0-.25-2c-.17-.25-.62-.38-1.34-.38v9.07H84.37ZM89.6,95v4.48a2.32,2.32,0,0,0,1.24-.25c.24-.16.35-.68.35-1.57V96.53a1.67,1.67,0,0,0-.34-1.25A1.93,1.93,0,0,0,89.6,95Z" fill="#fff"/><rect x="101.55" y="26.47" width="85.78" height="85.78" fill="#fff"/><path d="M166.34,69.08a4.06,4.06,0,0,1-4.05-4.1,3.77,3.77,0,0,1,4-3.9c1.08,0,2.57.4,2.57,1.24v.82h2.09V61.69c0-2-3.12-2.6-4.71-2.6A6,6,0,0,0,159.91,65a6,6,0,0,0,6.39,6.09,7.19,7.19,0,0,0,4-1.18l-1.1-1.64a5.36,5.36,0,0,1-2.86.83" fill="#3275d3"/><polygon points="110.05 70.88 111.68 70.88 116.2 59.29 114.56 59.29 110.05 70.88" fill="#3275d3"/><polygon points="106.48 70.88 108.12 70.88 112.64 59.29 111 59.29 106.48 70.88" fill="#3275d3"/><path d="M129,69.06h1.79a1.67,1.67,0,1,0,0-3.34h-2.17v3a.33.33,0,0,0,.38.35m1.58-5a1.41,1.41,0,0,0,1.5-1.48,1.37,1.37,0,0,0-1.54-1.44h-1.92V64Zm-4.26-2.92h-1.14V59.29h5.38c2.24,0,3.85,1.08,3.85,3a2.7,2.7,0,0,1-1.5,2.49v0a2.71,2.71,0,0,1,2,2.72c0,2.32-2,3.37-4.29,3.37h-3.1c-.82,0-1.19-.33-1.19-1.11Z" fill="#3275d3"/><path d="M117.74,66.14l1.07-2.9c.23-.64.49-1.73.49-1.73h0s.27,1.09.49,1.73l1.07,2.9Zm7,2.92c-.3,0-.44-.06-.55-.35l-3.68-9.42h-2.39l-4.52,11.59H115c.88,0,1.18-.22,1.45-.95l.77-2h4.21l.77,2c.28.73.6.95,1.47.95h1.7V69.06Z" fill="#3275d3"/><path d="M157,59.29c-.84,0-1.19.34-1.19,1.11v5.3a15.17,15.17,0,0,0,.13,1.63h0s-.54-1-1-1.63l-4.71-6.41h-2.07V70.88h1.1c.84,0,1.19-.33,1.19-1.11V64.48c0-.67-.12-1.63-.12-1.63h0a18.07,18.07,0,0,0,1,1.63l4.73,6.4h2.05V61.46a.34.34,0,0,1,.38-.36h.76V59.29Z" fill="#3275d3"/><path d="M139.23,66.14l1.07-2.9c.22-.64.49-1.73.49-1.73h0s.27,1.09.49,1.73l1.07,2.9Zm7,2.92a.47.47,0,0,1-.54-.35L142,59.29h-2.4l-4.52,11.59h1.39c.88,0,1.17-.22,1.45-.95l.77-2h4.21l.77,2c.28.73.59.95,1.47.95h1.7V69.06Z" fill="#3275d3"/><path d="M174.78,66.14l1.07-2.9c.23-.64.49-1.73.49-1.73h0s.26,1.09.49,1.73l1.07,2.9Zm7,2.92c-.3,0-.44-.06-.54-.35l-3.68-9.42h-2.4l-4.52,11.59H172c.88,0,1.18-.22,1.46-.95l.77-2h4.2l.77,2c.28.73.6.95,1.47.95h1.71V69.06Z" fill="#3275d3"/><path d="M107,78.73a2.25,2.25,0,0,0,1.18.34c.68,0,1.07-.36,1.07-.88s-.27-.75-1-1c-.84-.29-1.35-.73-1.35-1.45a1.47,1.47,0,0,1,1.65-1.39,2.34,2.34,0,0,1,1.14.25l-.19.54a2,2,0,0,0-1-.24c-.7,0-1,.42-1,.77s.31.71,1,1c.87.34,1.31.76,1.31,1.51s-.58,1.47-1.79,1.47a2.66,2.66,0,0,1-1.31-.32Z"/><path d="M111.2,77.82a1.19,1.19,0,0,0,1.27,1.28,2.47,2.47,0,0,0,1-.19l.12.48a3.16,3.16,0,0,1-1.23.22,1.7,1.7,0,0,1-1.8-1.85,1.78,1.78,0,0,1,1.72-2,1.55,1.55,0,0,1,1.52,1.73,2.16,2.16,0,0,1,0,.31Zm2-.48a1,1,0,0,0-.93-1.09,1.12,1.12,0,0,0-1,1.09Z"/><path d="M114.64,76.85c0-.38,0-.69,0-1h.6l0,.61h0a1.35,1.35,0,0,1,1.22-.69c.51,0,1.3.3,1.3,1.56v2.2h-.67V77.42c0-.6-.22-1.09-.85-1.09a.94.94,0,0,0-.9.68,1,1,0,0,0,0,.32v2.21h-.67Z"/><path d="M119.64,74.8v1.06h1v.51h-1v2c0,.46.13.72.5.72a1.54,1.54,0,0,0,.39,0l0,.5a1.49,1.49,0,0,1-.59.09.9.9,0,0,1-.72-.28,1.33,1.33,0,0,1-.26-1v-2h-.57v-.51H119V75Z"/><path d="M122.1,74.83a.4.4,0,0,1-.43.41.4.4,0,0,1-.4-.41.41.41,0,0,1,.42-.42A.4.4,0,0,1,122.1,74.83Zm-.75,4.71V75.86H122v3.68Z"/><path d="M123.13,77c0-.44,0-.81,0-1.15h.59l0,.72h0a1.11,1.11,0,0,1,1-.8.55.55,0,0,1,.19,0v.63a.82.82,0,0,0-.23,0,.93.93,0,0,0-.89.86,1.42,1.42,0,0,0,0,.31v2h-.67Z"/><path d="M129.86,79.4a2.55,2.55,0,0,1-1.06.21A1.74,1.74,0,0,1,127,77.74a1.87,1.87,0,0,1,2-2,2.24,2.24,0,0,1,.93.19l-.15.52a1.58,1.58,0,0,0-.78-.17,1.27,1.27,0,0,0-1.3,1.39,1.26,1.26,0,0,0,1.28,1.37,2,2,0,0,0,.82-.18Z"/><path d="M133.93,77.67a1.8,1.8,0,0,1-1.83,2,1.75,1.75,0,0,1-1.77-1.89,1.8,1.8,0,0,1,1.83-2A1.74,1.74,0,0,1,133.93,77.67Zm-2.92,0c0,.8.46,1.41,1.12,1.41s1.11-.6,1.11-1.43c0-.62-.31-1.41-1.1-1.41S131,77,131,77.71Z"/><path d="M134.77,76.85c0-.38,0-.69,0-1h.59l0,.59h0a1.27,1.27,0,0,1,1.16-.67,1.09,1.09,0,0,1,1,.73h0A1.49,1.49,0,0,1,138,76a1.28,1.28,0,0,1,.81-.25c.49,0,1.21.31,1.21,1.59v2.17h-.66V77.46c0-.71-.25-1.14-.79-1.14a.95.95,0,0,0-.85,1v2.27h-.65V77.33c0-.58-.26-1-.77-1a.92.92,0,0,0-.83.67.88.88,0,0,0,0,.33v2.22h-.66Z"/><path d="M144.2,78.54c0,.38,0,.71,0,1h-.59l0-.6h0a1.38,1.38,0,0,1-1.21.68c-.58,0-1.27-.32-1.27-1.61V75.86h.67v2c0,.7.21,1.17.82,1.17a1,1,0,0,0,.88-.61.93.93,0,0,0,.06-.34V75.86h.67Zm-.46-4.27-.92,1.09h-.48l.67-1.09Z"/><path d="M145.31,76.85c0-.38,0-.69,0-1h.59l0,.61h0a1.35,1.35,0,0,1,1.21-.69c.51,0,1.3.3,1.3,1.56v2.2h-.67V77.42c0-.6-.21-1.09-.85-1.09A.94.94,0,0,0,146,77a1,1,0,0,0-.05.32v2.21h-.67Z"/><rect width="210.79" height="138.71" fill="none"/></g></g></svg>