<svg xmlns="http://www.w3.org/2000/svg" viewBox="0 0 210.79 138.71"><g id="Capa_2" data-name="Capa 2"><g id="Capa_1-2" data-name="Capa 1"><path d="M48,33.46l-2.9,25H37q-1.12-5.76-2-13.11-.39,3.15-1.81,13.11H25.14l-2.91-25h6.31l.69,8.72.66,8.43q.36-6.54,1.8-17.15h6.75q.14,1.09.71,8.24l.72,9.52q.56-9.09,1.81-17.76Z" fill="#211915"/><path d="M60.21,33.46l3.72,25H57.28L56.93,54H54.61l-.39,4.49H47.5l3.31-25ZM56.76,49.53q-.49-4.24-1-10.5-1,7.19-1.24,10.5Z" fill="#211915"/><path d="M76.38,33.46v5H72.52v20H66v-20H62.17v-5Z" fill="#211915"/><path d="M77.86,33.46H88.7v5H84.36V43.2h4.07V48H84.36v5.5h4.78v5H77.86Z" fill="#211915"/><path d="M91,33.46h4.6a36.12,36.12,0,0,1,6.23.35,4.27,4.27,0,0,1,2.65,1.82,8.16,8.16,0,0,1,1,4.65q0,2.92-.72,3.93a3.85,3.85,0,0,1-2.86,1.2,4.89,4.89,0,0,1,2.59,1.28,3.8,3.8,0,0,1,.83,1.48,23,23,0,0,1,.16,3.69v6.6h-6V50.15a5.81,5.81,0,0,0-.31-2.49c-.21-.31-.77-.47-1.66-.47V58.46H91Zm6.5,4.28v5.55A2.84,2.84,0,0,0,99,43c.3-.2.44-.85.44-2V39.67a2.08,2.08,0,0,0-.42-1.56A2.39,2.39,0,0,0,97.51,37.74Z" fill="#211915"/><path d="M31.13,61.61a11.05,11.05,0,0,1,5.68,1.31A7.17,7.17,0,0,1,40,66.38a16.27,16.27,0,0,1,.9,6.07V76H30.26v5.82a6.39,6.39,0,0,0,.26,2.35,1,1,0,0,0,1,.52,1.23,1.23,0,0,0,1.25-.7,7.59,7.59,0,0,0,.31-2.7V77.75h7.76v2a17.8,17.8,0,0,1-.31,3.83,7.88,7.88,0,0,1-1.47,2.86,7.12,7.12,0,0,1-2.93,2.27,11.25,11.25,0,0,1-4.45.76,12.88,12.88,0,0,1-4.57-.75,7.17,7.17,0,0,1-3.09-2,7.32,7.32,0,0,1-1.53-2.88,18.2,18.2,0,0,1-.43-4.57V71.37A13.43,13.43,0,0,1,23,65.81a6.65,6.65,0,0,1,3.12-3.12,11.07,11.07,0,0,1,5-1.08m-.87,10h2.39v-2A9.68,9.68,0,0,0,32.42,67a.88.88,0,0,0-.91-.61c-.57,0-.92.17-1.05.52a10.51,10.51,0,0,0-.2,2.78v2M31.13,61a11.65,11.65,0,0,0-5.28,1.16,7.12,7.12,0,0,0-3.41,3.42,14.07,14.07,0,0,0-1,5.83v7.84A19.1,19.1,0,0,0,21.87,84a8.25,8.25,0,0,0,1.66,3.13,8.11,8.11,0,0,0,3.36,2.24,13.72,13.72,0,0,0,4.8.79,12,12,0,0,0,4.71-.81,7.85,7.85,0,0,0,3.18-2.48,8.56,8.56,0,0,0,1.59-3.1,18.41,18.41,0,0,0,.33-4V77.11h-9V81.3a6.67,6.67,0,0,1-.26,2.44c0,.11-.14.32-.66.32-.35,0-.41-.12-.43-.17a5.48,5.48,0,0,1-.2-2.06V76.66H41.5V72.45a16.74,16.74,0,0,0-1-6.32,7.84,7.84,0,0,0-3.41-3.77,11.73,11.73,0,0,0-6-1.4ZM30.9,71V69.67a9.6,9.6,0,0,1,.16-2.55c0-.05.18-.1.45-.1s.27.07.31.18A9,9,0,0,1,32,69.67V71Z" fill="#211915"/><path d="M43.56,61.61h7.35a19.42,19.42,0,0,1,5.28.54,5.22,5.22,0,0,1,2.9,2.2Q60.2,66,60.2,69.68a5.7,5.7,0,0,1-.78,3.46,5.41,5.41,0,0,1-3.08,1.51,5.49,5.49,0,0,1,3.47,1.92,7.36,7.36,0,0,1,.91,4.11v2.63a10.45,10.45,0,0,1-.66,4.26A3.52,3.52,0,0,1,58,89.46a21.39,21.39,0,0,1-5.88.51H43.56Zm7.37,4.85v6.31l.74,0c.72,0,1.18-.18,1.38-.53a8.73,8.73,0,0,0,.3-3.06,5,5,0,0,0-.25-1.87,1.17,1.17,0,0,0-.64-.67A5.68,5.68,0,0,0,50.93,66.46Zm0,10.72v7.94a3.21,3.21,0,0,0,2-.49,3.51,3.51,0,0,0,.43-2.16V79.83A3.71,3.71,0,0,0,53,77.62,3.46,3.46,0,0,0,50.93,77.18Z" fill="#211915"/><path d="M70.74,61.61V90H63.37V61.61Z" fill="#211915"/><path d="M91.28,61.61l-4.23,12.8L91.68,90H84.06l-3-12.16V90H73.7V61.61h7.38v11l3.28-11Z" fill="#211915"/><path d="M93,61.61h12.3v5.67h-4.92v5.38h4.6v5.4h-4.6v6.23h5.41V90H93Z" fill="#211915"/><path d="M30.16,98.66h-3.7V96.18a4.33,4.33,0,0,0-.12-1.34.5.5,0,0,0-.52-.27.55.55,0,0,0-.58.32,5.12,5.12,0,0,0-.12,1.41v6.62a4.7,4.7,0,0,0,.12,1.35.53.53,0,0,0,.55.32.52.52,0,0,0,.54-.32,5,5,0,0,0,.13-1.49V101h3.7v.55a10.92,10.92,0,0,1-.31,3.14,3.19,3.19,0,0,1-1.38,1.62,4.75,4.75,0,0,1-2.63.7,5.52,5.52,0,0,1-2.69-.59,2.87,2.87,0,0,1-1.39-1.63,10.65,10.65,0,0,1-.35-3.14V97.48a18.33,18.33,0,0,1,.11-2.31,3.2,3.2,0,0,1,.63-1.48,3.52,3.52,0,0,1,1.45-1.12,5.29,5.29,0,0,1,2.13-.41,5.24,5.24,0,0,1,2.7.63,3,3,0,0,1,1.4,1.58,9.61,9.61,0,0,1,.33,2.94Z" fill="#211915"/><path d="M40,92.46V106.7H36.3v-6H35.19v6h-3.7V92.46h3.7v5.09H36.3V92.46Z" fill="#211915"/><path d="M47.89,92.46,50,106.7H46.22l-.2-2.56H44.7l-.22,2.56H40.65l1.89-14.24Zm-2,9.15q-.28-2.42-.57-6-.55,4.09-.71,6Z" fill="#211915"/><path d="M62.06,92.46V106.7H58.82V97.08l-1.29,9.62H55.24l-1.36-9.4v9.4H50.64V92.46h4.79c.14.86.29,1.86.44,3l.52,3.62.85-6.65Z" fill="#211915"/><path d="M63.55,92.46h3.72a8.68,8.68,0,0,1,2.33.24,2.51,2.51,0,0,1,1.22.68,2.32,2.32,0,0,1,.56,1.09,10.26,10.26,0,0,1,.14,2v1.24a5.15,5.15,0,0,1-.28,2,1.91,1.91,0,0,1-1,1,5,5,0,0,1-2,.33h-1v5.74h-3.7Zm3.7,2.43v3.63h.27a.88.88,0,0,0,.71-.25,1.89,1.89,0,0,0,.2-1V96.06a1.4,1.4,0,0,0-.23-1A1.47,1.47,0,0,0,67.25,94.89Z" fill="#211915"/><path d="M76.29,92.46V106.7h-3.7V92.46Z" fill="#211915"/><path d="M86.24,100.8a29.23,29.23,0,0,1-.11,3,3.37,3.37,0,0,1-2.07,2.77A5.26,5.26,0,0,1,82,107a5.35,5.35,0,0,1-2-.38,3.37,3.37,0,0,1-1.47-1.12,3.45,3.45,0,0,1-.65-1.63,27,27,0,0,1-.11-3.07V98.36a30.41,30.41,0,0,1,.1-3,3.37,3.37,0,0,1,2.07-2.76,5.16,5.16,0,0,1,2.11-.4,5.4,5.4,0,0,1,2.06.37,3.48,3.48,0,0,1,1.46,1.12,3.4,3.4,0,0,1,.66,1.63,29.83,29.83,0,0,1,.11,3.08Zm-3.71-4.68a4.11,4.11,0,0,0-.11-1.27.43.43,0,0,0-.45-.28.5.5,0,0,0-.44.22,3,3,0,0,0-.16,1.33v6.65a7.13,7.13,0,0,0,.1,1.53.45.45,0,0,0,.47.29.46.46,0,0,0,.49-.34,7.15,7.15,0,0,0,.1-1.59Z" fill="#211915"/><path d="M95.88,92.46V106.7H92.64l-1.93-6.48v6.48H87.62V92.46h3.09l2.08,6.41V92.46Z" fill="#211915"/><path d="M105.21,96.77h-3.44V95.71a2.07,2.07,0,0,0-.13-.94.49.49,0,0,0-.44-.2.55.55,0,0,0-.5.27,1.54,1.54,0,0,0-.17.83,2.33,2.33,0,0,0,.19,1.07,2.79,2.79,0,0,0,1,.87,10.59,10.59,0,0,1,3.12,2.41,5.52,5.52,0,0,1,.64,3,5.27,5.27,0,0,1-.36,2.24,2.77,2.77,0,0,1-1.37,1.21,5.52,5.52,0,0,1-2.38.49,5.23,5.23,0,0,1-2.53-.57A2.76,2.76,0,0,1,97.5,105a7.27,7.27,0,0,1-.32-2.47v-.93h3.43v1.73a2.22,2.22,0,0,0,.15,1,.57.57,0,0,0,.51.23.61.61,0,0,0,.55-.29,1.69,1.69,0,0,0,.18-.87,2.67,2.67,0,0,0-.34-1.64,10.36,10.36,0,0,0-1.73-1.29,18.06,18.06,0,0,1-1.83-1.33A3.09,3.09,0,0,1,97.36,98a5,5,0,0,1-.3-1.87,5.13,5.13,0,0,1,.42-2.39,2.82,2.82,0,0,1,1.35-1.18,5.28,5.28,0,0,1,2.25-.43,5.9,5.9,0,0,1,2.46.47,2.59,2.59,0,0,1,1.34,1.17,6.2,6.2,0,0,1,.33,2.41Z" fill="#211915"/><path d="M107.14,35.45V32.91h1.09a1.74,1.74,0,0,1,.59.07.52.52,0,0,1,.29.24.69.69,0,0,1,.11.4.67.67,0,0,1-.16.47.79.79,0,0,1-.51.24,1,1,0,0,1,.28.21,3.59,3.59,0,0,1,.29.41l.31.5h-.61l-.37-.55a4.15,4.15,0,0,0-.28-.38.36.36,0,0,0-.15-.1.79.79,0,0,0-.26,0h-.1v1.06Zm.52-1.47H108a2.06,2.06,0,0,0,.46,0,.26.26,0,0,0,.14-.11.29.29,0,0,0,.06-.19.32.32,0,0,0-.07-.2.28.28,0,0,0-.2-.1h-.77Z" fill="#211915"/><path d="M108.18,31.66a2.49,2.49,0,1,0,2.49,2.49A2.5,2.5,0,0,0,108.18,31.66Zm0,4.58a2.09,2.09,0,1,1,2.09-2.09A2.08,2.08,0,0,1,108.18,36.24Z" fill="#211915"/><rect x="115.9" y="33.58" width="73.47" height="73.47" fill="#3275d3"/><path d="M171.39,73.74a3.47,3.47,0,0,1-3.47-3.51,3.23,3.23,0,0,1,3.41-3.34c.93,0,2.2.34,2.2,1.06v.7h1.79V67.41c0-1.69-2.67-2.22-4-2.22a5.12,5.12,0,0,0-5.4,5,5.18,5.18,0,0,0,5.48,5.22,6.22,6.22,0,0,0,3.42-1L173.84,73a4.6,4.6,0,0,1-2.45.71" fill="#fff"/><polygon points="123.17 75.28 124.58 75.28 128.45 65.35 127.05 65.35 123.17 75.28" fill="#fff"/><polygon points="120.12 75.28 121.52 75.28 125.39 65.35 124 65.35 120.12 75.28" fill="#fff"/><path d="M139.4,73.73h1.53a1.44,1.44,0,1,0,0-2.87h-1.86v2.56a.29.29,0,0,0,.33.31m1.35-4.32A1.21,1.21,0,0,0,142,68.14a1.18,1.18,0,0,0-1.32-1.23h-1.65v2.5Zm-3.64-2.5h-1V65.35h4.61c1.92,0,3.3.93,3.3,2.56A2.31,2.31,0,0,1,142.75,70v0a2.35,2.35,0,0,1,1.71,2.34c0,2-1.7,2.88-3.68,2.88h-2.65c-.71,0-1-.28-1-1Z" fill="#fff"/><path d="M129.77,71.23l.91-2.49c.2-.55.42-1.48.42-1.48h0s.23.93.42,1.48l.92,2.49Zm6,2.5c-.26,0-.38-.06-.47-.31l-3.15-8.07H130.1l-3.87,9.93h1.18c.75,0,1-.18,1.25-.81l.66-1.73h3.6l.66,1.73c.24.63.51.81,1.26.81h1.46V73.73Z" fill="#fff"/><path d="M163.38,65.35c-.72,0-1,.3-1,1v4.55c0,.57.1,1.4.1,1.4h0a15.67,15.67,0,0,0-.88-1.4l-4-5.5h-1.77v9.93h.95c.72,0,1-.28,1-1V69.8a13.38,13.38,0,0,0-.11-1.4h0a15.31,15.31,0,0,0,.89,1.4l4,5.48h1.75V67.21a.29.29,0,0,1,.33-.31h.65V65.35Z" fill="#fff"/><path d="M148.17,71.23l.92-2.49c.19-.55.42-1.48.42-1.48h0s.22.93.42,1.48l.91,2.49Zm6,2.5a.4.4,0,0,1-.46-.31l-3.15-8.07H148.5l-3.87,9.93h1.19c.75,0,1-.18,1.24-.81l.66-1.73h3.6l.66,1.73c.24.63.51.81,1.26.81h1.46V73.73Z" fill="#fff"/><path d="M178.62,71.23l.92-2.49c.19-.55.42-1.48.42-1.48h0s.22.93.42,1.48l.91,2.49Zm6,2.5a.4.4,0,0,1-.46-.31L181,65.35H179l-3.87,9.93h1.19c.75,0,1-.18,1.24-.81l.66-1.73h3.6l.66,1.73c.24.63.51.81,1.26.81h1.46V73.73Z" fill="#fff"/><rect width="210.79" height="138.71" fill="none"/></g></g></svg>