<svg xmlns="http://www.w3.org/2000/svg" viewBox="0 0 210.79 138.71"><g id="Capa_2" data-name="Capa 2"><g id="Capa_1-2" data-name="Capa 1"><path d="M46.72,82.73s-.63-4.79,2.56-7.55,8-5,19.1-5,23.74,4.09,36.29,4S125,72.07,132.14,71s15.65-1.31,23,1.07,8.67,6.1,8.87,8.33a6.77,6.77,0,0,1,0,2.57,13.19,13.19,0,0,0-5.19-7c-4.07-2.66-13.66-1.4-18.12,0s-15.31,5.43-21.81,7.61-9.13,1.89-13.67,2.32-15.11-2.9-20.44-4.89-11.58-4.41-17.63-5.62S54.71,73.9,50.79,76.77,46.72,82.73,46.72,82.73Z" fill="#293c4d"/><path d="M121.53,83.22A137.1,137.1,0,0,1,144.21,76c11.38-2.38,15.84.82,17.49,3.61s1.35,3.08,1.35,3.08a21.07,21.07,0,0,0-11.19-3.83C144.79,78.37,121.53,83.22,121.53,83.22Z" fill="#c44545"/><path d="M47.59,82.78S48,78,53.79,76s15.6.39,22.92,2.81,12.16,4.31,12.16,4.31S69.39,79,60.57,78.81,47.59,82.78,47.59,82.78Z" fill="#c44545"/><path d="M147.11,117.18H153s-.09-11.24-.29-13-3.58-8.29-11.58-8.29-12.06,5.38-12.06,11.44,5,10.17,10.71,10.17,7.36-3,7.36-3l0,.63Zm-6.27-4.74a5.6,5.6,0,1,1,5.59-5.6A5.6,5.6,0,0,1,140.84,112.44Z" fill="#293c4d"/><path d="M86.71,117.18h5.91s-.1-11.24-.29-13-3.58-8.29-11.58-8.29-12.06,5.38-12.06,11.44,5,10.17,10.7,10.17,7.37-3,7.37-3l-.05.63Zm-6.27-4.74a5.6,5.6,0,1,1,5.59-5.6A5.6,5.6,0,0,1,80.44,112.44Z" fill="#293c4d"/><path d="M166.51,95.91a11,11,0,1,0,11,11A11,11,0,0,0,166.51,95.91Zm-.33,18.67c-4.24,0-6.26-1.19-6.26-1.19l.62-4s.11.17,2,.62,5.27.77,5.27-1-6.87-.94-6.87-.94l1.36-8.72h10.15l-.14,4.18h-6.24l-.28,1.15a12.69,12.69,0,0,1,2.68-.14c2.23,0,5,1.4,5,4.54S170.42,114.58,166.18,114.58Z" fill="#c44545"/><path d="M33.27,117.1v-14a7.91,7.91,0,0,1,8.26-7.22c6.67,0,8,4.36,8.36,4.36s1.58-4.36,8.32-4.36,8.24,5.72,8.24,8.13V117.1h-6.1V105.62c0-1.92-.79-4.14-3.46-4.14s-4.1,1.43-4.1,4.21V117.1H47V105.65c0-1.24-.53-4.41-3.65-4.41S39.42,104,39.42,106V117.1Z" fill="#293c4d"/><path d="M95,117.06h6.28V104.49a3.69,3.69,0,0,1,3.92-3.25c2.37.05,4.14,1.33,4.14,4.45v11.37h6V103.58c0-2.37-1.73-7.67-10-7.67S95,101.14,95,104.71Z" fill="#293c4d"/><path d="M124.54,88.07l-6.29,2.6v16.68c0,2.75,1.66,7.38,2.22,8.58l.57,1.21h7.6s-3.12-5-3.65-8.44a30.4,30.4,0,0,1-.3-6.32h1.58l2.82-6.63h-4.44Z" fill="#293c4d"/><circle cx="105.39" cy="44.53" r="23.68" fill="#3275d3"/><polygon points="94.05 55.72 97.2 55.72 105.92 33.35 102.77 33.35 94.05 55.72" fill="#fff"/><polygon points="87.17 55.72 90.33 55.72 99.05 33.35 95.9 33.35 87.17 55.72" fill="#fff"/><path d="M108.9,46.58,111,41c.44-1.22,1-3.34,1-3.34H112s.52,2.12,1,3.34L115,46.58Zm13.52,5.64a.91.91,0,0,1-1-.69l-7.1-18.18h-4.63l-8.72,22.36h2.67c1.69,0,2.27-.41,2.81-1.83l1.48-3.9H116l1.49,3.9c.54,1.42,1.15,1.83,2.84,1.83h3.28V52.22Z" fill="#fff"/><rect width="210.79" height="138.71" fill="none"/></g></g></svg>