<svg xmlns="http://www.w3.org/2000/svg" viewBox="0 0 210.79 138.71"><g id="Capa_2" data-name="Capa 2"><g id="Capa_1-2" data-name="Capa 1"><rect width="210.79" height="138.71" fill="none"/><path d="M57.63,87c-1-4.58-1.59-14.52-1.53-19.89.07-6.47-.24-13.54,1.41-19.46,4.88-1.1,10.06-.37,14.58.49,0,4.69.24,9.45-.43,14.09-1.46.12-4.09.06-5.67.12-.19-1.34.12-3.78-.19-5.37H63.61c-.55,2-.86,8.79-.92,10.62s.37,7.2.55,9.64c.67.24,3,.3,3.36-.25l-.18-4.88c0-.43-1.35-.36-2.32-.43a45.69,45.69,0,0,1-.37-7.25c1.89.06,4.88.36,6.83.36,1.1,0,1.65.25,1.65.79.24,6.84.37,15.38-.73,21.36C66.6,87.17,62.45,86.38,57.63,87Z"/><path d="M94.05,86.87a36.43,36.43,0,0,1-8.48,0c-.37-4.58-.43-7.94-.92-11.6h-2c-.91,5.49-.91,8.48-1.4,11.84a69.48,69.48,0,0,1-7.08,0c1.4-13.3,2.2-26.54,4.21-39.84a68.94,68.94,0,0,0,9.88-.36C90.33,59.29,91.55,71.86,94.05,86.87Zm-8.6-20.81C85,62.52,84.53,59.54,84,55.14,83.13,60,83,62.89,82.52,66.31Z"/><path d="M102.16,47.33c.18,9.7-.92,20.93.24,29,4.76.67,9.4.43,14.22.31a37.51,37.51,0,0,1,.12,10.06c-6.1-.24-15.8.31-20.62-.24.18-12.81-.3-27-.3-39.53A38.46,38.46,0,0,1,102.16,47.33Zm15.37,26.79c-3.72-.13-9.09.36-12.63-.25-.18-8.66.07-17.57-.91-26.23a109.4,109.4,0,0,1,12.93-.49c.37,1.22.55,5.37-.24,5.67a19.77,19.77,0,0,1-5.06-.12c-.43.55-.07,2.56-.07,3.79a23.87,23.87,0,0,0,4.4.12c-.37,1.89.12,3.41-.61,5.61a22.63,22.63,0,0,1-4-.12,14.62,14.62,0,0,0-.18,3.35,49.62,49.62,0,0,0,6.59.25C117.84,68.26,117.41,70.58,117.53,74.12Z"/><path d="M131.87,86.62c.12-2.8-.19-6.89-.49-11-.18-2.44.43-4.51-2.75-3.84-.24,3.41.13,14,0,15a46.44,46.44,0,0,1-7.74-.12c.55-13,.12-26.53-.25-39.35,3.91-.48,9.4-.48,13.18-.79,1.89,2.32,2.5,8.05,2.56,11.78a11.77,11.77,0,0,1-2.44,7.86c1.59,1.29,3.23,2.38,4.09,4.64,1,2.62,1,12.45.36,16.11C137.17,86.93,133.27,87.17,131.87,86.62Zm-2.2-32-2.38.67c.25,5.86.37,4.15.43,8.18,1.28.18,1.71-.24,2.74-.73A39,39,0,0,0,129.67,54.59ZM142.12,86.8c.24-6.22-.13-13.66-.19-19.46-1.34-6.83-2.8-14.15-5.3-20.31a73.51,73.51,0,0,1,8.11-.18c.79,3.84,1,7.87,2.2,11.28,1-2.93,1.46-8.23,2.8-11.22A42.86,42.86,0,0,1,156,47c-1.4,5.92-3.9,15.13-5.43,21.23-.18,5.92-.12,13.24-.24,18.67C148.34,86.74,144.19,87.29,142.12,86.8Z"/></g></g></svg>