<svg xmlns="http://www.w3.org/2000/svg" viewBox="0 0 210.79 138.71"><g id="Capa_2" data-name="Capa 2"><g id="Capa_1-2" data-name="Capa 1"><rect width="210.79" height="138.71" fill="none"/><path d="M78.59,87c-1.59-5.8-2.38-9.46-3.73-14.58-.12,3.6.25,10.67.25,14.21-2.56.12-3.91-.12-5.49-.12.3-11.23-.25-35.75-.37-39.17,1.83,0,3.6-.24,5.49-.36,1.28,2.86,3.05,12.32,3.85,14,.36-3.36-.31-10.19-.31-13.67,1.83-.18,3.6-.36,4.39-.36,1.16,0,1.71.24,1.71,1-.67,13.12.37,27,.12,39.05C82.61,86.5,80.42,87,78.59,87Z"/><path d="M100.91,86.5c-1.58.67-10.8.49-12.87.3C88,75.58,87.8,60.45,88,47c3.6-.55,8.11-.18,11.65-.12-.18,3,.18,6.1-.12,9.15A25.56,25.56,0,0,0,94.2,56c.06,1.09.12,2.32.12,4.21,1.65-.19,3.24,0,4.94-.13.61,2.32.43,4.46.43,7.14-1.22-.06-2.38.12-3.72,0-.18,3.54,0,7,.06,10.74,1.59-.18,3.48.06,5.06-.12C101.16,79.85,101,85.46,100.91,86.5Z"/><path d="M111.34,87.05a36.13,36.13,0,0,0-5.31-.12c-.67-11.53-2.31-26.72-4-40,1-.06,5.43-.12,6.71.3.12,3.6,1.16,6.71,1.28,14.34.49-2.26,1.4-11.84,1.52-14.58a15.68,15.68,0,0,0,3.91-.06c.73,3.35,1,9.76,2.32,15.25.91-4.33.91-10.86,1.4-15.25,1.65.06,4.21-.43,5.73,0-1.52,13.78-2.13,28.73-3,39.77a39.9,39.9,0,0,0-4.64,0,143.86,143.86,0,0,1-3.54-16.41C113.17,75.64,112,82.53,111.34,87.05Z"/><path d="M141.35,85c-.06,1.15-.91,1.7-2.68,1.7-2.75,0-7.69.67-10.13-.3-1.89-1.16-1.22-13.3-.61-14.58a13.22,13.22,0,0,1,3.72.67c.25,2,.19,4.15.92,5.86h2.2c.42-1.47.12-3.06.24-4.58-1.89-2-4.82-4.15-7.5-7.14a60.81,60.81,0,0,1,.06-20.07,50.42,50.42,0,0,1,12.63.31c1.34,3.23,1.22,10.67,1.64,14.94-.42,1.16-5.61,1.22-5.92-.18.07-2.2-.18-4.39-.24-6.65l-2.74.85a45.82,45.82,0,0,0,.06,5.86c2.25,1.59,6.4,3.72,8.72,6.16C141.84,73.93,141.54,79.48,141.35,85Z"/></g></g></svg>