<svg xmlns="http://www.w3.org/2000/svg" viewBox="0 0 210.79 138.71"><g id="Capa_2" data-name="Capa 2"><g id="Capa_1-2" data-name="Capa 1"><rect width="210.79" height="138.71" fill="none"/><path d="M42.5,64.48c-.24-5.49.19-12.69,1.65-17.63,2.81.06,6-.13,9.58-.13,2.44,0,3.66.68,3.66,2.08a105.38,105.38,0,0,1,0,13.18c0,.3-2.5.3-5.86.6-.43-2.74-.18-4.88-.73-6.71l-1.22.07c-.67,2.68-.43,5.85-.55,8.54a53.82,53.82,0,0,0,1,12.75h1.58a64.56,64.56,0,0,0-.42-9.46,50.18,50.18,0,0,0,5.67.06c.67,0,1,.86.92,2.62-.13,5-.61,12.75-1,16.11-2.75,1.16-8.79.55-11.29.73C43.17,79.79,43,73.38,42.5,64.48Z"/><path d="M79.23,86.87a36.43,36.43,0,0,1-8.48,0c-.37-4.58-.43-7.94-.92-11.6h-2c-.92,5.49-.92,8.48-1.4,11.84a69.48,69.48,0,0,1-7.08,0c1.4-13.3,2.2-26.54,4.21-39.84a68.94,68.94,0,0,0,9.88-.36C75.51,59.29,76.73,71.86,79.23,86.87Zm-8.6-20.81c-.43-3.54-.92-6.52-1.41-10.92-.91,4.88-1.1,7.75-1.52,11.17Z"/><path d="M90.45,86.62c-.25-2.07-.06-8.91-.79-11.41H88.25c-.24,3.42.12,10.31,0,11.35-1.28.31-5.55.49-7-.12.55-13,.12-26.29-.25-39.11a71.64,71.64,0,0,1,12.69-.61c1.71,2.38,3,8.54,3,12.27a78.83,78.83,0,0,1-.43,10.06l-2,1.83c1,.55,3.11,1.65,3,3.3s-.3,9.09-.91,12.75C95.15,86.93,91.85,87.17,90.45,86.62Zm.12-20.5A66.26,66.26,0,0,0,90,54.59l-2.38.67c.25,4,.37,7.57.43,11.6Z"/><path d="M109.48,86.62c-.24-2.07-.06-8.91-.79-11.41h-1.41c-.24,3.42.13,10.31,0,11.35-1.28.31-5.55.49-7-.12.55-13,.12-26.29-.24-39.11a71.49,71.49,0,0,1,12.68-.61c1.71,2.38,3,8.54,3.05,12.27a78.81,78.81,0,0,1-.42,10.06l-2,1.83c1,.55,3.12,1.65,3,3.3s-.3,9.09-.91,12.75C114.18,86.93,110.88,87.17,109.48,86.62Zm.12-20.5a66.26,66.26,0,0,0-.55-11.53l-2.37.67c.24,4,.36,7.57.42,11.6Z"/><path d="M139.13,86.5c-1.59.67-17.63.49-19.71.3-.06-11.22-.24-26.35-.06-39.77,3.6-.55,7.87-.18,11.41-.12-.18,3,.18,6.1-.12,9.15a23.23,23.23,0,0,0-5.06-.06c.06,1.09-.25,2.92.12,4.21,1.64-.19,3,0,4.69-.13.61,2.32.43,4.46.43,7.14-1.22-.06-2.13.12-3.48,0-.18,3.54,0,7,.07,10.74,1.58-.18,10.3.06,11.89-.12C139.37,79.85,139.25,85.46,139.13,86.5Zm3.6.12c-.25-2.07.36-13.12-.8-15.07h-1.64V75c-1.59.49-4.52.3-6.77.43.54-13,.12-15.31-.25-28.13,3.6-1.09,8.91-.48,12.69-.79,2.26,2.38,3,5.74,3,9.46a68.72,68.72,0,0,1-.43,9.39l-2,1.83c1.16,1.22,3.72,1.65,3.6,3.3s-.31,12.75-.91,16.41C148,86.93,144.13,87.17,142.73,86.62Zm.49-24.16c-.49-4-.25-4.14-.92-7.87l-2.38.67c.25,4,.12,3.91.18,7.94Z"/><path d="M167.61,85c-.06,1.15-.91,1.7-2.68,1.7-2.75,0-7.69.67-10.13-.3-1.89-1.16-1.22-13.3-.61-14.58a13.22,13.22,0,0,1,3.72.67c.25,2,.19,4.15.92,5.86H161c.42-1.47.12-3.06.24-4.58-1.89-2-4.82-4.15-7.5-7.14a60.81,60.81,0,0,1,.06-20.07,50.42,50.42,0,0,1,12.63.31c1.34,3.23,1.22,10.67,1.64,14.94-.42,1.16-5.61,1.22-5.92-.18.07-2.2-.18-4.39-.24-6.65l-2.74.85a45.82,45.82,0,0,0,.06,5.86c2.25,1.59,6.4,3.72,8.72,6.16C168.1,73.93,167.8,79.48,167.61,85Z"/></g></g></svg>