<svg xmlns="http://www.w3.org/2000/svg" viewBox="0 0 210.79 138.71"><g id="Capa_2" data-name="Capa 2"><g id="Capa_1-2" data-name="Capa 1"><rect width="210.79" height="138.71" fill="none"/><path d="M54.06,86.87a36.43,36.43,0,0,1-8.48,0c-.36-4.58-.42-7.94-.91-11.6h-2c-.92,5.49-.92,8.48-1.41,11.84a69.28,69.28,0,0,1-7.07,0c1.4-13.3,2.19-26.54,4.21-39.84a69,69,0,0,0,9.88-.36C50.34,59.29,51.56,71.86,54.06,86.87Zm-8.6-20.81c-.43-3.54-.91-6.52-1.4-10.92C43.14,60,43,62.89,42.53,66.31Z"/><path d="M71.39,82.29c-.49,1.16-3,3.42-4.33,4.21-3.48.18-7.14.24-10.38.24a332.29,332.29,0,0,1-.42-39.65c2.44-.06,6,0,8.48,0,2.13,0,3.72,1.22,5.24,2.87,1.16,1.28,1.89,2,1.89,2.56a80.21,80.21,0,0,1-.79,12.26A9.24,9.24,0,0,0,69,67.47a12.27,12.27,0,0,1,2.86,4C71.81,76,72.06,78.75,71.39,82.29ZM62.6,65.64c.67.42,2,0,2.93-.31,0-3.17-.43-6.41-.43-9.58a3.31,3.31,0,0,0-2.93.49C62.24,58.32,62.42,65.09,62.6,65.64Zm3.11,13.9c-.36-2.8-.42-6.22-.73-8.35l-2.26.36c.13,2.87.25,4.82.43,8.67Z"/><path d="M93.22,86.87a36.35,36.35,0,0,1-8.47,0c-.37-4.58-.43-7.94-.92-11.6h-2c-.92,5.49-.92,8.48-1.41,11.84a69.29,69.29,0,0,1-7.07,0c1.4-13.3,2.19-26.54,4.21-39.84a68.94,68.94,0,0,0,9.88-.36C89.5,59.29,90.72,71.86,93.22,86.87Zm-8.6-20.81c-.42-3.54-.91-6.52-1.4-10.92-.91,4.88-1.1,7.75-1.53,11.17Z"/><path d="M94.32,47.4c.49-.55,5.55-.55,7.38.06,0,10.73.12,17.08.73,29.46l2.51-.67c0-9.27-.55-9.52-.55-19.52,2.25-.06,4.82.3,6.89.18.37,11.71.24,17-.24,28.06-2,1.47-5.07,1.59-7,1.71-4.33.25-7,.06-9.09-1.64C94.26,73.2,94.2,59.05,94.32,47.4Zm28.19,8.84c-.68,9.33-.31,20.92-.31,30.69a21.14,21.14,0,0,0-7.38.18c0-10.92.24-22-1.1-32.88-.91-.55-7.69-.31-8.91-.61-.12-.73-.18-4.94-.48-6.35,5.24-.48,16.53.37,22.32,0,0,0-.42,6.23-.42,9C125.07,56.24,123.66,56.18,122.51,56.24Z"/><path d="M141,83.2c-.74-11.83-.8-24.15-.68-35.8.49-.55,5.19-.55,7,.06.55,9.51,0,19.64,1.1,29.1l2.07-.68v-.06c0-9.21-.55-18.6-.55-28.61,2.26-.06,4.82.31,6.9.19.36,11.71.18,25.25-.31,36.35-.06,1.35-1.71,2.38-3.54,2.81s-7.13.43-9.15-.43C142.94,85.1,142.39,84.73,141,83.2Z"/><path d="M174.9,85c-.06,1.15-.91,1.7-2.68,1.7-2.75,0-7.69.67-10.13-.3-1.89-1.16-1.22-13.3-.61-14.58a13.22,13.22,0,0,1,3.72.67c.25,2,.19,4.15.92,5.86h2.19c.43-1.47.13-3.06.25-4.58-1.89-2-4.82-4.15-7.51-7.14a61.06,61.06,0,0,1,.07-20.07,50.34,50.34,0,0,1,12.62.31c1.35,3.23,1.22,10.67,1.65,14.94-.43,1.16-5.61,1.22-5.92-.18.06-2.2-.18-4.39-.24-6.65l-2.75.85a47.73,47.73,0,0,0,.06,5.86c2.26,1.59,6.41,3.72,8.73,6.16C175.39,73.93,175.09,79.48,174.9,85Z"/></g></g></svg>