<svg xmlns="http://www.w3.org/2000/svg" viewBox="0 0 1290.4 440.85"><g id="Capa_2" data-name="Capa 2"><g id="Capa_1-2" data-name="Capa 1"><path d="M125,4.46V216.63H76.59l-28.7-96.45v96.45H1.76V4.46H47.89L78.82,100V4.46Z"/><path d="M147.1,4.46h92V46.92H202.27V87.15h34.47v40.36H202.27v46.66h40.5v42.46H147.1Z"/><path d="M466.34,4.46,441.78,216.63H372.89q-9.45-48.9-16.7-111.26-3.3,26.73-15.38,111.26h-68.5L247.62,4.46h53.6l5.83,74,5.64,71.57q3-55.56,15.25-145.6h57.29q1.14,9.3,6,70l6.1,80.73q4.69-77,15.39-150.71Z"/><path d="M651.13,82.56H596V63.3q0-18.21-1.57-22.8t-7.47-4.59c-3.4,0-5.72,1.31-6.94,3.93s-1.84,9.35-1.84,20.18V161.85q0,14.28,1.84,18.81c1.22,3,3.67,4.52,7.33,4.52q6,0,8.2-5.11t2.16-19.92V135H586.52V102.75h64.61V216.63H616.46l-5.11-15.2a38.58,38.58,0,0,1-14.23,14.74q-8.58,4.92-20.26,4.92a52.66,52.66,0,0,1-26-6.75q-12.14-6.75-18.43-16.71a52.9,52.9,0,0,1-7.87-20.91Q523,165.79,523,143.9v-63q0-30.4,3.27-44.17T545,11.47Q560.57,0,585.21,0q24.24,0,40.23,10t20.84,23.66q4.85,13.7,4.85,39.77Z"/><path d="M727.66,4.46V174.17h33.55v42.46H672.49V4.46Z"/><path d="M896.59,128.69q0,32-1.51,45.28a50.69,50.69,0,0,1-30.86,41.22q-13.5,5.9-31.45,5.9a80,80,0,0,1-30.6-5.57,51,51,0,0,1-31.65-41q-1.57-13.09-1.58-45.87V92.39q0-32,1.51-45.28A50.71,50.71,0,0,1,801.31,5.9Q814.81,0,832.77,0a80,80,0,0,1,30.6,5.57,51,51,0,0,1,31.65,41q1.56,13.11,1.57,45.87ZM841.42,59q0-14.8-1.64-18.93c-1.1-2.76-3.34-4.13-6.75-4.13a7.52,7.52,0,0,0-6.62,3.34Q824.12,42.6,824.12,59v99.08q0,18.48,1.5,22.8c1,2.89,3.34,4.33,7,4.33s6.15-1.66,7.2-5,1.58-11.23,1.58-23.72Z"/><path d="M917.16,4.46h55.05q26.07,0,39.51,4.06A39.17,39.17,0,0,1,1033.41,25q8.25,12.38,8.25,39.88,0,18.6-5.83,25.93t-23,11.26q19.14,4.33,25.95,14.36t6.81,30.75V166.8q0,21.51-4.91,31.87A26.55,26.55,0,0,1,1025,212.83q-10.75,3.79-44,3.8H917.16Zm55.18,36.3V87.94c2.36-.09,4.19-.13,5.5-.13q8.13,0,10.35-4t2.23-22.87q0-10-1.83-14c-1.23-2.66-2.82-4.34-4.79-5S978,40.85,972.34,40.76Zm0,80.2v59.37q11.65-.39,14.87-3.67t3.21-16.12V140.75q0-13.64-2.88-16.51T972.34,121Z"/><path d="M1160.76,4.46l31.55,212.17h-56.39l-3-38.14h-19.73l-3.32,38.14h-57L1081,4.46Zm-29.24,136.42q-4.2-36-8.41-89.11-8.43,60.93-10.59,89.11Z"/><path d="M1256.85,4.46V174.17h33.55v42.46h-88.72V4.46Z"/><path d="M201,241.76l-22.58,195H115.13q-8.68-44.94-15.35-102.25-3,24.57-14.14,102.25H22.7L0,241.76H49.26l5.36,68,5.18,65.78q2.81-51.06,14-133.81h52.65q1.05,8.55,5.53,64.31l5.6,74.2q4.34-70.81,14.16-138.51Z"/><path d="M296.25,241.76l29,195H273.43l-2.72-35.05H252.57l-3,35.05H197.1l25.87-195ZM269.38,367.14q-3.86-33.13-7.72-81.9-7.76,56-9.73,81.9Z"/><path d="M422.39,241.76v39H392.28v156H341.57v-156h-30v-39Z"/><path d="M434,241.76H518.5v39H484.65v37h31.68v37.09H484.65v42.88h37.22v39H434Z"/><path d="M536.44,241.76h35.89q35.89,0,48.6,2.77t20.72,14.15q8,11.38,8,36.31,0,22.77-5.66,30.59T621.71,335q15.06,3.74,20.24,10t6.44,11.5q1.27,5.24,1.27,28.84v51.43h-47.1V372q0-15.65-2.46-19.39t-13-3.73v87.92H536.44Zm50.71,33.36v43.36q8.55,0,12-2.35t3.43-15.24V290.18q0-9.29-3.31-12.17T587.15,275.12Z"/><path d="M776.72,300.77H729.63V286.32q0-10.11-1.81-12.89c-1.2-1.84-3.21-2.77-6-2.77a7.68,7.68,0,0,0-6.93,3.74q-2.34,3.74-2.34,11.33,0,9.76,2.64,14.7t14.33,11.93q33.86,20.08,42.64,33t8.8,41.55q0,20.83-4.88,30.71t-18.85,16.56q-14,6.69-32.52,6.69-20.36,0-34.75-7.71T671.1,413.51q-4.47-11.92-4.46-33.85V366.9h47.09v23.72q0,11,2,14.09t7,3.14a8.25,8.25,0,0,0,7.53-4q2.48-4,2.47-11.8,0-17.22-4.7-22.52t-23.72-17.71q-18.92-12.52-25.05-18.19T669.11,318q-4-10-4-25.54,0-22.4,5.72-32.76t18.49-16.2q12.76-5.83,30.83-5.84,19.75,0,33.67,6.39t18.42,16.08q4.53,9.69,4.52,32.94Z"/><path d="M796.83,241.76H847.9q20.72,0,31.86,3.25t16.74,9.39a32.39,32.39,0,0,1,7.59,14.88q2,8.73,2,27v17q0,18.68-3.85,27.22t-14.15,13.13q-10.3,4.58-26.92,4.57H847.54v78.53H796.83Zm50.71,33.36v49.62c1.45.08,2.69.12,3.73.12q7,0,9.7-3.43t2.71-14.27v-16q0-10-3.13-13T847.54,275.12Z"/><path d="M1036.51,355.94q0,29.38-1.38,41.61a46.64,46.64,0,0,1-28.37,37.88q-12.4,5.42-28.9,5.42a73.53,73.53,0,0,1-28.13-5.12,46.88,46.88,0,0,1-29.08-37.64q-1.46-12-1.45-42.15V322.57q0-29.38,1.39-41.61A46.61,46.61,0,0,1,949,243.08q12.4-5.42,28.91-5.42a73.51,73.51,0,0,1,28.12,5.12,46.92,46.92,0,0,1,29.09,37.64q1.44,12,1.44,42.15ZM985.8,291.86q0-13.61-1.5-17.4t-6.2-3.8a6.94,6.94,0,0,0-6.09,3.08q-2.1,3.06-2.1,18.12v91.05q0,17,1.38,21t6.45,4q5.18,0,6.62-4.58t1.44-21.8Z"/><path d="M1055.42,241.76h35.89q35.89,0,48.6,2.77t20.72,14.15q8,11.38,8,36.31,0,22.77-5.66,30.59t-22.28,9.4q15.06,3.74,20.24,10t6.44,11.5q1.26,5.24,1.26,28.84v51.43h-47.09V372q0-15.65-2.47-19.39t-12.94-3.73v87.92h-50.71Zm50.71,33.36v43.36q8.55,0,12-2.35t3.43-15.24V290.18q0-9.29-3.31-12.17T1106.13,275.12Z"/><path d="M1290.4,241.76v39h-30.11v156h-50.71v-156h-30v-39Z"/></g></g></svg>