<svg xmlns="http://www.w3.org/2000/svg" viewBox="0 0 345.85 65.4"><g id="Capa_2" data-name="Capa 2"><g id="Capa_1-2" data-name="Capa 1"><rect width="345.85" height="65.4" fill="#211915"/><path d="M75.81,37.18v10.7H69.56V17.52H81.4a13.78,13.78,0,0,1,6,1.25,9.21,9.21,0,0,1,4,3.55,10,10,0,0,1,1.4,5.25,8.73,8.73,0,0,1-3.06,7q-3,2.56-8.45,2.57Zm0-5.07H81.4A5.54,5.54,0,0,0,85.19,31a4.28,4.28,0,0,0,1.3-3.34A5,5,0,0,0,85.18,24a4.92,4.92,0,0,0-3.63-1.41H75.81Z" fill="#fff"/><path d="M108.34,36.76h-5V47.88H97.1V17.52h11.28c3.59,0,6.35.8,8.3,2.4a8.25,8.25,0,0,1,2.92,6.77,9.3,9.3,0,0,1-1.35,5.18,9.09,9.09,0,0,1-4.07,3.31l6.57,12.4v.3H114Zm-5-5.06h5a5.16,5.16,0,0,0,3.65-1.2,4.29,4.29,0,0,0,1.29-3.31,4.58,4.58,0,0,0-1.21-3.37,5.1,5.1,0,0,0-3.75-1.23h-5Z" fill="#fff"/><path d="M142.62,34.72h-12v8.13H144.7v5H124.35V17.52h20.31v5.07h-14v7.23h12Z" fill="#fff"/><path d="M164.12,39.91a3.2,3.2,0,0,0-1.26-2.72,16.32,16.32,0,0,0-4.5-2,30.68,30.68,0,0,1-5.15-2.08Q148,30.32,148,25.59a7.29,7.29,0,0,1,1.39-4.39,9,9,0,0,1,4-3,14.85,14.85,0,0,1,5.83-1.09A13.55,13.55,0,0,1,165,18.28,9.14,9.14,0,0,1,169,21.61a8.66,8.66,0,0,1,1.41,4.87h-6.25a4.08,4.08,0,0,0-1.32-3.24,5.38,5.38,0,0,0-3.69-1.15,5.78,5.78,0,0,0-3.56,1,3.07,3.07,0,0,0-1.28,2.56,2.92,2.92,0,0,0,1.5,2.48A16.84,16.84,0,0,0,160.17,30c3.56,1.07,6.16,2.39,7.78,4a7.91,7.91,0,0,1,2.44,5.92,7.29,7.29,0,0,1-3,6.18,13,13,0,0,1-8,2.24A15.44,15.44,0,0,1,153,47a10,10,0,0,1-4.39-3.51,9,9,0,0,1-1.51-5.17h6.28q0,5,6,5a5.85,5.85,0,0,0,3.48-.9A3,3,0,0,0,164.12,39.91Z" fill="#fff"/><path d="M192.89,34.72h-12v8.13H195v5H174.62V17.52h20.31v5.07H180.88v7.23h12Z" fill="#fff"/><path d="M223.33,47.88h-6.26l-12.17-20v20h-6.26V17.52h6.26l12.2,20v-20h6.23Z" fill="#fff"/><path d="M251,22.59h-9.3V47.88h-6.26V22.59h-9.17V17.52H251Z" fill="#fff"/><path d="M270,39.91a3.19,3.19,0,0,0-1.25-2.72,16.32,16.32,0,0,0-4.5-2,30.68,30.68,0,0,1-5.15-2.08q-5.18-2.79-5.17-7.52a7.35,7.35,0,0,1,1.38-4.39,9,9,0,0,1,4-3,14.83,14.83,0,0,1,5.82-1.09,13.6,13.6,0,0,1,5.8,1.18,9.2,9.2,0,0,1,3.95,3.33,8.66,8.66,0,0,1,1.41,4.87H270a4.07,4.07,0,0,0-1.31-3.24A5.42,5.42,0,0,0,265,22.09a5.83,5.83,0,0,0-3.57,1,3.09,3.09,0,0,0-1.27,2.56,2.93,2.93,0,0,0,1.49,2.48A17.09,17.09,0,0,0,266.07,30c3.56,1.07,6.15,2.39,7.78,4a7.91,7.91,0,0,1,2.44,5.92,7.29,7.29,0,0,1-3,6.18,13,13,0,0,1-8,2.24A15.44,15.44,0,0,1,258.9,47a10,10,0,0,1-4.39-3.51A9,9,0,0,1,253,38.33h6.28q0,5,6,5a5.85,5.85,0,0,0,3.48-.9A3,3,0,0,0,270,39.91Z" fill="#fff"/></g></g></svg>