<?xml version="1.0" encoding="utf-8"?>
<!-- Generator: Adobe Illustrator 25.4.1, SVG Export Plug-In . SVG Version: 6.00 Build 0)  -->
<svg version="1.1" id="Capa_1" xmlns="http://www.w3.org/2000/svg" xmlns:xlink="http://www.w3.org/1999/xlink" x="0px" y="0px"
	 viewBox="0 0 210.8 138.7" style="enable-background:new 0 0 210.8 138.7;" xml:space="preserve">
<style type="text/css">
	.st0{fill:#FFFFFF;}
</style>
<g id="Capa_2_00000067931678436475989550000007348543059959001221_">
	<g id="Capa_1-2">
		<path d="M162.1,69.4c0-31.3-25.4-56.7-56.7-56.7S48.7,38.1,48.7,69.4c0,27.9,20.3,51.6,47.8,56V85.7H82.1V69.4h14.4V56.9
			c0-14.2,8.5-22.1,21.4-22.1c4.3,0.1,8.5,0.4,12.7,1.1v14h-7.2c-7.1,0-9.2,4.4-9.2,8.9v10.6h15.7l-2.5,16.4h-13.1v39.6
			C141.8,121,162.1,97.2,162.1,69.4z"/>
		<path class="st0" d="M127.5,85.7l2.5-16.4h-15.7V58.7c0-4.5,2.2-8.9,9.2-8.9h7.1v-14c-4.2-0.7-8.4-1-12.7-1.1
			c-12.9,0-21.4,7.9-21.4,22.1v12.5H82.1v16.4h14.4v39.6c5.9,0.9,11.8,0.9,17.7,0V85.7H127.5z"/>
	</g>
</g>
</svg>
