<?xml version="1.0" encoding="utf-8"?>
<!-- Generator: Adobe Illustrator 25.4.1, SVG Export Plug-In . SVG Version: 6.00 Build 0)  -->
<svg version="1.1" id="Capa_1" xmlns="http://www.w3.org/2000/svg" xmlns:xlink="http://www.w3.org/1999/xlink" x="0px" y="0px"
	 viewBox="0 0 210.8 138.7" style="enable-background:new 0 0 210.8 138.7;" xml:space="preserve">
<style type="text/css">
	.st0{fill:#FFFFFF;}
</style>
<g id="Capa_2_00000170985725984755090410000014102300927803868586_">
	<g id="Capa_1-2">
		<circle cx="105.4" cy="69.4" r="56.7"/>
		<path class="st0" d="M123,47.9c-2.2,0-3.9,1.7-3.9,3.9c0,2.2,1.7,3.9,3.9,3.9c2.2,0,3.9-1.7,3.9-3.9c0,0,0,0,0,0
			C126.9,49.7,125.2,47.9,123,47.9C123,47.9,123,47.9,123,47.9z"/>
		<path class="st0" d="M105.7,52.9c-9,0-16.4,7.3-16.4,16.4c0,9,7.3,16.4,16.4,16.4c9,0,16.4-7.3,16.4-16.4c0,0,0,0,0,0
			C122,60.2,114.7,52.9,105.7,52.9z M105.7,79.8c-5.8,0-10.5-4.7-10.5-10.5s4.7-10.5,10.5-10.5s10.5,4.7,10.5,10.5
			S111.5,79.8,105.7,79.8L105.7,79.8z"/>
		<path class="st0" d="M118.7,102.5H92.1c-11,0-19.9-8.9-20-19.9V56c0-11,8.9-20,20-20h26.5c11,0,20,8.9,20,20v26.5
			C138.6,93.5,129.7,102.4,118.7,102.5z M92.1,42.3c-7.6,0-13.7,6.1-13.7,13.7v26.5c0,7.6,6.1,13.7,13.7,13.7h26.5
			c7.6,0,13.7-6.1,13.7-13.7V56c0-7.6-6.1-13.7-13.7-13.7H92.1z"/>
	</g>
</g>
</svg>
