<?xml version="1.0" encoding="utf-8"?>
<!-- Generator: Adobe Illustrator 25.4.1, SVG Export Plug-In . SVG Version: 6.00 Build 0)  -->
<svg version="1.1" id="Capa_1" xmlns="http://www.w3.org/2000/svg" xmlns:xlink="http://www.w3.org/1999/xlink" x="0px" y="0px"
	 viewBox="0 0 210.8 138.7" style="enable-background:new 0 0 210.8 138.7;" xml:space="preserve">
<style type="text/css">
	.st0{fill:#FFFFFF;}
</style>
<g id="Capa_2_00000095340859811365615710000004817216983726682507_">
	<g id="Capa_1-2">
		<circle cx="105.4" cy="69.4" r="56.7"/>
		<path class="st0" d="M134.8,62.8c-0.6,0-1.2,0-1.7,0c-6.4,0-12.3-3.2-15.8-8.6v29.2c0,11.9-9.6,21.6-21.6,21.6
			c-11.9,0-21.6-9.6-21.6-21.6S83.7,62,95.7,61.9c0,0,0,0,0,0l0,0c0.5,0,0.9,0,1.3,0v10.6c-0.4-0.1-0.9-0.1-1.3-0.1
			c-6.1,0.3-10.8,5.4-10.5,11.5c0.2,5.7,4.8,10.3,10.5,10.5c6.1,0.1,11.2-4.7,11.4-10.9l0.1-49.5h10.2c1,9.1,8.3,16.2,17.4,16.9
			L134.8,62.8"/>
	</g>
</g>
</svg>
