<svg xmlns="http://www.w3.org/2000/svg" viewBox="0 0 210.79 138.71"><g id="Capa_2" data-name="Capa 2"><g id="Capa_1-2" data-name="Capa 1"><circle cx="105.39" cy="69.36" r="30.22"/><path d="M122.09,59a13.47,13.47,0,0,1-3.33,1c.53-.09,1.32-1.06,1.63-1.45a5.88,5.88,0,0,0,1.11-2s0-.13,0-.17a.2.2,0,0,0-.17,0,17,17,0,0,1-4,1.52.25.25,0,0,1-.27-.08,2.83,2.83,0,0,0-.34-.35,7.27,7.27,0,0,0-1.92-1.17,6.53,6.53,0,0,0-2.93-.47,7,7,0,0,0-2.79.78,7.26,7.26,0,0,0-2.25,1.84,7,7,0,0,0-1.34,2.69,7.29,7.29,0,0,0-.07,2.83c0,.16,0,.18-.14.16-5.42-.81-9.92-2.75-13.57-6.91-.16-.18-.25-.18-.38,0-1.6,2.4-.82,6.25,1.18,8.14.26.25.54.5.83.73a6.74,6.74,0,0,1-2.62-.73c-.16-.1-.24,0-.25.14a4.06,4.06,0,0,0,0,.77,7,7,0,0,0,4.29,5.56,4.57,4.57,0,0,0,.87.26,7.53,7.53,0,0,1-2.57.08c-.18,0-.26.06-.18.24a7.22,7.22,0,0,0,5.4,4.52c.24,0,.48,0,.73.1,0,0,0,0,0,0-.61.93-2.71,1.62-3.69,2a13.17,13.17,0,0,1-5.6.71c-.3,0-.37,0-.45,0s0,.13.09.21c.38.25.77.47,1.17.69a18.59,18.59,0,0,0,3.74,1.49c6.73,1.86,14.3.5,19.36-4.52,4-3.94,5.35-9.38,5.35-14.82,0-.21.26-.33.4-.44a13.19,13.19,0,0,0,2.64-2.74.85.85,0,0,0,.17-.53v0C122.22,58.92,122.22,58.94,122.09,59Z" fill="#fff"/><rect width="210.79" height="138.71" fill="none"/></g></g></svg>