<?xml version="1.0" encoding="utf-8"?>
<!-- Generator: Adobe Illustrator 25.4.1, SVG Export Plug-In . SVG Version: 6.00 Build 0)  -->
<svg version="1.1" id="Capa_1" xmlns="http://www.w3.org/2000/svg" xmlns:xlink="http://www.w3.org/1999/xlink" x="0px" y="0px"
	 viewBox="0 0 210.8 138.7" style="enable-background:new 0 0 210.8 138.7;" xml:space="preserve">
<style type="text/css">
	.st0{fill:#FFFFFF;}
</style>
<g id="Capa_2_00000042708116534616625340000014537713977278199466_">
	<g id="Capa_1-2">
		<circle cx="105.4" cy="69.5" r="56.7"/>
		<path class="st0" d="M135.7,61.4c0-7.5-6.1-13.6-13.6-13.6l0,0H87.3c-7.5,0-13.6,6.1-13.6,13.6l0,0v16.2c0,7.5,6.1,13.6,13.6,13.6
			l0,0h34.8c7.5,0,13.6-6.1,13.6-13.6l0,0V61.4z M115.3,70.8l-15.6,7.7C99,78.8,97,78.4,97,77.7V61.8c0-0.7,2.1-1.1,2.7-0.8l15,8.1
			C115.3,69.5,115.9,70.5,115.3,70.8L115.3,70.8z"/>
	</g>
</g>
</svg>
