<svg xmlns="http://www.w3.org/2000/svg" viewBox="0 0 710.04 599.29"><g id="Capa_2" data-name="Capa 2"><g id="Capa_1-2" data-name="Capa 1"><path d="M211.49,14.28l-23,198.89H123.89q-8.86-45.84-15.65-104.3-3.1,25.07-14.43,104.3H29.61L6.46,14.28H56.71l5.46,69.4,5.28,67.08Q70.32,98.7,81.76,14.28h53.7q1.06,8.73,5.64,65.6l5.71,75.67q4.41-72.21,14.44-141.27Z" fill="#211915"/><path d="M308.63,14.28l29.58,198.89H285.35l-2.77-35.75h-18.5L261,213.17H207.5L233.88,14.28ZM281.22,142.16q-3.93-33.78-7.88-83.53-7.89,57.12-9.92,83.53Z" fill="#211915"/><path d="M437.28,14.28v39.8H406.57V213.17H354.85V54.08H324.26V14.28Z" fill="#211915"/><path d="M449.08,14.28h86.23v39.8H500.79V91.8H533.1v37.83H500.79v43.74h38v39.8H449.08Z" fill="#211915"/><path d="M553.62,14.28h36.61q36.6,0,49.57,2.83t21.13,14.43q8.16,11.61,8.16,37,0,23.22-5.77,31.2t-22.73,9.58q15.36,3.81,20.64,10.2t6.57,11.73q1.29,5.36,1.29,29.42v52.46h-48V147.08q0-16-2.52-19.78t-13.2-3.81v89.68H553.62Zm51.72,34V92.53q8.71,0,12.22-2.39t3.5-15.54V63.66q0-9.45-3.38-12.4T605.34,48.31Z" fill="#211915"/><path d="M77.28,238.23q27.39,0,45.2,10.4t25,27.56q7.17,17.16,7.17,48.26v28.36H70.34v46.26q0,14.51,2.1,18.69T80.5,422q7.41,0,9.91-5.56t2.5-21.51V366.67h61.72v15.8q0,19.81-2.5,30.46t-11.68,22.72a56.87,56.87,0,0,1-23.29,18.13q-14.1,6-35.37,6-20.62,0-36.42-6T20.79,437.5A59.07,59.07,0,0,1,8.62,414.62q-3.37-12.5-3.38-36.34V315.91q0-28,7.57-44.24t24.82-24.82q17.25-8.61,39.65-8.62M70.34,318h19V302.37q0-16.59-1.77-21.43t-7.25-4.83q-6.78,0-8.38,4.1t-1.62,22.16V318m6.94-84.91c-15.67,0-29.78,3.08-41.94,9.16-12.51,6.25-21.65,15.42-27.18,27.24C2.81,280.92.1,296.54.1,315.91v62.37c0,16.51,1.17,28.84,3.57,37.68a64.42,64.42,0,0,0,13.2,24.86c6.4,7.58,15.38,13.58,26.68,17.85C54.62,462.84,67.48,465,81.79,465c14.81,0,27.39-2.17,37.4-6.46a62.25,62.25,0,0,0,25.35-19.74c6.53-8.6,10.77-16.89,12.59-24.66,1.78-7.55,2.64-17.89,2.64-31.63V361.54h-72v33.34c0,12.91-1.28,17.7-2,19.41-.39.88-1.13,2.52-5.22,2.52-2.79,0-3.25-.91-3.47-1.35-.36-.72-1.55-4.06-1.55-16.39V358h84.29v-33.5c0-21.32-2.55-38.23-7.57-50.25-5.2-12.43-14.32-22.53-27.13-30-12.61-7.36-28.7-11.09-47.79-11.09Zm-1.8,79.77v-10.5c0-15.84,1-19.53,1.26-20.28.17-.42,1.46-.85,3.6-.85,1.8,0,2.09.56,2.43,1.47.54,1.49,1.46,6,1.46,19.66v10.5Z" fill="#211915"/><path d="M176.14,238.23h58.53q27.73,0,42,4.32A41.65,41.65,0,0,1,299.74,260q8.77,13.17,8.78,42.41,0,19.77-6.2,27.57t-24.45,12q20.34,4.61,27.59,15.27t7.24,32.7v20.91q0,22.86-5.22,33.88a28.23,28.23,0,0,1-16.66,15.06q-11.42,4-46.82,4H176.14Zm58.67,38.6V327c2.51-.1,4.46-.14,5.85-.14q8.64,0,11-4.25T254,298.29q0-10.59-1.95-14.84c-1.31-2.83-3-4.62-5.09-5.36S240.85,276.92,234.81,276.83Zm0,85.28v63.12q12.41-.41,15.81-3.9T254,404.19v-21q0-14.49-3.07-17.56T234.81,362.11Z" fill="#211915"/><path d="M392.41,238.23v225.6H333.74V238.23Z" fill="#211915"/><path d="M555.79,238.23,522.14,340.09,559,463.83H498.38l-23.76-96.7v96.7H416V238.23h58.66v87.65l26.13-87.65Z" fill="#211915"/><path d="M569.1,238.23h97.82v45.15H627.76v42.78h36.65v42.92H627.76v49.6h43.06v45.15H569.1Z" fill="#211915"/><path d="M69.61,533H40.16V513.28q0-8.58-.95-10.71t-4.16-2.13q-3.63,0-4.62,2.59t-1,11.19v52.61q0,8.25,1,10.77c.66,1.68,2.12,2.52,4.41,2.52s3.63-.84,4.3-2.52,1-5.64,1-11.86V551.51H69.61v4.41q0,17.58-2.48,24.94t-11,12.9q-8.49,5.52-21,5.53-12.94,0-21.34-4.69a22.79,22.79,0,0,1-11.12-13Q0,573.34,0,556.68V523.59a147,147,0,0,1,.84-18.36,25.78,25.78,0,0,1,5-11.79,27.88,27.88,0,0,1,11.55-8.92,41.62,41.62,0,0,1,17-3.25q13,0,21.48,5T67,498.84q2.65,7.52,2.66,23.37Z" fill="#211915"/><path d="M147.89,483.65V596.91H118.44V549.34h-8.81v47.57H80.17V483.65h29.46v40.5h8.81v-40.5Z" fill="#211915"/><path d="M210.63,483.65l16.84,113.26h-30.1l-1.58-20.36H185.26l-1.77,20.36H153l15-113.26ZM195,556.47q-2.24-19.23-4.49-47.57-4.5,32.54-5.65,47.57Z" fill="#211915"/><path d="M323.35,483.65V596.91H297.61l0-76.46-10.25,76.46H269.06l-10.8-74.72,0,74.72H232.48V483.65h38.11q1.7,10.22,3.49,24.08l4.18,28.81L285,483.65Z" fill="#211915"/><path d="M335.18,483.65h29.66q12,0,18.5,1.89t9.73,5.45a18.73,18.73,0,0,1,4.4,8.64q1.15,5.07,1.16,15.71v9.86q0,10.84-2.24,15.81t-8.22,7.63q-6,2.65-15.64,2.66h-7.9v45.61H335.18ZM364.63,503v28.82c.84,0,1.56.07,2.17.07,2.7,0,4.58-.67,5.63-2s1.57-4.1,1.57-8.3v-9.3c0-3.87-.6-6.39-1.82-7.56S368.45,503,364.63,503Z" fill="#211915"/><path d="M436.55,483.65V596.91H407.1V483.65Z" fill="#211915"/><path d="M515.67,550q0,17.07-.8,24.17a27.06,27.06,0,0,1-16.48,22,41.6,41.6,0,0,1-16.79,3.15,42.66,42.66,0,0,1-16.33-3,27.23,27.23,0,0,1-16.9-21.87q-.84-7-.84-24.48V530.59q0-17.07.81-24.17a27,27,0,0,1,16.47-22,41.6,41.6,0,0,1,16.79-3.15,42.75,42.75,0,0,1,16.34,3,27.2,27.2,0,0,1,16.89,21.86q.84,7,.84,24.49Zm-29.45-37.22q0-7.9-.88-10.11a3.47,3.47,0,0,0-3.6-2.2,4,4,0,0,0-3.53,1.78Q477,504,477,512.75v52.89q0,9.87.81,12.17t3.74,2.31a3.62,3.62,0,0,0,3.85-2.66q.84-2.65.84-12.66Z" fill="#211915"/><path d="M592.42,483.65V596.91H566.6l-15.32-51.49v51.49H526.66V483.65h24.62l16.51,51v-51Z" fill="#211915"/><path d="M666.65,517.93H639.29v-8.4q0-5.88-1-7.48a3.84,3.84,0,0,0-3.5-1.61,4.45,4.45,0,0,0-4,2.17q-1.37,2.17-1.36,6.58,0,5.67,1.53,8.54t8.32,6.92q19.66,11.69,24.78,19.16t5.1,24.14q0,12.1-2.83,17.84t-11,9.62a43.3,43.3,0,0,1-18.89,3.88q-11.82,0-20.18-4.48t-11-11.4q-2.6-6.93-2.59-19.66v-7.42h27.36v13.79q0,6.36,1.15,8.18c.77,1.22,2.13,1.82,4.09,1.82a4.81,4.81,0,0,0,4.38-2.31q1.43-2.31,1.43-6.85,0-10-2.73-13.09T624.6,547.59q-11-7.27-14.55-10.56a24.77,24.77,0,0,1-5.91-9.1q-2.35-5.8-2.35-14.83,0-13,3.33-19a22.33,22.33,0,0,1,10.73-9.41q7.42-3.39,17.91-3.39,11.47,0,19.56,3.71t10.7,9.34q2.63,5.63,2.63,19.13Z" fill="#211915"/><path d="M682,30.13V9.91h8.6a14.84,14.84,0,0,1,4.71.54,4.63,4.63,0,0,1,2.35,1.94,5.81,5.81,0,0,1,.88,3.18,5.35,5.35,0,0,1-1.34,3.76,6.36,6.36,0,0,1-4,1.87,9.34,9.34,0,0,1,2.19,1.7,23.28,23.28,0,0,1,2.33,3.28l2.46,3.95h-4.88l-2.95-4.4a29.52,29.52,0,0,0-2.15-3,3.38,3.38,0,0,0-1.23-.84,6.85,6.85,0,0,0-2.06-.22h-.82v8.44Zm4.09-11.67h3a15.32,15.32,0,0,0,3.67-.25,2.2,2.2,0,0,0,1.14-.86,2.59,2.59,0,0,0,.42-1.51,2.45,2.45,0,0,0-.55-1.65,2.49,2.49,0,0,0-1.54-.79c-.33-.05-1.32-.07-3-.07H686.1Z" fill="#211915"/><path d="M690.25,0A19.8,19.8,0,1,0,710,19.8,19.79,19.79,0,0,0,690.25,0Zm0,36.44A16.65,16.65,0,1,1,706.89,19.8,16.64,16.64,0,0,1,690.25,36.44Z" fill="#211915"/></g></g></svg>