<svg xmlns="http://www.w3.org/2000/svg" width="240.79" height="37.48" viewBox="0 0 240.79 37.48">
  <g>
    <rect width="240.79" height="37.48" rx="6.25" fill="#e3e300"/>
    <g>
      <path d="M87.43,25.87a22.73,22.73,0,0,1-4.82.58,9,9,0,0,1-3.42-.53,4.22,4.22,0,0,1-2-1.68,7.59,7.59,0,0,1-1-2.73,23.68,23.68,0,0,1-.27-3.93q0-5,1.39-6.91c.94-1.31,2.65-2,5.16-2a22.13,22.13,0,0,1,5,.68l-.1,2.78a27.47,27.47,0,0,0-4.14-.38,4.62,4.62,0,0,0-2.36.44,2.73,2.73,0,0,0-1,1.67,18.37,18.37,0,0,0-.34,4.21,8.5,8.5,0,0,0,.7,4.12,3,3,0,0,0,2.77,1.15A30.47,30.47,0,0,0,87.35,23Z"/>
      <path d="M102.18,24.32c-1.07,1.42-2.9,2.13-5.51,2.13s-4.43-.71-5.5-2.13-1.6-3.64-1.6-6.66.53-5.27,1.6-6.74,2.9-2.21,5.5-2.21,4.44.74,5.51,2.21,1.6,3.71,1.6,6.74S103.25,22.9,102.18,24.32Zm-8.29-2.21a3.6,3.6,0,0,0,5.57,0,9.75,9.75,0,0,0,.74-4.44,10.16,10.16,0,0,0-.75-4.52,3.44,3.44,0,0,0-5.55,0,10.16,10.16,0,0,0-.75,4.52A9.62,9.62,0,0,0,93.89,22.11Z"/>
      <path d="M110.08,20.43q0,3,3,3t3.05-3V9h3.48V20.35A6,6,0,0,1,118,25a8.9,8.9,0,0,1-9.8,0,5.93,5.93,0,0,1-1.63-4.63V9h3.48Z"/>
      <path d="M123.23,26.15V9h5.88l4.13,14.12h.25V9H137V26.15h-5.72L127,12h-.26V26.15Z"/>
      <path d="M139.16,12.09V9h12.6v3.08h-4.54V26.15h-3.47V12.09Z"/>
      <path d="M161,26.15h-3.48V19.22L152.19,9H156l3.15,6.83L162.34,9h3.86L161,19.22Z"/>
    </g>
  </g>
</svg>
