<svg xmlns="http://www.w3.org/2000/svg" width="1260.57" height="311.06" viewBox="0 0 1260.57 311.06">
  <g>
    <path d="M0,308.29V2.78H93.74q23.43,0,35.41,10.67t16,29.86q4.08,19.19,4.08,45,0,25-6.33,39.93t-23.87,20.66q14.4,2.94,20.22,14.32t5.82,29.42V308.29H84.88V188.69q0-13.37-5.46-16.58T61.8,168.9V308.29ZM62.14,116H76.9q12.66,0,12.67-27.6,0-17.86-2.78-23.43T76.38,59.37H62.14Z"/>
    <path d="M161.09,308.29,190.6,2.78H294.23l29,305.51H265.41L261.07,259h-36.8l-3.82,49.3Zm67.52-98.08h27.77L243,54.85h-2.78Z"/>
    <path d="M342,308.29V2.78H404.8l28.12,146.33V2.78h59V308.29H432.23L401.68,155.53V308.29Z"/>
    <path d="M519,308.29V2.78h60.41V125.15L607.89,2.78h61.45L635.15,142.69l41.31,165.6H613.1l-33.33-147.9v147.9Z"/>
    <path d="M684.1,308.29V2.78h59V308.29Z"/>
    <path d="M767.42,308.29V2.78h62.84l28.12,146.33V2.78h59V308.29H857.68L827.13,155.53V308.29Z"/>
    <path d="M1007.49,311.06q-65.44,0-65.45-93.73V85.58Q942,0,1017,0q30.9,0,47.39,12.41t22.74,36.19q6.25,23.79,6.25,58H1033.7V79.5q0-9.89-2.69-16.58t-11.2-6.68q-10.59,0-14,7.12A35.83,35.83,0,0,0,1002.45,79V227.05q0,12.33,3.21,20t12.59,7.72q9.72,0,12.93-7.72t3.21-20.4V183.13h-16.31V130.36h74.64V308.29h-24.48l-10.41-25.69Q1041.86,311.07,1007.49,311.06Z"/>
    <path d="M1189.4,311.06q-41.84,0-60.32-20.83t-18.48-66.31V194.07H1171v38.19q0,10.59,3.21,16.57t11.2,6c5.56,0,9.4-1.62,11.55-4.86s3.21-8.56,3.21-16q0-14.06-2.78-23.52a52.61,52.61,0,0,0-9.64-18.05,201.77,201.77,0,0,0-19-20l-27.43-26q-30.72-29-30.72-66.31,0-39.06,18.14-59.54T1181.25,0q42,0,59.62,22.39t17.62,68.05h-62.14v-21q0-6.24-3.56-9.72t-9.64-3.47q-7.29,0-10.67,4.08a15.88,15.88,0,0,0-3.39,10.5,33.07,33.07,0,0,0,3.48,13.89q3.47,7.47,13.71,17.18l35.24,33.85A204.53,204.53,0,0,1,1241,157a92.35,92.35,0,0,1,14.23,26q5.38,14.83,5.38,36.19,0,43-15.88,67.44T1189.4,311.06Z"/>
  </g>
</svg>
