<svg xmlns="http://www.w3.org/2000/svg" width="240.79" height="37.48" viewBox="0 0 240.79 37.48">
  <g>
    <rect width="240.79" height="37.48" rx="6.25" fill="#e3e300"/>
    <g>
      <path d="M77.67,20.09v-3h5V26a38.11,38.11,0,0,1-5.85.58q-4,0-5.51-2.14c-1-1.43-1.5-3.69-1.5-6.8s.53-5.35,1.57-6.73S74.18,8.8,76.68,8.8a26.82,26.82,0,0,1,5.07.53l.91.18-.1,2.69c-2-.21-3.67-.32-5-.32a5.8,5.8,0,0,0-2.7.45A2.67,2.67,0,0,0,73.75,14a16.5,16.5,0,0,0-.37,4.18,8.48,8.48,0,0,0,.73,4.14c.49.79,1.5,1.19,3,1.19l2.09-.1V20.09Z"/>
      <path d="M85.86,26.24V9.1H96.94v3H89.33v4h6.1v3h-6.1v4.11h7.61v3Z"/>
      <path d="M99.82,26.24V9.1h5.87l4.13,14.12h.25V9.1h3.48V26.24h-5.72l-4.28-14.11h-.26V26.24Z"/>
      <path d="M117.28,26.24V9.1h11.09v3h-7.61v4h6.1v3h-6.1v4.11h7.61v3Z"/>
      <path d="M134.72,20.5v5.74h-3.48V9.1h6.65c4,0,6.05,1.89,6.05,5.65a5.43,5.43,0,0,1-2.52,4.94l2.44,6.55h-3.8l-2-5.74Zm5.06-3.73a3.08,3.08,0,0,0,.61-2,2.86,2.86,0,0,0-.65-2,2.3,2.3,0,0,0-1.85-.73h-3.17v5.44h3.22A2.21,2.21,0,0,0,139.78,16.77Z"/>
      <path d="M145.55,26.24,149.41,9.1H156l3.86,17.14h-3.48l-.68-3.1h-6l-.68,3.1ZM152.11,12l-1.74,8.14h4.68L153.31,12Z"/>
      <path d="M171.84,26.24h-9.76V9.1h3.48V23.17h6.28Z"/>
    </g>
  </g>
</svg>
