<svg xmlns="http://www.w3.org/2000/svg" width="240.79" height="37.69" viewBox="0 0 240.79 37.69">
  <g>
    <rect width="240.79" height="37.69" rx="6.28" fill="#e3e300"/>
    <g>
      <path d="M88.81,12.21V9.14h12.6v3.07H96.88V26.28H93.4V12.21Z"/>
      <path d="M103.68,26.28V9.14h11.09v3h-7.61v4h6.1v3h-6.1v4.11h7.61v3Z"/>
      <path d="M116.2,26.28l3.86-17.14h6.6l3.86,17.14H127l-.68-3.1h-6l-.68,3.1ZM122.76,12,121,20.15h4.68L124,12Z"/>
      <path d="M132.81,26.28V9.14h5.92l3,12.5,3-12.5h5.92V26.28h-3.48V13h-.37l-3.36,12.5H140L136.67,13h-.38V26.28Z"/>
    </g>
  </g>
</svg>
