<svg xmlns="http://www.w3.org/2000/svg" width="240.79" height="37.48" viewBox="0 0 240.79 37.48">
  <g>
    <rect width="240.79" height="37.48" rx="6.25" fill="#e3e300"/>
    <g>
      <path d="M57.4,26.24V9.1h3.47V26.24Z"/>
      <path d="M64.53,26.24V9.1H70.4l4.13,14.11h.25V9.1h3.48V26.24H72.54L68.26,12.13H68V26.24Z"/>
      <path d="M87.76,26.24H82V9.1h5.77a12.1,12.1,0,0,1,3.66.47,4.35,4.35,0,0,1,2.23,1.54,6.26,6.26,0,0,1,1.09,2.52,19.12,19.12,0,0,1,.3,3.76,22.73,22.73,0,0,1-.27,3.85,7.64,7.64,0,0,1-1,2.72,4.31,4.31,0,0,1-2.23,1.74A10.9,10.9,0,0,1,87.76,26.24Zm3.66-6.8c0-.54,0-1.29,0-2.23a19.71,19.71,0,0,0-.11-2.29,4.24,4.24,0,0,0-.47-1.56,2,2,0,0,0-1.13-1,6.29,6.29,0,0,0-2-.26H85.47V23.21h2.29a3.51,3.51,0,0,0,2.75-.95A4.77,4.77,0,0,0,91.42,19.44Z"/>
      <path d="M98.07,26.24V9.1h3.48V26.24Z"/>
      <path d="M114.55,9.1h3.65l-4,17.14h-6.43l-4-17.14h3.66l3,14.11h1.13Z"/>
      <path d="M120.47,26.24V9.1H124V26.24Z"/>
      <path d="M133.45,26.24h-5.77V9.1h5.77a12,12,0,0,1,3.65.47,4.31,4.31,0,0,1,2.23,1.54,6.27,6.27,0,0,1,1.1,2.52,19.12,19.12,0,0,1,.3,3.76,21.62,21.62,0,0,1-.28,3.85,7.44,7.44,0,0,1-1,2.72,4.39,4.39,0,0,1-2.23,1.74A10.94,10.94,0,0,1,133.45,26.24Zm3.65-6.8c0-.54.05-1.29.05-2.23a20.07,20.07,0,0,0-.1-2.29,4.44,4.44,0,0,0-.48-1.56,2,2,0,0,0-1.12-1,6.34,6.34,0,0,0-2-.26h-2.3V23.21h2.3a3.49,3.49,0,0,0,2.74-.95A4.77,4.77,0,0,0,137.1,19.44Z"/>
      <path d="M147.08,20.52q0,3,3,3t3.05-3V9.1h3.48V20.44A6,6,0,0,1,155,25.07a8.9,8.9,0,0,1-9.8,0,5.94,5.94,0,0,1-1.63-4.63V9.1h3.48Z"/>
      <path d="M158.9,26.24,162.75,9.1h6.61l3.85,17.14h-3.48l-.68-3.1h-6l-.68,3.1ZM165.45,12l-1.74,8.14h4.69L166.66,12Z"/>
      <path d="M185.18,26.24h-9.75V9.1h3.48V23.17h6.27Z"/>
    </g>
  </g>
</svg>
