<?xml version="1.0" encoding="UTF-8"?>
<svg id="Capa_2" data-name="Capa 2" xmlns="http://www.w3.org/2000/svg" width="701.42" height="54.21" viewBox="0 0 701.42 54.21">
  <g id="Capa_1-2" data-name="Capa 1">
    <g>
      <rect y=".47" width="11.67" height="53.28"/>
      <polygon points="29.44 17.02 26.26 .47 14.09 .47 14.09 53.75 25.88 53.75 25.88 35.76 29.48 53.75 41.12 53.75 41.12 .47 29.44 .47 29.44 17.02"/>
      <path d="m65.91,26.82c-1.02-1.28-2.15-2.52-3.36-3.68l-5.95-5.72c-1.07-1.01-1.78-1.9-2.13-2.64-.34-.72-.51-1.39-.51-1.98,0-.52.12-.92.37-1.22.08-.09.31-.38,1.14-.38.46,0,.79.11,1.03.34.23.23.34.56.34,1.03v4.4h12.2v-.86c0-5.31-1.06-9.35-3.16-12.01-2.14-2.73-5.76-4.11-10.74-4.11-4.1,0-7.3,1.26-9.5,3.75-2.17,2.46-3.28,6.03-3.28,10.62s1.83,8.4,5.45,11.81l4.63,4.4c1.33,1.26,2.38,2.36,3.13,3.29.7.88,1.19,1.8,1.47,2.75.29.98.43,2.24.43,3.73,0,1.41-.25,2-.4,2.22-.07.11-.29.44-1.23.44-.74,0-.99-.28-1.13-.56-.29-.54-.44-1.35-.44-2.39v-7.3h-11.91v5.9c0,5.31,1.12,9.27,3.34,11.76,2.24,2.52,5.88,3.8,10.82,3.8s8.1-1.52,10.05-4.51c1.87-2.87,2.82-6.86,2.82-11.85,0-2.49-.32-4.64-.96-6.4-.63-1.75-1.49-3.31-2.54-4.63Z"/>
      <polygon points="69.09 12.08 75.21 12.08 75.21 53.75 87.24 53.75 87.24 12.08 93.36 12.08 93.36 .47 69.09 .47 69.09 12.08"/>
      <path d="m119.84,22.84c.75-1.78,1.14-4.16,1.14-7.07s-.24-5.57-.71-7.78c-.5-2.33-1.5-4.18-2.98-5.5-1.5-1.34-3.71-2.02-6.55-2.02h-16.68v53.28h12.14v-23.5c.93.07,1.42.24,1.68.39.24.14.5.76.5,2.06v21.04h11.88v-20.37c0-2.16-.36-3.96-1.08-5.36-.46-.9-1.12-1.6-1.97-2.11,1.19-.75,2.07-1.78,2.61-3.07Zm-13.57-11.11h1.55c.67,0,.88.23.99.46.14.28.38,1.12.38,3.57,0,1.42-.17,3.8-1.28,3.8h-1.63v-7.84Z"/>
      <path d="m136.59,38.68c0,.82-.04,1.63-.13,2.4-.07.65-.24,1.17-.51,1.55-.12.16-.35.38-1.03.38s-.88-.22-.99-.39c-.27-.39-.45-.92-.53-1.57-.09-.75-.14-1.55-.14-2.37V.47h-11.73v38.62c0,4.87,1.09,8.64,3.25,11.2,2.19,2.6,5.61,3.92,10.15,3.92s7.96-1.32,10.15-3.92c2.16-2.56,3.25-6.33,3.25-11.2V.47h-11.73v38.21Z"/>
      <path d="m176.25,8.93c-.29-1.16-.72-2.22-1.29-3.15-1.18-1.92-2.81-3.39-4.86-4.36-2.01-.95-4.33-1.43-6.88-1.43-4.74,0-8.23,1.46-10.37,4.33-2.09,2.8-3.14,6.83-3.14,12v23.79c0,4.39,1.23,7.88,3.66,10.36,2.43,2.48,5.67,3.74,9.62,3.74,4.3,0,7.71-1.1,10.15-3.28,2.46-2.2,3.71-5.73,3.71-10.5v-10.61h-12.08v10.14c0,1.01-.15,1.83-.45,2.43-.15.3-.4.61-1.09.61-.51,0-.85-.16-1.11-.52-.18-.24-.47-.9-.47-2.52V14.16c0-1.02.14-1.83.41-2.4.08-.17.27-.55,1.16-.55.71,0,.98.26,1.12.45.13.17.42.78.42,2.62v8.47h11.97v-9.76c0-.31-.03-.6-.05-.9h5.7v41.66h12.03V12.08h6.12V.47h-24.27v8.46Z"/>
      <path d="m214.39,0c-4.39,0-7.78,1.24-10.1,3.7-2.3,2.44-3.47,6.02-3.47,10.64v24.49c0,4.9,1.17,8.72,3.48,11.36,2.34,2.67,5.73,4.03,10.09,4.03s7.76-1.35,10.09-4.03c2.31-2.64,3.48-6.46,3.48-11.36V14.33c0-4.62-1.17-8.2-3.47-10.64-2.32-2.45-5.71-3.7-10.1-3.7Zm.09,43.01c-.75,0-1.03-.32-1.19-.6-.22-.38-.48-1.22-.48-3.02V14.25c0-3.04,1.21-3.04,1.72-3.04.39,0,1.43,0,1.43,2.95v25.17c0,2.44-.5,3.68-1.49,3.68Z"/>
      <path d="m255.56,22.84c.75-1.78,1.14-4.16,1.14-7.07s-.24-5.57-.71-7.78c-.5-2.33-1.5-4.18-2.98-5.5-1.5-1.34-3.71-2.02-6.55-2.02h-16.68v53.28h12.14v-23.5c.93.07,1.42.24,1.68.39.24.14.5.76.5,2.06v21.04h11.88v-20.37c0-2.16-.36-3.96-1.08-5.36-.46-.9-1.12-1.6-1.97-2.11,1.19-.75,2.07-1.78,2.61-3.07Zm-13.57-11.11h1.55c.67,0,.88.23.99.46.14.28.38,1.12.38,3.57,0,1.42-.17,3.8-1.28,3.8h-1.63v-7.84Z"/>
      <path d="m280.46,26.82c-1.02-1.28-2.15-2.52-3.36-3.68l-5.95-5.72c-1.07-1.01-1.78-1.9-2.13-2.64-.34-.72-.51-1.39-.51-1.98,0-.52.12-.92.37-1.22.08-.09.31-.38,1.14-.38.46,0,.79.11,1.03.34.23.23.34.56.34,1.03v4.4h12.2v-.86c0-5.31-1.06-9.35-3.16-12.01-2.14-2.73-5.76-4.11-10.74-4.11-4.1,0-7.3,1.26-9.5,3.75-2.17,2.46-3.28,6.03-3.28,10.62s1.83,8.4,5.45,11.81l4.63,4.4c1.33,1.26,2.38,2.36,3.13,3.29.7.88,1.19,1.8,1.47,2.75.29.98.43,2.24.43,3.73,0,1.41-.25,2-.4,2.22-.07.11-.29.44-1.23.44-.74,0-.99-.28-1.13-.56-.29-.54-.44-1.35-.44-2.39v-7.3h-11.91v5.9c0,5.31,1.12,9.27,3.34,11.76,2.24,2.52,5.88,3.8,10.82,3.8s8.1-1.52,10.05-4.51c1.87-2.87,2.82-6.86,2.82-11.85,0-2.49-.32-4.64-.96-6.4-.63-1.75-1.49-3.31-2.54-4.63Z"/>
      <path d="m321.14,26.82c-1.02-1.28-2.15-2.52-3.36-3.68l-5.95-5.72c-1.07-1.01-1.78-1.9-2.13-2.64-.34-.72-.51-1.39-.51-1.98,0-.52.12-.92.37-1.22.08-.09.31-.38,1.14-.38.46,0,.79.11,1.03.34.23.23.34.56.34,1.03v4.4h12.2v-.86c0-5.31-1.06-9.35-3.16-12.01-2.14-2.73-5.76-4.11-10.74-4.11-4.1,0-7.3,1.26-9.5,3.75-2.17,2.46-3.28,6.03-3.28,10.62s1.83,8.4,5.45,11.81l4.63,4.4c1.33,1.26,2.38,2.36,3.13,3.29.7.88,1.19,1.8,1.47,2.75.29.98.43,2.24.43,3.73,0,1.41-.25,2-.4,2.22-.07.11-.29.44-1.23.44-.74,0-.99-.28-1.13-.56-.29-.54-.44-1.35-.44-2.39v-7.3h-11.91v5.9c0,5.31,1.12,9.27,3.34,11.76,2.24,2.52,5.88,3.8,10.82,3.8s8.1-1.52,10.05-4.51c1.87-2.87,2.82-6.86,2.82-11.85,0-2.49-.32-4.64-.96-6.4-.63-1.75-1.49-3.31-2.54-4.63Z"/>
      <path d="m340.47,38.68c0,.82-.04,1.63-.13,2.4-.07.65-.24,1.17-.51,1.55-.12.16-.35.38-1.03.38s-.88-.22-.99-.39c-.27-.39-.45-.92-.53-1.57-.09-.75-.14-1.55-.14-2.37V.47h-11.73v38.62c0,4.87,1.09,8.64,3.25,11.2,2.19,2.6,5.61,3.92,10.15,3.92s7.96-1.32,10.15-3.92c2.16-2.56,3.25-6.33,3.25-11.2V.47h-11.73v38.21Z"/>
      <path d="m376.69,24.18c1.01-.61,1.83-1.45,2.44-2.5.94-1.63,1.42-3.75,1.42-6.32v-2.26c0-4.4-.94-7.64-2.79-9.62-1.87-2-4.83-3.01-8.81-3.01h-14.83v53.28h14.83c3.22,0,5.76-.77,7.56-2.28,1.77-1.5,3.01-3.61,3.68-6.28.64-2.56.96-5.57.96-8.97,0-3.19-.42-5.95-1.24-8.19-.63-1.72-1.7-3.01-3.2-3.85Zm-10.79,5.48h1.05c1.16,0,1.53.46,1.71.81.37.72.56,1.76.56,3.08v6.45c0,2.07-.94,2.95-3.16,2.95-.05,0-.11,0-.17,0v-13.28Zm2.65-12.69c0,.93-.12,1.73-.36,2.37-.07.19-.2.55-1.04.55h-1.25v-9.74h1.31c.68,0,1.34.13,1.34,1.63v5.19Z"/>
      <polygon points="403.2 26.47 399.61 .47 382.31 .47 382.31 53.75 393.34 53.75 393.34 25.97 398.03 53.75 408.74 53.75 413.07 26.57 413.07 53.75 424.22 53.75 424.22 .47 406.76 .47 403.2 26.47"/>
      <rect x="425.76" y=".47" width="11.68" height="53.28"/>
      <path d="m462.02,26.82c-1.02-1.29-2.15-2.52-3.36-3.68l-5.95-5.72c-1.07-1.01-1.78-1.9-2.13-2.64-.34-.72-.51-1.39-.51-1.98,0-.52.12-.92.37-1.22.08-.09.32-.38,1.14-.38.46,0,.79.11,1.03.34.23.23.34.56.34,1.03v4.4h12.2v-.86c0-5.31-1.06-9.35-3.16-12.01-2.14-2.73-5.76-4.11-10.74-4.11-4.1,0-7.3,1.26-9.5,3.75-2.17,2.46-3.28,6.03-3.28,10.62s1.83,8.4,5.45,11.81l4.63,4.4c1.33,1.26,2.38,2.36,3.13,3.29.7.88,1.19,1.8,1.47,2.75.29.98.43,2.24.43,3.73,0,1.41-.25,2-.4,2.22-.07.11-.29.44-1.23.44-.74,0-.99-.28-1.13-.56-.29-.54-.44-1.35-.44-2.39v-7.3h-11.91v5.9c0,5.31,1.12,9.27,3.34,11.76,2.24,2.52,5.88,3.8,10.82,3.8s8.1-1.52,10.05-4.51c1.87-2.87,2.82-6.86,2.82-11.85,0-2.49-.32-4.64-.96-6.4-.63-1.75-1.49-3.31-2.54-4.63Z"/>
      <path d="m489.26,26.82c-1.02-1.29-2.15-2.52-3.36-3.68l-5.95-5.72c-1.07-1.01-1.78-1.9-2.13-2.64-.34-.72-.51-1.39-.51-1.98,0-.52.12-.92.37-1.22.08-.09.32-.38,1.14-.38.46,0,.79.11,1.03.34.23.23.34.56.34,1.03v4.4h12.2v-.86c0-5.31-1.06-9.35-3.16-12.01-2.14-2.73-5.76-4.11-10.74-4.11-4.1,0-7.3,1.26-9.5,3.75-2.17,2.46-3.28,6.03-3.28,10.62s1.83,8.4,5.45,11.81l4.63,4.4c1.33,1.26,2.38,2.36,3.13,3.29.7.88,1.19,1.8,1.47,2.75.29.98.43,2.24.43,3.73,0,1.41-.25,2-.4,2.22-.07.11-.29.44-1.23.44-.74,0-.99-.28-1.13-.56-.29-.54-.44-1.35-.44-2.39v-7.3h-11.91v5.9c0,5.31,1.12,9.27,3.34,11.76,2.24,2.52,5.88,3.8,10.82,3.8s8.1-1.52,10.05-4.51c1.87-2.87,2.82-6.86,2.82-11.85,0-2.49-.32-4.64-.96-6.4-.63-1.75-1.49-3.31-2.54-4.63Z"/>
      <rect x="493.56" y=".47" width="11.68" height="53.28"/>
      <path d="m520.51,0c-4.39,0-7.78,1.24-10.1,3.7-2.3,2.44-3.47,6.02-3.47,10.64v24.49c0,4.9,1.17,8.72,3.48,11.36,2.34,2.67,5.73,4.03,10.09,4.03s7.76-1.35,10.09-4.03c2.31-2.64,3.48-6.46,3.48-11.36V14.33c0-4.62-1.17-8.2-3.47-10.64-2.32-2.45-5.71-3.7-10.1-3.7Zm.09,43.01c-.75,0-1.03-.32-1.19-.6-.22-.38-.48-1.22-.48-3.02V14.25c0-3.04,1.21-3.04,1.72-3.04.39,0,1.43,0,1.43,2.95v25.17c0,2.44-.5,3.68-1.49,3.68Z"/>
      <polygon points="551.38 17.02 548.2 .47 536.03 .47 536.03 53.75 547.82 53.75 547.82 35.76 551.42 53.75 563.06 53.75 563.06 .47 551.38 .47 551.38 17.02"/>
      <polygon points="578.99 53.75 591.07 53.75 591.07 30.37 600.8 30.37 600.8 18.72 591.07 18.72 591.07 12.23 601.33 12.23 601.33 .47 578.99 .47 578.99 53.75"/>
      <path d="m615.79,0c-4.39,0-7.78,1.24-10.1,3.7-2.3,2.44-3.47,6.02-3.47,10.64v24.49c0,4.9,1.17,8.72,3.48,11.36,2.34,2.67,5.73,4.03,10.09,4.03s7.76-1.35,10.09-4.03c2.31-2.64,3.48-6.46,3.48-11.36V14.33c0-4.62-1.17-8.2-3.47-10.64-2.32-2.45-5.71-3.7-10.1-3.7Zm.09,43.01c-.75,0-1.03-.32-1.19-.6-.22-.38-.48-1.22-.48-3.02V14.25c0-3.04,1.21-3.04,1.72-3.04.39,0,1.43,0,1.43,2.95v25.17c0,2.44-.5,3.68-1.49,3.68Z"/>
      <path d="m657.2,22.84c.75-1.78,1.14-4.16,1.14-7.07s-.24-5.57-.71-7.78c-.5-2.33-1.5-4.18-2.98-5.5-1.5-1.34-3.71-2.02-6.55-2.02h-16.68v53.28h12.14v-23.5c.93.07,1.42.24,1.68.39.24.14.5.76.5,2.06v21.04h11.88v-20.37c0-2.16-.36-3.96-1.08-5.36-.46-.9-1.12-1.6-1.97-2.11,1.19-.75,2.07-1.78,2.61-3.07Zm-13.57-11.11h1.54c.67,0,.88.23.99.46.14.28.38,1.12.38,3.57,0,1.42-.17,3.8-1.28,3.8h-1.63v-7.84Z"/>
      <polygon points="683.96 .47 680.4 26.47 676.81 .47 659.51 .47 659.51 53.75 670.54 53.75 670.54 25.97 675.23 53.75 685.94 53.75 690.27 26.57 690.27 53.75 701.42 53.75 701.42 .47 683.96 .47"/>
    </g>
  </g>
</svg>