<?xml version="1.0" encoding="utf-8"?>
<!-- Generator: Adobe Illustrator 19.0.0, SVG Export Plug-In . SVG Version: 6.00 Build 0)  -->
<svg version="1.1" id="Capa_1" xmlns="http://www.w3.org/2000/svg" xmlns:xlink="http://www.w3.org/1999/xlink" x="0px" y="0px"
	 width="1277.72px" height="87.36px" viewBox="0 519.64 1277.72 87.36" enable-background="new 0 519.64 1277.72 87.36"
	 xml:space="preserve">
<g>
	<g>
		<path d="M0,597.56l6.82-70.63h24l6.7,70.63h-13.4l-1-11.39h-8.51l-0.88,11.39H0z M15.61,574.89H22l-3.09-35.92H18.3L15.61,574.89z
			"/>
		<path d="M61.08,597.56v-70.63h14.53l6.5,33.83v-33.83h13.65v70.63H82l-7.06-35.31v35.31H61.08z"/>
		<path d="M102,597.56v-70.63h28.25v13.65h-13.86v13.76h13.32v13.3h-13.32v16.17h14.81v13.76L102,597.56z"/>
		<path d="M141.39,597.56l-7.59-70.63h13.81l3.89,44.59l4-44.59h13.16l3.77,44.59l3.78-44.59h14l-7.7,70.63h-17l-3.53-34l-3.37,34
			L141.39,597.56z"/>
		<path d="M219.17,597.56l-7.59-70.63h13.81l3.89,44.59l4-44.59h13.17l3.77,44.59l3.78-44.59h14l-7.71,70.63h-17l-3.53-34l-3.38,34
			H219.17z"/>
		<path d="M270.22,597.56l6.78-70.63h24l6.7,70.63h-13.36l-1-11.39h-8.5l-0.89,11.39H270.22z M285.83,574.89h6.42l-3.09-35.92h-0.64
			L285.83,574.89z"/>
		<path d="M320.58,597.56v-23.23l-11.27-47.4h14l3.94,23.92l3.93-23.92h14l-11.24,47.4v23.23H320.58z"/>
		<path d="M374,597.56V540.5h-8.39v-13.57h30.91v13.57h-8.39v57.06H374z"/>
		<path d="M417.35,598.21c-5.653,0-9.987-1.707-13-5.12c-3.013-3.413-4.503-8.343-4.47-14.79v-33.55
			c0-6.053,1.477-10.643,4.43-13.77c2.953-3.127,7.287-4.69,13-4.69c5.687,0,10.02,1.563,13,4.69c2.98,3.127,4.457,7.717,4.43,13.77
			v33.55c0,6.453-1.49,11.383-4.47,14.79C427.29,596.497,422.983,598.203,417.35,598.21z M417.47,585.21
			c2.14,0,3.21-2.073,3.21-6.22v-34.48c0-3.48-1.05-5.22-3.13-5.22c-2.36,0-3.54,1.78-3.54,5.34v34.43
			c-0.112,1.615,0.165,3.234,0.81,4.72c0.529,0.951,1.565,1.506,2.65,1.42V585.21z"/>
		<path d="M459.73,597.56v-70.63h21.67c3.613,0,6.343,0.823,8.19,2.47c1.949,1.839,3.251,4.26,3.71,6.9
			c0.673,3.431,0.988,6.923,0.94,10.42c0.118,3.142-0.378,6.278-1.46,9.23c-1.026,2.342-3.054,4.094-5.52,4.77
			c1.995,0.296,3.73,1.526,4.67,3.31c0.979,2.132,1.442,4.465,1.35,6.81v26.72h-13.93v-27.65c0-2.06-0.42-3.33-1.26-3.83
			c-1.278-0.58-2.68-0.834-4.08-0.74v32.22H459.73z M474.09,553.1h3.41c1.96,0,2.94-2.127,2.94-6.38c0-2.76-0.217-4.567-0.65-5.42
			c-0.464-0.882-1.419-1.393-2.41-1.29h-3.29V553.1z"/>
		<path d="M498.25,597.56v-70.63h13.65v70.63H498.25z"/>
		<path d="M517.52,597.56v-70.63h19.42c5.087,0,8.913,1.41,11.48,4.23c2.57,2.83,3.85,7,3.85,12.39v33.09
			c0,6.667-1.17,11.83-3.51,15.49c-2.34,3.66-6.44,5.477-12.3,5.45L517.52,597.56z M531.73,585.08h2.44c2.6,0,3.9-1.25,3.9-3.77
			v-36.44c0-2.35-0.32-3.87-1-4.56s-1.9-1-3.83-1h-1.56L531.73,585.08z"/>
		<path d="M558.05,597.56v-70.63h28.26v13.65h-13.89v13.76h13.32v13.3h-13.32v16.17h14.81v13.76L558.05,597.56z"/>
		<path d="M611.15,597.56v-70.63h14.53l6.5,33.83v-33.83h13.64v70.63H632l-7-35.31v35.31H611.15z"/>
		<path d="M668.94,598.21c-5.64,0-9.953-1.707-12.94-5.12s-4.48-8.343-4.48-14.79v-33.55c0-6.053,1.48-10.643,4.44-13.77
			c2.96-3.127,7.293-4.69,13-4.69c5.7,0,10.033,1.563,13,4.69c2.967,3.127,4.447,7.717,4.44,13.77v33.55
			c0,6.453-1.493,11.383-4.48,14.79C678.933,596.497,674.607,598.203,668.94,598.21z M669.06,585.21c2.14,0,3.21-2.073,3.21-6.22
			v-34.48c0-3.48-1.043-5.22-3.13-5.22c-2.347,0-3.523,1.78-3.53,5.34v34.43c-0.109,1.614,0.165,3.232,0.8,4.72
			c0.533,0.948,1.566,1.501,2.65,1.42V585.21z"/>
		<path d="M711.32,597.56v-70.63H733c3.607,0,6.337,0.823,8.19,2.47c1.953,1.836,3.255,4.258,3.71,6.9
			c0.693,3.429,1.028,6.921,1,10.42c0.12,3.143-0.38,6.279-1.47,9.23c-1.023,2.343-3.053,4.097-5.52,4.77
			c1.997,0.298,3.734,1.526,4.68,3.31c0.971,2.135,1.43,4.467,1.34,6.81v26.72H731v-27.65c0-2.06-0.43-3.33-1.27-3.83
			c-1.274-0.58-2.673-0.834-4.07-0.74v32.22H711.32z M725.69,553.1h3.41c1.947,0,2.923-2.127,2.93-6.38
			c0-2.76-0.213-4.567-0.64-5.42c-0.464-0.882-1.419-1.393-2.41-1.29h-3.29V553.1z"/>
		<path d="M767.35,598.21c-5.653,0-9.987-1.707-13-5.12c-3.013-3.413-4.503-8.343-4.47-14.79v-33.55
			c0-6.053,1.477-10.643,4.43-13.77c2.953-3.127,7.287-4.69,13-4.69c5.7,0,10.033,1.563,13,4.69c2.967,3.127,4.447,7.717,4.44,13.77
			v33.55c0,6.453-1.493,11.383-4.48,14.79S772.977,598.203,767.35,598.21z M767.47,585.21c2.14,0,3.21-2.073,3.21-6.22v-34.48
			c0-3.48-1.043-5.22-3.13-5.22c-2.36,0-3.53,1.78-3.53,5.34v34.43c-0.115,1.615,0.16,3.233,0.8,4.72
			c0.531,0.949,1.565,1.504,2.65,1.42V585.21z"/>
		<path d="M788.54,597.56l6.82-70.63h24l6.7,70.63h-13.4l-1-11.39h-8.5l-0.89,11.39H788.54z M804.15,574.89h6.42l-3.09-35.92h-0.64
			L804.15,574.89z"/>
		<path d="M830.36,597.56v-70.63h19.42c5.08,0,8.907,1.41,11.48,4.23c2.57,2.83,3.85,7,3.85,12.39v33.09
			c0,6.667-1.17,11.83-3.51,15.49c-2.34,3.66-6.44,5.477-12.3,5.45L830.36,597.56z M844.56,585.08H847c2.6,0,3.89-1.25,3.89-3.77
			v-36.44c0-2.35-0.31-3.87-0.94-4.56s-1.9-1-3.83-1h-1.57L844.56,585.08z"/>
		<path d="M887.67,598.21c-6.447,0-11.097-1.607-13.95-4.82s-4.277-8.323-4.27-15.33v-6.9h14v8.83
			c-0.065,1.319,0.192,2.633,0.75,3.83c0.509,0.932,1.522,1.474,2.58,1.38c1.023,0.109,2.031-0.313,2.67-1.12
			c0.588-1.136,0.848-2.414,0.75-3.69c0.04-1.835-0.179-3.666-0.65-5.44c-0.458-1.523-1.213-2.94-2.22-4.17
			c-1.36-1.644-2.831-3.194-4.4-4.64l-6.34-6c-4.74-4.473-7.107-9.583-7.1-15.33c0-6,1.397-10.59,4.19-13.77s6.84-4.757,12.14-4.73
			c6.48,0,11.077,1.727,13.79,5.18c2.713,3.453,4.07,8.697,4.07,15.73h-14.41v-4.88c0.051-0.831-0.246-1.646-0.82-2.25
			c-1.386-1.12-3.383-1.06-4.7,0.14c-0.526,0.69-0.791,1.544-0.75,2.41c0.032,1.115,0.305,2.21,0.8,3.21
			c0.812,1.51,1.886,2.864,3.17,4l8.15,7.82c1.614,1.532,3.117,3.176,4.5,4.92c1.412,1.81,2.523,3.836,3.29,6
			c0.892,2.698,1.311,5.529,1.24,8.37c0,6.627-1.223,11.823-3.67,15.59S893.763,598.203,887.67,598.21z"/>
		<path d="M910.34,607l2.65-9.48h-5.1v-12h15v11.6l-4.09,9.84L910.34,607z"/>
		<path d="M947.51,597.56v-70.63H962l6.51,33.83v-33.83h13.64v70.63h-13.8l-7.07-35.31v35.31H947.51z"/>
		<path d="M1005.3,598.21c-5.647,0-9.963-1.707-12.95-5.12s-4.477-8.343-4.47-14.79v-33.55c0-6.053,1.477-10.643,4.43-13.77
			c2.953-3.127,7.287-4.69,13-4.69c5.7,0,10.033,1.563,13,4.69c2.967,3.127,4.447,7.717,4.44,13.77v33.55
			c0,6.453-1.493,11.383-4.48,14.79S1010.96,598.203,1005.3,598.21z M1005.42,585.21c2.14,0,3.21-2.073,3.21-6.22v-34.48
			c0-3.48-1.043-5.22-3.13-5.22c-2.36,0-3.53,1.78-3.53,5.34v34.43c-0.115,1.615,0.16,3.233,0.8,4.72
			c0.531,0.949,1.565,1.504,2.65,1.42V585.21z"/>
		<path d="M1053.74,597.56V540.5h-8.39v-13.57h30.9v13.57h-8.39v57.06H1053.74z"/>
		<path d="M1080.19,597.56v-70.63h21.67c3.613,0,6.343,0.823,8.19,2.47c1.949,1.839,3.251,4.26,3.71,6.9
			c0.673,3.431,0.988,6.923,0.94,10.42c0.118,3.142-0.378,6.278-1.46,9.23c-1.026,2.342-3.054,4.095-5.52,4.77
			c1.995,0.296,3.73,1.526,4.67,3.31c0.979,2.132,1.442,4.465,1.35,6.81v26.72h-13.93v-27.65c0-2.06-0.42-3.33-1.26-3.83
			c-1.278-0.58-2.68-0.834-4.08-0.74v32.22H1080.19z M1094.55,553.1h3.45c1.947,0,2.923-2.127,2.93-6.38
			c0-2.76-0.217-4.567-0.65-5.42c-0.461-0.88-1.411-1.391-2.4-1.29h-3.3L1094.55,553.1z"/>
		<path d="M1117.43,597.56l6.82-70.63h24l6.7,70.63h-13.36l-1-11.39H1132l-0.88,11.39H1117.43z M1133,574.89h6.42l-3.09-35.92h-0.64
			L1133,574.89z"/>
		<path d="M1159.25,597.56v-70.63h28.25v13.77h-14v11.23h13.32v13.61h-13.32v32L1159.25,597.56z"/>
		<path d="M1192,597.56v-70.63h28.25v13.77h-14v11.23h13.33v13.61h-13.33v32L1192,597.56z"/>
		<path d="M1224.18,597.56v-70.63h13.65v70.63H1224.18z"/>
		<path d="M1259.9,598.21c-5.113,0-9.227-1.593-12.34-4.78c-3.113-3.187-4.67-7.64-4.67-13.36v-32.59
			c0-6.853,1.357-12.097,4.07-15.73c2.713-3.633,7.133-5.453,13.26-5.46c3.077-0.059,6.128,0.569,8.93,1.84
			c2.556,1.188,4.7,3.109,6.16,5.52c1.593,2.815,2.372,6.018,2.25,9.25v12.2h-14v-10.46c0-2.11-0.27-3.54-0.81-4.28
			c-0.592-0.762-1.528-1.175-2.49-1.1c-1.094-0.117-2.147,0.451-2.65,1.43c-0.5,1.199-0.732,2.492-0.68,3.79v35.36
			c-0.123,1.432,0.18,2.869,0.87,4.13c0.56,0.795,1.489,1.248,2.46,1.2c1.074,0.08,2.087-0.508,2.55-1.48
			c0.544-1.208,0.801-2.526,0.75-3.85v-12.7h14.2v13.37c0,6.207-1.563,10.707-4.69,13.5
			C1269.943,596.803,1265.553,598.203,1259.9,598.21z"/>
	</g>
</g>
</svg>
