<?xml version="1.0" encoding="utf-8"?>
<!-- Generator: Adobe Illustrator 27.1.1, SVG Export Plug-In . SVG Version: 6.00 Build 0)  -->
<svg version="1.1" id="Capa_1" xmlns="http://www.w3.org/2000/svg" xmlns:xlink="http://www.w3.org/1999/xlink" x="0px" y="0px"
	 viewBox="0 0 643 149.8" style="enable-background:new 0 0 643 149.8;" xml:space="preserve">
<g>
	<path d="M14.8,1.3L0.6,148.5h32.5l1.8-23h12.8l2,23h31.7L67.4,1.3H14.8z M45.1,98h-7.8l3.6-48.6L45.1,98z"/>
	<polygon points="165.2,1.3 159.8,65.5 154.3,1.3 123.4,1.3 117.6,66.6 111.9,1.3 79.2,1.3 95,148.5 134.1,148.5 138.8,101 
		143.7,148.5 182.1,148.5 198.2,1.3 	"/>
	<path d="M209.5,1.3l-14.2,147.2h32.5l1.8-23h12.8l2,23h31.7l-14-147.2H209.5z M239.7,98h-7.8l3.6-48.6L239.7,98z"/>
	<path d="M349.5,63.1c2.1-4.9,3.1-11.5,3.1-19.5c0-8.2-0.7-15.4-2-21.5c-1.4-6.4-4.1-11.6-8.2-15.2c-4.2-3.7-10.2-5.6-18.1-5.6
		h-46.1v147.2h33.6V83.6c2.6,0.2,3.9,0.7,4.6,1.1c0.7,0.4,1.4,2.1,1.4,5.7v58.1h32.8V92.2c0-6-1-10.9-3-14.8
		c-1.3-2.5-3.1-4.4-5.5-5.8C345.6,69.5,348,66.7,349.5,63.1z M312,32.4h4.3c1.8,0,2.4,0.6,2.7,1.3c0.4,0.8,1,3.1,1,9.9
		c0,3.9-0.5,10.5-3.5,10.5H312V32.4z"/>
	<path d="M397.4,1.3h-41.6v147.2h40.6c12.6,0,21.6-4.1,26.8-12.1c4.9-7.7,7.5-18.6,7.5-32.5V37.2c0-11.5-2.8-20.5-8.4-26.6
		C416.7,4.4,408.3,1.3,397.4,1.3z M389.3,31h0.8c4.3,0,5.6,0.9,6,1.3c0.3,0.3,1.3,1.8,1.3,7.6v73.5c0,3.8-1.5,5.2-5.5,5.2h-2.6V31z"
		/>
	<polygon points="469.8,88.1 496.7,88.1 496.7,56.6 469.8,56.6 469.8,33.6 497.8,33.6 497.8,1.3 436.1,1.3 436.1,148.5 499.7,148.5 
		499.7,116 469.8,116 	"/>
	<polygon points="536.8,88.1 563.7,88.1 563.7,56.6 536.8,56.6 536.8,33.6 564.8,33.6 564.8,1.3 503.1,1.3 503.1,148.5 566.7,148.5 
		566.7,116 536.8,116 	"/>
	<path d="M639.2,86.9c-1.8-4.8-4.1-9.1-7-12.8c-2.8-3.5-5.9-7-9.3-10.2l-16.4-15.8c-3-2.8-4.9-5.3-5.9-7.3c-0.9-2-1.4-3.8-1.4-5.5
		c0-1.4,0.3-2.5,1-3.4c0.2-0.3,0.9-1,3.2-1c1.3,0,2.2,0.3,2.8,0.9c0.6,0.6,0.9,1.6,0.9,2.8v12.2h33.7v-2.4c0-14.7-2.9-25.8-8.7-33.2
		C626.2,3.8,616.2,0,602.5,0c-11.3,0-20.2,3.5-26.3,10.4c-6,6.8-9.1,16.7-9.1,29.3c0,12.2,5.1,23.2,15.1,32.6L595,84.5
		c3.7,3.5,6.6,6.5,8.6,9.1c1.9,2.4,3.3,5,4.1,7.6c0.8,2.7,1.2,6.2,1.2,10.3c0,3.9-0.7,5.5-1.1,6.1c-0.2,0.3-0.8,1.2-3.4,1.2
		c-2,0-2.7-0.8-3.1-1.5c-0.8-1.5-1.2-3.7-1.2-6.6V90.5h-32.9v16.3c0,14.7,3.1,25.6,9.2,32.5c6.2,7,16.2,10.5,29.9,10.5
		c13,0,22.4-4.2,27.8-12.5c5.2-7.9,7.8-19,7.8-32.7C641.8,97.7,641,91.8,639.2,86.9z"/>
</g>
</svg>
