<?xml version="1.0" encoding="utf-8"?>
<!-- Generator: Adobe Illustrator 25.4.1, SVG Export Plug-In . SVG Version: 6.00 Build 0)  -->
<svg version="1.1" id="Capa_2_00000092444179022987895670000007144457973583362479_"
	 xmlns="http://www.w3.org/2000/svg" xmlns:xlink="http://www.w3.org/1999/xlink" x="0px" y="0px" width="700.39px"
	 height="35.27px" viewBox="0 0 700.39 35.27" style="enable-background:new 0 0 700.39 35.27;" xml:space="preserve">
<style type="text/css">
	.st0{fill:none;}
</style>
<g id="Capa_1-2">
	<g>
		<g>
			<rect x="69.45" y="6.94" width="2.33" height="12.07"/>
			<polygon points="76.37,12.72 75.26,6.94 72.78,6.94 72.78,19.01 75.14,19.01 75.14,12.97 76.35,19.01 78.71,19.01 78.71,6.94 
				76.37,6.94 			"/>
			<polygon points="79.38,9.26 80.81,9.26 80.81,19.01 83.22,19.01 83.22,9.26 84.66,9.26 84.66,6.94 79.38,6.94 			"/>
			<polygon points="87.73,13.89 90,13.89 90,11.62 87.73,11.62 87.73,9.27 90.1,9.27 90.1,6.94 85.27,6.94 85.27,19.01 90.25,19.01 
				90.25,16.65 87.73,16.65 			"/>
			<path d="M96.7,11.9c0.17-0.39,0.25-0.92,0.25-1.58s-0.05-1.27-0.16-1.78s-0.32-0.9-0.63-1.18c-0.31-0.28-0.78-0.42-1.4-0.42h-3.7
				v12.07h2.44v-5.5c0.32,0,0.55,0.04,0.7,0.13c0.14,0.08,0.22,0.3,0.22,0.65v4.72h2.38v-4.57c0-0.48-0.08-0.86-0.23-1.16
				s-0.42-0.49-0.8-0.57c0.46-0.15,0.78-0.42,0.94-0.82L96.7,11.9z M94.09,11.41h-0.58V9.17h0.56c0.2,0,0.34,0.07,0.41,0.22
				c0.07,0.15,0.11,0.46,0.11,0.93C94.59,11.05,94.42,11.41,94.09,11.41z"/>
			<polygon points="100.2,13.89 102.47,13.89 102.47,11.62 100.2,11.62 100.2,9.27 102.57,9.27 102.57,6.94 97.74,6.94 97.74,19.01 
				102.73,19.01 102.73,16.65 100.2,16.65 			"/>
			<path d="M108.42,13.03c-0.23-0.29-0.49-0.57-0.77-0.84l-1.39-1.34c-0.27-0.26-0.45-0.48-0.54-0.68c-0.09-0.2-0.14-0.38-0.14-0.55
				s0.04-0.31,0.13-0.42s0.23-0.16,0.42-0.16c0.16,0,0.29,0.05,0.38,0.14s0.14,0.22,0.14,0.38v0.83h2.45c0-1.2-0.23-2.1-0.7-2.69
				s-1.25-0.88-2.35-0.88c-0.91,0-1.6,0.27-2.07,0.81s-0.72,1.32-0.72,2.35s0.4,1.86,1.21,2.62l1.08,1.03
				c0.32,0.3,0.57,0.57,0.75,0.79s0.31,0.46,0.38,0.71s0.11,0.56,0.11,0.93c0,0.29-0.04,0.5-0.13,0.63
				c-0.08,0.13-0.24,0.19-0.46,0.19s-0.36-0.08-0.44-0.24s-0.13-0.38-0.13-0.66v-1.51h-2.39v1.18c0,1.2,0.24,2.07,0.73,2.62
				c0.49,0.55,1.28,0.82,2.38,0.82c1.04,0,1.77-0.32,2.18-0.96c0.42-0.64,0.63-1.53,0.63-2.66c0-0.56-0.07-1.04-0.21-1.43
				s-0.33-0.73-0.56-1.03L108.42,13.03z"/>
			<polygon points="109.6,9.26 111.04,9.26 111.04,19.01 113.45,19.01 113.45,9.26 114.88,9.26 114.88,6.94 109.6,6.94 			"/>
			<polygon points="117.96,13.89 120.24,13.89 120.24,11.62 117.96,11.62 117.96,9.27 120.34,9.27 120.34,6.94 115.51,6.94 
				115.51,19.01 120.49,19.01 120.49,16.65 117.96,16.65 			"/>
			<path d="M124.61,6.94h-3.32v12.07h3.24c1,0,1.7-0.31,2.1-0.93s0.6-1.5,0.6-2.65V9.78c0-0.93-0.22-1.63-0.66-2.12
				C126.13,7.18,125.48,6.94,124.61,6.94z M124.8,16.23c0,0.43-0.22,0.64-0.67,0.64h-0.42V9.05h0.27c0.33,0,0.55,0.06,0.66,0.17
				S124.8,9.6,124.8,10v6.22V16.23z"/>
			<rect x="131.13" y="6.94" width="2.33" height="12.07"/>
			<polygon points="138.05,12.72 136.94,6.94 134.46,6.94 134.46,19.01 136.82,19.01 136.82,12.97 138.02,19.01 140.38,19.01 
				140.38,6.94 138.05,6.94 			"/>
			<polygon points="148.08,11.25 146.95,11.25 146.95,6.94 144.55,6.94 144.55,19.01 146.95,19.01 146.95,13.54 148.08,13.54 
				148.08,19.01 150.48,19.01 150.48,6.94 148.08,6.94 			"/>
			<path d="M152.35,6.94l-1.17,12.07h2.34l0.15-1.95h1.45l0.17,1.95h2.28l-1.14-12.07h-4.09L152.35,6.94z M153.85,15.13l0.46-6.14
				h0.11l0.53,6.14C154.95,15.13,153.85,15.13,153.85,15.13z"/>
			<polygon points="161.13,15.15 160.24,6.93 157.95,6.93 159.44,19.01 162.73,19.01 164.21,6.93 161.92,6.93 			"/>
			<rect x="164.82" y="6.94" width="2.33" height="12.07"/>
			<polygon points="171.74,12.72 170.63,6.94 168.15,6.94 168.15,19.01 170.51,19.01 170.51,12.97 171.71,19.01 174.07,19.01 
				174.07,6.94 171.74,6.94 			"/>
			<path d="M181.03,11.04c0-0.9-0.08-1.66-0.25-2.29s-0.46-1.1-0.9-1.43c-0.43-0.33-1.06-0.49-1.87-0.49
				c-1.97,0-2.96,1.13-2.96,3.38v5.2c0,2.47,0.86,3.7,2.58,3.7c0.9,0,1.57-0.37,1.99-1.12l0.41,1.01H181v-7.03h-2.95v2.08h0.64v1.72
				c0,0.33-0.04,0.6-0.13,0.8c-0.08,0.2-0.25,0.31-0.51,0.31s-0.41-0.1-0.5-0.31c-0.08-0.2-0.13-0.47-0.13-0.79V9.93
				c0-0.22,0.04-0.43,0.13-0.62s0.27-0.28,0.55-0.28c0.22,0,0.37,0.09,0.44,0.26s0.11,0.39,0.11,0.66v1.07h2.36L181.03,11.04z"/>
			<polygon points="184.56,9.26 186,9.26 186,19.01 188.41,19.01 188.41,9.26 189.84,9.26 189.84,6.94 184.56,6.94 			"/>
			<polygon points="194.05,11.25 192.91,11.25 192.91,6.94 190.51,6.94 190.51,19.01 192.91,19.01 192.91,13.54 194.05,13.54 
				194.05,19.01 196.45,19.01 196.45,6.94 194.05,6.94 			"/>
			<polygon points="199.89,13.89 202.17,13.89 202.17,11.62 199.89,11.62 199.89,9.27 202.26,9.27 202.26,6.94 197.44,6.94 
				197.44,19.01 202.42,19.01 202.42,16.65 199.89,16.65 			"/>
			<path d="M207.37,6.94l-1.17,12.07h2.34l0.15-1.95h1.45l0.17,1.95h2.28l-1.14-12.07h-4.09L207.37,6.94z M208.87,15.13l0.46-6.14
				h0.11l0.53,6.14C209.97,15.13,208.87,15.13,208.87,15.13z"/>
			<path d="M219.13,15.84v-5.83c0-1.04-0.25-1.83-0.76-2.37s-1.25-0.81-2.21-0.81s-1.7,0.27-2.21,0.81s-0.76,1.33-0.76,2.37v5.83
				c0,1.07,0.25,1.88,0.74,2.44c0.5,0.56,1.21,0.84,2.16,0.84c0.23,0,0.46-0.03,0.68-0.09l1.92,1.26l0.82-1.44l-1.04-0.66
				c0.45-0.57,0.67-1.36,0.67-2.35H219.13z M216.7,15.69c0,0.17,0,0.35-0.03,0.54s-0.07,0.34-0.14,0.47
				c-0.08,0.13-0.2,0.19-0.37,0.19c-0.19,0-0.32-0.06-0.4-0.19c-0.08-0.13-0.13-0.28-0.15-0.46c-0.02-0.18-0.03-0.35-0.03-0.51v-5.7
				c0-0.26,0.04-0.49,0.11-0.69s0.23-0.3,0.47-0.3s0.38,0.1,0.46,0.3c0.07,0.2,0.11,0.43,0.11,0.69v5.64L216.7,15.69z"/>
			<path d="M223.7,15.68c0,0.2,0,0.4-0.03,0.58s-0.07,0.34-0.15,0.46c-0.08,0.12-0.22,0.17-0.4,0.17s-0.32-0.06-0.4-0.18
				c-0.08-0.12-0.14-0.27-0.16-0.46c-0.02-0.18-0.03-0.38-0.03-0.58V6.94h-2.34v8.84c0,1.1,0.24,1.93,0.71,2.49s1.22,0.85,2.22,0.85
				s1.75-0.28,2.22-0.85s0.71-1.39,0.71-2.49V6.94h-2.34v8.74H223.7z"/>
			<path d="M227.76,6.94l-1.17,12.07h2.34l0.15-1.95h1.45l0.17,1.95h2.28l-1.14-12.07h-4.09L227.76,6.94z M229.26,15.13l0.46-6.14
				h0.11l0.53,6.14C230.36,15.13,229.26,15.13,229.26,15.13z"/>
			<polygon points="233.34,9.26 234.78,9.26 234.78,19.01 237.19,19.01 237.19,9.26 238.62,9.26 238.62,6.94 233.34,6.94 			"/>
			<rect x="239.19" y="6.94" width="2.33" height="12.07"/>
			<path d="M245.93,15.98c0,0.27-0.04,0.49-0.13,0.66c-0.08,0.17-0.23,0.25-0.44,0.25c-0.18,0-0.32-0.07-0.42-0.21
				c-0.1-0.14-0.15-0.37-0.15-0.71V9.93c0-0.27,0.04-0.49,0.12-0.65s0.23-0.24,0.45-0.24c0.19,0,0.33,0.06,0.42,0.19
				s0.14,0.37,0.14,0.73v1.78h2.4V9.66c0-0.64-0.13-1.16-0.38-1.58c-0.26-0.42-0.61-0.73-1.05-0.94c-0.45-0.21-0.95-0.32-1.53-0.32
				c-1.05,0-1.8,0.31-2.27,0.93c-0.46,0.62-0.7,1.52-0.7,2.69v5.57c0,0.98,0.27,1.74,0.8,2.28s1.24,0.82,2.11,0.82
				c0.96,0,1.71-0.24,2.24-0.72c0.54-0.48,0.8-1.25,0.8-2.31V13.8h-2.43v2.17L245.93,15.98z"/>
			<path d="M249.94,6.94l-1.17,12.07h2.34l0.15-1.95h1.45l0.17,1.95h2.28l-1.14-12.07h-4.09L249.94,6.94z M251.44,15.13l0.46-6.14
				h0.11l0.53,6.14C252.54,15.13,251.44,15.13,251.44,15.13z"/>
			<path d="M264.36,11.9c0.17-0.39,0.25-0.92,0.25-1.58s-0.05-1.27-0.16-1.78s-0.32-0.9-0.63-1.18c-0.31-0.28-0.78-0.42-1.4-0.42
				h-3.7v12.07h2.44v-5.5c0.32,0,0.55,0.04,0.7,0.13c0.14,0.08,0.22,0.3,0.22,0.65v4.72h2.38v-4.57c0-0.48-0.08-0.86-0.23-1.16
				c-0.15-0.3-0.42-0.49-0.8-0.57c0.46-0.15,0.78-0.42,0.94-0.82L264.36,11.9z M261.75,11.41h-0.58V9.17h0.56
				c0.2,0,0.34,0.07,0.41,0.22c0.07,0.15,0.11,0.46,0.11,0.93C262.25,11.05,262.08,11.41,261.75,11.41z"/>
			<polygon points="267.86,13.89 270.14,13.89 270.14,11.62 267.86,11.62 267.86,9.27 270.24,9.27 270.24,6.94 265.41,6.94 
				265.41,19.01 270.39,19.01 270.39,16.65 267.86,16.65 			"/>
			<path d="M274.62,15.98c0,0.27-0.04,0.49-0.13,0.66c-0.08,0.17-0.23,0.25-0.44,0.25c-0.18,0-0.32-0.07-0.42-0.21
				s-0.15-0.37-0.15-0.71V9.93c0-0.27,0.04-0.49,0.12-0.65s0.23-0.24,0.45-0.24c0.19,0,0.33,0.06,0.42,0.19s0.14,0.37,0.14,0.73
				v1.78h2.4V9.66c0-0.64-0.13-1.16-0.38-1.58c-0.26-0.42-0.61-0.73-1.05-0.94c-0.45-0.21-0.95-0.32-1.53-0.32
				c-1.05,0-1.8,0.31-2.27,0.93c-0.46,0.62-0.7,1.52-0.7,2.69v5.57c0,0.98,0.27,1.74,0.8,2.28s1.24,0.82,2.11,0.82
				c0.96,0,1.71-0.24,2.24-0.72c0.54-0.48,0.8-1.25,0.8-2.31V13.8h-2.43v2.17L274.62,15.98z"/>
			<path d="M283.43,11.9c0.17-0.39,0.25-0.92,0.25-1.58s-0.05-1.27-0.16-1.78s-0.32-0.9-0.63-1.18c-0.31-0.28-0.78-0.42-1.4-0.42
				h-3.7v12.07h2.44v-5.5c0.32,0,0.55,0.04,0.7,0.13c0.14,0.08,0.22,0.3,0.22,0.65v4.72h2.38v-4.57c0-0.48-0.08-0.86-0.23-1.16
				c-0.15-0.3-0.42-0.49-0.8-0.57c0.46-0.15,0.78-0.42,0.94-0.82L283.43,11.9z M280.82,11.41h-0.58V9.17h0.56
				c0.2,0,0.34,0.07,0.41,0.22c0.07,0.15,0.11,0.46,0.11,0.93C281.32,11.05,281.15,11.41,280.82,11.41z"/>
			<polygon points="286.93,13.89 289.21,13.89 289.21,11.62 286.93,11.62 286.93,9.27 289.31,9.27 289.31,6.94 284.48,6.94 
				284.48,19.01 289.46,19.01 289.46,16.65 286.93,16.65 			"/>
			<path d="M291.1,6.94l-1.17,12.07h2.34l0.15-1.95h1.45l0.17,1.95h2.28l-1.14-12.07h-4.09L291.1,6.94z M292.6,15.13l0.46-6.14h0.11
				l0.53,6.14L292.6,15.13L292.6,15.13z"/>
			<polygon points="296.67,9.26 298.11,9.26 298.11,19.01 300.52,19.01 300.52,9.26 301.95,9.26 301.95,6.94 296.67,6.94 			"/>
			<rect x="302.52" y="6.94" width="2.33" height="12.07"/>
			<path d="M308.69,6.83c-0.97,0-1.71,0.27-2.22,0.8c-0.5,0.53-0.76,1.32-0.76,2.35v5.73c0,1.1,0.25,1.94,0.76,2.53
				c0.51,0.58,1.25,0.87,2.21,0.87s1.7-0.29,2.21-0.87c0.51-0.58,0.76-1.42,0.76-2.53V9.98c0-1.03-0.25-1.82-0.76-2.35
				c-0.5-0.54-1.24-0.8-2.22-0.8L308.69,6.83z M309.26,15.83c0,0.71-0.18,1.06-0.55,1.06c-0.21,0-0.36-0.08-0.45-0.24
				c-0.09-0.16-0.14-0.43-0.14-0.81V9.96c0-0.61,0.2-0.91,0.6-0.91c0.36,0,0.54,0.3,0.54,0.89V15.83z"/>
			<polygon points="316.17,12.72 315.06,6.94 312.58,6.94 312.58,19.01 314.94,19.01 314.94,12.97 316.14,19.01 318.5,19.01 
				318.5,6.94 316.17,6.94 			"/>
			<path d="M320.41,6.94l-1.17,12.07h2.34l0.15-1.95h1.45l0.17,1.95h2.28l-1.14-12.07h-4.09L320.41,6.94z M321.91,15.13l0.46-6.14
				h0.11l0.53,6.14L321.91,15.13L321.91,15.13z"/>
			<polygon points="328.8,6.94 326.39,6.94 326.39,19.01 331.28,19.01 331.28,16.95 328.8,16.95 			"/>
			<path d="M335.63,6.94l-1.17,12.07h2.34l0.15-1.95h1.45l0.17,1.95h2.28l-1.14-12.07h-4.09L335.63,6.94z M337.13,15.13l0.46-6.14
				h0.11l0.53,6.14L337.13,15.13L337.13,15.13z"/>
			<polygon points="345.2,12.72 344.09,6.94 341.61,6.94 341.61,19.01 343.97,19.01 343.97,12.97 345.17,19.01 347.53,19.01 
				347.53,6.94 345.2,6.94 			"/>
			<path d="M351.92,6.94h-3.32v12.07h3.24c1,0,1.7-0.31,2.1-0.93s0.6-1.5,0.6-2.65V9.78c0-0.93-0.22-1.63-0.66-2.12
				C353.44,7.18,352.79,6.94,351.92,6.94z M352.11,16.23c0,0.43-0.22,0.64-0.67,0.64h-0.42V9.05h0.27c0.33,0,0.55,0.06,0.66,0.17
				s0.16,0.38,0.16,0.78v6.22L352.11,16.23z"/>
			<path d="M363.59,13.03c-0.23-0.29-0.49-0.57-0.77-0.84l-1.39-1.34c-0.27-0.26-0.45-0.48-0.54-0.68c-0.09-0.2-0.14-0.38-0.14-0.55
				s0.04-0.31,0.13-0.42s0.23-0.16,0.42-0.16c0.16,0,0.29,0.05,0.38,0.14s0.14,0.22,0.14,0.38v0.83h2.45c0-1.2-0.23-2.1-0.7-2.69
				s-1.25-0.88-2.35-0.88c-0.91,0-1.6,0.27-2.07,0.81s-0.72,1.32-0.72,2.35s0.4,1.86,1.21,2.62l1.08,1.03
				c0.32,0.3,0.57,0.57,0.75,0.79s0.31,0.46,0.38,0.71s0.11,0.56,0.11,0.93c0,0.29-0.04,0.5-0.13,0.63
				c-0.08,0.13-0.24,0.19-0.46,0.19s-0.36-0.08-0.44-0.24c-0.08-0.16-0.13-0.38-0.13-0.66v-1.51h-2.39v1.18
				c0,1.2,0.24,2.07,0.73,2.62c0.49,0.55,1.28,0.82,2.38,0.82c1.04,0,1.77-0.32,2.18-0.96c0.42-0.64,0.63-1.53,0.63-2.66
				c0-0.56-0.07-1.04-0.21-1.43c-0.14-0.39-0.33-0.73-0.56-1.03L363.59,13.03z"/>
			<path d="M369.94,7.39c-0.39-0.3-0.92-0.45-1.59-0.45h-3.19v12.07h2.37v-4.78h0.98c0.67,0,1.18-0.15,1.55-0.45
				s0.62-0.72,0.76-1.26s0.21-1.18,0.21-1.91s-0.08-1.41-0.25-1.96s-0.45-0.97-0.84-1.27V7.39z M368.5,11.69
				c-0.1,0.25-0.38,0.38-0.82,0.38h-0.14V9.15h0.27c0.37,0,0.6,0.12,0.7,0.37s0.15,0.6,0.15,1.06c0,0.49-0.05,0.86-0.15,1.11H368.5z
				"/>
			<path d="M374.68,6.83c-0.97,0-1.71,0.27-2.22,0.8c-0.5,0.53-0.76,1.32-0.76,2.35v5.73c0,1.1,0.25,1.94,0.76,2.53
				c0.51,0.58,1.25,0.87,2.21,0.87s1.7-0.29,2.21-0.87c0.51-0.58,0.76-1.42,0.76-2.53V9.98c0-1.03-0.25-1.82-0.76-2.35
				c-0.5-0.54-1.24-0.8-2.22-0.8L374.68,6.83z M375.25,15.83c0,0.71-0.18,1.06-0.55,1.06c-0.21,0-0.36-0.08-0.45-0.24
				c-0.09-0.16-0.14-0.43-0.14-0.81V9.96c0-0.61,0.2-0.91,0.6-0.91c0.36,0,0.54,0.3,0.54,0.89V15.83z"/>
			<path d="M384.27,11.9c0.17-0.39,0.25-0.92,0.25-1.58s-0.05-1.27-0.16-1.78s-0.32-0.9-0.63-1.18c-0.31-0.28-0.78-0.42-1.4-0.42
				h-3.7v12.07h2.44v-5.5c0.32,0,0.55,0.04,0.7,0.13c0.14,0.08,0.22,0.3,0.22,0.65v4.72h2.38v-4.57c0-0.48-0.08-0.86-0.23-1.16
				c-0.15-0.3-0.42-0.49-0.8-0.57c0.46-0.15,0.78-0.42,0.94-0.82L384.27,11.9z M381.66,11.41h-0.58V9.17h0.56
				c0.2,0,0.34,0.07,0.41,0.22c0.07,0.15,0.11,0.46,0.11,0.93C382.16,11.05,381.99,11.41,381.66,11.41z"/>
			<polygon points="384.92,9.26 386.35,9.26 386.35,19.01 388.76,19.01 388.76,9.26 390.2,9.26 390.2,6.94 384.92,6.94 			"/>
			<rect x="390.76" y="6.94" width="2.33" height="12.07"/>
			<polygon points="397.64,12.72 396.53,6.94 394.05,6.94 394.05,19.01 396.41,19.01 396.41,12.97 397.61,19.01 399.97,19.01 
				399.97,6.94 397.64,6.94 			"/>
			<path d="M406.92,11.04c0-0.9-0.08-1.66-0.25-2.29s-0.46-1.1-0.9-1.43c-0.43-0.33-1.06-0.49-1.87-0.49
				c-1.97,0-2.96,1.13-2.96,3.38v5.2c0,2.47,0.86,3.7,2.58,3.7c0.9,0,1.57-0.37,1.99-1.12l0.41,1.01h0.97v-7.03h-2.95v2.08h0.64
				v1.72c0,0.33-0.04,0.6-0.13,0.8c-0.08,0.2-0.25,0.31-0.51,0.31s-0.41-0.1-0.5-0.31c-0.08-0.2-0.13-0.47-0.13-0.79V9.93
				c0-0.22,0.04-0.43,0.13-0.62s0.27-0.28,0.55-0.28c0.22,0,0.37,0.09,0.44,0.26s0.11,0.39,0.11,0.66v1.07h2.36L406.92,11.04z"/>
			<path d="M411.72,6.94l-1.17,12.07h2.34l0.15-1.95h1.45l0.17,1.95h2.28L415.8,6.94h-4.09H411.72z M413.22,15.13l0.46-6.14h0.11
				l0.53,6.14L413.22,15.13L413.22,15.13z"/>
			<path d="M421.13,15.98c0,0.27-0.04,0.49-0.13,0.66c-0.08,0.17-0.23,0.25-0.44,0.25c-0.18,0-0.32-0.07-0.42-0.21
				s-0.15-0.37-0.15-0.71V9.93c0-0.27,0.04-0.49,0.12-0.65s0.23-0.24,0.45-0.24c0.19,0,0.33,0.06,0.42,0.19s0.14,0.37,0.14,0.73
				v1.78h2.4V9.66c0-0.64-0.13-1.16-0.38-1.58c-0.26-0.42-0.61-0.73-1.05-0.94c-0.45-0.21-0.95-0.32-1.53-0.32
				c-1.05,0-1.8,0.31-2.27,0.93c-0.46,0.62-0.7,1.52-0.7,2.69v5.57c0,0.98,0.27,1.74,0.8,2.28s1.24,0.82,2.11,0.82
				c0.96,0,1.71-0.24,2.24-0.72c0.54-0.48,0.8-1.25,0.8-2.31V13.8h-2.43v2.17L421.13,15.98z"/>
			<polygon points="423.96,9.26 425.39,9.26 425.39,19.01 427.81,19.01 427.81,9.26 429.24,9.26 429.24,6.94 423.96,6.94 			"/>
			<rect x="429.75" y="6.94" width="2.33" height="12.07"/>
			<polygon points="435.88,15.15 435,6.93 432.7,6.93 434.19,19.01 437.48,19.01 438.97,6.93 436.67,6.93 			"/>
			<rect x="439.56" y="6.94" width="2.33" height="12.07"/>
			<polygon points="442.5,9.26 443.94,9.26 443.94,19.01 446.35,19.01 446.35,9.26 447.78,9.26 447.78,6.94 442.5,6.94 			"/>
			<rect x="448.35" y="6.94" width="2.33" height="12.07"/>
			<polygon points="453.99,13.89 456.27,13.89 456.27,11.62 453.99,11.62 453.99,9.27 456.37,9.27 456.37,6.94 451.54,6.94 
				451.54,19.01 456.52,19.01 456.52,16.65 453.99,16.65 			"/>
			<path d="M462.22,13.03c-0.23-0.29-0.49-0.57-0.77-0.84l-1.39-1.34c-0.27-0.26-0.45-0.48-0.54-0.68c-0.09-0.2-0.14-0.38-0.14-0.55
				s0.04-0.31,0.13-0.42s0.23-0.16,0.42-0.16c0.16,0,0.29,0.05,0.38,0.14s0.14,0.22,0.14,0.38v0.83h2.45c0-1.2-0.23-2.1-0.7-2.69
				s-1.25-0.88-2.35-0.88c-0.91,0-1.6,0.27-2.07,0.81s-0.72,1.32-0.72,2.35s0.4,1.86,1.21,2.62l1.08,1.03
				c0.32,0.3,0.57,0.57,0.75,0.79s0.31,0.46,0.38,0.71s0.11,0.56,0.11,0.93c0,0.29-0.04,0.5-0.13,0.63
				c-0.08,0.13-0.24,0.19-0.46,0.19s-0.36-0.08-0.44-0.24c-0.08-0.16-0.13-0.38-0.13-0.66v-1.51h-2.39v1.18
				c0,1.2,0.24,2.07,0.73,2.62c0.49,0.55,1.28,0.82,2.38,0.82c1.04,0,1.77-0.32,2.18-0.96c0.42-0.64,0.63-1.53,0.63-2.66
				c0-0.56-0.07-1.04-0.21-1.43c-0.14-0.39-0.33-0.73-0.56-1.03L462.22,13.03z"/>
			<polygon points="466.67,19.01 469.09,19.01 469.09,13.54 471.37,13.54 471.37,11.21 469.09,11.21 469.09,9.29 471.49,9.29 
				471.49,6.94 466.67,6.94 			"/>
			<path d="M477.91,11.9c0.17-0.39,0.25-0.92,0.25-1.58s-0.05-1.27-0.16-1.78s-0.32-0.9-0.63-1.18c-0.31-0.28-0.78-0.42-1.4-0.42
				h-3.7v12.07h2.44v-5.5c0.32,0,0.55,0.04,0.7,0.13c0.14,0.08,0.22,0.3,0.22,0.65v4.72h2.38v-4.57c0-0.48-0.08-0.86-0.23-1.16
				c-0.15-0.3-0.42-0.49-0.8-0.57c0.46-0.15,0.78-0.42,0.94-0.82L477.91,11.9z M475.3,11.41h-0.58V9.17h0.56
				c0.2,0,0.34,0.07,0.41,0.22c0.07,0.15,0.11,0.46,0.11,0.93C475.8,11.05,475.63,11.41,475.3,11.41z"/>
			<path d="M479.84,6.94l-1.17,12.07h2.34l0.15-1.95h1.45l0.17,1.95h2.28l-1.14-12.07h-4.09L479.84,6.94z M481.34,15.13l0.46-6.14
				h0.11l0.53,6.14L481.34,15.13L481.34,15.13z"/>
			<polygon points="489.41,12.72 488.3,6.94 485.81,6.94 485.81,19.01 488.17,19.01 488.17,12.97 489.38,19.01 491.74,19.01 
				491.74,6.94 489.41,6.94 			"/>
			<path d="M496.23,15.98c0,0.27-0.04,0.49-0.13,0.66c-0.08,0.17-0.23,0.25-0.44,0.25c-0.18,0-0.32-0.07-0.42-0.21
				s-0.15-0.37-0.15-0.71V9.93c0-0.27,0.04-0.49,0.12-0.65s0.23-0.24,0.45-0.24c0.19,0,0.33,0.06,0.42,0.19s0.14,0.37,0.14,0.73
				v1.78h2.4V9.66c0-0.64-0.13-1.16-0.38-1.58c-0.26-0.42-0.61-0.73-1.05-0.94c-0.45-0.21-0.95-0.32-1.53-0.32
				c-1.05,0-1.8,0.31-2.27,0.93c-0.46,0.62-0.7,1.52-0.7,2.69v5.57c0,0.98,0.27,1.74,0.8,2.28s1.24,0.82,2.11,0.82
				c0.96,0,1.71-0.24,2.24-0.72c0.54-0.48,0.8-1.25,0.8-2.31V13.8h-2.43v2.17L496.23,15.98z"/>
			<polygon points="502.94,11.25 501.81,11.25 501.81,6.94 499.41,6.94 499.41,19.01 501.81,19.01 501.81,13.54 502.94,13.54 
				502.94,19.01 505.34,19.01 505.34,6.94 502.94,6.94 			"/>
			<rect x="506.26" y="6.94" width="2.33" height="12.07"/>
			<path d="M514.5,13.03c-0.23-0.29-0.49-0.57-0.77-0.84l-1.39-1.34c-0.27-0.26-0.45-0.48-0.54-0.68c-0.09-0.2-0.14-0.38-0.14-0.55
				s0.04-0.31,0.13-0.42s0.23-0.16,0.42-0.16c0.16,0,0.29,0.05,0.38,0.14s0.14,0.22,0.14,0.38v0.83h2.45c0-1.2-0.23-2.1-0.7-2.69
				s-1.25-0.88-2.35-0.88c-0.91,0-1.6,0.27-2.07,0.81s-0.72,1.32-0.72,2.35s0.4,1.86,1.21,2.62l1.08,1.03
				c0.32,0.3,0.57,0.57,0.75,0.79s0.31,0.46,0.38,0.71s0.11,0.56,0.11,0.93c0,0.29-0.04,0.5-0.13,0.63
				c-0.08,0.13-0.24,0.19-0.46,0.19s-0.36-0.08-0.44-0.24c-0.08-0.16-0.13-0.38-0.13-0.66v-1.51h-2.39v1.18
				c0,1.2,0.24,2.07,0.73,2.62c0.49,0.55,1.28,0.82,2.38,0.82c1.04,0,1.77-0.32,2.18-0.96c0.42-0.64,0.63-1.53,0.63-2.66
				c0-0.56-0.07-1.04-0.21-1.43s-0.33-0.73-0.56-1.03L514.5,13.03z"/>
			<rect x="515.96" y="6.94" width="2.33" height="12.07"/>
			<polygon points="522.89,12.72 521.78,6.94 519.3,6.94 519.3,19.01 521.65,19.01 521.65,12.97 522.86,19.01 525.22,19.01 
				525.22,6.94 522.89,6.94 			"/>
			<path d="M532.17,11.04c0-0.9-0.08-1.66-0.25-2.29s-0.46-1.1-0.9-1.43c-0.43-0.33-1.06-0.49-1.87-0.49
				c-1.97,0-2.96,1.13-2.96,3.38v5.2c0,2.47,0.86,3.7,2.58,3.7c0.9,0,1.57-0.37,1.99-1.12l0.41,1.01h0.97v-7.03h-2.95v2.08h0.64
				v1.72c0,0.33-0.04,0.6-0.13,0.8c-0.08,0.2-0.25,0.31-0.51,0.31s-0.41-0.1-0.5-0.31c-0.08-0.2-0.13-0.47-0.13-0.79V9.93
				c0-0.22,0.04-0.43,0.13-0.62s0.27-0.28,0.55-0.28c0.22,0,0.37,0.09,0.44,0.26s0.11,0.39,0.11,0.66v1.07h2.36L532.17,11.04z"/>
			<rect x="536" y="6.94" width="2.33" height="12.07"/>
			<polygon points="542.92,12.72 541.81,6.94 539.33,6.94 539.33,19.01 541.69,19.01 541.69,12.97 542.89,19.01 545.25,19.01 
				545.25,6.94 542.92,6.94 			"/>
			<polygon points="552.01,11.03 551.34,6.94 548.95,6.94 550.87,15.04 550.87,19.01 553.15,19.01 553.15,15.04 555.07,6.94 
				552.68,6.94 			"/>
			<path d="M558.56,6.83c-0.97,0-1.71,0.27-2.22,0.8c-0.5,0.53-0.76,1.32-0.76,2.35v5.73c0,1.1,0.25,1.94,0.76,2.53
				c0.51,0.58,1.25,0.87,2.21,0.87s1.7-0.29,2.21-0.87s0.76-1.42,0.76-2.53V9.98c0-1.03-0.25-1.82-0.76-2.35
				c-0.5-0.54-1.24-0.8-2.22-0.8L558.56,6.83z M559.13,15.83c0,0.71-0.18,1.06-0.55,1.06c-0.21,0-0.36-0.08-0.45-0.24
				s-0.14-0.43-0.14-0.81V9.96c0-0.61,0.2-0.91,0.6-0.91c0.36,0,0.54,0.3,0.54,0.89L559.13,15.83L559.13,15.83z"/>
			<path d="M565.89,15.68c0,0.2,0,0.4-0.03,0.58s-0.07,0.34-0.15,0.46c-0.08,0.12-0.22,0.17-0.4,0.17s-0.32-0.06-0.4-0.18
				s-0.14-0.27-0.16-0.46c-0.02-0.18-0.03-0.38-0.03-0.58V6.94h-2.34v8.84c0,1.1,0.24,1.93,0.71,2.49s1.22,0.85,2.22,0.85
				s1.75-0.28,2.22-0.85s0.71-1.39,0.71-2.49V6.94h-2.34v8.74H565.89z"/>
			<path d="M574.76,11.9c0.17-0.39,0.25-0.92,0.25-1.58s-0.05-1.27-0.16-1.78s-0.32-0.9-0.63-1.18c-0.31-0.28-0.78-0.42-1.4-0.42
				h-3.7v12.07h2.44v-5.5c0.32,0,0.55,0.04,0.7,0.13c0.14,0.08,0.22,0.3,0.22,0.65v4.72h2.38v-4.57c0-0.48-0.08-0.86-0.23-1.16
				c-0.15-0.3-0.42-0.49-0.8-0.57c0.46-0.15,0.78-0.42,0.94-0.82L574.76,11.9z M572.15,11.41h-0.58V9.17h0.56
				c0.2,0,0.34,0.07,0.41,0.22c0.07,0.15,0.11,0.46,0.11,0.93C572.65,11.05,572.48,11.41,572.15,11.41L572.15,11.41z"/>
			<path d="M582.39,15.98c0,0.27-0.04,0.49-0.13,0.66c-0.08,0.17-0.23,0.25-0.44,0.25c-0.18,0-0.32-0.07-0.42-0.21
				s-0.15-0.37-0.15-0.71V9.93c0-0.27,0.04-0.49,0.12-0.65s0.23-0.24,0.45-0.24c0.19,0,0.33,0.06,0.42,0.19s0.14,0.37,0.14,0.73
				v1.78h2.4V9.66c0-0.64-0.13-1.16-0.38-1.58c-0.26-0.42-0.61-0.73-1.05-0.94c-0.45-0.21-0.95-0.32-1.53-0.32
				c-1.05,0-1.8,0.31-2.27,0.93c-0.46,0.62-0.7,1.52-0.7,2.69v5.57c0,0.98,0.27,1.74,0.8,2.28s1.24,0.82,2.11,0.82
				c0.96,0,1.71-0.24,2.24-0.72c0.54-0.48,0.8-1.25,0.8-2.31V13.8h-2.43v2.17L582.39,15.98z"/>
			<path d="M588.44,6.83c-0.97,0-1.71,0.27-2.22,0.8c-0.5,0.53-0.76,1.32-0.76,2.35v5.73c0,1.1,0.25,1.94,0.76,2.53
				c0.51,0.58,1.25,0.87,2.21,0.87s1.7-0.29,2.21-0.87s0.76-1.42,0.76-2.53V9.98c0-1.03-0.25-1.82-0.76-2.35
				c-0.5-0.54-1.24-0.8-2.22-0.8L588.44,6.83z M589.01,15.83c0,0.71-0.18,1.06-0.55,1.06c-0.21,0-0.36-0.08-0.45-0.24
				s-0.14-0.43-0.14-0.81V9.96c0-0.61,0.2-0.91,0.6-0.91c0.36,0,0.54,0.3,0.54,0.89L589.01,15.83L589.01,15.83z"/>
			<path d="M595.77,15.68c0,0.2,0,0.4-0.03,0.58s-0.07,0.34-0.15,0.46c-0.08,0.12-0.22,0.17-0.4,0.17s-0.32-0.06-0.4-0.18
				s-0.14-0.27-0.16-0.46c-0.02-0.18-0.03-0.38-0.03-0.58V6.94h-2.34v8.84c0,1.1,0.24,1.93,0.71,2.49s1.22,0.85,2.22,0.85
				s1.75-0.28,2.22-0.85s0.71-1.39,0.71-2.49V6.94h-2.34v8.74H595.77z"/>
			<polygon points="602.63,12.72 601.52,6.94 599.04,6.94 599.04,19.01 601.39,19.01 601.39,12.97 602.6,19.01 604.96,19.01 
				604.96,6.94 602.63,6.94 			"/>
			<polygon points="605.56,9.26 606.99,9.26 606.99,19.01 609.41,19.01 609.41,9.26 610.84,9.26 610.84,6.94 605.56,6.94 			"/>
			<path d="M617.16,11.9c0.17-0.39,0.25-0.92,0.25-1.58s-0.05-1.27-0.16-1.78s-0.32-0.9-0.63-1.18c-0.31-0.28-0.78-0.42-1.4-0.42
				h-3.7v12.07h2.44v-5.5c0.32,0,0.55,0.04,0.7,0.13c0.14,0.08,0.22,0.3,0.22,0.65v4.72h2.38v-4.57c0-0.48-0.08-0.86-0.23-1.16
				c-0.15-0.3-0.42-0.49-0.8-0.57c0.46-0.15,0.78-0.42,0.94-0.82L617.16,11.9z M614.55,11.41h-0.58V9.17h0.56
				c0.2,0,0.34,0.07,0.41,0.22c0.07,0.15,0.11,0.46,0.11,0.93C615.05,11.05,614.88,11.41,614.55,11.41L614.55,11.41z"/>
			<polygon points="620.8,11.03 620.13,6.94 617.74,6.94 619.66,15.04 619.66,19.01 621.94,19.01 621.94,15.04 623.86,6.94 
				621.47,6.94 			"/>
			<path d="M630.34,8.55c-0.2-0.56-0.53-0.99-1-1.28s-1.11-0.44-1.92-0.44c-0.93,0-1.69,0.22-2.27,0.67s-0.88,1.13-0.88,2.05v1.74
				h2.51v-1c0-0.21,0.01-0.41,0.04-0.61s0.08-0.35,0.17-0.48c0.09-0.13,0.24-0.19,0.43-0.19c0.27,0,0.45,0.11,0.52,0.34
				s0.11,0.48,0.11,0.78c0,0.65-0.06,1.17-0.19,1.56s-0.32,0.68-0.58,0.87s-0.6,0.32-1.01,0.38c-0.41,0.06-0.9,0.09-1.47,0.09v2.85
				h2.28v-1.17c0.8,0,1.46-0.18,1.99-0.53s0.92-0.85,1.18-1.47s0.39-1.33,0.39-2.12s-0.1-1.49-0.3-2.05V8.55z"/>
			<rect x="624.73" y="16.96" width="2.45" height="2.04"/>
		</g>
		<rect y="0" class="st0" width="700.39" height="35.27"/>
	</g>
</g>
</svg>
