<?xml version="1.0" encoding="utf-8"?>
<!-- Generator: Adobe Illustrator 25.4.1, SVG Export Plug-In . SVG Version: 6.00 Build 0)  -->
<svg version="1.1" id="Capa_2_00000130605882095998187490000013456132167831003055_"
	 xmlns="http://www.w3.org/2000/svg" xmlns:xlink="http://www.w3.org/1999/xlink" x="0px" y="0px" width="700.39px"
	 height="54.65px" viewBox="0 0 700.39 54.65" style="enable-background:new 0 0 700.39 54.65;" xml:space="preserve">
<g id="Capa_1-2">
	<g>
		<polygon points="0,54.18 12.18,54.18 12.18,30.61 21.99,30.61 21.99,18.87 12.18,18.87 12.18,12.33 22.52,12.33 22.52,0.47 
			0,0.47 		"/>
		<path d="M47.11,26.12c1.2-0.76,2.08-1.79,2.63-3.09c0.76-1.79,1.15-4.19,1.15-7.13s-0.24-5.62-0.71-7.84
			c-0.5-2.35-1.51-4.21-3-5.55c-1.51-1.35-3.74-2.03-6.6-2.03H23.77v53.7h12.24V30.5c0.94,0.07,1.43,0.25,1.7,0.4
			c0.24,0.14,0.5,0.76,0.5,2.08v21.21h11.98V33.66c0-2.18-0.37-3.99-1.08-5.4c-0.46-0.91-1.13-1.62-1.99-2.12L47.11,26.12z
			 M36.07,11.83h1.56c0.67,0,0.88,0.24,1,0.47c0.14,0.29,0.38,1.13,0.38,3.6c0,1.43-0.17,3.83-1.29,3.83h-1.65
			C36.07,19.73,36.07,11.83,36.07,11.83z"/>
		<path d="M55.76,0.47l-5.19,53.7h11.85l0.65-8.39h4.67l0.74,8.39h11.58l-5.1-53.7H55.76z M66.8,35.76h-2.85l1.33-17.72l1.53,17.72
			H66.8z"/>
		<polygon points="96.46,17.16 93.25,0.47 80.98,0.47 80.98,54.18 92.87,54.18 92.87,36.05 96.5,54.18 108.23,54.18 108.23,0.47 
			96.46,0.47 		"/>
		<path d="M125.38,40.29c0,1.02-0.15,1.84-0.46,2.45c-0.15,0.3-0.4,0.62-1.1,0.62c-0.51,0-0.85-0.16-1.11-0.52
			c-0.18-0.25-0.47-0.91-0.47-2.54V14.27c0-1.03,0.14-1.84,0.42-2.42c0.08-0.17,0.27-0.56,1.17-0.56c0.72,0,0.99,0.26,1.13,0.46
			c0.13,0.18,0.43,0.79,0.43,2.64v8.54h12.06v-9.84c0-2.88-0.6-5.33-1.78-7.26c-1.19-1.94-2.84-3.42-4.9-4.39
			C128.74,0.48,126.41,0,123.83,0c-4.77,0-8.29,1.47-10.45,4.36c-2.1,2.82-3.17,6.89-3.17,12.09v23.98c0,4.43,1.24,7.94,3.69,10.44
			c2.45,2.5,5.71,3.77,9.7,3.77c4.33,0,7.78-1.11,10.23-3.31c2.48-2.22,3.74-5.78,3.74-10.58v-10.7h-12.18v10.23L125.38,40.29z"/>
		<polygon points="154.04,19.05 150.87,19.05 150.87,0.47 138.8,0.47 138.8,54.18 150.87,54.18 150.87,30.61 154.04,30.61 
			154.04,54.18 166.1,54.18 166.1,0.47 154.04,0.47 		"/>
		<rect x="168.08" y="0.47" width="11.77" height="53.7"/>
		<path d="M204.94,27.04c-1.02-1.29-2.17-2.54-3.39-3.71l-6-5.76c-1.08-1.02-1.8-1.92-2.14-2.66c-0.34-0.73-0.51-1.4-0.51-2
			c0-0.53,0.12-0.93,0.38-1.24c0.21-0.25,0.6-0.38,1.15-0.38c0.46,0,0.8,0.11,1.04,0.34c0.23,0.23,0.35,0.57,0.35,1.04v4.44h12.3
			v-0.86c0-5.35-1.07-9.43-3.18-12.11C202.78,1.39,199.14,0,194.12,0c-4.14,0-7.36,1.27-9.58,3.78c-2.19,2.48-3.3,6.08-3.3,10.7
			s1.85,8.47,5.5,11.91l4.67,4.43c1.34,1.27,2.4,2.38,3.15,3.32c0.7,0.88,1.2,1.82,1.49,2.78c0.29,0.99,0.44,2.26,0.44,3.76
			c0,1.42-0.25,2.01-0.4,2.24c-0.07,0.11-0.29,0.44-1.24,0.44c-0.74,0-0.99-0.28-1.14-0.56c-0.29-0.55-0.44-1.36-0.44-2.41v-7.36
			h-12.01v5.94c0,5.35,1.13,9.34,3.36,11.85c2.26,2.54,5.93,3.83,10.91,3.83s8.17-1.53,10.13-4.54c1.89-2.89,2.84-6.91,2.84-11.94
			c0-2.51-0.33-4.68-0.97-6.45c-0.64-1.76-1.5-3.33-2.56-4.67L204.94,27.04z"/>
		<rect x="209.03" y="0.47" width="11.77" height="53.7"/>
		<polygon points="238.4,17.16 235.2,0.47 222.93,0.47 222.93,54.18 234.82,54.18 234.82,36.05 238.44,54.18 250.17,54.18 
			250.17,0.47 238.4,0.47 		"/>
		<path d="M274.35,2.29c-2.02-1.52-4.9-2.29-8.58-2.29c-9.04,0-13.62,5.19-13.62,15.42v22.41c0,11.16,4.04,16.81,12,16.81
			c3.6,0,6.41-1.3,8.38-3.86l1.37,3.39h5.61v-32h-14.43v10.71h2.78v6.55c0,1.32-0.16,2.37-0.48,3.14c-0.16,0.39-0.45,0.78-1.4,0.78
			c-0.9,0-1.18-0.39-1.34-0.78c-0.32-0.76-0.48-1.8-0.48-3.08V14.3c0-0.83,0.17-1.6,0.49-2.29c0.09-0.2,0.34-0.72,1.6-0.72
			c0.76,0,0.98,0.29,1.1,0.6c0.26,0.65,0.4,1.49,0.4,2.5v5.47h11.89V19c0-3.93-0.37-7.33-1.09-10.08c-0.76-2.88-2.16-5.11-4.18-6.63
			H274.35z"/>
		<path d="M317.56,27.04c-1.02-1.29-2.17-2.54-3.39-3.71l-6-5.76c-1.08-1.02-1.8-1.92-2.14-2.66c-0.34-0.73-0.51-1.4-0.51-2
			c0-0.53,0.12-0.93,0.38-1.24c0.21-0.25,0.6-0.38,1.15-0.38c0.46,0,0.8,0.11,1.04,0.34c0.23,0.23,0.35,0.57,0.35,1.04v4.44h12.3
			v-0.86c0-5.35-1.07-9.43-3.18-12.11C315.4,1.39,311.76,0,306.74,0c-4.14,0-7.36,1.27-9.58,3.78c-2.19,2.48-3.3,6.08-3.3,10.7
			s1.85,8.47,5.5,11.91l4.67,4.43c1.34,1.27,2.4,2.38,3.15,3.32c0.7,0.88,1.2,1.82,1.49,2.78c0.29,0.99,0.44,2.26,0.44,3.76
			c0,1.42-0.25,2.01-0.4,2.24c-0.07,0.11-0.29,0.44-1.24,0.44c-0.74,0-0.99-0.28-1.14-0.56c-0.29-0.55-0.44-1.36-0.44-2.41v-7.36
			h-12.01v5.94c0,5.35,1.13,9.34,3.36,11.85c2.26,2.54,5.93,3.83,10.91,3.83s8.17-1.53,10.13-4.54c1.89-2.89,2.84-6.91,2.84-11.94
			c0-2.51-0.33-4.68-0.97-6.45c-0.64-1.76-1.5-3.33-2.56-4.67L317.56,27.04z"/>
		<path d="M336.92,38.99c0,0.83-0.04,1.65-0.13,2.42c-0.07,0.66-0.25,1.18-0.51,1.56c-0.12,0.17-0.35,0.39-1.04,0.39
			s-0.88-0.23-1-0.39c-0.27-0.39-0.45-0.92-0.53-1.58c-0.09-0.76-0.14-1.56-0.14-2.39V0.47h-11.83V39.4c0,4.91,1.1,8.71,3.27,11.29
			c2.21,2.62,5.65,3.96,10.23,3.96s8.02-1.33,10.23-3.96c2.17-2.58,3.27-6.38,3.27-11.29V0.47h-11.83v38.52H336.92z"/>
		<path d="M373.31,24.37c1.02-0.61,1.84-1.46,2.46-2.52c0.95-1.64,1.43-3.79,1.43-6.37v-2.27c0-4.44-0.95-7.7-2.82-9.7
			c-1.88-2.01-4.87-3.03-8.88-3.03h-14.95v53.7h14.95c3.25,0,5.81-0.77,7.62-2.3c1.79-1.51,3.03-3.64,3.71-6.33s0.97-5.62,0.97-9.04
			c0-3.22-0.42-6-1.25-8.25c-0.64-1.74-1.72-3.03-3.23-3.88L373.31,24.37z M362.43,29.9h1.06c1.17,0,1.55,0.47,1.73,0.82
			c0.38,0.73,0.57,1.77,0.57,3.1v6.5c0,2.09-0.95,2.98-3.18,2.98c-0.05,0-0.11,0-0.17,0V29.91L362.43,29.9z M365.1,17.11
			c0,0.94-0.12,1.74-0.36,2.39c-0.07,0.2-0.21,0.56-1.05,0.56h-1.26v-9.82h1.32c0.68,0,1.35,0.13,1.35,1.65v5.23L365.1,17.11z"/>
		<polygon points="400.03,26.68 396.41,0.47 378.97,0.47 378.97,54.18 390.09,54.18 390.09,26.18 394.81,54.18 405.61,54.18 
			409.98,26.78 409.98,54.18 421.21,54.18 421.21,0.47 403.62,0.47 		"/>
		<rect x="422.89" y="0.47" width="11.77" height="53.7"/>
		<path d="M486.96,27.04c-1.02-1.29-2.17-2.54-3.39-3.71l-6-5.76c-1.08-1.02-1.8-1.92-2.14-2.66c-0.34-0.73-0.51-1.4-0.51-2
			c0-0.53,0.12-0.93,0.38-1.24c0.21-0.25,0.6-0.38,1.15-0.38c0.46,0,0.8,0.11,1.04,0.34c0.23,0.23,0.35,0.57,0.35,1.04v4.44h12.3
			v-0.86c0-5.35-1.07-9.43-3.18-12.11C484.8,1.39,481.16,0,476.14,0c-4.14,0-7.36,1.27-9.58,3.78c-2.19,2.48-3.3,6.08-3.3,10.7
			s1.85,8.47,5.5,11.91l4.67,4.43c1.34,1.27,2.4,2.38,3.15,3.32c0.7,0.88,1.2,1.82,1.49,2.78c0.29,0.99,0.44,2.26,0.44,3.76
			c0,1.42-0.25,2.01-0.4,2.24c-0.07,0.11-0.29,0.44-1.24,0.44c-0.74,0-0.99-0.28-1.14-0.56c-0.29-0.55-0.44-1.36-0.44-2.41v-7.36
			h-12.01v4.33c-0.06-2.16-0.37-4.06-0.94-5.63c-0.64-1.76-1.5-3.33-2.56-4.67c-1.02-1.29-2.17-2.54-3.39-3.71l-6-5.76
			c-1.08-1.02-1.8-1.92-2.14-2.66c-0.34-0.73-0.51-1.4-0.51-2c0-0.53,0.12-0.93,0.38-1.24c0.21-0.25,0.6-0.38,1.15-0.38
			c0.46,0,0.8,0.11,1.04,0.34c0.23,0.23,0.35,0.57,0.35,1.04v4.44h12.3v-0.86c0-5.35-1.07-9.43-3.18-12.11
			c-2.16-2.75-5.8-4.14-10.82-4.14c-4.14,0-7.36,1.27-9.58,3.78c-2.19,2.48-3.3,6.08-3.3,10.7s1.85,8.47,5.5,11.91l4.67,4.43
			c1.34,1.27,2.4,2.38,3.15,3.32c0.7,0.88,1.2,1.82,1.49,2.78c0.29,0.99,0.44,2.26,0.44,3.76c0,1.42-0.25,2.01-0.4,2.24
			c-0.07,0.11-0.29,0.44-1.24,0.44c-0.74,0-0.99-0.28-1.14-0.56c-0.29-0.55-0.44-1.36-0.44-2.41v-7.36H436.1v5.94
			c0,5.35,1.13,9.34,3.36,11.85c2.26,2.54,5.93,3.83,10.91,3.83s8.17-1.53,10.13-4.54c1.76-2.71,2.7-6.41,2.82-10.99
			c0.02,5.27,1.15,9.21,3.36,11.7c2.26,2.54,5.93,3.83,10.91,3.83s8.17-1.53,10.13-4.54c1.89-2.89,2.84-6.91,2.84-11.94
			c0-2.51-0.33-4.68-0.97-6.45c-0.64-1.76-1.5-3.33-2.56-4.67L486.96,27.04z"/>
		<rect x="491.17" y="0.47" width="11.77" height="53.7"/>
		<path d="M518.34,0c-4.42,0-7.85,1.25-10.18,3.73c-2.32,2.46-3.5,6.07-3.5,10.72v24.69c0,4.94,1.18,8.79,3.51,11.45
			c2.36,2.7,5.78,4.06,10.17,4.06s7.82-1.37,10.17-4.06c2.33-2.66,3.51-6.51,3.51-11.45V14.45c0-4.66-1.18-8.26-3.5-10.72
			C526.19,1.26,522.76,0,518.34,0z M518.43,43.35c-0.76,0-1.04-0.33-1.2-0.61c-0.22-0.39-0.48-1.23-0.48-3.05V14.36
			c0-3.06,1.21-3.06,1.73-3.06c0.39,0,1.44,0,1.44,2.97v25.37c0,2.46-0.5,3.71-1.5,3.71H518.43z"/>
		<polygon points="549.45,17.16 546.25,0.47 533.98,0.47 533.98,54.18 545.86,54.18 545.86,36.05 549.49,54.18 561.22,54.18 
			561.22,0.47 549.45,0.47 		"/>
		<polygon points="577.16,54.18 589.34,54.18 589.34,30.61 599.15,30.61 599.15,18.87 589.34,18.87 589.34,12.33 599.68,12.33 
			599.68,0.47 577.16,0.47 		"/>
		<path d="M614.2,0c-4.42,0-7.85,1.25-10.18,3.73c-2.32,2.46-3.5,6.07-3.5,10.72v24.69c0,4.94,1.18,8.79,3.51,11.45
			c2.36,2.7,5.78,4.06,10.17,4.06s7.82-1.37,10.17-4.06c2.33-2.66,3.51-6.51,3.51-11.45V14.45c0-4.66-1.18-8.26-3.5-10.72
			C622.05,1.26,618.62,0,614.2,0z M614.29,43.35c-0.76,0-1.04-0.33-1.2-0.61c-0.22-0.39-0.48-1.23-0.48-3.05V14.36
			c0-3.06,1.21-3.06,1.73-3.06c0.39,0,1.44,0,1.44,2.97v25.37c0,2.46-0.5,3.71-1.5,3.71H614.29z"/>
		<path d="M655.82,23.03c0.76-1.79,1.15-4.19,1.15-7.13s-0.24-5.62-0.71-7.84c-0.5-2.35-1.51-4.21-3-5.55
			c-1.51-1.35-3.74-2.03-6.6-2.03h-16.81v53.7h12.24V30.5c0.94,0.07,1.43,0.25,1.7,0.4c0.24,0.14,0.5,0.76,0.5,2.08v21.21h11.98
			V33.66c0-2.18-0.37-3.99-1.08-5.4c-0.46-0.91-1.13-1.62-1.99-2.12c1.2-0.76,2.08-1.79,2.63-3.09L655.82,23.03z M642.14,11.83h1.56
			c0.67,0,0.88,0.24,1,0.47c0.14,0.29,0.38,1.13,0.38,3.6c0,1.43-0.17,3.83-1.29,3.83h-1.65C642.14,19.73,642.14,11.83,642.14,11.83
			z"/>
		<polygon points="682.79,0.47 679.2,26.68 675.59,0.47 658.14,0.47 658.14,54.18 669.26,54.18 669.26,26.18 673.99,54.18 
			684.79,54.18 689.15,26.78 689.15,54.18 700.39,54.18 700.39,0.47 		"/>
	</g>
</g>
</svg>
