<svg xmlns="http://www.w3.org/2000/svg" width="1260.21" height="499.85" viewBox="0 0 1260.21 499.85">
  <g>
    <g>
      <path d="M3.1,246.05V4.44H52.8L75,120.16V4.44h46.67V246.05H74.49L50.33,125.24V246.05Z"/>
      <path d="M124,248.29H72.65L52.57,147.89v100.4H.86V2.2H54.65L72.79,96.61V2.2H124Zm-47.62-4.48h43.14V6.68H77.28V120.16l-4.45.43L50.94,6.68H5.35V243.81H48.08V125.24l4.45-.44Z"/>
      <path d="M140.58,246.05V4.44h96.65V51.11h-47.5V98.2h45.58v45.44H189.73V199h50.66v47.09Z"/>
      <path d="M242.63,248.29H138.34V2.2H239.47V53.36H192V96h45.58v49.92H192v50.84h50.66Zm-99.8-4.48h95.31v-42.6H187.49V141.4h45.57v-41H187.49V48.87H235V6.68H142.83Z"/>
      <path d="M273.11,246.05,247.17,4.44h47.22L307.71,157,321.3,4.44h45L379.23,157,392.13,4.44h47.78L413.55,246.05H355.62L343.54,129.77,332,246.05Z"/>
      <path d="M415.56,248.29h-62l-10-96.31L334,248.29H271.1L244.67,2.2h51.78l11.28,129.23L319.25,2.2h49.14l10.84,128.15L390.07,2.2h52.34Zm-57.92-4.48h53.9L437.41,6.68H394.19L381.46,157.14H377L364.26,6.68H323.35L309.94,157.15h-4.47L292.34,6.68H249.66l25.47,237.13H330l13.51-136.24Z"/>
      <path d="M565.19,248.25q-51.77,0-51.76-74.13V69.92q0-67.68,59.31-67.68,24.42,0,37.47,9.82t18,28.62q4.93,18.81,4.94,45.85H585.91V65.12A35.42,35.42,0,0,0,583.79,52q-2.13-5.3-8.86-5.29-8.37,0-11,5.63A28.45,28.45,0,0,0,561.2,64.7V181.8q0,9.75,2.54,15.86c1.7,4.07,5,6.11,10,6.11q7.68,0,10.22-6.11t2.54-16.13V147.07h-12.9V105.34h59V246.05H613.23L605,225.73Q592.36,248.25,565.19,248.25Z"/>
      <path d="M565.19,250.49c-35.83,0-54-25.7-54-76.37V69.92C511.19,23.52,531.9,0,572.74,0c16.7,0,29.77,3.45,38.82,10.27S627,27.13,630.36,40.11c3.33,12.67,5,28.28,5,46.42v2.24H583.67V65.12a33.4,33.4,0,0,0-2-12.28C581,51.18,579.6,49,574.93,49s-7.63,1.43-9,4.35a26.23,26.23,0,0,0-2.46,11.39V181.8c0,6.18.79,11.22,2.36,15,1.34,3.22,3.85,4.72,7.89,4.72,4.22,0,6.81-1.5,8.15-4.72,1.57-3.78,2.37-8.92,2.37-15.27V149.31h-12.9V103.1h63.51V248.29H611.72l-7.14-17.61C595.71,243.83,582.48,250.49,565.19,250.49Zm7.55-246c-38.4,0-57.07,21.4-57.07,65.43v104.2c0,48.37,16.2,71.88,49.52,71.88,17.4,0,29.78-7,37.85-21.37l2.28-4.06,9.42,23.24h15.61V107.58H575.8v37.25h12.91v36.7c0,6.94-.92,12.66-2.72,17-1.42,3.42-4.7,7.49-12.29,7.49-5.83,0-10-2.59-12-7.49-1.8-4.32-2.71-10-2.71-16.72V64.7a30.62,30.62,0,0,1,2.9-13.31c2.18-4.59,6.58-6.91,13.07-6.91,6.81,0,9.71,3.64,10.94,6.69a37.64,37.64,0,0,1,2.29,14V84.29h42.73c-.14-16.8-1.77-31.27-4.86-43-3.15-12-8.93-21.2-17.17-27.4S588.45,4.49,572.74,4.49Z"/>
      <path d="M649.18,246.05V4.44H697.5V204.87h49.7v41.18Z"/>
      <path d="M749.44,248.29H646.94V2.2h52.8V202.62h49.7Zm-98-4.48H745v-36.7H695.26V6.68H651.42Z"/>
      <path d="M816.77,248.25q-29,0-44.28-17.51t-15.3-50.58V65.39q0-31,15.17-47.09T816.77,2.24q29.24,0,44.41,16.06t15.16,47.09V180.16q0,33.08-15.3,50.58T816.77,248.25Zm.41-44.48q11,0,11-21.28V64.57q0-17.85-10.71-17.85-12.08,0-12.08,18.26V182.76q0,11.27,2.75,16.13T817.18,203.77Z"/>
      <path d="M816.77,250.49c-19.9,0-35.36-6.15-46-18.27s-15.87-29.55-15.87-52.06V65.39c0-21.18,5.31-37.54,15.79-48.63S796.72,0,816.77,0s35.53,5.64,46,16.76,15.78,27.45,15.78,48.63V180.16c0,22.51-5.34,40-15.86,52.06S836.66,250.49,816.77,250.49Zm0-246C798,4.49,783.61,9.65,774,19.84S759.43,45.4,759.43,65.39V180.16c0,21.39,5,37.91,14.75,49.11s24,16.73,42.59,16.73,32.87-5.63,42.58-16.73,14.75-27.72,14.75-49.11V65.39c0-20-4.9-35.32-14.56-45.55S835.53,4.49,816.77,4.49ZM817.18,206c-5,0-8.8-2.08-11-6-2-3.62-3-9.25-3-17.23V65c0-17,7.79-20.5,14.32-20.5,5.91,0,12.95,3.48,12.95,20.09V182.49C830.4,198.1,826,206,817.18,206Zm.27-157c-4.22,0-9.84,1.66-9.84,16V182.76c0,7.09.83,12.14,2.46,15,1.43,2.55,3.69,3.73,7.11,3.73,5.8,0,8.74-6.4,8.74-19V64.57C825.92,49,819.55,49,817.45,49Z"/>
      <path d="M893.21,246.05V4.44h65.48q26.37,0,38.37,12.83t12,42.35V70.2q0,17-6.11,27.59t-18.61,13.86q16.35,4.13,21.9,19.29t5.56,37q0,23.48-4.39,41T991.5,236.3q-11.52,9.75-32.81,9.75Zm47.23-150.6h9.88q6.72,0,8.65-5.21a36.24,36.24,0,0,0,1.92-12.49V53.45q0-11.67-10.3-11.67H940.44Zm4.8,108q18.81,0,18.81-17.84v-30.2q0-10.3-3.09-16.27t-11.6-6h-8.92v70Q943.46,203.49,945.24,203.49Z"/>
      <path d="M958.69,248.29H891V2.2h67.72c18.14,0,31.6,4.55,40,13.54s12.62,23.71,12.62,43.88V70.2c0,11.69-2.16,21.35-6.41,28.71a30.61,30.61,0,0,1-13.77,12.68,31.14,31.14,0,0,1,17.23,18.58c3.78,10.31,5.69,23,5.69,37.77,0,15.76-1.5,29.75-4.46,41.59-3,12.13-8.63,21.71-16.65,28.49S973.36,248.29,958.69,248.29Zm-63.24-4.48h63.24c13.58,0,24.13-3.1,31.37-9.22s12.39-15,15.19-26.15c2.87-11.48,4.33-25.11,4.33-40.5,0-14.22-1.83-26.41-5.42-36.23-3.47-9.46-10.13-15.31-20.34-17.88l-8.43-2.13,8.4-2.21c7.8-2.06,13.44-6.26,17.23-12.82s5.81-15.58,5.81-26.47V59.62c0-19-3.84-32.72-11.4-40.81S975.54,6.68,958.69,6.68H895.45Zm49.79-38.07c-1.27,0-3-.1-5-.29l-2-.19V131h11.17c6.55,0,11.12,2.42,13.59,7.19,2.22,4.28,3.34,10.1,3.34,17.3v30.2C966.29,198.79,959,205.74,945.24,205.74Zm-2.56-4.59c1,.07,1.86.1,2.56.1,11.3,0,16.57-5,16.57-15.6v-30.2c0-6.47-1-11.6-2.84-15.24-1.66-3.2-4.8-4.76-9.61-4.76h-6.68ZM950.32,97.7H938.19V39.54h12.4c8.09,0,12.54,4.94,12.54,13.91v24.3A38.48,38.48,0,0,1,961.07,91C960,94.06,957.17,97.7,950.32,97.7Zm-7.64-4.49h7.64c4.63,0,5.95-2.14,6.54-3.75a34,34,0,0,0,1.79-11.71V53.45c0-8.36-4.31-9.43-8.06-9.43h-7.91Z"/>
      <path d="M1018.48,246.05,1041.82,4.44h82l22.93,241.61H1101l-3.43-39h-29.1l-3,39Zm53.4-77.56h22L1083.28,45.62h-2.2Z"/>
      <path d="M1149.16,248.29h-50.23l-3.43-39h-25l-3,39H1016L1039.78,2.2h86ZM1103,243.81h41.19L1121.73,6.68h-77.88L1021,243.81h42.4l3-39h33.24Zm-6.75-73.08h-26.83L1079,43.38h6.33Zm-22-4.49h17.1l-9.14-106.3Z"/>
      <path d="M1158.9,246.05V4.44h48.32V204.87h49.69v41.18Z"/>
      <path d="M1259.15,248.29h-102.5V2.2h52.81V202.62h49.69Zm-98-4.48h93.53v-36.7H1205V6.68h-43.84Z"/>
    </g>
    <g>
      <path d="M27.19,495.6,2.39,264.66H47.53L60.25,410.44l13-145.78h43l12.34,145.78L141,264.66h45.67L161.42,495.6H106.05L94.5,384.46l-11,111.14Z"/>
      <path d="M163.35,497.75H104.12l-9.57-92.07-9.13,92.07H25.26L0,262.52H49.49L60.28,386.05l11-123.53h47L128.62,385,139,262.52h50ZM108,493.46H159.5L184.23,266.8H142.92L130.75,410.62h-4.27L114.31,266.8H75.21L62.39,410.63H58.12L45.56,266.8H4.77L29.11,493.46H81.54L94.45,363.24Z"/>
      <path d="M190.63,495.6l22.3-230.94h78.34L313.18,495.6H269.49l-3.28-37.26H238.39L235.5,495.6Zm51-74.14h21L252.56,304h-2.1Z"/>
      <path d="M315.54,497.75h-48l-3.28-37.27H240.37l-2.88,37.27H188.27L211,262.52h82.23Zm-44.09-4.29h39.38L289.32,266.8H214.88L193,493.46h40.53l2.89-37.27h31.76ZM265,423.61H239.36l9.11-121.73h6.06Zm-21-4.29h16.35l-8.74-101.61Z"/>
      <path d="M344.93,495.6V309H317.5V264.66h101V309H391.12V495.6Z"/>
      <path d="M393.26,497.75H342.78V311.15H315.36V262.52H420.68v48.63H393.26Zm-46.19-4.29H389V306.87H416.4V266.8H319.65v40.07h27.42Z"/>
      <path d="M429.65,495.6V264.66H522v44.61H476.62v45h43.57v43.43H476.62V450.6H525v45Z"/>
      <path d="M527.19,497.75H427.5V262.52h96.67v48.9h-45.4v40.72h43.56v47.72H478.77v48.59h48.42Zm-95.4-4.29H522.9V452.74H474.48V395.57h43.57V356.42H474.48V307.13h45.4V266.8H431.79Z"/>
      <path d="M538.49,495.6V264.66h70.86q17.7,0,26.76,8.07t12.14,22.57a165.15,165.15,0,0,1,3.08,34.05q0,18.9-4.78,30.18t-18,15.61q10.89,2.24,15.29,10.83t4.4,22.24V495.6H602.65V405.19q0-10.1-4.13-12.53t-13.32-2.43V495.6Zm47-145.39h11.16q9.57,0,9.58-20.86,0-13.52-2.1-17.71t-7.88-4.2H585.46Z"/>
      <path d="M650.33,497.75H600.51V405.19c0-5.8-1.06-9.5-3.08-10.68s-5.48-1.93-10.09-2.1V497.75h-51V262.52h73c12.29,0,21.78,2.89,28.19,8.61s10.66,13.64,12.81,23.72a168.93,168.93,0,0,1,3.13,34.5c0,12.82-1.67,23.26-5,31a28.46,28.46,0,0,1-13.73,14.49A21.54,21.54,0,0,1,645.7,385c3.07,6,4.63,13.83,4.63,23.22Zm-45.53-4.29H646V408.21c0-8.71-1.4-15.86-4.16-21.26-2.64-5.17-7.16-8.34-13.81-9.71l-7.92-1.62,7.69-2.51c8.29-2.71,13.76-7.43,16.73-14.42,3.07-7.22,4.62-17.09,4.62-29.34a163.86,163.86,0,0,0-3-33.61c-1.95-9.16-5.8-16.37-11.46-21.41s-14.13-7.53-25.34-7.53H540.63V493.46h42.43V388.09h2.14c6.57,0,11.28.89,14.4,2.72,3.5,2.06,5.2,6.76,5.2,14.38Zm-8.18-141.1h-13.3V305.29h12.9c5.87,0,8.56,2.93,9.79,5.39,1.57,3.13,2.33,9.24,2.33,18.67C608.34,344.62,604.4,352.36,596.62,352.36Zm-9-4.29h9c4.93,0,7.43-6.3,7.43-18.72,0-10.75-1-15.05-1.87-16.76-.65-1.29-2-3-6-3h-8.61Z"/>
      <path d="M719.1,497.7q-31.62,0-45.59-15.74t-14-50.13V409.26h45.66v28.87q0,8,2.43,12.53t8.47,4.53q6.3,0,8.72-3.68t2.43-12.07a64.12,64.12,0,0,0-2.1-17.78A39.92,39.92,0,0,0,717.86,408a153.32,153.32,0,0,0-14.37-15.15l-20.73-19.68q-23.24-21.92-23.23-50.13,0-29.52,13.71-45t39.7-15.48q31.75,0,45.07,16.93t13.32,51.43h-47V315.05a9.81,9.81,0,0,0-2.69-7.35,10,10,0,0,0-7.28-2.63q-5.5,0-8.07,3.09a12,12,0,0,0-2.56,7.94,25,25,0,0,0,2.63,10.49q2.63,5.66,10.36,13l26.64,25.59a155.4,155.4,0,0,1,14.7,16.08,70,70,0,0,1,10.76,19.68q4.06,11.22,4.06,27.36,0,32.54-12,51T719.1,497.7Z"/>
      <path d="M719.1,499.85c-21.62,0-37.5-5.54-47.2-16.47s-14.51-28.2-14.51-51.55V407.12h50v31c0,4.95.73,8.83,2.17,11.52,1.24,2.31,3.33,3.39,6.58,3.39,3.46,0,5.73-.88,6.93-2.71,1.38-2.08,2.08-5.74,2.08-10.89a62.24,62.24,0,0,0-2-17.18,37.76,37.76,0,0,0-6.9-12.91A152.29,152.29,0,0,0,702,394.42l-20.74-19.69c-15.85-15-23.89-32.34-23.89-51.68,0-20.13,4.79-35.75,14.25-46.43s23.42-16.2,41.3-16.2c21.76,0,37.49,6,46.75,17.74,9.15,11.62,13.78,29.37,13.78,52.76v2.15H722.21v-18a7.71,7.71,0,0,0-2.05-5.82,7.88,7.88,0,0,0-5.78-2c-3,0-5.13.75-6.42,2.31a9.85,9.85,0,0,0-2.06,6.57,23,23,0,0,0,2.42,9.59c1.63,3.5,5,7.65,9.9,12.34l26.64,25.6a156.19,156.19,0,0,1,14.9,16.29,72.19,72.19,0,0,1,11.09,20.28c2.79,7.68,4.2,17.13,4.2,28.09,0,22-4.16,39.56-12.36,52.15C754.31,493.32,739.64,499.85,719.1,499.85ZM661.67,411.4v20.43c0,22.27,4.52,38.66,13.44,48.7s23.65,15,44,15c19,0,32.46-5.88,40-17.46,7.74-11.88,11.66-28.64,11.66-49.81,0-10.46-1.32-19.42-3.94-26.63a67.82,67.82,0,0,0-10.43-19.08,151.81,151.81,0,0,0-14.49-15.85l-26.64-25.6c-5.4-5.12-9-9.58-10.83-13.63a27.31,27.31,0,0,1-2.82-11.4,14.17,14.17,0,0,1,3-9.31c2.13-2.56,5.4-3.86,9.72-3.86a12.1,12.1,0,0,1,8.78,3.23,12,12,0,0,1,3.34,8.89v13.73h42.67c-.27-21.34-4.59-37.47-12.84-48-8.42-10.69-23-16.11-43.39-16.11-16.6,0-29.42,5-38.09,14.76S661.67,304,661.67,323.05c0,18.11,7.59,34.45,22.56,48.57L705,391.3a155.06,155.06,0,0,1,14.56,15.38,42.16,42.16,0,0,1,7.67,14.38,66.58,66.58,0,0,1,2.18,18.38c0,6.09-.91,10.42-2.78,13.26-2,3.07-5.57,4.63-10.51,4.63-6.05,0-9-3.08-10.36-5.66-1.8-3.36-2.68-7.79-2.68-13.54V411.4Z"/>
      <path d="M786,495.6V264.66h61q19.15,0,30.38,8.53t16.07,24.27q4.86,15.75,4.86,37.53,0,21-4.07,36.55t-14.5,24.07q-10.44,8.53-29.59,8.53H831.4V495.6ZM831.4,362.68H834q12.86,0,15.75-7.22t2.88-21.26q0-13.11-2.82-20.27t-13.32-7.15H831.4Z"/>
      <path d="M833.54,497.75H783.85V262.52H847c13.19,0,23.85,3,31.67,9s13.47,14.47,16.83,25.35c3.28,10.66,5,23.5,5,38.16,0,14.11-1.39,26.59-4.14,37.09-2.82,10.77-7.94,19.24-15.22,25.19s-17.72,9-30.94,9H833.54Zm-45.4-4.29h41.11V402h20.91c12.21,0,21.7-2.71,28.23-8s11.2-13.09,13.79-23c2.65-10.14,4-22.26,4-36,0-14.23-1.6-26.65-4.76-36.9-3.08-10-8.24-17.81-15.32-23.2S859.24,266.8,847,266.8H788.14ZM834,364.82h-4.77V304.64h7.26c7.93,0,13.09,2.86,15.31,8.5,2,5,3,12.09,3,21.06,0,9.73-1,16.94-3,22.06C849.48,361.94,843.52,364.82,834,364.82Zm-.48-4.28H834c7.57,0,12.2-2,13.75-5.87,1.82-4.54,2.74-11.42,2.74-20.47,0-8.43-.9-15-2.67-19.48-1.54-3.9-5.25-5.8-11.33-5.8h-3Z"/>
      <path d="M965.8,497.7q-27.69,0-42.32-16.73t-14.63-48.35V322.92q0-29.66,14.5-45t42.45-15.35q27.94,0,42.45,15.35t14.5,45v109.7q0,31.62-14.64,48.35T965.8,497.7Zm.39-42.51q10.5,0,10.5-20.34V322.13q0-17.06-10.24-17.06-11.55,0-11.54,17.46V435.11q0,10.77,2.62,15.42T966.19,455.19Z"/>
      <path d="M965.8,499.85c-19,0-33.8-5.88-43.93-17.47s-15.17-28.24-15.17-49.76V322.92c0-20.24,5.08-35.88,15.09-46.48s24.85-16,44-16,34,5.39,44,16,15.09,26.24,15.09,46.48v109.7c0,21.52-5.1,38.26-15.16,49.76S984.81,499.85,965.8,499.85Zm0-235.15c-17.94,0-31.7,4.94-40.89,14.68S911,303.81,911,322.92v109.7c0,20.45,4.75,36.24,14.1,46.94s23,16,40.71,16,31.42-5.38,40.7-16,14.1-26.49,14.1-46.94V322.92c0-19.11-4.68-33.76-13.91-43.54S983.73,264.7,965.8,264.7Zm.39,192.63c-4.77,0-8.41-2-10.53-5.75-1.95-3.46-2.9-8.85-2.9-16.47V322.53c0-16.2,7.45-19.6,13.69-19.6,5.65,0,12.38,3.33,12.38,19.2V434.85C978.83,449.77,974.58,457.33,966.19,457.33Zm.26-150.11c-4,0-9.4,1.58-9.4,15.31V435.11c0,6.77.79,11.6,2.35,14.37,1.37,2.43,3.53,3.56,6.79,3.56,5.54,0,8.35-6.12,8.35-18.19V322.13C974.54,307.22,968.45,307.22,966.45,307.22Z"/>
      <path d="M1038.87,495.6V264.66h70.86q17.71,0,26.77,8.07t12.13,22.57a165.09,165.09,0,0,1,3.09,34.05q0,18.9-4.79,30.18t-18,15.61q10.89,2.24,15.28,10.83t4.4,22.24V495.6H1103V405.19q0-10.1-4.14-12.53t-13.32-2.43V495.6Zm47-145.39H1097q9.57,0,9.58-20.86,0-13.52-2.1-17.71t-7.87-4.2h-10.76Z"/>
      <path d="M1150.71,497.75h-49.82V405.19c0-5.8-1.06-9.5-3.07-10.68s-5.49-1.93-10.09-2.1V497.75h-51V262.52h73c12.29,0,21.78,2.89,28.19,8.61s10.67,13.64,12.81,23.72a168.22,168.22,0,0,1,3.13,34.5c0,12.83-1.67,23.26-5,31a28.44,28.44,0,0,1-13.72,14.49,21.52,21.52,0,0,1,10.9,10.13c3.07,6,4.63,13.83,4.63,23.22Zm-45.53-4.29h41.25V408.21c0-8.71-1.4-15.86-4.16-21.26-2.65-5.17-7.17-8.34-13.81-9.71l-7.93-1.62,7.69-2.51c8.29-2.71,13.77-7.43,16.74-14.42,3.06-7.22,4.61-17.09,4.61-29.34a164.62,164.62,0,0,0-3-33.61c-2-9.16-5.81-16.37-11.47-21.41s-14.13-7.53-25.34-7.53H1041V493.46h42.43V388.09h2.14c6.58,0,11.29.89,14.41,2.72,3.49,2.06,5.19,6.76,5.19,14.38ZM1097,352.36h-13.3V305.29h12.91c5.86,0,8.56,2.93,9.79,5.39,1.56,3.13,2.32,9.24,2.32,18.67C1108.72,344.62,1104.78,352.36,1097,352.36Zm-9-4.29h9c4.93,0,7.44-6.3,7.44-18.72,0-10.75-1-15.05-1.88-16.76-.65-1.29-2-3-6-3H1088Z"/>
      <path d="M1184.45,495.6V309H1157V264.66h101V309h-27.43V495.6Z"/>
      <path d="M1232.79,497.75h-50.48V311.15h-27.42V262.52h105.32v48.63h-27.42Zm-46.19-4.29h41.9V306.87h27.42V266.8h-96.75v40.07h27.43Z"/>
    </g>
  </g>
</svg>
