<svg xmlns="http://www.w3.org/2000/svg" width="1261.6" height="58.64" viewBox="0 0 1261.6 58.64">
  <g>
    <path d="M0,1.07H22.13V11.29H13.27V21h8.29v9.71H13.27V41.9H23V52.11H0Z"/>
    <path d="M53.74,1.07,49.07,23.64l7,28.47H43.8a168,168,0,0,1-4-18.6q-.5,4.86-1.4,10.28l-1.25,8.32H24.2L29,23.64,24.2,1.07H37q.34,2.11,1.38,7,.84,3.75,1.36,6.91L42.61,1.07Z"/>
    <path d="M58,1.07H71.41a31.78,31.78,0,0,1,8.34.85,9.38,9.38,0,0,1,4.38,2.46,8.42,8.42,0,0,1,2,3.9,34.55,34.55,0,0,1,.52,7.07V19.8c0,3.26-.33,5.63-1,7.12a6.86,6.86,0,0,1-3.7,3.44,17.48,17.48,0,0,1-7,1.2H71.31V52.11H58ZM71.31,9.8v13l1,0a3.11,3.11,0,0,0,2.54-.89c.47-.6.71-1.85.71-3.74V14c0-1.75-.28-2.88-.82-3.41S73,9.8,71.31,9.8Z"/>
    <path d="M103.72,1.07V41.9h8.07V52.11H90.45v-51Z"/>
    <path d="M144.43,31q0,7.7-.36,10.89a12.17,12.17,0,0,1-7.43,9.91,18.64,18.64,0,0,1-7.56,1.42,19,19,0,0,1-7.36-1.34A12.29,12.29,0,0,1,114.1,42a108.23,108.23,0,0,1-.38-11V22.23c0-5.13.13-8.76.37-10.9a12.22,12.22,0,0,1,7.42-9.91A18.73,18.73,0,0,1,129.08,0a19.31,19.31,0,0,1,7.36,1.34,12.26,12.26,0,0,1,7.61,9.85,108.33,108.33,0,0,1,.38,11ZM131.16,14.19a15.47,15.47,0,0,0-.4-4.56,1.56,1.56,0,0,0-1.62-1,1.83,1.83,0,0,0-1.59.8c-.37.54-.55,2.12-.55,4.75V38a23.54,23.54,0,0,0,.36,5.48,1.57,1.57,0,0,0,1.69,1,1.62,1.62,0,0,0,1.73-1.19,25.37,25.37,0,0,0,.38-5.71Z"/>
    <path d="M149.38,1.07h9.39q9.4,0,12.72.73a8.74,8.74,0,0,1,5.43,3.7Q179,8.49,179,15q0,6-1.48,8t-5.83,2.46c2.63.65,4.39,1.53,5.3,2.62a7.84,7.84,0,0,1,1.68,3,47.64,47.64,0,0,1,.33,7.55V52.11H166.69v-17c0-2.73-.22-4.42-.65-5.07s-1.56-1-3.39-1v23H149.38ZM162.65,9.8V21.15a5.87,5.87,0,0,0,3.14-.61q.9-.62.9-4v-2.8c0-1.62-.29-2.68-.87-3.19A5,5,0,0,0,162.65,9.8Z"/>
    <path d="M184.28,1.07h22.13V11.29h-8.86V21h8.29v9.71h-8.29V41.9h9.74V52.11h-23Z"/>
    <path d="M218.14,42.12v4.57a17.15,17.15,0,0,1-.85,5.89,8.63,8.63,0,0,1-2.95,3.91,11.38,11.38,0,0,1-4.74,2.15V55a3.87,3.87,0,0,0,2.14-2.87H209.6v-10Z"/>
    <path d="M260.07,1.07V11.29h-7.88V52.11H238.91V11.29h-7.85V1.07Z"/>
    <path d="M263.09,1.07h9.4q9.39,0,12.72.73a8.72,8.72,0,0,1,5.42,3.7q2.1,3,2.1,9.51c0,4-.5,6.64-1.48,8s-2.93,2.19-5.83,2.46c2.62.65,4.39,1.53,5.29,2.62a7.88,7.88,0,0,1,1.69,3,47.64,47.64,0,0,1,.33,7.55V52.11H280.4v-17c0-2.73-.21-4.42-.64-5.07s-1.56-1-3.39-1v23H263.09ZM276.37,9.8V21.15a5.83,5.83,0,0,0,3.13-.61q.9-.62.9-4v-2.8c0-1.62-.29-2.68-.86-3.19A5,5,0,0,0,276.37,9.8Z"/>
    <path d="M320.81,1.07l7.59,51H314.84l-.72-9.17h-4.74l-.8,9.17H294.86l6.77-51Zm-7,32.82q-1-8.67-2-21.44-2,14.67-2.54,21.44Z"/>
    <path d="M343.93,1.07v51H330.65v-51Z"/>
    <path d="M378.89,1.07v51H367.25l-6.9-23.2v23.2h-11.1v-51h11.1l7.44,23v-23Z"/>
    <path d="M426,31q0,7.7-.36,10.89a12.17,12.17,0,0,1-7.43,9.91,18.68,18.68,0,0,1-7.56,1.42,19.13,19.13,0,0,1-7.37-1.34A12.31,12.31,0,0,1,395.66,42a108.23,108.23,0,0,1-.38-11V22.23a108.2,108.2,0,0,1,.37-10.9,12.22,12.22,0,0,1,7.42-9.91A18.69,18.69,0,0,1,410.64,0,19.31,19.31,0,0,1,418,1.34a12.26,12.26,0,0,1,7.61,9.85,108.33,108.33,0,0,1,.38,11ZM412.72,14.19a15.84,15.84,0,0,0-.4-4.56,1.56,1.56,0,0,0-1.62-1,1.8,1.8,0,0,0-1.59.8c-.37.54-.56,2.12-.56,4.75V38a23.3,23.3,0,0,0,.37,5.48,1.57,1.57,0,0,0,1.68,1,1.63,1.63,0,0,0,1.74-1.19,25.37,25.37,0,0,0,.38-5.71Z"/>
    <path d="M430.94,1.07h9.39c6.27,0,10.5.24,12.72.73a8.74,8.74,0,0,1,5.43,3.7q2.08,3,2.09,9.51,0,6-1.48,8t-5.83,2.46c2.62.65,4.39,1.53,5.29,2.62a7.74,7.74,0,0,1,1.69,3,47.64,47.64,0,0,1,.33,7.55V52.11H448.25v-17c0-2.73-.22-4.42-.65-5.07s-1.56-1-3.39-1v23H430.94ZM444.21,9.8V21.15a5.87,5.87,0,0,0,3.14-.61q.9-.62.9-4v-2.8c0-1.62-.29-2.68-.87-3.19A5,5,0,0,0,444.21,9.8Z"/>
    <path d="M477.22,1.07h9.39q9.4,0,12.73.73a8.74,8.74,0,0,1,5.42,3.7c1.4,2,2.09,5.16,2.09,9.51q0,6-1.48,8t-5.83,2.46c2.63.65,4.39,1.53,5.3,2.62a7.84,7.84,0,0,1,1.68,3,47.64,47.64,0,0,1,.33,7.55V52.11H494.53v-17c0-2.73-.22-4.42-.65-5.07s-1.56-1-3.39-1v23H477.22ZM490.49,9.8V21.15a5.87,5.87,0,0,0,3.14-.61q.9-.62.9-4v-2.8c0-1.62-.29-2.68-.87-3.19A5,5,0,0,0,490.49,9.8Z"/>
    <path d="M534.94,1.07l7.59,51H529l-.71-9.17H523.5l-.8,9.17H509l6.77-51Zm-7,32.82q-1-8.67-2-21.44-2,14.67-2.55,21.44Z"/>
    <path d="M575.77,23.3H562.5V14.43a16,16,0,0,0-.43-4.83,1.83,1.83,0,0,0-1.88-1,2,2,0,0,0-2.08,1.16,18,18,0,0,0-.44,5V38.56a16.69,16.69,0,0,0,.44,4.85,1.89,1.89,0,0,0,2,1.13A1.86,1.86,0,0,0,562,43.41a18.71,18.71,0,0,0,.46-5.34V31.65h13.27v2q0,7.92-1.12,11.24a11.51,11.51,0,0,1-4.95,5.81,17,17,0,0,1-9.44,2.49,19.55,19.55,0,0,1-9.62-2.11,10.28,10.28,0,0,1-5-5.85Q544.4,41.49,544.4,34V19.07a66.67,66.67,0,0,1,.38-8.27A11.54,11.54,0,0,1,547,5.49a12.49,12.49,0,0,1,5.2-4,21.26,21.26,0,0,1,17.33.8,10.87,10.87,0,0,1,5,5.65q1.2,3.38,1.2,10.53Z"/>
    <path d="M580.53,1.07h22.13V11.29H593.8V21h8.29v9.71H593.8V41.9h9.74V52.11h-23Z"/>
    <path d="M632,1.07v51H618.74v-51Z"/>
    <path d="M667,1.07v51H655.34l-6.9-23.2v23.2h-11.1v-51h11.1l7.44,23v-23Z"/>
    <path d="M711.8,16.52H699.48V12.74A7.36,7.36,0,0,0,699,9.36a1.73,1.73,0,0,0-1.57-.72,2,2,0,0,0-1.82,1,5.66,5.66,0,0,0-.61,3,8.4,8.4,0,0,0,.69,3.85q.66,1.29,3.75,3.12,8.87,5.26,11.16,8.63t2.3,10.88q0,5.46-1.27,8a10,10,0,0,1-4.94,4.33,19.42,19.42,0,0,1-8.51,1.75,19.07,19.07,0,0,1-9.09-2A10,10,0,0,1,684.15,46,26.59,26.59,0,0,1,683,37.17V33.83h12.32V40a8.3,8.3,0,0,0,.52,3.69,2,2,0,0,0,1.85.81,2.15,2.15,0,0,0,2-1,5.92,5.92,0,0,0,.64-3.08c0-3-.4-5-1.23-5.9a39.2,39.2,0,0,0-6.21-4.63,63.44,63.44,0,0,1-6.55-4.76,11.31,11.31,0,0,1-2.67-4.1,18.19,18.19,0,0,1-1-6.69c0-3.91.5-6.76,1.49-8.57a10.11,10.11,0,0,1,4.84-4.24A19.3,19.3,0,0,1,697,0a21.13,21.13,0,0,1,8.82,1.67,9.29,9.29,0,0,1,4.82,4.21c.79,1.69,1.18,4.57,1.18,8.62Z"/>
    <path d="M740,1.07l7.59,51H734l-.72-9.17h-4.74l-.8,9.17H714.06l6.77-51Zm-7,32.82q-1-8.67-2-21.44-2,14.67-2.54,21.44Z"/>
    <path d="M763.12,1.07V41.9h8.08V52.11H749.85v-51Z"/>
    <path d="M796.56,1.07V11.29h-7.88V52.11H775.41V11.29h-7.85V1.07Z"/>
    <path d="M834.23,1.07l7.59,51H828.26l-.71-9.17H822.8l-.8,9.17H808.28l6.77-51Zm-7,32.82q-1-8.67-2-21.44-2,14.67-2.55,21.44Z"/>
    <path d="M873.71,1.07v51H862.08l-6.91-23.2v23.2H844.08v-51h11.09l7.44,23v-23Z"/>
    <path d="M879,1.07H889q9.62,0,13,.88a10,10,0,0,1,5.16,2.9,9.24,9.24,0,0,1,2.2,4.5,66.54,66.54,0,0,1,.45,9.72V37q0,6.87-.65,9.19a6.91,6.91,0,0,1-2.25,3.62,9.5,9.5,0,0,1-4,1.83,35.58,35.58,0,0,1-7.12.52H879ZM892.31,9.8V43.38c1.91,0,3.09-.38,3.53-1.15s.66-2.85.66-6.26V16.14a26.25,26.25,0,0,0-.22-4.44,2.08,2.08,0,0,0-1-1.44A6.57,6.57,0,0,0,892.31,9.8Z"/>
    <path d="M926.11,1.07h22.47V11.29h-9.2V21h8.19v9.71h-8.19V52.11H926.11Z"/>
    <path d="M951.8,1.07h9.39q9.4,0,12.72.73a8.74,8.74,0,0,1,5.43,3.7q2.08,3,2.09,9.51,0,6-1.48,8t-5.83,2.46c2.63.65,4.39,1.53,5.3,2.62a7.84,7.84,0,0,1,1.68,3,47.64,47.64,0,0,1,.33,7.55V52.11H969.11v-17c0-2.73-.22-4.42-.65-5.07s-1.56-1-3.39-1v23H951.8ZM965.07,9.8V21.15a5.87,5.87,0,0,0,3.14-.61q.9-.62.9-4v-2.8c0-1.62-.29-2.68-.87-3.19A5,5,0,0,0,965.07,9.8Z"/>
    <path d="M986.57,1.07h22.13V11.29h-8.86V21h8.3v9.71h-8.3V41.9h9.75V52.11h-23Z"/>
    <path d="M1041.52,16.52h-12.33V12.74a7.41,7.41,0,0,0-.47-3.38,1.73,1.73,0,0,0-1.57-.72,2,2,0,0,0-1.82,1,5.66,5.66,0,0,0-.61,3,8.4,8.4,0,0,0,.69,3.85q.66,1.29,3.75,3.12,8.86,5.26,11.16,8.63t2.3,10.88q0,5.46-1.27,8a10,10,0,0,1-4.94,4.33,19.42,19.42,0,0,1-8.51,1.75,19.07,19.07,0,0,1-9.09-2,10,10,0,0,1-4.94-5.14,26.59,26.59,0,0,1-1.16-8.86V33.83H1025V40a8.3,8.3,0,0,0,.52,3.69,2,2,0,0,0,1.85.81,2.15,2.15,0,0,0,2-1,5.92,5.92,0,0,0,.64-3.08c0-3-.41-5-1.23-5.9a39.2,39.2,0,0,0-6.21-4.63,62.29,62.29,0,0,1-6.55-4.76,11.31,11.31,0,0,1-2.67-4.1,18.19,18.19,0,0,1-1.05-6.69c0-3.91.5-6.76,1.49-8.57a10.11,10.11,0,0,1,4.84-4.24A19.3,19.3,0,0,1,1026.7,0a21.13,21.13,0,0,1,8.82,1.67,9.29,9.29,0,0,1,4.82,4.21c.79,1.69,1.18,4.57,1.18,8.62Z"/>
    <path d="M1077.3,1.07v51H1064V30.67h-4V52.11h-13.27v-51h13.27V19.33h4V1.07Z"/>
    <path d="M1144.17,1.07l-5.91,51h-16.57q-2.26-11.76-4-26.76-.79,6.42-3.71,26.76H1097.5l-5.94-51h12.89l1.4,17.81,1.36,17.22q.74-13.37,3.67-35h13.78q.27,2.23,1.45,16.84l1.46,19.42q1.14-18.54,3.71-36.26Z"/>
    <path d="M1169.15,1.07l7.59,51h-13.56l-.72-9.17h-4.74l-.8,9.17H1143.2l6.77-51Zm-7,32.82q-1-8.67-2-21.44-2,14.67-2.55,21.44Z"/>
    <path d="M1202.11,1.07V11.29h-7.88V52.11H1181V11.29h-7.85V1.07Z"/>
    <path d="M1205.14,1.07h22.13V11.29h-8.86V21h8.29v9.71h-8.29V41.9h9.74V52.11h-23Z"/>
    <path d="M1232,1.07h9.39q9.39,0,12.72.73a8.69,8.69,0,0,1,5.42,3.7q2.1,3,2.1,9.51,0,6-1.48,8t-5.83,2.46c2.62.65,4.39,1.53,5.29,2.62a7.74,7.74,0,0,1,1.69,3,47.64,47.64,0,0,1,.33,7.55V52.11h-12.33v-17c0-2.73-.21-4.42-.64-5.07s-1.56-1-3.39-1v23H1232Zm13.27,8.73V21.15a5.87,5.87,0,0,0,3.14-.61c.6-.41.89-1.74.89-4v-2.8c0-1.62-.29-2.68-.86-3.19A5,5,0,0,0,1245.24,9.8Z"/>
  </g>
</svg>
