<?xml version="1.0" encoding="utf-8"?>
<!-- Generator: Adobe Illustrator 27.1.1, SVG Export Plug-In . SVG Version: 6.00 Build 0)  -->
<svg version="1.1" id="Capa_1" xmlns="http://www.w3.org/2000/svg" xmlns:xlink="http://www.w3.org/1999/xlink" x="0px" y="0px"
	 viewBox="0 0 210.8 144.9" style="enable-background:new 0 0 210.8 144.9;" xml:space="preserve">
<g>
	<g>
		<g>
			<path d="M76.9,2.8l-4.6,39.5H59.6c-1.2-6.1-2.2-13-3.1-20.7c-0.4,3.3-1.4,10.2-2.9,20.7H40.8L36.2,2.8h10l1.1,13.8l1,13.3
				C48.7,23,49.6,14,51.1,2.8h10.7C62,4,62.4,8.3,63,15.9l1.1,15c0.6-9.6,1.5-18.9,2.9-28L76.9,2.8z"/>
			<path d="M96.2,2.8l5.9,39.5H91.6L91,35.2h-3.7l-0.6,7.1H76.1l5.2-39.5L96.2,2.8z M90.8,28.2c-0.5-4.5-1-10-1.6-16.6
				c-1.1,7.6-1.7,13.1-2,16.6H90.8z"/>
			<path d="M121.7,2.8v7.9h-6.1v31.6h-10.3V10.7h-6.1V2.8H121.7z"/>
			<path d="M124.1,2.8h17.1v7.9h-6.9v7.5h6.4v7.6h-6.4v8.7h7.5v7.9h-17.8V2.8z"/>
			<path d="M144.8,2.8h7.3c3.3-0.1,6.6,0.1,9.8,0.6c1.7,0.4,3.2,1.4,4.2,2.9c1.1,1.5,1.6,4,1.6,7.4c0,3.1-0.4,5.1-1.1,6.2
				c-0.8,1.1-2.3,1.7-4.5,1.9c1.5,0.3,3,1,4.1,2c0.6,0.7,1,1.5,1.3,2.3c0.2,1.9,0.3,3.9,0.3,5.8v10.4h-9.5V29.2
				c0-2.1-0.2-3.4-0.5-3.9s-1.2-0.8-2.6-0.8v17.8h-10.3V2.8z M155.1,9.6v8.8c0.8,0.1,1.7-0.1,2.4-0.5c0.5-0.3,0.7-1.3,0.7-3.1v-2.2
				c0.1-0.9-0.1-1.8-0.7-2.5C156.8,9.7,156,9.5,155.1,9.6z"/>
		</g>
		<path d="M50.3,47.3c3.1-0.1,6.2,0.6,9,2c2.2,1.2,4,3.1,5,5.5c1.1,3.1,1.6,6.4,1.4,9.6V70H48.9v9.2c-0.1,1.3,0.1,2.5,0.4,3.7
			c0.3,0.6,1,0.9,1.6,0.8c0.8,0.1,1.6-0.4,2-1.1c0.4-1.4,0.6-2.8,0.5-4.3v-5.6h12.2v3.1c0.1,2-0.1,4.1-0.5,6.1
			c-0.4,1.7-1.2,3.2-2.3,4.5c-1.2,1.6-2.8,2.8-4.6,3.6c-2.2,0.9-4.6,1.3-7,1.2c-2.5,0-4.9-0.4-7.2-1.2c-1.9-0.7-3.6-1.8-4.9-3.3
			c-1.1-1.3-1.9-2.8-2.4-4.5c-0.5-2.4-0.7-4.8-0.7-7.2V62.7c-0.1-3,0.4-6,1.5-8.8c1-2.2,2.7-3.9,4.9-4.9
			C44.8,47.8,47.5,47.2,50.3,47.3 M48.9,63.2h3.8V60c0.1-1.4,0-2.9-0.4-4.3c-0.2-0.6-0.8-1.1-1.4-1c-0.9,0-1.4,0.3-1.7,0.8
			c-0.3,1.4-0.4,2.9-0.3,4.4L48.9,63.2 M50.3,46.3c-2.9,0-5.7,0.6-8.3,1.8c-2.4,1.1-4.3,3-5.4,5.4c-1.2,2.9-1.7,6.1-1.6,9.2v12.3
			c-0.1,2.5,0.2,5,0.7,7.5c1,4,4,7.2,7.9,8.5c2.4,0.9,5,1.3,7.6,1.3c2.5,0.1,5.1-0.4,7.4-1.3c2-0.8,3.7-2.2,5.1-3.9
			c1.2-1.4,2-3.1,2.5-4.9c0.4-2.1,0.5-4.2,0.5-6.3v-4.2H52.4v6.6c0.1,1.3,0,2.6-0.4,3.8c-0.1,0.2-0.2,0.5-1,0.5
			c-0.6,0-0.6-0.2-0.7-0.3S50,81.7,50,79.2v-8.2h16.7v-6.6c0.1-3.4-0.4-6.8-1.5-10c-1.1-2.5-3-4.6-5.4-6
			C56.8,46.9,53.6,46.2,50.3,46.3L50.3,46.3z M49.9,62.2V60c-0.1-1.4,0-2.7,0.3-4c0-0.1,0.3-0.2,0.7-0.2s0.4,0.1,0.5,0.3
			c0.3,1.3,0.4,2.6,0.3,3.9v2.2H49.9z"/>
		<g>
			<path d="M69.9,47.3h11.6c2.8-0.1,5.6,0.2,8.3,0.9c1.9,0.6,3.5,1.8,4.6,3.5c1.2,1.7,1.7,4.5,1.7,8.4c0,2.6-0.4,4.4-1.2,5.5
				c-0.8,1-2.4,1.8-4.9,2.4c2.7,0.6,4.5,1.6,5.5,3c1,1.4,1.4,3.6,1.4,6.5v4.2c0.1,2.3-0.2,4.6-1,6.7c-0.6,1.4-1.8,2.5-3.3,3
				c-1.5,0.5-4.6,0.8-9.3,0.8H69.9V47.3z M81.6,54.9v10h1.2c1.1,0,1.9-0.3,2.2-0.8c0.3-0.6,0.5-2.2,0.5-4.8c0.1-1-0.1-2-0.4-2.9
				c-0.2-0.5-0.5-0.9-1-1.1C83.2,55,82.4,54.9,81.6,54.9z M81.6,71.9v12.5c1.6,0,2.7-0.3,3.1-0.8c0.5-0.5,0.7-1.6,0.7-3.4v-4.2
				c0-1.9-0.2-3.1-0.6-3.5C84.4,72.2,83.3,71.9,81.6,71.9z"/>
			<path d="M112.8,47.3v44.8h-11.6V47.3H112.8z"/>
			<path d="M145.3,47.3l-6.7,20.2l7.3,24.6h-12l-4.7-19.2v19.2h-11.6V47.3h11.6v17.4l5.2-17.4H145.3z"/>
			<path d="M147.9,47.3h19.4v9h-7.7v8.5h7.3v8.5h-7.3v9.9h8.5v9h-20.2L147.9,47.3z"/>
		</g>
		<g>
			<path d="M48.8,105.8h-5.8v-3.9c0-0.7,0-1.4-0.2-2.1c-0.2-0.3-0.5-0.5-0.8-0.4c-0.4-0.1-0.8,0.2-0.9,0.5c-0.2,0.7-0.2,1.5-0.2,2.2
				v10.4c0,0.7,0,1.4,0.2,2.1c0.1,0.3,0.5,0.5,0.9,0.5c0.4,0,0.7-0.2,0.9-0.5c0.2-0.8,0.2-1.6,0.2-2.4v-2.8h5.8v0.9
				c0.1,1.7-0.1,3.3-0.5,5c-0.4,1.1-1.2,2-2.2,2.6c-1.2,0.8-2.7,1.2-4.2,1.1c-1.5,0.1-2.9-0.3-4.2-0.9c-1-0.5-1.8-1.5-2.2-2.6
				c-0.4-1.6-0.6-3.3-0.5-5v-6.6c0-1.2,0-2.4,0.2-3.6c0.1-0.9,0.5-1.7,1-2.3c0.6-0.8,1.4-1.4,2.3-1.8c1.1-0.5,2.2-0.7,3.4-0.6
				c1.5-0.1,3,0.3,4.3,1c1,0.5,1.8,1.4,2.2,2.5c0.4,1.5,0.6,3.1,0.5,4.6L48.8,105.8z"/>
			<path d="M64.3,96v22.5h-5.8V109h-1.7v9.4h-5.8V96h5.8v8.1h1.7V96H64.3z"/>
			<path d="M76.7,96l3.3,22.5h-6l-0.3-4h-2.1l-0.4,4h-6.1l3-22.5H76.7z M73.7,110.5c-0.3-2.5-0.6-5.7-0.9-9.4
				c-0.6,4.3-1,7.5-1.1,9.4H73.7z"/>
			<path d="M99.1,96v22.5H94v-15.2l-2,15.2h-3.6l-2.1-14.8v14.8h-5.1V96h7.6c0.2,1.4,0.5,2.9,0.7,4.8l0.8,5.7L91.5,96L99.1,96z"/>
			<path d="M101.5,96h5.9c1.2,0,2.5,0.1,3.7,0.4c0.7,0.2,1.4,0.6,1.9,1.1c0.4,0.5,0.7,1.1,0.9,1.7c0.2,1,0.3,2.1,0.2,3.1v1.9
				c0.1,1.1-0.1,2.1-0.4,3.1c-0.3,0.7-0.9,1.2-1.6,1.5c-1,0.4-2,0.6-3.1,0.5h-1.6v9.1h-5.8V96z M107.3,99.9v5.7h0.4
				c0.4,0,0.8-0.1,1.1-0.4c0.3-0.5,0.4-1.1,0.3-1.6v-1.8c0.1-0.5-0.1-1.1-0.4-1.5C108.4,99.9,107.9,99.8,107.3,99.9z"/>
			<path d="M121.6,96v22.5h-5.8V96H121.6z"/>
			<path d="M137.4,109.2c0,2.3-0.1,3.9-0.2,4.8c-0.1,0.9-0.5,1.8-1,2.6c-0.6,0.8-1.4,1.4-2.3,1.8c-1.1,0.4-2.2,0.6-3.3,0.6
				c-1.1,0-2.2-0.2-3.2-0.6c-1.8-0.7-3.1-2.4-3.4-4.3c-0.1-1.6-0.2-3.2-0.2-4.9v-3.8c0-1.6,0-3.2,0.2-4.8c0.1-0.9,0.5-1.8,1-2.6
				c0.6-0.8,1.4-1.4,2.3-1.8c1.1-0.4,2.2-0.6,3.3-0.6c1.1,0,2.2,0.2,3.2,0.6c1.8,0.7,3.1,2.4,3.4,4.3c0.1,1.6,0.2,3.2,0.2,4.9V109.2
				z M131.5,101.8c0-0.7,0-1.4-0.2-2c-0.1-0.3-0.4-0.5-0.7-0.4c-0.3,0-0.5,0.1-0.7,0.4c-0.2,0.7-0.3,1.4-0.2,2.1v10.5
				c0,0.8,0,1.6,0.2,2.4c0.1,0.3,0.4,0.5,0.7,0.5c0.3,0,0.7-0.2,0.8-0.5c0.2-0.8,0.2-1.7,0.2-2.5L131.5,101.8z"/>
			<path d="M152.5,96v22.5h-5.1l-3-10.2v10.2h-4.9V96h4.9l3.3,10.1V96H152.5z"/>
			<path d="M167.3,102.8h-5.4v-1.7c0-0.5,0-1-0.2-1.5c-0.2-0.2-0.4-0.3-0.7-0.3c-0.3,0-0.6,0.1-0.8,0.4c-0.2,0.4-0.3,0.9-0.3,1.3
				c0,0.6,0.1,1.2,0.3,1.7c0.4,0.6,1,1.1,1.7,1.4c2.6,1.5,4.2,2.8,4.9,3.8c0.8,1.5,1.1,3.1,1,4.8c0.1,1.2-0.1,2.4-0.6,3.5
				c-0.5,0.9-1.3,1.5-2.2,1.9c-1.2,0.5-2.5,0.8-3.7,0.8c-1.4,0-2.8-0.3-4-0.9c-1-0.5-1.8-1.3-2.2-2.3c-0.4-1.3-0.6-2.6-0.5-3.9v-1.5
				h5.4v2.7c0,0.6,0,1.1,0.2,1.6c0.2,0.3,0.5,0.4,0.8,0.4c0.4,0,0.7-0.2,0.9-0.5c0.2-0.4,0.3-0.9,0.3-1.4c0.1-0.9-0.1-1.8-0.5-2.6
				c-0.8-0.8-1.8-1.4-2.7-2c-1-0.6-1.9-1.3-2.8-2.1c-0.5-0.5-0.9-1.1-1.2-1.8c-0.3-0.9-0.5-1.9-0.5-2.9c-0.1-1.3,0.1-2.6,0.7-3.8
				c0.5-0.8,1.2-1.5,2.1-1.9c1.1-0.5,2.3-0.7,3.6-0.7c1.3,0,2.7,0.2,3.9,0.7c0.9,0.3,1.7,1,2.1,1.9c0.4,1.2,0.6,2.5,0.5,3.8V102.8z"
				/>
		</g>
		<g>
			<path d="M170.3,6v-4h1.7c0.3,0,0.6,0,0.9,0.1c0.2,0.1,0.4,0.2,0.5,0.4c0.1,0.2,0.2,0.4,0.2,0.6c0,0.3-0.1,0.5-0.3,0.7
				c-0.2,0.2-0.5,0.3-0.8,0.4c0.2,0.1,0.3,0.2,0.4,0.3c0.2,0.2,0.3,0.4,0.5,0.7l0.5,0.8h-1l-0.6-0.9c-0.2-0.3-0.4-0.5-0.4-0.6
				c-0.1-0.1-0.2-0.1-0.2-0.2c-0.1,0-0.3,0-0.4,0h-0.2V6H170.3z M171.1,3.7h0.6c0.2,0,0.5,0,0.7,0c0.1,0,0.2-0.1,0.2-0.2
				c0.1-0.1,0.1-0.2,0.1-0.3c0-0.1,0-0.2-0.1-0.3c-0.1-0.1-0.2-0.1-0.3-0.2c-0.2,0-0.4,0-0.6,0h-0.6L171.1,3.7z"/>
			<path d="M172,0c-2.2,0-3.9,1.8-3.9,3.9s1.8,3.9,3.9,3.9c2.2,0,3.9-1.8,3.9-3.9l0,0C175.9,1.8,174.1,0,172,0z M172,7.2
				c-1.8,0-3.3-1.5-3.3-3.3c0-1.8,1.5-3.3,3.3-3.3c1.8,0,3.3,1.5,3.3,3.3C175.3,5.7,173.8,7.2,172,7.2C172,7.2,172,7.2,172,7.2z"/>
		</g>
	</g>
</g>
<g>
	<g>
		<g>
			<path d="M17.4,128.1l-0.2,2.2c-1.2-0.1-2-0.1-3.7-0.1c-1.9,0-2.5,1-2.5,4.3s0.6,4.3,2.5,4.3c1.8,0,2.8,0,4-0.2l0.2,2.2
				c-1.2,0.4-2.3,0.5-4.2,0.5c-4.1,0-5.5-1.8-5.5-6.8c0-5,1.5-6.8,5.5-6.8C15.3,127.6,16.2,127.7,17.4,128.1z"/>
			<path d="M25.4,141.1c-0.6,1.8-2.1,4.1-5.2,3.7l-0.2-1.7c1.5-0.4,2.3-1,2.8-2.1l0-0.1h-0.5c-0.4,0-0.8-0.3-0.9-0.7l-3.1-8.7h3
				l1.8,6.1c0.1,0.5,0.2,0.9,0.3,1.4h0.2c0.2-0.5,0.3-1,0.4-1.4l1.7-6.1h3L25.4,141.1z"/>
			<path d="M37.9,131.9l-0.3,1.8c-1,0-2,0-2.7,0c-1.7,0-2.3,0.6-2.3,2.6c0,2.1,0.6,2.6,2.3,2.6c0.6,0,1.8,0,2.9-0.2l0.2,1.8
				c-1,0.4-2.4,0.6-3.6,0.6c-3.4,0-4.7-1.3-4.7-4.9c0-3.6,1.3-5,4.7-5C35.4,131.3,36.8,131.5,37.9,131.9z"/>
			<path d="M42.5,137.9c0,0.6,0.4,1,1.1,1h0.8l0.3,2c-0.5,0.2-1.6,0.4-2.2,0.4c-1.7,0-2.7-0.9-2.7-2.6v-11h2.8L42.5,137.9
				L42.5,137.9z"/>
			<path d="M48,127.4c0.6,0,0.8,0.3,0.8,0.8v1c0,0.6-0.3,0.8-0.8,0.8h-1.3c-0.6,0-0.8-0.3-0.8-0.8v-1c0-0.5,0.3-0.8,0.8-0.8H48z
				 M46,141v-9.4h2.8v9.4H46z"/>
			<path d="M60.3,133.9v7h-2.8v-6.2c0-0.9-0.2-1.1-0.9-1.1c-0.8,0-1.5,0.3-2.6,0.9l0,6.4h-2.8v-9.4h2.3l0.2,1.4
				c1.3-1.1,2.7-1.7,4-1.7C59.4,131.3,60.3,132.2,60.3,133.9z"/>
			<path d="M70.9,133c0.2,0.4,0.2,0.8,0.2,1.4c0,2.2-1.1,3-4.4,3c-0.6,0-1.2,0-1.6-0.1c-0.2,0.4-0.2,1,0.6,1.1l3.4,0.4
				c2,0.2,2.7,1.1,2.7,2.8c0,2.4-1.3,3-4.9,3c-3.9,0-5-0.7-5-2.8c0-1,0.4-1.5,1.5-2c-0.9-0.8-0.6-2.3,0.3-2.9
				c-1-0.5-1.4-1.3-1.4-2.5c0-2.2,1.1-3,4.4-3c1,0,1.8,0.1,2.5,0.3h3l-0.1,1.2L70.9,133z M67.6,140.6l-2.4-0.3
				c-0.4,0.4-0.6,0.6-0.6,1.1c0,0.9,0.4,1.1,2.2,1.1c1.8,0,2.3-0.2,2.3-1C69.1,140.8,68.8,140.8,67.6,140.6z M68.5,134.3
				c0-0.9-0.4-1.2-1.8-1.2c-1.4,0-1.8,0.3-1.8,1.2c0,0.9,0.4,1.2,1.8,1.2S68.5,135.3,68.5,134.3z"/>
			<path d="M73.6,132.1l-0.2-4.2h2.1l-0.2,4.2H73.6z"/>
			<path d="M85.6,131.7l-0.2,1.8c-1.2,0-2.4,0-3.6,0c-1.5,0-1.8,0-1.8,0.6c0,0.6,0.3,0.6,1.2,0.8l2.4,0.6c1.6,0.5,2.3,1.1,2.3,2.7
				c0,2.3-1.3,2.9-4.3,2.9c-0.7,0-2.4,0-4.2-0.3l0.2-1.8c0.7,0,2,0,3.3,0c1.9,0,2.4-0.1,2.4-0.7c0-0.6-0.4-0.6-1.3-0.9l-2.3-0.6
				c-1.8-0.5-2.3-1.4-2.3-2.9c0-2,1.1-2.7,4-2.7C82.6,131.3,84.4,131.5,85.6,131.7z"/>
			<path d="M100.9,133.9v7h-2.8v-6.2c0-0.9-0.2-1.1-0.9-1.1c-0.8,0-1.5,0.3-2.6,0.9l0,6.4h-2.8v-9.4H94l0.2,1.4
				c1.3-1.1,2.7-1.7,4-1.7C100,131.3,100.9,132.2,100.9,133.9z"/>
			<path d="M111.5,138.8l0.3,1.8c-1.1,0.5-2.8,0.7-4.1,0.7c-3.6,0-4.9-1.4-4.9-4.9c0-3.7,1.4-5,4.8-5c3.2,0,4.4,1.1,4.5,3.3
				c0,1.7-0.8,2.6-2.9,2.6h-3.4c0.2,1.4,0.8,1.7,2.2,1.7C108.8,139,110.2,138.9,111.5,138.8z M105.7,135.5h2.7c0.8,0,0.9-0.4,0.9-1
				c0-0.9-0.4-1.2-1.6-1.2C106.2,133.4,105.8,133.8,105.7,135.5z"/>
			<path d="M126.2,140.2c-0.1,0.5-0.5,0.7-1,0.7H123c-0.5,0-0.9-0.3-1-0.9l-1-5.3c-0.1-0.5-0.1-1-0.2-1.6h-0.2l-0.2,1.6l-0.9,5.3
				c-0.1,0.5-0.5,0.9-1,0.9h-2.2c-0.5,0-0.9-0.3-1-0.7l-2.3-8.6h2.8l1.3,6.1c0.1,0.5,0.2,1,0.2,1.5h0.2c0.1-0.5,0.2-1,0.2-1.5l1-5.3
				c0.1-0.5,0.5-0.8,1-0.8h2c0.5,0,0.9,0.3,1,0.9l0.9,5.2c0.1,0.5,0.2,1,0.3,1.5h0.2c0.1-0.5,0.1-1,0.2-1.5l1.3-6.1h2.8L126.2,140.2
				z"/>
			<path d="M139,129.3c-1,0-1.3,0.3-1.3,1.2v1h2.6v1.9h-2.6v7.5h-2.8v-7.5h-1.6v-1.8l1.6-0.1v-1.4c0-1.8,0.8-2.9,3.1-2.9
				c0.7,0,2.2,0,3,0.2l-0.3,1.9H139z"/>
			<path d="M148.2,133.9h-0.8c-0.8,0-1.6,0.2-2.9,0.6v6.4h-2.8v-9.4h2.2l0.2,1.4c1.3-1.1,2.6-1.7,3.8-1.7h0.5L148.2,133.9z"/>
			<path d="M159.1,136.3c0,3.6-1.3,4.9-4.8,4.9c-3.5,0-4.8-1.3-4.8-4.9c0-3.6,1.3-5,4.8-5C157.8,131.3,159.1,132.7,159.1,136.3z
				 M152.4,136.3c0,2.2,0.4,2.8,1.9,2.8c1.4,0,1.9-0.6,1.9-2.8c0-2.3-0.4-2.9-1.9-2.9C152.8,133.4,152.4,134,152.4,136.3z"/>
			<path d="M170.2,133.9v7h-2.8v-6.2c0-0.9-0.2-1.1-0.9-1.1c-0.8,0-1.5,0.3-2.6,0.9l0,6.4h-2.8v-9.4h2.3l0.2,1.4
				c1.3-1.1,2.7-1.7,4-1.7C169.3,131.3,170.2,132.2,170.2,133.9z"/>
			<path d="M176.1,137.9c0,0.7,0.3,1,1,1h1.2l0.3,2c-0.7,0.2-2,0.4-2.6,0.4c-1.7,0-2.7-1-2.7-2.7v-5h-1.7v-1.8l1.7-0.1V129h2.8v2.6
				h2.6v1.9h-2.6L176.1,137.9L176.1,137.9z"/>
			<path d="M182.4,127.4c0.6,0,0.8,0.3,0.8,0.8v1c0,0.6-0.3,0.8-0.8,0.8h-1.3c-0.6,0-0.8-0.3-0.8-0.8v-1c0-0.5,0.3-0.8,0.8-0.8
				H182.4z M180.3,141v-9.4h2.8v9.4H180.3z"/>
			<path d="M193.9,138.8l0.3,1.8c-1.1,0.5-2.8,0.7-4.1,0.7c-3.6,0-4.9-1.4-4.9-4.9c0-3.7,1.4-5,4.8-5c3.2,0,4.4,1.1,4.5,3.3
				c0,1.7-0.8,2.6-2.9,2.6h-3.4c0.2,1.4,0.8,1.7,2.2,1.7C191.2,139,192.6,138.9,193.9,138.8z M188.1,135.5h2.7c0.8,0,0.9-0.4,0.9-1
				c0-0.9-0.4-1.2-1.6-1.2C188.6,133.4,188.1,133.8,188.1,135.5z"/>
			<path d="M202.7,133.9h-0.8c-0.8,0-1.6,0.2-2.9,0.6v6.4h-2.8v-9.4h2.2l0.2,1.4c1.3-1.1,2.6-1.7,3.8-1.7h0.5L202.7,133.9z"/>
		</g>
	</g>
</g>
</svg>
