<svg xmlns="http://www.w3.org/2000/svg" width="1267.28" height="143.41" viewBox="0 0 1267.28 143.41">
  <g>
    <g>
      <path d="M490.13,140.91V4h42Q542.66,4,548,8.77t7.2,13.38A98,98,0,0,1,557,42.34q0,11.2-2.84,17.89t-10.7,9.26q6.46,1.32,9.07,6.42t2.6,13.18v51.82h-27V87.31c0-4-.82-6.47-2.45-7.43s-4.27-1.44-7.9-1.44v62.47ZM518,54.71h6.61q5.67,0,5.68-12.37,0-8-1.25-10.5c-.83-1.66-2.38-2.49-4.67-2.49H518Z"/>
      <path d="M556.43,142.16H526.92V87.31c0-3.45-.63-5.65-1.83-6.35a13.42,13.42,0,0,0-6-1.25v62.45H488.88V2.73h43.26c7.29,0,12.91,1.72,16.71,5.1s6.32,8.09,7.59,14.06a100,100,0,0,1,1.86,20.45c0,7.6-1,13.79-2.94,18.38a16.86,16.86,0,0,1-8.16,8.6,12.7,12.7,0,0,1,6.48,6c1.83,3.56,2.75,8.19,2.75,13.75Zm-27-2.51h24.48V89.09c0-5.16-.83-9.41-2.46-12.61s-4.25-5-8.2-5.76l-4.65-1,4.51-1.47c4.92-1.61,8.17-4.41,9.93-8.56s2.74-10.14,2.74-17.4A97.06,97.06,0,0,0,554,22.41c-1.16-5.43-3.44-9.71-6.8-12.7s-8.39-4.47-15-4.47H491.39V139.65h25.18V77.18h1.26c3.89,0,6.68.53,8.53,1.61,2.07,1.22,3.07,4,3.07,8.52ZM524.6,56h-7.87V28.09h7.63c3.47,0,5.07,1.73,5.8,3.18.92,1.86,1.37,5.48,1.37,11.07C531.53,51.38,529.2,56,524.6,56Zm-5.36-2.52h5.36c2.93,0,4.42-3.74,4.42-11.11,0-6.37-.6-8.92-1.11-9.94-.39-.77-1.17-1.8-3.55-1.8h-5.12Z"/>
      <path d="M564.86,140.91V4h54.77V30.44H592.71V57.12h25.83V82.87H592.71v31.35h28.71v26.69Z"/>
      <path d="M622.67,142.16H563.6V2.73h57.28v29H594V55.86h25.82V84.13H594V113h28.7Zm-56.55-2.51h54V115.48H591.45V81.61h25.83V58.38H591.45V29.18h26.92V5.24H566.12Z"/>
      <path d="M657.62,142.15q-29.32,0-29.32-42v-59q0-38.36,33.6-38.36,13.85,0,21.24,5.56t10.19,16.22q2.8,10.67,2.8,26H669.37V38.37a20.11,20.11,0,0,0-1.2-7.43q-1.21-3-5-3c-3.17,0-5.25,1.06-6.26,3.19a16,16,0,0,0-1.52,7V104.5a23.63,23.63,0,0,0,1.44,9q1.44,3.47,5.64,3.47t5.79-3.47a24.13,24.13,0,0,0,1.44-9.14V84.82h-7.31V61.17h33.45v79.74h-11l-4.66-11.52Q673,142.16,657.62,142.15Z"/>
      <path d="M657.62,143.41c-20.29,0-30.58-14.56-30.58-43.27v-59c0-26.29,11.73-39.61,34.86-39.61,9.47,0,16.87,2,22,5.81s8.72,9.55,10.65,16.91c1.88,7.17,2.84,16,2.84,26.3v1.26H668.11V38.37a18.87,18.87,0,0,0-1.11-7c-.38-.95-1.2-2.21-3.85-2.21s-4.34.81-5.13,2.48a15,15,0,0,0-1.39,6.46V104.5A22.58,22.58,0,0,0,658,113c.76,1.83,2.18,2.69,4.48,2.69s3.87-.86,4.63-2.69a23.11,23.11,0,0,0,1.35-8.66V86.07h-7.32V59.91h36v82.25H684l-4.06-10C674.93,139.63,667.43,143.41,657.62,143.41ZM661.9,4c-21.77,0-32.35,12.13-32.35,37.1v59c0,27.42,9.18,40.75,28.07,40.75,9.87,0,16.89-4,21.47-12.11l1.28-2.28,5.33,13.15h8.86V62.42H663.63V83.56h7.31v20.78A25.53,25.53,0,0,1,669.4,114c-.8,1.93-2.66,4.23-6.95,4.23-3.3,0-5.65-1.46-6.8-4.23a25,25,0,0,1-1.54-9.47V38.14a17.37,17.37,0,0,1,1.64-7.54c1.23-2.59,3.72-3.91,7.4-3.91,3.85,0,5.49,2.06,6.18,3.78a21.34,21.34,0,0,1,1.3,7.9V49.25h24.24a100.93,100.93,0,0,0-2.75-24.41c-1.79-6.79-5.06-12-9.73-15.53S670.81,4,661.9,4Z"/>
      <path d="M704.14,140.91V4h26.45V140.91Z"/>
      <path d="M731.85,142.16h-29V2.73h29Zm-26.45-2.51h23.93V5.24H705.4Z"/>
      <path d="M773.59,142.15q-18.75,0-27-9.33t-8.29-29.72V89.72h27.08v17.11a15.87,15.87,0,0,0,1.43,7.43,5.22,5.22,0,0,0,5,2.69q3.74,0,5.18-2.18c1-1.45,1.43-3.84,1.43-7.16a38,38,0,0,0-1.24-10.54A23.6,23.6,0,0,0,772.85,89a91.22,91.22,0,0,0-8.52-9L752,68.32q-13.77-13-13.77-29.71,0-17.5,8.13-26.69t23.54-9.18q18.82,0,26.72,10t7.89,30.49H776.7V33.86a5.82,5.82,0,0,0-1.59-4.36A5.94,5.94,0,0,0,770.79,28,5.85,5.85,0,0,0,766,29.78a7.12,7.12,0,0,0-1.52,4.7,14.84,14.84,0,0,0,1.56,6.23q1.55,3.34,6.14,7.7L788,63.58a90.82,90.82,0,0,1,8.72,9.53,41.43,41.43,0,0,1,6.38,11.67A48,48,0,0,1,805.49,101q0,19.29-7.12,30.22T773.59,142.15Z"/>
      <path d="M773.59,143.41c-12.81,0-22.23-3.29-28-9.76S737,116.94,737,103.1V88.46H766.6v18.37a14.88,14.88,0,0,0,1.29,6.84c.74,1.38,2,2,3.91,2s3.41-.53,4.13-1.62,1.23-3.41,1.23-6.46A36.67,36.67,0,0,0,776,97.42a22.5,22.5,0,0,0-4.09-7.66,88.78,88.78,0,0,0-8.4-8.85L751.18,69.24C741.78,60.37,737,50.06,737,38.61c0-11.94,2.84-21.19,8.44-27.52s13.88-9.6,24.48-9.6C782.83,1.49,792.15,5,797.65,12s8.16,17.41,8.16,31.27v1.26H775.45V33.86a4.58,4.58,0,0,0-1.22-3.46,5.76,5.76,0,0,0-7.26.18,5.87,5.87,0,0,0-1.22,3.9,13.61,13.61,0,0,0,1.44,5.7,26.52,26.52,0,0,0,5.87,7.32l15.79,15.17a92,92,0,0,1,8.83,9.66,42.78,42.78,0,0,1,6.58,12A49.3,49.3,0,0,1,806.74,101c0,13-2.46,23.45-7.32,30.91C794.45,139.54,785.76,143.41,773.59,143.41ZM739.53,91V103.1c0,13.21,2.68,22.92,8,28.88s14,8.91,26.09,8.91c11.27,0,19.25-3.48,23.73-10.36,4.58-7,6.91-17,6.91-29.53a46.82,46.82,0,0,0-2.34-15.79,40.11,40.11,0,0,0-6.18-11.32,90.23,90.23,0,0,0-8.59-9.4l-15.8-15.18c-3.2-3-5.3-5.68-6.41-8.07a16.19,16.19,0,0,1-1.68-6.76A8.38,8.38,0,0,1,765,29,7.29,7.29,0,0,1,778,33.86V42h25.33c-.16-12.67-2.72-22.24-7.62-28.46S782,4,769.94,4c-9.85,0-17.45,3-22.6,8.76s-7.81,14.55-7.81,25.85c0,10.73,4.5,20.43,13.37,28.8l12.3,11.67a93.94,93.94,0,0,1,8.64,9.11,25.2,25.2,0,0,1,4.54,8.52,39.51,39.51,0,0,1,1.29,10.9c0,3.61-.54,6.17-1.65,7.85s-3.29,2.74-6.22,2.74c-3.58,0-5.31-1.82-6.12-3.35a16.86,16.86,0,0,1-1.59-8V91Z"/>
      <path d="M825,140.91V30.28H808.73V4h59.91V30.28H852.38V140.91Z"/>
      <path d="M853.63,142.16H823.74V31.54H807.48V2.73h62.41V31.54H853.63Zm-27.38-2.51h24.87V29h16.26V5.24H810V29h16.26Z"/>
      <path d="M874.9,140.91V4h42q10.5,0,15.87,4.78T940,22.15a98,98,0,0,1,1.83,20.19q0,11.2-2.84,17.89t-10.7,9.26c4.3.88,7.33,3,9.06,6.42s2.61,7.79,2.61,13.18v51.82h-27V87.31c0-4-.81-6.47-2.45-7.43s-4.26-1.44-7.89-1.44v62.47Zm27.85-86.2h6.62q5.67,0,5.68-12.37,0-8-1.25-10.5t-4.67-2.49h-6.38Z"/>
      <path d="M941.2,142.16H911.69V87.31c0-3.45-.63-5.65-1.83-6.35a13.44,13.44,0,0,0-6-1.25v62.45h-30.2V2.73h43.26c7.29,0,12.91,1.72,16.71,5.1s6.32,8.09,7.59,14.06a100,100,0,0,1,1.85,20.45c0,7.6-1,13.79-2.94,18.38a16.8,16.8,0,0,1-8.15,8.6,12.7,12.7,0,0,1,6.48,6c1.82,3.56,2.75,8.19,2.75,13.75Zm-27-2.51h24.48V89.09c0-5.16-.83-9.41-2.47-12.61s-4.24-5-8.19-5.76l-4.65-1,4.51-1.47c4.92-1.61,8.17-4.41,9.93-8.56s2.74-10.14,2.74-17.4a97.76,97.76,0,0,0-1.8-19.93C937.59,17,935.3,12.7,932,9.71s-8.39-4.47-15-4.47H876.16V139.65h25.18V77.18h1.26c3.89,0,6.68.53,8.53,1.61,2.07,1.22,3.07,4,3.07,8.52ZM909.37,56H901.5V28.09h7.63c3.47,0,5.07,1.73,5.8,3.18.92,1.86,1.37,5.48,1.37,11.07C916.3,51.38,914,56,909.37,56ZM904,53.45h5.36c2.93,0,4.42-3.74,4.42-11.11,0-6.38-.61-8.93-1.11-9.94-.39-.77-1.17-1.8-3.55-1.8H904Z"/>
      <path d="M945.73,140.91,959,4h46.44l13,136.92H992.49l-2-22.1H974.05l-1.71,22.1ZM976,97h12.44l-6-69.62h-1.24Z"/>
      <path d="M1019.78,142.16H991.34l-2-22.09H975.22l-1.72,22.09H944.35L957.82,2.73h48.73l.1,1.14Zm-26.14-2.51H1017L1004.26,5.24H960.1l-13,134.41h24.06l1.71-22.09H991.7Zm-3.83-41.44H974.64L980,26.07h3.57ZM977.35,95.7h9.72l-5.19-60.43Z"/>
      <path d="M1037.21,140.91V30.28H1021V4h59.91V30.28H1064.6V140.91Z"/>
      <path d="M1065.85,142.16H1036V31.54H1019.7V2.73h62.41V31.54h-16.26Zm-27.38-2.51h24.87V29h16.26V5.24h-57.39V29h16.26Z"/>
      <path d="M1086.2,140.91V4h26.45V140.91Z"/>
      <path d="M1113.9,142.16h-29V2.73h29Zm-26.45-2.51h23.94V5.24h-23.94Z"/>
      <path d="M1155.49,142.15q-16.42,0-25.09-9.92t-8.68-28.67v-65q0-17.58,8.6-26.69t25.17-9.1q16.56,0,25.16,9.1t8.6,26.69v65q0,18.75-8.67,28.67T1155.49,142.15Zm.23-25.2q6.22,0,6.22-12.06V38.06q0-10.11-6.06-10.11Q1149,28,1149,38.29V105c0,4.26.52,7.3,1.56,9.14A5.4,5.4,0,0,0,1155.72,117Z"/>
      <path d="M1155.49,143.41c-11.27,0-20-3.48-26-10.35s-9-16.74-9-29.5v-65c0-12,3-21.27,8.94-27.55s14.72-9.49,26.08-9.49,20.13,3.19,26.08,9.49,8.94,15.55,8.94,27.55v65c0,12.76-3,22.68-9,29.5S1166.76,143.41,1155.49,143.41Zm0-139.41c-10.64,0-18.8,2.93-24.26,8.71S1123,27.19,1123,38.53v65c0,12.13,2.82,21.5,8.37,27.84s13.62,9.49,24.14,9.49,18.63-3.19,24.14-9.49,8.36-15.71,8.36-27.84v-65c0-11.34-2.77-20-8.25-25.82S1166.12,4,1155.49,4Zm.23,114.2a6.7,6.7,0,0,1-6.23-3.4c-1.15-2-1.72-5.24-1.72-9.76V38.29c0-9.59,4.41-11.6,8.11-11.6,3.34,0,7.32,2,7.32,11.37v66.83C1163.2,113.72,1160.69,118.2,1155.72,118.2Zm.16-89c-2.4,0-5.59.95-5.59,9.09V105c0,4,.47,6.89,1.39,8.53a4.19,4.19,0,0,0,4,2.12c3.3,0,5-3.64,5-10.8V38.06C1160.69,29.2,1157.07,29.2,1155.88,29.2Z"/>
      <path d="M1198.81,140.91V4H1227l12.61,65.58V4H1266V140.91h-26.77l-13.69-68.46v68.46Z"/>
      <path d="M1267.28,142.16h-29l-11.4-57v57h-29.28V2.73H1228l10.31,53.64V2.73h29Zm-27-2.51h24.48V5.24h-23.94V69.57l-2.49.24L1225.93,5.24h-25.86V139.65h24.24V72.45l2.49-.25Z"/>
    </g>
    <g>
      <path d="M1.26,139.42V2.5h42q10.5,0,15.87,4.79t7.19,13.38a97.92,97.92,0,0,1,1.83,20.18q0,11.2-2.84,17.9T54.62,68q6.47,1.34,9.07,6.42t2.6,13.19v51.81h-27V85.82q0-6-2.45-7.43T29,77v62.47Zm27.85-86.2h6.61q5.69,0,5.68-12.37,0-8-1.25-10.5t-4.66-2.49H29.11Z"/>
      <path d="M67.55,140.68H38V85.82c0-3.45-.63-5.64-1.83-6.35a13.31,13.31,0,0,0-6-1.24v62.45H0V1.24H43.27C50.55,1.24,56.17,3,60,6.35s6.32,8.08,7.59,14.06a99.79,99.79,0,0,1,1.86,20.44c0,7.61-1,13.79-2.94,18.39a16.86,16.86,0,0,1-8.16,8.6,12.74,12.74,0,0,1,6.49,6c1.82,3.56,2.74,8.19,2.74,13.76Zm-27-2.52H65V87.61c0-5.17-.83-9.41-2.47-12.61s-4.25-5-8.2-5.76l-4.64-1,4.5-1.47c4.92-1.61,8.17-4.41,9.93-8.55S66.9,48.12,66.9,40.85a97,97,0,0,0-1.8-19.92C64,15.49,61.66,11.22,58.3,8.22s-8.38-4.46-15-4.46H2.51v134.4H27.7V75.69H29c3.9,0,6.69.53,8.53,1.62,2.07,1.21,3.08,4,3.08,8.51ZM35.72,54.48H27.85V26.61h7.64c3.47,0,5.06,1.73,5.79,3.18.93,1.86,1.38,5.48,1.38,11.06C42.66,49.9,40.32,54.48,35.72,54.48ZM30.36,52h5.36c2.93,0,4.42-3.74,4.42-11.12,0-6.37-.6-8.92-1.11-9.94-.38-.77-1.17-1.79-3.54-1.79H30.36Z"/>
      <path d="M72.25,139.42,85.47,2.5h46.45l13,136.92H119l-1.94-22.09h-16.5l-1.71,22.09Zm30.26-43.95H115l-6-69.63h-1.25Z"/>
      <path d="M146.29,140.68H117.85l-1.94-22.1H101.73L100,140.68H70.86L84.33,1.24h48.73Zm-26.14-2.52h23.38L130.77,3.76H86.61l-13,134.4H97.69l1.71-22.09h18.81Zm-3.82-41.44H101.15l5.4-72.14h3.57Zm-12.47-2.51h9.73l-5.2-60.43Z"/>
      <path d="M184,140.67q-14.85,0-23.92-9.26t-9.06-25.91V42.33q0-19.9,7.89-30.49T184.66,1.26A40.07,40.07,0,0,1,202,4.84a27.47,27.47,0,0,1,11.94,10.69q4.35,7.13,4.35,17.93V57.11H191V36.89q0-6.15-1.56-8.29a5.59,5.59,0,0,0-4.82-2.14q-3.82,0-5.14,2.76a17.28,17.28,0,0,0-1.32,7.36v68.53q0,5.69,1.67,8a5.55,5.55,0,0,0,4.79,2.33,5.08,5.08,0,0,0,4.94-2.88,16.73,16.73,0,0,0,1.44-7.47V80.45h27.53v25.91q0,18-9.1,26.18T184,140.67Z"/>
      <path d="M184,141.92c-10.21,0-18.56-3.24-24.82-9.63s-9.42-15.4-9.42-26.79V42.33c0-13.49,2.74-24,8.15-31.25S172.42,0,184.66,0A41.45,41.45,0,0,1,202.5,3.7,28.75,28.75,0,0,1,215,14.88c3,4.92,4.54,11.17,4.54,18.58V58.37H189.78V36.89c0-4.74-.72-6.72-1.32-7.55a4.35,4.35,0,0,0-3.8-1.62c-2.71,0-3.58,1.17-4,2.05a16,16,0,0,0-1.2,6.81v68.53c0,3.5.48,6,1.43,7.28a4.32,4.32,0,0,0,3.77,1.81,3.82,3.82,0,0,0,3.81-2.18,15.55,15.55,0,0,0,1.31-6.91V79.2h30.05v27.16c0,12.35-3.2,21.47-9.52,27.11S195.19,141.92,184,141.92Zm.63-139.41c-11.41,0-19.72,3.39-24.71,10.08s-7.64,16.8-7.64,29.74V105.5c0,10.71,2.92,19.13,8.7,25s13.51,8.88,23,8.88c10.53,0,18.8-2.63,24.61-7.81s8.68-13.64,8.68-25.24V81.71h-25v23.4a18,18,0,0,1-1.57,8,6.35,6.35,0,0,1-6.06,3.58,6.77,6.77,0,0,1-5.81-2.86c-1.28-1.79-1.91-4.65-1.91-8.75V36.58a18.46,18.46,0,0,1,1.45-7.9c.76-1.58,2.46-3.47,6.27-3.47a6.79,6.79,0,0,1,5.84,2.65c1.2,1.67,1.79,4.62,1.79,9v19H217V33.46c0-6.94-1.41-12.75-4.18-17.27A26.3,26.3,0,0,0,201.43,6,39.14,39.14,0,0,0,184.66,2.51Z"/>
      <path d="M226.54,139.42V2.5h54.77V29H254.39V55.64h25.83V81.39H254.39v31.35H283.1v26.68Z"/>
      <path d="M284.36,140.68H225.29V1.24h57.28v29H255.65V54.38h25.83V82.64H255.65v28.84h28.71Zm-56.56-2.52h54V114h-28.7V80.13H279V56.89H253.14V27.7h26.91V3.76H227.8Z"/>
    </g>
    <g>
      <path d="M480,2.68H425.29V20.76h24.82l-20,20a47.78,47.78,0,1,0,12.85,12.72l19-19V57.9H480V20.76h.49V2.68ZM403.52,108.62a28.13,28.13,0,1,1,28.13-28.13A28.12,28.12,0,0,1,403.52,108.62Z" fill="#005bff"/>
      <path d="M462,49.27A152.76,152.76,0,0,0,480,28.67V20.76h.49V2.68H425.29V20.76h24.82l-20,20A47.76,47.76,0,0,0,356.9,90.87h.83a152.15,152.15,0,0,0,19.2-1.21,28.13,28.13,0,1,1,53.5-17.38,152.22,152.22,0,0,0,16.9-10.79,47.27,47.27,0,0,0-4.41-8l19-19Z" fill="#007eff"/>
      <path d="M378.28,39.94a28.22,28.22,0,0,1,16.57,13.79,28.06,28.06,0,0,1,21.49,1.76A47.56,47.56,0,0,0,403.4,32.75,47.5,47.5,0,0,0,378.28,39.94Z" fill="#ff2e76"/>
      <path d="M370,114.56H370c-.78-.76-1.52-1.54-2.24-2.35l-.07-.08c-.68-.77-1.34-1.56-2-2.37l-.12-.17a47.53,47.53,0,0,1-3.55-5.3l-.12-.2a50.11,50.11,0,0,1-2.8-5.81l-.06-.15a46.35,46.35,0,0,1-2-6.31,28.14,28.14,0,0,1,21.19-51.89h0c.39-.24.78-.48,1.18-.71l.44-.25c1.21-.69,2.45-1.33,3.72-1.91l.61-.27,1.13-.49.72-.28c.6-.24,1.2-.46,1.81-.67l.9-.3,1-.32,1.05-.3,1.07-.28,1.6-.37.86-.17,1.29-.23.78-.13q1-.14,2-.24l.69-.07,1.49-.11.75,0c.69,0,1.38,0,2.07,0h0a47.75,47.75,0,0,0-72.86,61l-6.94,6.94L310.48,87.58l-12.79,12.79,13.14,13.13-13.14,13.13,12.79,12.79,13.13-13.13,13.14,13.13,12.78-12.79L336.4,113.5l7-7A47.56,47.56,0,0,0,370,114.56Z" fill="#ff2e76"/>
      <path d="M309,138l1.44,1.44,13.13-13.13,13.14,13.13,12.78-12.79L336.4,113.5l7-7A47.56,47.56,0,0,0,370,114.56H370c-.78-.76-1.52-1.54-2.24-2.35l-.07-.08c-.68-.77-1.34-1.56-2-2.37l-.12-.17a47.53,47.53,0,0,1-3.55-5.3l-.12-.2a50.11,50.11,0,0,1-2.8-5.81l-.06-.15a46.35,46.35,0,0,1-2-6.31,28.29,28.29,0,0,1-11.71-11.33A151.28,151.28,0,0,0,309,138Z" fill="#ff5fb9"/>
      <path d="M395.16,107.37h0a28.25,28.25,0,0,1-16.57-13.79,28.12,28.12,0,0,0,16.27-39.85c.66-.21,1.32-.41,2-.58l.17,0c.66-.15,1.33-.29,2-.39h0c.66-.1,1.32-.18,2-.24l.42,0c.66,0,1.33-.08,2-.08s1.07,0,1.61,0l.47,0c.38,0,.76.06,1.13.1l.5.06q.57.07,1.14.18l.41.07c.45.08.89.18,1.32.28l.19,0a27.68,27.68,0,0,1,6.09,2.29h0a47.77,47.77,0,0,1-21.19,51.89Z" fill="#ff5fb9"/>
    </g>
  </g>
</svg>
