<svg xmlns="http://www.w3.org/2000/svg" width="1266.12" height="70.31" viewBox="0 0 1266.12 70.31">
  <g>
    <path d="M31.12,1.29l9.1,61.19H24l-.86-11H17.41l-1,11H0L8.12,1.29ZM22.68,40.63q-1.2-10.39-2.42-25.7-2.43,17.58-3.05,25.7Z"/>
    <path d="M92.18,1.29V62.48h-14L70,34.66V62.48H56.64V1.29H70l8.92,27.55V1.29Z"/>
    <path d="M98.56,1.29H125.1V13.53H114.48V25.14h9.94V36.78h-9.94V50.24h11.68V62.48H98.56Z"/>
    <path d="M190.64,1.29l-7.08,61.19H163.69q-2.73-14.1-4.82-32.09-.94,7.71-4.44,32.09H134.68L127.56,1.29H143l1.68,21.35,1.62,20.64q.88-16,4.4-42h16.53Q167.58,4,169,21.47l1.76,23.28q1.37-22.21,4.44-43.46Z"/>
    <path d="M267.34,1.29l-7.09,61.19H240.38q-2.73-14.1-4.81-32.09-1,7.71-4.44,32.09H211.37L204.25,1.29h15.46l1.68,21.35L223,43.28q.87-16,4.4-42h16.52q.33,2.67,1.74,20.18l1.76,23.28q1.35-22.21,4.44-43.46Z"/>
    <path d="M297.6,1.29l9.1,61.19H290.43l-.85-11h-5.69l-1,11H266.48L274.6,1.29Zm-8.44,39.34q-1.2-10.39-2.42-25.7-2.43,17.58-3.06,25.7Z"/>
    <path d="M338.66,1.29l-11.6,39V62.48H312.31V40.33l-11.18-39h14.62q3.42,17.91,3.86,24.11,1.32-9.79,4.43-24.11Z"/>
    <path d="M387.08,1.29V13.53h-9.45V62.48H361.72V13.53h-9.41V1.29Z"/>
    <path d="M427.07,37.12q0,9.23-.43,13.06a14.63,14.63,0,0,1-8.9,11.89,22.58,22.58,0,0,1-9.07,1.7,23.08,23.08,0,0,1-8.83-1.61,14.74,14.74,0,0,1-9.13-11.81,130.25,130.25,0,0,1-.45-13.23V26.65q0-9.22.43-13.06a14.63,14.63,0,0,1,8.9-11.89A22.6,22.6,0,0,1,408.67,0a23.07,23.07,0,0,1,8.82,1.61,14.38,14.38,0,0,1,6.29,4.82,14.43,14.43,0,0,1,2.84,7,130.25,130.25,0,0,1,.45,13.23ZM411.16,17a19.14,19.14,0,0,0-.47-5.46,1.88,1.88,0,0,0-1.95-1.19,2.18,2.18,0,0,0-1.91,1q-.66,1-.66,5.69V45.59q0,5.32.43,6.57a1.91,1.91,0,0,0,2,1.25A2,2,0,0,0,410.71,52a30.4,30.4,0,0,0,.45-6.84Z"/>
    <path d="M446.73,1.29H458q11.25,0,15.25.86a10.48,10.48,0,0,1,6.5,4.45q2.5,3.57,2.51,11.39,0,7.16-1.77,9.6t-7,2.95q4.72,1.17,6.35,3.14a9.36,9.36,0,0,1,2,3.61,58,58,0,0,1,.39,9.05V62.48H467.48V42.15q0-4.92-.77-6.09c-.52-.78-1.87-1.17-4.07-1.17V62.48H446.73Zm15.91,10.47v13.6a7.07,7.07,0,0,0,3.77-.73c.71-.5,1.07-2.09,1.07-4.79V16.48c0-1.94-.34-3.21-1-3.82S464.48,11.76,462.64,11.76Z"/>
    <path d="M504.34,1.29V62.48H488.42V1.29Z"/>
    <path d="M510.73,1.29h11.9q11.54,0,15.59,1a12,12,0,0,1,6.18,3.48,10.91,10.91,0,0,1,2.65,5.39,81.75,81.75,0,0,1,.53,11.66V44.3c0,5.49-.26,9.17-.77,11a8.32,8.32,0,0,1-2.71,4.35,11.32,11.32,0,0,1-4.76,2.19,43.56,43.56,0,0,1-8.54.62H510.73Zm15.91,10.47V52q3.43,0,4.23-1.38t.8-7.5V19.35A31.38,31.38,0,0,0,531.4,14a2.52,2.52,0,0,0-1.21-1.72A7.94,7.94,0,0,0,526.64,11.76Z"/>
    <path d="M553.51,1.29h26.54V13.53H569.43V25.14h9.94V36.78h-9.94V50.24h11.68V62.48h-27.6Z"/>
    <path d="M634.86,1.29V62.48h-14l-8.28-27.82V62.48h-13.3V1.29h13.3l8.92,27.55V1.29Z"/>
    <path d="M677.61,37.12q0,9.23-.44,13.06a14.63,14.63,0,0,1-8.9,11.89,22.55,22.55,0,0,1-9.07,1.7,23.08,23.08,0,0,1-8.83-1.61,14.57,14.57,0,0,1-6.29-4.82,14.41,14.41,0,0,1-2.83-7,126.47,126.47,0,0,1-.46-13.23V26.65q0-9.22.44-13.06a14.63,14.63,0,0,1,8.9-11.89A22.55,22.55,0,0,1,659.2,0,23.08,23.08,0,0,1,668,1.61a14.44,14.44,0,0,1,6.29,4.82,14.53,14.53,0,0,1,2.84,7,130.25,130.25,0,0,1,.45,13.23ZM661.7,17a18.63,18.63,0,0,0-.48-5.46,1.86,1.86,0,0,0-1.94-1.19,2.17,2.17,0,0,0-1.91,1q-.66,1-.66,5.69V45.59q0,5.32.43,6.57a1.9,1.9,0,0,0,2,1.25A2,2,0,0,0,661.24,52a30.17,30.17,0,0,0,.46-6.84Z"/>
    <path d="M697.34,1.29h11.27q11.26,0,15.25.86a10.46,10.46,0,0,1,6.5,4.45q2.52,3.57,2.52,11.39c0,4.77-.6,8-1.78,9.6s-3.52,2.62-7,2.95c3.15.78,5.26,1.83,6.35,3.14a9.45,9.45,0,0,1,2,3.61,57.43,57.43,0,0,1,.4,9.05V62.48H718.1V42.15q0-4.92-.78-6.09c-.52-.78-1.87-1.17-4.06-1.17V62.48H697.34Zm15.92,10.47v13.6a7,7,0,0,0,3.76-.73c.72-.5,1.08-2.09,1.08-4.79V16.48c0-1.94-.35-3.21-1-3.82S715.1,11.76,713.26,11.76Z"/>
    <path d="M775.4,37.12q0,9.23-.43,13.06a14.67,14.67,0,0,1-8.91,11.89,22.55,22.55,0,0,1-9.07,1.7,23,23,0,0,1-8.82-1.61A14.69,14.69,0,0,1,739,50.35a126.47,126.47,0,0,1-.46-13.23V26.65q0-9.22.44-13.06a14.63,14.63,0,0,1,8.9-11.89A22.58,22.58,0,0,1,757,0a23.08,23.08,0,0,1,8.83,1.61,14.44,14.44,0,0,1,6.29,4.82,14.53,14.53,0,0,1,2.84,7,130.25,130.25,0,0,1,.45,13.23ZM759.49,17a18.63,18.63,0,0,0-.48-5.46,1.86,1.86,0,0,0-1.94-1.19,2.18,2.18,0,0,0-1.91,1q-.66,1-.66,5.69V45.59q0,5.32.43,6.57a1.9,1.9,0,0,0,2,1.25A2,2,0,0,0,759,52a29.56,29.56,0,0,0,.46-6.84Z"/>
    <path d="M808.84,1.29l9.1,61.19H801.68l-.85-11h-5.7l-1,11H777.73l8.11-61.19Zm-8.43,39.34Q799.2,30.24,798,14.93q-2.44,17.58-3.06,25.7Z"/>
    <path d="M820.65,1.29h11.9q11.54,0,15.59,1a12,12,0,0,1,6.18,3.48A10.91,10.91,0,0,1,857,11.21a81.75,81.75,0,0,1,.53,11.66V44.3c0,5.49-.26,9.17-.77,11A8.32,8.32,0,0,1,854,59.67a11.32,11.32,0,0,1-4.76,2.19,43.56,43.56,0,0,1-8.54.62H820.65Zm15.91,10.47V52q3.44,0,4.23-1.38t.8-7.5V19.35a31.38,31.38,0,0,0-.27-5.33,2.52,2.52,0,0,0-1.21-1.72A7.94,7.94,0,0,0,836.56,11.76Z"/>
    <path d="M897.15,19.81H882.37V15.27c0-2.12-.19-3.46-.56-4a2.1,2.1,0,0,0-1.9-.87,2.41,2.41,0,0,0-2.17,1.17,6.82,6.82,0,0,0-.74,3.56,10.09,10.09,0,0,0,.83,4.61q.79,1.55,4.5,3.74Q893,29.75,895.72,33.79t2.75,13c0,4.36-.51,7.58-1.53,9.64s-3,3.8-5.91,5.2a23.42,23.42,0,0,1-10.21,2.1,22.82,22.82,0,0,1-10.9-2.42A11.88,11.88,0,0,1,864,55.19a31.68,31.68,0,0,1-1.4-10.62v-4h14.78V48c0,2.29.21,3.76.63,4.42a2.41,2.41,0,0,0,2.21,1,2.59,2.59,0,0,0,2.36-1.25,7.06,7.06,0,0,0,.77-3.7q0-5.4-1.47-7.07t-7.45-5.56a75.2,75.2,0,0,1-7.86-5.7,13.45,13.45,0,0,1-3.19-4.92,21.48,21.48,0,0,1-1.27-8q0-7,1.8-10.28a12.09,12.09,0,0,1,5.8-5.09A23.19,23.19,0,0,1,879.39,0,25.28,25.28,0,0,1,890,2q4.37,2,5.78,5.05c.95,2,1.42,5.47,1.42,10.34Z"/>
    <path d="M911.89,50.5V56a20.7,20.7,0,0,1-1,7.07,10.37,10.37,0,0,1-3.53,4.69,13.77,13.77,0,0,1-5.69,2.57V65.92a4.65,4.65,0,0,0,2.57-3.44h-2.57v-12Z"/>
    <path d="M966,1.29V62.48H952.08l-8.27-27.82V62.48H930.5V1.29h13.31l8.92,27.55V1.29Z"/>
    <path d="M1008.78,37.12q0,9.23-.43,13.06a14.63,14.63,0,0,1-8.9,11.89,22.6,22.6,0,0,1-9.08,1.7,23.07,23.07,0,0,1-8.82-1.61,14.69,14.69,0,0,1-9.13-11.81A130.25,130.25,0,0,1,972,37.12V26.65q0-9.22.43-13.06A14.63,14.63,0,0,1,981.3,1.7,22.58,22.58,0,0,1,990.37,0a23.08,23.08,0,0,1,8.83,1.61,14.38,14.38,0,0,1,6.29,4.82,14.43,14.43,0,0,1,2.84,7,130.25,130.25,0,0,1,.45,13.23ZM992.87,17a19.14,19.14,0,0,0-.47-5.46,1.88,1.88,0,0,0-1.95-1.19,2.18,2.18,0,0,0-1.91,1q-.66,1-.66,5.69V45.59q0,5.32.43,6.57a1.91,1.91,0,0,0,2,1.25A2,2,0,0,0,992.42,52a30.4,30.4,0,0,0,.45-6.84Z"/>
    <path d="M1060.42,1.29V13.53H1051V62.48h-15.92V13.53h-9.41V1.29Z"/>
    <path d="M1064,1.29h11.27q11.26,0,15.25.86a10.46,10.46,0,0,1,6.5,4.45q2.52,3.57,2.52,11.39c0,4.77-.6,8-1.78,9.6s-3.52,2.62-7,2.95c3.15.78,5.26,1.83,6.35,3.14a9.45,9.45,0,0,1,2,3.61,57.43,57.43,0,0,1,.4,9.05V62.48H1084.8V42.15q0-4.92-.78-6.09c-.51-.78-1.87-1.17-4.06-1.17V62.48H1064ZM1080,11.76v13.6a7,7,0,0,0,3.76-.73c.72-.5,1.08-2.09,1.08-4.79V16.48c0-1.94-.35-3.21-1-3.82S1081.8,11.76,1080,11.76Z"/>
    <path d="M1133.25,1.29l9.1,61.19h-16.27l-.85-11h-5.69l-1,11h-16.45l8.12-61.19Zm-8.44,39.34q-1.2-10.39-2.42-25.7-2.43,17.58-3.06,25.7Z"/>
    <path d="M1145.05,1.29h27V13.53h-11V25.14h9.83V36.78H1161v25.7h-15.91Z"/>
    <path d="M1175.85,1.29h27V13.53h-11V25.14h9.83V36.78h-9.83v25.7h-15.92Z"/>
    <path d="M1222.58,1.29V62.48h-15.92V1.29Z"/>
    <path d="M1266.12,27.93h-15.91V17.3c0-3.09-.17-5-.51-5.79a2.19,2.19,0,0,0-2.25-1.15,2.36,2.36,0,0,0-2.5,1.4,21.3,21.3,0,0,0-.53,6V46.23a20,20,0,0,0,.53,5.82,2.27,2.27,0,0,0,2.38,1.36,2.24,2.24,0,0,0,2.33-1.36c.36-.91.55-3,.55-6.41V38h15.91v2.39q0,9.49-1.34,13.47a13.8,13.8,0,0,1-5.94,7,20.33,20.33,0,0,1-11.32,3A23.46,23.46,0,0,1,1236,61.23a12.31,12.31,0,0,1-6-7q-1.47-4.47-1.47-13.47V22.87A80,80,0,0,1,1229,13a14,14,0,0,1,2.71-6.37,15,15,0,0,1,6.23-4.82,25.5,25.5,0,0,1,20.77,1,13,13,0,0,1,6,6.77q1.44,4.06,1.44,12.63Z"/>
  </g>
</svg>
