<?xml version="1.0" encoding="utf-8"?>
<!-- Generator: Adobe Illustrator 27.1.1, SVG Export Plug-In . SVG Version: 6.00 Build 0)  -->
<svg version="1.1" id="Capa_1" xmlns="http://www.w3.org/2000/svg" xmlns:xlink="http://www.w3.org/1999/xlink" x="0px" y="0px"
	 viewBox="0 0 405 133" style="enable-background:new 0 0 405 133;" xml:space="preserve">
<g>
	<g>
		<g>
			<path d="M43.8,12v61.7h-16V47.8H23v25.9h-16V12h16v22.1h4.8V12L43.8,12L43.8,12z"/>
			<path d="M77.9,12l9.2,61.7H70.8l-0.9-11h-5.7l-1,11H46.6L54.8,12H77.9L77.9,12z M69.4,51.8c-0.8-7-1.6-15.6-2.5-25.9
				c-1.5,11.8-2.5,20.4-3,25.8L69.4,51.8z"/>
			<path d="M105.9,12v49.4h9.7v12.4H89.9V12H105.9z"/>
			<path d="M135.6,12v49.4h9.8v12.4h-25.8V12H135.6z"/>
			<path d="M199.6,48.1c0,6.2-0.2,10.6-0.4,13.3c-0.6,5.3-4,9.9-9,12c-2.9,1.2-6,1.8-9.1,1.7c-3,0-6-0.5-8.8-1.6
				c-5.1-2-8.6-6.7-9.3-12.1c-0.4-4.4-0.5-8.8-0.4-13.3V37.6c0-6.2,0.1-10.6,0.4-13.3c0.3-2.6,1.2-5,2.8-7.1
				c1.6-2.2,3.7-3.9,6.2-4.9c2.9-1.2,6-1.8,9.1-1.7c3,0,6,0.5,8.8,1.6c2.5,1,4.7,2.7,6.3,4.9c1.6,2.1,2.6,4.5,2.9,7
				c0.4,4.4,0.5,8.8,0.5,13.3L199.6,48.1z M183.6,27.8c0.1-1.8,0-3.7-0.5-5.5c-0.3-0.8-1.1-1.3-2-1.2c-0.8,0-1.5,0.3-1.9,1
				c-0.6,1.8-0.8,3.8-0.7,5.7v28.7c-0.1,2.2,0,4.4,0.4,6.6c0.5,1.1,1.8,1.6,2.9,1.2c0.6-0.3,1-0.7,1.2-1.4c0.4-2.3,0.6-4.6,0.5-6.9
				L183.6,27.8L183.6,27.8z"/>
			<path d="M205.6,12h27.2v12.3h-11V36h9.9v11.7h-9.9v25.9h-16.1V12z"/>
			<path d="M250.4,12h27.2v12.3h-11V36h9.9v11.7h-9.9v25.9h-16L250.4,12z"/>
			<path d="M307.7,12l9.2,61.7h-16.4l-0.9-11h-5.7l-1,11h-16.6l8.2-61.7H307.7L307.7,12z M299.2,51.8c-0.8-7-1.6-15.6-2.5-25.9
				c-1.6,11.8-2.7,20.4-3.1,25.9H299.2z"/>
			<path d="M369,12v61.7h-14V32l-5.6,41.7h-9.9L333.6,33v40.7h-14V12h20.7c0.6,3.7,1.3,8.1,1.9,13.1l2.2,15.7l3.7-28.7L369,12z"/>
			<path d="M375.5,12h26.7v12.3h-10.7V36h10v11.7h-10v13.6h11.8v12.4h-27.8V12L375.5,12z"/>
		</g>
		<polygon points="15.8,93.2 20.5,102.8 31.2,104.4 23.5,111.9 25.3,122.5 15.8,117.5 6.2,122.5 8,111.9 0.3,104.4 11,102.8 		"/>
		<polygon points="57.2,93.2 62,102.8 72.7,104.4 65,111.9 66.8,122.5 57.2,117.5 47.7,122.5 49.5,111.9 41.8,104.4 52.5,102.8 		
			"/>
		<polygon points="98.8,93.2 103.5,102.8 114.2,104.4 106.5,111.9 108.3,122.5 98.8,117.5 89.2,122.5 91.1,111.9 83.3,104.4 
			94,102.8 		"/>
		<polygon points="140.3,93.2 145,102.8 155.7,104.4 148,111.9 149.8,122.5 140.3,117.5 130.7,122.5 132.6,111.9 124.8,104.4 
			135.5,102.8 		"/>
		<polygon points="181.8,93.2 186.5,102.8 197.2,104.4 189.5,111.9 191.3,122.5 181.8,117.5 172.2,122.5 174,111.9 166.4,104.4 
			177,102.8 		"/>
		<polygon points="223.3,93.2 228,102.8 238.7,104.4 231,111.9 232.8,122.5 223.3,117.5 213.7,122.5 215.6,111.9 207.9,104.4 
			218.5,102.8 		"/>
		<polygon points="264.8,93.2 269.5,102.8 280.2,104.4 272.5,111.9 274.3,122.5 264.8,117.5 255.3,122.5 257.1,111.9 249.4,104.4 
			260,102.8 		"/>
		<polygon points="306.3,93.2 311,102.8 321.7,104.4 314,111.9 315.8,122.5 306.3,117.5 296.8,122.5 298.6,111.9 290.9,104.4 
			301.5,102.8 		"/>
		<polygon points="347.8,93.2 352.5,102.8 363.2,104.4 355.5,111.9 357.3,122.5 347.8,117.5 338.2,122.5 340.1,111.9 332.4,104.4 
			343,102.8 		"/>
		<polygon points="389.3,93.2 394,102.8 404.7,104.4 397,111.9 398.8,122.5 389.3,117.5 379.8,122.5 381.6,111.9 373.9,104.4 
			384.5,102.8 		"/>
	</g>
</g>
</svg>
