<?xml version="1.0" encoding="utf-8"?>
<!-- Generator: Adobe Illustrator 27.1.1, SVG Export Plug-In . SVG Version: 6.00 Build 0)  -->
<svg version="1.1" id="Capa_1" xmlns="http://www.w3.org/2000/svg" xmlns:xlink="http://www.w3.org/1999/xlink" x="0px" y="0px"
	 viewBox="0 0 405 187.3" style="enable-background:new 0 0 405 187.3;" xml:space="preserve">
<g>
	<g>
		<g>
			<path d="M44.8,16.8V0.8H55v2.8h-7v4.7h5.7v2.8H48v5.7H44.8z"/>
			<path d="M57,3.5V0.3h3.2v3.2H57z M57,16.8V5h3.2v11.8H57z"/>
			<path d="M66.3,16.8h-3.2V5h3.1v0.7c1.1-0.6,2.1-0.9,3-0.9c1.6,0,2.7,0.5,3.3,1.4c0.6,0.9,0.9,2.4,0.9,4.3v6.4h-3.2v-6.3
				c0-1-0.1-1.8-0.4-2.2c-0.2-0.5-0.7-0.7-1.4-0.7c-0.6,0-1.3,0.1-1.9,0.3L66.3,8V16.8z"/>
			<path d="M86.3,0.3v16.5h-3.1v-0.5c-1.1,0.5-2.1,0.8-2.9,0.8c-1.7,0-2.9-0.5-3.6-1.5c-0.7-1-1-2.6-1-4.7s0.4-3.7,1.2-4.7
				c0.8-1,2-1.5,3.7-1.5c0.5,0,1.2,0.1,2.1,0.2l0.4,0.1V0.3H86.3z M82.8,14l0.3-0.1V7.7c-0.9-0.2-1.6-0.2-2.3-0.2
				c-1.3,0-1.9,1.1-1.9,3.4c0,1.2,0.1,2.1,0.4,2.6c0.3,0.5,0.8,0.8,1.4,0.8C81.4,14.3,82,14.2,82.8,14z"/>
			<path d="M93.1,5h3.1l2.1,9.1h0.5l2.1-9.1h3.1l-4.2,16.8H97l1.3-5H96L93.1,5z"/>
			<path d="M106.7,6.3c0.8-1.1,2.2-1.6,4.2-1.6s3.3,0.5,4.2,1.6c0.8,1.1,1.3,2.6,1.3,4.5c0,4.1-1.8,6.2-5.4,6.2s-5.4-2.1-5.4-6.2
				C105.4,8.9,105.8,7.4,106.7,6.3z M109.1,13.6c0.3,0.6,0.9,0.9,1.7,0.9s1.4-0.3,1.7-0.9c0.3-0.6,0.5-1.5,0.5-2.7
				c0-1.2-0.2-2.1-0.5-2.6c-0.3-0.5-0.9-0.8-1.7-0.8s-1.4,0.3-1.7,0.8c-0.3,0.6-0.5,1.4-0.5,2.6C108.6,12.1,108.8,13,109.1,13.6z"/>
			<path d="M125.6,5h3.2v11.8h-3.1v-0.7c-1.1,0.6-2.1,0.9-3,0.9c-1.6,0-2.7-0.5-3.3-1.4c-0.6-0.9-0.9-2.4-0.9-4.5V5h3.2v6.2
				c0,1.2,0.1,2,0.3,2.4c0.2,0.4,0.6,0.6,1.4,0.6c0.7,0,1.3-0.1,2-0.3l0.3-0.1V5z"/>
			<path d="M131.7,16.8V5h3.1v1.3c1.3-0.8,2.6-1.3,3.8-1.5v3.2c-1.3,0.3-2.4,0.5-3.3,0.8l-0.5,0.2v7.9H131.7z"/>
			<path d="M149.3,7.7v9.1h-3.2V7.7h-1.3V5h1.3V4.5c0-1.7,0.3-2.9,0.8-3.5c0.5-0.6,1.4-1,2.7-1c0.6,0,1.3,0.1,2.2,0.2l0.5,0.1l0,2.6
				c-0.7,0-1.3,0-1.7,0c-0.5,0-0.8,0.1-0.9,0.4c-0.2,0.3-0.2,0.7-0.2,1.3V5h2.9v2.7H149.3z"/>
			<path d="M163.1,8.7v4.9c0,0.4,0.1,0.6,0.2,0.8c0.1,0.2,0.3,0.3,0.6,0.3l-0.1,2.4c-0.8,0-1.4-0.1-1.9-0.2c-0.5-0.1-1-0.3-1.5-0.7
				c-1.1,0.6-2.3,0.8-3.5,0.8c-2.4,0-3.7-1.3-3.7-3.9c0-1.3,0.3-2.2,1-2.7c0.7-0.5,1.7-0.8,3.1-0.9l2.5-0.2V8.7c0-0.5-0.1-0.8-0.3-1
				c-0.2-0.2-0.6-0.3-1.1-0.3l-4.4,0.2L154,5.4c1.7-0.5,3.3-0.7,4.8-0.7c1.5,0,2.6,0.3,3.3,0.9C162.7,6.3,163.1,7.3,163.1,8.7z
				 M157.7,11.8c-0.9,0.1-1.3,0.6-1.3,1.4c0,0.9,0.4,1.3,1.2,1.3c0.6,0,1.3-0.1,2-0.3l0.4-0.1v-2.5L157.7,11.8z"/>
			<path d="M165,5h3.3l1.9,9.1h0.7l2-9.1h3.2l-2.8,11.8h-5.4L165,5z"/>
			<path d="M178.6,6.3c0.8-1.1,2.2-1.6,4.2-1.6c2,0,3.3,0.5,4.2,1.6c0.8,1.1,1.3,2.6,1.3,4.5c0,4.1-1.8,6.2-5.4,6.2
				c-3.6,0-5.4-2.1-5.4-6.2C177.3,8.9,177.7,7.4,178.6,6.3z M181,13.6c0.3,0.6,0.9,0.9,1.7,0.9c0.8,0,1.4-0.3,1.7-0.9
				c0.3-0.6,0.5-1.5,0.5-2.7c0-1.2-0.2-2.1-0.5-2.6c-0.3-0.5-0.9-0.8-1.7-0.8c-0.8,0-1.4,0.3-1.7,0.8c-0.3,0.6-0.5,1.4-0.5,2.6
				C180.5,12.1,180.7,13,181,13.6z"/>
			<path d="M190.5,16.8V5h3.1v1.3c1.3-0.8,2.6-1.3,3.8-1.5v3.2c-1.3,0.3-2.4,0.5-3.3,0.8l-0.5,0.2v7.9H190.5z"/>
			<path d="M199.3,3.5V0.3h3.2v3.2H199.3z M199.3,16.8V5h3.2v11.8H199.3z"/>
			<path d="M211.9,7.7H209v4.8c0,0.5,0,0.8,0,1c0,0.2,0.1,0.4,0.3,0.5c0.2,0.1,0.4,0.2,0.7,0.2l1.8,0l0.1,2.5
				c-1.1,0.2-1.9,0.4-2.4,0.4c-1.4,0-2.4-0.3-2.9-1s-0.8-1.8-0.8-3.5V7.7h-1.4V5h1.4V1.7h3.2V5h2.9V7.7z"/>
			<path d="M217.1,13.8c0.4,0.3,0.9,0.5,1.6,0.5c1.5,0,2.8,0,3.9-0.1l0.7-0.1l0,2.3c-1.8,0.4-3.4,0.7-4.9,0.7
				c-1.8,0-3.1-0.5-3.9-1.4c-0.8-0.9-1.2-2.5-1.2-4.6c0-4.2,1.7-6.4,5.2-6.4c3.4,0,5.1,1.8,5.1,5.3l-0.2,2.2h-6.9
				C216.5,13,216.7,13.5,217.1,13.8z M220.5,9.8c0-0.9-0.2-1.6-0.4-2c-0.3-0.4-0.8-0.6-1.6-0.6s-1.3,0.2-1.6,0.6
				c-0.3,0.4-0.5,1-0.5,1.9H220.5z"/>
		</g>
	</g>
	<g>
		<g>
			<path d="M231.1,16.8V0.3h3.2v16.5H231.1z"/>
			<path d="M240.5,13.8c0.4,0.3,0.9,0.5,1.6,0.5c1.5,0,2.8,0,3.9-0.1l0.7-0.1l0,2.3c-1.8,0.4-3.4,0.7-4.9,0.7
				c-1.8,0-3.1-0.5-3.9-1.4c-0.8-0.9-1.2-2.5-1.2-4.6c0-4.2,1.7-6.4,5.2-6.4c3.4,0,5.1,1.8,5.1,5.3l-0.2,2.2h-6.9
				C239.9,13,240.1,13.5,240.5,13.8z M243.9,9.8c0-0.9-0.2-1.6-0.4-2c-0.3-0.4-0.8-0.6-1.6-0.6s-1.3,0.2-1.6,0.6
				c-0.3,0.4-0.5,1-0.5,1.9H243.9z"/>
			<path d="M260,18.3c0,1.3-0.5,2.3-1.6,3c-1,0.6-2.4,1-4.2,1c-1.8,0-3.1-0.2-4.1-0.7s-1.4-1.3-1.4-2.6c0-1,0.6-1.9,1.7-2.8
				c-0.6-0.4-0.9-1-0.9-1.8c0-0.3,0.2-0.8,0.7-1.6l0.2-0.3c-1.1-0.8-1.6-1.9-1.6-3.4c0-1.5,0.5-2.6,1.4-3.3s2.1-1,3.6-1
				c0.7,0,1.3,0.1,2,0.2l0.4,0.1L260,5v2.5l-1.8-0.1c0.3,0.5,0.5,1.1,0.5,1.6c0,1.6-0.4,2.7-1.2,3.3c-0.8,0.6-2.1,0.9-3.8,0.9
				c-0.4,0-0.7,0-1-0.1c-0.2,0.4-0.2,0.7-0.2,1c0,0.3,0.1,0.4,0.4,0.5c0.3,0.1,0.9,0.1,1.9,0.2c2,0,3.3,0.3,4.1,0.8
				C259.7,16,260,16.9,260,18.3z M251.9,18.6c0,0.7,0.8,1,2.5,1c1.7,0,2.5-0.4,2.5-1.2c0-0.4-0.1-0.7-0.4-0.8
				c-0.3-0.1-0.9-0.2-1.8-0.2l-2.1-0.2C252.1,17.7,251.9,18.2,251.9,18.6z M252.1,9c0,1.2,0.6,1.7,1.8,1.7c1.2,0,1.8-0.6,1.8-1.7
				s-0.6-1.7-1.8-1.7C252.7,7.2,252.1,7.8,252.1,9z"/>
			<path d="M265.1,13.8c0.4,0.3,0.9,0.5,1.6,0.5c1.5,0,2.8,0,3.9-0.1l0.7-0.1l0,2.3c-1.8,0.4-3.4,0.7-4.9,0.7
				c-1.8,0-3.1-0.5-3.9-1.4c-0.8-0.9-1.2-2.5-1.2-4.6c0-4.2,1.7-6.4,5.2-6.4c3.4,0,5.1,1.8,5.1,5.3l-0.2,2.2h-6.9
				C264.6,13,264.8,13.5,265.1,13.8z M268.6,9.8c0-0.9-0.2-1.6-0.4-2c-0.3-0.4-0.8-0.6-1.6-0.6c-0.7,0-1.3,0.2-1.6,0.6
				c-0.3,0.4-0.5,1-0.5,1.9H268.6z"/>
			<path d="M277.2,16.8H274V5h3.1v0.7c1.1-0.6,2.1-0.9,3-0.9c1.6,0,2.7,0.5,3.3,1.4c0.6,0.9,0.9,2.4,0.9,4.3v6.4h-3.2v-6.3
				c0-1-0.1-1.8-0.4-2.2c-0.2-0.5-0.7-0.7-1.4-0.7c-0.6,0-1.3,0.1-1.9,0.3L277.2,8V16.8z"/>
			<path d="M297.1,0.3v16.5H294v-0.5c-1.1,0.5-2.1,0.8-2.9,0.8c-1.7,0-2.9-0.5-3.6-1.5c-0.7-1-1-2.6-1-4.7s0.4-3.7,1.2-4.7
				c0.8-1,2-1.5,3.7-1.5c0.5,0,1.2,0.1,2.1,0.2l0.4,0.1V0.3H297.1z M293.6,14l0.3-0.1V7.7c-0.9-0.2-1.6-0.2-2.3-0.2
				c-1.3,0-1.9,1.1-1.9,3.4c0,1.2,0.1,2.1,0.4,2.6c0.3,0.5,0.7,0.8,1.4,0.8C292.2,14.3,292.9,14.2,293.6,14z"/>
		</g>
	</g>
	<g>
		<g>
			<path d="M305.1,3.5V0.3h3.2v3.2H305.1z M305.1,16.8V5h3.2v11.8H305.1z"/>
			<path d="M314.4,16.8h-3.2V5h3.1v0.7c1.1-0.6,2.1-0.9,3-0.9c1.6,0,2.7,0.5,3.3,1.4c0.6,0.9,0.9,2.4,0.9,4.3v6.4h-3.2v-6.3
				c0-1-0.1-1.8-0.4-2.2c-0.2-0.5-0.7-0.7-1.4-0.7c-0.6,0-1.3,0.1-1.9,0.3L314.4,8V16.8z"/>
			<path d="M335.8,7.7h-2.9v4.8c0,0.5,0,0.8,0,1c0,0.2,0.1,0.4,0.3,0.5c0.2,0.1,0.4,0.2,0.7,0.2l1.8,0l0.1,2.5
				c-1.1,0.2-1.9,0.4-2.4,0.4c-1.4,0-2.4-0.3-2.9-1c-0.5-0.6-0.8-1.8-0.8-3.5V7.7h-1.4V5h1.4V1.7h3.2V5h2.9V7.7z"/>
			<path d="M340.9,16.8h-3.2V0.3h3.2v5.3c1.1-0.6,2.1-0.9,2.9-0.9c1.6,0,2.7,0.5,3.3,1.4c0.6,0.9,0.9,2.4,0.9,4.3v6.4h-3.2v-6.3
				c0-1-0.1-1.7-0.4-2.2c-0.2-0.5-0.7-0.7-1.4-0.7c-0.6,0-1.2,0.1-1.8,0.3l-0.3,0.1V16.8z"/>
			<path d="M354,13.8c0.4,0.3,0.9,0.5,1.6,0.5c1.5,0,2.8,0,3.9-0.1l0.7-0.1l0,2.3c-1.8,0.4-3.4,0.7-4.9,0.7c-1.8,0-3.1-0.5-3.9-1.4
				c-0.8-0.9-1.2-2.5-1.2-4.6c0-4.2,1.7-6.4,5.2-6.4c3.4,0,5.1,1.8,5.1,5.3l-0.2,2.2h-6.9C353.4,13,353.6,13.5,354,13.8z M357.5,9.8
				c0-0.9-0.2-1.6-0.4-2c-0.3-0.4-0.8-0.6-1.6-0.6c-0.7,0-1.3,0.2-1.6,0.6c-0.3,0.4-0.5,1-0.5,1.9H357.5z"/>
		</g>
	</g>
	<g>
		<g>
			<path d="M49.1,28.5v16.5H46v-0.5c-1.1,0.5-2.1,0.8-2.9,0.8c-1.7,0-2.9-0.5-3.6-1.5c-0.7-1-1-2.6-1-4.7c0-2.1,0.4-3.7,1.2-4.7
				c0.8-1,2-1.5,3.7-1.5c0.5,0,1.2,0.1,2.1,0.2l0.4,0.1v-4.8H49.1z M45.6,42.2l0.3-0.1v-6.2c-0.9-0.2-1.6-0.2-2.3-0.2
				c-1.3,0-1.9,1.1-1.9,3.4c0,1.2,0.1,2.1,0.4,2.6s0.8,0.8,1.4,0.8C44.2,42.5,44.9,42.4,45.6,42.2z"/>
			<path d="M52.1,31.7v-3.2h3.2v3.2H52.1z M52.1,45.1V33.2h3.2v11.8H52.1z"/>
			<path d="M62,35.9v9.1h-3.2v-9.1h-1.3v-2.7h1.3v-0.5c0-1.7,0.3-2.9,0.8-3.5c0.5-0.6,1.4-1,2.7-1c0.6,0,1.3,0.1,2.2,0.2l0.5,0.1
				l0,2.6c-0.7,0-1.3,0-1.7,0c-0.5,0-0.8,0.1-0.9,0.4C62,31.7,62,32.1,62,32.7v0.5h2.9v2.7H62z"/>
			<path d="M70.5,35.9v9.1h-3.2v-9.1H66v-2.7h1.3v-0.5c0-1.7,0.3-2.9,0.8-3.5c0.5-0.6,1.4-1,2.7-1c0.6,0,1.3,0.1,2.2,0.2l0.5,0.1
				l0,2.6c-0.7,0-1.3,0-1.7,0c-0.5,0-0.8,0.1-0.9,0.4c-0.2,0.3-0.2,0.7-0.2,1.3v0.5h2.9v2.7H70.5z"/>
			<path d="M78.4,42.1c0.4,0.3,0.9,0.5,1.6,0.5c1.5,0,2.8,0,3.9-0.1l0.7-0.1l0,2.3c-1.8,0.4-3.4,0.7-4.9,0.7c-1.8,0-3.1-0.5-3.9-1.4
				c-0.8-0.9-1.2-2.5-1.2-4.6c0-4.2,1.7-6.4,5.2-6.4c3.4,0,5.1,1.8,5.1,5.3l-0.2,2.2h-6.9C77.8,41.2,78,41.7,78.4,42.1z M81.8,38.1
				c0-0.9-0.2-1.6-0.4-2c-0.3-0.4-0.8-0.6-1.6-0.6c-0.7,0-1.3,0.2-1.6,0.6c-0.3,0.4-0.5,1-0.5,1.9H81.8z"/>
			<path d="M87.2,45.1V33.2h3.1v1.3c1.3-0.8,2.6-1.3,3.8-1.5v3.2c-1.3,0.3-2.4,0.5-3.3,0.8l-0.5,0.2v7.9H87.2z"/>
			<path d="M99.2,42.1c0.4,0.3,0.9,0.5,1.6,0.5c1.5,0,2.8,0,3.9-0.1l0.7-0.1l0,2.3c-1.8,0.4-3.4,0.7-4.9,0.7c-1.8,0-3.1-0.5-3.9-1.4
				c-0.8-0.9-1.2-2.5-1.2-4.6c0-4.2,1.7-6.4,5.2-6.4c3.4,0,5.1,1.8,5.1,5.3l-0.2,2.2h-6.9C98.6,41.2,98.8,41.7,99.2,42.1z
				 M102.7,38.1c0-0.9-0.2-1.6-0.4-2c-0.3-0.4-0.8-0.6-1.6-0.6c-0.7,0-1.3,0.2-1.6,0.6c-0.3,0.4-0.5,1-0.5,1.9H102.7z"/>
			<path d="M111.2,45.1h-3.2V33.2h3.1v0.7c1.1-0.6,2.1-0.9,3-0.9c1.6,0,2.7,0.5,3.3,1.4s0.9,2.4,0.9,4.3v6.4h-3.2v-6.3
				c0-1-0.1-1.8-0.4-2.2s-0.7-0.7-1.4-0.7c-0.6,0-1.3,0.1-1.9,0.3l-0.3,0.1V45.1z"/>
			<path d="M127.7,35.9h-2.9v4.8c0,0.5,0,0.8,0,1c0,0.2,0.1,0.4,0.3,0.5s0.4,0.2,0.7,0.2l1.8,0l0.1,2.5c-1.1,0.2-1.9,0.4-2.4,0.4
				c-1.4,0-2.4-0.3-2.9-1c-0.5-0.6-0.8-1.8-0.8-3.5v-4.9h-1.4v-2.7h1.4V30h3.2v3.3h2.9V35.9z"/>
			<path d="M142.8,36.2c-2-0.3-3.3-0.4-4.1-0.4c-0.8,0-1.3,0.1-1.5,0.2c-0.2,0.1-0.3,0.4-0.3,0.7s0.2,0.5,0.5,0.6
				c0.3,0.1,1.1,0.3,2.4,0.5c1.3,0.2,2.2,0.6,2.7,1.1c0.5,0.5,0.8,1.4,0.8,2.5c0,2.6-1.6,3.8-4.7,3.8c-1,0-2.3-0.1-3.8-0.4l-0.8-0.1
				l0.1-2.6c2,0.3,3.3,0.4,4.1,0.4s1.3-0.1,1.6-0.2c0.3-0.2,0.4-0.4,0.4-0.7c0-0.3-0.1-0.5-0.4-0.7c-0.3-0.1-1-0.3-2.3-0.5
				c-1.2-0.2-2.1-0.5-2.7-1c-0.6-0.5-0.9-1.4-0.9-2.6c0-1.3,0.4-2.2,1.3-2.8c0.9-0.6,1.9-1,3.3-1c0.9,0,2.2,0.2,3.8,0.4l0.8,0.1
				L142.8,36.2z"/>
			<path d="M145.3,50V33.2h3.1v0.6c1-0.6,1.9-0.9,2.7-0.9c1.6,0,2.8,0.5,3.5,1.4c0.8,1,1.1,2.6,1.1,4.9s-0.4,3.9-1.3,4.8
				c-0.8,0.9-2.2,1.3-4.1,1.3c-0.5,0-1.1,0-1.7-0.1l-0.3,0V50H145.3z M150.6,35.8c-0.6,0-1.2,0.1-1.8,0.4l-0.3,0.1v6.2
				c0.7,0.1,1.3,0.1,1.7,0.1c0.9,0,1.5-0.3,1.9-0.8c0.3-0.5,0.5-1.4,0.5-2.7C152.6,36.9,151.9,35.8,150.6,35.8z"/>
			<path d="M158.8,34.6c0.8-1.1,2.2-1.6,4.2-1.6c2,0,3.3,0.5,4.2,1.6c0.8,1.1,1.3,2.6,1.3,4.5c0,4.1-1.8,6.2-5.4,6.2
				c-3.6,0-5.4-2.1-5.4-6.2C157.6,37.2,158,35.7,158.8,34.6z M161.3,41.8c0.3,0.6,0.9,0.9,1.7,0.9c0.8,0,1.4-0.3,1.7-0.9
				s0.5-1.5,0.5-2.7c0-1.2-0.2-2.1-0.5-2.6c-0.3-0.5-0.9-0.8-1.7-0.8c-0.8,0-1.4,0.3-1.7,0.8c-0.3,0.6-0.5,1.4-0.5,2.6
				C160.8,40.3,160.9,41.2,161.3,41.8z"/>
			<path d="M170.8,45.1V33.2h3.1v1.3c1.3-0.8,2.6-1.3,3.8-1.5v3.2c-1.3,0.3-2.4,0.5-3.3,0.8l-0.5,0.2v7.9H170.8z"/>
			<path d="M186.1,35.9h-2.9v4.8c0,0.5,0,0.8,0,1c0,0.2,0.1,0.4,0.3,0.5s0.4,0.2,0.7,0.2l1.8,0l0.1,2.5c-1.1,0.2-1.9,0.4-2.4,0.4
				c-1.4,0-2.4-0.3-2.9-1c-0.5-0.6-0.8-1.8-0.8-3.5v-4.9h-1.4v-2.7h1.4V30h3.2v3.3h2.9V35.9z"/>
			<path d="M196.4,36.2c-2-0.3-3.3-0.4-4.1-0.4c-0.8,0-1.3,0.1-1.5,0.2c-0.2,0.1-0.3,0.4-0.3,0.7s0.2,0.5,0.5,0.6
				c0.3,0.1,1.1,0.3,2.4,0.5c1.3,0.2,2.2,0.6,2.7,1.1c0.5,0.5,0.8,1.4,0.8,2.5c0,2.6-1.6,3.8-4.7,3.8c-1,0-2.3-0.1-3.8-0.4l-0.8-0.1
				l0.1-2.6c2,0.3,3.3,0.4,4.1,0.4s1.3-0.1,1.6-0.2c0.3-0.2,0.4-0.4,0.4-0.7c0-0.3-0.1-0.5-0.4-0.7c-0.3-0.1-1-0.3-2.3-0.5
				c-1.2-0.2-2.1-0.5-2.7-1c-0.6-0.5-0.9-1.4-0.9-2.6c0-1.3,0.4-2.2,1.3-2.8c0.9-0.6,1.9-1,3.3-1c0.9,0,2.2,0.2,3.8,0.4l0.8,0.1
				L196.4,36.2z"/>
			<path d="M209.1,33c0.8,0,1.9,0.1,3.1,0.4l0.6,0.1l-0.1,2.5c-1.2-0.1-2.2-0.2-2.8-0.2c-1.1,0-1.8,0.2-2.2,0.7
				c-0.4,0.5-0.5,1.3-0.5,2.6c0,1.3,0.2,2.2,0.5,2.7c0.4,0.5,1.1,0.7,2.2,0.7l2.7-0.2l0.1,2.5c-1.7,0.3-3,0.5-3.9,0.5
				c-1.7,0-3-0.5-3.8-1.5c-0.8-1-1.1-2.6-1.1-4.7c0-2.2,0.4-3.7,1.2-4.7C206,33.4,207.3,33,209.1,33z"/>
			<path d="M224.2,36.9v4.9c0,0.4,0.1,0.6,0.2,0.8c0.1,0.2,0.3,0.3,0.6,0.3l-0.1,2.4c-0.8,0-1.4-0.1-1.9-0.2c-0.5-0.1-1-0.3-1.5-0.7
				c-1.1,0.6-2.3,0.8-3.5,0.8c-2.4,0-3.7-1.3-3.7-3.9c0-1.3,0.3-2.2,1-2.7c0.7-0.5,1.7-0.8,3.1-0.9l2.5-0.2v-0.7
				c0-0.5-0.1-0.8-0.3-1c-0.2-0.2-0.6-0.3-1.1-0.3l-4.4,0.2l-0.1-2.2c1.7-0.5,3.3-0.7,4.8-0.7c1.5,0,2.6,0.3,3.3,0.9
				C223.9,34.5,224.2,35.5,224.2,36.9z M218.9,40c-0.9,0.1-1.3,0.6-1.3,1.4c0,0.9,0.4,1.3,1.2,1.3c0.6,0,1.3-0.1,2-0.3l0.4-0.1v-2.5
				L218.9,40z"/>
			<path d="M233.8,35.9h-2.9v4.8c0,0.5,0,0.8,0,1c0,0.2,0.1,0.4,0.3,0.5c0.2,0.1,0.4,0.2,0.7,0.2l1.8,0l0.1,2.5
				c-1.1,0.2-1.9,0.4-2.4,0.4c-1.4,0-2.4-0.3-2.9-1c-0.5-0.6-0.8-1.8-0.8-3.5v-4.9h-1.4v-2.7h1.4V30h3.2v3.3h2.9V35.9z"/>
			<path d="M238.9,42.1c0.4,0.3,0.9,0.5,1.6,0.5c1.5,0,2.8,0,3.9-0.1l0.7-0.1l0,2.3c-1.8,0.4-3.4,0.7-4.9,0.7
				c-1.8,0-3.1-0.5-3.9-1.4c-0.8-0.9-1.2-2.5-1.2-4.6c0-4.2,1.7-6.4,5.2-6.4c3.4,0,5.1,1.8,5.1,5.3l-0.2,2.2h-6.9
				C238.3,41.2,238.5,41.7,238.9,42.1z M242.4,38.1c0-0.9-0.2-1.6-0.4-2c-0.3-0.4-0.8-0.6-1.6-0.6s-1.3,0.2-1.6,0.6
				c-0.3,0.4-0.5,1-0.5,1.9H242.4z"/>
			<path d="M258.4,46.5c0,1.3-0.5,2.3-1.6,3c-1,0.6-2.4,1-4.2,1s-3.1-0.2-4.1-0.7c-1-0.5-1.4-1.3-1.4-2.6c0-1,0.6-1.9,1.7-2.8
				c-0.6-0.4-0.9-1-0.9-1.8c0-0.3,0.2-0.8,0.7-1.6l0.2-0.3c-1.1-0.8-1.6-1.9-1.6-3.4c0-1.5,0.5-2.6,1.4-3.3c0.9-0.7,2.1-1,3.6-1
				c0.7,0,1.3,0.1,2,0.2l0.4,0.1l3.8-0.1v2.5l-1.8-0.1c0.3,0.5,0.5,1.1,0.5,1.6c0,1.6-0.4,2.7-1.2,3.3c-0.8,0.6-2.1,0.9-3.8,0.9
				c-0.4,0-0.7,0-1-0.1c-0.2,0.4-0.2,0.7-0.2,1c0,0.3,0.1,0.4,0.4,0.5c0.3,0.1,0.9,0.1,1.9,0.2c2,0,3.3,0.3,4.1,0.8
				C258.1,44.3,258.4,45.2,258.4,46.5z M250.3,46.9c0,0.7,0.8,1,2.5,1c1.7,0,2.5-0.4,2.5-1.2c0-0.4-0.1-0.7-0.4-0.8
				c-0.3-0.1-0.9-0.2-1.8-0.2l-2.1-0.2C250.5,46,250.3,46.4,250.3,46.9z M250.5,37.2c0,1.2,0.6,1.7,1.8,1.7c1.2,0,1.8-0.6,1.8-1.7
				c0-1.2-0.6-1.7-1.8-1.7C251.1,35.5,250.5,36,250.5,37.2z"/>
			<path d="M261,34.6c0.8-1.1,2.2-1.6,4.2-1.6c2,0,3.3,0.5,4.2,1.6c0.8,1.1,1.3,2.6,1.3,4.5c0,4.1-1.8,6.2-5.4,6.2
				c-3.6,0-5.4-2.1-5.4-6.2C259.7,37.2,260.2,35.7,261,34.6z M263.4,41.8c0.3,0.6,0.9,0.9,1.7,0.9c0.8,0,1.4-0.3,1.7-0.9
				c0.3-0.6,0.5-1.5,0.5-2.7c0-1.2-0.2-2.1-0.5-2.6c-0.3-0.5-0.9-0.8-1.7-0.8c-0.8,0-1.4,0.3-1.7,0.8c-0.3,0.6-0.5,1.4-0.5,2.6
				C262.9,40.3,263.1,41.2,263.4,41.8z"/>
			<path d="M272.9,45.1V33.2h3.1v1.3c1.3-0.8,2.6-1.3,3.8-1.5v3.2c-1.3,0.3-2.4,0.5-3.3,0.8l-0.5,0.2v7.9H272.9z"/>
			<path d="M281.7,31.7v-3.2h3.2v3.2H281.7z M281.7,45.1V33.2h3.2v11.8H281.7z"/>
			<path d="M291,42.1c0.4,0.3,0.9,0.5,1.6,0.5c1.5,0,2.8,0,3.9-0.1l0.7-0.1l0,2.3c-1.8,0.4-3.4,0.7-4.9,0.7c-1.8,0-3.1-0.5-3.9-1.4
				c-0.8-0.9-1.2-2.5-1.2-4.6c0-4.2,1.7-6.4,5.2-6.4c3.4,0,5.1,1.8,5.1,5.3l-0.2,2.2h-6.9C290.4,41.2,290.6,41.7,291,42.1z
				 M294.5,38.1c0-0.9-0.2-1.6-0.4-2c-0.3-0.4-0.8-0.6-1.6-0.6c-0.7,0-1.3,0.2-1.6,0.6c-0.3,0.4-0.5,1-0.5,1.9H294.5z"/>
			<path d="M308.3,36.2c-2-0.3-3.3-0.4-4.1-0.4c-0.8,0-1.3,0.1-1.5,0.2c-0.2,0.1-0.3,0.4-0.3,0.7s0.2,0.5,0.5,0.6
				c0.3,0.1,1.1,0.3,2.4,0.5c1.3,0.2,2.2,0.6,2.7,1.1c0.5,0.5,0.8,1.4,0.8,2.5c0,2.6-1.6,3.8-4.7,3.8c-1,0-2.3-0.1-3.8-0.4l-0.8-0.1
				l0.1-2.6c2,0.3,3.3,0.4,4.1,0.4c0.8,0,1.3-0.1,1.6-0.2c0.3-0.2,0.4-0.4,0.4-0.7c0-0.3-0.1-0.5-0.4-0.7c-0.3-0.1-1-0.3-2.3-0.5
				c-1.2-0.2-2.1-0.5-2.7-1c-0.6-0.5-0.9-1.4-0.9-2.6c0-1.3,0.4-2.2,1.3-2.8c0.9-0.6,1.9-1,3.3-1c0.9,0,2.2,0.2,3.8,0.4l0.8,0.1
				L308.3,36.2z"/>
			<path d="M319.3,45.1h-3.2V28.5h3.2v5.3c1.1-0.6,2.1-0.9,2.9-0.9c1.6,0,2.7,0.5,3.3,1.4c0.6,0.9,0.9,2.4,0.9,4.3v6.4h-3.2v-6.3
				c0-1-0.1-1.7-0.4-2.2c-0.2-0.5-0.7-0.7-1.4-0.7c-0.6,0-1.2,0.1-1.8,0.3l-0.3,0.1V45.1z"/>
			<path d="M332.4,42.1c0.4,0.3,0.9,0.5,1.6,0.5c1.5,0,2.8,0,3.9-0.1l0.7-0.1l0,2.3c-1.8,0.4-3.4,0.7-4.9,0.7
				c-1.8,0-3.1-0.5-3.9-1.4c-0.8-0.9-1.2-2.5-1.2-4.6c0-4.2,1.7-6.4,5.2-6.4c3.4,0,5.1,1.8,5.1,5.3l-0.2,2.2h-6.9
				C331.8,41.2,332,41.7,332.4,42.1z M335.9,38.1c0-0.9-0.2-1.6-0.4-2c-0.3-0.4-0.8-0.6-1.6-0.6c-0.7,0-1.3,0.2-1.6,0.6
				c-0.3,0.4-0.5,1-0.5,1.9H335.9z"/>
			<path d="M341.2,45.1V33.2h3.1v1.3c1.3-0.8,2.6-1.3,3.8-1.5v3.2c-1.3,0.3-2.4,0.5-3.3,0.8l-0.5,0.2v7.9H341.2z"/>
			<path d="M353.2,42.1c0.4,0.3,0.9,0.5,1.6,0.5c1.5,0,2.8,0,3.9-0.1l0.7-0.1l0,2.3c-1.8,0.4-3.4,0.7-4.9,0.7
				c-1.8,0-3.1-0.5-3.9-1.4c-0.8-0.9-1.2-2.5-1.2-4.6c0-4.2,1.7-6.4,5.2-6.4c3.4,0,5.1,1.8,5.1,5.3l-0.2,2.2h-6.9
				C352.6,41.2,352.8,41.7,353.2,42.1z M356.7,38.1c0-0.9-0.2-1.6-0.4-2c-0.3-0.4-0.8-0.6-1.6-0.6c-0.7,0-1.3,0.2-1.6,0.6
				c-0.3,0.4-0.5,1-0.5,1.9H356.7z"/>
		</g>
	</g>
	<g>
		<g>
			<path d="M361.9,45.1v-3.9h3.4v3.9H361.9z"/>
		</g>
	</g>
	<g>
		<g>
			<path d="M10.1,85.5h6.3c1.7,0,2.9,0.3,3.8,1c0.8,0.7,1.3,1.8,1.3,3.2c0,0.9-0.1,1.6-0.4,2.1c-0.3,0.5-0.7,1-1.4,1.4
				c0.7,0.3,1.2,0.7,1.6,1.3c0.3,0.6,0.5,1.4,0.5,2.4c0,1.6-0.5,2.7-1.4,3.5c-0.9,0.8-2.2,1.1-3.9,1.1h-6.4V85.5z M16.3,88.3h-2.9
				v3.8h2.9c1.2,0,1.8-0.6,1.8-1.9C18.1,88.9,17.5,88.3,16.3,88.3z M16.3,94.8h-3v3.9h3c0.7,0,1.2-0.1,1.6-0.4
				c0.3-0.3,0.5-0.8,0.5-1.6C18.4,95.5,17.7,94.8,16.3,94.8z"/>
			<path d="M27.4,98.5c0.4,0.3,0.9,0.5,1.6,0.5c1.5,0,2.8,0,3.9-0.1l0.7-0.1l0,2.3c-1.8,0.4-3.4,0.7-4.9,0.7c-1.8,0-3.1-0.5-3.9-1.4
				c-0.8-0.9-1.2-2.5-1.2-4.6c0-4.2,1.7-6.4,5.2-6.4c3.4,0,5.1,1.8,5.1,5.3L33.8,97h-6.9C26.8,97.7,27,98.2,27.4,98.5z M30.9,94.6
				c0-0.9-0.2-1.6-0.4-2c-0.3-0.4-0.8-0.6-1.6-0.6c-0.7,0-1.3,0.2-1.6,0.6c-0.3,0.4-0.5,1-0.5,1.9H30.9z"/>
			<path d="M40.7,89.4c0.8,0,1.9,0.1,3.1,0.4l0.6,0.1l-0.1,2.5c-1.2-0.1-2.2-0.2-2.8-0.2c-1.1,0-1.8,0.2-2.2,0.7
				c-0.4,0.5-0.5,1.3-0.5,2.6c0,1.3,0.2,2.2,0.5,2.7c0.4,0.5,1.1,0.7,2.2,0.7l2.7-0.2l0.1,2.5c-1.7,0.3-3,0.5-3.8,0.5
				c-1.7,0-3-0.5-3.8-1.5c-0.8-1-1.1-2.6-1.1-4.7c0-2.2,0.4-3.7,1.2-4.7C37.7,89.9,38.9,89.4,40.7,89.4z"/>
			<path d="M47.4,91.1c0.8-1.1,2.2-1.6,4.2-1.6c2,0,3.3,0.5,4.2,1.6c0.8,1.1,1.3,2.6,1.3,4.5c0,4.1-1.8,6.2-5.4,6.2
				c-3.6,0-5.4-2.1-5.4-6.2C46.2,93.6,46.6,92.1,47.4,91.1z M49.9,98.3c0.3,0.6,0.9,0.9,1.7,0.9c0.8,0,1.4-0.3,1.7-0.9
				s0.5-1.5,0.5-2.7c0-1.2-0.2-2.1-0.5-2.6c-0.3-0.5-0.9-0.8-1.7-0.8c-0.8,0-1.4,0.3-1.7,0.8c-0.3,0.6-0.5,1.4-0.5,2.6
				C49.4,96.8,49.5,97.7,49.9,98.3z"/>
			<path d="M62.5,101.5h-3.2V89.7h3.1v0.7c1.1-0.6,2-0.9,2.8-0.9c1.3,0,2.3,0.4,3,1.1c1.4-0.7,2.8-1.1,4-1.1c1.6,0,2.6,0.5,3.2,1.4
				c0.6,0.9,0.9,2.4,0.9,4.3v6.4h-3.2v-6.3c0-1-0.1-1.8-0.3-2.2c-0.2-0.5-0.7-0.7-1.3-0.7c-0.5,0-1.1,0.1-1.8,0.3l-0.4,0.1
				c0.1,1.2,0.1,2.1,0.1,2.7v6.1h-3.2v-6.1c0-1.2-0.1-2-0.3-2.5c-0.2-0.5-0.7-0.7-1.3-0.7c-0.6,0-1.2,0.1-1.8,0.3l-0.3,0.1V101.5z"
				/>
			<path d="M82.3,98.5c0.4,0.3,0.9,0.5,1.6,0.5c1.5,0,2.8,0,3.9-0.1l0.7-0.1l0,2.3c-1.8,0.4-3.4,0.7-4.9,0.7c-1.8,0-3.1-0.5-3.9-1.4
				c-0.8-0.9-1.2-2.5-1.2-4.6c0-4.2,1.7-6.4,5.2-6.4c3.4,0,5.1,1.8,5.1,5.3L88.7,97h-6.9C81.8,97.7,82,98.2,82.3,98.5z M85.8,94.6
				c0-0.9-0.2-1.6-0.4-2c-0.3-0.4-0.8-0.6-1.6-0.6c-0.7,0-1.3,0.2-1.6,0.6c-0.3,0.4-0.5,1-0.5,1.9H85.8z"/>
		</g>
	</g>
	<g>
		<g>
			<path d="M95.1,89.7h3.1l2.1,9.1h0.5l2.1-9.1h3.1l-4.2,16.8h-3.1l1.3-5H98L95.1,89.7z"/>
			<path d="M108.6,91.1c0.8-1.1,2.2-1.6,4.2-1.6s3.3,0.5,4.2,1.6c0.8,1.1,1.3,2.6,1.3,4.5c0,4.1-1.8,6.2-5.4,6.2s-5.4-2.1-5.4-6.2
				C107.3,93.6,107.8,92.1,108.6,91.1z M111,98.3c0.3,0.6,0.9,0.9,1.7,0.9s1.4-0.3,1.7-0.9c0.3-0.6,0.5-1.5,0.5-2.7
				c0-1.2-0.2-2.1-0.5-2.6c-0.3-0.5-0.9-0.8-1.7-0.8s-1.4,0.3-1.7,0.8c-0.3,0.6-0.5,1.4-0.5,2.6C110.6,96.8,110.7,97.7,111,98.3z"/>
			<path d="M127.5,89.7h3.2v11.8h-3.1v-0.7c-1.1,0.6-2.1,0.9-3,0.9c-1.6,0-2.7-0.5-3.3-1.4c-0.6-0.9-0.9-2.4-0.9-4.5v-6.2h3.2V96
				c0,1.2,0.1,2,0.3,2.4c0.2,0.4,0.6,0.6,1.4,0.6c0.7,0,1.3-0.1,2-0.3l0.3-0.1V89.7z"/>
			<path d="M133.6,101.5V89.7h3.1V91c1.3-0.8,2.6-1.3,3.8-1.5v3.2c-1.3,0.3-2.4,0.5-3.3,0.8l-0.5,0.2v7.9H133.6z"/>
			<path d="M150.8,92.7c-2-0.3-3.3-0.4-4.1-0.4c-0.8,0-1.3,0.1-1.5,0.2c-0.2,0.1-0.3,0.4-0.3,0.7c0,0.3,0.2,0.5,0.5,0.6
				c0.3,0.1,1.1,0.3,2.4,0.5c1.3,0.2,2.2,0.6,2.7,1.1c0.5,0.5,0.8,1.4,0.8,2.5c0,2.6-1.6,3.8-4.7,3.8c-1,0-2.3-0.1-3.8-0.4l-0.8-0.1
				l0.1-2.6c2,0.3,3.3,0.4,4.1,0.4s1.3-0.1,1.6-0.2c0.3-0.2,0.4-0.4,0.4-0.7c0-0.3-0.1-0.5-0.4-0.7c-0.3-0.1-1-0.3-2.3-0.5
				c-1.2-0.2-2.1-0.5-2.7-1c-0.6-0.5-0.9-1.4-0.9-2.6c0-1.3,0.4-2.2,1.3-2.8c0.9-0.6,1.9-1,3.3-1c0.9,0,2.2,0.2,3.8,0.4l0.8,0.1
				L150.8,92.7z"/>
			<path d="M156.6,98.5c0.4,0.3,0.9,0.5,1.6,0.5c1.5,0,2.8,0,3.9-0.1l0.7-0.1l0,2.3c-1.8,0.4-3.4,0.7-4.9,0.7
				c-1.8,0-3.1-0.5-3.9-1.4c-0.8-0.9-1.2-2.5-1.2-4.6c0-4.2,1.7-6.4,5.2-6.4c3.4,0,5.1,1.8,5.1,5.3L163,97H156
				C156,97.7,156.2,98.2,156.6,98.5z M160.1,94.6c0-0.9-0.2-1.6-0.4-2c-0.3-0.4-0.8-0.6-1.6-0.6c-0.7,0-1.3,0.2-1.6,0.6
				c-0.3,0.4-0.5,1-0.5,1.9H160.1z"/>
			<path d="M165.6,101.5V85h3.2v16.5H165.6z"/>
			<path d="M175.6,92.4v9.1h-3.2v-9.1h-1.3v-2.7h1.3v-0.5c0-1.7,0.3-2.9,0.8-3.5c0.5-0.6,1.4-1,2.7-1c0.6,0,1.3,0.1,2.2,0.2l0.5,0.1
				l0,2.6c-0.7,0-1.3,0-1.7,0c-0.5,0-0.8,0.1-0.9,0.4c-0.2,0.3-0.2,0.7-0.2,1.3v0.5h2.9v2.7H175.6z"/>
			<path d="M194.6,93.4v4.9c0,0.4,0.1,0.6,0.2,0.8c0.1,0.2,0.3,0.3,0.6,0.3l-0.1,2.4c-0.8,0-1.4-0.1-1.9-0.2c-0.5-0.1-1-0.3-1.5-0.7
				c-1.1,0.6-2.3,0.8-3.5,0.8c-2.4,0-3.7-1.3-3.7-3.9c0-1.3,0.3-2.2,1-2.7c0.7-0.5,1.7-0.8,3.1-0.9l2.5-0.2v-0.7
				c0-0.5-0.1-0.8-0.3-1c-0.2-0.2-0.6-0.3-1.1-0.3l-4.4,0.2l-0.1-2.2c1.7-0.5,3.3-0.7,4.8-0.7c1.5,0,2.6,0.3,3.3,0.9
				C194.2,91,194.6,92,194.6,93.4z M189.2,96.5c-0.9,0.1-1.3,0.6-1.3,1.4c0,0.9,0.4,1.3,1.2,1.3c0.6,0,1.3-0.1,2-0.3l0.4-0.1v-2.5
				L189.2,96.5z"/>
			<path d="M202.8,101.5V85h3.2v16.5H202.8z"/>
			<path d="M212.2,98.5c0.4,0.3,0.9,0.5,1.6,0.5c1.5,0,2.8,0,3.9-0.1l0.7-0.1l0,2.3c-1.8,0.4-3.4,0.7-4.9,0.7
				c-1.8,0-3.1-0.5-3.9-1.4c-0.8-0.9-1.2-2.5-1.2-4.6c0-4.2,1.7-6.4,5.2-6.4c3.4,0,5.1,1.8,5.1,5.3l-0.2,2.2h-6.9
				C211.7,97.7,211.9,98.2,212.2,98.5z M215.7,94.6c0-0.9-0.2-1.6-0.4-2c-0.3-0.4-0.8-0.6-1.6-0.6s-1.3,0.2-1.6,0.6
				c-0.3,0.4-0.5,1-0.5,1.9H215.7z"/>
			<path d="M231.8,103c0,1.3-0.5,2.3-1.6,3s-2.4,1-4.2,1s-3.1-0.2-4.1-0.7c-1-0.5-1.4-1.3-1.4-2.6c0-1,0.6-1.9,1.7-2.8
				c-0.6-0.4-0.9-1-0.9-1.8c0-0.3,0.2-0.8,0.7-1.6l0.2-0.3c-1.1-0.8-1.6-1.9-1.6-3.4c0-1.5,0.5-2.6,1.4-3.3s2.1-1,3.6-1
				c0.7,0,1.3,0.1,2,0.2l0.4,0.1l3.8-0.1v2.5l-1.8-0.1c0.3,0.5,0.5,1.1,0.5,1.6c0,1.6-0.4,2.7-1.2,3.3c-0.8,0.6-2.1,0.9-3.8,0.9
				c-0.4,0-0.7,0-1-0.1c-0.2,0.4-0.2,0.7-0.2,1c0,0.3,0.1,0.4,0.4,0.5c0.3,0.1,0.9,0.1,1.9,0.2c2,0,3.3,0.3,4.1,0.8
				S231.8,101.7,231.8,103z M223.6,103.3c0,0.7,0.8,1,2.5,1s2.5-0.4,2.5-1.2c0-0.4-0.1-0.7-0.4-0.8c-0.3-0.1-0.9-0.2-1.8-0.2
				l-2.1-0.2C223.8,102.4,223.6,102.9,223.6,103.3z M223.8,93.7c0,1.2,0.6,1.7,1.8,1.7c1.2,0,1.8-0.6,1.8-1.7s-0.6-1.7-1.8-1.7
				C224.4,91.9,223.8,92.5,223.8,93.7z"/>
			<path d="M236.9,98.5c0.4,0.3,0.9,0.5,1.6,0.5c1.5,0,2.8,0,3.9-0.1l0.7-0.1l0,2.3c-1.8,0.4-3.4,0.7-4.9,0.7
				c-1.8,0-3.1-0.5-3.9-1.4c-0.8-0.9-1.2-2.5-1.2-4.6c0-4.2,1.7-6.4,5.2-6.4c3.4,0,5.1,1.8,5.1,5.3l-0.2,2.2h-6.9
				C236.3,97.7,236.5,98.2,236.9,98.5z M240.4,94.6c0-0.9-0.2-1.6-0.4-2c-0.3-0.4-0.8-0.6-1.6-0.6s-1.3,0.2-1.6,0.6
				c-0.3,0.4-0.5,1-0.5,1.9H240.4z"/>
			<path d="M248.9,101.5h-3.2V89.7h3.1v0.7c1.1-0.6,2.1-0.9,3-0.9c1.6,0,2.7,0.5,3.3,1.4c0.6,0.9,0.9,2.4,0.9,4.3v6.4h-3.2v-6.3
				c0-1-0.1-1.8-0.4-2.2c-0.2-0.5-0.7-0.7-1.4-0.7c-0.6,0-1.3,0.1-1.9,0.3l-0.3,0.1V101.5z"/>
			<path d="M268.9,85v16.5h-3.1V101c-1.1,0.5-2.1,0.8-2.9,0.8c-1.7,0-2.9-0.5-3.6-1.5c-0.7-1-1-2.6-1-4.7s0.4-3.7,1.2-4.7
				c0.8-1,2-1.5,3.7-1.5c0.5,0,1.2,0.1,2.1,0.2l0.4,0.1V85H268.9z M265.4,98.7l0.3-0.1v-6.2c-0.9-0.2-1.6-0.2-2.3-0.2
				c-1.3,0-1.9,1.1-1.9,3.4c0,1.2,0.1,2.1,0.4,2.6c0.3,0.5,0.7,0.8,1.4,0.8S264.7,98.9,265.4,98.7z"/>
			<path d="M283.3,92.4h-2.9v4.8c0,0.5,0,0.8,0,1c0,0.2,0.1,0.4,0.3,0.5c0.2,0.1,0.4,0.2,0.7,0.2l1.8,0l0.1,2.5
				c-1.1,0.2-1.9,0.4-2.4,0.4c-1.4,0-2.4-0.3-2.9-1s-0.8-1.8-0.8-3.5v-4.9h-1.4v-2.7h1.4v-3.3h3.2v3.3h2.9V92.4z"/>
			<path d="M288.5,101.5h-3.2V85h3.2v5.3c1.1-0.6,2.1-0.9,2.9-0.9c1.6,0,2.7,0.5,3.3,1.4c0.6,0.9,0.9,2.4,0.9,4.3v6.4h-3.2v-6.3
				c0-1-0.1-1.7-0.4-2.2c-0.2-0.5-0.7-0.7-1.4-0.7c-0.6,0-1.2,0.1-1.8,0.3l-0.3,0.1V101.5z"/>
			<path d="M298.3,101.5V89.7h3.1V91c1.3-0.8,2.6-1.3,3.8-1.5v3.2c-1.3,0.3-2.4,0.5-3.3,0.8l-0.5,0.2v7.9H298.3z"/>
			<path d="M307.8,91.1c0.8-1.1,2.2-1.6,4.2-1.6c2,0,3.3,0.5,4.2,1.6c0.8,1.1,1.3,2.6,1.3,4.5c0,4.1-1.8,6.2-5.4,6.2
				c-3.6,0-5.4-2.1-5.4-6.2C306.5,93.6,306.9,92.1,307.8,91.1z M310.2,98.3c0.3,0.6,0.9,0.9,1.7,0.9c0.8,0,1.4-0.3,1.7-0.9
				c0.3-0.6,0.5-1.5,0.5-2.7c0-1.2-0.2-2.1-0.5-2.6c-0.3-0.5-0.9-0.8-1.7-0.8c-0.8,0-1.4,0.3-1.7,0.8c-0.3,0.6-0.5,1.4-0.5,2.6
				C309.7,96.8,309.9,97.7,310.2,98.3z"/>
			<path d="M326.7,89.7h3.2v11.8h-3.1v-0.7c-1.1,0.6-2.1,0.9-3,0.9c-1.6,0-2.7-0.5-3.3-1.4c-0.6-0.9-0.9-2.4-0.9-4.5v-6.2h3.2V96
				c0,1.2,0.1,2,0.3,2.4c0.2,0.4,0.6,0.6,1.4,0.6c0.7,0,1.3-0.1,2-0.3l0.3-0.1V89.7z"/>
			<path d="M343.5,103c0,1.3-0.5,2.3-1.6,3c-1,0.6-2.4,1-4.2,1s-3.1-0.2-4.1-0.7c-1-0.5-1.4-1.3-1.4-2.6c0-1,0.6-1.9,1.7-2.8
				c-0.6-0.4-0.9-1-0.9-1.8c0-0.3,0.2-0.8,0.7-1.6l0.2-0.3c-1.1-0.8-1.6-1.9-1.6-3.4c0-1.5,0.5-2.6,1.4-3.3c0.9-0.7,2.1-1,3.6-1
				c0.7,0,1.3,0.1,2,0.2l0.4,0.1l3.8-0.1v2.5l-1.8-0.1c0.3,0.5,0.5,1.1,0.5,1.6c0,1.6-0.4,2.7-1.2,3.3c-0.8,0.6-2.1,0.9-3.8,0.9
				c-0.4,0-0.7,0-1-0.1c-0.2,0.4-0.2,0.7-0.2,1c0,0.3,0.1,0.4,0.4,0.5c0.3,0.1,0.9,0.1,1.9,0.2c2,0,3.3,0.3,4.1,0.8
				C343.1,100.7,343.5,101.7,343.5,103z M335.3,103.3c0,0.7,0.8,1,2.5,1c1.7,0,2.5-0.4,2.5-1.2c0-0.4-0.1-0.7-0.4-0.8
				c-0.3-0.1-0.9-0.2-1.8-0.2l-2.1-0.2C335.5,102.4,335.3,102.9,335.3,103.3z M335.5,93.7c0,1.2,0.6,1.7,1.8,1.7
				c1.2,0,1.8-0.6,1.8-1.7s-0.6-1.7-1.8-1.7C336.1,91.9,335.5,92.5,335.5,93.7z"/>
			<path d="M348.5,101.5h-3.2V85h3.2v5.3c1.1-0.6,2.1-0.9,2.9-0.9c1.6,0,2.7,0.5,3.3,1.4c0.6,0.9,0.9,2.4,0.9,4.3v6.4h-3.2v-6.3
				c0-1-0.1-1.7-0.4-2.2c-0.2-0.5-0.7-0.7-1.4-0.7c-0.6,0-1.2,0.1-1.8,0.3l-0.3,0.1V101.5z"/>
			<path d="M370.2,92.4h-2.9v4.8c0,0.5,0,0.8,0,1c0,0.2,0.1,0.4,0.3,0.5c0.2,0.1,0.4,0.2,0.7,0.2l1.8,0l0.1,2.5
				c-1.1,0.2-1.9,0.4-2.4,0.4c-1.4,0-2.4-0.3-2.9-1s-0.8-1.8-0.8-3.5v-4.9h-1.4v-2.7h1.4v-3.3h3.2v3.3h2.9V92.4z"/>
			<path d="M375.2,101.5h-3.2V85h3.2v5.3c1.1-0.6,2.1-0.9,2.9-0.9c1.6,0,2.7,0.5,3.3,1.4c0.6,0.9,0.9,2.4,0.9,4.3v6.4h-3.2v-6.3
				c0-1-0.1-1.7-0.4-2.2c-0.2-0.5-0.7-0.7-1.4-0.7c-0.6,0-1.2,0.1-1.8,0.3l-0.3,0.1V101.5z"/>
			<path d="M388.3,98.5c0.4,0.3,0.9,0.5,1.6,0.5c1.5,0,2.8,0,3.9-0.1l0.7-0.1l0,2.3c-1.8,0.4-3.4,0.7-4.9,0.7
				c-1.8,0-3.1-0.5-3.9-1.4c-0.8-0.9-1.2-2.5-1.2-4.6c0-4.2,1.7-6.4,5.2-6.4c3.4,0,5.1,1.8,5.1,5.3l-0.2,2.2h-6.9
				C387.7,97.7,387.9,98.2,388.3,98.5z M391.8,94.6c0-0.9-0.2-1.6-0.4-2c-0.3-0.4-0.8-0.6-1.6-0.6c-0.7,0-1.3,0.2-1.6,0.6
				c-0.3,0.4-0.5,1-0.5,1.9H391.8z"/>
		</g>
	</g>
	<g>
		<g>
			<path d="M89,129.8h-3.2V118H89v0.7c1.1-0.6,2.1-0.9,3-0.9c1.6,0,2.7,0.5,3.3,1.4s0.9,2.4,0.9,4.3v6.4H93v-6.3
				c0-1-0.1-1.8-0.4-2.2s-0.7-0.7-1.4-0.7c-0.6,0-1.3,0.1-1.9,0.3l-0.3,0.1V129.8z"/>
			<path d="M102.1,126.8c0.4,0.3,0.9,0.5,1.6,0.5c1.5,0,2.8,0,3.9-0.1l0.7-0.1l0,2.3c-1.8,0.4-3.4,0.7-4.9,0.7
				c-1.8,0-3.1-0.5-3.9-1.4c-0.8-0.9-1.2-2.5-1.2-4.6c0-4.2,1.7-6.4,5.2-6.4c3.4,0,5.1,1.8,5.1,5.3l-0.2,2.2h-6.9
				C101.5,125.9,101.7,126.5,102.1,126.8z M105.6,122.8c0-0.9-0.2-1.6-0.4-2c-0.3-0.4-0.8-0.6-1.6-0.6c-0.7,0-1.3,0.2-1.6,0.6
				c-0.3,0.4-0.5,1-0.5,1.9H105.6z"/>
			<path d="M110.1,118h3.1l1.4,9.1h0.6l1.8-8.9h3.3l1.8,8.9h0.6l1.4-9.1h3.1l-2.2,11.8h-5l-1.3-7.2l-1.3,7.2h-5L110.1,118z"/>
		</g>
	</g>
	<g>
		<g>
			<path d="M145.1,131.2c0,1.3-0.5,2.3-1.6,3c-1,0.6-2.4,1-4.2,1s-3.1-0.2-4.1-0.7c-1-0.5-1.4-1.3-1.4-2.6c0-1,0.6-1.9,1.7-2.8
				c-0.6-0.4-0.9-1-0.9-1.8c0-0.3,0.2-0.8,0.7-1.6l0.2-0.3c-1.1-0.8-1.6-1.9-1.6-3.4c0-1.5,0.5-2.6,1.4-3.3c0.9-0.7,2.1-1,3.6-1
				c0.7,0,1.3,0.1,2,0.2l0.4,0.1l3.8-0.1v2.5l-1.8-0.1c0.3,0.5,0.5,1.1,0.5,1.6c0,1.6-0.4,2.7-1.2,3.3c-0.8,0.6-2.1,0.9-3.8,0.9
				c-0.4,0-0.7,0-1-0.1c-0.2,0.4-0.2,0.7-0.2,1c0,0.3,0.1,0.4,0.4,0.5c0.3,0.1,0.9,0.1,1.9,0.2c2,0,3.3,0.3,4.1,0.8
				C144.7,129,145.1,129.9,145.1,131.2z M136.9,131.6c0,0.7,0.8,1,2.5,1c1.7,0,2.5-0.4,2.5-1.2c0-0.4-0.1-0.7-0.4-0.8
				c-0.3-0.1-0.9-0.2-1.8-0.2l-2.1-0.2C137.1,130.7,136.9,131.1,136.9,131.6z M137.1,121.9c0,1.2,0.6,1.7,1.8,1.7
				c1.2,0,1.8-0.6,1.8-1.7c0-1.2-0.6-1.7-1.8-1.7C137.7,120.2,137.1,120.8,137.1,121.9z"/>
			<path d="M147.1,129.8v-16.5h3.2v16.5H147.1z"/>
			<path d="M154,119.3c0.8-1.1,2.2-1.6,4.2-1.6c2,0,3.3,0.5,4.2,1.6c0.8,1.1,1.3,2.6,1.3,4.5c0,4.1-1.8,6.2-5.4,6.2
				c-3.6,0-5.4-2.1-5.4-6.2C152.8,121.9,153.2,120.4,154,119.3z M156.5,126.5c0.3,0.6,0.9,0.9,1.7,0.9c0.8,0,1.4-0.3,1.7-0.9
				c0.3-0.6,0.5-1.5,0.5-2.7c0-1.2-0.2-2.1-0.5-2.6c-0.3-0.5-0.9-0.8-1.7-0.8c-0.8,0-1.4,0.3-1.7,0.8c-0.3,0.6-0.5,1.4-0.5,2.6
				C156,125,156.1,125.9,156.5,126.5z"/>
			<path d="M171.7,117.7c1.7,0,2.9,0.5,3.6,1.4s1.1,2.5,1.1,4.9c0,2.3-0.4,3.9-1.3,4.8c-0.9,0.9-2.4,1.3-4.6,1.3
				c-0.7,0-1.9-0.1-3.7-0.2l-0.9-0.1v-16.5h3.2v5.1C170.1,117.9,171,117.7,171.7,117.7z M170.6,127.2c1.1,0,1.8-0.3,2.1-0.8
				c0.4-0.5,0.5-1.4,0.5-2.8c0-2.1-0.7-3.2-2-3.2c-0.6,0-1.2,0.1-1.8,0.2l-0.3,0.1v6.3C169.8,127.2,170.3,127.2,170.6,127.2z"/>
			<path d="M187.8,121.6v4.9c0,0.4,0.1,0.6,0.2,0.8c0.1,0.2,0.3,0.3,0.6,0.3l-0.1,2.4c-0.8,0-1.4-0.1-1.9-0.2
				c-0.5-0.1-1-0.3-1.5-0.7c-1.1,0.6-2.3,0.8-3.5,0.8c-2.4,0-3.7-1.3-3.7-3.9c0-1.3,0.3-2.2,1-2.7c0.7-0.5,1.7-0.8,3.1-0.9l2.5-0.2
				v-0.7c0-0.5-0.1-0.8-0.3-1c-0.2-0.2-0.6-0.3-1.1-0.3l-4.4,0.2l-0.1-2.2c1.7-0.5,3.3-0.7,4.8-0.7c1.5,0,2.6,0.3,3.3,0.9
				C187.5,119.2,187.8,120.3,187.8,121.6z M182.5,124.8c-0.9,0.1-1.3,0.6-1.3,1.4c0,0.9,0.4,1.3,1.2,1.3c0.6,0,1.3-0.1,2-0.3
				l0.4-0.1v-2.5L182.5,124.8z"/>
			<path d="M191,129.8v-16.5h3.2v16.5H191z"/>
			<path d="M201.3,118h3.1l1.4,9.1h0.6l1.8-8.9h3.3l1.8,8.9h0.6l1.4-9.1h3.1l-2.2,11.8h-5l-1.3-7.2l-1.3,7.2h-5L201.3,118z"/>
			<path d="M229.5,121.6v4.9c0,0.4,0.1,0.6,0.2,0.8c0.1,0.2,0.3,0.3,0.6,0.3l-0.1,2.4c-0.8,0-1.4-0.1-1.9-0.2
				c-0.5-0.1-1-0.3-1.5-0.7c-1.1,0.6-2.3,0.8-3.5,0.8c-2.4,0-3.7-1.3-3.7-3.9c0-1.3,0.3-2.2,1-2.7c0.7-0.5,1.7-0.8,3.1-0.9l2.5-0.2
				v-0.7c0-0.5-0.1-0.8-0.3-1c-0.2-0.2-0.6-0.3-1.1-0.3l-4.4,0.2l-0.1-2.2c1.7-0.5,3.3-0.7,4.8-0.7c1.5,0,2.6,0.3,3.3,0.9
				C229.1,119.2,229.5,120.3,229.5,121.6z M224.2,124.8c-0.9,0.1-1.3,0.6-1.3,1.4c0,0.9,0.4,1.3,1.2,1.3c0.6,0,1.3-0.1,2-0.3
				l0.4-0.1v-2.5L224.2,124.8z"/>
			<path d="M239,120.6h-2.9v4.8c0,0.5,0,0.8,0,1c0,0.2,0.1,0.4,0.3,0.5c0.2,0.1,0.4,0.2,0.7,0.2l1.8,0l0.1,2.5
				c-1.1,0.2-1.9,0.4-2.4,0.4c-1.4,0-2.4-0.3-2.9-1s-0.8-1.8-0.8-3.5v-4.9h-1.4V118h1.4v-3.3h3.2v3.3h2.9V120.6z"/>
			<path d="M244.1,126.8c0.4,0.3,0.9,0.5,1.6,0.5c1.5,0,2.8,0,3.9-0.1l0.7-0.1l0,2.3c-1.8,0.4-3.4,0.7-4.9,0.7
				c-1.8,0-3.1-0.5-3.9-1.4c-0.8-0.9-1.2-2.5-1.2-4.6c0-4.2,1.7-6.4,5.2-6.4c3.4,0,5.1,1.8,5.1,5.3l-0.2,2.2h-6.9
				C243.6,125.9,243.8,126.5,244.1,126.8z M247.6,122.8c0-0.9-0.2-1.6-0.4-2c-0.3-0.4-0.8-0.6-1.6-0.6s-1.3,0.2-1.6,0.6
				c-0.3,0.4-0.5,1-0.5,1.9H247.6z"/>
			<path d="M253,129.8V118h3.1v1.3c1.3-0.8,2.6-1.3,3.8-1.5v3.2c-1.3,0.3-2.4,0.5-3.3,0.8l-0.5,0.2v7.9H253z"/>
			<path d="M270.3,120.9c-2-0.3-3.3-0.4-4.1-0.4c-0.8,0-1.3,0.1-1.5,0.2c-0.2,0.1-0.3,0.4-0.3,0.7s0.2,0.5,0.5,0.6
				c0.3,0.1,1.1,0.3,2.4,0.5c1.3,0.2,2.2,0.6,2.7,1.1c0.5,0.5,0.8,1.4,0.8,2.5c0,2.6-1.6,3.8-4.7,3.8c-1,0-2.3-0.1-3.8-0.4l-0.8-0.1
				l0.1-2.6c2,0.3,3.3,0.4,4.1,0.4c0.8,0,1.3-0.1,1.6-0.2c0.3-0.2,0.4-0.4,0.4-0.7c0-0.3-0.1-0.5-0.4-0.7c-0.3-0.1-1-0.3-2.3-0.5
				s-2.1-0.5-2.7-1c-0.6-0.5-0.9-1.4-0.9-2.6c0-1.3,0.4-2.2,1.3-2.8c0.9-0.6,1.9-1,3.3-1c0.9,0,2.2,0.2,3.8,0.4l0.8,0.1L270.3,120.9
				z"/>
			<path d="M272.8,134.7V118h3.1v0.6c1-0.6,1.9-0.9,2.7-0.9c1.6,0,2.8,0.5,3.5,1.4c0.8,1,1.1,2.6,1.1,4.9s-0.4,3.9-1.3,4.8
				c-0.8,0.9-2.2,1.3-4.1,1.3c-0.5,0-1.1,0-1.7-0.1l-0.3,0v4.9H272.8z M278,120.5c-0.6,0-1.2,0.1-1.8,0.4L276,121v6.2
				c0.7,0.1,1.3,0.1,1.7,0.1c0.9,0,1.5-0.3,1.9-0.8c0.3-0.5,0.5-1.4,0.5-2.7C280.1,121.6,279.4,120.5,278,120.5z"/>
			<path d="M286.3,119.3c0.8-1.1,2.2-1.6,4.2-1.6c2,0,3.3,0.5,4.2,1.6c0.8,1.1,1.3,2.6,1.3,4.5c0,4.1-1.8,6.2-5.4,6.2
				c-3.6,0-5.4-2.1-5.4-6.2C285,121.9,285.5,120.4,286.3,119.3z M288.7,126.5c0.3,0.6,0.9,0.9,1.7,0.9c0.8,0,1.4-0.3,1.7-0.9
				c0.3-0.6,0.5-1.5,0.5-2.7c0-1.2-0.2-2.1-0.5-2.6c-0.3-0.5-0.9-0.8-1.7-0.8c-0.8,0-1.4,0.3-1.7,0.8c-0.3,0.6-0.5,1.4-0.5,2.6
				C288.3,125,288.4,125.9,288.7,126.5z"/>
			<path d="M298.2,129.8V118h3.1v1.3c1.3-0.8,2.6-1.3,3.8-1.5v3.2c-1.3,0.3-2.4,0.5-3.3,0.8l-0.5,0.2v7.9H298.2z"/>
			<path d="M313.5,120.6h-2.9v4.8c0,0.5,0,0.8,0,1c0,0.2,0.1,0.4,0.3,0.5c0.2,0.1,0.4,0.2,0.7,0.2l1.8,0l0.1,2.5
				c-1.1,0.2-1.9,0.4-2.4,0.4c-1.4,0-2.4-0.3-2.9-1s-0.8-1.8-0.8-3.5v-4.9h-1.4V118h1.4v-3.3h3.2v3.3h2.9V120.6z"/>
			<path d="M315.3,129.8v-3.9h3.4v3.9H315.3z"/>
		</g>
	</g>
	<g>
		<g>
			<path d="M159.6,170.2h6.3c1.7,0,2.9,0.3,3.8,1c0.8,0.7,1.3,1.8,1.3,3.2c0,0.9-0.1,1.6-0.4,2.1c-0.3,0.5-0.7,1-1.4,1.4
				c0.7,0.3,1.2,0.7,1.6,1.3c0.3,0.6,0.5,1.4,0.5,2.4c0,1.6-0.5,2.7-1.4,3.5c-0.9,0.8-2.2,1.1-3.9,1.1h-6.4V170.2z M165.7,173h-2.9
				v3.8h2.9c1.2,0,1.8-0.6,1.8-1.9C167.6,173.7,167,173,165.7,173z M165.8,179.6h-3v3.9h3c0.7,0,1.2-0.1,1.6-0.4
				c0.3-0.3,0.5-0.8,0.5-1.6C167.9,180.2,167.2,179.6,165.8,179.6z"/>
			<path d="M174,186.3v-16.1h10.4v2.8h-7.1v3.8h5.7v2.8h-5.7v3.8h7.1v2.8H174z"/>
			<path d="M192.2,170.2h6.3c1.7,0,2.9,0.3,3.8,1c0.8,0.7,1.3,1.8,1.3,3.2c0,0.9-0.1,1.6-0.4,2.1c-0.3,0.5-0.7,1-1.4,1.4
				c0.7,0.3,1.2,0.7,1.6,1.3s0.5,1.4,0.5,2.4c0,1.6-0.5,2.7-1.4,3.5c-0.9,0.8-2.2,1.1-3.9,1.1h-6.4V170.2z M198.4,173h-2.9v3.8h2.9
				c1.2,0,1.8-0.6,1.8-1.9C200.2,173.7,199.6,173,198.4,173z M198.5,179.6h-3v3.9h3c0.7,0,1.2-0.1,1.6-0.4c0.3-0.3,0.5-0.8,0.5-1.6
				C200.6,180.2,199.9,179.6,198.5,179.6z"/>
			<path d="M217.7,184.6c-1,1.3-2.7,2-5.2,2c-2.4,0-4.2-0.7-5.2-2c-1-1.3-1.5-3.4-1.5-6.2c0-2.8,0.5-4.9,1.5-6.3
				c1-1.4,2.7-2.1,5.2-2.1c2.4,0,4.2,0.7,5.2,2.1c1,1.4,1.5,3.5,1.5,6.3C219.2,181.2,218.7,183.3,217.7,184.6z M210,182.5
				c0.5,0.8,1.3,1.2,2.6,1.2c1.3,0,2.1-0.4,2.6-1.2c0.5-0.8,0.7-2.2,0.7-4.2s-0.2-3.4-0.7-4.2s-1.3-1.3-2.6-1.3s-2.1,0.4-2.6,1.3
				c-0.5,0.9-0.7,2.3-0.7,4.2S209.5,181.7,210,182.5z"/>
			<path d="M231.2,186.3H222v-16.1h3.3v13.2h5.9V186.3z"/>
			<path d="M238.4,186.3H233v-16.1h5.4c1.4,0,2.5,0.1,3.4,0.4c0.9,0.3,1.6,0.8,2.1,1.4c0.5,0.7,0.8,1.5,1,2.4
				c0.2,0.9,0.3,2.1,0.3,3.5s-0.1,2.6-0.3,3.6c-0.2,1-0.5,1.8-1,2.6c-0.5,0.7-1.2,1.3-2.1,1.6C241,186.1,239.8,186.3,238.4,186.3z
				 M241.9,179.9c0-0.5,0-1.2,0-2.1c0-0.9,0-1.6-0.1-2.1s-0.2-1-0.4-1.5c-0.2-0.4-0.6-0.7-1.1-0.9c-0.5-0.2-1.1-0.2-1.9-0.2h-2.1
				v10.4h2.1c1.2,0,2-0.3,2.6-0.9C241.5,182.1,241.7,181.2,241.9,179.9z"/>
		</g>
	</g>
</g>
</svg>
