<?xml version="1.0" encoding="utf-8"?>
<!-- Generator: Adobe Illustrator 19.0.0, SVG Export Plug-In . SVG Version: 6.00 Build 0)  -->
<svg version="1.1" id="Capa_1" xmlns="http://www.w3.org/2000/svg" xmlns:xlink="http://www.w3.org/1999/xlink" x="0px" y="0px"
	 width="1277.72px" height="64.188px" viewBox="0 419.64 1277.72 64.188" enable-background="new 0 419.64 1277.72 64.188"
	 xml:space="preserve">
<g>
	<g>
		<path d="M1.59,483.244v-63.03h17.08c4.58,0,7.913,1.117,10,3.35s3.133,5.927,3.14,11.08v2.76c0.107,2.494-0.441,4.973-1.59,7.19
			c-1.043,1.829-2.8,3.14-4.85,3.62c2.649,0.55,4.816,2.447,5.71,5c1.037,3.109,1.527,6.374,1.45,9.65
			c0.055,3.604-0.332,7.2-1.15,10.71c-0.587,2.756-2.042,5.251-4.15,7.12c-2,1.7-4.853,2.55-8.56,2.55L1.59,483.244L1.59,483.244z
			 M13.91,443.954h2.58c0.961,0.13,1.888-0.41,2.25-1.31c0.36-1.048,0.53-2.152,0.5-3.26v-6.38c0-2-0.89-3-2.68-3h-2.65V443.954z
			 M15.16,472.144c3.27,0,4.91-1.56,4.91-4.66v-7.84c0.067-1.457-0.21-2.91-0.81-4.24c-0.6-1.072-1.778-1.685-3-1.56h-2.35v18.22
			C14.43,472.114,14.85,472.144,15.16,472.144z"/>
		<path d="M36.68,483.244v-63.03h25.21v12.18H49.5v12.25h11.89v11.88H49.5v14.43h13.22v12.29H36.68z"/>
		<path d="M74.5,483.244v-20.74l-10.07-42.29h12.5l3.51,21.35l3.56-21.35h12.41l-10,42.29v20.74H74.5z"/>
		<path d="M114.64,483.814c-5.04,0-8.89-1.523-11.55-4.57s-3.993-7.443-4-13.19v-29.94c0-5.387,1.333-9.48,4-12.28
			s6.517-4.197,11.55-4.19c5.08,0,9,1.4,11.58,4.19s4,6.89,4,12.28v29.94c0,5.753-1.333,10.15-4,13.19
			C123.553,482.284,119.693,483.807,114.64,483.814z M114.75,472.214c1.907,0,2.86-1.85,2.86-5.55v-30.76
			c0-3.113-0.93-4.667-2.79-4.66c-2.1,0-3.15,1.587-3.15,4.76v30.73c-0.096,1.44,0.147,2.882,0.71,4.21
			C112.859,471.789,113.781,472.283,114.75,472.214z"/>
		<path d="M135.26,483.244v-63.03h13l5.74,30.19v-30.19h12.2v63h-12.31l-6.31-31.52v31.55H135.26z"/>
		<path d="M171.79,483.244v-63.03h17.33c4.54,0,7.953,1.26,10.24,3.78s3.433,6.203,3.44,11.05v29.5c0,6-1.043,10.61-3.13,13.83
			s-5.753,4.843-11,4.87L171.79,483.244L171.79,483.244z M184.47,472.104h2.18c2.32,0,3.47-1.12,3.47-3.37v-32.51
			c0-2.1-0.28-3.46-0.84-4.07c-0.56-0.61-1.7-0.91-3.42-0.91h-1.39V472.104z"/>
		<path d="M224.28,483.244v-63.03h12.17v63L224.28,483.244z"/>
		<path d="M241.47,483.244v-63.03h13l5.8,30.19v-30.19h12.18v63h-12.36l-6.3-31.52v31.55H241.47z"/>
		<path d="M278,483.244v-63.03h13l5.8,30.19v-30.19h12.17v63h-12.36l-6.3-31.52v31.55H278z"/>
		<path d="M329.56,483.814c-5.04,0-8.893-1.523-11.56-4.57s-4-7.443-4-13.19v-29.94c0-5.387,1.333-9.48,4-12.28
			s6.52-4.197,11.56-4.19c5.08,0,8.94,1.397,11.58,4.19c2.64,2.793,3.973,6.887,4,12.28v29.94c0,5.753-1.333,10.15-4,13.19
			S334.613,483.807,329.56,483.814z M329.67,472.214c1.907,0,2.86-1.85,2.86-5.55v-30.76c0-3.113-0.93-4.667-2.79-4.66
			c-2.1,0-3.15,1.587-3.15,4.76v30.73c-0.102,1.44,0.142,2.883,0.71,4.21C327.779,471.789,328.701,472.283,329.67,472.214
			L329.67,472.214z"/>
		<path d="M356,483.244l-7.79-63.06h12l4.62,42.9l4.17-42.9h12l-7.83,63.06H356z"/>
		<path d="M382.88,483.244l6.12-63.03h21.37l6,63H404.4l-0.9-10.17h-7.59l-0.79,10.17L382.88,483.244z M396.81,463.004h5.73
			l-2.76-32h-0.57L396.81,463.004z"/>
		<path d="M425.6,483.244v-50.92h-7.49v-12.11h27.58v12.11h-7.49v50.92H425.6z"/>
		<path d="M448.62,483.244v-63.03h12.18v63L448.62,483.244z"/>
		<path d="M480.85,483.814c-5.04,0-8.89-1.523-11.55-4.57c-2.66-3.047-3.993-7.443-4-13.19v-29.94c0-5.387,1.333-9.48,4-12.28
			c2.6-2.79,6.47-4.19,11.55-4.19s8.95,1.4,11.59,4.19s3.95,6.89,3.95,12.28v29.94c0,5.753-1.333,10.15-4,13.19
			C489.723,482.284,485.877,483.807,480.85,483.814z M480.96,472.214c1.913,0,2.867-1.85,2.86-5.55v-30.76
			c0-3.113-0.93-4.667-2.79-4.66c-2.1,0-3.15,1.587-3.15,4.76v30.73c-0.099,1.441,0.148,2.884,0.72,4.21
			c0.48,0.859,1.42,1.356,2.4,1.27H480.96z"/>
		<path d="M501.48,483.244v-63.03h13l5.8,30.19v-30.19h12.18v63H520.1l-6.3-31.52v31.55H501.48z"/>
		<path d="M559.87,483.244v-50.92h-7.49v-12.11H580v12.11h-7.48v50.92H559.87z"/>
		<path d="M583.46,483.244v-63.03H596v22.53h5.94v-22.53h12.53v63h-12.53v-28.57H596v28.6H583.46z"/>
		<path d="M620.06,483.244v-63.03h25.21v12.18h-12.39v12.25h11.89v11.88h-11.89v14.43h13.21v12.29H620.06z"/>
		<path d="M682,483.814c-5.247,0-9.113-1.473-11.6-4.42s-3.73-7.28-3.73-13v-46.18h12.25v45.66c-0.002,1.003,0.058,2.005,0.18,3
			c0.076,0.851,0.357,1.671,0.82,2.39c0.487,0.648,1.273,0.999,2.08,0.93c0.814,0.073,1.609-0.274,2.11-0.92
			c0.468-0.711,0.747-1.531,0.81-2.38c0.109-0.996,0.162-1.998,0.16-3v-45.68h12.25v46.16c0,5.733-1.243,10.067-3.73,13
			C691.113,482.307,687.247,483.787,682,483.814z"/>
		<path d="M702,483.244v-63.03h12.61v52.28h13v10.75H702z"/>
		<path d="M736.58,483.244v-50.92h-7.48v-12.11h27.57v12.11h-7.49v50.92H736.58z"/>
		<path d="M759.6,483.244v-63.03h12.18v63L759.6,483.244z"/>
		<path d="M776.79,483.244v-63.03H796l5.29,38.43l5.26-38.43h19.37v63h-11.53v-45.38l-7.23,45.41h-11.32l-7.66-45.41v45.41H776.79z"
			/>
		<path d="M829.79,483.244l6.09-63h21.38l6,63h-11.95l-0.89-10.17h-7.6l-0.82,10.17H829.79z M843.72,463.004h5.73l-2.76-32h-0.57
			L843.72,463.004z"/>
		<path d="M872.51,483.244v-50.92H865v-12.11h27.6v12.11h-7.48v50.92H872.51z"/>
		<path d="M896.11,483.244v-63.03h25.21v12.18h-12.39v12.25h11.89v11.88h-11.89v14.43h13.21v12.29H896.11z"/>
		<path d="M948.21,483.244l-6.77-63h12.32l3.47,39.79l3.54-39.82h11.75l3.37,39.79l3.36-39.79h12.46l-6.87,63h-15.11l-3.15-30.33
			l-3,30.33L948.21,483.244z"/>
		<path d="M993.76,483.244l6.08-63h21.38l6,63h-11.92l-0.9-10.17h-7.59l-0.81,10.17H993.76z M1007.69,463.004h5.72l-2.75-32h-0.58
			L1007.69,463.004z"/>
		<path d="M1036.48,483.244v-50.92H1029v-12.11h27.57v12.11h-7.48v50.92H1036.48z"/>
		<path d="M1060.07,483.244v-63.03h25.21v12.18h-12.39v12.25h11.89v11.88h-11.89v14.43h13.22v12.29H1060.07z"/>
		<path d="M1090.26,483.244v-63.03h19.34c3.22,0,5.66,0.74,7.3,2.21c1.742,1.637,2.907,3.795,3.32,6.15
			c0.6,3.063,0.881,6.179,0.84,9.3c0.105,2.803-0.34,5.599-1.31,8.23c-0.908,2.094-2.718,3.661-4.92,4.26
			c1.789,0.277,3.339,1.392,4.17,3c0.871,1.901,1.282,3.981,1.2,6.07v23.81h-12.43v-24.68c0-1.83-0.37-3-1.13-3.42
			c-1.136-0.519-2.384-0.746-3.63-0.66v28.76H1090.26z M1103.08,443.564h3c1.753,0,2.627-1.897,2.62-5.69
			c0.117-1.635-0.077-3.277-0.57-4.84c-0.42-0.78-1.269-1.23-2.15-1.14h-2.94L1103.08,443.564z"/>
		<path d="M1141.37,483.244v-63.03h19.34c3.22,0,5.657,0.737,7.31,2.21c1.739,1.638,2.901,3.796,3.31,6.15
			c0.6,3.063,0.881,6.179,0.84,9.3c0.105,2.803-0.34,5.599-1.31,8.23c-0.908,2.094-2.718,3.661-4.92,4.26
			c1.789,0.277,3.339,1.392,4.17,3c0.871,1.901,1.282,3.981,1.2,6.07v23.81h-12.43v-24.68c0-1.83-0.37-3-1.12-3.42
			c-1.14-0.518-2.391-0.744-3.64-0.66v28.76H1141.37z M1154.19,443.564h3c1.74,0,2.61-1.897,2.61-5.69
			c0.117-1.635-0.077-3.277-0.57-4.84c-0.418-0.782-1.268-1.233-2.15-1.14h-2.94L1154.19,443.564z"/>
		<path d="M1174.6,483.244l6.09-63h21.38l6,63h-11.93l-0.89-10.17h-7.59l-0.79,10.17H1174.6z M1188.53,463.004h5.73l-2.75-32h-0.58
			L1188.53,463.004z"/>
		<path d="M1226.6,483.814c-4.1,0.177-8.088-1.368-11-4.26c-2.78-2.84-4.17-6.817-4.17-11.93v-29.07c0-6.107,1.21-10.773,3.63-14
			s6.363-4.863,11.83-4.91c2.757-0.056,5.49,0.508,8,1.65c2.281,1.058,4.195,2.771,5.5,4.92c1.419,2.511,2.112,5.368,2,8.25v10.89
			h-12.53v-9.31c0.127-1.313-0.123-2.634-0.72-3.81c-0.518-0.688-1.351-1.065-2.21-1c-0.976-0.103-1.916,0.4-2.37,1.27
			c-0.447,1.072-0.655,2.229-0.61,3.39v31.55c-0.109,1.279,0.159,2.561,0.77,3.69c0.504,0.714,1.337,1.121,2.21,1.08
			c0.958,0.067,1.86-0.461,2.27-1.33c0.481-1.081,0.707-2.258,0.66-3.44v-11.35h12.68v11.93c0,5.54-1.397,9.54-4.19,12
			C1235.557,482.484,1231.64,483.747,1226.6,483.814z"/>
		<path d="M1246.69,483.244v-63.03h25.21v12.18h-12.39v12.25h11.89v11.88h-11.89v14.43h13.21v12.29H1246.69z"/>
	</g>
</g>
</svg>
