<svg xmlns="http://www.w3.org/2000/svg" width="1228.15" height="48.9" viewBox="0 0 1228.15 48.9">
  <g>
    <g>
      <path d="M26.67,1v9.39H19.42V47.92H7.22V10.38H0V1Z"/>
      <path d="M29.45,1h8.64q8.64,0,11.7.66a8.06,8.06,0,0,1,5,3.41C56.06,6.88,56.7,9.8,56.7,13.8c0,3.65-.46,6.1-1.36,7.36s-2.7,2-5.37,2.26q3.63.9,4.87,2.41a7.06,7.06,0,0,1,1.55,2.77,42.45,42.45,0,0,1,.31,6.94V47.92H45.36V32.32c0-2.51-.19-4.07-.59-4.67s-1.43-.9-3.12-.9V47.92H29.45Zm12.2,8V19.45a5.34,5.34,0,0,0,2.89-.57c.55-.37.82-1.59.82-3.66V12.64c0-1.49-.26-2.47-.79-2.93A4.58,4.58,0,0,0,41.65,9Z"/>
      <path d="M82.34,1l7,46.93H76.85l-.66-8.44H71.83l-.74,8.44H58.48L64.7,1ZM75.87,31.16Q75,23.18,74,11.45q-1.86,13.49-2.34,19.71Z"/>
      <path d="M118.64,1V47.92h-10.7l-6.35-21.34V47.92H91.39V1h10.2l6.85,21.13V1Z"/>
      <path d="M149.39,15.19H138.06V11.71a6.83,6.83,0,0,0-.43-3.1,1.6,1.6,0,0,0-1.45-.67,1.85,1.85,0,0,0-1.67.9,5.19,5.19,0,0,0-.57,2.73,7.82,7.82,0,0,0,.64,3.54q.6,1.19,3.45,2.87,8.15,4.83,10.26,7.93t2.12,10c0,3.35-.39,5.81-1.18,7.4a9.18,9.18,0,0,1-4.53,4,18,18,0,0,1-7.83,1.61A17.47,17.47,0,0,1,128.51,47,9.1,9.1,0,0,1,124,42.32a24.34,24.34,0,0,1-1.07-8.14V31.1h11.33v5.71a7.47,7.47,0,0,0,.48,3.39,1.85,1.85,0,0,0,1.7.76,2,2,0,0,0,1.81-1,5.42,5.42,0,0,0,.59-2.84c0-2.76-.37-4.57-1.13-5.42A35.58,35.58,0,0,0,132,27.48a56.8,56.8,0,0,1-6-4.38,10.32,10.32,0,0,1-2.45-3.77,16.7,16.7,0,0,1-1-6.14c0-3.6.46-6.22,1.38-7.89a9.23,9.23,0,0,1,4.45-3.89A17.7,17.7,0,0,1,135.77,0a19.22,19.22,0,0,1,8.1,1.54,8.49,8.49,0,0,1,4.44,3.87q1.08,2.32,1.08,7.92Z"/>
      <path d="M154.24,1H174.9v9.39h-8.46v8.9H174V28.2h-7.54V47.92h-12.2Z"/>
      <path d="M205.75,28.46c0,4.72-.12,8.06-.34,10a11.24,11.24,0,0,1-6.82,9.12,17.29,17.29,0,0,1-7,1.3,17.72,17.72,0,0,1-6.77-1.23,11.28,11.28,0,0,1-7-9.06,99.43,99.43,0,0,1-.35-10.15v-8a99.26,99.26,0,0,1,.34-10,11.19,11.19,0,0,1,6.82-9.12,17.25,17.25,0,0,1,7-1.3,17.72,17.72,0,0,1,6.77,1.23,11.33,11.33,0,0,1,7,9.06,99.43,99.43,0,0,1,.35,10.15ZM193.54,13a14.53,14.53,0,0,0-.36-4.18,1.44,1.44,0,0,0-1.49-.92,1.68,1.68,0,0,0-1.47.74c-.34.49-.5,2-.5,4.36V35a21.76,21.76,0,0,0,.33,5,1.45,1.45,0,0,0,1.55,1,1.5,1.5,0,0,0,1.59-1.1,22.76,22.76,0,0,0,.35-5.25Z"/>
      <path d="M210.3,1h8.63q8.64,0,11.7.66a8.08,8.08,0,0,1,5,3.41c1.28,1.82,1.92,4.74,1.92,8.74q0,5.47-1.36,7.36c-.91,1.26-2.69,2-5.36,2.26,2.41.6,4,1.4,4.87,2.41a7.06,7.06,0,0,1,1.55,2.77,44.28,44.28,0,0,1,.3,6.94V47.92H226.21V32.32c0-2.51-.2-4.07-.59-4.67s-1.44-.9-3.12-.9V47.92H210.3Zm12.2,8V19.45a5.32,5.32,0,0,0,2.88-.57c.55-.37.83-1.59.83-3.66V12.64c0-1.49-.27-2.47-.8-2.93A4.54,4.54,0,0,0,222.5,9Z"/>
      <path d="M279.92,1V47.92H269.26l0-31.69L265,47.92h-7.56L253,17v31H242.27V1h15.79q.7,4.23,1.45,10l1.73,11.94L264,1Z"/>
      <path d="M297,1V47.92h-12.2V1Z"/>
      <path d="M329.17,1V47.92h-10.7l-6.34-21.34V47.92H301.92V1h10.21L319,22.12V1Z"/>
      <path d="M362.07,18.26h-12.2V14a21.09,21.09,0,0,0-.35-5,1.82,1.82,0,0,0-3.19-.15,14.28,14.28,0,0,0-.4,4.47V35.8a13.49,13.49,0,0,0,.4,4.16A1.59,1.59,0,0,0,348,41a1.81,1.81,0,0,0,1.82-1.13,13.57,13.57,0,0,0,.47-4.41V29.86h-2.46V22.73h14.29V47.92H354.4l-1.13-3.37a8.51,8.51,0,0,1-3.14,3.26,8.84,8.84,0,0,1-4.49,1.09,11.65,11.65,0,0,1-5.75-1.49,11.08,11.08,0,0,1-4.08-3.7,11.66,11.66,0,0,1-1.74-4.62,55.82,55.82,0,0,1-.35-7.26V17.88a46.08,46.08,0,0,1,.73-9.76,10,10,0,0,1,4.16-5.58A14.58,14.58,0,0,1,347.49,0a16.54,16.54,0,0,1,8.9,2.2A10.45,10.45,0,0,1,361,7.43a27.91,27.91,0,0,1,1.07,8.8Z"/>
      <path d="M402,1v9.39h-7.25V47.92h-12.2V10.38h-7.22V1Z"/>
      <path d="M432.86,1V47.92h-12.2V28.2H417V47.92H404.8V1H417V17.77h3.65V1Z"/>
      <path d="M437.76,1h20.35v9.39H450v8.9h7.63V28.2H450V38.52h9v9.4H437.76Z"/>
      <path d="M518.84,1,513.4,47.92H498.17q-2.1-10.81-3.7-24.62-.72,5.93-3.4,24.62H475.92L470.46,1h11.85l1.29,16.37,1.25,15.83q.67-12.28,3.37-32.2H500.9q.24,2.05,1.33,15.47l1.35,17.86q1-17,3.4-33.33Z"/>
      <path d="M541.68,1l7,46.93H536.19l-.65-8.44h-4.37l-.73,8.44H517.82L524.05,1Zm-6.46,30.17q-.93-8-1.86-19.71Q531.49,24.94,531,31.16Z"/>
      <path d="M573.29,1l-8.9,29.94v17h-11.3v-17L544.51,1h11.21q2.63,13.74,3,18.49,1-7.51,3.4-18.49Z"/>
    </g>
    <g>
      <path d="M614.1,28.46q0,7.08-.33,10a11.23,11.23,0,0,1-6.83,9.12,17.24,17.24,0,0,1-7,1.3,17.68,17.68,0,0,1-6.77-1.23,11.28,11.28,0,0,1-7-9.06,99.43,99.43,0,0,1-.35-10.15v-8q0-7.08.33-10A11.23,11.23,0,0,1,593,1.3,17.25,17.25,0,0,1,600,0a17.67,17.67,0,0,1,6.76,1.23,11.31,11.31,0,0,1,7,9.06,100.29,100.29,0,0,1,.34,10.15ZM601.9,13a14.53,14.53,0,0,0-.36-4.18,1.45,1.45,0,0,0-1.5-.92,1.68,1.68,0,0,0-1.46.74c-.34.49-.51,2-.51,4.36V35a21,21,0,0,0,.34,5A1.45,1.45,0,0,0,600,41a1.5,1.5,0,0,0,1.59-1.1,23.38,23.38,0,0,0,.35-5.25Z"/>
      <path d="M618.65,1h20.67v9.39h-8.46v8.9h7.54V28.2h-7.54V47.92H618.65Z"/>
      <path d="M681.36,21.42H669.15V13.26a14.67,14.67,0,0,0-.39-4.44A1.68,1.68,0,0,0,667,7.94,1.81,1.81,0,0,0,665.12,9a16.49,16.49,0,0,0-.4,4.64v21.8a15.37,15.37,0,0,0,.4,4.47A1.74,1.74,0,0,0,667,41a1.71,1.71,0,0,0,1.78-1.05,17.07,17.07,0,0,0,.42-4.91V29.1h12.21v1.83c0,4.86-.35,8.3-1,10.34a10.63,10.63,0,0,1-4.55,5.34,15.6,15.6,0,0,1-8.69,2.29A18,18,0,0,1,658.25,47a9.47,9.47,0,0,1-4.6-5.38q-1.14-3.44-1.14-10.33V17.54a61.27,61.27,0,0,1,.35-7.61A10.58,10.58,0,0,1,654.94,5a11.52,11.52,0,0,1,4.78-3.69,19.58,19.58,0,0,1,15.93.73,10,10,0,0,1,4.6,5.2q1.11,3.1,1.11,9.68Z"/>
      <path d="M711.73,1l-8.89,29.94v17H691.53v-17L683,1h11.21q2.63,13.74,3,18.49,1-7.51,3.39-18.49Z"/>
      <path d="M742.32,21.42H730.11V13.26a14.67,14.67,0,0,0-.39-4.44A1.68,1.68,0,0,0,728,7.94,1.81,1.81,0,0,0,726.08,9a16.49,16.49,0,0,0-.4,4.64v21.8a15.37,15.37,0,0,0,.4,4.47,1.74,1.74,0,0,0,1.83,1,1.71,1.71,0,0,0,1.78-1.05,17.07,17.07,0,0,0,.42-4.91V29.1h12.21v1.83c0,4.86-.35,8.3-1,10.34a10.63,10.63,0,0,1-4.55,5.34,15.6,15.6,0,0,1-8.69,2.29A18,18,0,0,1,719.21,47a9.52,9.52,0,0,1-4.61-5.38,35.39,35.39,0,0,1-1.13-10.33V17.54a61.27,61.27,0,0,1,.35-7.61A10.58,10.58,0,0,1,715.9,5a11.52,11.52,0,0,1,4.78-3.69,19.58,19.58,0,0,1,15.93.73,10,10,0,0,1,4.6,5.2q1.11,3.1,1.11,9.68Z"/>
      <path d="M758.9,1V38.52h7.42v9.4H746.69V1Z"/>
      <path d="M781.6,1V47.92H769.39V1Z"/>
      <path d="M813.74,1V47.92H803.05L796.7,26.58V47.92H786.49V1H796.7l6.84,21.13V1Z"/>
      <path d="M846.64,18.26h-12.2V14a21.09,21.09,0,0,0-.35-5,1.82,1.82,0,0,0-3.19-.15,14.28,14.28,0,0,0-.4,4.47V35.8a13.49,13.49,0,0,0,.4,4.16,1.59,1.59,0,0,0,1.63,1,1.8,1.8,0,0,0,1.81-1.13,13.21,13.21,0,0,0,.48-4.41V29.86h-2.47V22.73h14.29V47.92H839l-1.12-3.37a8.6,8.6,0,0,1-3.15,3.26,8.82,8.82,0,0,1-4.48,1.09,11.72,11.72,0,0,1-5.76-1.49,11.08,11.08,0,0,1-4.08-3.7,11.66,11.66,0,0,1-1.74-4.62,55.82,55.82,0,0,1-.35-7.26V17.88A46.08,46.08,0,0,1,819,8.12a10,10,0,0,1,4.16-5.58A14.58,14.58,0,0,1,832.06,0,16.54,16.54,0,0,1,841,2.2a10.45,10.45,0,0,1,4.61,5.23,27.91,27.91,0,0,1,1.07,8.8Z"/>
    </g>
    <g>
      <path d="M883.2,1l7,46.93H877.71l-.66-8.44h-4.36L872,47.92H859.34L865.56,1Zm-6.47,30.17q-.93-8-1.86-19.71Q873,24.94,872.53,31.16Z"/>
      <path d="M892.25,1h8.64q8.64,0,11.69.66a8.08,8.08,0,0,1,5,3.41c1.28,1.82,1.93,4.74,1.93,8.74,0,3.65-.46,6.1-1.36,7.36s-2.7,2-5.37,2.26q3.63.9,4.87,2.41a7.06,7.06,0,0,1,1.55,2.77,42.45,42.45,0,0,1,.31,6.94V47.92H908.16V32.32c0-2.51-.19-4.07-.59-4.67s-1.44-.9-3.12-.9V47.92h-12.2Zm12.2,8V19.45a5.34,5.34,0,0,0,2.89-.57c.55-.37.82-1.59.82-3.66V12.64c0-1.49-.26-2.47-.79-2.93A4.6,4.6,0,0,0,904.45,9Z"/>
      <path d="M952.11,28.46a99.26,99.26,0,0,1-.34,10A11.19,11.19,0,0,1,945,47.6a17.25,17.25,0,0,1-7,1.3,17.72,17.72,0,0,1-6.77-1.23,11.33,11.33,0,0,1-7-9.06,99.43,99.43,0,0,1-.35-10.15v-8c0-4.72.12-8.06.34-10A11.24,11.24,0,0,1,931,1.3,17.25,17.25,0,0,1,938,0a17.72,17.72,0,0,1,6.77,1.23,11.28,11.28,0,0,1,7,9.06,99.43,99.43,0,0,1,.35,10.15ZM939.9,13a14.53,14.53,0,0,0-.36-4.18,1.44,1.44,0,0,0-1.49-.92,1.65,1.65,0,0,0-1.46.74c-.34.49-.51,2-.51,4.36V35a21.76,21.76,0,0,0,.33,5A1.45,1.45,0,0,0,938,41a1.52,1.52,0,0,0,1.6-1.1,23.62,23.62,0,0,0,.34-5.25Z"/>
      <path d="M984.4,1V32.35a54.55,54.55,0,0,1-.35,7.49A10.19,10.19,0,0,1,982,44.28a10.8,10.8,0,0,1-4.5,3.45,17.07,17.07,0,0,1-6.6,1.17,18.53,18.53,0,0,1-7.42-1.39,11.25,11.25,0,0,1-4.81-3.62,10.16,10.16,0,0,1-1.89-4.71c-.19-1.66-.29-5.13-.29-10.43V1h12.21V36.18A14,14,0,0,0,969,40.1a1.31,1.31,0,0,0,1.35.86,1.42,1.42,0,0,0,1.49-.94,17.54,17.54,0,0,0,.34-4.45V1Z"/>
      <path d="M1016.37,1V47.92h-10.69l-6.35-21.34V47.92H989.12V1h10.21l6.84,21.13V1Z"/>
      <path d="M1021.27,1h9.13q8.85,0,12,.81a9.18,9.18,0,0,1,4.74,2.66,8.5,8.5,0,0,1,2,4.13,62.9,62.9,0,0,1,.4,9V34a38.62,38.62,0,0,1-.59,8.45,6.46,6.46,0,0,1-2.07,3.34,8.71,8.71,0,0,1-3.66,1.68,32.87,32.87,0,0,1-6.55.48h-15.39Zm12.2,8V39.89c1.76,0,2.84-.36,3.25-1.06s.61-2.63.61-5.76V14.84a25.33,25.33,0,0,0-.2-4.09,2,2,0,0,0-.93-1.32A6.17,6.17,0,0,0,1033.47,9Z"/>
      <path d="M1110.49,1l-5.43,46.93h-15.24q-2.08-10.81-3.69-24.62-.74,5.93-3.4,24.62h-15.15L1062.11,1H1074l1.29,16.37,1.24,15.83q.68-12.28,3.38-32.2h12.67q.26,2.05,1.33,15.47l1.35,17.86q1-17,3.41-33.33Z"/>
      <path d="M1140.78,28.46q0,7.08-.33,10a11.23,11.23,0,0,1-6.83,9.12,17.24,17.24,0,0,1-6.95,1.3,17.68,17.68,0,0,1-6.77-1.23,11.28,11.28,0,0,1-7-9.06,99.43,99.43,0,0,1-.35-10.15v-8q0-7.08.33-10a11.23,11.23,0,0,1,6.83-9.12,17.25,17.25,0,0,1,7-1.3,17.72,17.72,0,0,1,6.77,1.23,11.33,11.33,0,0,1,7,9.06,100.29,100.29,0,0,1,.34,10.15ZM1128.58,13a14.53,14.53,0,0,0-.36-4.18,1.44,1.44,0,0,0-1.49-.92,1.68,1.68,0,0,0-1.47.74c-.34.49-.51,2-.51,4.36V35a21,21,0,0,0,.34,5,1.45,1.45,0,0,0,1.55,1,1.5,1.5,0,0,0,1.59-1.1,23.38,23.38,0,0,0,.35-5.25Z"/>
      <path d="M1145.33,1H1154q8.64,0,11.7.66a8,8,0,0,1,5,3.41c1.29,1.82,1.93,4.74,1.93,8.74q0,5.47-1.36,7.36t-5.36,2.26c2.41.6,4,1.4,4.87,2.41a7.19,7.19,0,0,1,1.55,2.77,44.28,44.28,0,0,1,.3,6.94V47.92h-11.33V32.32c0-2.51-.2-4.07-.6-4.67s-1.43-.9-3.11-.9V47.92h-12.21Zm12.21,8V19.45a5.32,5.32,0,0,0,2.88-.57c.55-.37.83-1.59.83-3.66V12.64c0-1.49-.27-2.47-.8-2.93A4.54,4.54,0,0,0,1157.54,9Z"/>
      <path d="M1189.51,1V38.52h7.42v9.4h-19.62V1Z"/>
      <path d="M1199.89,1H1209q8.84,0,12,.81a9.27,9.27,0,0,1,4.74,2.66,8.48,8.48,0,0,1,2,4.13,62.4,62.4,0,0,1,.41,9V34a38.62,38.62,0,0,1-.59,8.45,6.41,6.41,0,0,1-2.08,3.34,8.61,8.61,0,0,1-3.65,1.68,32.87,32.87,0,0,1-6.55.48h-15.39Zm12.2,8V39.89c1.76,0,2.84-.36,3.25-1.06s.61-2.63.61-5.76V14.84a23.76,23.76,0,0,0-.21-4.09,1.94,1.94,0,0,0-.92-1.32A6.23,6.23,0,0,0,1212.09,9Z"/>
    </g>
  </g>
</svg>
