<svg xmlns="http://www.w3.org/2000/svg" width="1254.35" height="252" viewBox="0 0 1254.35 252">
  <g>
    <path d="M48.18,252q-23.43,0-35.8-14.15T0,196.94V104.13Q0,79.05,12.27,66.05t35.91-13q23.64,0,35.91,13t12.27,38.08v92.81q0,26.75-12.38,40.91T48.18,252ZM21.87,49V24.2L74.6,0V38.52ZM48.51,216q8.88,0,8.88-17.2V103.47Q57.39,89,48.74,89,39,89,39,103.8v95.25c0,6.07.73,10.42,2.22,13S45.11,216,48.51,216Z"/>
    <path d="M158.53,252q-26.76,0-38.58-13.32t-11.82-42.41V177.18h38.63V201.6q0,6.78,2.06,10.6c1.36,2.56,3.75,3.83,7.16,3.83s6-1,7.38-3.1,2-5.48,2-10.22a54.39,54.39,0,0,0-1.77-15,33.7,33.7,0,0,0-6.17-11.54,128.52,128.52,0,0,0-12.15-12.83l-17.54-16.65q-19.65-18.54-19.65-42.41,0-25,11.6-38.08t33.58-13.1q26.87,0,38.13,14.33t11.27,43.51H163V97.47a8.34,8.34,0,0,0-2.27-6.22A8.47,8.47,0,0,0,154.53,89c-3.1,0-5.38.87-6.82,2.61a10.14,10.14,0,0,0-2.17,6.72,21.18,21.18,0,0,0,2.22,8.88q2.22,4.77,8.77,11l22.54,21.65a129.21,129.21,0,0,1,12.43,13.6,59,59,0,0,1,9.11,16.65q3.44,9.5,3.44,23.14,0,27.54-10.16,43.13T158.53,252Z"/>
    <path d="M262.55,252q-21.21,0-34.14-13.21t-12.93-37V111.68q0-28.41,11.27-43.52t36.69-15.1a57.31,57.31,0,0,1,24.7,5.11,39.19,39.19,0,0,1,17,15.27Q311.39,83.6,311.39,99v33.75H272.54V103.91q0-8.77-2.22-11.82T263.44,89c-3.63,0-6.07,1.32-7.33,3.94a24.51,24.51,0,0,0-1.89,10.49v97.81q0,8.1,2.39,11.43a7.9,7.9,0,0,0,6.83,3.33q5,0,7.05-4.1a23.87,23.87,0,0,0,2.05-10.66V166.08h39.3v37q0,25.77-13,37.36T262.55,252Z"/>
    <path d="M319.5,250.23,338.37,54.84h66.28l18.54,195.39h-37l-2.78-31.53H359.91l-2.44,31.53Zm43.18-62.73h17.77L371.9,88.15h-1.78Z"/>
    <path d="M435.18,250.23V54.84h59.94q15,0,22.65,6.83T528,80.76a139.87,139.87,0,0,1,2.61,28.81q0,16-4,25.53t-15.27,13.22q9.21,1.88,12.93,9.15T528,176.29v73.94H489.46V173.74q0-8.55-3.5-10.6t-11.26-2.06v89.15Zm39.74-123h9.44q8.1,0,8.1-17.65,0-11.43-1.78-15C489.5,92.22,487.28,91,484,91h-9.1Z"/>
    <path d="M596.81,250.23V54.84h51.62q16.22,0,25.7,7.22t13.6,20.54q4.11,13.32,4.11,31.75,0,17.76-3.44,30.91t-12.27,20.37q-8.82,7.22-25,7.22H635.22v77.38Zm38.41-112.46h2.22q10.89,0,13.33-6.11t2.44-18q0-11.1-2.39-17.15t-11.27-6h-4.33v47.29Z"/>
    <path d="M704.16,250.23V54.84h78.16V92.59H743.91v38.07h36.85v36.75H743.91v44.74h41v38.08Z"/>
    <path d="M797.75,250.23V54.84h60q15,0,22.64,6.83t10.27,19.09a139.87,139.87,0,0,1,2.61,28.81q0,16-4.05,25.53T873.9,148.32q9.23,1.88,12.94,9.15t3.72,18.82v73.94H852V173.74q0-8.55-3.5-10.6t-11.27-2.06v89.15Zm39.74-123h9.44q8.1,0,8.1-17.65,0-11.43-1.77-15c-1.19-2.36-3.41-3.55-6.66-3.55h-9.11v36.19Z"/>
    <path d="M906.1,250.23V54.84h78.15V92.59H945.84v38.07H982.7v36.75H945.84v44.74h41v38.08Z"/>
    <path d="M997.91,250.23V54.84h37.74V250.23Z"/>
    <path d="M1051.19,250.23V54.84h60q15,0,22.65,6.83t10.27,19.09a139.87,139.87,0,0,1,2.61,28.81q0,16-4.06,25.53t-15.26,13.22q9.21,1.88,12.93,9.15t3.72,18.82v73.94h-38.52V173.74q0-8.55-3.5-10.6t-11.26-2.06v89.15Zm39.75-123h9.44q8.1,0,8.1-17.65,0-11.43-1.78-15c-1.18-2.36-3.4-3.55-6.66-3.55h-9.1v36.19Z"/>
    <path d="M1206.17,252q-23.43,0-35.8-14.15T1158,196.94V104.13q0-25.08,12.27-38.08t35.91-13q23.64,0,35.91,13t12.27,38.08v92.81q0,26.75-12.38,40.91T1206.17,252Zm.33-36q8.88,0,8.88-17.2V103.47q0-14.43-8.66-14.44Q1197,89,1197,103.8v95.25c0,6.07.73,10.42,2.22,13S1203.1,216,1206.5,216Z"/>
  </g>
</svg>
